<?xml version="1.0" encoding="utf-8"?>
<!-- Generator: Adobe Illustrator 17.1.0, SVG Export Plug-In . SVG Version: 6.00 Build 0)  -->
<!DOCTYPE svg PUBLIC "-//W3C//DTD SVG 1.1//EN" "http://www.w3.org/Graphics/SVG/1.1/DTD/svg11.dtd">
<svg version="1.1" id="angel" xmlns="http://www.w3.org/2000/svg" xmlns:xlink="http://www.w3.org/1999/xlink" x="0px" y="0px"
	 viewBox="0 0 100 100" enable-background="new 0 0 100 100" xml:space="preserve">
<circle id="angel-label" fill="#5D9CEC" cx="50" cy="50" r="50"/>
<g id="angel-shadow">
	<path fill="#4A89DC" d="M95.8535,67.3135c-0.1592-0.1612-0.3164-0.3213-0.4814-0.4815c-0.168-0.1699-0.335-0.3398-0.5098-0.5097
		c-0.1602-0.1621-0.3193-0.3243-0.4853-0.4864c-0.1622-0.164-0.3233-0.3261-0.4913-0.4902
		c-0.1689-0.1719-0.3369-0.3418-0.5127-0.5137c-0.1582-0.1582-0.3134-0.3164-0.4765-0.4765c-0.167-0.168-0.332-0.336-0.5049-0.5039
		c-0.1621-0.1641-0.3223-0.3262-0.4902-0.4903c-0.1621-0.164-0.3223-0.3281-0.4903-0.4912
		c-0.1689-0.1709-0.3369-0.3408-0.5127-0.5107c-0.1552-0.1582-0.3095-0.3145-0.4707-0.4727
		c-0.1709-0.1719-0.3418-0.3447-0.5185-0.5176c-0.1582-0.1601-0.3154-0.3193-0.4795-0.4795
		c-0.1611-0.163-0.3203-0.3251-0.4863-0.4873c-0.1651-0.166-0.3272-0.332-0.4981-0.498c-0.168-0.1699-0.334-0.3379-0.5078-0.5078
		c-0.1621-0.1621-0.3213-0.3242-0.4883-0.4883c-0.165-0.166-0.3291-0.332-0.5-0.498c-0.1592-0.1612-0.3154-0.3213-0.4804-0.4815
		c-0.1631-0.165-0.3252-0.3291-0.4942-0.4951c-0.1699-0.1719-0.3379-0.3418-0.5146-0.5137
		c-0.1573-0.1592-0.3135-0.3183-0.4766-0.4775c-0.165-0.167-0.3291-0.333-0.501-0.5c-0.165-0.167-0.3301-0.334-0.501-0.501
		c-0.1582-0.1602-0.3144-0.3184-0.4775-0.4785c-0.167-0.169-0.334-0.3379-0.5078-0.5078c-0.1631-0.1641-0.3242-0.3272-0.4922-0.4912
		c-2.6016-2.628-5.9053-5.3316-10.4248-5.7535c-0.0186-0.0166-0.0381-0.0332-0.0576-0.0498
		c-0.1406-0.1733-0.3106-0.3378-0.4971-0.4965c-0.1387-0.1719-0.3076-0.335-0.4931-0.4927
		c-0.1387-0.1719-0.3077-0.335-0.4932-0.4932c-0.1397-0.1733-0.3096-0.3384-0.4971-0.4975
		c-0.1387-0.1714-0.3076-0.3345-0.4922-0.4917c-0.1396-0.1739-0.3095-0.3384-0.497-0.4976
		c-0.1387-0.1714-0.3077-0.3345-0.4922-0.4917c-0.1397-0.1728-0.3086-0.3369-0.4942-0.4951
		c-0.1396-0.1729-0.3095-0.3374-0.497-0.4961c-0.1387-0.1719-0.3077-0.3355-0.4932-0.4932
		c-0.1387-0.1718-0.3076-0.3354-0.4922-0.4931c-0.1396-0.1729-0.3096-0.3374-0.4961-0.4961
		c-0.1396-0.1729-0.3096-0.3369-0.4951-0.4947c-0.1387-0.1723-0.3076-0.3354-0.4932-0.4931
		c-0.1396-0.1734-0.3095-0.3384-0.497-0.4971c-0.1387-0.1719-0.3077-0.3345-0.4922-0.4917
		c-0.1397-0.1733-0.3086-0.3374-0.4951-0.4961c-0.1397-0.1728-0.3096-0.3369-0.4961-0.4951
		c-0.1387-0.1719-0.3067-0.335-0.4922-0.4922c-0.1397-0.1738-0.3096-0.3389-0.4971-0.4975
		c-0.1387-0.1714-0.3076-0.3345-0.4922-0.4917c-0.1387-0.1729-0.3086-0.337-0.4941-0.4952
		c-0.1397-0.1733-0.3106-0.3379-0.4971-0.4965c-0.1387-0.1719-0.3076-0.335-0.4922-0.4927
		c-0.1396-0.1729-0.3105-0.3374-0.497-0.4961c-0.1387-0.1719-0.3077-0.3355-0.4932-0.4927
		c-0.1387-0.1724-0.3076-0.3354-0.4922-0.4936c-0.1406-0.1739-0.3105-0.3389-0.498-0.4981
		c-0.1387-0.1714-0.3077-0.334-0.4922-0.4912c-1.0811-1.3403-3.6377-2.2817-6.6221-2.2817c-3.9629,0-7.1738,1.6582-7.1738,3.707
		c0,0.1055,0.0078,0.2109,0.0273,0.3135c0.0127,0.083,0.0361,0.1621,0.0576,0.2392c0.0069,0.0225,0.0098,0.043,0.0176,0.0645
		c0.0654,0.2002,0.165,0.3945,0.2881,0.582c0.0059,0.0059,0.0078,0.0137,0.0137,0.0176c-0.2364,0.0996-0.4639,0.2031-0.6875,0.3115
		c-0.0606,0.0313-0.1299,0.0625-0.1895,0.0947h-0.0029c-0.2735,0.1377-0.5371,0.2823-0.794,0.4317
		c-0.0381,0.0215-0.0732,0.0449-0.1074,0.0664c-0.2197,0.1308-0.4365,0.2666-0.6426,0.4101
		c-0.0439,0.0254-0.0869,0.0596-0.1298,0.0889c-0.2012,0.1397-0.3956,0.2803-0.584,0.4277
		c-0.0371,0.0323-0.0782,0.0625-0.1182,0.0928c-0.1953,0.1563-0.3799,0.3154-0.5674,0.4766
		c-0.0234,0.0224-0.0498,0.0439-0.0722,0.0654c-0.8536,0.7715-1.5733,1.6104-2.1836,2.4805
		c-0.0196,0.0205-0.0352,0.0478-0.0518,0.0732c-1.8213,2.6192-2.6611,5.4619-3.0312,7.2139
		c-0.0059,0.0185-0.0088,0.0391-0.0137,0.0596c-0.21,0.9951-0.2627,1.625-0.2627,1.625c-0.0781,0.0649-0.1455,0.1259-0.2197,0.1894
		c-0.1514-0.0361-0.295-0.0547-0.4454-0.0864c0.0225-0.124,0.043-0.2442,0.0694-0.3848c-0.1924-0.0478-0.374-0.0693-0.5635-0.1094
		c0.0225-0.1245,0.043-0.2441,0.0693-0.3852c-0.1933-0.0479-0.374-0.0693-0.5644-0.1094c0.0225-0.1245,0.043-0.2446,0.0693-0.3852
		c-0.1933-0.0479-0.374-0.0694-0.5635-0.1094c0.0225-0.1245,0.042-0.2442,0.0694-0.3853
		c-9.0772-2.2441-14.2217,4.2549-17.8672,8.0743c0,0-3.3779,3.7656-1.4463,4.748c0.0918,0.2012,0.25,0.3701,0.4951,0.4941
		c0.0918,0.2012,0.249,0.3702,0.4932,0.4942c0.0918,0.2012,0.25,0.3711,0.4951,0.4961c0.0918,0.1992,0.25,0.3691,0.4951,0.4941
		c0.0918,0.1992,0.249,0.3692,0.4942,0.4942c0.0918,0.2002,0.249,0.3691,0.4941,0.4941c0.0918,0.2012,0.25,0.3701,0.4951,0.4941
		c0.0918,0.2012,0.249,0.3711,0.4932,0.4942c0.0928,0.2011,0.251,0.3711,0.4961,0.4961c0.0918,0.1992,0.249,0.3691,0.4931,0.4931
		c0.0918,0.2012,0.25,0.3711,0.4952,0.4952c0.0918,0.2011,0.25,0.3701,0.4951,0.4941c0.0918,0.2012,0.249,0.3701,0.4941,0.4941
		c0.0918,0.2012,0.25,0.3711,0.4951,0.4961c0.0918,0.1992,0.2491,0.3692,0.4942,0.4942c0.0918,0.1992,0.249,0.3691,0.4941,0.4941
		c0.0918,0.2002,0.25,0.3701,0.4951,0.4941c0.0918,0.2012,0.2491,0.3702,0.4942,0.4942c0.0918,0.2012,0.25,0.3711,0.4951,0.4961
		c0.0918,0.1992,0.249,0.3691,0.4941,0.4941c0.0918,0.1992,0.2491,0.3692,0.4932,0.4932c0.0918,0.2012,0.25,0.3711,0.4961,0.4951
		c0.0918,0.2012,0.249,0.3701,0.4932,0.4941c0.0918,0.2012,0.25,0.3711,0.4951,0.4952c0.0918,0.2002,0.25,0.3701,0.4941,0.4951
		c0.0918,0.1992,0.25,0.3691,0.4942,0.4941c0.0927,0.2002,0.25,0.3701,0.4951,0.4942c0.0927,0.2011,0.25,0.3701,0.4951,0.4941
		c0.0918,0.2012,0.249,0.3701,0.4932,0.4941c0.0917,0.2012,0.25,0.3711,0.4951,0.4961c0.0918,0.1993,0.25,0.3692,0.4951,0.4942
		c0.0918,0.2002,0.25,0.3691,0.4941,0.4941c0.0918,0.2012,0.25,0.3701,0.4951,0.4942c0.0918,0.2011,0.2491,0.3701,0.4942,0.4941
		c0.0918,0.2012,0.249,0.3711,0.4931,0.4941c0.0928,0.2012,0.251,0.3711,0.4961,0.4961c0.0918,0.2002,0.2491,0.3692,0.4942,0.4942
		c0.0918,0.2002,0.249,0.3691,0.4941,0.4941c0.0918,0.2012,0.25,0.3701,0.4951,0.4942c0.0909,0.2011,0.2491,0.371,0.4942,0.4951
		c0.0918,0.2002,0.25,0.3701,0.4951,0.4951c0.0918,0.1992,0.249,0.3691,0.4932,0.4941c0.0918,0.2002,0.25,0.3701,0.4951,0.4942
		c0.0918,0.2011,0.25,0.3711,0.4951,0.4941c0.0918,0.2012,0.249,0.3701,0.4941,0.4942c0.0918,0.2011,0.2491,0.371,0.4942,0.4951
		c0.0918,0.2002,0.25,0.3701,0.4941,0.4951c0.0918,0.2002,0.25,0.3701,0.4951,0.4941c0.0918,0.2012,0.25,0.3701,0.4952,0.4942
		c0.0918,0.2011,0.249,0.3701,0.4931,0.4941c0.0918,0.2012,0.25,0.3711,0.4951,0.4951c0.0918,0.2002,0.25,0.3701,0.4952,0.4951
		c0.0917,0.2002,0.249,0.3692,0.4941,0.4942c0.0918,0.2012,0.25,0.3701,0.4951,0.4941c0.0918,0.2012,0.249,0.3701,0.4942,0.4942
		c0.0917,0.2011,0.249,0.3701,0.4931,0.4941c0.0918,0.2012,0.251,0.3711,0.4961,0.4961c0.0918,0.1992,0.249,0.3691,0.4941,0.4941
		c0.0918,0.1993,0.2491,0.3692,0.4942,0.4942c0.0918,0.2012,0.25,0.3701,0.4951,0.4941c0.0918,0.2012,0.249,0.3701,0.4932,0.4942
		c0.0918,0.2011,0.25,0.3711,0.4951,0.4961c0.0918,0.1992,0.25,0.3691,0.4951,0.4941c0.0918,0.1992,0.249,0.3691,0.4941,0.4941
		c0.0918,0.2002,0.25,0.3702,0.4952,0.4942c0.0918,0.2011,0.249,0.3701,0.4931,0.4941c0.0928,0.2012,0.25,0.3711,0.4951,0.4951
		c0.0918,0.2002,0.25,0.3702,0.4952,0.4952c0.0918,0.1992,0.249,0.3691,0.4931,0.4931c0.0918,0.2002,0.25,0.3701,0.4951,0.4951
		c0.0928,0.2012,0.25,0.3702,0.4952,0.4942c0.0918,0.2011,0.249,0.3701,0.4931,0.4941c0.0928,0.2012,0.251,0.3711,0.4961,0.4961
		c0.0918,0.1992,0.249,0.3691,0.4932,0.4932c0.0918,0.2011,0.25,0.3701,0.4951,0.4951c0.0918,0.2012,0.25,0.3711,0.4951,0.4941
		c0.0918,0.2012,0.249,0.3701,0.4932,0.4942c0.0801,0.1738,0.2217,0.3183,0.414,0.4375
		c20.3916-0.7832,37.6436-13.7735,44.669-31.875c-0.0918-0.0918-0.1817-0.1826-0.2754-0.2744
		C96.1807,67.6387,96.0205,67.4766,95.8535,67.3135z"/>
</g>
<g id="angel-angel">
	<path fill="#4FC1E9" d="M31.2588,60.4863l-1.7266-3.8242l1.71,0.2334c-0.5967-0.9336-1.0117-1.9609-1.0127-3.1006
		c-0.0029-0.041-0.0029-0.0869,0.001-0.1318c0-0.0635-0.001-0.127,0.0029-0.1865c0.1201-1.7901,1.2559-3.1914,2.4326-4.2725
		c0.0283-0.1768,0.0645-0.373,0.1055-0.5889c-9.0772-2.2441-14.2217,4.2549-17.8672,8.0743c0,0-7.0596,7.8652,5.0439,3.83
		c0,0-4.0322,9.8858,7.0596,2.419c0,0-4.6406,9.2783,5.042,2.8271c0,0,3.3027-0.3271,6.9883-0.3027
		c-1.0801-0.8262-2.0518-1.8057-2.9033-2.8965c-0.3819,0.0986-0.7881,0.1563-1.209,0.1563
		C33.2852,62.7227,31.8789,61.8662,31.2588,60.4863z"/>
	<path fill="#4FC1E9" d="M85.0947,56.6895c-3.6133-3.7901-8.7051-10.2168-17.6455-8.129c0.0049,0.2471-0.0049,0.501-0.0049,0.7549
		c0.0508,0.3848,0.086,0.7774,0.1153,1.1739c2.0019,0.1572,3.4531,1.6113,3.5205,3.5273c0,0.0098,0,0.0186,0.001,0.0273
		c0.0019,0.0459,0.0058,0.0879,0.0058,0.1299s-0.0107,0.0742-0.0107,0.1172c-0.0069,0.0361-0.0069,0.0752-0.0127,0.1113
		c-0.1084,1.7217-1.3565,3.5401-3.4112,4.2393l0.6553,0.5889c0.4971,0.1425,1.0615,0.0517,1.5879-0.46
		c0,0-0.4463,0.5615-1.0596,0.9404l0.5577,0.5049c-0.2862,0.3584-1.8174,2.1582-3.9092,2.1582
		c-0.3164,0-0.7354-0.0429-1.1905-0.1992c-0.916,1.251-1.9892,2.3623-3.1933,3.2842c3.6269-0.0137,6.8476,0.3066,6.8476,0.3066
		c9.6797,6.4512,5.0401-2.8271,5.0401-2.8271c11.0967,7.4668,7.0635-2.419,7.0635-2.419
		C92.1533,64.5547,85.0947,56.6895,85.0947,56.6895z"/>
	<path fill="#FFFFFF" d="M61.4307,55.1621c-2.3614-1.0547-5.5723-3.0703-7.7403-5.9707c-1.9306,1.6563-4.959,3.7324-8.6611,4.4834
		l-0.7842,0.1602c-1.9092,0.3837-5.1767,1.0332-6.7168,1.6914c1.9453,2.0693,1.6612,3.8486,1.2998,4.7529
		c-0.2187,0.5469-0.5693,1.0225-1.0078,1.4033c0.9844,1.458,2.1797,2.7383,3.5381,3.7803c2.4668,1.8867,5.4697,2.998,8.7129,2.998
		c3.2432,0,6.2402-1.1113,8.708-3.0019c1.542-1.1807,2.8711-2.6651,3.9228-4.3721c-0.2724-0.3057-0.5322-0.6777-0.7646-1.1406
		C60.8105,57.7275,60.7646,56.2715,61.4307,55.1621z"/>
	<path fill="#FFCE54" d="M65.9727,56.6104c2.9541-0.126,3.8154-3.6866,1.3554-3.8135c-0.1562-0.0049-0.2988-0.0293-0.4355-0.0567
		c-0.044-0.0058-0.0811-0.0205-0.124-0.0293c-0.085-0.0244-0.1719-0.0459-0.253-0.0722c-0.04-0.0186-0.0771-0.0362-0.1162-0.0547
		c-0.0664-0.0332-0.1396-0.0635-0.2051-0.1016c-0.0302-0.0185-0.0586-0.0429-0.0918-0.0664
		c-0.0576-0.039-0.1211-0.0791-0.1748-0.1201c-0.0263-0.0205-0.0459-0.0479-0.0693-0.0723
		c-0.0508-0.0449-0.1055-0.0996-0.1533-0.1494c-0.0127-0.0224-0.0283-0.0459-0.0449-0.0635
		c-0.0459-0.0615-0.0928-0.1201-0.1319-0.1836c-0.0107-0.0156-0.0185-0.0341-0.0263-0.0517
		c-0.0401-0.0664-0.0821-0.1367-0.1143-0.207c-0.0039-0.0118-0.0078-0.0245-0.0137-0.0293
		c-0.0332-0.0791-0.0644-0.1563-0.0918-0.2354l-0.0009-0.0029c0,0,0,0,0-0.002C65.0576,50.6367,65.1133,50,65.1133,50
		c0.0107-0.2373,0.0049-0.46,0.0068-0.6914l0,0c0.002-0.2539-0.0107-0.4961-0.0156-0.7412
		c-0.1387-5.8301-2.7178-9.0791-5.4775-10.8858c-0.0323-0.0185-0.0674-0.04-0.0977-0.0605
		c-0.1807-0.1113-0.3594-0.2227-0.5361-0.3262c-0.0879-0.0478-0.1739-0.0928-0.2598-0.1396
		c-0.125-0.0694-0.2559-0.1416-0.3848-0.2051c-0.2168-0.1094-0.4345-0.2109-0.6465-0.3066
		c0.3399-0.4307,0.5293-0.8985,0.5293-1.3975c0-2.0488-3.2119-3.707-7.1728-3.707c-3.9629,0-7.1738,1.6582-7.1738,3.707
		c0,0.1055,0.0078,0.2109,0.0273,0.3135c0.0127,0.083,0.0361,0.1621,0.0576,0.2392c0.0069,0.0225,0.0098,0.043,0.0176,0.0645
		c0.0654,0.2002,0.165,0.3945,0.2881,0.582l0,0c0.0059,0.0059,0.0078,0.0137,0.0137,0.0176
		c-0.2364,0.0996-0.4639,0.2031-0.6875,0.3115c-0.0606,0.0313-0.1299,0.0625-0.1895,0.0947h-0.0029
		c-0.2735,0.1377-0.5371,0.2823-0.794,0.4317c-0.0381,0.0215-0.0732,0.0449-0.1074,0.0664
		c-0.2197,0.1308-0.4365,0.2666-0.6426,0.4101c-0.0439,0.0254-0.0869,0.0596-0.1298,0.0889
		c-0.2012,0.1397-0.3956,0.2803-0.584,0.4277c-0.0371,0.0323-0.0782,0.0625-0.1182,0.0928
		c-0.1953,0.1563-0.3799,0.3154-0.5674,0.4766c-0.0234,0.0224-0.0498,0.0439-0.0722,0.0654
		c-0.8536,0.7715-1.5733,1.6104-2.1836,2.4805c-0.0196,0.0205-0.0352,0.0478-0.0518,0.0732
		c-1.8213,2.6192-2.6611,5.4619-3.0312,7.2139c-0.0059,0.0185-0.0088,0.0391-0.0137,0.0596c-0.21,0.9951-0.2627,1.625-0.2627,1.625
		c-3.0752,2.5429-2.9522,4.0693-0.3682,6.8632c2.5821,2.8038-1.1084,2.2901-1.1084,2.2901
		c0.0323,0.0722,0.0684,0.1318,0.1114,0.1953c0.0117,0.0156,0.0253,0.0332,0.0371,0.0517c0.0302,0.0381,0.0644,0.0811,0.0986,0.1172
		c0.0176,0.0205,0.0332,0.0323,0.0498,0.0479c0.0391,0.0391,0.0801,0.0752,0.1221,0.1045c0.0049,0,0.0058,0.0068,0.0088,0.0068
		c0.1962-0.1299,0.3603-0.2949,0.4755-0.4941c0.1329,0.2802,0.2774,0.5576,0.4239,0.8203c0.0039,0.0068,0.0088,0.0068,0.0127,0.0068
		c0,0,0.0009,0,0.0049,0c0.1591,0.0156,0.3242,0.0117,0.4833-0.0088c0.0088,0,0.0157,0,0.0206,0
		c0.0781-0.0088,0.1543-0.0273,0.2304-0.0449c0,0,0.001,0,0.0059,0c0.4795-0.1113,0.914-0.373,1.1387-0.7734l0,0
		c0.3486-0.6123,0.207-1.5323-1.0088-2.6973c-0.0147-0.0117-0.0244-0.0273-0.0381-0.0361l0,0c0-0.003-0.001-0.003-0.002-0.0069
		c-0.1162-0.1132-0.2158-0.2216-0.3037-0.3271c-0.0166-0.0176-0.0322-0.0361-0.0459-0.0537
		c-0.0742-0.0928-0.1426-0.1797-0.1972-0.2705c-0.0118-0.0176-0.0245-0.0362-0.0372-0.0567
		c-0.0556-0.0908-0.1015-0.1836-0.1396-0.2715c-0.0039-0.0117-0.0117-0.0205-0.0147-0.0292
		c-0.082-0.2022-0.1171-0.3907-0.1074-0.5762c0-0.0098,0.002-0.0186,0.0059-0.0313c0.0049-0.0771,0.0166-0.1523,0.0381-0.2275
		c0.0058-0.0156,0.0107-0.0361,0.0156-0.0518c0.0244-0.0683,0.0527-0.1357,0.0898-0.2011c0.0079-0.0186,0.0147-0.0362,0.0254-0.0479
		c0.045-0.0781,0.0957-0.1504,0.1553-0.2246c0,0,0.001-0.0039,0.0059-0.0068c0,0,0,0,0,0.0029
		c1.2314-1.4668,5.6152-2.2598,9.5302-3.0498c5.6582-1.1484,9.6338-5.9727,9.6338-5.9727c2.0069,5.083,8.6944,8.1328,10.0489,8.2627
		c0.3623,0.0323,0.7138,0.0772,1.0078,0.1407c0.0341,0.0068,0.0664,0.0156,0.1015,0.0244c0.0264,0.0049,0.0508,0.0117,0.0752,0.0205
		c0.0283,0.0088,0.0606,0.0156,0.0889,0.0273c0.0205,0.0088,0.043,0.0117,0.0644,0.0205c0.043,0.0186,0.084,0.0342,0.1231,0.0547
		c0.0117,0.002,0.0185,0.0117,0.0332,0.0176c0.0234,0.0156,0.0508,0.0273,0.0713,0.0478c0.0127,0.0069,0.0234,0.0157,0.0332,0.0245
		c0.0195,0.0156,0.0342,0.0302,0.0488,0.0478c0.0059,0.0117,0.0147,0.0205,0.0205,0.0303c0.0147,0.0273,0.0293,0.0517,0.0362,0.081
		c0,0.0069-0.004,0.0118,0,0.0157c0.0019,0.0234,0,0.0547-0.0069,0.081c0,0.0098-0.0049,0.0235-0.0117,0.0322
		c-0.0059,0.0215-0.0176,0.0518-0.0322,0.0791c-0.0059,0.0118-0.0098,0.0186-0.0196,0.0323
		c-0.0273,0.0361-0.0556,0.0791-0.0966,0.1201c0,0.0039-0.0039,0.0039-0.0049,0.0088c-0.042,0.039-0.0879,0.082-0.1406,0.124
		c-0.0157,0.0186-0.0342,0.0303-0.0538,0.0439c-0.0449,0.0362-0.0957,0.0733-0.1523,0.1114
		c-0.0195,0.0127-0.0381,0.0312-0.0635,0.0459c-0.0771,0.0508-0.1621,0.1084-0.2607,0.1621
		c-1.6826,0.998-2.4199,1.1445-1.1885,3.6426l0,0c0.0254,0.0566,0.0518,0.1113,0.0811,0.1728
		c0.4785,0.9404,1.0586,1.1943,1.6123,1.1426c0.1396-0.2608,0.2675-0.5283,0.3916-0.8047
		C64.6328,58.874,63.7959,56.7031,65.9727,56.6104z"/>
	<g>
		<path fill="#FC6E51" d="M53.1592,63.1133c-0.3682,0.5439-1.2227,0.9726-1.8926,1.0361h-0.791
			c-0.6729-0.0635-1.4668-0.4287-1.833-0.9795c-0.3643-0.5469-0.8516-0.8525-0.8516-0.8525s2.1338-0.1836,2.8037,0.1855
			c0,0,0.6114-0.3095,0.9141,0c0,0,1.6504-0.4931,2.5029-0.2461C54.0117,62.2568,53.5234,62.5605,53.1592,63.1133z"/>
		<path fill="#FC6E51" d="M51.4805,61.5234l-0.5166,0.2735l-0.4883-0.2735c-0.5811,0.0635-1.9844,0.794-2.8399,0.794
			c0,0,0.5508-0.5205,0.9473-0.918c0.249-0.249,0.6406-1.0019,1.6162-1.1894c0,0,0.3955-0.0303,0.7647,0.2763
			c0.3027-0.3066,0.914-0.3066,0.914-0.3066c0.793,0.123,1.2813,0.916,1.4619,1.2197c0.2481,0.4102,0.792,0.8252,0.792,0.8252
			C52.8223,62.166,51.6318,61.3994,51.4805,61.5234z"/>
	</g>
</g>
</svg>
