<?xml version="1.0" encoding="utf-8"?>
<!-- Generator: Adobe Illustrator 17.1.0, SVG Export Plug-In . SVG Version: 6.00 Build 0)  -->
<!DOCTYPE svg PUBLIC "-//W3C//DTD SVG 1.1//EN" "http://www.w3.org/Graphics/SVG/1.1/DTD/svg11.dtd">
<svg version="1.1" id="bells" xmlns="http://www.w3.org/2000/svg" xmlns:xlink="http://www.w3.org/1999/xlink" x="0px" y="0px"
	 viewBox="0 0 100 100" enable-background="new 0 0 100 100" xml:space="preserve">
<circle id="bells-label" fill="#FC6E51" cx="50" cy="50" r="50"/>
<g id="bells-shadow">
	<path fill="#E9573F" d="M97.542,63.457c-0.0264,0.0264-0.0596,0.0469-0.0869,0.0723c-0.1192-0.2051-0.252-0.3975-0.4072-0.5664
		c-0.0264,0.0264-0.0606,0.0469-0.087,0.0723c-0.1191-0.2061-0.2519-0.3975-0.4082-0.5665
		c-0.0254,0.0254-0.0605,0.0459-0.0859,0.0713c-0.1191-0.206-0.2529-0.3974-0.4082-0.5664
		C96.0332,62,95.998,62.0195,95.9727,62.0459c-0.1202-0.2061-0.2539-0.3975-0.4092-0.5664
		c-0.0264,0.0264-0.0596,0.0459-0.0869,0.0713c-0.1182-0.2051-0.252-0.3965-0.4073-0.5664
		c-0.0263,0.0263-0.0595,0.0468-0.0869,0.0722c-0.1191-0.205-0.2519-0.3974-0.4072-0.5664
		c-0.0264,0.0264-0.0606,0.0469-0.0869,0.0723c-0.1192-0.2061-0.252-0.3975-0.4082-0.5664
		c-0.0254,0.0254-0.0606,0.0459-0.086,0.0723c-0.1191-0.2071-0.2529-0.3985-0.4082-0.5664
		c-0.0254,0.0253-0.0605,0.0459-0.0859,0.0712c-0.1191-0.206-0.2529-0.3974-0.4082-0.5664
		c-0.0264,0.0264-0.0605,0.0459-0.0869,0.0713c-0.1192-0.2051-0.2529-0.3965-0.4082-0.5664
		c-0.0264,0.0264-0.0596,0.0469-0.0869,0.0723c-0.1192-0.2051-0.252-0.3965-0.4073-0.5664
		c-0.0263,0.0263-0.0595,0.0469-0.0869,0.0722c-0.1191-0.205-0.2519-0.3974-0.4082-0.5664
		c-0.0254,0.0254-0.0595,0.0459-0.0859,0.0723c-0.1192-0.2061-0.252-0.3984-0.4082-0.5664
		c-0.0254,0.0254-0.0606,0.0459-0.086,0.0713c-0.1191-0.2061-0.2529-0.3975-0.4082-0.5664
		c-0.0263,0.0263-0.0605,0.0459-0.0859,0.0713c-0.1191-0.2051-0.2529-0.3965-0.4082-0.5664
		c-0.0264,0.0263-0.0605,0.0468-0.0869,0.0722c-0.1192-0.2051-0.2529-0.3965-0.4082-0.5664
		c-0.0264,0.0264-0.0596,0.0469-0.0869,0.0723c-0.1192-0.2051-0.252-0.3975-0.4082-0.5664
		c-0.0254,0.0254-0.0596,0.0469-0.086,0.0722c-0.1191-0.206-0.2519-0.3974-0.4082-0.5664
		c-0.0254,0.0254-0.0605,0.0459-0.0859,0.0713c-0.1192-0.206-0.2529-0.3974-0.4082-0.5664
		c-0.0264,0.0264-0.0606,0.0459-0.0869,0.0713c-0.1192-0.2051-0.252-0.3965-0.4073-0.5654
		c-0.0263,0.0263-0.0605,0.0459-0.0869,0.0713c-0.1191-0.2051-0.2529-0.3965-0.4082-0.5664
		c-0.0263,0.0263-0.0595,0.0468-0.0869,0.0722c-0.1191-0.205-0.2519-0.3974-0.4082-0.5664
		c-0.0254,0.0254-0.0586,0.0459-0.0859,0.0723c-0.1192-0.2061-0.252-0.3975-0.4082-0.5664
		c-0.0254,0.0254-0.0596,0.0459-0.086,0.0713c-0.1191-0.2061-0.2529-0.3975-0.4082-0.5655
		c-0.0254,0.0254-0.0605,0.0459-0.0859,0.0713c-0.1191-0.206-0.2529-0.3974-0.4082-0.5664
		c-0.0264,0.0264-0.0606,0.0459-0.0859,0.0713c-0.1202-0.2056-0.254-0.397-0.4092-0.5659
		c-0.0264,0.0259-0.0596,0.0464-0.0869,0.0718c-0.1192-0.2056-0.252-0.397-0.4073-0.5659
		c-0.0263,0.0258-0.0595,0.0463-0.0869,0.0717c-0.1191-0.2055-0.2519-0.3974-0.4082-0.5664
		c-0.0254,0.0259-0.0596,0.0459-0.0859,0.0718c-0.1192-0.2056-0.253-0.397-0.4082-0.5664c-0.0254,0.0259-0.0606,0.0464-0.086,0.0718
		c-0.1191-0.2056-0.2529-0.3975-0.4082-0.5664c-0.0254,0.0263-0.0605,0.0464-0.0869,0.0722
		c-0.1191-0.2055-0.2529-0.3974-0.4082-0.5664c-0.0264,0.0259-0.0596,0.0459-0.0869,0.0718
		c-0.1182-0.2056-0.252-0.3975-0.4072-0.5664c-0.0264,0.0259-0.0596,0.0464-0.0869,0.0718
		c-0.1192-0.2056-0.252-0.3975-0.4073-0.5664c-0.0263,0.0259-0.0595,0.0464-0.0869,0.0717
		c-0.1191-0.2055-0.2519-0.3974-0.4082-0.5664c-0.0254,0.0259-0.0605,0.0464-0.0859,0.0718
		c-0.1192-0.2055-0.253-0.397-0.4082-0.5659c-0.0254,0.0264-0.0606,0.0464-0.0869,0.0723c-0.1192-0.2061-0.253-0.3975-0.4082-0.5669
		c-0.0264,0.0259-0.0596,0.0459-0.086,0.0718c-0.1191-0.2061-0.2529-0.3975-0.4082-0.5665
		c-0.0263,0.0259-0.0596,0.0464-0.0869,0.0718c-0.1191-0.2055-0.2519-0.3974-0.4072-0.5664
		c-0.0264,0.0264-0.0596,0.0464-0.0869,0.0723c-0.1192-0.2061-0.252-0.3975-0.4082-0.5664
		c-0.0254,0.0259-0.0596,0.0459-0.086,0.0718c-0.1191-0.2061-0.2519-0.3975-0.4082-0.5665
		c-0.0254,0.0259-0.0605,0.0464-0.0869,0.0723c-0.1191-0.206-0.2529-0.3979-0.4082-0.5669
		c-0.0264,0.0259-0.0596,0.0459-0.0859,0.0718c-0.1192-0.2061-0.253-0.3975-0.4082-0.5664
		c-0.0264,0.0259-0.0596,0.0464-0.087,0.0718c-0.1191-0.2056-0.2519-0.3975-0.4072-0.5664
		c-0.0263,0.0263-0.0605,0.0463-0.0869,0.0722c-0.1191-0.2055-0.2519-0.3974-0.4082-0.5664
		c-0.0254,0.0259-0.0596,0.0459-0.0859,0.0718c-0.1192-0.2061-0.252-0.3975-0.4082-0.5664
		c-0.0254,0.0259-0.0606,0.0464-0.086,0.0718c-0.1191-0.2056-0.2529-0.3975-0.4082-0.5664
		c-0.0254,0.0263-0.0605,0.0463-0.0869,0.0722c-0.1191-0.206-0.2529-0.3974-0.4082-0.5664
		c-0.0264,0.0259-0.0596,0.0459-0.0859,0.0718c-0.1192-0.2056-0.253-0.3975-0.4082-0.5664
		c-0.0264,0.0259-0.0596,0.0464-0.0869,0.0718c-0.1192-0.2056-0.252-0.3975-0.4083-0.5664
		c-0.0253,0.0258-0.0595,0.0463-0.0859,0.0717c-0.1191-0.2055-0.2519-0.3969-0.4082-0.5659
		c-0.0254,0.0259-0.0596,0.0459-0.0859,0.0713c-0.1192-0.2056-0.253-0.3975-0.4082-0.5664
		c-0.0254,0.0264-0.0606,0.0464-0.0869,0.0723c-0.1192-0.2056-0.253-0.3975-0.4083-0.5664
		c-0.0263,0.0258-0.0595,0.0459-0.0859,0.0717c-0.1191-0.2055-0.2529-0.3974-0.4082-0.5664
		c-0.0264,0.0259-0.0596,0.0464-0.0869,0.0718c-0.1191-0.2056-0.252-0.3974-0.4082-0.5664
		c-0.0254,0.0264-0.0596,0.0464-0.0859,0.0723c-0.1192-0.2061-0.252-0.3975-0.4082-0.5664
		c-0.0254,0.0258-0.0596,0.0459-0.086,0.0717c-0.1191-0.206-0.2519-0.3974-0.4082-0.5669
		c-0.0254,0.0264-0.0605,0.0464-0.0869,0.0723c-0.1182-0.206-0.252-0.3974-0.4072-0.5664
		c-0.0264,0.0264-0.0606,0.0464-0.0869,0.0723c-0.1192-0.2061-0.253-0.3975-0.4082-0.5664
		c-0.0264,0.0258-0.0596,0.0459-0.086,0.0717c-0.1201-0.206-0.2529-0.3974-0.4092-0.5669
		c-0.0254,0.0259-0.0595,0.0464-0.0859,0.0718c-0.1191-0.2055-0.252-0.3969-0.4082-0.5659
		c-0.0254,0.0259-0.0596,0.0464-0.0859,0.0718c-0.1192-0.2056-0.252-0.397-0.4082-0.5664c-0.0254,0.0259-0.0606,0.0464-0.086,0.0718
		c-0.1191-0.2056-0.2529-0.397-0.4082-0.5664c-0.0264,0.0258-0.0605,0.0463-0.0869,0.0717
		c-0.1191-0.2055-0.2529-0.3969-0.4072-0.5659c-0.0264,0.0264-0.0606,0.0464-0.0869,0.0723
		c-0.1192-0.2061-0.253-0.398-0.4092-0.5674c-0.0254,0.0259-0.0596,0.0464-0.086,0.0718c-0.1191-0.2056-0.2519-0.397-0.4082-0.5659
		c-0.1103,0.1113-0.248,0.2036-0.3691,0.3076c-0.0137-0.0044-0.0264-0.0078-0.0391-0.0122
		c0.0821-0.0728,0.1748-0.1421,0.2461-0.2178c-0.248-0.1035-0.4951-0.1948-0.7412-0.2769c0.082-0.0727,0.1748-0.1421,0.2471-0.2177
		c-1.9111-0.7945-3.75-0.9624-5.5156-0.5035c-1.7676,0.459-3.3203,1.4512-4.6621,2.9786c0.2871,0.0283,0.6093,0.0395,0.9462,0.0429
		c-0.1494,0.1529-0.3076,0.2866-0.4521,0.4517c0.2871,0.0283,0.6094,0.0395,0.9453,0.043
		c-0.0527,0.0542-0.1074,0.1044-0.1601,0.1601c-0.5293,0.0049-1.0577-0.0058-1.584-0.0347c0.2021,0.2671,0.416,0.7178,0.6406,1.3291
		c-0.0156-0.0126-0.0332-0.0224-0.0488-0.0346c-0.1202-0.1538-0.2442-0.294-0.378-0.4112c-0.0351-0.0312-0.0791-0.0537-0.1162-0.083
		c-0.1191-0.1538-0.2451-0.2944-0.3789-0.4116c-0.0351-0.0312-0.0781-0.0542-0.1162-0.0835
		c-0.1201-0.1533-0.2441-0.2934-0.3779-0.4106c-0.0352-0.0313-0.0781-0.0542-0.1153-0.083
		c-0.1211-0.1538-0.2461-0.2945-0.3789-0.4117c-0.4297-0.3798-1.0214-0.5859-1.7675-0.6181
		c-0.9532-0.0469-1.7286,0.25-2.3423,0.8711c-0.0366-0.0366-0.0728-0.0733-0.1104-0.1089
		c-0.1543-0.1734-0.3266-0.3345-0.4971-0.4976c-0.1528-0.1718-0.3242-0.331-0.4926-0.4922
		c-0.1538-0.1728-0.3257-0.3335-0.4951-0.4956c-0.1534-0.1713-0.3243-0.3305-0.4922-0.4917
		c-0.1548-0.1738-0.3277-0.3354-0.4981-0.4985c-0.2402-0.2695-0.497-0.5269-0.7749-0.7705
		c-1.3017-1.1445-2.9765-2.0337-5.0268-2.6699c0.1279,0.5927,0.3681,1.1616,0.6782,1.7143
		c-0.0376,0.0235-0.0747,0.0537-0.1123,0.0786c-0.0972-0.2119-0.2027-0.4155-0.2891-0.6372
		c-0.0698,0.0396-0.1362,0.0977-0.2051,0.1431c-0.0971-0.2119-0.2031-0.416-0.2895-0.6377
		c-0.0698,0.0396-0.1362,0.0977-0.2051,0.1431c-0.0972-0.2119-0.2031-0.416-0.2895-0.6377
		c-0.3931,0.2221-0.7705,0.5366-1.1309,0.9472c-0.9521,1.084-1.4663,2.4703-1.5532,4.1573
		c-0.0845,1.6909,0.1787,3.1694,0.7949,4.4384c0.0747-0.0615,0.1548-0.1074,0.2305-0.166c0.083,0.2232,0.1611,0.4492,0.2636,0.6607
		c0.0747-0.0615,0.1553-0.1079,0.231-0.1665c0.0835,0.2231,0.1616,0.4492,0.2642,0.6606c0.0747-0.0615,0.1547-0.1074,0.2304-0.166
		c0.0493,0.1328,0.1006,0.2646,0.1568,0.3931c-0.8833,0.5254-1.7334,1.2402-2.5464,2.1679
		c-0.4497,0.5113-0.8994,1.1055-1.3526,1.7788c-1.9804,3.0191-3.4555,5.0811-4.4155,6.1748
		c-0.8584,0.9756-1.6494,1.6392-2.3813,1.9981c-0.7325,0.3589-1.648,0.5737-2.7452,0.644c-0.8012,0.0147-1.3964,0.0127-1.791-0.0107
		c-0.3921-0.0234-0.8198-0.0635-1.2881-0.1289c-0.4692-0.0625-0.8344-0.1055-1.0976-0.1221
		c-0.7827-0.1011-1.2803-0.0342-1.4888,0.2041c-0.3735,0.4287-0.1001,1.2266,0.8179,2.4063
		c0.5464,0.6992,1.2349,1.4502,2.0342,2.2422c0.1577,0.1621,0.3296,0.33,0.498,0.498c0.1553,0.1602,0.3242,0.3252,0.4903,0.4893
		c0.1572,0.163,0.3286,0.331,0.497,0.497c0.1563,0.1621,0.3262,0.3282,0.4937,0.4942c0.1567,0.1621,0.3276,0.3291,0.4956,0.4961
		c0.1562,0.1611,0.3271,0.3281,0.4951,0.4941c0.1558,0.1621,0.3262,0.3281,0.4932,0.4932c0.1562,0.1621,0.3271,0.3291,0.4946,0.4951
		c0.1567,0.1621,0.3276,0.3291,0.4951,0.4951c0.1572,0.1631,0.3291,0.3311,0.4976,0.4971c0.1533,0.1582,0.3203,0.3222,0.4843,0.4844
		c0.1578,0.164,0.3301,0.332,0.4991,0.5c0.1582,0.164,0.3305,0.332,0.5,0.5c0.042,0.0429,0.0791,0.0839,0.1215,0.1289
		c-0.1054,0.416-0.1303,0.8271-0.0537,1.2324c0.1324,0.7207,0.479,1.3262,1.0357,1.8154c0.0283,0.0244,0.06,0.042,0.0888,0.0654
		c0.1207,0.1514,0.254,0.2959,0.4058,0.4297c0.0283,0.0244,0.0596,0.041,0.0884,0.0645c0.1206,0.1513,0.2534,0.2959,0.4058,0.4297
		c0.0288,0.0254,0.061,0.042,0.0898,0.0664c0.1206,0.1504,0.2529,0.2949,0.4048,0.4277c0.0283,0.0254,0.06,0.041,0.0888,0.0654
		c0.1207,0.1514,0.2535,0.2959,0.4058,0.4287c0.0283,0.0254,0.0601,0.042,0.0889,0.0665c0.1201,0.1503,0.2534,0.2949,0.4052,0.4287
		c0.0289,0.0244,0.0601,0.042,0.0894,0.0654c0.1201,0.1514,0.2529,0.2959,0.4053,0.4297c0.0288,0.0254,0.0605,0.041,0.0898,0.0664
		c0.1201,0.1504,0.2534,0.2939,0.4053,0.4277c0.0283,0.0254,0.0596,0.041,0.0884,0.0655c0.1206,0.1513,0.2534,0.2949,0.4057,0.4287
		c0.0288,0.0254,0.0606,0.042,0.0894,0.0664c0.1206,0.1504,0.2534,0.2949,0.4053,0.4277c0.0283,0.0254,0.06,0.041,0.0888,0.0654
		c0.1206,0.1514,0.2535,0.2959,0.4058,0.4287c0.0283,0.0254,0.0596,0.042,0.0884,0.0655c0.1206,0.1513,0.2534,0.2959,0.4057,0.4297
		c0.0284,0.0244,0.0596,0.042,0.0884,0.0654c0.1206,0.1514,0.2539,0.2949,0.4063,0.4297c0.0283,0.0244,0.06,0.041,0.0888,0.0654
		c0.1206,0.1514,0.2534,0.2949,0.4058,0.4287c0.0283,0.0254,0.0605,0.042,0.0893,0.0664c0.1202,0.1504,0.253,0.2949,0.4048,0.4278
		c0.0284,0.0254,0.0601,0.041,0.0889,0.0654c0.1206,0.1514,0.2534,0.2959,0.4058,0.4287c0.0283,0.0254,0.06,0.042,0.0888,0.0664
		c0.1206,0.1504,0.2534,0.2949,0.4058,0.4287c0.0283,0.0244,0.0596,0.042,0.0884,0.0654c0.1206,0.1514,0.2534,0.295,0.4057,0.4297
		c0.0288,0.0254,0.0606,0.0411,0.0899,0.0664c0.1206,0.1504,0.2534,0.295,0.4052,0.4278c0.0284,0.0254,0.0601,0.041,0.0889,0.0654
		c0.1201,0.1514,0.2534,0.2959,0.4053,0.4287c0.0283,0.0254,0.0596,0.041,0.0884,0.0654c0.1206,0.1514,0.2534,0.2959,0.4057,0.4288
		c0.0288,0.0253,0.0611,0.0429,0.0904,0.0673c0.1201,0.1504,0.2529,0.294,0.4047,0.4278c0.0284,0.0244,0.0601,0.042,0.0889,0.0654
		c0.1206,0.1514,0.2534,0.2949,0.4058,0.4287c0.0283,0.0244,0.0595,0.042,0.0884,0.0654c0.1206,0.1514,0.2534,0.2959,0.4057,0.4297
		c0.0283,0.0254,0.0601,0.041,0.0889,0.0655c0.1206,0.1513,0.2534,0.2959,0.4057,0.4287c0.0284,0.0254,0.0596,0.041,0.0884,0.0654
		c0.1206,0.1514,0.2539,0.2959,0.4063,0.4287c0.0283,0.0254,0.0595,0.041,0.0884,0.0654c0.1206,0.1514,0.2534,0.2959,0.4057,0.4297
		c0.0288,0.0254,0.0606,0.042,0.0894,0.0655c0.1206,0.1513,0.2534,0.2949,0.4052,0.4287c0.0289,0.0244,0.0606,0.042,0.0894,0.0654
		c0.1206,0.1514,0.2534,0.2959,0.4053,0.4297c0.0283,0.0244,0.0595,0.041,0.0884,0.0644c0.1206,0.1514,0.2534,0.2959,0.4057,0.4297
		c0.0288,0.0254,0.0606,0.042,0.0894,0.0664c0.1206,0.1504,0.2534,0.295,0.4052,0.4278c0.0284,0.0254,0.0601,0.042,0.0894,0.0664
		c0.1206,0.1504,0.2534,0.2949,0.4058,0.4277c0.0283,0.0254,0.059,0.041,0.0879,0.0654c0.1206,0.1514,0.2539,0.2959,0.4062,0.4297
		c0.0283,0.0244,0.0601,0.042,0.0889,0.0655c0.1201,0.1513,0.2529,0.2949,0.4052,0.4296c0.0288,0.0254,0.0606,0.0411,0.0899,0.0665
		c0.1206,0.1503,0.2534,0.2949,0.4053,0.4277c0.0283,0.0254,0.06,0.042,0.0888,0.0664c0.1206,0.1504,0.2534,0.2939,0.4053,0.4277
		c0.0283,0.0254,0.0605,0.042,0.0894,0.0664c0.1206,0.1504,0.2534,0.295,0.4052,0.4278c0.0283,0.0254,0.0601,0.041,0.0884,0.0654
		c0.1206,0.1514,0.2539,0.2959,0.4063,0.4297c0.0283,0.0244,0.06,0.042,0.0888,0.0654c0.1201,0.1504,0.2534,0.2949,0.4053,0.4287
		c0.0283,0.0244,0.0601,0.042,0.0889,0.0655c0.1206,0.1513,0.2539,0.2959,0.4057,0.4296c0.0288,0.0254,0.0601,0.042,0.0894,0.0664
		c0.1201,0.1504,0.2534,0.295,0.4053,0.4278c0.0283,0.0254,0.0595,0.041,0.0883,0.0654c0.1206,0.1514,0.2535,0.2949,0.4058,0.4287
		c0.0283,0.0254,0.0601,0.042,0.0889,0.0664c0.1211,0.1504,0.2539,0.295,0.4062,0.4278c0.0274,0.0254,0.0596,0.0429,0.0879,0.0664
		c0.1211,0.1504,0.2539,0.2949,0.4063,0.4287c0.0283,0.0244,0.0595,0.042,0.0878,0.0654c0.1211,0.1514,0.254,0.2949,0.4063,0.4297
		c0.0293,0.0254,0.0605,0.041,0.0898,0.0664c0.1211,0.1504,0.2539,0.2949,0.4053,0.4277c0.0283,0.0254,0.0596,0.0411,0.0889,0.0655
		c0.1201,0.1513,0.2529,0.2959,0.4053,0.4287c0.0283,0.0254,0.0605,0.042,0.0898,0.0664c0.1201,0.1504,0.2529,0.2949,0.4053,0.4277
		c0.0283,0.0254,0.0595,0.042,0.0879,0.0655c0.1211,0.1513,0.2539,0.2958,0.4062,0.4296c0.0283,0.0245,0.0596,0.042,0.0879,0.0655
		c0.1211,0.1513,0.2539,0.2949,0.4063,0.4297c0.0292,0.0244,0.0605,0.041,0.0888,0.0644c0.1211,0.1514,0.2539,0.2959,0.4063,0.4297
		c0.0283,0.0254,0.0595,0.041,0.0888,0.0654c0.1202,0.1514,0.253,0.2949,0.4053,0.4287c0.0283,0.0254,0.0596,0.042,0.0889,0.0664
		c0.1211,0.1504,0.2539,0.295,0.4062,0.4288c0.0283,0.0253,0.0606,0.0419,0.0899,0.0664c0.1191,0.1504,0.2519,0.2939,0.4043,0.4277
		c0.0283,0.0244,0.0605,0.042,0.0888,0.0654c0.1202,0.1514,0.253,0.2949,0.4053,0.4287c0.0283,0.0244,0.0606,0.042,0.0899,0.0655
		c0.1201,0.1513,0.2529,0.2949,0.4042,0.4287c0.0293,0.0244,0.0606,0.042,0.0899,0.0654c0.1201,0.1514,0.2529,0.2959,0.4053,0.4297
		c0.0283,0.0254,0.0595,0.041,0.0888,0.0654c0.1201,0.1514,0.253,0.2959,0.4053,0.4287c0.0283,0.0254,0.0606,0.042,0.0889,0.0664
		c0.1211,0.1504,0.2539,0.295,0.4062,0.4278c0.0274,0.0254,0.0596,0.042,0.0879,0.0664c0.1211,0.1504,0.2539,0.2949,0.4063,0.4287
		c0.0283,0.0244,0.0605,0.042,0.0888,0.0654c0.1201,0.1514,0.253,0.2949,0.4053,0.4297c0.0293,0.0244,0.0606,0.041,0.0898,0.0654
		c0.1202,0.1514,0.253,0.295,0.4053,0.4287c0.0283,0.0254,0.0596,0.0411,0.0889,0.0655c0.1201,0.1513,0.2529,0.2959,0.4053,0.4287
		c0.0283,0.0254,0.0605,0.042,0.0888,0.0664c0.1211,0.1504,0.2539,0.2949,0.4063,0.4277c0.0273,0.0254,0.0595,0.042,0.0879,0.0664
		c0.1211,0.1504,0.2539,0.295,0.4062,0.4287c0.0283,0.0245,0.0606,0.042,0.0889,0.0655c0.1201,0.1513,0.2529,0.2949,0.4053,0.4297
		c0.0283,0.0244,0.0605,0.041,0.0898,0.0654c0.1201,0.1514,0.2529,0.2949,0.4043,0.4287c0.0117,0.0107,0.0254,0.0186,0.0371,0.0273
		c16.7285-4.5781,29.9473-17.6191,34.7803-34.2402c-0.0186,0.0147-0.0381,0.0293-0.0557,0.0449
		C97.8301,63.8184,97.6973,63.627,97.542,63.457z M55.3477,35.8257c-0.0362-0.0459-0.0762-0.0796-0.1133-0.1226
		c0.0351-0.0029,0.0683-0.0034,0.1015-0.0058c0.0196,0.0503,0.0391,0.1093,0.0586,0.1626
		C55.3799,35.8477,55.3623,35.8379,55.3477,35.8257z M55.8418,36.3203c-0.0361-0.0459-0.0762-0.0801-0.1133-0.123
		c0.0352-0.003,0.0684-0.0035,0.1016-0.0059c0.0195,0.0508,0.039,0.1099,0.0586,0.1631
		C55.874,36.3423,55.8574,36.332,55.8418,36.3203z M56.333,36.8125c-0.0342-0.0449-0.0742-0.0781-0.1103-0.1201
		c0.0351-0.0029,0.0683-0.0034,0.1035-0.0059c0.0185,0.0503,0.0381,0.1094,0.0576,0.1621
		C56.3672,36.8354,56.3496,36.8252,56.333,36.8125z M56.8301,37.3086c-0.0352-0.0454-0.0752-0.0796-0.1113-0.1221
		c0.0332-0.0029,0.0664-0.0034,0.1015-0.0058c0.0186,0.0503,0.0381,0.1093,0.0576,0.1621
		C56.8633,37.3306,56.8457,37.3203,56.8301,37.3086z M57.3242,37.8027c-0.0351-0.0454-0.0752-0.0791-0.1113-0.1215
		c0.0342-0.003,0.0664-0.0035,0.1016-0.0059c0.0185,0.0503,0.038,0.1089,0.0576,0.1616
		C57.3574,37.8247,57.3398,37.8149,57.3242,37.8027z"/>
</g>
<g id="bells-bells">
	<path fill="#FFFFFF" d="M49.54,48.2441c-0.5478-2.9375,0.0743-5.4262,1.8653-7.4648c0.9726-1.1074,2.1631-1.9204,3.5693-2.4282
		c1.4063-0.5093,2.8399-0.6524,4.3008-0.4204c1.4629,0.2329,2.749,0.8344,3.8672,1.8144c0.9687,0.8516,1.7031,1.8545,2.2031,3.0127
		c0.293,0.646,0.7715,1.7432,1.4375,3.2979c0.6621,1.5537,1.1885,2.7446,1.5811,3.58c0.3935,0.8296,0.7939,1.5547,1.2021,2.1651
		c0.4102,0.6133,0.8711,1.1426,1.3818,1.5937c1.042,0.9102,2.5303,1.6377,4.46,2.168c0.6709,0.2031,1.3145,0.3633,1.9277,0.4863
		c0.6172,0.1231,1.2618,0.2783,1.9375,0.4551c0.1524,0.043,0.3125,0.1348,0.4756,0.2813c0.4912,0.4326,0.2608,1.1933-0.6943,2.2793
		c-0.9766,1.1113-2.5098,2.3828-4.6084,3.8203c-2.0967,1.4404-4.2676,2.6933-6.5078,3.7656
		c-2.2432,1.0723-4.1006,1.7002-5.5781,1.8828c0.1162,1.2334-0.1534,2.2256-0.8116,2.9717c-0.4736,0.54-1.0605,0.8174-1.7597,0.831
		c-0.7002,0.0157-1.3828-0.2685-2.045-0.8515c-0.5869-0.5147-1.0644-1.1758-1.4336-1.9834
		c-0.9111,0.2705-1.9804,0.499-3.2109,0.6865c-1.2305,0.1914-2.3784,0.2803-3.4394,0.2637
		c-1.0621-0.0137-1.7715-0.1797-2.1324-0.4961c-0.3711-0.3262-0.3481-0.7656,0.0674-1.3174
		c0.0894-0.1572,0.2422-0.3574,0.4605-0.6025c0.1723-0.2002,0.4306-0.4395,0.7671-0.7198c0.3398-0.2763,0.6025-0.5224,0.789-0.7353
		c0.1763-0.1992,0.3872-0.5196,0.6338-0.96c1.1646-2.1318,1.7915-3.792,1.8765-4.9834c0.0888-1.1894-0.2295-3.0605-0.959-5.6045
		C50.438,52.4863,49.8955,50.2251,49.54,48.2441z"/>
	<path fill="#FFFFFF" d="M50.2061,39.46l-0.4292,0.4868c-1.1172,1.2768-1.8467,2.5346-2.1827,3.7739
		c-0.3379,1.2368-0.4218,2.4321-0.2583,3.5752c0.168,1.1421,0.4966,2.5977,0.9932,4.3623c0.4976,1.7676,0.8198,3.1191,0.9673,4.0605
		c-0.2295,0.5049-0.711,1.3077-1.4424,2.419c-0.7344,1.1064-1.3086,2.0674-1.7217,2.874c-0.4111,0.8028-0.7119,1.7617-0.8901,2.8672
		c-0.1753,1.1084-0.1182,2.332,0.1724,3.6709c0.0444,0.167,0.125,0.4873,0.2412,0.9619c0.1196,0.4746,0.1938,0.8057,0.2251,0.9893
		c0.0302,0.1885,0.1059,0.7256,0.226,1.6201c0.0332,0.123,0.0039,0.2383-0.0888,0.3437c-0.3692,0.419-1.7637-0.1201-4.187-1.6123
		c-2.42-1.4921-4.5821-2.9912-6.4854-4.4941c-0.6577,0.75-1.4487,1.124-2.3735,1.1162c-0.9239-0.0078-1.7295-0.3135-2.4214-0.9209
		c-0.5567-0.4892-0.9033-1.0947-1.0357-1.8154c-0.1372-0.7256,0.0196-1.4688,0.4634-2.2305
		c-1.5161-0.8965-3.2397-2.1933-5.1723-3.8906c-1.6329-1.4346-2.9087-2.7422-3.8267-3.916
		c-0.918-1.1797-1.1914-1.9776-0.8179-2.4063c0.2085-0.2383,0.7061-0.3052,1.4888-0.2041c0.2632,0.0166,0.6284,0.0596,1.0976,0.1221
		c0.4683,0.0654,0.896,0.1055,1.2881,0.1289c0.3946,0.0234,0.9898,0.0254,1.791,0.0107c1.0972-0.0703,2.0127-0.2851,2.7452-0.644
		c0.7319-0.3589,1.5229-1.0225,2.3813-1.9981c0.96-1.0937,2.4351-3.1557,4.4155-6.1748c0.4532-0.6733,0.9029-1.2675,1.3526-1.7788
		c1.8281-2.0864,3.8345-3.1552,6.0185-3.2075C44.9194,37.4966,47.4082,38.1333,50.2061,39.46z"/>
	<g>
		<path fill="#FFCE54" d="M39.7808,27.8301c-0.3931,0.2221-0.7705,0.5366-1.1309,0.9472c-0.9521,1.084-1.4663,2.4703-1.5532,4.1573
			c-0.0845,1.6909,0.1787,3.1694,0.7949,4.4384c2.5029-2.0605,5.606-2.4907,9.3062-1.2988c0.3339-1.0483,0.54-1.6362,0.6206-1.7685
			c-1.8716-0.149-3.5889-0.9097-5.1563-2.2862C41.3936,30.9082,40.4341,29.5088,39.7808,27.8301z"/>
		<path fill="#FFCE54" d="M42.9805,31.5771c1.4751,1.295,3.1118,2.0074,4.9106,2.1416c-0.5107-1.3183-1.3013-2.4477-2.3711-3.3852
			c-1.3017-1.1445-2.9765-2.0337-5.0268-2.6699C40.7993,29.083,41.626,30.3892,42.9805,31.5771z"/>
		<path fill="#FFCE54" d="M51.2227,32.8174c-1.023-0.0503-1.8497,0.2788-2.4815,0.998c-0.623,0.709-0.9272,1.5508-0.9145,2.5269
			c1.2475,0.333,2.2661,0.7427,3.0459,1.2305c1.4526-0.9707,2.6098-1.4957,3.4672-1.5757
			c-0.3193-1.2002-0.7714-2.0533-1.3496-2.5616C52.5605,33.0557,51.9688,32.8496,51.2227,32.8174z"/>
		<path fill="#FFCE54" d="M58.0244,33.2686c1.3975-0.1587,2.7227-0.4424,3.9727-0.8482c1.25-0.4072,2.166-0.9136,2.7451-1.5229
			c-1.9111-0.7945-3.75-0.9624-5.5156-0.5035c-1.7676,0.459-3.3203,1.4512-4.6621,2.9786
			C55.4717,33.4624,56.626,33.4268,58.0244,33.2686z"/>
		<path fill="#FFCE54" d="M65.3984,31.3145c-1.1093,1.1181-2.7265,1.8793-4.8515,2.2836c-2.124,0.4019-4.2188,0.5498-6.2871,0.4375
			c0.2402,0.3169,0.4961,0.8785,0.7656,1.6802c2.9414-0.2973,5.3691,0.397,7.2812,2.0767c0.7725,0.6719,1.4004,1.4912,1.8848,2.4492
			c0.2412-0.1553,0.4316-0.3071,0.5664-0.459c0.5342-0.6113,0.957-1.4697,1.2735-2.5776c0.3105-1.1084,0.4267-2.211,0.3447-3.3135
			C66.29,32.7905,65.9658,31.9307,65.3984,31.3145z"/>
	</g>
</g>
</svg>
