<?xml version="1.0" encoding="utf-8"?>
<!-- Generator: Adobe Illustrator 17.1.0, SVG Export Plug-In . SVG Version: 6.00 Build 0)  -->
<!DOCTYPE svg PUBLIC "-//W3C//DTD SVG 1.1//EN" "http://www.w3.org/Graphics/SVG/1.1/DTD/svg11.dtd">
<svg version="1.1" id="bells-2" xmlns="http://www.w3.org/2000/svg" xmlns:xlink="http://www.w3.org/1999/xlink" x="0px" y="0px"
	 viewBox="0 0 100 100" enable-background="new 0 0 100 100" xml:space="preserve">
<circle id="bells-2-label" fill="#FC6E51" cx="50" cy="50" r="50"/>
<g id="bells-2-shadow">
	<path fill="#E9573F" d="M98.4365,57.7012c-0.1328-0.1973-0.2998-0.3604-0.4941-0.4951c-0.1328-0.1973-0.3008-0.3594-0.4951-0.4952
		c-0.1328-0.1963-0.2998-0.3593-0.4942-0.4941c-0.1328-0.1973-0.3008-0.3594-0.4951-0.4941
		c-0.1328-0.1973-0.2998-0.3594-0.4941-0.4942c-0.1328-0.1973-0.2998-0.3594-0.4942-0.4941
		c-0.1328-0.1973-0.2998-0.3604-0.4951-0.4961c-0.1328-0.1963-0.2998-0.3594-0.4941-0.4942
		c-0.1328-0.1962-0.2998-0.3593-0.4942-0.4941c-0.1328-0.1973-0.3008-0.3594-0.4951-0.4951
		c-0.1328-0.1963-0.2998-0.3594-0.4941-0.4942c-0.1328-0.1962-0.2998-0.3584-0.4942-0.4941
		c-0.1328-0.1973-0.3008-0.3604-0.4961-0.4951c-0.1318-0.1973-0.2988-0.3594-0.4931-0.4942
		c-0.1328-0.1972-0.3008-0.3598-0.4951-0.4946c-0.1329-0.1968-0.2998-0.3594-0.4942-0.4941
		c-0.1328-0.1968-0.2998-0.3594-0.4941-0.4947c-0.1328-0.1972-0.3008-0.3598-0.4951-0.4951
		c-0.1329-0.1963-0.2998-0.3589-0.4942-0.4936c-0.1328-0.1973-0.3008-0.3599-0.4951-0.4951
		c-0.1328-0.1968-0.2998-0.3594-0.4941-0.4942c-0.1329-0.1968-0.2998-0.3594-0.4942-0.4946
		c-0.1328-0.1968-0.2998-0.3589-0.4941-0.4942c-0.1328-0.1972-0.3008-0.3598-0.4951-0.4951
		c-0.1329-0.1967-0.2998-0.3593-0.4942-0.4941c-0.1328-0.1973-0.3008-0.3599-0.4961-0.4951
		c-0.1318-0.1963-0.2988-0.3584-0.4931-0.4932c-0.1329-0.1973-0.2998-0.3599-0.4942-0.4951
		c-0.1328-0.1973-0.3008-0.3604-0.4951-0.4951c-0.1328-0.1968-0.2998-0.3594-0.4941-0.4942
		c-0.1328-0.1967-0.3008-0.3593-0.4952-0.4946c-0.1328-0.1968-0.2998-0.3594-0.4941-0.4941
		c-0.1328-0.1973-0.2998-0.3599-0.4941-0.4947c-0.1328-0.1967-0.2998-0.3593-0.4942-0.4941
		c-0.1328-0.1973-0.3008-0.3599-0.4951-0.4951c-0.1328-0.1968-0.3008-0.3594-0.4951-0.4947
		c-0.1328-0.1967-0.2998-0.3593-0.4942-0.4941c-0.1328-0.1968-0.2998-0.3594-0.4941-0.4946
		c-0.1328-0.1968-0.2998-0.3594-0.4941-0.4942c-0.1328-0.1972-0.3008-0.3603-0.4951-0.4951
		c-0.1329-0.1968-0.2999-0.3594-0.4942-0.4941c-0.1328-0.1968-0.2998-0.3599-0.4951-0.4951
		c-0.1328-0.1968-0.2998-0.3594-0.4941-0.4942c-0.1329-0.1968-0.2999-0.3594-0.4942-0.4941
		c-0.1328-0.1973-0.3008-0.3604-0.4961-0.4956c-0.1318-0.1963-0.2988-0.3584-0.4931-0.4932
		c-0.1329-0.1973-0.3008-0.3603-0.4952-0.4956c-0.1328-0.1968-0.2998-0.3589-0.4941-0.4941
		c-0.1328-0.1963-0.2998-0.3589-0.4941-0.4937c-0.1329-0.1968-0.2998-0.3598-0.4942-0.4946
		c-0.1328-0.1973-0.3008-0.3604-0.4961-0.4956c-0.1318-0.1963-0.2988-0.3589-0.4931-0.4937
		c-0.1329-0.1972-0.3008-0.3598-0.4952-0.4951c-0.1328-0.1968-0.2998-0.3589-0.4941-0.4936
		c-0.1328-0.1973-0.2998-0.3599-0.4951-0.4952c-0.1328-0.1967-0.2998-0.3593-0.4942-0.4946
		c-0.1328-0.1963-0.2998-0.3589-0.4941-0.4941c-0.1328-0.1968-0.2998-0.3599-0.4951-0.4947
		c-0.1328-0.1967-0.2998-0.3598-0.4942-0.4946c-0.1328-0.1968-0.3007-0.3594-0.4951-0.4946
		c-0.1328-0.1968-0.2988-0.3589-0.4931-0.4937c-0.1329-0.1972-0.3008-0.3603-0.4952-0.4956
		c-1.1259-1.6689-4.4687-1.1909-9.9814,2.6861v1.3764c-0.0684-0.06-0.1426-0.1108-0.2256-0.1523
		c-0.1045-0.2183-0.2812-0.3877-0.4951-0.4951c-0.1045-0.2173-0.2803-0.3858-0.4941-0.4937
		c-0.1768-0.3682-0.5469-0.6201-0.9786-0.6201h-9.6953c-0.4365,0-0.8144,0.2593-0.9902,0.6377
		c-0.0596,0.1401-0.1035,0.293-0.1035,0.458v0.5029c-0.0322-0.0219-0.0625-0.042-0.0947-0.0639v-0.1607
		c-0.1709-0.1201-0.3292-0.2207-0.4952-0.334v-0.1611c-0.1699-0.1196-0.3281-0.2202-0.4941-0.3335v-0.1606
		c-7.2637-5.1084-10.7686-4.3252-10.3838-0.4888c0.3818,3.8364,0.1523,5.5229-0.5361,10.8208
		c-0.1241,0.9531,0.1543,1.5288,0.6884,1.8384c0.1202,0.209,0.2862,0.373,0.4932,0.4941c0.1211,0.209,0.2871,0.3735,0.4942,0.4942
		c0.082,0.1416,0.1796,0.268,0.3027,0.3681c-0.4854,0.0093-0.8936-0.0513-1.2295-0.166c-0.042-0.1221-0.0742-0.2412-0.0947-0.3486
		c-0.0938,0.0517-0.1807,0.1133-0.2735,0.1665c-0.1142-0.2329-0.1836-0.4639-0.2207-0.6612
		c-0.0937,0.0518-0.1806,0.1133-0.2734,0.167c-0.1152-0.2334-0.1836-0.4643-0.2217-0.6616
		c-0.0937,0.0518-0.1807,0.1133-0.2734,0.167c-0.1143-0.2334-0.1836-0.4644-0.2207-0.6616
		c-7.083,3.9092-10.6895,12.3711-8.1875,20.3965c0.8779,2.8164,2.4209,5.2314,4.3838,7.165
		c0.1591,0.1709,0.3281,0.3301,0.4931,0.4941c0.1602,0.17,0.3281,0.3301,0.4942,0.4942c0.1611,0.1719,0.33,0.332,0.498,0.4971
		c0.1582,0.1699,0.3262,0.3291,0.4922,0.4912c0.1592,0.1709,0.3262,0.33,0.4922,0.4931c0.1611,0.1729,0.332,0.335,0.5,0.501
		c0.1582,0.169,0.3252,0.3262,0.4892,0.4883c0.1602,0.1719,0.3291,0.332,0.4961,0.4961c0.1602,0.1719,0.3291,0.332,0.4961,0.4961
		c0.1592,0.1699,0.3272,0.3301,0.4922,0.4922c0.1602,0.1718,0.3291,0.332,0.4951,0.4961c0.1602,0.1709,0.3291,0.33,0.4952,0.4941
		c0.1591,0.1709,0.3271,0.3301,0.4931,0.4932c0.1611,0.1728,0.3311,0.3339,0.499,0.499c0.1582,0.1699,0.3252,0.3271,0.4893,0.4892
		c0.1602,0.1709,0.3281,0.3311,0.4941,0.4952c0.1612,0.1718,0.3311,0.3339,0.4991,0.498c0.1582,0.1699,0.3261,0.3281,0.4912,0.4912
		c0.1611,0.1729,0.3301,0.333,0.498,0.499c0.1592,0.169,0.3262,0.3282,0.4912,0.4903c0.1602,0.1709,0.3282,0.331,0.4942,0.4941
		c0.1601,0.1719,0.3281,0.3311,0.4941,0.4942c0.1611,0.1718,0.3301,0.333,0.4971,0.497c0.1592,0.1709,0.3281,0.3311,0.4941,0.4942
		c0.1602,0.1709,0.3281,0.331,0.4951,0.4951c0.1592,0.1699,0.3262,0.3291,0.4922,0.4922c0.1602,0.1718,0.3291,0.332,0.4951,0.4961
		c0.1602,0.1709,0.3291,0.331,0.4952,0.4951c0.1611,0.1709,0.33,0.331,0.4961,0.4951c0.1591,0.1699,0.3261,0.3281,0.4912,0.4912
		c0.1601,0.1709,0.3291,0.332,0.4961,0.4961C43.665,84.3164,43.834,84.4766,44,84.6396c0.1592,0.1709,0.3271,0.3311,0.4932,0.4942
		c0.1611,0.1709,0.33,0.332,0.497,0.4961c0.1602,0.1719,0.3291,0.332,0.4961,0.4971c0.1582,0.1689,0.3262,0.3271,0.4903,0.4892
		c0.1601,0.1709,0.3281,0.3311,0.4941,0.4951c0.1621,0.1719,0.332,0.334,0.5,0.5c0.1582,0.168,0.3242,0.3262,0.4883,0.4873
		c0.1611,0.1719,0.3301,0.333,0.498,0.4981c0.1592,0.1709,0.3282,0.3301,0.4942,0.4941c0.1592,0.1709,0.3281,0.3311,0.4941,0.4951
		c0.1592,0.17,0.3272,0.3291,0.4932,0.4922c0.1601,0.1719,0.3301,0.3321,0.497,0.4981c0.1602,0.1699,0.3291,0.33,0.4952,0.4941
		c0.1591,0.1699,0.3271,0.3291,0.4922,0.4922c0.1591,0.1709,0.3281,0.3311,0.4951,0.4951c0.1591,0.1709,0.3281,0.3311,0.4941,0.4951
		c0.1602,0.17,0.3281,0.3301,0.4942,0.4932c0.1601,0.1709,0.3291,0.3311,0.4951,0.4961c0.1591,0.1699,0.3271,0.3291,0.4931,0.4932
		c0.1612,0.1718,0.3301,0.332,0.4971,0.497c0.1592,0.1699,0.3272,0.3291,0.4922,0.4912c0.1601,0.1719,0.3291,0.3321,0.4961,0.4961
		c0.1601,0.1719,0.3281,0.3311,0.4941,0.4942c0.1592,0.1699,0.3272,0.33,0.4932,0.4931c0.1601,0.1719,0.3291,0.333,0.4961,0.4971
		c0.1601,0.1709,0.3281,0.3301,0.4951,0.4941c0.1592,0.1709,0.3271,0.3301,0.4932,0.4942c0.1601,0.1699,0.3281,0.3301,0.4941,0.4941
		c0.1602,0.1699,0.3291,0.3301,0.4951,0.4942c0.086,0.0918,0.1768,0.1777,0.2656,0.2656
		c20.7393-3.5996,37.0879-19.9697,40.6553-40.7207c-0.1045-0.1172-0.2012-0.2402-0.331-0.3301
		C98.7979,57.998,98.6309,57.8359,98.4365,57.7012z"/>
</g>
<g id="bells-2-bells-2">
	<path fill="#FFFFFF" d="M57.0166,51.2871c-1.1494-3.6904-3.4248-6.7104-6.3213-8.8271l-0.084,0.0527l-9.4697,11.9268
		l-1.3291-5.8208l-10.6162-0.5694l8.6973-5.5439c-4.6172,1.8686-5.71-0.1826-5.9131-1.2505
		c-7.083,3.9092-10.6895,12.3711-8.1875,20.3965c1.6543,5.3047,5.6191,9.2392,10.4365,11.0713
		c0.167-0.044,0.332-0.0772,0.4932-0.1241C40.8721,70.6787,45.1641,65.627,46.415,59.75c-1.3466-0.3984-2.4746-1.4395-2.9228-2.875
		c-0.6914-2.2168,0.4883-4.5527,2.6367-5.3574c0.0772-0.0264,0.1426-0.0703,0.2197-0.0918c0.8272-0.2598,1.6641-0.25,2.4375-0.041
		c1.3819,0.3847,2.5567,1.4267,3.0127,2.8955c0.6983,2.2422-0.5156,4.6142-2.7158,5.3867
		c-1.0703,5.9687-4.8545,11.2568-10.4375,14.1142c2.2715,0.2364,4.626,0.0245,6.9453-0.6992
		C54.7627,70.2168,59.8789,60.459,57.0166,51.2871z"/>
	<path fill="#FFFFFF" d="M71.2021,43.4917c-0.5273-0.4746-1.081-0.8945-1.6455-1.2896c-1.4209,1.3897-3.0849,1.253-5.6328,0.358
		l6.3018,4.2421l-9.1016,0.3912l-0.6152,5.1416l-1.7012-1.4097c2.4033,7.9692-0.3428,16.3081-6.3457,21.3813
		c3.2227,1.4454,6.7686,1.875,10.1699,1.2705c0.1192-0.1201,0.2422-0.2285,0.3604-0.3584
		c4.292-4.7988,5.3838-11.3378,3.4453-17.0253c-1.3613,0.3496-2.8604,0.0332-3.9805-0.9688
		c-1.7324-1.5488-1.917-4.1601-0.4853-5.9517c0.0498-0.0639,0.0888-0.1352,0.1406-0.1943c0.5762-0.644,1.3018-1.062,2.0762-1.2793
		c1.3808-0.3872,2.9228-0.0884,4.0722,0.9365c1.7461,1.5704,1.917,4.231,0.4297,6.022c2.1387,5.668,1.5977,12.1524-1.7256,17.4688
		c2.0694-0.9649,3.9825-2.3526,5.5977-4.1621C78.9766,60.8994,78.3633,49.9028,71.2021,43.4917z"/>
	<path fill="#FFCE54" d="M46.5537,40.5098c-1.3984,0.0473-2.0615-0.2432-2.3828-0.8579l-11.7344,7.3637l8.5117,0.3633l0.8536,4.7461
		l9.5351-11.6533C49.6104,40.4644,47.7656,40.4717,46.5537,40.5098z"/>
	<path fill="#FFCE54" d="M57.3818,39.6519c-0.5615,0.9306-1.5576,0.8579-1.5576,0.8579s-2.0068-0.0293-4.2715-0.0381l8.3721,10.4355
		l0.0156-4.4829l8.0117-0.2119L57.3818,39.6519z"/>
	<path fill="#FFCE54" d="M43.7295,39.126c0,0-11.6094,6.228-10.9199,0.9326c0.6884-5.2979,0.9179-6.9844,0.5361-10.8208
		c-0.3848-3.8364,3.1201-4.6196,10.3838,0.4888V39.126z M57.7959,39.126c0,0,11.6162,6.228,10.9238,0.9326
		c-0.6924-5.2979-0.9209-6.9844-0.539-10.8208c0.3847-3.8364-3.1211-4.6196-10.3848,0.4888V39.126z M56.5928,29.9795
		c-0.1729-0.3784-0.5508-0.6377-0.9903-0.6377h-9.6953c-0.4365,0-0.8144,0.2593-0.9902,0.6377
		c-0.0596,0.1401-0.1035,0.293-0.1035,0.458v7.9829c0,0.1777,0.0478,0.3438,0.1211,0.4898c0.1816,0.354,0.5459,0.6044,0.9726,0.6044
		h9.6953c0.4288,0,0.7979-0.2504,0.9756-0.6064c0.0782-0.144,0.1201-0.3101,0.1201-0.4878v-7.9829
		C56.6982,30.2725,56.6631,30.1196,56.5928,29.9795z"/>
</g>
</svg>
