<?xml version="1.0" encoding="utf-8"?>
<!-- Generator: Adobe Illustrator 17.1.0, SVG Export Plug-In . SVG Version: 6.00 Build 0)  -->
<!DOCTYPE svg PUBLIC "-//W3C//DTD SVG 1.1//EN" "http://www.w3.org/Graphics/SVG/1.1/DTD/svg11.dtd">
<svg version="1.1" id="boot" xmlns="http://www.w3.org/2000/svg" xmlns:xlink="http://www.w3.org/1999/xlink" x="0px" y="0px"
	 viewBox="0 0 100 100" enable-background="new 0 0 100 100" xml:space="preserve">
<circle fill="#A0D468" cx="50" cy="50" r="50"/>
<g id="boot-shadow">
	<path fill="#8CC152" d="M97.3652,64.4717c-0.1289-0.1992-0.2968-0.3662-0.4941-0.4951c-0.1289-0.1983-0.2988-0.3662-0.4951-0.4942
		c-0.128-0.1992-0.2979-0.3662-0.4951-0.4951c-0.128-0.1982-0.2969-0.3662-0.4942-0.4941
		c-0.1289-0.1983-0.2969-0.3653-0.4931-0.4932c-0.129-0.2002-0.2989-0.3682-0.4961-0.4961
		c-0.128-0.1982-0.2979-0.3652-0.4932-0.4941c-0.1289-0.1993-0.2988-0.3662-0.4961-0.4942
		c-0.1279-0.1992-0.2969-0.3662-0.4941-0.4941c-0.128-0.2002-0.2969-0.3672-0.4942-0.4961
		c-0.1289-0.1983-0.2978-0.3652-0.4941-0.4942c-0.1289-0.1982-0.2979-0.3652-0.4942-0.4941
		c-0.1289-0.1992-0.2988-0.3662-0.4961-0.4941c-0.1279-0.1993-0.2968-0.3672-0.4941-0.4951
		c-0.1289-0.1983-0.2969-0.3663-0.4941-0.4942c-0.1289-0.1992-0.2979-0.3672-0.4942-0.4951
		c-0.1289-0.1982-0.2978-0.3652-0.4941-0.4941c-0.1289-0.1993-0.2988-0.3663-0.4961-0.4952
		c-0.1279-0.1982-0.2969-0.3652-0.4941-0.4941c-0.128-0.1982-0.2969-0.3652-0.4942-0.4932
		c-0.1279-0.1992-0.2969-0.3672-0.4941-0.4951c-0.1289-0.1992-0.2969-0.3662-0.4942-0.4951
		c-0.1289-0.1982-0.2978-0.3652-0.4941-0.4941c-0.1289-0.1993-0.2988-0.3663-0.4961-0.4952
		c-0.1279-0.1982-0.2969-0.3662-0.4941-0.4941c-0.129-0.1982-0.2969-0.3662-0.4942-0.4941
		c-0.1289-0.1993-0.2969-0.3663-0.4941-0.4952c-0.1289-0.1982-0.2979-0.3652-0.4942-0.4941
		c-0.1289-0.1982-0.2988-0.3652-0.4951-0.4941c-0.1279-0.1993-0.2978-0.3663-0.4951-0.4952
		c-0.1279-0.1982-0.2969-0.3662-0.4941-0.4941c-0.1289-0.1982-0.2969-0.3662-0.4942-0.4941
		c-0.1289-0.1993-0.2978-0.3672-0.4951-0.4952c-0.1279-0.1982-0.2979-0.3652-0.4932-0.4941
		c-0.1289-0.1992-0.2988-0.3672-0.4961-0.4951c-0.1289-0.1983-0.2968-0.3662-0.4941-0.4942
		c-0.1289-0.1992-0.2979-0.3662-0.4941-0.4941c-0.1289-0.1982-0.2969-0.3652-0.4942-0.4932
		c-0.1289-0.2002-0.2978-0.3681-0.4961-0.497c-0.1289-0.1983-0.2968-0.3653-0.4941-0.4932
		c-0.1279-0.1992-0.2969-0.3672-0.4942-0.4951c-0.1289-0.1983-0.2968-0.3652-0.4941-0.4942
		c-0.1279-0.1992-0.2969-0.3662-0.4941-0.4951c-0.1289-0.1982-0.2979-0.3662-0.4942-0.4941
		c-0.1289-0.1983-0.2988-0.3652-0.4951-0.4942c-0.1279-0.1992-0.2978-0.3662-0.4951-0.4941
		c-0.1279-0.1992-0.2969-0.3672-0.4942-0.4951c-0.1289-0.1992-0.2968-0.3662-0.4941-0.4941
		c-0.1289-0.1993-0.2978-0.3663-0.4951-0.4952c-0.1279-0.1992-0.2979-0.3662-0.4942-0.4941
		c-0.1289-0.1992-0.2978-0.3672-0.4951-0.4951c-0.1289-0.1983-0.2968-0.3662-0.4941-0.4942
		c-0.1289-0.1982-0.2969-0.3662-0.4941-0.4941c-0.129-0.1992-0.2979-0.3662-0.4942-0.4951
		c-0.1289-0.1983-0.2969-0.3653-0.4941-0.4932c-0.1289-0.2002-0.2989-0.3682-0.4961-0.4961
		c-0.1289-0.1982-0.2969-0.3662-0.4942-0.4941c-0.1289-0.1983-0.2968-0.3662-0.4941-0.4942
		c-0.1289-0.1982-0.2969-0.3662-0.4941-0.4941c-0.129-0.1992-0.2979-0.3662-0.4952-0.4951
		c-0.1279-0.1983-0.2978-0.3662-0.4931-0.4942c-0.1289-0.1992-0.2989-0.3671-0.4961-0.4951
		c-0.1289-0.1982-0.2969-0.3662-0.4942-0.4941c-0.1289-0.1992-0.2968-0.3662-0.4941-0.4951
		c-0.1289-0.1983-0.2979-0.3653-0.4941-0.4942c-0.1289-0.1982-0.2989-0.3662-0.4952-0.4941
		c-0.1279-0.1992-0.2978-0.3662-0.4951-0.4951c-0.1289-0.1983-0.2969-0.3662-0.4941-0.4942
		c-0.1289-0.1982-0.2969-0.3652-0.4932-0.4931c-0.1289-0.1993-0.2978-0.3672-0.4951-0.4961
		c-0.1289-0.1983-0.2988-0.3662-0.4951-0.4942c-0.1279-0.1982-0.2979-0.3652-0.4942-0.4941
		c-0.1279-0.1992-0.2978-0.3662-0.4951-0.4951c-0.1289-0.1983-0.2968-0.3662-0.4941-0.4942
		c-0.1289-0.1992-0.2979-0.3662-0.4942-0.4941c-0.1289-0.1992-0.2978-0.3672-0.4951-0.4951
		c-0.1279-0.1983-0.2968-0.3653-0.4931-0.4932c-0.1289-0.2002-0.2989-0.3682-0.4961-0.4961
		c-0.1289-0.1982-0.2969-0.3662-0.4942-0.4941c-0.1289-0.1983-0.2968-0.3653-0.4941-0.4942
		c-0.1289-0.1982-0.2969-0.3662-0.4942-0.4951c-0.1289-0.1982-0.2988-0.3662-0.496-0.4941
		c-0.128-0.1992-0.2969-0.3662-0.4942-0.4942c-0.2969-0.4609-0.8066-0.7636-1.3887-0.7636H23.168
		c-0.9204,0-1.668,0.7548-1.668,1.6972v9.3614c0,0.6005,0.3091,1.1279,0.772,1.4316c0.1289,0.1982,0.2988,0.3662,0.4951,0.4951
		c0.1289,0.1983,0.2983,0.3652,0.4946,0.4942c0.1289,0.1982,0.2984,0.3652,0.4946,0.4941c0.129,0.1982,0.2979,0.3652,0.4942,0.4941
		c0.043,0.0664,0.0942,0.126,0.1455,0.1856l2.9575,19.5439c-1.3472,3.3408-3.5566,10.2998-3.1181,17.1641l0.7495,3.3105h0.3828
		l0.1118,0.4942h0.3828l0.1118,0.4941h0.3819l0.1123,0.4951h0.3828l0.1118,0.4942h0.3823l0.1123,0.4951h0.3823l0.1119,0.4941h0.3823
		l0.1123,0.4952h0.3828l0.1118,0.4941h0.3823l0.1119,0.4951h0.3828l0.1118,0.4941h0.3828l0.1118,0.4942h0.3823l0.1123,0.4951h0.3829
		l0.1118,0.4941h0.3828l0.1118,0.4942h0.3828l0.1118,0.4941h0.3819l0.1123,0.4951h0.3828l0.1118,0.4942h0.3823l0.1118,0.4941h0.3829
		l0.1118,0.4951h0.3823l0.1123,0.4952h0.3828l0.1118,0.4941h0.3824l0.1118,0.4941h0.3828l0.1118,0.4952h0.3828l0.1118,0.4941h0.3828
		l0.1119,0.4941H37.73l0.1123,0.4952h0.3823l0.1118,0.4941h0.3833l0.1118,0.4941h0.3819l0.1118,0.4952h0.3828l0.1118,0.4941h0.3823
		l0.1124,0.4951h0.3828l0.1118,0.4942h0.3823l0.1118,0.4941h0.3828l0.1123,0.4951h0.3824l0.1118,0.4942h0.3823l0.1123,0.4951h0.3828
		l0.1118,0.4941h0.3824l0.1118,0.4942h0.3828l0.1123,0.4951h0.3823l0.1118,0.4941h0.3824l0.1118,0.4942h0.3823l0.1123,0.4951h0.3828
		l0.1118,0.4941h0.3828l0.1119,0.4941h0.3828l0.1118,0.4942h0.3818l0.0801,0.3535C48.4629,99.9766,49.2285,100,50,100
		c22.4453,0,41.4365-14.791,47.7598-35.1572C97.6465,64.6992,97.5176,64.5703,97.3652,64.4717z"/>
</g>
<g id="boot-boot">
	<path fill="#FFFFFF" d="M27.3535,56.8613c-1.3472,3.3408-3.5566,10.2998-3.1181,17.1641l0.7495,3.3105H42.874
		c0,0-0.8603-7.6396,14.3721-0.0195v0.0098h0.0156c0.0078,0,0.0137,0.0078,0.0176,0.0097h19.2109l0.0078-0.0097H78.5v-3.1143h-0.918
		c1.1563-4.5156,1.5645-12.7168-9.04-16.3047c0,0-4.6572-1.5332-10.5127-0.4795c-7.5645,0.6934-6.9297-7.7636-6.9297-7.7636
		c0-0.0391-0.0019-0.0704-0.0019-0.1065l0.6757-12.6474H24.3345L27.3535,56.8613z"/>
	<path fill="#FC6E51" d="M23.168,22.6641h31.7636c0.919,0,1.6641,0.7548,1.6641,1.6972v9.3614c0,0.9365-0.7451,1.7031-1.6641,1.7031
		H23.168c-0.9204,0-1.668-0.7666-1.668-1.7031v-9.3614C21.5,23.4189,22.2476,22.6641,23.168,22.6641z"/>
	<path fill="#4FC1E9" d="M31.0132,51.0117l0.9419,0.5528l-0.7925,0.458l-0.1377,0.5517l0.5415,0.1455l0.8037-0.4629l0.0078,1.1192
		l0.771-0.4395l0.0196-1.1406l0.6054-0.3467l-0.0117,1.7266l0.773-0.4375l0.0424-1.751l0.274-0.1592l3.3296,1.9229v0.0732h0.0097
		v0.2529l-1.4736,0.9014l0.0058,0.8887l1.4678-0.8584v0.6953l-0.9531,0.5732l0.0039,0.8887l0.9492-0.542v0.917l0.4058,0.3975
		l0.4018-0.3975v-0.9277l0.9727,0.5527l0.0078-0.8887l-0.9805-0.5849v-0.7012l1.4932,0.876l0.0039-0.8887l-1.4971-0.915V52.748
		l3.3374-1.9287l0.2837,0.1631l0.0406,1.7256l0.7749,0.4395l-0.0118-1.6983l0.6075,0.3467l0.0136,1.1143l0.7749,0.4355
		l0.0059-1.0898l0.79,0.4541l0.5494-0.1514l-0.1417-0.5449l-0.8056-0.4649l0.9687-0.5644l-0.7671-0.4502l-0.998,0.5527
		l-0.6035-0.3467l1.5005-0.8564l-0.7647-0.4492l-1.5415,0.8388l-0.2895-0.165v-3.8311l0.2993-0.1777l1.5122,0.8272l0.769-0.4502
		l-1.4775-0.8399l0.6074-0.3506l0.9668,0.5401l0.7671-0.4492l-0.9394-0.5518l0.7919-0.457l0.1377-0.5508l-0.5434-0.1485
		l-0.8057,0.4639l-0.0039-1.1201l-0.7729,0.4385l-0.0171,1.1435l-0.606,0.3487l0.0117-1.7286l-0.7749,0.4356l-0.0424,1.7598
		l-0.2955,0.1709l-3.3159-1.9122v-0.3603l1.4737-0.8965l-0.0079-0.8887l-1.4658,0.8604v-0.6983l0.9551-0.5742l-0.0093-0.8867
		l-0.9458,0.54v-0.916l-0.4077-0.3965l-0.4018,0.3965v0.9278l-0.9747-0.5518l-0.0058,0.8867l0.9805,0.5869v0.6993l-1.4913-0.8741
		l-0.0092,0.8887l1.5005,0.9141v0.3427l-3.3121,1.9082l-0.3086-0.1796l-0.0429-1.7159l-0.7725-0.4394l0.0093,1.6963l-0.6055-0.3487
		l-0.0136-1.1103l-0.7725-0.4356l-0.0078,1.0889l-0.7925-0.458l-0.5454,0.1563l0.1416,0.5459l0.8057,0.4628l-0.9688,0.5684
		l0.7671,0.4482l1.0019-0.5585l0.6055,0.3515l-1.5083,0.8565l0.7647,0.4492l1.5512-0.8457l0.274,0.1592v3.8554l-0.2911,0.168
		l-1.5166-0.8301l-0.7631,0.4531l1.4755,0.8418l-0.6054,0.3477l-0.9707-0.541L31.0132,51.0117z M38.1812,45.2773l-1.9122,1.1036
		l-0.7241-0.4151l2.6363-1.5224V45.2773z M36.5718,48.9014v-1.4141l0.7007,0.4043v0.6035L36.5718,48.9014z M37.6724,49.1973
		l0.5088,0.2959v0.8076l-1.2095-0.6973L37.6724,49.1973z M38.1812,46.9268l-0.4815,0.2734l-0.7007-0.3975l1.1822-0.6836V46.9268z
		 M41.6353,45.9697l-0.7203,0.416l-1.9243-1.1123v-0.83L41.6353,45.9697z M39.4878,47.2158l-0.4971-0.289v-0.8116l1.1978,0.6934
		L39.4878,47.2158z M40.6021,47.5029v1.3633l-0.7027-0.3994v-0.5576L40.6021,47.5029z M42.0508,49.7031l-0.7207-0.415V47.084
		l0.7207-0.4219V49.7031z M38.9907,51.1436l1.9649-1.1358l0.7241,0.4151l-2.689,1.5537V51.1436z M38.9907,49.4932l0.5342-0.3116
		l0.7026,0.4063l-1.2368,0.7129V49.4932z M37.96,48.5664v-0.7139l0.6152-0.3545l0.6177,0.3545v0.7139l-0.6177,0.3565L37.96,48.5664z
		 M35.5234,50.4414l0.7203-0.416l1.9375,1.1182v0.833L35.5234,50.4414z M35.1216,46.6553l0.7241,0.4121v2.2549l-0.7241,0.4179
		V46.6553z"/>
</g>
</svg>
