<?xml version="1.0" encoding="utf-8"?>
<!-- Generator: Adobe Illustrator 17.1.0, SVG Export Plug-In . SVG Version: 6.00 Build 0)  -->
<!DOCTYPE svg PUBLIC "-//W3C//DTD SVG 1.1//EN" "http://www.w3.org/Graphics/SVG/1.1/DTD/svg11.dtd">
<svg version="1.1" id="candy-cane" xmlns="http://www.w3.org/2000/svg" xmlns:xlink="http://www.w3.org/1999/xlink" x="0px" y="0px"
	 viewBox="0 0 100 100" enable-background="new 0 0 100 100" xml:space="preserve">
<circle id="candy-cane-label" fill="#AC92EC" cx="50" cy="50" r="50"/>
<g id="candy-cane-shadow">
	<path fill="#967ADC" d="M99.1133,50.3965c-0.168-0.1778-0.336-0.3447-0.5039-0.5039c-0.168-0.1778-0.3369-0.3447-0.5049-0.5039
		c-0.1631-0.1719-0.3252-0.333-0.4873-0.4873c-0.1621-0.1709-0.3223-0.3311-0.4844-0.4844c-0.166-0.1758-0.332-0.3399-0.4961-0.4981
		c-0.1689-0.1777-0.3379-0.3447-0.5049-0.5039c-0.163-0.1728-0.3271-0.3349-0.4892-0.4902
		c-0.1651-0.1728-0.3301-0.3359-0.4942-0.4922c-0.164-0.1738-0.3281-0.3359-0.4912-0.4922
		c-0.1689-0.1797-0.3388-0.3467-0.5078-0.5078c-0.1592-0.167-0.3183-0.3262-0.4775-0.4775c-0.168-0.1778-0.336-0.3438-0.503-0.503
		c-0.1679-0.1777-0.3359-0.3437-0.5039-0.5029c-0.1621-0.1719-0.3252-0.333-0.4873-0.4863
		c-0.164-0.1738-0.3281-0.3369-0.4922-0.4932c-0.165-0.1748-0.33-0.3379-0.4941-0.4941c-0.1621-0.1709-0.3223-0.3311-0.4844-0.4854
		c-0.1689-0.1787-0.3379-0.3466-0.5068-0.5068c-0.1699-0.1797-0.3398-0.3477-0.5088-0.5078
		c-0.1572-0.1651-0.3135-0.3213-0.4697-0.4697c-0.1631-0.1729-0.3252-0.334-0.4883-0.4893
		c-0.1729-0.1826-0.3447-0.3535-0.5166-0.5166c-0.165-0.1738-0.3301-0.3379-0.4961-0.4951
		c-0.1582-0.167-0.3164-0.3252-0.4756-0.4766c-0.167-0.1767-0.3349-0.3428-0.501-0.501c-0.1689-0.1787-0.3378-0.3457-0.5058-0.5048
		c-0.1592-0.168-0.3184-0.3272-0.4776-0.4786c-0.1679-0.1777-0.3359-0.3437-0.5039-0.5039
		c-0.1679-0.1777-0.3359-0.3437-0.5039-0.5029c-0.1591-0.1689-0.3193-0.3281-0.4795-0.4795
		c-0.1689-0.1797-0.3379-0.3467-0.5078-0.5078c-0.1582-0.167-0.3164-0.3242-0.4736-0.4746
		c-0.1709-0.1816-0.3428-0.3506-0.5127-0.5137c-0.166-0.1738-0.332-0.3379-0.4961-0.4951c-0.1602-0.168-0.3203-0.3271-0.4785-0.4785
		c-0.166-0.1758-0.332-0.3399-0.4981-0.4971c-0.166-0.1777-0.3339-0.3437-0.5019-0.5019c-0.166-0.1768-0.332-0.3409-0.4981-0.4991
		c-0.165-0.1738-0.33-0.3369-0.4941-0.4931c-0.1621-0.1709-0.3242-0.3321-0.4863-0.4873c-0.1641-0.1729-0.3282-0.336-0.4922-0.4912
		c-0.168-0.1778-0.336-0.3438-0.5029-0.5039c-0.1612-0.17-0.3213-0.3291-0.4815-0.4825c-0.1709-0.1797-0.3418-0.3486-0.5117-0.5097
		c-0.1641-0.1739-0.3281-0.3369-0.4922-0.4932c-0.1602-0.168-0.3203-0.3271-0.4785-0.4795
		c-0.1729-0.1826-0.3457-0.3525-0.5176-0.5156c-0.1601-0.169-0.3203-0.3281-0.4805-0.4805
		c-0.164-0.1738-0.3281-0.3369-0.4921-0.4931c-0.17-0.1788-0.3379-0.3457-0.5079-0.5069c-0.1582-0.167-0.3164-0.3252-0.4755-0.4765
		c-0.169-0.1788-0.3379-0.3457-0.5069-0.5059c-0.166-0.1758-0.332-0.3398-0.498-0.498c-0.1582-0.167-0.3164-0.3252-0.4746-0.4766
		c-0.1719-0.1817-0.3428-0.3506-0.5137-0.5127c-0.166-0.1748-0.332-0.3389-0.4961-0.4961
		c-0.1611-0.1689-0.3223-0.3291-0.4824-0.4814c-0.168-0.1788-0.3369-0.3457-0.5059-0.5059
		c-0.1621-0.1719-0.3262-0.334-0.4883-0.4883c-0.1113-0.1182-0.2226-0.2295-0.3339-0.3389
		c-1.9551-2.1523-4.0645-3.0146-4.0645-3.0146c0,0.0088-0.002,0.0176-0.002,0.0264c-2.1054-0.9795-6.123-2.2862-10.0214-0.4864
		c-0.0059-0.0068-0.0098-0.0136-0.0157-0.0195c-0.1757,0.0967-0.3535,0.1934-0.5293,0.293
		c-0.2324,0.125-0.4629,0.2627-0.6933,0.4131c-0.9356,0.5859-1.8809,1.3398-2.8789,2.6552l-1.0894,1.5049
		c0.0039,0.002,0.0088,0.0059,0.0132,0.0088l-2.0703,2.8545c0,0-2.313,2.8584,0.7651,5.6006c0.1485,0.166,0.3115,0.332,0.4976,0.498
		c0.1479,0.1651,0.31,0.3301,0.4951,0.4951c0.1479,0.1641,0.3101,0.3291,0.4946,0.4942c0.146,0.1621,0.3052,0.3252,0.4873,0.4873
		c0.149,0.167,0.314,0.335,0.5015,0.5019c0.1475,0.1641,0.3076,0.3282,0.4912,0.4913c0.1484,0.166,0.3115,0.332,0.4971,0.497
		c0.1474,0.1641,0.3076,0.3282,0.4912,0.4922c0.1484,0.1651,0.3125,0.3311,0.498,0.4971c0.1475,0.164,0.3086,0.3291,0.4942,0.4931
		c0.1465,0.1651,0.3086,0.3292,0.4922,0.4932c0.1484,0.1651,0.3105,0.3301,0.4951,0.4951c0.1474,0.1651,0.3115,0.3311,0.4971,0.4971
		c0.1464,0.1631,0.3066,0.3271,0.4902,0.4912c0.0586,0.0645,0.125,0.1289,0.1875,0.1934l-0.416,0.5742
		c0.0049,0.0029,0.0117,0.0058,0.0156,0.0088l-3.6094,4.9804c-0.0039-0.0019-0.0078-0.0048-0.0117-0.0068l-3.7959,5.2422
		c0.0029,0.002,0.0073,0.0039,0.0103,0.0059l-3.7315,5.1503c-0.0029-0.0019-0.0073-0.0039-0.0102-0.0058l-3.7959,5.2353
		c0.0034,0.002,0.0083,0.0049,0.0117,0.0069l-3.355,4.6308c-0.0034-0.0029-0.0088-0.0058-0.0127-0.0078l-3.793,5.2373
		c0.0035,0.002,0.0083,0.0049,0.0118,0.0069l-3.6109,4.9834c-0.0034-0.002-0.0088-0.0049-0.0122-0.0069l-1.7988,2.4864
		c0,0-0.978,1.4414-0.6162,3.1777c0.0146,0.0693,0.0278,0.1387,0.0468,0.209c0.0166,0.0615,0.0201,0.1201,0.0406,0.1826
		c0.0073,0.0039,0.0156,0.0078,0.0229,0.0107c0.2105,0.6436,0.6358,1.3116,1.3599,1.9561c0.1445,0.166,0.31,0.3301,0.4936,0.4941
		c0.1451,0.166,0.3111,0.3311,0.4956,0.4951c0.1446,0.1661,0.3101,0.3301,0.4937,0.4942c0.144,0.165,0.3096,0.3291,0.4927,0.4922
		c0.146,0.1679,0.313,0.334,0.4985,0.499c0.1436,0.1641,0.3076,0.3271,0.4893,0.4893c0.146,0.1679,0.3134,0.3339,0.499,0.499
		c0.145,0.166,0.3105,0.331,0.4946,0.4941c0.1441,0.1651,0.3081,0.3281,0.4907,0.4903c0.1455,0.1679,0.312,0.333,0.4971,0.498
		c0.145,0.166,0.3106,0.3311,0.4946,0.4941c0.1446,0.1661,0.3096,0.3301,0.4927,0.4932c0.1455,0.167,0.312,0.332,0.4971,0.4971
		c0.144,0.165,0.3091,0.3291,0.4922,0.4922c0.1455,0.167,0.312,0.332,0.4966,0.4961c0.1445,0.166,0.3095,0.33,0.4926,0.4931
		c0.145,0.166,0.3106,0.3311,0.4942,0.4942c0.1455,0.167,0.312,0.333,0.497,0.497c0.1446,0.166,0.3101,0.3301,0.4932,0.4932
		c0.1445,0.166,0.3096,0.3291,0.4927,0.4922c0.1455,0.168,0.312,0.333,0.4975,0.498c0.1441,0.1651,0.3086,0.3291,0.4917,0.4912
		c0.1455,0.168,0.312,0.333,0.4976,0.4981c0.1445,0.166,0.3105,0.3301,0.4941,0.4941c0.1441,0.1651,0.3091,0.3282,0.4917,0.4912
		c0.1455,0.167,0.3116,0.3321,0.4966,0.4971c0.1441,0.165,0.3091,0.3291,0.4922,0.4922c0.145,0.167,0.3115,0.332,0.4966,0.4971
		c0.145,0.167,0.3115,0.332,0.4966,0.4961c0.144,0.165,0.3091,0.3291,0.4922,0.4912c0.1445,0.167,0.31,0.331,0.4941,0.4951
		c0.145,0.167,0.3115,0.332,0.4961,0.4961c0.144,0.165,0.3086,0.3291,0.4917,0.4912c0.1455,0.168,0.312,0.333,0.4975,0.498
		c0.1446,0.1661,0.3106,0.3301,0.4942,0.4942c0.1445,0.165,0.3096,0.3291,0.4927,0.4922c0.0659,0.0761,0.1504,0.1504,0.2246,0.2246
		C48.0557,99.9648,49.0234,100,50,100c27.1934,0,49.3027-21.7148,49.9688-48.749c-0.127-0.1299-0.2549-0.2598-0.3809-0.3799
		C99.4297,50.7041,99.2715,50.5469,99.1133,50.3965z"/>
</g>
<g id="candy-cane-candy-cane">
	<path d="M48.1729,24.8633c-0.0118,0-0.0225,0.0039-0.0323,0.0068C48.1504,24.8672,48.1592,24.8633,48.1729,24.8633z
		 M55.7012,30.3799c0,0.0068,0,0.0156,0,0.0205C55.7012,30.3955,55.7012,30.3848,55.7012,30.3799z"/>
	<g>
		<path fill="#FFFFFF" d="M61.7305,26.1523c2.0273,1.4659,0.33,3.501,0.33,3.501L28.2236,76.3535c0,0-2.227,3.2178,1.1944,5.8379
			c4.08,3.1299,6.164-0.3193,6.164-0.3193l34.6016-47.7608c0,0,6.8965-8.1386-3.1094-15.3877L61.7305,26.1523z"/>
		<path fill="#FFFFFF" d="M61.6865,26.1211c-2.0234-1.4688-3.4541,0.623-3.4541,0.623l-2.6865,3.7149
			c0,0-2.1484,3.4746-5.937,0.7383c-3.9707-2.8799-1.3667-6.0889-1.3667-6.0889l3.1582-4.3545
			c6.4023-8.1719,15.623-2.0635,15.623-2.0635L61.6865,26.1211z"/>
		<path fill="#FC6E51" d="M55.4902,17.3789c-1.3418,0.7315-2.667,1.4707-4.1015,3.3613l-1.0894,1.5049
			c1.5972,0.9424,4.2202,3.1299,5.6568,7.7158l2.3144-3.1933c0,0,0.2617-0.3789,0.7168-0.7012
			C58.9004,24.1396,58.3809,20.4805,55.4902,17.3789z"/>
		<path fill="#FC6E51" d="M71.9766,24.7109c-1.1192,1.7227-3.6709,3.8477-9.503,4.2227c0.3233-0.7207,0.5166-1.8662-0.7529-2.7881
			c-0.0566-0.042-0.1103-0.0762-0.166-0.1143c1.4092-1.5976,3.9609-4.9062,3.9746-8.1728
			C65.5293,17.8584,70.0391,19.6807,71.9766,24.7109z"/>
		<path fill="#FC6E51" d="M68.7559,36.0547c-4.2442-0.125-7.7452-1.9629-9.2588-2.8926l-3.7959,5.2383
			c1.5136,0.9277,5.0156,2.7666,9.2597,2.8916L68.7559,36.0547z"/>
		<path fill="#FC6E51" d="M48.2998,48.625c1.5132,0.9258,5.0127,2.7627,9.2559,2.8887l3.7959-5.2383
			c-4.2442-0.1231-7.7461-1.96-9.2559-2.8926L48.2998,48.625z"/>
		<path fill="#FC6E51" d="M33.6235,68.8779c1.5103,0.9317,5.0161,2.7705,9.2564,2.8946l3.792-5.2403
			c-4.2403-0.124-7.7427-1.9599-9.2554-2.8916L33.6235,68.8779z"/>
		<path fill="#FC6E51" d="M40.7725,59.0107c1.5122,0.9327,5.0146,2.7666,9.2578,2.8955l3.7939-5.2402
			c-4.2441-0.1269-7.7461-1.9629-9.2558-2.8906L40.7725,59.0107z"/>
		<path fill="#FC6E51" d="M28.2134,76.3477c0,0-1.1519,1.6621-0.5288,3.5693c1.8252,0.9189,4.5991,1.9844,7.7944,2.0801
			c0.061-0.084,0.0898-0.1328,0.0898-0.1328l3.7007-5.1075c-4.2422-0.125-7.7446-1.9629-9.2573-2.8955L28.2134,76.3477z"/>
	</g>
</g>
</svg>
