<?xml version="1.0" encoding="utf-8"?>
<!-- Generator: Adobe Illustrator 17.1.0, SVG Export Plug-In . SVG Version: 6.00 Build 0)  -->
<!DOCTYPE svg PUBLIC "-//W3C//DTD SVG 1.1//EN" "http://www.w3.org/Graphics/SVG/1.1/DTD/svg11.dtd">
<svg version="1.1" id="candles" xmlns="http://www.w3.org/2000/svg" xmlns:xlink="http://www.w3.org/1999/xlink" x="0px" y="0px"
	 viewBox="0 0 100 100" enable-background="new 0 0 100 100" xml:space="preserve">
<circle id="candles-label" fill="#A0D468" cx="50" cy="50" r="50"/>
<g id="candles-shadow">
	<path fill="#8CC152" d="M95.5801,68.6367c-0.1563-0.1621-0.3213-0.3252-0.4883-0.4883c-0.1631-0.1689-0.334-0.3388-0.5078-0.5088
		c-0.1572-0.1621-0.3223-0.3251-0.4902-0.4892c-0.1573-0.1631-0.3243-0.3281-0.4932-0.4922
		c-0.1572-0.1641-0.3242-0.3281-0.4932-0.4941c-0.1572-0.1621-0.3242-0.3272-0.4922-0.4922c-0.1601-0.166-0.33-0.334-0.5019-0.502
		c-0.1572-0.1631-0.3233-0.3262-0.4903-0.4902c-0.1591-0.1651-0.3281-0.332-0.498-0.4981
		c-0.1562-0.1621-0.3213-0.3242-0.4873-0.4873c-0.1582-0.164-0.3252-0.3291-0.4941-0.4951c-0.1602-0.166-0.3301-0.333-0.501-0.5
		c-0.1582-0.164-0.3242-0.3281-0.4922-0.4922c-0.1582-0.164-0.3262-0.3291-0.4951-0.4941
		c-0.1573-0.1641-0.3242-0.3291-0.4932-0.4942c-0.1582-0.164-0.3252-0.3291-0.4941-0.4941
		c-0.1592-0.165-0.3272-0.3301-0.4971-0.4961c-0.1572-0.164-0.3242-0.3281-0.4932-0.4941
		c-0.1572-0.1631-0.3242-0.3282-0.4931-0.4932c-0.1592-0.165-0.3272-0.331-0.4971-0.4971c-0.1572-0.163-0.3242-0.3271-0.4922-0.4921
		c-0.1572-0.1622-0.3242-0.3272-0.4922-0.4922c-0.1601-0.1661-0.3301-0.334-0.5019-0.502
		c-0.1563-0.1621-0.3223-0.3262-0.4903-0.4902c-0.1572-0.1631-0.3232-0.3272-0.4921-0.4922c-0.1592-0.165-0.3282-0.332-0.4991-0.499
		c-0.1562-0.1621-0.3222-0.3252-0.4892-0.4893c-0.1602-0.166-0.3301-0.334-0.501-0.501c-0.1572-0.1631-0.3232-0.3271-0.4912-0.4912
		c-0.1563-0.1621-0.3203-0.3242-0.4863-0.4863c-0.1612-0.167-0.3311-0.3359-0.503-0.5039c-0.1601-0.166-0.3301-0.333-0.501-0.5
		c-0.1552-0.1621-0.3203-0.3242-0.4863-0.4863c-0.1592-0.1641-0.3271-0.3301-0.4961-0.4961
		c-0.1582-0.1641-0.3252-0.3291-0.4941-0.4942c-0.1572-0.1631-0.3242-0.3271-0.4922-0.4917c-0.1592-0.166-0.3291-0.333-0.5-0.5005
		c-0.1563-0.1616-0.3203-0.3242-0.4873-0.4873c-0.1611-0.167-0.3311-0.3349-0.5039-0.5039
		c-0.1563-0.1616-0.3213-0.3242-0.4873-0.4878c-0.1582-0.1635-0.3252-0.3286-0.4942-0.4941c-0.1601-0.1655-0.3291-0.3325-0.5-0.5
		c-0.1562-0.1611-0.3203-0.3232-0.4863-0.4858c-0.1611-0.1675-0.332-0.336-0.5049-0.5049
		c-0.1562-0.1617-0.3213-0.3242-0.4873-0.4878c-0.1582-0.1636-0.3252-0.3286-0.4941-0.4942
		c-0.1611-0.1665-0.3311-0.3344-0.5029-0.5024c-0.1553-0.1606-0.3194-0.3223-0.4854-0.4844
		c-0.1572-0.164-0.3242-0.3291-0.4932-0.4941c-0.1611-0.167-0.331-0.3345-0.5029-0.503c-0.1562-0.1625-0.3223-0.3261-0.4902-0.4902
		c-0.1573-0.1631-0.3233-0.3271-0.4922-0.4917c-0.1592-0.166-0.3291-0.333-0.5-0.5005c-0.1563-0.1616-0.3213-0.3242-0.4873-0.4873
		c-0.1611-0.167-0.3311-0.3349-0.5029-0.5034c-0.1573-0.1621-0.3223-0.3257-0.4903-0.4893
		c-0.1572-0.163-0.3232-0.3276-0.4922-0.4921c-0.1601-0.1661-0.3291-0.3335-0.5-0.501c-0.1562-0.1611-0.3203-0.3233-0.4863-0.4859
		c-0.1611-0.1669-0.3311-0.3349-0.5029-0.5034c-0.1573-0.1626-0.3233-0.3261-0.4903-0.4902
		c-0.1582-0.1636-0.3261-0.3286-0.4951-0.4946c-0.1601-0.1656-0.3291-0.3321-0.5-0.4995c-0.1553-0.1607-0.3193-0.3228-0.4853-0.4854
		c-0.1612-0.1665-0.3311-0.3345-0.503-0.5029c-0.1552-0.1612-0.3203-0.3238-0.4863-0.4864c-0.1592-0.165-0.3281-0.3315-0.498-0.4985
		c-0.1592-0.1645-0.3272-0.3301-0.4961-0.4961c-0.1573-0.1626-0.3233-0.3262-0.4903-0.4902
		c-0.6914-0.7163-1.4746-1.4463-2.3818-2.1914c0,0-1.9697,1.3501-3.7666,3.5454c-0.1016-0.103-0.2178-0.208-0.3242-0.3115
		c-0.1582-0.1641-0.3252-0.3291-0.4942-0.4947c-0.1611-0.1675-0.332-0.3364-0.5058-0.5058
		c-0.1543-0.1602-0.3194-0.3223-0.4844-0.4844c-0.1582-0.1636-0.3252-0.3291-0.4941-0.4946c-0.1602-0.166-0.3301-0.334-0.502-0.502
		c-0.1553-0.1611-0.3203-0.3232-0.4863-0.4858c-0.1592-0.1656-0.3281-0.3325-0.499-0.4995
		c-0.1592-0.1646-0.3272-0.3306-0.4971-0.4966c-0.1572-0.1631-0.3242-0.3272-0.4922-0.4922
		c-0.1582-0.1636-0.3252-0.3291-0.4941-0.4941c-0.1582-0.1636-0.3252-0.3282-0.4932-0.4932
		c-0.1572-0.1631-0.3232-0.3267-0.4912-0.4912c-0.1602-0.167-0.3311-0.335-0.5029-0.5034
		c-0.1573-0.1626-0.3233-0.3257-0.4903-0.4898c-0.1562-0.1621-0.3213-0.3252-0.4883-0.4888
		c-0.1621-0.1679-0.3339-0.3374-0.5068-0.5068c-0.1553-0.1606-0.3193-0.3218-0.4844-0.4839
		c-0.1611-0.167-0.332-0.3354-0.5039-0.5044c-0.1562-0.1616-0.3222-0.3247-0.4883-0.4878
		c-0.1572-0.1635-0.3242-0.3276-0.4921-0.4926c-0.1602-0.1661-0.3301-0.3331-0.501-0.501
		c-0.1563-0.1621-0.3223-0.3252-0.4893-0.4893c-0.1611-0.1665-0.331-0.3345-0.5039-0.5029
		c-0.1543-0.1602-0.3183-0.3218-0.4834-0.4834c-0.6904-0.7163-1.4736-1.4463-2.3808-2.1919c0,0-12.462,8.5405-3.2647,17.6274
		c0.1475,0.1582,0.3174,0.3174,0.4775,0.4761c0.1573,0.1704,0.3379,0.3418,0.5108,0.5132c0.1523,0.1631,0.3262,0.3267,0.4922,0.4907
		c0.1523,0.1636,0.3262,0.3281,0.4922,0.4922c0.1308,0.1401,0.2812,0.2808,0.4209,0.4214h-5.2227
		c-0.415,0-0.7607,0.3408-0.7607,0.7646v1.9449c0.0332,0.0766,0.0625,0.1591,0.0664,0.2451
		c0.1601,3.062,0.9765,6.5576,1.9472,7.0098c0.1582,0.249,0.3252,0.416,0.4961,0.4951c0.1582,0.247,0.3233,0.4131,0.4922,0.4931
		c0.1026,0.1592,0.2071,0.2823,0.3145,0.375c-0.6172,0.3291-1.2198,0.3946-1.8037,0.1846c-0.1104-0.0391-0.212-0.1016-0.3145-0.1602
		c-0.0713-0.1074-0.1435-0.2128-0.209-0.33v0.1982c-0.0195-0.0146-0.0371-0.0322-0.0566-0.0478
		c-0.1563-0.1954-0.3047-0.4053-0.4375-0.6446v0.2188c-0.1787-0.2129-0.3467-0.4453-0.4951-0.7129v25.8242
		c0,0.3418,0.2324,0.6191,0.54,0.7158c0.0752,0.2393,0.2578,0.4209,0.4941,0.4951c0.0752,0.2383,0.2579,0.42,0.4942,0.4942
		c0.0752,0.2383,0.2578,0.4199,0.4951,0.4941c0.0752,0.2383,0.2578,0.4199,0.4941,0.4951c0.0752,0.2373,0.2579,0.419,0.4942,0.4932
		c0.0752,0.2393,0.2578,0.4209,0.4951,0.4951c0.0752,0.2383,0.2578,0.4199,0.4941,0.4951c0.0752,0.2383,0.2579,0.42,0.4942,0.4942
		c0.0752,0.2383,0.2578,0.4199,0.4951,0.4941c0.0752,0.2383,0.2578,0.4199,0.4941,0.4951c0.0752,0.2383,0.2579,0.42,0.4942,0.4942
		c0.0752,0.2392,0.2578,0.4209,0.4961,0.4951c0.0742,0.2383,0.2568,0.4199,0.4931,0.4941c0.0752,0.2383,0.2579,0.42,0.4952,0.4942
		c0.0752,0.2383,0.2578,0.4199,0.4941,0.4941c0.0752,0.2383,0.2578,0.4209,0.4941,0.4951c0.0752,0.2383,0.2579,0.4209,0.4952,0.4952
		c0.0752,0.2382,0.2578,0.4199,0.4941,0.4941c0.0752,0.2383,0.2578,0.4199,0.4951,0.4941c0.0752,0.2383,0.2578,0.42,0.4942,0.4942
		c0.0751,0.2383,0.2578,0.4199,0.4941,0.4941c0.0752,0.2383,0.2578,0.4199,0.4941,0.4951c0.0752,0.2393,0.2578,0.4209,0.4952,0.4951
		c0.0751,0.2383,0.2578,0.42,0.4951,0.4942c0.0742,0.2383,0.2578,0.4199,0.4941,0.4941c0.0752,0.2383,0.2578,0.42,0.4942,0.4951
		c0.0751,0.2383,0.2578,0.42,0.4941,0.4942c0.0752,0.2383,0.2578,0.4209,0.4961,0.4951c0.0742,0.2383,0.2568,0.4199,0.4931,0.4941
		c0.0752,0.2383,0.2588,0.42,0.4952,0.4942c0.0752,0.2383,0.2578,0.4199,0.4941,0.4941c0.0752,0.2383,0.2578,0.4199,0.4941,0.4951
		c0.0752,0.2383,0.2579,0.42,0.4952,0.4942c0.0752,0.2392,0.2568,0.4209,0.4941,0.4951c0.0752,0.2383,0.2578,0.4199,0.4951,0.4941
		c0.0752,0.2383,0.2578,0.4209,0.4942,0.4952c0.0752,0.2382,0.2578,0.4199,0.4941,0.4941c0.0752,0.2383,0.2578,0.4199,0.4941,0.4941
		c0.0752,0.2383,0.2588,0.42,0.4952,0.4952c0.0752,0.2382,0.2578,0.4199,0.4941,0.4941c0.0752,0.2383,0.2578,0.4199,0.4951,0.4941
		c0.0752,0.2383,0.2578,0.4209,0.4942,0.4952c0.0752,0.2382,0.2578,0.4199,0.4941,0.4941c0.0352,0.1113,0.0977,0.207,0.1748,0.2881
		c18.2441-2.1319,33.4883-14.0762,40.3027-30.4238c-0.0322-0.0332-0.0625-0.0645-0.0957-0.0967
		C95.9131,68.9639,95.7471,68.8008,95.5801,68.6367z"/>
</g>
<g id="candles-candles">
	<g>
		<path fill="#FFCE54" d="M40.7393,21.5c13.1718,10.8237,2.3486,18.7617,2.3486,18.7617c3.4248-6.4936-1.9824-9.5586-1.9824-9.5586
			c-5.5889,4.8721-2.166,9.7383-2.166,9.7383C27.0303,30.8813,40.7393,21.5,40.7393,21.5z"/>
		<path fill="#FC6E51" d="M41.874,53.5654l-0.2011-1.0088c-0.1387-0.7754-0.4444-2.3891-0.8379-2.5004
			c-0.0186-0.0074-0.6075-0.1485-2.3721,1.7719c-1.0615,1.1524-2.0889,1.5567-3.0654,1.2051
			c-0.6192-0.2207-1.1162-0.7666-1.5127-1.4785v25.8242c0,0.4199,0.3457,0.7607,0.7607,0.7607h12.3789
			c0.417,0,0.7569-0.3408,0.7569-0.7607V59.9238c-0.3565,0.166-0.6944,0.2139-0.9981,0.1895
			C44.3564,59.9453,42.2598,55.3066,41.874,53.5654z"/>
		<path fill="#FFFFFF" d="M35.9453,51.5117c0.2891,0.1065,0.7754-0.1787,1.3233-0.7817c1.7041-1.8467,2.9433-2.5357,4.0166-2.2261
			c1.3525,0.3857,1.6679,2.0982,1.9804,3.7539l0.1885,0.9551c0.4492,2.0264,2.376,5.2148,3.4453,5.2891
			c0.2813,0.0195,0.5918-0.379,0.8819-1.0459V42.2856c0-0.4238-0.3399-0.7646-0.7569-0.7646H34.6455
			c-0.415,0-0.7607,0.3408-0.7607,0.7646v1.9449c0.0332,0.0766,0.0625,0.1591,0.0664,0.2451
			C34.1143,47.5874,34.9541,51.1543,35.9453,51.5117z"/>
	</g>
	<g>
		<path fill="#FFCE54" d="M59.0791,32.3262C72.252,43.146,61.4268,51.083,61.4268,51.083c3.4277-6.4902-1.9815-9.562-1.9815-9.562
			c-5.5889,4.8789-2.164,9.7446-2.164,9.7446C45.377,41.7026,59.0791,32.3262,59.0791,32.3262z"/>
		<path fill="#FFFFFF" d="M65.3574,52.3457H52.9873c-0.4189,0-0.7568,0.3398-0.7568,0.7598v1.1025
			c0.0107,0.0527,0.0371,0.1006,0.041,0.1592c0.1592,3.1064,0.998,6.6738,1.9941,7.0351c0.2891,0.1045,0.7705-0.1796,1.3233-0.7851
			c1.7041-1.8447,2.9394-2.5371,4.0117-2.2276c1.3545,0.3858,1.6709,2.1006,1.9853,3.7588l0.1905,0.9502
			c0.4521,2.0264,2.3711,5.2139,3.4394,5.292c0.2852,0.0196,0.6123-0.3935,0.8985-1.0898V53.1055
			C66.1143,52.6855,65.7803,52.3457,65.3574,52.3457z"/>
		<path fill="#FC6E51" d="M65.1045,70.0029c-2.4248-0.167-4.5254-4.8134-4.9072-6.5517l-0.2032-1.0049
			c-0.1396-0.7764-0.4521-2.3887-0.8388-2.501c-0.0186-0.0078-0.6104-0.1484-2.3692,1.7686
			c-1.0644,1.1562-2.0937,1.5605-3.0673,1.209c-0.6124-0.2227-1.0977-0.7549-1.4883-1.4424v16.2597
			c0,0.418,0.3379,0.7598,0.7568,0.7598h12.3701c0.4229,0,0.7569-0.3418,0.7569-0.7598v-7.9394
			C65.7588,69.9766,65.4072,70.0234,65.1045,70.0029z"/>
	</g>
</g>
</svg>
