<?xml version="1.0" encoding="utf-8"?>
<!-- Generator: Adobe Illustrator 17.1.0, SVG Export Plug-In . SVG Version: 6.00 Build 0)  -->
<!DOCTYPE svg PUBLIC "-//W3C//DTD SVG 1.1//EN" "http://www.w3.org/Graphics/SVG/1.1/DTD/svg11.dtd">
<svg version="1.1" id="church" xmlns="http://www.w3.org/2000/svg" xmlns:xlink="http://www.w3.org/1999/xlink" x="0px" y="0px"
	 viewBox="0 0 100 100" enable-background="new 0 0 100 100" xml:space="preserve">
<circle id="church-label" fill="#FC6E51" cx="50" cy="50" r="50"/>
<g id="church-shadow">
	<path fill="#E9573F" d="M94.1201,72.5059l-0.2666-0.4942H93.626l-0.2666-0.4941h-0.2285l-0.2676-0.4942h-0.2256l-0.2686-0.4961
		h-0.2265l-0.2676-0.4941h-0.2275l-0.2666-0.4941h-0.2276l-0.2666-0.4942h-0.2285l-0.2676-0.4941h-0.2265l-0.2676-0.4951h-0.2276
		l-0.2666-0.4942h-0.2265l-0.2676-0.4951h-0.2275l-0.2666-0.4941h-0.2286l-0.2675-0.4942h-0.2266l-0.2676-0.4951h-0.2265
		l-0.2676-0.4941h-0.2266l-0.2676-0.4952H86.208l-0.2666-0.4941h-0.2285l-0.2666-0.4941h-0.2275l-0.2676-0.4951h-0.2266
		l-0.2676-0.4942h-0.2265l-0.2676-0.4951h-0.2275l-0.2666-0.4941h-0.2286l-0.2666-0.4942h-0.2265l-0.2676-0.4951H82.252
		l-0.2676-0.4941h-0.2266l-0.2676-0.4942h-0.2265l-0.2676-0.4951h-0.2275l-0.2666-0.4941h-0.2276l-0.2676-0.4952h-0.2275
		l-0.2666-0.4941h-0.2275l-0.2676-0.4941H78.791l-0.2676-0.4952h-0.2275l-0.2666-0.4941h-0.2285l-0.2666-0.4941h-0.2266
		L77.04,55.1982h-0.2275l-0.2676-0.4941h-0.2265l-0.2676-0.4951h-0.2276l-0.2666-0.4942h-0.2275l-0.2666-0.4941H74.835
		l-0.2676-0.4951h-0.2276l-0.2675-0.4942h-0.2266l-0.2676-0.4951h-0.2275l-0.2666-0.4941h-0.2276l-0.2666-0.4942h-0.2275
		l-0.2676-0.4951h-0.2275l-0.2676-0.4941H71.373l-0.2675-0.4942h-0.2266l-0.2676-0.4951h-0.2275l-0.2666-0.4941H64.709v-0.0889
		h-0.4961v-0.4941h-0.4941v-0.4951h-0.4942v-0.4942h-0.4941V46.209h-0.4942v-0.4951h-0.4951v-0.4942h-0.4951v-0.4941H60.752v-0.4951
		h-0.4942v-0.4942h-0.4941v-0.4941h-0.4951v-0.4951h-0.4952v-0.4942h-0.4941v-0.4951h-0.4941v-0.4941H57.291v-0.4942h-0.4941
		v-0.4951h-0.4951v-0.4941h-0.4952v-0.4951h-0.4941V38.791h-0.4941v-0.4941h-0.4942v-0.4951h-0.4941v-0.4942H53.334v-0.4941h-0.4942
		v-0.4951h-0.4941v-0.4942h-0.4941v-0.4941h-0.4942V34.835h-0.4951v-0.4942h-0.4946v-0.4951h-0.4942v-0.4941h-0.4951v-0.4942
		h-0.4941v-0.4941h-0.4951v-0.4951H47.895V31.373h-0.4946v-0.4941h-0.4941v-0.4941h-0.4947v-0.4952H45.917v-0.4941h-0.4946v-0.4941
		h-0.4942v-0.4952h-0.4941v-0.4941H43.939V27.417h-0.4942v-0.4941h-0.4951v-0.4942h-0.4941v-0.4951h-0.4947v-0.4941h-0.4941v-0.4942
		h-0.4946v-0.4941h-0.4947v-0.4951h-0.4946v-0.4942h-0.4941v-0.4951h-0.4951v-0.4941h-0.4942v-0.4942h-0.4946v-0.4951h-0.4942
		v-0.4941h-0.4951v-0.4952h-0.4941V20H34.647v5.5586h-5.105v1.874h0.4946v0.4951h0.4942v0.4942h0.4951v0.4941H31.52v0.4951h0.4946
		v0.4942h0.4942v0.4941h0.4946v0.4951h0.4946v0.4942h0.4947v0.4941h0.4941v0.4951h0.1602v3.6026l-11.314,21.041h0.7598
		l-0.2657,0.4941h0.7613l-0.2661,0.4951h0.7597l-0.2656,0.4942h0.7603L25.311,58.999h0.3628V80h0.4947v0.4941h0.4941v0.4952h0.4946
		v0.4941h0.4947v0.4951h0.4946v0.4942h0.4946v0.4941h0.4942v0.4941h0.4946v0.4952h0.4941v0.4951h0.4947v0.4941h0.4951v0.4942h0.4941
		v0.4951h0.4946v0.4941h0.4942v0.4942h0.4946v0.4941h0.4946v0.4951h0.4947v0.4941h0.4941v0.4952h0.4946v0.4941h0.4947v0.4951h0.4946
		v0.4942h0.4941v0.4941h0.4947v0.4941h0.4941v0.4952h0.4951v0.4951h0.4942v0.4941h0.4946v0.4942H39.52v0.4951h0.4946v0.4941h0.4947
		v0.4942h0.4941v0.4941h0.4942v0.4951h0.4951v0.4942h0.4946v0.4941h0.4941v0.4951h0.4947v0.4951h0.4941v0.4942h0.4951v0.4941h0.4942
		v0.4942h0.4941v0.4951h0.4951v0.042C47.2861,99.9297,48.6343,100,49.999,100c19.4033,0,36.2119-11.0596,44.501-27.2109
		l-0.1523-0.2832H94.1201z"/>
</g>
<g id="church-church">
	<polygon fill="#FFFFFF" points="70.1172,48.2754 42.7344,48.2754 36.5215,35.9062 36.5215,27.4326 41.8779,27.4326 
		41.8779,25.5586 36.5215,25.5586 36.5215,20 34.647,20 34.647,25.5586 29.542,25.5586 29.542,27.4326 34.647,27.4326 
		34.647,35.9805 23.333,57.0215 25.6738,57.0215 25.6738,80 72.9531,80 72.9531,60.4023 76.667,60.4023 	"/>
	<path fill="#F6BB42" d="M35.5337,55.1865c-1.5703,0-2.8482-1.2715-2.8482-2.8428c0-1.5742,1.2779-2.8496,2.8482-2.8496
		c1.5742,0,2.852,1.2754,2.852,2.8496C38.3857,53.915,37.1079,55.1865,35.5337,55.1865z M65.46,60.9902
		c1.9775,0.1289,3.5488,1.7119,3.6504,3.6973H65.46V60.9902z M52.9727,60.9902c1.9785,0.1289,3.5488,1.7119,3.6513,3.6973h-3.6513
		V60.9902z M52.3438,77.7793h-3.544v-4.1885h3.544V77.7793z M52.3438,72.9629h-3.544v-3.5078h3.544V72.9629z M52.3438,68.8242
		h-3.544v-3.5117h3.544V68.8242z M52.3438,64.6875h-3.5284c0.1016-1.9453,1.6089-3.5039,3.5284-3.6855V64.6875z M56.6436,77.7793
		h-3.6709v-4.1885h3.6709V77.7793z M56.6436,72.9629h-3.6709v-3.5078h3.6709V72.9629z M56.6436,68.8242h-3.6709v-3.5117h3.6709
		V68.8242z M64.832,77.7793h-3.5488v-4.1885h3.5488V77.7793z M64.832,72.9629h-3.5488v-3.5078h3.5488V72.9629z M64.832,68.8242
		h-3.5488v-3.5117h3.5488V68.8242z M64.832,64.6875h-3.5254c0.0967-1.9453,1.6065-3.5039,3.5254-3.6855V64.6875z M69.1289,77.7793
		H65.46v-4.1885h3.6689V77.7793z M69.1289,72.9629H65.46v-3.5078h3.6689V72.9629z M69.1289,68.8242H65.46v-3.5117h3.6689V68.8242z"
		/>
</g>
</svg>
