<?xml version="1.0" encoding="utf-8"?>
<!-- Generator: Adobe Illustrator 17.1.0, SVG Export Plug-In . SVG Version: 6.00 Build 0)  -->
<!DOCTYPE svg PUBLIC "-//W3C//DTD SVG 1.1//EN" "http://www.w3.org/Graphics/SVG/1.1/DTD/svg11.dtd">
<svg version="1.1" id="cup" xmlns="http://www.w3.org/2000/svg" xmlns:xlink="http://www.w3.org/1999/xlink" x="0px" y="0px"
	 viewBox="0 0 100 100" enable-background="new 0 0 100 100" xml:space="preserve">
<circle id="cup-label" fill="#FFCE54" cx="50" cy="50" r="50"/>
<g id="cup-shadow">
	<path fill="#F6BB42" d="M97.5059,64.877c-0.0469-0.002-0.1153-0.0108-0.1993-0.0196c-0.0849-0.0097-0.1894-0.0215-0.3046-0.0312
		l0.0087-0.4444c-0.0459-0.0009-0.1152-0.0107-0.1992-0.0195c-0.084-0.0098-0.1894-0.0205-0.3037-0.0303l0.0088-0.4453
		c-0.0469,0-0.1162-0.0097-0.1992-0.0185c-0.085-0.0098-0.1895-0.0205-0.3047-0.0303l0.0098-0.4453
		c-0.0479-0.001-0.1153-0.0098-0.2002-0.0196c-0.084-0.0087-0.1895-0.0195-0.3047-0.0293l0.0097-0.4453
		c-0.0468-0.0019-0.1152-0.0097-0.1992-0.0195s-0.1894-0.0215-0.3047-0.0312l0.0098-0.4434
		c-0.0469-0.002-0.1152-0.0098-0.1992-0.0195c-0.084-0.0098-0.1895-0.0215-0.3047-0.0313l0.0088-0.4433
		c-0.0469-0.002-0.1152-0.0108-0.1983-0.0196c-0.0849-0.0097-0.1894-0.0215-0.3046-0.0312l0.0087-0.4444
		c-0.0468-0.0009-0.1152-0.0107-0.1992-0.0195c-0.0849-0.0098-0.1894-0.0205-0.3047-0.0303l0.0098-0.4443
		c-0.0469-0.002-0.1152-0.0107-0.1992-0.0205c-0.085-0.0098-0.1904-0.0195-0.3057-0.0303l0.0098-0.4443
		c-0.0469-0.002-0.1152-0.0098-0.1992-0.0196c-0.084-0.0087-0.1895-0.0195-0.3047-0.0292l0.0097-0.4454
		c-0.0468-0.0019-0.1152-0.0097-0.1992-0.0195s-0.1894-0.0215-0.3047-0.0312l0.0098-0.4434
		c-0.0469-0.002-0.1152-0.0107-0.1992-0.0195c-0.085-0.0098-0.1895-0.0215-0.3047-0.0313l0.0088-0.4443
		c-0.0469-0.001-0.1143-0.0098-0.1992-0.0186c-0.084-0.0097-0.1895-0.0205-0.3037-0.0302l0.0087-0.4454
		c-0.0468-0.0019-0.1152-0.0107-0.2001-0.0205c-0.084-0.0097-0.1895-0.0195-0.3047-0.0302l0.0097-0.4444
		c-0.0468-0.001-0.1152-0.0097-0.1992-0.0195c-0.084-0.0088-0.1894-0.0195-0.3047-0.0293l0.0098-0.4453
		c-0.0469-0.002-0.1152-0.0098-0.1992-0.0195c-0.084-0.0088-0.1895-0.0196-0.3047-0.0293l0.0098-0.4454
		c-0.0469-0.0019-0.1153-0.0097-0.1993-0.0195s-0.1894-0.0215-0.3047-0.0312l0.0088-0.4444
		c-0.0459-0.001-0.1142-0.0097-0.1992-0.0185c-0.084-0.0098-0.1894-0.0205-0.3037-0.0303l0.0088-0.4453
		c-0.0469-0.001-0.1152-0.0098-0.1992-0.0186c-0.084-0.0097-0.1895-0.0205-0.3037-0.0302l0.0088-0.4463
		c-0.0479,0-0.1163-0.0098-0.2002-0.0196c-0.084-0.0097-0.1895-0.0195-0.3038-0.0302l0.0088-0.4444
		c-0.0468-0.0019-0.1152-0.0097-0.1992-0.0195c-0.084-0.0088-0.1894-0.0195-0.3047-0.0293l0.0098-0.4453
		c-0.0469-0.002-0.1152-0.0098-0.1992-0.0195c-0.084-0.0098-0.1895-0.0215-0.3047-0.0313l0.0088-0.4434
		c-0.0469-0.0019-0.1143-0.0107-0.1992-0.0195c-0.084-0.0098-0.1895-0.0215-0.3038-0.0312l0.0088-0.4434
		c-0.0468-0.0019-0.1152-0.0107-0.1992-0.0195c-0.084-0.0098-0.1894-0.0205-0.3037-0.0303l0.0088-0.4463
		c-0.0479,0-0.1162-0.0098-0.1992-0.0195c-0.085-0.0098-0.1895-0.0205-0.3047-0.0303l0.0088-0.4443
		c-0.0469-0.002-0.1153-0.0098-0.1992-0.0196c-0.084-0.0087-0.1895-0.0195-0.3047-0.0293l0.0097-0.4453
		c-0.0468-0.0019-0.1152-0.0097-0.1992-0.0195c-0.084-0.0098-0.1894-0.0215-0.3047-0.0313l0.0098-0.4433
		c-0.0469-0.002-0.1152-0.0098-0.1992-0.0195c-0.085-0.0098-0.1895-0.0215-0.3047-0.0313l0.0088-0.4434
		c-0.0469-0.0019-0.1153-0.0107-0.1992-0.0195c-0.085-0.0097-0.1895-0.0205-0.3037-0.0303l0.0087-0.4458
		c-0.0468-0.0009-0.1162-0.0097-0.1992-0.019c-0.0849-0.0098-0.1894-0.021-0.3047-0.0308l0.0088-0.4443
		c-0.0459-0.0019-0.1142-0.0103-0.1992-0.0195c-0.084-0.0093-0.1894-0.02-0.3047-0.0298l0.0098-0.4453
		c-0.0469-0.0015-0.1153-0.0103-0.1992-0.0196c-0.084-0.0097-0.1895-0.0205-0.3047-0.0307l0.0097-0.4439
		c-0.0468-0.0014-0.1152-0.0102-0.1992-0.0195s-0.1894-0.0205-0.3047-0.0308l0.0088-0.4443
		c-0.0459-0.0019-0.1152-0.0102-0.1982-0.0195c-0.085-0.0093-0.1895-0.02-0.3047-0.0298l0.0088-0.4453
		c-0.0469-0.0015-0.1153-0.0103-0.1992-0.0196c-0.085-0.0092-0.1895-0.0205-0.3047-0.0307l0.0097-0.4444
		c-0.0478-0.0009-0.1152-0.0102-0.1992-0.0195c-0.0849-0.0097-0.1904-0.0205-0.3056-0.0307l0.0097-0.4444
		c-0.0468-0.0014-0.1152-0.0102-0.1992-0.0195c-0.084-0.0098-0.1894-0.0205-0.3047-0.0308l0.0098-0.4443
		c-0.0469-0.001-0.1152-0.0098-0.1992-0.0191c-0.084-0.0092-0.1895-0.02-0.3047-0.0297l0.0088-0.4454
		c-0.0459-0.0009-0.1143-0.0102-0.1983-0.0195c-0.0849-0.0093-0.1894-0.02-0.3047-0.0298l0.0088-0.4453
		c-0.0468-0.0014-0.1152-0.0102-0.1992-0.0195c-0.084-0.0098-0.1894-0.0205-0.3037-0.0308l0.0088-0.4443
		c-0.0469-0.001-0.1152-0.0098-0.1992-0.0191c-0.085-0.0092-0.1905-0.0205-0.3057-0.0307l0.0098-0.4443
		c-0.0469-0.0015-0.1153-0.0103-0.1992-0.0196c-0.084-0.0093-0.1895-0.0205-0.3047-0.0303l0.0097-0.4453
		c-0.0468-0.0009-0.1152-0.0097-0.1992-0.019c-0.084-0.0098-0.1894-0.021-0.3047-0.0308l0.0098-0.4443
		c-0.0469-0.001-0.1152-0.0103-0.2002-0.0195c-0.084-0.0093-0.1885-0.0205-0.3037-0.0303l0.0088-0.4448
		c-0.0469-0.001-0.1153-0.0098-0.1983-0.0191c-0.0849-0.0093-0.1904-0.02-0.3047-0.0303l0.0088-0.4453
		c-0.0468-0.0009-0.1152-0.0097-0.1992-0.019c-0.0849-0.0093-0.1904-0.0205-0.3057-0.0308l0.0098-0.4443
		c-0.0469-0.001-0.1152-0.0103-0.1992-0.0195c-0.084-0.0098-0.1895-0.0205-0.3047-0.0308l0.0098-0.4448
		c-0.0469-0.001-0.1153-0.0093-0.1992-0.0186c-0.084-0.0093-0.1895-0.02-0.3047-0.0303l0.0097-0.4448
		c-0.0468-0.0014-0.1152-0.0107-0.1992-0.02c-0.084-0.0098-0.1894-0.021-0.3047-0.0308l0.0088-0.4438
		c-0.0469-0.0015-0.1142-0.0103-0.1992-0.0195c-0.084-0.0093-0.1895-0.0201-0.3037-0.0298l0.0088-0.4448
		c-0.0469-0.002-0.1153-0.0103-0.1992-0.0196c-0.085-0.0093-0.1895-0.02-0.3047-0.0302l0.0097-0.4454
		c-0.0478-0.0009-0.1162-0.0097-0.1992-0.0195c-0.0849-0.0098-0.1904-0.0205-0.3056-0.0308l0.0097-0.4438
		c-0.0469-0.002-0.1152-0.0103-0.1992-0.0195c-0.084-0.0098-0.1895-0.0205-0.3047-0.0308l0.0098-0.4443
		c-0.0469-0.0015-0.1153-0.0103-0.1992-0.0201c-0.084-0.0097-0.1895-0.0205-0.3047-0.0307l0.0088-0.4439
		c-0.0459-0.0014-0.1143-0.0102-0.1983-0.0195c-0.0849-0.0093-0.1894-0.02-0.3047-0.0298l0.0088-0.4448
		c-0.0469-0.002-0.1152-0.0103-0.1992-0.0195c-0.085-0.0093-0.1895-0.0201-0.3047-0.0303l0.0098-0.4453
		c-0.0469-0.001-0.1153-0.0098-0.2002-0.0195c-0.084-0.0098-0.1895-0.0206-0.3037-0.0308l0.0088-0.4439
		c-0.0469-0.0014-0.1153-0.0102-0.1993-0.0195c-0.0839-0.0098-0.1894-0.0205-0.3046-0.0308l0.0097-0.4443
		c-0.0469-0.0015-0.1152-0.0102-0.1992-0.02s-0.1895-0.0205-0.3047-0.0308l0.0098-0.4438c-0.0469-0.001-0.1153-0.0103-0.1992-0.0195
		c-0.084-0.0098-0.1895-0.0206-0.3047-0.0308l0.0088-0.4439c-0.0469-0.0014-0.1153-0.0102-0.1993-0.0195
		c-0.0849-0.0093-0.1894-0.02-0.3046-0.0303l0.0097-0.4453c-0.0469-0.001-0.1152-0.0097-0.1992-0.0195
		c-0.085-0.0098-0.1895-0.021-0.3047-0.0308l0.0088-0.4438c-0.0459-0.0015-0.1152-0.0103-0.1992-0.0195
		c-0.084-0.0098-0.1895-0.021-0.3047-0.0308l0.0098-0.4443c-0.0469-0.0015-0.1153-0.0098-0.1993-0.0191
		c-0.0839-0.0093-0.1894-0.0205-0.3046-0.0303l0.0097-0.4453c-0.0469-0.0009-0.1152-0.0102-0.1992-0.0195
		c-0.085-0.0098-0.1894-0.0205-0.3047-0.0308l0.0088-0.4438c-0.0469-0.0015-0.1152-0.0103-0.1982-0.0195
		c-0.085-0.0093-0.1905-0.0201-0.3047-0.0298l0.0088-0.4453c-0.0469-0.0015-0.1153-0.0103-0.1993-0.0196
		c-0.0849-0.0093-0.1894-0.0205-0.3046-0.0307l0.0097-0.4444c-0.0478-0.0014-0.1152-0.0097-0.2002-0.0195
		c-0.084-0.0098-0.1894-0.021-0.3047-0.0308l0.0098-0.4443c-0.0469-0.0015-0.1152-0.0098-0.1992-0.019
		c-0.084-0.0093-0.1895-0.0206-0.3047-0.0303l0.0098-0.4453c-0.0469-0.001-0.1153-0.0103-0.1993-0.0196
		c-0.0839-0.0097-0.1894-0.0205-0.3046-0.0307l0.0087-0.4439c-0.0458-0.0014-0.1142-0.0102-0.1982-0.0195
		c-0.085-0.0098-0.1894-0.0205-0.3047-0.0308l0.0088-0.4438c-0.0469-0.002-0.1142-0.0108-0.1992-0.02
		c-0.084-0.0098-0.1895-0.0205-0.3037-0.0308l0.0088-0.4438c-0.0479-0.0015-0.1153-0.0103-0.1993-0.0201
		c-0.0849-0.0097-0.1904-0.0205-0.3056-0.0307l0.0098-0.4439c-0.0469-0.0014-0.1153-0.0102-0.1993-0.0195
		c-0.084-0.0098-0.1894-0.0205-0.3047-0.0308l0.0098-0.4443c-0.0469-0.0015-0.1152-0.0103-0.1992-0.0195
		c-0.084-0.0098-0.1895-0.021-0.3047-0.0308l0.0098-0.4443c-0.0469-0.0015-0.1153-0.0103-0.1992-0.0196
		c-0.085-0.0092-0.1895-0.0205-0.3047-0.0302l0.0088-0.4444c-0.0459-0.0019-0.1143-0.0107-0.1993-0.02
		c-0.084-0.0098-0.1894-0.0205-0.3037-0.0307l0.0088-0.4439c-0.0469-0.0015-0.1152-0.0102-0.2002-0.0195
		c-0.084-0.0093-0.1894-0.0205-0.3037-0.0303l0.0088-0.4448c-0.0469-0.0015-0.1152-0.0103-0.1992-0.0196
		c-0.084-0.0097-0.1895-0.021-0.3047-0.0307l0.0098-0.4444c-0.0469-0.0014-0.1153-0.0097-0.1993-0.0195
		c-0.0839-0.0098-0.1894-0.021-0.3047-0.0307l0.0098-0.4439c-0.0469-0.0015-0.1152-0.0102-0.1992-0.0195s-0.1895-0.02-0.3047-0.0298
		l0.0088-0.4453c-0.0469-0.0015-0.1143-0.0103-0.1982-0.02c-0.085-0.0098-0.1895-0.0206-0.3047-0.0308l0.0088-0.4439
		c-0.0469-0.0014-0.1153-0.0102-0.1993-0.0195c-0.8545-0.0976-3.4423-0.3828-4.4287,2.4004
		c-0.0683,0.1899-0.1025,0.3735-0.1367,0.5566c-0.0635-0.0068-0.1348-0.0136-0.2129-0.02l0.0108-0.4448
		c-0.0479-0.0015-0.1163-0.0102-0.2012-0.0195c-0.084-0.0093-0.1885-0.0205-0.3037-0.0308l0.0097-0.4443
		c-0.0468-0.0015-0.1152-0.0103-0.2011-0.0196c-0.084-0.0092-0.1885-0.0205-0.3028-0.0302L51,25.8105
		c-0.0469-0.0014-0.1162-0.0097-0.2012-0.0195c-0.084-0.0093-0.1894-0.0205-0.3037-0.0303l0.0108-0.4443
		c-0.0479-0.0015-0.1163-0.0102-0.2012-0.0195c-0.084-0.0093-0.1895-0.02-0.3037-0.0298l0.0107-0.4453
		c-0.0488-0.0015-0.1172-0.0103-0.2021-0.02c-0.084-0.0093-0.1885-0.0206-0.3037-0.0303l0.0107-0.4444
		c-0.0478-0.0014-0.1162-0.0102-0.2012-0.0195c-0.8496-0.0957-3.4375-0.3828-4.4238,2.3989
		c-0.0684,0.1905-0.1035,0.3746-0.1377,0.5581c-0.0644-0.0068-0.1348-0.0136-0.2129-0.0205l0.0088-0.4443
		c-0.0478-0.0015-0.1152-0.0102-0.1992-0.0195c-0.084-0.0093-0.1895-0.0205-0.3047-0.0303l0.0088-0.4448
		c-0.0469-0.0015-0.1152-0.0103-0.1992-0.0196c-0.084-0.0092-0.1895-0.0205-0.3047-0.0302l0.0097-0.4449
		c-0.0468-0.0014-0.1152-0.0097-0.1992-0.0195c-0.084-0.0093-0.1894-0.0205-0.3047-0.0307l0.0098-0.4439
		c-0.0469-0.0015-0.1152-0.0102-0.1992-0.0195s-0.1895-0.02-0.3047-0.0298l0.0098-0.4453c-0.0479-0.0015-0.1153-0.0103-0.1993-0.02
		c-0.0839-0.0093-0.1894-0.0206-0.3046-0.0308l0.0087-0.4439c-0.0468-0.0014-0.1152-0.0102-0.1992-0.0195
		c-0.8486-0.0947-3.4365-0.3838-4.4267,2.3999c-0.71,1.9927,0.5166,3.5918,1.9502,5.0239c0.5898,0.5889,0.7998,1.0938,0.7998,1.3672
		c-0.0059,1.5425-1.0401,2.4678-1.5674,2.5996l0.3633,1.4551c0.1133-0.0283,0.2265-0.0786,0.3398-0.125l0.1553,0.6192
		c0.1133-0.0284,0.2266-0.0782,0.3389-0.1246l0.1552,0.6197c0.1133-0.0283,0.2266-0.0786,0.3399-0.125l0.1543,0.6191
		c0.1133-0.0283,0.2265-0.0781,0.3398-0.125l0.1543,0.6196c0.1133-0.0283,0.2275-0.0781,0.3408-0.125l0.1543,0.6192
		c0.1133-0.0283,0.2266-0.0781,0.3389-0.1245l0.0635,0.251H29.251l9.3476,32.5791h0.3526l0.1426,0.4951h0.3515l0.1426,0.4941h0.3525
		l0.1416,0.4942h0.3526l0.125,0.4345h-12.085v1.5h0.4942v0.4951h0.4951v0.4942h0.4941v0.4941h0.4951v0.4942h0.4942v0.4941h0.4941
		v0.4951h0.4951v0.4951h0.4942v0.4942h0.4941v0.4941h0.4951v0.4942h0.4942v0.4951h0.4941v0.4951h0.4951v0.4941h0.4942v0.4942h0.4951
		v0.4941h0.4941v0.4951h0.4942v0.4951h0.4951v0.4942h0.4941v0.4941h0.4951v0.4942h0.4942v0.4941h0.4941v0.4951h0.4942v0.4951h0.4951
		v0.4942h0.4941v0.4941h0.4951v0.4942h0.4942v0.4941h0.4941v0.4961h0.4951v0.4941h0.4942v0.4942h0.4951v0.4941h0.4941v0.4951h0.4942
		v0.4942h0.4941v0.4951h0.4951v0.4941h0.4951v0.4942h0.4942v0.4941h0.4941V94.54h0.4942v0.4952h0.4951v0.4941H48.75v0.4941h0.4941
		v0.4942h0.4942v0.4941h0.4941v0.4961h0.4951v0.4942h0.4942v0.4941h0.4951v0.4941h0.4941v0.4942h0.4942v0.4404
		c21.0762-1.124,38.6806-15.3018,44.8906-34.5947c-0.0352-0.002-0.0615-0.0059-0.0996-0.0098L97.5059,64.877z"/>
</g>
<g id="cup-cup">
	<path fill="#FFFFFF" d="M57.8965,72.3311l3.0029-10.4659h9.6055V46.1035h-5.082l1.8222-6.3515H29.251l9.3476,32.5791H57.8965z
		 M69.0049,47.6035v12.7617h-7.6748l3.6621-12.7617H69.0049z"/>
	<path fill="#FFFFFF" d="M55.0791,33.0977c-0.0078,1.5434-1.042,2.4692-1.5684,2.6005l0.3643,1.4551
		c1.3213-0.3301,2.6934-1.9346,2.7041-4.0517c0-0.4463-0.1611-1.3555-1.2422-2.4307c-1.7422-1.7476-1.9043-2.5918-1.5957-3.4609
		c0.5449-1.5347,1.7588-1.5323,2.8496-1.4117c0.2539,0.0274,0.4219,0.0469,0.6035,0.0015l-0.248-0.9985l0.0098-0.4742
		c-0.0469-0.0014-0.1153-0.0102-0.1993-0.0195c-0.8545-0.0976-3.4423-0.3828-4.4287,2.4004
		c-0.708,1.9883,0.5176,3.5889,1.9492,5.0244C54.8682,32.3208,55.0791,32.8257,55.0791,33.0977z"/>
	<path fill="#FFFFFF" d="M40.2012,33.0986c-0.0059,1.5425-1.0401,2.4678-1.5674,2.5996l0.3633,1.4551
		c1.3232-0.3305,2.6963-1.9355,2.7041-4.0517c0-0.4458-0.1612-1.354-1.2393-2.4312c-1.7461-1.7446-1.9082-2.5893-1.5976-3.46
		c0.5459-1.5351,1.7558-1.5351,2.8476-1.4121c0.2539,0.0274,0.4209,0.0479,0.6035,0.001l-0.248-0.9975l0.0097-0.4747
		c-0.0468-0.0014-0.1152-0.0102-0.1992-0.0195c-0.8486-0.0947-3.4365-0.3838-4.4267,2.3999
		c-0.71,1.9927,0.5166,3.5918,1.9502,5.0239C39.9912,32.3203,40.2012,32.8252,40.2012,33.0986z"/>
	<path fill="#FFFFFF" d="M47.6396,33.0986c-0.0058,1.5425-1.041,2.4678-1.5664,2.5996l0.3633,1.4551
		c1.3223-0.3305,2.6953-1.9355,2.7031-4.0517c0-0.4478-0.1621-1.3589-1.2402-2.4317c-1.7461-1.7431-1.9062-2.5879-1.5947-3.4599
		c0.5439-1.5342,1.751-1.5352,2.8457-1.4117c0.2539,0.0284,0.4209,0.0474,0.6035,0.0015l-0.248-0.9995l0.0107-0.4732
		c-0.0478-0.0014-0.1162-0.0102-0.2012-0.0195c-0.8496-0.0957-3.4375-0.3828-4.4238,2.3989
		c-0.7139,1.9937,0.5137,3.5933,1.9492,5.0259C47.4287,32.3184,47.6396,32.8237,47.6396,33.0986z"/>
	<rect x="28.4746" y="74.249" fill="#FC6E51" width="43.0518" height="1.5"/>
</g>
</svg>
