<?xml version="1.0" encoding="utf-8"?>
<!-- Generator: Adobe Illustrator 17.1.0, SVG Export Plug-In . SVG Version: 6.00 Build 0)  -->
<!DOCTYPE svg PUBLIC "-//W3C//DTD SVG 1.1//EN" "http://www.w3.org/Graphics/SVG/1.1/DTD/svg11.dtd">
<svg version="1.1" id="deer" xmlns="http://www.w3.org/2000/svg" xmlns:xlink="http://www.w3.org/1999/xlink" x="0px" y="0px"
	 viewBox="0 0 100 100" enable-background="new 0 0 100 100" xml:space="preserve">
<circle id="deer-label" fill="#A0D468" cx="50" cy="50" r="50"/>
<g id="deer-shadow">
	<path fill="#8CC152" d="M99.1758,55.6875c-0.127-0.2637-0.2891-0.4512-0.4942-0.4941c-0.1269-0.2637-0.289-0.4512-0.4951-0.4952
		c-0.1269-0.2627-0.2881-0.4502-0.4951-0.4951c-0.1269-0.2627-0.2881-0.4502-0.4941-0.4941
		c-0.127-0.2637-0.2891-0.4502-0.4942-0.4942c-0.1269-0.2636-0.289-0.4502-0.4941-0.4941c-0.127-0.2637-0.2891-0.4512-0.4951-0.4951
		c-0.127-0.2627-0.2881-0.4502-0.4942-0.4942c-0.1269-0.2627-0.289-0.4502-0.4951-0.4951
		c-0.1269-0.2622-0.2881-0.4492-0.4941-0.4936c-0.127-0.2632-0.2891-0.4512-0.4942-0.4951
		c-0.1269-0.2632-0.289-0.4502-0.4951-0.4947c-0.126-0.2622-0.2881-0.4492-0.4932-0.4936c-0.1269-0.2632-0.289-0.4507-0.496-0.4951
		c-0.127-0.2627-0.2881-0.4502-0.4942-0.4947c-0.1269-0.2632-0.289-0.4502-0.4941-0.4946c-0.127-0.2627-0.2891-0.4502-0.4942-0.4941
		c-0.1269-0.2632-0.289-0.4502-0.4951-0.4947c-0.1269-0.2627-0.2881-0.4497-0.4941-0.4941
		c-0.128-0.2637-0.2891-0.4512-0.4951-0.4951c-0.127-0.2632-0.2891-0.4502-0.4942-0.4947c-0.1269-0.2626-0.289-0.4501-0.4941-0.4941
		c-0.127-0.2637-0.2891-0.4507-0.4951-0.4946c-0.127-0.2627-0.2881-0.4502-0.4942-0.4947c-0.1269-0.2631-0.289-0.4501-0.4951-0.4946
		c-0.127-0.2622-0.2881-0.4492-0.4941-0.4936c-0.127-0.2632-0.2891-0.4507-0.4942-0.4952c-0.1269-0.2631-0.289-0.4501-0.4941-0.4941
		c-0.127-0.2627-0.2891-0.4502-0.4942-0.4946c-0.1269-0.2632-0.289-0.4502-0.4961-0.4946c-0.1269-0.2632-0.288-0.4507-0.4941-0.4947
		c-0.1269-0.2632-0.2891-0.4502-0.4941-0.4946c-0.127-0.2632-0.2891-0.4502-0.4942-0.4946
		c-0.1269-0.2627-0.289-0.4497-0.4941-0.4942c-0.127-0.2632-0.2891-0.4507-0.4951-0.4946c-0.127-0.2632-0.2891-0.4502-0.4952-0.4941
		c-0.1269-0.2627-0.288-0.4498-0.4941-0.4942c-0.1269-0.2627-0.2891-0.4502-0.4941-0.4946
		c-0.127-0.2637-0.2891-0.4507-0.4942-0.4951c-0.1269-0.2632-0.289-0.4502-0.4951-0.4947
		c-0.1269-0.2627-0.2891-0.4502-0.4951-0.4941c-0.127-0.2632-0.2891-0.4507-0.4941-0.4946
		c-0.127-0.2632-0.2891-0.4502-0.4942-0.4947c-0.1269-0.2631-0.2891-0.4502-0.4941-0.4946
		c-0.127-0.2627-0.2891-0.4497-0.4942-0.4941c-0.1269-0.2632-0.289-0.4502-0.4961-0.4947
		c-0.1269-0.2627-0.2881-0.4502-0.4941-0.4941c-0.127-0.2632-0.2891-0.4507-0.4941-0.4951
		c-0.127-0.2627-0.2891-0.4502-0.4942-0.4942c-0.1269-0.2631-0.289-0.4502-0.4951-0.4946c-0.126-0.2632-0.2881-0.4502-0.4941-0.4946
		c-0.127-0.2627-0.2891-0.4502-0.4952-0.4942c-0.1269-0.2631-0.289-0.4506-0.4941-0.4946c-0.127-0.2632-0.2891-0.4507-0.4941-0.4946
		c-0.127-0.2627-0.2891-0.4497-0.4942-0.4942c-0.1269-0.2631-0.289-0.4501-0.4951-0.4946c-0.127-0.2632-0.2881-0.4507-0.4951-0.4946
		c-0.127-0.2632-0.2881-0.4502-0.4942-0.4946c-0.1269-0.2632-0.289-0.4502-0.4941-0.4947c-0.127-0.2627-0.2891-0.4497-0.4941-0.4941
		c-0.169-0.3496-0.3985-0.5718-0.709-0.4976c-0.7422,0.1748-0.4141,1.1905-0.3867,2.4414c0.041,1.7022-0.2627,2.3662-0.6797,2.9746
		c-0.6328,0.9234-1.5821,1.3575-2.3321,1.6158c-0.1474-0.2134-0.2988-0.3584-0.456-0.4366
		c-0.1602-0.2431-0.3233-0.4091-0.4942-0.4941c-0.1601-0.2436-0.3242-0.4097-0.4951-0.4946
		c-0.1601-0.2432-0.3242-0.4097-0.4941-0.4947c-0.1602-0.2431-0.3242-0.4096-0.4942-0.4946
		c-0.1601-0.2436-0.3242-0.4096-0.4951-0.4946c-0.1601-0.2432-0.3232-0.4092-0.4941-0.4942
		c-0.1602-0.2436-0.3242-0.4096-0.4951-0.4946c-0.1602-0.2436-0.3242-0.4096-0.4942-0.4946
		c-0.1601-0.2432-0.3242-0.4097-0.4941-0.4946c-0.1602-0.2432-0.3242-0.4092-0.4942-0.4942
		c-0.3261-0.4936-0.663-0.6992-1.0468-0.4717c-0.3672,0.2164-0.3438,0.6548-0.1504,1.2261
		c-0.0645-0.0625-0.1289-0.1108-0.1914-0.1553c-0.1729-0.2192-0.3379-0.3852-0.4961-0.4961
		c-0.1719-0.2177-0.3369-0.3833-0.4942-0.4931c-0.1718-0.2188-0.3369-0.3838-0.4941-0.4946
		c-0.1719-0.2188-0.3379-0.3848-0.4961-0.4952c-0.1709-0.2177-0.335-0.3828-0.4922-0.4931
		c-0.1719-0.2193-0.3379-0.3858-0.4961-0.4961c-0.1718-0.2183-0.3359-0.3838-0.4941-0.4937
		c-0.1719-0.2187-0.3369-0.3847-0.4942-0.4951c-0.1718-0.2183-0.3369-0.3838-0.4941-0.4941
		c-0.1719-0.2183-0.3379-0.3843-0.4951-0.4947c-0.1719-0.2182-0.3369-0.3837-0.4942-0.4941
		c-0.1728-0.2187-0.3369-0.3843-0.4951-0.4946c-0.1718-0.2188-0.3369-0.3848-0.4941-0.4951
		c-0.1719-0.2183-0.3379-0.3838-0.4942-0.4942c-0.4736-0.6006-0.8935-0.8262-1.2548-0.5239
		c-0.6607,0.5513,0.3857,1.8413,0.8213,2.6294c0.5136,0.9233,1.4453,2.6904,0.4541,3.6855c-0.4981,0.503-1.2998,0.5454-2.233,0.0469
		c-0.0488-0.0469-0.0957-0.0859-0.1425-0.126c-0.1768-0.1982-0.3409-0.3623-0.4947-0.4941
		c-0.1762-0.1983-0.3403-0.3618-0.4936-0.4942c-0.1763-0.1977-0.3399-0.3618-0.4937-0.4936
		c-0.1777-0.1997-0.3423-0.3648-0.497-0.4971c-0.1758-0.1968-0.3389-0.3598-0.4917-0.4917
		c-0.1778-0.1992-0.3423-0.3642-0.4966-0.4966c-0.626-0.7026-1.0987-1.0449-1.5069-0.6621
		c-0.601,0.5655,0.4405,1.8345,1.5567,3.1216c0.3379,0.3892,0.6577,0.7276,0.977,1.0278c0.1661,0.1768,0.3306,0.3399,0.4937,0.4937
		c0.1665,0.1772,0.3315,0.3408,0.4951,0.4951c0.167,0.1778,0.3325,0.3428,0.4971,0.4971c0.166,0.1767,0.3301,0.3393,0.4931,0.4932
		c0.1651,0.1752,0.3287,0.3378,0.4908,0.4907c0.1684,0.1792,0.3349,0.3447,0.5005,0.5005c0.1645,0.1748,0.3276,0.3369,0.4892,0.4892
		c0.168,0.1778,0.332,0.3418,0.4961,0.4966c0.166,0.1758,0.3301,0.3384,0.4922,0.4917c0.168,0.1782,0.334,0.3438,0.498,0.499
		c0.167,0.1768,0.3311,0.3399,0.4942,0.4937c0.1679,0.1777,0.332,0.3418,0.4961,0.4961c0.166,0.1753,0.3281,0.3369,0.4902,0.4897
		c0.166,0.1768,0.3311,0.3403,0.4941,0.4942c0.169,0.1801,0.336,0.3461,0.502,0.5024c0.166,0.1753,0.3281,0.3374,0.4902,0.4897
		c0.1661,0.1763,0.3301,0.3389,0.4922,0.4922c0.166,0.1763,0.3301,0.3389,0.4922,0.4922c0.168,0.1797,0.3359,0.3457,0.501,0.5015
		c0.165,0.1758,0.3291,0.3384,0.4922,0.4917c0.167,0.1777,0.332,0.3418,0.4961,0.4961c0.166,0.1762,0.33,0.3393,0.4931,0.4927
		c0.1651,0.1762,0.3282,0.3388,0.4922,0.4917c0.166,0.1767,0.3301,0.3403,0.4922,0.4936c0.168,0.1792,0.335,0.3442,0.5,0.5
		c0.167,0.1777,0.332,0.3418,0.4961,0.4966c0.166,0.1763,0.3301,0.3389,0.4941,0.4922c0.1641,0.1748,0.3262,0.3359,0.4864,0.4878
		c0.1689,0.1792,0.3359,0.3452,0.5009,0.5009c0.1651,0.1758,0.3291,0.3389,0.4922,0.4917c0.168,0.1788,0.334,0.3443,0.4991,0.4991
		c0.166,0.1762,0.3291,0.3383,0.4921,0.4917c0.1661,0.1772,0.3311,0.3413,0.4942,0.4951c0.165,0.1753,0.3281,0.3364,0.4902,0.4888
		c-0.6045,1.2646-1.4746,2.5239-2.8193,3.5346c-0.8906,0.669-2.1758,1.4014-4.002,1.9917l0.1416,0.7442
		c-0.0683,0.0131-0.1523,0.0293-0.2519,0.0483c-0.0586-0.3032-0.0967-0.5063-0.1084-0.5688
		c-0.0694,0.0136-0.2061,0.0395-0.3867,0.0742c-0.0577-0.3033-0.0967-0.5059-0.1084-0.5684
		c-0.542,0.104-4.9493,0.9424-5.4922,1.0464c0.0205,0.1055,0.1152,0.603,0.2558,1.3457c-0.0957,0.0039-0.1826,0.0088-0.2588,0.0117
		l-0.0976-0.5137c-0.1597,0.0088-0.2847,0.0147-0.397,0.0196l-0.0976-0.5142c-0.4097,0.0225-0.625,0.0303-0.8428,0.0342
		c-5.1694,0.1274-8.9111-1.04-12.0894,0.6997c-0.0879-0.0908-0.1909-0.1748-0.2929-0.2588
		c-0.1412-0.1714-0.3047-0.3374-0.4937-0.4941c-0.1421-0.1719-0.3061-0.3394-0.4966-0.4966
		c-0.1411-0.1704-0.3037-0.3359-0.4926-0.4922c-0.1416-0.1714-0.3052-0.3384-0.4952-0.4956
		c-0.4033-0.4873-0.977-0.9936-1.8256-1.0835c-2.7115-0.2817-4.2139-0.5762-4.2251-0.0225
		c-0.0049,0.2579,0.2197,0.4576,0.5224,0.6514c0.0664,0.1851,0.2559,0.3418,0.4942,0.4942
		c0.0664,0.1855,0.2558,0.3422,0.4951,0.4951c0.0664,0.185,0.2558,0.3418,0.4941,0.4941c0.0664,0.1856,0.2559,0.3418,0.4946,0.4946
		c0.0664,0.1851,0.2559,0.3418,0.4942,0.4942c0.0664,0.1855,0.2558,0.3418,0.4946,0.4941c0.0664,0.1856,0.2559,0.3428,0.4946,0.4951
		c0.0669,0.1856,0.2559,0.3418,0.4942,0.4952c0.0268,0.0732,0.0762,0.1425,0.1367,0.2089c0.2021,0.3106,0.4092,0.625,0.6143,0.9336
		l-0.168,1.4883c-0.5039,1.7881-0.2749,3.5645-0.2749,3.5645s0.1621,4.2236,0.2964,7.0351c0.0879,1.8594-2.3062,2.2559-3.625,2.3848
		c-1.3199,0.1269-1.5171,0.9707-1.7935,1.5683c-0.52,1.1114-0.6758,1.6465-1.7412,3.0977
		c-0.6465,0.8809-1.2266,1.5361-1.6069,1.9424l1.3149,2.4502c-0.0283-0.001-0.0674-0.001-0.1025-0.002l-0.2627-0.4883
		c-0.0459-0.0019-0.128-0.0039-0.2315-0.0058l-0.2627-0.4893c-0.0459-0.0019-0.1284-0.0039-0.2319-0.0049l-0.2627-0.4902
		c-0.0464-0.0019-0.1284-0.0039-0.2319-0.0049l-0.2627-0.4892c-0.1167-0.0049-0.4097-0.0117-0.9302,0
		c-0.9131,0.0215-1.3276,0.8066-1.3276,0.8066l-1.3467,1.9766l0.8901-0.086l-0.3955,0.5801l0.8902-0.0859l-0.3956,0.5801
		l0.5054-0.0489l-0.4912,0.8555c0,0,0.3262,0.002,0.7847-0.0117l-0.2906,0.5068c0,0,0.3267,0.001,0.7857-0.0127l-0.2905,0.5069
		c0,0,0.3261,0.0009,0.7851-0.0118l-0.291,0.5069c0,0,0.3267,0.0019,0.7852-0.0117l-0.2906,0.5058c0,0,0.3262,0.002,0.7852-0.0117
		l-0.2905,0.5059c0,0,0.3261,0.0019,0.7851-0.0118l-0.2905,0.5059c0,0,0.3262,0.0019,0.7851-0.0117l-0.291,0.5068
		c0,0,0.3262,0.001,0.7852-0.0117l-0.291,0.5068c0,0,0.3266,0.001,0.7861-0.0127l-0.291,0.5069c0,0,0.3262,0.0019,0.7847-0.0117
		l-0.2906,0.5058c0,0,0.3267,0.002,0.7852-0.0117l-0.2905,0.5059c0,0,0.3266,0.0019,0.7856-0.0118l-0.291,0.5078
		c0,0,0.3266,0.001,0.7856-0.0136l-0.291,0.5078c0,0,0.3262,0.001,0.7847-0.0127l-0.2905,0.5068c0,0,0.3266,0.001,0.7856-0.0127
		l-0.291,0.5069c0,0,0.3266,0.0019,0.7851-0.0118l-0.2905,0.5059c0,0,0.3267,0.002,0.7852-0.0117l-0.2906,0.5068
		c0,0,0.3267,0.001,0.7852-0.0127l-0.2905,0.5078c0,0,0.3261,0.002,0.7846-0.0117l-0.2905,0.5059c0,0,0.3267,0.001,0.7857-0.0127
		l-0.2911,0.5068c0,0,0.3262,0.002,0.7847-0.0117l-0.2905,0.5059c0,0,0.3266,0.0019,0.7861-0.0118l-0.291,0.5069
		c0,0,0.3262,0.001,0.7852-0.0127l-0.2911,0.5078c0,0,0.3262,0.001,0.7847-0.0127l-0.2905,0.5068c0,0,0.3266,0.001,0.7856-0.0127
		l-0.2905,0.5069c0,0,0.3262,0.0019,0.7852-0.0117l-0.2911,0.5058c0,0,0.3267,0.002,0.7852-0.0117l-0.2905,0.5059
		c0,0,0.3266,0.0019,0.7856-0.0118l-0.291,0.5069c0,0,0.3262,0.001,0.7852-0.0127l-0.2906,0.5078c0,0,0.3262,0.0019,0.7847-0.0117
		l-0.2905,0.5058c0,0,0.3261,0.002,0.7851-0.0117l-0.2905,0.5059c0,0,0.3267,0.0019,0.7856-0.0117l-0.291,0.5058
		c0,0,0.3267,0.002,0.7852-0.0117l-0.2905,0.5068c0,0,0.3261,0.001,0.7851-0.0127l-0.291,0.5079c0,0,0.3267,0.0009,0.7856-0.0127
		l-0.2905,0.5068c0,0,0.3262,0.001,0.7852-0.0127l-0.291,0.5068c0,0,0.3261,0.002,0.7851-0.0117l-0.291,0.5059
		c0,0,0.3267,0.0019,0.7856-0.0117l-0.2905,0.5058c0,0,0.3262,0.002,0.7852-0.0117l-0.291,0.5068c0,0,0.3261,0.001,0.7851-0.0127
		l-0.1934,0.3379C44.8652,99.8027,47.4092,100,49.999,100c25.5479,0,46.6065-19.165,49.6172-43.9004
		C99.498,55.8867,99.3555,55.7266,99.1758,55.6875z M27.3457,77.7012l-0.0317-0.0586c0.02-0.0235,0.042-0.0489,0.0625-0.0723
		l0.0713,0.1328C27.4194,77.7031,27.3809,77.7021,27.3457,77.7012z M27.8403,78.1963l-0.0317-0.0586
		c0.02-0.0234,0.042-0.0498,0.0625-0.0732l0.0713,0.1328C27.9146,78.1973,27.8755,78.1973,27.8403,78.1963z M28.335,78.6914
		l-0.0318-0.0586c0.02-0.0234,0.0415-0.0488,0.0625-0.0742l0.0713,0.1338C28.4087,78.6914,28.3696,78.6914,28.335,78.6914z
		 M28.8291,79.1855l-0.0317-0.0585c0.02-0.0235,0.042-0.0489,0.0625-0.0743l0.0717,0.1338
		C28.9033,79.1855,28.8643,79.1855,28.8291,79.1855z M29.3237,79.6797l-0.0317-0.0586c0.02-0.0234,0.0415-0.0488,0.0625-0.0732
		l0.0718,0.1337C29.3979,79.6807,29.3589,79.6807,29.3237,79.6797z M29.8184,80.1738l-0.0318-0.0586
		c0.02-0.0234,0.042-0.0488,0.0625-0.0722l0.0713,0.1328C29.8926,80.1758,29.8535,80.1748,29.8184,80.1738z M30.313,80.6689
		l-0.0317-0.0585c0.02-0.0235,0.0419-0.0499,0.0625-0.0733l0.0717,0.1328C30.3872,80.6699,30.3481,80.6699,30.313,80.6689z
		 M30.8071,81.1641l-0.0317-0.0586c0.02-0.0235,0.042-0.0498,0.0625-0.0743l0.0718,0.1329
		C30.8813,81.1641,30.8423,81.1641,30.8071,81.1641z M31.3018,81.6582L31.27,81.5996c0.02-0.0234,0.0415-0.0488,0.062-0.0742
		l0.0718,0.1338C31.3755,81.6582,31.3364,81.6582,31.3018,81.6582z M31.7964,82.1523l-0.0318-0.0586
		c0.0201-0.0234,0.0416-0.0488,0.0621-0.0732l0.0717,0.1338C31.8701,82.1533,31.8315,82.1523,31.7964,82.1523z M32.2905,82.6465
		l-0.0312-0.0586c0.0195-0.0234,0.0415-0.0488,0.062-0.0723l0.0718,0.1328C32.3647,82.6475,32.3257,82.6475,32.2905,82.6465z
		 M32.7856,83.1416l-0.0317-0.0596c0.0195-0.0234,0.0415-0.0488,0.062-0.0722l0.0718,0.1328
		C32.8594,83.1426,32.8203,83.1426,32.7856,83.1416z M33.2798,83.6367l-0.0318-0.0596c0.0201-0.0234,0.042-0.0498,0.0625-0.0732
		l0.0718,0.1328C33.354,83.6367,33.3149,83.6367,33.2798,83.6367z M33.7744,84.1309l-0.0317-0.0586
		c0.02-0.0235,0.0415-0.0489,0.0625-0.0743l0.0713,0.1338C33.8481,84.1309,33.8091,84.1309,33.7744,84.1309z M34.269,84.625
		l-0.0317-0.0586c0.0195-0.0234,0.0415-0.0488,0.062-0.0732l0.0713,0.1338C34.3428,84.625,34.3037,84.625,34.269,84.625z
		 M34.7632,85.1191l-0.0318-0.0586c0.0201-0.0234,0.042-0.0488,0.0625-0.0722l0.0718,0.1328
		C34.8374,85.1201,34.7983,85.1201,34.7632,85.1191z M35.2573,85.6133l-0.0312-0.0586c0.02-0.0235,0.0415-0.0488,0.0625-0.0723
		l0.0713,0.1328C35.3315,85.6152,35.2925,85.6143,35.2573,85.6133z M35.7524,86.1084l-0.0317-0.0586
		c0.02-0.0234,0.042-0.0498,0.0625-0.0732l0.0718,0.1328C35.8267,86.1094,35.7876,86.1094,35.7524,86.1084z M36.2466,86.6035
		l-0.0313-0.0586c0.0196-0.0234,0.0415-0.0488,0.0625-0.0742l0.0713,0.1328C36.3208,86.6035,36.2817,86.6035,36.2466,86.6035z
		 M36.7417,87.0977L36.71,87.0381c0.0195-0.0225,0.0415-0.0479,0.062-0.0733l0.0713,0.1338
		C36.8154,87.0977,36.7764,87.0977,36.7417,87.0977z M37.2358,87.5918l-0.0312-0.0586c0.0195-0.0234,0.0415-0.0488,0.062-0.0732
		l0.0718,0.1337C37.3101,87.5928,37.271,87.5928,37.2358,87.5918z M37.73,88.0859l-0.0313-0.0576
		c0.0196-0.0234,0.0415-0.0498,0.062-0.0732l0.0718,0.1328C37.8042,88.0879,37.7651,88.0869,37.73,88.0859z M38.2251,88.5811
		l-0.0317-0.0596c0.02-0.0235,0.0415-0.0488,0.0625-0.0723l0.0717,0.1328C38.2993,88.582,38.2603,88.582,38.2251,88.5811z
		 M38.7192,89.0762l-0.0317-0.0586c0.02-0.0235,0.042-0.0489,0.0625-0.0742l0.0718,0.1328
		C38.7935,89.0762,38.7539,89.0762,38.7192,89.0762z M39.2144,89.5703l-0.0318-0.0596c0.0195-0.0224,0.0415-0.0478,0.062-0.0732
		l0.0713,0.1338C39.2876,89.5703,39.249,89.5703,39.2144,89.5703z M39.7085,90.0645l-0.0317-0.0596
		c0.02-0.0225,0.0415-0.0488,0.062-0.0733l0.0722,0.1348C39.7827,90.0654,39.7437,90.0645,39.7085,90.0645z M40.2026,90.5586
		L40.1709,90.5c0.02-0.0234,0.042-0.0488,0.0625-0.0723l0.0713,0.1328C40.2769,90.5596,40.2378,90.5596,40.2026,90.5586z
		 M40.6978,91.0537l-0.0318-0.0596c0.0195-0.0234,0.0415-0.0488,0.062-0.0722l0.0718,0.1328
		C40.772,91.0547,40.7329,91.0547,40.6978,91.0537z M41.1919,91.5488l-0.0317-0.0605c0.02-0.0235,0.0415-0.0488,0.062-0.0723
		l0.0722,0.1328C41.2661,91.5488,41.2271,91.5488,41.1919,91.5488z M41.686,92.043l-0.0312-0.0586
		c0.0195-0.0235,0.0415-0.0489,0.0625-0.0742l0.0713,0.1337C41.7603,92.043,41.7212,92.043,41.686,92.043z M42.1812,92.5371
		l-0.0323-0.0586c0.02-0.0234,0.042-0.0488,0.0625-0.0742l0.0718,0.1348C42.2554,92.5381,42.2163,92.5371,42.1812,92.5371z
		 M42.6748,93.0312l-0.0312-0.0585c0.02-0.0235,0.0415-0.0489,0.0625-0.0733l0.0712,0.1338
		C42.749,93.0322,42.71,93.0312,42.6748,93.0312z M43.1694,93.5254l-0.0312-0.0586c0.02-0.0234,0.042-0.0488,0.0625-0.0723
		l0.0718,0.1328C43.2441,93.5264,43.2046,93.5264,43.1694,93.5254z M43.6646,94.0205l-0.0318-0.0586
		c0.02-0.0234,0.0415-0.0498,0.0625-0.0732l0.0718,0.1328C43.7388,94.0215,43.6997,94.0215,43.6646,94.0205z M44.1587,94.5156
		L44.127,94.457c0.02-0.0234,0.0419-0.0498,0.0629-0.0742l0.0713,0.1328C44.2329,94.5156,44.1938,94.5156,44.1587,94.5156z
		 M44.6533,95.0098l-0.0317-0.0586c0.02-0.0235,0.042-0.0489,0.0625-0.0742l0.0713,0.1337
		C44.7271,95.0098,44.688,95.0098,44.6533,95.0098z M45.1479,95.5039l-0.0322-0.0586c0.02-0.0234,0.042-0.0498,0.0625-0.0742
		l0.0723,0.1348C45.2222,95.5049,45.1831,95.5049,45.1479,95.5039z M45.6421,95.998l-0.0313-0.0585
		c0.0201-0.0235,0.042-0.0489,0.0625-0.0723L45.7446,96C45.7163,96,45.6772,95.999,45.6421,95.998z M46.1367,96.4932l-0.0317-0.0596
		c0.02-0.0234,0.042-0.0488,0.0625-0.0732l0.0722,0.1337C46.2114,96.4941,46.1719,96.4941,46.1367,96.4932z M46.6309,96.9873
		l-0.0313-0.0576c0.02-0.0235,0.042-0.0488,0.0625-0.0742l0.0718,0.1328C46.7056,96.9883,46.666,96.9883,46.6309,96.9873z
		 M47.126,97.4824l-0.0318-0.0586c0.0201-0.0234,0.042-0.0488,0.0625-0.0742l0.0713,0.1338
		C47.1997,97.4824,47.1611,97.4824,47.126,97.4824z M47.6206,97.9766l-0.0322-0.0586c0.02-0.0235,0.042-0.0489,0.0625-0.0743
		l0.0713,0.1348C47.6943,97.9766,47.6553,97.9766,47.6206,97.9766z M48.1143,98.4707l-0.0313-0.0586
		c0.02-0.0234,0.042-0.0488,0.0625-0.0732l0.0718,0.1338C48.189,98.4717,48.1499,98.4707,48.1143,98.4707z M48.6094,98.9648
		l-0.0318-0.0586c0.0201-0.0234,0.042-0.0488,0.0625-0.0722l0.0713,0.1328C48.6836,98.9668,48.6445,98.9658,48.6094,98.9648z
		 M49.104,99.4609l-0.0317-0.0595c0.02-0.0235,0.0415-0.0489,0.0625-0.0733l0.0717,0.1328
		C49.1782,99.4609,49.1392,99.4609,49.104,99.4609z M49.5981,99.9551l-0.0312-0.0586c0.0195-0.0235,0.0415-0.0488,0.0625-0.0742
		l0.0713,0.1328C49.6724,99.9551,49.6333,99.9551,49.5981,99.9551z"/>
</g>
<g id="deer-deer">
	<path fill="#FFFFFF" d="M21.5005,78.0176l1.3467-1.9766c0,0,0.4145-0.7851,1.3276-0.8066c0.5205-0.0117,0.8135-0.0049,0.9302,0
		l1.6435,3.0635c-0.0151,0.0156-0.0297,0.0341-0.0385,0.0429c-0.4405,0.4737-0.855,1.2608-2.0342,1.376
		c-1.0415,0.1035-2.1719,0.0957-2.1719,0.0957l1.1499-2.0029L21.5005,78.0176z"/>
	<path fill="#FFFFFF" d="M27.2456,72.8164c1.0654-1.4512,1.2212-1.9863,1.7412-3.0977c0.2764-0.5976,0.4736-1.4414,1.7935-1.5683
		c1.3188-0.1289,3.7129-0.5254,3.625-2.3848c-0.1343-2.8115-0.2964-7.0351-0.2964-7.0351s-0.229-1.7764,0.2749-3.5645l0.168-1.4883
		c-0.4009-0.6025-0.8116-1.2314-1.1714-1.8086c-1.0425-1.6743-1.7617-2.1953-2.7349-2.8139
		c-0.6118-0.3897-1.3315-0.6651-1.3227-1.128c0.0112-0.5537,1.5136-0.2592,4.2251,0.0225c0.958,0.1016,1.58,0.7354,1.9838,1.2715
		c0.3921,0.522,1.0484,1.3911,1.7159,2.2739c3.2636-2.0732,7.101-0.7915,12.4863-0.9243c0.2178-0.0039,0.4331-0.0117,0.8428-0.0342
		L53.124,63.917c-0.6552-0.0039-0.9931-0.044-1.3232-0.1006c-0.1563-0.0273-0.3106-0.0547-0.457-0.0898
		c-0.252-0.0567-0.4898-0.1104-0.7227-0.1651c-2.9815-0.6963-4.4741-1.167-6.6021-0.7373l-2.2363,5.3125
		c0,0-0.73,1.8926-3.0762,2.2598c-2.3457,0.3672-6.0766,0.9385-6.0766,0.9385s-3.918,4.6709-5.3941,6.3994l-1.5971-2.9756
		C26.019,74.3525,26.5991,73.6973,27.2456,72.8164z"/>
	<path fill="#FFFFFF" d="M44.8564,22.9277c0.6309-0.5918,1.4102,0.5357,2.6832,2.0762c1.7065,2.0635,3.3457,2.4609,4.1665,1.6323
		c0.9912-0.9951,0.0595-2.7622-0.4541-3.6855c-0.4356-0.7881-1.482-2.0781-0.8213-2.6294c0.5449-0.4556,1.2197,0.269,2.0166,1.7114
		c0.7998,1.4414,1.1718,2.5269,1.3652,4.8867c0.0791,0.9639,0.5371,1.5904,1.1885,2.292c0.876,0.9439,2.5869,2.1026,3.4736,2.5855
		c0.1621,0.0898,0.3281,0.1709,0.4961,0.2505c0.9014-1.4063,0.3877-2.7246-0.0449-3.7769c-0.3096-0.7471-0.4141-1.313,0.0254-1.5723
		c0.5986-0.3549,1.084,0.334,1.5859,1.5455c0.9238,2.2368,0.3457,3.8012,0.041,4.3916c1.5967,0.4238,3.2442,0.414,4.6973-0.0376
		c0.7656-0.253,1.7881-0.69,2.4551-1.6622c0.417-0.6084,0.7207-1.2724,0.6797-2.9746c-0.0274-1.2509-0.3555-2.2666,0.3867-2.4414
		c0.706-0.1684,1.0136,1.1534,1.0654,2.1675c0.0635,1.3174-0.0322,2.4087-0.4228,3.3067c-0.4668,1.0722-1.254,1.81-1.9571,2.2934
		l1.3535,3.0088c0.5039-0.0557,1.1075-0.0186,1.8018,0.21c2.1572,0.7133,5.0117,1.4106,6.2041,1.6391
		c1.1914,0.2305,1.7646,0.3706,1.6426,1.4903c-0.1114,0.9799-0.2481,1.958-1.9551,1.9082c-1.709-0.0494-3.2148,0.3418-3.9023,1.1816
		c-0.6856,0.8394-0.7735,2.6914-0.3243,3.98c0.4512,1.289,0.9561,2.6172-0.3476,4.6777c-1.1885,1.8809-3.1582,4.9688-3.1582,4.9688
		s-0.2637,0.4785-0.8262,1.1845c1.4141,0.2295,3.8359,0.6338,5.0459,0.8828c1.9961,0.4151,3.2803,2.2881,2.1631,4.419
		c-0.9785,1.8691-3.0957,6.0605-3.5996,7.0605l-1.2862-2.8554c0.1084-0.5489,0.3223-1.1153,0.5928-1.7334
		c0.6885-1.5869,1.5625-3.6065,1.5625-3.6065s-2.6777-0.041-5.7256,0.2178c-1.2265,0.1064-2.3515-0.1885-3.2568-0.5772
		c-0.5313,0.2872-1.1064,0.5586-1.7344,0.793c-0.1289,0.0508-0.2597,0.1035-0.3965,0.1543
		c-0.4785,0.1777-0.9492,0.3369-1.414,0.4883l-2.544-13.3677c1.8262-0.5903,3.1114-1.3227,4.002-1.9917
		c3.3974-2.5537,3.792-6.6958,4.4111-8.4917c0.124-0.3608,0.2539-0.6553,0.3848-0.897l-1.6299-3.6655
		c-0.2061,0.0191-0.3359,0.0205-0.3359,0.0205c-6.0537,0.4488-9.2276-3.1699-10.1924-4.083
		c-0.961-0.9131-1.4551-1.4809-2.8535-1.5786c-2.127-0.1455-3.2749-0.9736-4.751-2.6753
		C45.2969,24.7622,44.2554,23.4932,44.8564,22.9277z"/>
	<path fill="#FFFFFF" d="M71.3672,71.0049c-0.377,1.2392-1.5059,2.8974-1.5059,2.8974l-1.3437-2.9785l1.709-2.4414L71.3672,71.0049z
		"/>
	<path fill="#FC6E51" d="M59.3662,63.334c-0.542,0.1035-4.9482,0.9414-5.4922,1.0449c-0.1123-0.5977-2.5879-13.5933-2.7021-14.1914
		c0.5429-0.104,4.9502-0.9424,5.4922-1.0464C56.7773,49.7393,59.2539,62.7363,59.3662,63.334z"/>
	<g>
		<path fill="#FFCE54" d="M52.4355,51.8301c0.1485,0.789,0.9043,1.3027,1.6915,1.1543c0.7851-0.1504,1.3027-0.9082,1.1533-1.6973
			c-0.1494-0.7808-0.9092-1.2959-1.6944-1.1465C52.7988,50.291,52.2852,51.0488,52.4355,51.8301z"/>
		<path fill="#FFCE54" d="M53.4688,57.2598c0.1503,0.789,0.9033,1.3017,1.6933,1.1513c0.7852-0.1494,1.3027-0.9033,1.1524-1.6933
			c-0.1504-0.7871-0.9082-1.2959-1.6934-1.1475C53.834,55.7207,53.3193,56.4727,53.4688,57.2598z"/>
		<path fill="#FFCE54" d="M54.4258,62.3008c0.1523,0.791,0.9082,1.3047,1.6963,1.1562c0.7851-0.1504,1.3017-0.9082,1.1533-1.6972
			c-0.1504-0.7852-0.9102-1.2989-1.6953-1.1494C54.793,60.7617,54.2793,61.5176,54.4258,62.3008z"/>
	</g>
</g>
</svg>
