<?xml version="1.0" encoding="utf-8"?>
<!-- Generator: Adobe Illustrator 17.1.0, SVG Export Plug-In . SVG Version: 6.00 Build 0)  -->
<!DOCTYPE svg PUBLIC "-//W3C//DTD SVG 1.1//EN" "http://www.w3.org/Graphics/SVG/1.1/DTD/svg11.dtd">
<svg version="1.1" id="gift-pack" xmlns="http://www.w3.org/2000/svg" xmlns:xlink="http://www.w3.org/1999/xlink" x="0px" y="0px"
	 viewBox="0 0 100 100" enable-background="new 0 0 100 100" xml:space="preserve">
<circle id="gift-pack-label" fill="#FFCE54" cx="50" cy="50" r="50"/>
<g id="gift-pack-shadow">
	<path fill="#F6BB42" d="M98.9697,58.3662h-0.4951v-0.4951h-0.4941V57.377h-0.4942v-0.4942h-0.4951v-0.4951h-0.4951v-0.4941H96.002
		v-0.4952h-0.4942v-0.4941h-0.4941v-0.4941h-0.4951V53.915h-0.4942v-0.4941h-0.4951v-0.4951h-0.4941v-0.4942H92.54v-0.4941h-0.4941
		v-0.4951h-0.4941v-0.4942h-0.4952v-0.4951h-0.4941V49.959h-0.4941v-0.4942h-0.4952v-0.4941h-0.4941v-0.4951H88.585v-0.4942h-0.4952
		v-0.4941h-0.4941v-0.4951h-0.4951V46.498h-0.4942v-0.4941h-0.4951v-0.4951h-0.4941v-0.4942H85.123v-0.4951h-0.4941v-0.4941h-0.4951
		v-0.4942h-0.4951v-0.4951h-0.4942V42.542h-0.4941v-0.4951h-0.4941v-0.4942h-0.4942v-0.4941H81.167v-0.4951h-0.4951v-0.4942h-0.4942
		v-0.4951h-0.4941v-0.4941h-0.4951v-0.4942h-0.4942v-0.4951h-0.4951v-0.4941h-0.4941v-0.4942h-0.4942v-0.4951h-0.4941v-0.4941
		h-0.4951v-0.4951h-0.4942V35.124h-0.4951v-0.4941h-0.4941v-0.4942h-0.4942v-0.4951h-2.8398l-0.1621-0.4453l-0.2705,0.1221
		l-0.2237-0.6162l-0.2714,0.122l-0.2237-0.6162l-0.2705,0.1221l-0.2236-0.6172l-0.2705,0.1221l-0.2237-0.6172l-0.2705,0.123
		l-0.2246-0.6171L68.5,30.8447l-0.2246-0.6162l-0.2705,0.1221l-0.2236-0.6172l-0.2715,0.1221l-0.2237-0.6162l-0.2705,0.122
		l-0.2246-0.6162l-0.2695,0.1221L66.2969,28.25l-0.2705,0.123l-0.2237-0.6171l-0.2705,0.122l-0.2236-0.6162l-0.2705,0.1221
		l-0.2246-0.6172l-0.2705,0.1221l-0.2237-0.6162l-0.2705,0.123l-0.2246-0.6172l-0.2695,0.1221l-0.2246-0.6172l-2.5156,1.1377
		l0.2421-0.4648h-0.7509l0.2568-0.4942h-0.752l0.2579-0.4951h-0.752l0.2568-0.4941h-0.7519l0.2578-0.4952h-0.752l0.2569-0.4941
		h-0.752l0.2578-0.4941h-0.7519l0.2578-0.4942h-0.7519L57.1016,22H42.6587l5.5122,9.8037l-0.0762-0.0342l-0.1753-0.3506
		l-0.3203-0.1445l-0.1743-0.3496l-0.3193-0.1445l-0.1748-0.3496l-0.3199-0.1446l-0.1748-0.3506l-0.3203-0.1445l-0.1743-0.3496
		L36.75,25.2832l-2.6274,7.2236h0.6748l-0.1802,0.4952h0.6743l-0.1797,0.4941h0.6738l-0.0527,0.1445h-9.9766v9.2559h0.4947v0.4951
		h0.4941v0.4941h0.4946v0.4942h0.4947v0.0185h-0.1948V78h0.4946v0.4951h0.4946v0.4932h0.4941v0.4951h0.4947v0.4941h0.4946v0.4952
		h0.4946v0.4941h0.4947v0.4951h0.4941v0.4942h0.4946v0.4941h0.4942v0.4951h0.4946v0.4942h0.4946v0.4941h0.4942v0.4951h0.4946v0.4942
		h0.4946v0.4951h0.4947v0.4941h0.4946v0.4941h0.4941v0.4952h0.4947v0.4941h0.4946v0.4941h0.4946v0.4952h0.4946v0.4941h0.4942v0.4941
		h0.4951v0.4952h0.4941v0.4951h0.4947v0.4941h0.4946v0.4942h0.4941v0.4941h0.4942v0.4951h0.4946v0.4942h0.4946v0.4951h0.4942v0.4941
		h0.4951v0.4942h0.4941v0.4951h0.4947v0.4941h0.4946v0.4951h0.4941v0.4942h0.4952v0.4941h0.4941v0.4942h0.4946v0.4951h0.4947v0.4951
		h0.4941v0.4941h0.4951v0.4942h0.4942v0.4951h0.4946v0.2363C49.8618,99.9951,49.9307,100,50,100
		c24.5879,0,45.0166-17.7539,49.2012-41.1396h-0.2315V58.3662z"/>
</g>
<g id="gift-pack-gift-pack">
	<polygon fill="#FC6E51" points="48.5659,32.5068 42.6587,22 57.1016,22 51.6328,32.5068 	"/>
	<polygon fill="#FC6E51" points="47.4722,32.5068 45.9414,29.4414 36.75,25.2832 34.1226,32.5068 	"/>
	<polygon fill="#FC6E51" points="52.6035,32.5068 54.1396,29.4414 63.3301,25.2832 65.9551,32.5068 	"/>
	<rect x="25.7563" y="33.6406" fill="#FFFFFF" width="17.6949" height="9.2559"/>
	<rect x="56.5508" y="33.6406" fill="#FFFFFF" width="17.6933" height="9.2559"/>
	<rect x="27.5396" y="44.3984" fill="#FFFFFF" width="15.9116" height="33.6016"/>
	<rect x="56.5508" y="44.3984" fill="#FFFFFF" width="16.0683" height="33.6016"/>
	<rect x="45.4966" y="33.6406" fill="#FC6E51" width="9.2534" height="9.2559"/>
	<rect x="45.4966" y="44.3984" fill="#FC6E51" width="9.2534" height="33.6016"/>
</g>
</svg>
