<?xml version="1.0" encoding="utf-8"?>
<!-- Generator: Adobe Illustrator 17.1.0, SVG Export Plug-In . SVG Version: 6.00 Build 0)  -->
<!DOCTYPE svg PUBLIC "-//W3C//DTD SVG 1.1//EN" "http://www.w3.org/Graphics/SVG/1.1/DTD/svg11.dtd">
<svg version="1.1" id="gingerbread" xmlns="http://www.w3.org/2000/svg" xmlns:xlink="http://www.w3.org/1999/xlink" x="0px"
	 y="0px" viewBox="0 0 100 100" enable-background="new 0 0 100 100" xml:space="preserve">
<circle id="gingerbread-label" fill="#AC92EC" cx="50" cy="50" r="50"/>
<g id="gingerbread-shadow">
	<path fill="#967ADC" d="M97.2217,62.7725c-0.1592-0.17-0.3242-0.334-0.4932-0.4932c-0.1601-0.1709-0.3252-0.335-0.4951-0.4951
		c-0.1602-0.1699-0.3242-0.334-0.4941-0.4942c-0.1602-0.1699-0.3243-0.3349-0.4942-0.4951
		c-0.1611-0.1699-0.3262-0.3349-0.4971-0.4961c-0.1591-0.1689-0.3222-0.332-0.4912-0.4912
		c-0.1601-0.1699-0.3252-0.3349-0.4951-0.4961c-0.1601-0.1689-0.3242-0.334-0.4941-0.4931
		c-0.1602-0.1709-0.3252-0.336-0.4961-0.4961c-0.1602-0.17-0.3242-0.334-0.4942-0.4942c-0.1601-0.1709-0.3252-0.3359-0.496-0.4961
		c-0.1592-0.1689-0.3233-0.333-0.4922-0.4922c-0.1602-0.1699-0.3252-0.3349-0.4952-0.4951
		c-0.1591-0.1689-0.3222-0.333-0.4912-0.4922c-0.1621-0.1718-0.3281-0.3379-0.5-0.5c-0.1582-0.167-0.3203-0.33-0.4882-0.4882
		c-0.1622-0.1719-0.3301-0.3399-0.502-0.502c-0.1582-0.168-0.3213-0.3301-0.4893-0.4883C88.1641,53.7041,88,53.54,87.8311,53.3799
		c-0.1631-0.1719-0.3311-0.3399-0.504-0.502c-0.1582-0.1679-0.3203-0.331-0.4882-0.4892c-0.1612-0.17-0.3262-0.335-0.4961-0.4961
		c-0.1602-0.169-0.3242-0.333-0.4942-0.4932c-0.1591-0.1689-0.3222-0.333-0.4912-0.4922c-0.1621-0.1718-0.3281-0.3379-0.5-0.499
		c-0.1592-0.1689-0.3232-0.333-0.4922-0.4922c-0.1601-0.1699-0.3242-0.3349-0.4941-0.4941
		c-0.1602-0.1699-0.3252-0.335-0.4951-0.4951c-0.1602-0.17-0.3242-0.334-0.4942-0.4942c-0.1591-0.1689-0.3232-0.333-0.4922-0.4931
		c-0.1611-0.1709-0.3271-0.337-0.499-0.4981c-0.1592-0.1689-0.3232-0.333-0.4922-0.4922c-0.1611-0.1709-0.3261-0.3359-0.497-0.4971
		c-0.1582-0.1669-0.3194-0.3291-0.4873-0.4873c-0.1612-0.1709-0.3262-0.3369-0.4971-0.498c-0.1621-0.1719-0.3291-0.3389-0.501-0.501
		c-0.1592-0.1689-0.3242-0.333-0.4931-0.4922c-0.1583-0.1679-0.3213-0.331-0.4893-0.4892c-0.1611-0.1709-0.3262-0.336-0.4971-0.4971
		c-0.1582-0.168-0.3213-0.3311-0.4892-0.4893c-0.1621-0.1728-0.3291-0.3398-0.502-0.5029c-0.1601-0.1699-0.3242-0.334-0.4941-0.4941
		c-0.1602-0.1699-0.3252-0.334-0.4951-0.4942c-0.1582-0.1679-0.3213-0.331-0.4893-0.4902
		c-0.1611-0.1699-0.3262-0.3359-0.4971-0.4961c-0.1592-0.1689-0.3222-0.332-0.4912-0.4912c-0.1621-0.1729-0.3281-0.3389-0.501-0.501
		c-0.1591-0.1699-0.3232-0.333-0.4921-0.4922c-0.1602-0.1699-0.3243-0.334-0.4932-0.4941c-0.1602-0.169-0.3242-0.334-0.4942-0.4932
		c-0.1601-0.1699-0.3242-0.334-0.4931-0.4941c-0.1611-0.1709-0.3272-0.3369-0.4981-0.4981
		c-0.1591-0.1679-0.3222-0.332-0.4912-0.4912c-0.1611-0.1709-0.3281-0.3369-0.499-0.499c-0.1592-0.168-0.3223-0.332-0.4912-0.4912
		c-0.1602-0.169-0.3242-0.334-0.4941-0.4932c-0.1602-0.1709-0.3252-0.3359-0.4961-0.4961
		c-0.1602-0.1699-0.3243-0.3339-0.4942-0.4941c-0.1601-0.1699-0.3242-0.335-0.4941-0.4951
		c-0.1602-0.1699-0.3252-0.334-0.4951-0.4942c-0.1592-0.1689-0.3233-0.333-0.4922-0.4921c-0.1621-0.1719-0.3282-0.3389-0.501-0.501
		c-0.1572-0.167-0.3203-0.3291-0.4873-0.4873c-0.1611-0.1709-0.3262-0.336-0.4971-0.4971c-0.1601-0.1699-0.3242-0.335-0.4941-0.4951
		c-0.1602-0.1699-0.3252-0.334-0.4951-0.4942c-0.1602-0.1699-0.3243-0.3339-0.4942-0.4941
		c-0.1601-0.1699-0.3252-0.335-0.4951-0.4951c-0.1592-0.1699-0.3242-0.334-0.4941-0.4942c-0.1612-0.1709-0.3262-0.3359-0.4971-0.497
		c-0.1582-0.168-0.3213-0.3311-0.4893-0.4893c-0.1621-0.1719-0.3281-0.3389-0.5009-0.501c-0.1573-0.167-0.3204-0.33-0.4873-0.4873
		c-0.1612-0.1709-0.3272-0.3369-0.4981-0.498c-0.1601-0.1699-0.3242-0.334-0.4941-0.4942
		c-0.1602-0.1699-0.3243-0.3349-0.4942-0.4951c-0.1601-0.1699-0.3252-0.334-0.4951-0.4941
		c-0.1601-0.1699-0.3242-0.334-0.4941-0.4942c-0.1602-0.1699-0.3243-0.3349-0.4942-0.4951C56.0107,21.4307,52.9775,20,49.6074,20
		c-6.4844,0-11.7597,5.2744-11.7597,11.7627c0,1.9873,0.5205,3.9687,1.5087,5.7275c-0.0087-0.0156-0.1191-0.3613-0.1269-0.3769
		l0.5898,1.2012c0.084,0.0849,0.1748,0.1757,0.1748,0.1757c-0.0019,0-0.0039,0-0.0039,0c0,0.0108,0.3145,0.461,0.3145,0.461
		c0.1123,0.1865,0.165,0.3965,0.165,0.6181c0,0.5645-0.3486,1.2207-1.0781,1.9102c-0.0039,0.0039-9.1572,7.3096-9.1572,7.3096
		c-0.9356,0.6884-2.335,2.3662-2.335,4.5302c0,0.6787,0.1348,1.4063,0.4707,2.168c0.4463,1.0147,1.0166,1.7539,1.6309,2.2891
		c0.1611,0.1816,0.3261,0.3486,0.497,0.497c0.1602,0.1797,0.3243,0.3457,0.4932,0.4932c0.1592,0.1787,0.3233,0.3447,0.4912,0.4912
		c0.1621,0.1826,0.3291,0.3516,0.5,0.501c0.1602,0.1787,0.3233,0.3447,0.4922,0.4912c0.1602,0.1797,0.3252,0.3467,0.4942,0.4941
		c0.1611,0.1807,0.3261,0.3477,0.4951,0.4961c0.1611,0.1797,0.3261,0.3467,0.4951,0.4942c0.1592,0.1787,0.3223,0.3447,0.4902,0.4902
		c0.1631,0.1826,0.3291,0.3516,0.5,0.5c0.1592,0.1787,0.3233,0.3447,0.4912,0.4912c0.1612,0.1807,0.3262,0.3487,0.4961,0.4961
		c0.1602,0.1797,0.3252,0.3467,0.4942,0.4942c0.1611,0.1806,0.3261,0.3476,0.4951,0.4951c0.1543,0.1728,0.3125,0.333,0.4736,0.4756
		c-1.6181,3.1875-3.3242,6.2529-3.3545,6.3056c-0.0976,0.2256-1.1572,2.8867-0.1465,5.2403
		c0.2998,0.6953,0.752,1.2753,1.3243,1.7597c0.1523,0.1719,0.3115,0.3389,0.4902,0.4903c0.1543,0.1748,0.3154,0.3437,0.4971,0.497
		c0.1533,0.1739,0.3134,0.3418,0.4941,0.4942c0.1533,0.1738,0.3145,0.3418,0.4941,0.4941c0.1534,0.1738,0.3145,0.3418,0.4952,0.4951
		c0.1533,0.1739,0.3134,0.3418,0.4941,0.4942c0.1533,0.1738,0.3135,0.3418,0.4941,0.4941c0.1534,0.1738,0.3145,0.3418,0.4952,0.4951
		c0.1533,0.1739,0.3134,0.3418,0.4941,0.4942c0.1533,0.1738,0.3145,0.3418,0.4951,0.4951c0.1533,0.1738,0.3135,0.3418,0.4942,0.4941
		c0.1533,0.1738,0.3134,0.3418,0.4941,0.4942c0.1533,0.1738,0.3145,0.3418,0.4951,0.4951c0.1533,0.1738,0.3145,0.3418,0.4951,0.4941
		c0.1534,0.1738,0.3135,0.3418,0.4932,0.4942c0.1533,0.1738,0.3144,0.3418,0.4951,0.4951c0.1533,0.1738,0.3135,0.3418,0.4942,0.4941
		c0.1533,0.1738,0.3144,0.3418,0.4951,0.4951c0.1533,0.1739,0.3134,0.3418,0.4941,0.4942c0.1533,0.1738,0.3145,0.3418,0.4942,0.4941
		c0.1533,0.1738,0.3144,0.3418,0.4951,0.4951c0.1533,0.1739,0.3134,0.3418,0.4941,0.4942c0.1533,0.1738,0.3145,0.3418,0.4942,0.4951
		c0.1533,0.1728,0.3134,0.3408,0.4931,0.4932c0.1543,0.1748,0.3154,0.3427,0.4971,0.496c0.1533,0.1739,0.3135,0.3409,0.4931,0.4942
		c0.1543,0.1738,0.3145,0.3418,0.4952,0.4941c0.1533,0.1739,0.3134,0.3418,0.4941,0.4942c0.1533,0.1738,0.3145,0.3427,0.4951,0.4951
		c0.1533,0.1738,0.3135,0.3408,0.4932,0.4932c0.1543,0.1748,0.3144,0.3427,0.4961,0.496c0.1533,0.1739,0.3135,0.3418,0.4941,0.4942
		c0.1533,0.1738,0.3135,0.3418,0.4942,0.4941c0.1533,0.1739,0.3144,0.3418,0.4941,0.4951c0.1533,0.1729,0.3145,0.3409,0.4941,0.4932
		c0.1543,0.1748,0.3155,0.3428,0.4961,0.4951c0.1524,0.1739,0.3125,0.3408,0.4922,0.4932c0.1543,0.1748,0.3155,0.3437,0.4971,0.4971
		c0.1533,0.1738,0.3135,0.3418,0.4941,0.4941c0.1534,0.1738,0.3135,0.3418,0.4942,0.4941c0.1523,0.1729,0.3135,0.3409,0.4931,0.4932
		c0.1543,0.1748,0.3155,0.3428,0.4961,0.4961c0.1045,0.1182,0.2227,0.2275,0.3379,0.3369
		c20.0469-2.5332,36.3858-16.9277,41.7705-35.9385c-0.125-0.1289-0.2509-0.2578-0.3818-0.3818
		C97.5566,63.0967,97.3916,62.9326,97.2217,62.7725z"/>
</g>
<g id="gingerbread-gingerbreas">
	<path fill="#7D6959" d="M69.7324,48.7559c0.0059,0.0117,0.0244,0.0185,0.0313,0.0332L58.751,40.0332
		c-0.2647-0.2891-0.3115-0.46-0.3135-0.46c0.0518-0.0449,0.1582-0.2158,0.2578-0.3808c1.749-2.1309,2.6738-4.7041,2.6738-7.4297
		C61.3691,25.2744,56.0957,20,49.6074,20c-6.4844,0-11.7597,5.2744-11.7597,11.7627c0,1.9873,0.5205,3.9687,1.5087,5.7275
		c-0.0087-0.0156-0.1191-0.3613-0.1269-0.3769l0.5898,1.2012c0.084,0.0849,0.1748,0.1757,0.1748,0.1757c-0.0019,0-0.0039,0-0.0039,0
		c0,0.0108,0.3145,0.461,0.3145,0.461c0.1123,0.1865,0.165,0.3965,0.165,0.6181c0,0.5645-0.3486,1.2207-1.0781,1.9102
		c-0.0039,0.0039-9.1572,7.3096-9.1572,7.3096c-0.9356,0.6884-2.335,2.3662-2.335,4.5302c0,0.6787,0.1348,1.4063,0.4707,2.168
		c1.4756,3.3555,4.3008,3.7344,5.5899,3.4717c0.0781-0.0195,0.1523-0.0361,0.2216-0.0723l4.583-2.0957
		c0.2686-0.0703,1.1192-0.166,1.4151,0.127c0.2217,0.2177,0.3183,0.9082-0.0586,2.1914c-0.9404,3.1533-6.0234,12.2812-6.0762,12.373
		c-0.0976,0.2256-1.1572,2.8867-0.1465,5.2403c0.5391,1.249,1.5205,2.164,2.9356,2.7187c4.3486,1.7188,6.6445-0.8838,7.998-2.9844
		c0.0323-0.0478,0.0616-0.1045,0.0821-0.1572l3.2754-7.8623c0.041-0.0967,0.332-0.7246,1.8154-0.8828
		c1.4717,0.1582,1.7676,0.7861,1.7754,0.8135l3.3056,7.9316c0.0254,0.0527,0.0498,0.1094,0.084,0.1572
		c1.3477,2.1006,3.6475,4.7032,7.999,2.9844c1.4122-0.5547,2.3965-1.4697,2.9327-2.7187c1.0097-2.3536-0.0469-5.0147-0.0948-5.1319
		c-0.1015-0.2002-5.1855-9.3281-6.123-12.4814c-0.3809-1.2832-0.2803-1.9737-0.0645-2.1914
		c0.2959-0.293,1.1465-0.1973,1.5401-0.0791l4.4629,2.0478c0.0654,0.0362,0.1416,0.0528,0.2177,0.0723
		c1.2871,0.2627,4.1163-0.1162,5.5899-3.4717C73.0273,52.3096,70.9971,49.6943,69.7324,48.7559z"/>
	<g>
		<path fill="#FFFFFF" d="M47.3457,30.0527c0,1.0352-0.8379,1.8692-1.8682,1.8692c-1.0351,0-1.8691-0.834-1.8691-1.8692
			c0-1.0312,0.834-1.8672,1.8691-1.8672C46.5078,28.1855,47.3457,29.0215,47.3457,30.0527z"/>
		<path fill="#FFFFFF" d="M54.9834,30.0527c0,1.0352-0.8379,1.8692-1.8672,1.8692c-1.0312,0-1.8691-0.834-1.8691-1.8692
			c0-1.0312,0.8379-1.8672,1.8691-1.8672C54.1455,28.1855,54.9834,29.0215,54.9834,30.0527z"/>
	</g>
	<g>
		<path fill="#FC6E51" d="M51.2471,45.3291c0,1.0352-0.834,1.8701-1.8662,1.8701c-1.0323,0-1.8721-0.8349-1.8721-1.8701
			c0-1.0273,0.8398-1.8623,1.8721-1.8623C50.4131,43.4668,51.2471,44.3018,51.2471,45.3291z"/>
		<path fill="#FC6E51" d="M51.2471,52.46c0,1.0361-0.834,1.8681-1.8662,1.8681c-1.0323,0-1.8721-0.832-1.8721-1.8681
			c0-1.0342,0.8398-1.8623,1.8721-1.8623C50.4131,50.5977,51.2471,51.4258,51.2471,52.46z"/>
		<path fill="#FC6E51" d="M51.2471,59.0791c0,1.0371-0.834,1.873-1.8662,1.873c-1.0323,0-1.8721-0.8359-1.8721-1.873
			c0-1.0303,0.8398-1.8643,1.8721-1.8643C50.4131,57.2148,51.2471,58.0488,51.2471,59.0791z"/>
	</g>
	<path fill="#FFFFFF" d="M53.1611,35.8369c-4.0127,3.7188-7.3838,0.1885-7.5273,0.0361c-0.251-0.2763-0.6836-0.2929-0.959-0.0361
		c-0.2715,0.2539-0.2939,0.6817-0.0391,0.959c0.0762,0.0791,1.8663,1.998,4.5225,2.0996c1.7178,0.0684,3.3731-0.6289,4.9268-2.0644
		c0.2773-0.251,0.292-0.6788,0.0371-0.9581C53.8672,35.5967,53.4375,35.5801,53.1611,35.8369z"/>
</g>
</svg>
