<?xml version="1.0" encoding="utf-8"?>
<!-- Generator: Adobe Illustrator 17.1.0, SVG Export Plug-In . SVG Version: 6.00 Build 0)  -->
<!DOCTYPE svg PUBLIC "-//W3C//DTD SVG 1.1//EN" "http://www.w3.org/Graphics/SVG/1.1/DTD/svg11.dtd">
<svg version="1.1" id="gloves" xmlns="http://www.w3.org/2000/svg" xmlns:xlink="http://www.w3.org/1999/xlink" x="0px" y="0px"
	 viewBox="0 0 100 100" enable-background="new 0 0 100 100" xml:space="preserve">
<circle id="gloves-label" fill="#5D9CEC" cx="50" cy="50" r="50"/>
<g id="gloves-shadow">
	<path fill="#4A89DC" d="M97.9824,61.2266c-0.1621-0.168-0.3222-0.3379-0.497-0.4971c-0.1602-0.167-0.3194-0.334-0.4922-0.4922
		c-0.1612-0.168-0.3213-0.3369-0.4971-0.4971c-0.1602-0.166-0.3174-0.333-0.4902-0.4912c-0.1621-0.1689-0.3243-0.3388-0.5-0.499
		c-0.1602-0.166-0.3184-0.333-0.4913-0.4912c-0.1611-0.167-0.3203-0.3359-0.4951-0.4951c-0.1601-0.168-0.3203-0.336-0.4951-0.4951
		c-0.1611-0.167-0.3193-0.335-0.4931-0.4932c-0.1612-0.168-0.3204-0.3359-0.4942-0.4951c-0.1621-0.168-0.3223-0.3369-0.4961-0.4961
		c-0.1611-0.167-0.3203-0.335-0.4941-0.4932c-0.1602-0.167-0.3184-0.334-0.4922-0.4922c-0.1621-0.1699-0.3242-0.3398-0.5-0.5
		c-0.1582-0.165-0.3164-0.331-0.4883-0.4883c-0.1621-0.1689-0.3242-0.3388-0.5-0.5c-0.1601-0.166-0.3184-0.333-0.4912-0.4912
		c-0.1611-0.167-0.3203-0.3349-0.4951-0.4951c-0.1602-0.168-0.3203-0.3359-0.4951-0.4951c-0.1612-0.167-0.3194-0.335-0.4942-0.4941
		c-0.1611-0.167-0.3193-0.3355-0.4931-0.4942c-0.1622-0.1679-0.3223-0.3369-0.4981-0.4966c-0.1592-0.166-0.3164-0.333-0.4902-0.4907
		c-0.1612-0.1684-0.3223-0.3374-0.4961-0.4971c-0.1621-0.1679-0.3223-0.3364-0.4971-0.4956
		c-0.1592-0.166-0.3174-0.333-0.4902-0.4907c-0.1612-0.1684-0.3223-0.3379-0.4971-0.498c-0.1611-0.167-0.3203-0.3345-0.4941-0.4932
		c-0.1602-0.167-0.3203-0.335-0.4942-0.4941c-0.1611-0.168-0.3213-0.3365-0.4961-0.4961c-0.1601-0.1665-0.3183-0.334-0.4922-0.4922
		c-0.1621-0.168-0.3222-0.3369-0.496-0.4966c-0.1602-0.1665-0.3204-0.3345-0.4932-0.4927
		c-0.1611-0.1675-0.3203-0.3359-0.4951-0.4946c-0.1602-0.168-0.3203-0.3364-0.4961-0.4961c-0.1602-0.167-0.3184-0.335-0.4932-0.4936
		c-0.1611-0.167-0.3193-0.3355-0.4951-0.4942c-0.1602-0.168-0.3203-0.3364-0.4941-0.4956c-0.1602-0.167-0.3204-0.3345-0.4942-0.4932
		c-0.1601-0.1679-0.3203-0.3364-0.4961-0.4956c-0.1601-0.167-0.3183-0.3344-0.4922-0.4931
		c-0.1601-0.1675-0.3203-0.336-0.4941-0.4947c-0.1621-0.1679-0.3223-0.3364-0.4961-0.4961
		c-0.1611-0.1674-0.3203-0.3354-0.4961-0.4946c-0.1592-0.1665-0.3184-0.3345-0.4922-0.4927
		c-0.1601-0.1674-0.3203-0.3359-0.4941-0.4951c-0.1621-0.1679-0.3223-0.3364-0.4961-0.4956
		c-0.1602-0.167-0.3184-0.3345-0.4922-0.4927c-0.1621-0.1674-0.3213-0.3364-0.4961-0.4956
		c-0.1602-0.1674-0.3203-0.3354-0.4941-0.4941c-0.1602-0.1675-0.3204-0.3354-0.4942-0.4941
		c-0.1601-0.1675-0.3203-0.3355-0.4941-0.4942c-0.1621-0.1684-0.3223-0.3374-0.4971-0.4971
		c-0.1601-0.1669-0.3193-0.3344-0.4932-0.4931c-0.1601-0.167-0.3183-0.3345-0.4921-0.4927
		c-0.1622-0.1684-0.3223-0.3379-0.4981-0.498c-0.1601-0.1665-0.3203-0.3345-0.4941-0.4927
		c-0.1602-0.168-0.3203-0.3364-0.4942-0.4956c-0.1601-0.1665-0.3193-0.334-0.4931-0.4927c-0.1612-0.167-0.3194-0.3354-0.4942-0.4941
		c-0.1611-0.168-0.3213-0.337-0.497-0.4966c-0.1602-0.1665-0.3184-0.3335-0.4903-0.4917c-0.1621-0.168-0.3222-0.3369-0.498-0.4971
		c-0.1602-0.167-0.3203-0.3349-0.4942-0.4936c-0.1601-0.1675-0.3203-0.336-0.4941-0.4952
		c-0.1602-0.1665-0.3184-0.3339-0.4922-0.4921c-0.1621-0.169-0.3242-0.3389-0.5-0.4991c-0.1592-0.1655-0.3164-0.332-0.4883-0.4892
		c-1.5703-1.6353-3.7685-2.8892-6.8447-3.4346c0,0-6.4834-1.6147-11.6323,5.2188c0.4145,0.75,0.9897,1.8623,1.5766,3.2021
		c-0.039-0.0371-0.0815-0.0703-0.1211-0.1069c-0.1606-0.168-0.3227-0.3345-0.4931-0.4937
		c-0.1631-0.1704-0.3277-0.3389-0.5005-0.5005C46.1836,31.3208,46.0234,31.1572,45.856,31c-0.1631-0.1704-0.3277-0.3384-0.5-0.5
		c-0.1597-0.167-0.3213-0.3325-0.4908-0.4912c-0.1631-0.1699-0.3276-0.3384-0.5005-0.5c-0.1586-0.166-0.3193-0.3301-0.4877-0.4878
		c-0.1626-0.1699-0.3267-0.3379-0.4991-0.499c-2.3882-2.4971-5.8042-4.0933-10.7007-3.2842c0,0-13.8129,1.3013-9.3549,24.5561
		c1.3877,7.2491,3.5713,11.7207,5.8686,14.4717c0.0425,0.0215,0.0972,0.0469,0.1582,0.0742
		c0.1118,0.1436,0.2237,0.2862,0.3364,0.4209c0.0425,0.0205,0.0972,0.0459,0.1583,0.0743c0.1118,0.1435,0.2236,0.2851,0.3359,0.4199
		c0.0425,0.0205,0.0972,0.0459,0.1582,0.0742c0.103,0.1318,0.206,0.2627,0.3096,0.3877c-0.6016-0.2051-1.0171-0.3906-1.2183-0.4883
		c-0.0967-0.0508-0.1587-0.0791-0.1587-0.0791s-1.6406,1.2422-1.6514,4.2686c-0.0073,2.4707,1.3487,4.0625,2.1651,4.7968
		c0.1762,0.1954,0.3442,0.3594,0.4951,0.4952c0.1763,0.1953,0.3442,0.3603,0.4956,0.4951c0.1758,0.1953,0.3438,0.3594,0.4941,0.4951
		c0.1758,0.1943,0.3428,0.3574,0.4932,0.4932c0.1768,0.1953,0.3452,0.3593,0.4966,0.4961c0.1753,0.1933,0.3423,0.3574,0.4932,0.4931
		c0.1757,0.1944,0.3442,0.3594,0.4951,0.4951c0.1758,0.1944,0.3432,0.3584,0.4941,0.4942c0.1758,0.1943,0.3433,0.3584,0.4937,0.4941
		c0.1767,0.1953,0.3457,0.3604,0.497,0.4961c0.1758,0.1953,0.3428,0.3584,0.4937,0.4941c0.1753,0.1934,0.3428,0.3575,0.4936,0.4942
		c0.1753,0.1933,0.3433,0.3574,0.4942,0.4941c0.1758,0.1944,0.3442,0.3594,0.4951,0.4951c0.1758,0.1944,0.3437,0.3584,0.4941,0.4932
		c0.1763,0.1953,0.3448,0.3604,0.4956,0.4961c0.1744,0.1934,0.3409,0.3555,0.4903,0.4902c0.1777,0.1973,0.3471,0.3633,0.499,0.5
		c0.1758,0.1934,0.3433,0.3575,0.4937,0.4932c0.1762,0.1943,0.3442,0.3584,0.4951,0.4941c0.1753,0.1944,0.3427,0.3584,0.4931,0.4942
		c0.1758,0.1943,0.3438,0.3584,0.4942,0.4931c0.1762,0.1954,0.3447,0.3604,0.4961,0.4961c0.1757,0.1954,0.3432,0.3594,0.4941,0.4942
		c0.1748,0.1933,0.3418,0.3574,0.4917,0.4922c0.1773,0.1972,0.3467,0.3623,0.4985,0.499c0.1748,0.1924,0.3418,0.3564,0.4917,0.4912
		c0.1768,0.1953,0.3448,0.3604,0.4961,0.4961c0.1753,0.1943,0.3428,0.3574,0.4932,0.4932c0.1763,0.1953,0.3447,0.3603,0.4956,0.4961
		c0.1763,0.1943,0.3442,0.3584,0.4951,0.4951c0.1758,0.1943,0.3438,0.3584,0.4947,0.4941c0.1743,0.1924,0.3408,0.3555,0.4907,0.4902
		c0.1777,0.1973,0.3467,0.3633,0.499,0.5c0.1753,0.1934,0.3423,0.3575,0.4927,0.4922c0.1762,0.1953,0.3442,0.3594,0.4951,0.4952
		c0.1753,0.1943,0.3423,0.3574,0.4927,0.4931c0.1767,0.1953,0.3457,0.3604,0.497,0.4961c0.1753,0.1943,0.3428,0.3584,0.4932,0.4942
		c0.1763,0.1943,0.3442,0.3593,0.4956,0.4951c0.1743,0.1924,0.3408,0.3554,0.4907,0.4912c0.1778,0.1972,0.3477,0.3623,0.5,0.5
		c0.1748,0.1933,0.3413,0.3554,0.4917,0.4912c0.1758,0.1943,0.3438,0.3594,0.4961,0.4951c0.1739,0.1934,0.3418,0.3574,0.4912,0.4922
		c0.1768,0.1953,0.3448,0.3603,0.4971,0.4971c0.1758,0.1943,0.3438,0.3584,0.4941,0.4941c0.1739,0.1924,0.3418,0.3565,0.4903,0.4912
		c0.1797,0.1983,0.3496,0.3653,0.5039,0.502c0.1719,0.1914,0.3379,0.3535,0.4863,0.4883c0.1768,0.1953,0.3457,0.3593,0.4961,0.4951
		c0.1016,0.1123,0.1904,0.1924,0.2852,0.2841c21.1621-2.2246,38.3808-17.6523,43.291-37.8935
		c-0.0362-0.0361-0.0694-0.0732-0.1074-0.1084C98.3135,61.5508,98.1553,61.3848,97.9824,61.2266z"/>
</g>
<g id="gloves-gloves">
	<g>
		<path fill="#FC6E51" d="M53.542,66.7422c-0.5049-3.0508-2.9961-4.2442-2.9961-4.2442c-0.0425,0.0215-0.0771,0.0391-0.1201,0.0606
			c-11.6602,6.7285-19.8316,3.2344-20.9966,2.6699c-0.0967-0.0508-0.1587-0.0791-0.1587-0.0791s-1.6406,1.2422-1.6514,4.2686
			c-0.0102,3.5312,2.7691,5.2734,2.7691,5.2734c12.0981,4.0518,21.188-2.5996,21.188-2.5996S54.1006,70.1289,53.542,66.7422z"/>
		<path fill="#FFFFFF" d="M34.3228,50.2817l-1.1177,0.8706c0.6553,0.2627,1.6484,0.6602,2.3481,0.9424l-0.1938-1.395
			C35.0264,50.5649,34.6401,50.4082,34.3228,50.2817z"/>
		<path fill="#FFFFFF" d="M36.8296,47.5361c-0.0137,0-1.1719-0.4687-1.1856-0.4775c-0.0107,0.0132-0.4062,0.3184-0.4062,0.3184
			s-0.5918,0.4575-0.603,0.4648c0.0009,0.0171,0.1723,1.2461,0.1748,1.2642c0.0127,0.0034,1.1704,0.4711,1.1855,0.477
			c0.0127-0.0059,0.999-0.77,1.0078-0.7832C37.0029,48.7832,36.8325,47.5522,36.8296,47.5361z"/>
		<path fill="#FFFFFF" d="M33.3628,47.9668l-1.3086-0.4883c0.0977,0.6851,0.2417,1.7354,0.3437,2.481l1.1207-0.8716
			C33.4644,48.7251,33.4082,48.3052,33.3628,47.9668z"/>
		<path fill="#FFFFFF" d="M34.563,46.2861c0,0,0.0718-0.0532,0.1724-0.1357l-0.1939-1.3916c-0.5449,0.418-1.293,1.001-1.8467,1.4277
			l1.3491,0.5034C34.3208,46.4761,34.563,46.2861,34.563,46.2861z"/>
		<path fill="#FFFFFF" d="M38.0845,47.2642c0.0468,0.3554,0.1118,0.8134,0.164,1.2085l1.315,0.5459
			c-0.1079-0.7725-0.2578-1.8824-0.3555-2.587L38.0845,47.2642z"/>
		<path fill="#FFFFFF" d="M36.7949,50.5732l0.1944,1.3946c0.5883-0.4532,1.4809-1.145,2.0727-1.6031l-1.2974-0.5424
			C37.4614,50.0581,37.0977,50.3428,36.7949,50.5732z"/>
		<path fill="#FFFFFF" d="M37.0381,46.2495l1.1582-0.8535c-0.688-0.2773-1.6109-0.647-2.2383-0.9053l0.1924,1.4004
			C36.4224,46.0024,36.7437,46.1304,37.0381,46.2495z"/>
		<path fill="#FFFFFF" d="M59.0039,40.8252c-3.4658-2.6694-7.5332,0.9292-9.8164,3.5508c-0.1079-0.6221-0.2251-1.2632-0.3628-1.9224
			c0,0-1.2764-19.6733-16.1475-17.2158c0,0-13.8129,1.3013-9.3549,24.5561c1.3877,7.2491,3.5713,11.7207,5.8686,14.4717
			c1.1626,0.5674,9.3345,4.0625,20.9961-2.664c1.4185-1.8868,2.231-3.8868,2.231-3.8868c1.5195-3.9824,5.5722-8.0068,5.5722-8.0068
			C62.5254,43.9146,59.0039,40.8252,59.0039,40.8252z M45.3896,52.9414l-0.9809-0.3965l0.1587,0.9961L43.2363,53l-0.187-1.0039
			l-0.4907-0.1973l0.2837,1.7285l-1.3345-0.541l-0.3057-1.7343l-0.7534-0.315l-1.2021,0.9282l0.2002,0.2676l1.1162-0.0957
			l0.542,0.7315l-1.1045,0.1044l0.1987,0.2676l0.6446-0.0508l0.5429,0.7276l-0.6343,0.0596l0.399,0.5371l-0.0909,0.6347
			l-0.6381-0.0898l-0.4009-0.5313l-0.2417,0.5899l-0.541-0.7305l0.2285-0.6045l-0.1948-0.2646l-0.418,1.0293l-0.543-0.7256
			l0.4029-1.0479l-0.1841-0.25l-1.3365,1.0352l0.1133,0.8066l1.6153,0.7227l0.1977,1.4179l-1.6118-0.6972l0.0693,0.5244
			l0.9341,0.4248l0.1958,1.4199l-0.9292-0.4004l0.1431,1.0459l-0.6143,0.8096l-0.8076-0.6133l-0.146-1.0429l-0.7847,0.6337
			l-0.1977-1.4189l0.7817-0.6592l-0.0713-0.5244l-1.3623,1.1104l-0.1977-1.419l1.3613-1.1367l-0.1216-0.877l-1.5097-0.6123
			l-0.1724,0.3809l0.625,0.9326l-0.3745,0.8262l-0.6279-0.9121L33.564,54.502l0.3584,0.5449l-0.3721,0.8222l-0.3672-0.5263
			l-0.2725,0.6113l-0.602,0.2295l-0.2285-0.6025l0.2739-0.6045l-0.6328,0.0722l0.3696-0.8242l0.6426-0.0937l0.1338-0.3028
			l-1.0996,0.1367l0.3696-0.8281l1.1113-0.1533l0.1558-0.3516l-1.3882-0.5605l-0.7012,0.5439l0.1768,1.7539L30.3535,55.25
			l-0.1972-1.7402l-0.4166,0.3271l0.0909,1.0147l-1.1353,0.8789l-0.1142-0.9981l-0.837,0.6465l-1.0112-0.1221l0.127-1.0078
			l0.8349-0.6484l-0.9389-0.3584l1.1333-0.8828l0.9638,0.3418l0.419-0.3203l-1.6421-0.6182l1.1372-0.8857l1.6655,0.6054
			l0.7783-0.6054l-0.2207-1.5572l-0.416,0.0493l-0.4751,1.0132l-0.8994,0.1104l0.4575-1.0122l-0.3281,0.0371l-0.2812,0.5859
			l-0.8995,0.1069l0.2583-0.583L27.7466,49.71l-0.5049-0.4009l0.3955-0.5054l0.6626-0.0786l-0.3935-0.5024l0.9042-0.108
			l0.4068,0.5005l0.3306-0.04l-0.6861-0.8731l0.9019-0.1074l0.7026,0.8662l0.4019-0.0434l-0.2022-1.458l-0.9043-0.3365
			l-1.4429,1.0289l-1.332-0.5347l1.4146-1.0498l-0.4868-0.1963l-0.8433,0.5913l-1.3286-0.5386l0.8144-0.5986l-0.9829-0.398
			l-0.3974-0.934l0.9384-0.3916l0.9815,0.3974l-0.1597-0.9995l1.3325,0.544l0.1836,1.0014l0.4907,0.2002l-0.2812-1.7285
			l1.335,0.5342l0.3076,1.7431l0.957,0.356l1.1104-0.856l-0.2666-0.331l-1.1158,0.1362l-0.5693-0.7055l1.1016-0.148l-0.212-0.2583
			l-0.6445,0.0762l-0.5708-0.7046l0.6309-0.0918l-0.4185-0.5142l0.0679-0.6406l0.6401,0.0649l0.4199,0.5127l0.2139-0.5942
			l0.5733,0.7026l-0.2032,0.6148l0.2071,0.2558l0.3755-1.0463l0.5727,0.7045l-0.3638,1.0635l0.2823,0.3408l1.2431-0.9589
			l-0.1367-0.9966l-1.6172-0.7202l-0.1972-1.419l1.6123,0.6924l-0.0699-0.52l-0.9306-0.4248l-0.1958-1.4219l0.9253,0.4028
			l-0.1416-1.0483l0.6147-0.8032l0.8086,0.6054l0.146,1.0494l0.7837-0.6387l0.1948,1.4204l-0.7807,0.6655l0.0712,0.5196
			l1.3619-1.1099l0.2011,1.4189l-1.3608,1.1353l0.1279,0.9292l1.4121,0.5674l0.1963-0.4859l-0.6665-0.9004l0.3384-0.8447
			l0.667,0.8862l0.124-0.3134l-0.3804-0.5191l0.3321-0.8418l0.3906,0.5015l0.2456-0.6187l0.5903-0.2534l0.2525,0.5933
			l-0.2432,0.6191l0.6294-0.1079l-0.334,0.8447l-0.6357,0.1211l-0.1231,0.3101l1.0972-0.186l-0.3345,0.8457l-1.1045,0.2011
			l-0.1943,0.4912l1.4121,0.5718l0.7661-0.5635l-0.1787-1.7548l1.1392-0.8814l0.1992,1.7363l0.4165-0.3217l-0.0952-1.0147
			l1.1396-0.8769l0.1153,0.9985l0.8339-0.6494l1.0118,0.123l-0.126,1.0044l-0.8345,0.6509l0.9419,0.354l-1.1382,0.8828
			l-0.9638-0.3379l-0.417,0.3223l1.6401,0.6186l-1.1343,0.8824l-1.6684-0.6021l-0.669,0.4917l0.2193,1.6089l0.4028-0.0415
			l0.4932-1.0078l0.9023-0.0947l-0.4736,1.0083l0.3276-0.0367l0.29-0.5815l0.8999-0.0918l-0.2705,0.5767l0.6636-0.0669l0.5,0.4052
			l-0.4033,0.5035l-0.6631,0.0669l0.3804,0.5107l-0.8985,0.0913l-0.4033-0.5083l-0.3291,0.0371l0.6665,0.8848l-0.8989,0.0937
			l-0.687-0.8877l-0.3731,0.0406l0.2124,1.5351l0.7847,0.3228l1.4375-1.0308l1.3379,0.5366l-1.4165,1.044l0.4897,0.1963
			l0.8355-0.5899l1.3354,0.5406l-0.8125,0.5981l0.9805,0.3975l0.3955,0.9355L45.3896,52.9414z"/>
	</g>
	<path fill="#FC6E51" d="M52.7578,72.25c0,0-1.3027,1.3926-3.7759,2.498c6.0708,1.2774,10.7603-0.1093,10.7603-0.1093
		s3.0293-1.0059,3.6328-4.3907c0.5371-3.0439-1.4141-5-1.4141-5c-0.0449,0.0079-0.0859,0.0118-0.1347,0.0225
		c-2.7969,0.5166-5.2744,0.6455-7.4834,0.5342C54.9229,67.6523,54.8457,69.9297,52.7578,72.25z"/>
	<path fill="#FFFFFF" d="M77.1484,47.627c-2.3798-3.6724-7.4101-1.6363-10.4384,0.082c0.1064-0.627,0.2109-1.2647,0.2988-1.9341
		c0,0,5.3467-18.9766-9.4961-21.6084c0,0-6.4834-1.6147-11.6323,5.2188c1.2007,2.1728,3.749,7.3354,4.0219,12.5043
		c0,0,5.8926-5.541,9.8223-1.6093c0,0,5,4.2861-2.3232,11.7881c0,0-3.9268,5.5361-5.3575,9.1093l-0.3564,0.5371
		c0,0,1.3799,1.2188,2.2539,3.0801c2.3301,0.1563,4.9727,0.0479,7.9805-0.5078c1.9629-1.3076,3.3945-2.9258,3.3945-2.9258
		c2.7617-3.247,7.9219-5.6972,7.9219-5.6972C79.4414,51.7129,77.1484,47.627,77.1484,47.627z"/>
</g>
</svg>
