<?xml version="1.0" encoding="utf-8"?>
<!-- Generator: Adobe Illustrator 17.1.0, SVG Export Plug-In . SVG Version: 6.00 Build 0)  -->
<!DOCTYPE svg PUBLIC "-//W3C//DTD SVG 1.1//EN" "http://www.w3.org/Graphics/SVG/1.1/DTD/svg11.dtd">
<svg version="1.1" id="goggles" xmlns="http://www.w3.org/2000/svg" xmlns:xlink="http://www.w3.org/1999/xlink" x="0px" y="0px"
	 viewBox="0 0 100 100" enable-background="new 0 0 100 100" xml:space="preserve">
<circle id="goggles-label" fill="#AC92EC" cx="50" cy="50" r="50"/>
<g id="goggles-shadow">
	<path fill="#967ADC" d="M98.6777,57.0908c-0.1621-0.1748-0.3252-0.3418-0.4931-0.4931c-0.1612-0.1739-0.3242-0.3409-0.4922-0.4922
		c-0.1621-0.1739-0.3262-0.3418-0.4942-0.4942c-0.1611-0.1738-0.3252-0.3418-0.4921-0.4922
		c-0.1641-0.1777-0.3311-0.3476-0.501-0.5009c-0.1612-0.1729-0.3233-0.3389-0.4903-0.4893
		c-0.1621-0.1758-0.3261-0.3437-0.4951-0.4961c-0.1621-0.1758-0.3271-0.3437-0.4961-0.4951
		c-0.1601-0.1748-0.3242-0.3408-0.4912-0.4922c-0.1621-0.1748-0.3261-0.3428-0.4951-0.4951
		c-0.1631-0.1758-0.3281-0.3457-0.498-0.4981c-0.1612-0.1738-0.3243-0.3398-0.4913-0.4912c-0.163-0.1762-0.3281-0.3447-0.497-0.497
		c-0.1612-0.1744-0.3252-0.3409-0.4922-0.4917c-0.1621-0.1753-0.3252-0.3428-0.4932-0.4942
		c-0.1631-0.1767-0.3291-0.3452-0.499-0.4975c-0.1611-0.1744-0.3242-0.3413-0.4912-0.4917
		c-0.1631-0.1763-0.3272-0.3443-0.4961-0.4966c-0.1621-0.1748-0.3252-0.3418-0.4932-0.4932
		c-0.1621-0.1748-0.3252-0.3418-0.4931-0.4931c-0.1631-0.1758-0.3272-0.3443-0.4961-0.4966
		c-0.1631-0.1753-0.3272-0.3433-0.4961-0.4951c-0.1602-0.1739-0.3233-0.3409-0.4903-0.4913c-0.164-0.1777-0.331-0.3466-0.5009-0.5
		c-0.1602-0.1728-0.3223-0.3393-0.4883-0.4892c-0.1641-0.1768-0.3291-0.3452-0.499-0.4981
		c-0.1612-0.1748-0.3252-0.3422-0.4942-0.4941c-0.1601-0.1738-0.3232-0.3403-0.4902-0.4907
		c-0.1641-0.1778-0.3311-0.3472-0.501-0.5005c-0.1601-0.1729-0.3223-0.3389-0.4883-0.4888c-0.164-0.1777-0.331-0.3467-0.5009-0.5
		c-0.1602-0.1728-0.3223-0.3388-0.4883-0.4888c-0.1621-0.1757-0.3272-0.3442-0.4961-0.496
		c-0.1621-0.1763-0.3272-0.3443-0.4961-0.4961c-0.1621-0.1753-0.3262-0.3428-0.4942-0.4942
		c-0.1611-0.1748-0.3251-0.3423-0.4931-0.4936c-0.1631-0.1758-0.3272-0.3438-0.4961-0.4961
		c-0.1621-0.1748-0.3262-0.3423-0.4942-0.4937c-1.8222-1.9702-4.165-2.4101-4.165-2.4101
		c-7.6758-2.5059-25.6016-2.1328-25.6016-2.1328l-7.371,0.04c-5.9336,0.1484-13.9942,0.6289-18.4766,2.0928
		c0,0-6.2715,1.1543-6.2715,8.3027c0,0.4443,0,2.7803,0,4.3809c0,0.7187,0,1.29,0,1.4746c0,2.7397,0,4.3862,0,4.3862
		s-0.207,3.6328,2.7334,6.3691c0.1553,0.17,0.3242,0.337,0.501,0.502c0.1523,0.166,0.3164,0.3281,0.4892,0.4883
		c0.1543,0.1679,0.3204,0.333,0.4961,0.4961c0.1534,0.1679,0.3203,0.333,0.4961,0.4961c0.1524,0.166,0.3174,0.3291,0.4903,0.4902
		c0.1543,0.1689,0.3213,0.334,0.497,0.498c0.1543,0.168,0.3213,0.3321,0.4971,0.4961c0.1514,0.1661,0.3174,0.3291,0.4902,0.4903
		c0.1543,0.1689,0.3223,0.334,0.4981,0.498c0.1523,0.168,0.3193,0.3311,0.4931,0.4932c0.1534,0.1689,0.3213,0.333,0.4961,0.4961
		c0.1524,0.167,0.3174,0.3291,0.4913,0.4912c0.1533,0.168,0.3203,0.332,0.496,0.4961c0.1534,0.1679,0.3194,0.332,0.4942,0.4941
		c0.1533,0.168,0.3193,0.3321,0.4941,0.4942c0.1533,0.1679,0.3194,0.332,0.4942,0.4941c0.1533,0.168,0.3213,0.333,0.497,0.4961
		c0.1524,0.168,0.3184,0.332,0.4932,0.4941c0.1533,0.168,0.3193,0.3311,0.4941,0.4942c0.1534,0.1679,0.3204,0.332,0.4952,0.4961
		c0.1533,0.1679,0.3203,0.332,0.4951,0.4941c0.1533,0.167,0.3183,0.3301,0.4922,0.4922c0.1533,0.168,0.3203,0.332,0.4951,0.4941
		c0.1533,0.168,0.3193,0.333,0.4951,0.4961c0.1523,0.167,0.3184,0.3301,0.4932,0.4932c0.1543,0.1689,0.3213,0.333,0.497,0.4971
		c0.1543,0.1679,0.3213,0.333,0.4961,0.4961c0.1514,0.166,0.3164,0.3281,0.4883,0.4882c0.1543,0.168,0.3213,0.334,0.4961,0.4961
		c0.1543,0.17,0.3223,0.334,0.498,0.4981c0.1524,0.167,0.3184,0.3301,0.4922,0.4922c0.1543,0.1679,0.3203,0.333,0.4961,0.4961
		c0.1524,0.167,0.3184,0.33,0.4922,0.4922c0.1543,0.1679,0.3203,0.333,0.4961,0.496c0.1524,0.167,0.3184,0.3301,0.4932,0.4922
		c0.1533,0.17,0.3213,0.334,0.4961,0.4971c0.1533,0.168,0.3193,0.3311,0.4941,0.4932c0.1543,0.1699,0.3223,0.3349,0.4981,0.498
		c0.1513,0.166,0.3154,0.3281,0.4873,0.4883c0.1543,0.168,0.3213,0.333,0.4961,0.4961c0.1533,0.168,0.3193,0.332,0.4931,0.4941
		c0.1553,0.17,0.3242,0.336,0.502,0.502c0.1523,0.166,0.3174,0.3281,0.4902,0.4892c0.1533,0.168,0.3203,0.333,0.4951,0.4952
		c0.1533,0.1679,0.3194,0.332,0.4942,0.4941c0.1533,0.168,0.3193,0.332,0.4941,0.4941c0.1533,0.168,0.3193,0.3321,0.4941,0.4942
		c0.1534,0.1679,0.3194,0.332,0.4942,0.4941c0.1543,0.168,0.3213,0.334,0.4971,0.4971c0.1523,0.167,0.3183,0.3301,0.4921,0.4922
		c0.1534,0.1689,0.3204,0.333,0.4961,0.4951c0.1514,0.167,0.3174,0.3301,0.4903,0.4902c0.1543,0.17,0.3222,0.336,0.499,0.5
		c0.1543,0.168,0.3213,0.333,0.4961,0.4961c0.1523,0.166,0.3164,0.3281,0.4902,0.4893c0.1524,0.168,0.3194,0.332,0.4942,0.4951
		c0.1543,0.1689,0.3222,0.334,0.498,0.498c0.1533,0.168,0.3193,0.3311,0.4932,0.4932c0.1523,0.167,0.3183,0.3311,0.4931,0.4932
		c0.1534,0.1679,0.3213,0.334,0.4971,0.4961c0.1524,0.1679,0.3184,0.332,0.4932,0.4941c0.1523,0.168,0.3193,0.3311,0.4931,0.4932
		c0.1543,0.1689,0.3213,0.333,0.4961,0.4961c0.1534,0.1679,0.3203,0.332,0.4951,0.4951c0.1534,0.168,0.3194,0.331,0.4942,0.4941
		c0.1523,0.167,0.3183,0.3301,0.4932,0.4922c0.1533,0.168,0.3193,0.332,0.4931,0.4942c0.1543,0.1699,0.3233,0.3359,0.5,0.5
		c0.1514,0.166,0.3164,0.3281,0.4893,0.4892c0.1543,0.169,0.3222,0.335,0.499,0.499c0.1523,0.166,0.3174,0.3291,0.4912,0.4903
		c0.1524,0.1679,0.3184,0.331,0.4922,0.4931c0.1533,0.167,0.3193,0.3311,0.4941,0.4942c0.1553,0.1709,0.3243,0.3369,0.502,0.5019
		c0.1514,0.167,0.3174,0.3291,0.4902,0.4903c0.1533,0.167,0.3194,0.331,0.4942,0.4941c0.1533,0.168,0.3203,0.332,0.4951,0.4951
		c0.0849,0.0928,0.1816,0.1826,0.2734,0.2735c20.75-3.8145,37.0186-20.4258,40.2998-41.3575
		c-0.0703-0.0703-0.1396-0.1465-0.2109-0.2109C99.0146,57.4141,98.8486,57.2441,98.6777,57.0908z"/>
</g>
<g id="goggles-goggles">
	<path fill="#FFFFFF" d="M81.9961,54.4375c0,0,0-1.6465,0-4.3862c0-0.1846,0-0.7559,0-1.4746c0-1.6006,0-3.9366,0-4.3809
		c0-7.1484-6.2715-8.3027-6.2715-8.3027c-7.6758-2.5059-25.6016-2.1328-25.6016-2.1328l-7.371,0.04
		c-5.9336,0.1484-13.9942,0.6289-18.4766,2.0928c0,0-6.2715,1.1543-6.2715,8.3027c0,0.4443,0,2.7803,0,4.3809
		c0,0.7187,0,1.29,0,1.4746c0,2.7397,0,4.3862,0,4.3862s-0.3086,5.1113,4.7051,7.7734c6.0859,3.2344,14.1719,7.1817,19.4629,0.0547
		C46.0508,57.043,47.459,54.4375,50,54.4375c2.5391,0,3.9492,2.6055,7.8281,7.8281c5.291,7.127,13.377,3.1797,19.4629-0.0547
		C82.3047,59.5488,81.9961,54.4375,81.9961,54.4375z"/>
	<path fill="#4FC1E9" d="M73.8203,59.6309l-0.1269,0.0605c-5.252,2.4453-9.4024,4.377-13.5039-0.7676l-1.4981-1.9043
		c-3.2168-4.1172-5.3418-6.8354-8.6914-6.8354c-3.2187,0-5.0723,2.4038-8.1426,6.3843l-1.8359,2.3554
		c-4.1016,5.1446-8.25,3.2129-13.5039,0.7676l-0.127-0.0605c-4.0801-1.8985-4.3301-5.3301-4.3301-6.1309
		c0-0.0938,0.004-0.1523,0.004-0.166v-3.2827v-1.4746v-2.9375c0-5.5938,5.4531-6.6719,5.7734-6.7295
		c6.5918-1.8741,21.6387-1.626,22.2578-1.6162c0.6387-0.0098,15.6856-0.2579,22.2793,1.6162
		c0.3184,0.0576,5.7715,1.1357,5.7715,6.7295v2.9375l-0.002,4.7221c0.002,0.0176,0.0059,0.0801,0.0059,0.1817
		C78.1504,54.3125,77.8926,57.7363,73.8203,59.6309z"/>
	<path fill="#FFFFFF" d="M57.2656,53.6211c0.7012,0.8359,1.4297,1.7637,2.2207,2.7773l0.3164,0.4004L75.248,41.3521
		c-1.3496-1.1456-2.9492-1.4317-3.0644-1.4512l-0.0293-0.0059l-0.0273-0.0078c-0.2813-0.0801-0.586-0.1543-0.8985-0.2275
		L57.2656,53.6211z"/>
	<path fill="#FFFFFF" d="M61.7402,59.1582c0.5274,0.541,1.0547,0.9609,1.5879,1.2695l13.8086-13.8081v-0.9804
		c0-0.6172-0.0781-1.168-0.2129-1.6641L61.7402,59.1582z"/>
	<path fill="#FFFFFF" d="M23.0723,53.4805c-0.0039,0.4687,0.1074,2.33,1.789,3.9238l19.0703-19.0698
		c-1.8183,0.039-3.8769,0.1093-5.9472,0.2343L23.0723,53.4805z"/>
	<path fill="#FFFFFF" d="M48.2734,38.2915L27.5215,59.043c0.6855,0.3203,1.3398,0.6172,1.9687,0.8867L51.127,38.2935
		c-0.629,0.0039-1.004,0.0097-1.0313,0.0107C50.0645,38.3032,49.3828,38.2925,48.2734,38.2915z"/>
</g>
</svg>
