<?xml version="1.0" encoding="utf-8"?>
<!-- Generator: Adobe Illustrator 17.1.0, SVG Export Plug-In . SVG Version: 6.00 Build 0)  -->
<!DOCTYPE svg PUBLIC "-//W3C//DTD SVG 1.1//EN" "http://www.w3.org/Graphics/SVG/1.1/DTD/svg11.dtd">
<svg version="1.1" id="holly" xmlns="http://www.w3.org/2000/svg" xmlns:xlink="http://www.w3.org/1999/xlink" x="0px" y="0px"
	 viewBox="0 0 100 100" enable-background="new 0 0 100 100" xml:space="preserve">
<circle id="holly-label" fill="#A0D468" cx="50" cy="50" r="50"/>
<g id="holly-shadow">
	<path fill="#8CC152" d="M99.6572,49.5977l-1.2509,2.165c0.0576-0.2256,0.1113-0.4512,0.1796-0.6758L99.6572,49.5977
		c-0.2822,0.3398-0.582,0.6611-0.8926,0.9668c0.2159-0.6329,0.4639-1.2579,0.7745-1.8594l-0.9043,1.5644
		c0.1562-0.3945,0.33-0.7851,0.5273-1.166l-1.25,2.1621c0.0576-0.2256,0.1123-0.4511,0.1797-0.6748l1.0703-1.4873
		c-0.2822,0.3399-0.581,0.6602-0.8916,0.9658c0.2158-0.6328,0.4639-1.2578,0.7744-1.8593l-0.9043,1.5644
		c0.1563-0.3935,0.3301-0.7842,0.5274-1.165l-1.25,2.1621c0.0576-0.2256,0.1123-0.4512,0.1797-0.6748l1.0703-1.4873
		c-0.2823,0.3398-0.5811,0.6601-0.8916,0.9658c0.2158-0.6328,0.4638-1.2578,0.7744-1.8594l-0.9043,1.5645
		c0.1562-0.3936,0.3301-0.7842,0.5273-1.1651l-1.2519,2.166c0.0576-0.2255,0.1123-0.4521,0.1797-0.6757l1.0722-1.4903
		c-0.2822,0.3409-0.582,0.6612-0.8935,0.9668c0.2158-0.6328,0.4638-1.2588,0.7754-1.8613l-0.9043,1.5645
		c0.1562-0.3936,0.33-0.7832,0.5283-1.1651l-1.251,2.1651c0.0576-0.2256,0.1113-0.4512,0.1787-0.6758l1.0723-1.4893
		c-0.2822,0.3408-0.582,0.6611-0.8936,0.9668c0.2168-0.6328,0.4649-1.2578,0.7754-1.8603l-0.9043,1.5644
		c0.1563-0.3935,0.3301-0.7842,0.5274-1.165l-1.251,2.165c0.0576-0.2256,0.1113-0.4512,0.1787-0.6758l1.0723-1.4892
		c-0.2823,0.3408-0.5821,0.6611-0.8936,0.9668c0.2168-0.6328,0.4649-1.2578,0.7754-1.8604l-0.9033,1.5645
		c0.1562-0.3936,0.3291-0.7852,0.5264-1.1651l-1.25,2.1631c0.0576-0.2256,0.1113-0.4512,0.1796-0.6748l1.0704-1.4883
		c-0.2823,0.3399-0.5821,0.6602-0.8926,0.9659c0.2168-0.6329,0.4648-1.2579,0.7754-1.8604l-0.9043,1.5645
		c0.1562-0.3936,0.33-0.7842,0.5273-1.1651l-1.25,2.1621c0.0576-0.2256,0.1123-0.4511,0.1797-0.6748l1.0703-1.4873
		c-0.2822,0.3399-0.581,0.6602-0.8916,0.9658c0.2158-0.6328,0.4639-1.2578,0.7744-1.8593l-0.9043,1.5644
		c0.1563-0.3935,0.3301-0.7842,0.5274-1.165l-1.251,2.164c0.0576-0.2255,0.1123-0.4511,0.1797-0.6757l1.0713-1.4883
		c-0.2823,0.3398-0.5821,0.6601-0.8926,0.9658c0.2168-0.6328,0.4639-1.2578,0.7754-1.8604l-0.9053,1.5645
		c0.1572-0.3936,0.3311-0.7832,0.5274-1.165l-1.25,2.1621c0.0576-0.2246,0.1123-0.4502,0.1796-0.6739l1.0704-1.4882
		c-0.2823,0.3398-0.5811,0.6601-0.8916,0.9658c0.2158-0.6328,0.4638-1.2578,0.7744-1.8594l-0.9043,1.5645
		c0.1562-0.3936,0.33-0.7842,0.5273-1.1651l-1.25,2.1631c0.0576-0.2246,0.1113-0.4512,0.1787-0.6748l1.0713-1.4883
		c-0.2822,0.3399-0.581,0.6602-0.8926,0.9658c0.2168-0.6318,0.4649-1.2578,0.7754-1.8593l-0.9043,1.5644
		c0.1553-0.3935,0.3291-0.7842,0.5264-1.165l-1.25,2.1621c0.0576-0.2246,0.1123-0.4502,0.1797-0.6748l1.0703-1.4873
		c-0.2822,0.3398-0.5811,0.6601-0.8916,0.9658c0.2158-0.6328,0.4639-1.2578,0.7744-1.8594l-0.9043,1.5645
		c0.1563-0.3946,0.3301-0.7852,0.5274-1.166l-1.25,2.1621c0.0576-0.2246,0.1123-0.4512,0.1796-0.6748l1.0704-1.4873
		c-0.2823,0.3398-0.5811,0.6601-0.8916,0.9658c0.2158-0.6328,0.4638-1.2578,0.7744-1.8594l-0.9043,1.5645
		c0.1562-0.3936,0.3301-0.7842,0.5273-1.1651l-1.25,2.1621c0.0576-0.2246,0.1113-0.4502,0.1797-0.6748l1.0703-1.4873
		c-0.2822,0.3399-0.581,0.6602-0.8926,0.9658c0.2168-0.6328,0.4649-1.2578,0.7754-1.8603l-0.9043,1.5644
		c0.1563-0.3925,0.3301-0.7832,0.5274-1.164l-1.252,2.165c0.0576-0.2256,0.1123-0.4512,0.1797-0.6748l1.0723-1.4902
		c-0.2823,0.3408-0.5821,0.6611-0.8936,0.9668c0.2158-0.6328,0.4639-1.2588,0.7754-1.8614l-0.9043,1.5645
		c0.1563-0.3936,0.3301-0.7842,0.5274-1.1641l-1.25,2.1621c0.0576-0.2246,0.1113-0.4501,0.1796-0.6748l1.0704-1.4873
		c-0.2823,0.3399-0.5811,0.6602-0.8926,0.9659c0.2168-0.6329,0.4638-1.2579,0.7754-1.8604l-0.9043,1.5645
		c0.1562-0.3936,0.3301-0.7842,0.5273-1.1651l-1.251,2.1651c0.0577-0.2256,0.1114-0.4512,0.1797-0.6758l1.0713-1.4893
		c-0.2822,0.3408-0.582,0.6612-0.8935,0.9668c0.2168-0.6328,0.4648-1.2578,0.7754-1.8603l-0.9043,1.5634
		c0.1562-0.3935,0.33-0.7841,0.5273-1.165L90,43.3535c0.0576-0.2246,0.1123-0.4502,0.1797-0.6748l1.0703-1.4873
		c-0.2822,0.3398-0.5811,0.6602-0.8916,0.9658c0.2158-0.6328,0.4639-1.2578,0.7744-1.8593l-0.9043,1.5644
		c0.1563-0.3936,0.3301-0.7842,0.5274-1.165l-1.25,2.1621c0.0576-0.2256,0.1123-0.4512,0.1796-0.6748l1.0704-1.4873
		c-0.2823,0.3398-0.5811,0.6601-0.8916,0.9658c0.2158-0.6328,0.4638-1.2578,0.7744-1.8594l-0.9043,1.5635
		c0.1562-0.3926,0.3301-0.7832,0.5273-1.1641l-1.2519,2.166c0.0576-0.2255,0.1123-0.4521,0.1797-0.6757l1.0722-1.4903
		c-0.2822,0.3408-0.582,0.6612-0.8935,0.9668c0.2158-0.6328,0.4638-1.2588,0.7754-1.8613l-0.9034,1.5644
		c0.1563-0.3935,0.3291-0.7832,0.5264-1.165l-1.25,2.1621c0.0576-0.2256,0.1123-0.4502,0.1797-0.6738l1.0703-1.4883
		c-0.2822,0.3399-0.5811,0.6602-0.8916,0.9658c0.2158-0.6328,0.4639-1.2578,0.7744-1.8593l-0.9043,1.5644
		c0.1563-0.3935,0.3301-0.7842,0.5274-1.165l-1.251,2.164c0.0576-0.2256,0.1113-0.4511,0.1797-0.6748l1.0713-1.4892
		c-0.2823,0.3408-0.5821,0.6611-0.8926,0.9668c0.2158-0.6328,0.4639-1.2578,0.7744-1.8604L88.25,39.8848
		c0.1563-0.3946,0.3301-0.7842,0.5273-1.1651l-1.25,2.1631c0.0577-0.2256,0.1114-0.4512,0.1797-0.6758l1.0703-1.4873
		c-0.2822,0.3399-0.582,0.6602-0.8925,0.9658c0.2168-0.6328,0.4648-1.2578,0.7754-1.8603l-0.9043,1.5644
		c0.1562-0.3935,0.33-0.7841,0.5273-1.165l-1.25,2.1621c0.0576-0.2256,0.1123-0.4512,0.1797-0.6748l1.0703-1.4873
		c-0.2822,0.3399-0.5811,0.6602-0.8916,0.9658c0.2158-0.6328,0.4639-1.2578,0.7744-1.8593l-0.9043,1.5644
		c0.1563-0.3935,0.3301-0.7842,0.5274-1.165l-1.25,2.1621c0.0576-0.2246,0.1113-0.4502,0.1797-0.6748l1.0703-1.4873
		c-0.2823,0.3398-0.5811,0.6601-0.8926,0.9658c0.2168-0.6328,0.4648-1.2578,0.7754-1.8604l-0.9043,1.5645
		c0.1562-0.3936,0.3291-0.7832,0.5263-1.165l-1.25,2.1621c0.0577-0.2256,0.1124-0.4512,0.1797-0.6748l1.0703-1.4873
		c-0.2822,0.3398-0.581,0.6601-0.8916,0.9658c0.2159-0.6328,0.4639-1.2578,0.7745-1.8594l-0.9043,1.5644
		c0.1562-0.3935,0.33-0.7841,0.5273-1.165l-1.25,2.1621c0.0576-0.2256,0.1123-0.4512,0.1797-0.6748l1.0703-1.4873
		c-0.2822,0.3399-0.581,0.6602-0.8916,0.9658c0.2158-0.6328,0.4639-1.2578,0.7744-1.8593l-0.9043,1.5644
		c0.1563-0.3935,0.3301-0.7842,0.5274-1.165l-1.252,2.166c0.0576-0.2256,0.1123-0.4522,0.1797-0.6768l1.0723-1.4892
		c-0.2823,0.3408-0.5821,0.6611-0.8936,0.9668c0.2158-0.6328,0.4639-1.2588,0.7754-1.8614l-0.9043,1.5645
		c0.1563-0.3936,0.3301-0.7842,0.5273-1.165l-1.25,2.1621c0.0577-0.2246,0.1124-0.4502,0.1797-0.6748l1.0703-1.4873
		c-0.2822,0.3398-0.581,0.6601-0.8916,0.9658c0.2159-0.6328,0.4639-1.2578,0.7745-1.8594l-0.9043,1.5645
		c0.1562-0.3936,0.33-0.7842,0.5273-1.1651l-1.25,2.1621c0.0576-0.2256,0.1123-0.4512,0.1797-0.6748l1.0703-1.4873
		c-0.2822,0.3399-0.581,0.6602-0.8916,0.9658c0.2158-0.6328,0.4639-1.2578,0.7744-1.8593l-0.9043,1.5644
		c0.1563-0.3945,0.3291-0.7842,0.5274-1.165l-1.252,2.166c0.0576-0.2256,0.1123-0.4522,0.1797-0.6758l1.0723-1.4902
		c-0.2823,0.3408-0.5821,0.6611-0.8936,0.9668c0.2158-0.6328,0.4639-1.2588,0.7754-1.8614l-0.9043,1.5645
		c0.1563-0.3936,0.3301-0.7842,0.5273-1.165l-1.25,2.1621c0.0577-0.2256,0.1124-0.4512,0.1797-0.6748l1.0703-1.4873
		c-0.2822,0.3398-0.581,0.6601-0.8916,0.9658c0.2159-0.6328,0.4639-1.2578,0.7745-1.8594l-0.9043,1.5645
		c0.1562-0.3936,0.33-0.7842,0.5273-1.1651l-1.251,2.1651c0.0576-0.2256,0.1114-0.4512,0.1787-0.6758l1.0723-1.4893
		c-0.2822,0.3408-0.582,0.6611-0.8935,0.9668c0.2168-0.6328,0.4638-1.2588,0.7753-1.8613l-0.9043,1.5654
		c0.1563-0.3945,0.3301-0.7842,0.5274-1.166l-1.25,2.1621c0.0576-0.2246,0.1123-0.4512,0.1797-0.6748l1.0703-1.4873
		c-0.2822,0.3398-0.5811,0.6602-0.8916,0.9658c0.2158-0.6328,0.4639-1.2578,0.7744-1.8594l-0.9043,1.5645
		c0.1563-0.3936,0.3301-0.7842,0.5274-1.165l-1.25,2.1621c0.0576-0.2256,0.1123-0.4512,0.1796-0.6748l1.0704-1.4873
		c-0.2823,0.3398-0.5811,0.6601-0.8917,0.9658c0.2159-0.6328,0.4639-1.2578,0.7745-1.8594l-0.9043,1.5645
		c0.1562-0.3936,0.33-0.7842,0.5273-1.1651l-1.2519,2.166c0.0576-0.2256,0.1123-0.4521,0.1796-0.6758l1.0723-1.4902
		c-0.2822,0.3408-0.582,0.6611-0.8935,0.9668c0.2158-0.6328,0.4638-1.2588,0.7753-1.8613l-0.9043,1.5644
		c0.1563-0.3935,0.3301-0.7841,0.5274-1.165l-1.25,2.1621c0.0576-0.2256,0.1123-0.4512,0.1797-0.6748l1.0703-1.4873
		c-0.2822,0.3398-0.5811,0.6602-0.8916,0.9658c0.2158-0.6328,0.4639-1.2578,0.7744-1.8594l-0.9043,1.5645
		c0.1563-0.3936,0.3301-0.7842,0.5274-1.165l-1.25,2.1621c0.0576-0.2256,0.1123-0.4512,0.1796-0.6748l1.0704-1.4873
		c-0.2823,0.3398-0.5811,0.6601-0.8916,0.9658c0.2158-0.6328,0.4638-1.2578,0.7744-1.8594l-0.9043,1.5635
		c0.1562-0.3936,0.33-0.7832,0.5263-1.1641l-1.25,2.1621c0.0577-0.2246,0.1114-0.4502,0.1797-0.6738l1.0703-1.4883
		c-0.2822,0.3399-0.582,0.6602-0.8925,0.9658c0.2168-0.6328,0.4648-1.2578,0.7753-1.8603l-0.9042,1.5644
		c0.1562-0.3935,0.33-0.7841,0.5273-1.165l-1.25,2.1621c0.0576-0.2256,0.1123-0.4512,0.1797-0.6748l1.0703-1.4873
		c-0.2822,0.3398-0.5811,0.6602-0.8916,0.9658c0.2158-0.6328,0.4639-1.2578,0.7744-1.8594l-0.9043,1.5645
		c0.1563-0.3936,0.3301-0.7842,0.5274-1.165l-1.25,2.163c0.0576-0.2255,0.1113-0.4511,0.1796-0.6748l1.0704-1.4882
		c-0.2823,0.3398-0.5811,0.6601-0.8926,0.9658c0.2168-0.6328,0.4648-1.2578,0.7754-1.8604l-0.9053,1.5655
		c0.1562-0.3946,0.3301-0.7852,0.5283-1.1661l-1.2519,2.1651c0.0586-0.2256,0.1123-0.4512,0.1796-0.6758l1.0723-1.4893
		c-0.2822,0.3409-0.582,0.6612-0.8935,0.9668c0.2168-0.6328,0.4638-1.2578,0.7753-1.8603l-0.9042,1.5644
		c0.1562-0.3935,0.331-0.7841,0.5273-1.165l-1.251,2.1641c0.0576-0.2256,0.1113-0.4512,0.1797-0.6748l1.0713-1.4893
		c-0.2822,0.3408-0.582,0.6611-0.8926,0.9668c0.2158-0.6328,0.4639-1.2578,0.7744-1.8604L77.8662,29.5
		c0.1553-0.3936,0.3291-0.7842,0.5274-1.165l-1.251,2.164c0.0576-0.2256,0.1123-0.4511,0.1797-0.6758l1.0713-1.4882
		c-0.2823,0.3398-0.5821,0.6601-0.8926,0.9658c0.2158-0.6328,0.4638-1.2578,0.7754-1.8604l-0.9053,1.5645
		c0.1562-0.3936,0.3301-0.7832,0.5273-1.1651l-1.25,2.1622c0.0577-0.2256,0.1123-0.4512,0.1797-0.6749l1.0703-1.4873
		c-0.2822,0.3399-0.581,0.6602-0.8916,0.9659c0.2159-0.6328,0.4639-1.2578,0.7745-1.8594l-0.9043,1.5644
		c0.1562-0.3935,0.33-0.7841,0.5273-1.165l-1.3262,2.2949c-0.2373,0.1953-0.4814,0.3799-0.7275,0.5586l2.0537-2.8535
		c-4.2891,5.1748-12.2949,6.2383-12.2949,6.2383c-0.711,7.5879-14.2364,9.3965-14.2364,9.3965
		c1.167,1.7802,1.9053,3.7187,2.3584,5.6425c-0.0947,0.0059-0.3076,0.0196-0.6142,0.0313c0.0156-0.0439,0.0293-0.0879,0.0459-0.1309
		c0,0-0.0039,0-0.0059,0c0.0489-0.1318,0.0918-0.2675,0.1426-0.3994c0,0-0.25,0.0196-0.6768,0.0362
		c0.0157-0.044,0.0293-0.0879,0.0459-0.1309c0,0-0.0039,0-0.0058,0c0.0478-0.1318,0.0918-0.2686,0.1416-0.4004
		c0,0-0.249,0.0195-0.6768,0.0361c0.0157-0.0429,0.0293-0.0869,0.0459-0.1298c0,0-0.0039,0-0.0058,0
		c0.0488-0.1329,0.0918-0.2686,0.1425-0.4004c0,0-6.5761,0.5283-11.3398-1.6192c-0.0107-0.0293-0.0244-0.0576-0.0342-0.0879
		c0,0-0.0508,0.0069-0.122,0.0166c-0.0713-0.0332-0.1446-0.0644-0.2149-0.0996c-0.0537-0.1357-0.1113-0.2685-0.1572-0.4111
		c0,0-0.1074,0.0156-0.292,0.0361c-0.0733-0.1728-0.1436-0.3476-0.2031-0.5312c0,0-0.1075,0.0156-0.291,0.0361
		c-0.0733-0.1728-0.1446-0.3467-0.2032-0.5303c0,0-0.1074,0.0157-0.291,0.0362c-0.0732-0.1729-0.1445-0.3467-0.2031-0.5303
		c0,0-0.1074,0.0156-0.292,0.0361c-0.0732-0.1728-0.1436-0.3476-0.2031-0.5312c0,0-0.1075,0.0156-0.291,0.0361
		c-0.0733-0.1728-0.1446-0.3467-0.2032-0.5303c0,0-0.1074,0.0157-0.291,0.0362c-0.0732-0.1729-0.1445-0.3467-0.2031-0.5303
		c0,0-0.1074,0.0156-0.292,0.0361c-0.0732-0.1728-0.1436-0.3476-0.2031-0.5312c0,0-0.1075,0.0156-0.291,0.0361
		c-0.0733-0.1728-0.1446-0.3467-0.2032-0.5303c0,0-5.1972,0.7764-10-0.8867c-1.1875-0.4756-2.3554-1.1045-3.4218-1.9365
		l0.9238,0.793c-0.0293-0.0166-0.0567-0.0352-0.086-0.0518c-0.1142-0.083-0.2314-0.1592-0.3437-0.2471l0.1523,0.1299
		c-0.0224-0.0137-0.0449-0.0263-0.0673-0.04l-0.085-0.0899c0.0205,0.0235,0.0371,0.0489,0.0576,0.0723
		c-0.0098-0.0059-0.0205-0.0117-0.0303-0.0176l-0.5214-0.5488c0.1171,0.1387,0.2265,0.2842,0.3359,0.4277
		c-0.2285-0.1552-0.459-0.3164-0.6797-0.4873l0.7988,0.6465c0.0303,0.041,0.0547,0.085,0.085,0.127
		c-0.1309-0.0928-0.2637-0.1817-0.3897-0.2793l0.4424,0.3584c0.044,0.0625,0.084,0.1269,0.126,0.1894
		c-0.0234-0.0185-0.0498-0.0342-0.0732-0.0527l0.0839,0.0674c3.4961,5.1552,3.1143,12.247,3.1143,12.247
		c0.1738,0.0498,0.3398,0.1133,0.5049,0.1758c-0.0039,0.2041-0.0098,0.3184-0.0098,0.3184
		c0.1738,0.0498,0.3389,0.1123,0.5039,0.1758c-0.0039,0.2041-0.0097,0.3193-0.0097,0.3193
		c0.1738,0.0498,0.3388,0.1123,0.5039,0.1758c-0.0039,0.2041-0.0098,0.3183-0.0098,0.3183
		c0.1738,0.0498,0.3389,0.1123,0.5039,0.1758c-0.0039,0.2041-0.0098,0.3184-0.0098,0.3184
		c0.1748,0.0498,0.3399,0.1133,0.5049,0.1758c-0.0039,0.205-0.0097,0.3193-0.0097,0.3193c0.1738,0.0498,0.3388,0.1123,0.5039,0.1758
		c-0.0039,0.2041-0.0098,0.3183-0.0098,0.3183c0.1738,0.0498,0.3389,0.1123,0.5039,0.1758
		c-0.0039,0.2051-0.0098,0.3194-0.0098,0.3194c0.1739,0.0498,0.3399,0.1132,0.5049,0.1757
		c-0.0039,0.2041-0.0097,0.3184-0.0097,0.3184c0.1748,0.0498,0.3398,0.1133,0.5048,0.1758
		c-0.0039,0.2041-0.0097,0.3183-0.0097,0.3183c0.1045,0.0303,0.2021,0.0713,0.3037,0.1055
		c2.1748,4.7139,1.8232,11.1807,1.8232,11.1807c0.17-0.0703,0.3428-0.1299,0.5137-0.1934
		c-0.0059,0.4336-0.0186,0.6885-0.0186,0.6885c0.17-0.0703,0.3418-0.1299,0.5127-0.1934c-0.0058,0.4336-0.0185,0.6875-0.0185,0.6875
		c0.1699-0.0703,0.3418-0.1299,0.5127-0.1933c-0.0059,0.4336-0.0186,0.6875-0.0186,0.6875
		c0.1699-0.0703,0.3418-0.1299,0.5127-0.1934c-0.0058,0.4346-0.0185,0.6885-0.0185,0.6885
		c0.1699-0.0703,0.3427-0.1299,0.5136-0.1934c-0.0048,0.4336-0.0185,0.6875-0.0185,0.6875
		c0.1699-0.0703,0.3418-0.1289,0.5127-0.1933c-0.0059,0.4336-0.0186,0.6875-0.0186,0.6875
		c0.1699-0.0704,0.3428-0.1299,0.5137-0.1934c-0.0059,0.4336-0.0186,0.6885-0.0186,0.6885c0.17-0.0703,0.3418-0.1299,0.5127-0.1934
		c-0.0058,0.4336-0.0185,0.6875-0.0185,0.6875c0.1699-0.0703,0.3418-0.1299,0.5127-0.1933
		c-0.0059,0.4336-0.0186,0.6875-0.0186,0.6875c0.1699-0.0704,0.3428-0.1299,0.5137-0.1934
		c-0.0049,0.4336-0.0186,0.6885-0.0186,0.6885c0.17-0.0703,0.3418-0.1289,0.5127-0.1934c-0.0058,0.4336-0.0185,0.6875-0.0185,0.6875
		c0.1699-0.0703,0.3418-0.1289,0.5127-0.1933c-0.0049,0.4345-0.0186,0.6884-0.0186,0.6884
		c0.1699-0.0703,0.3428-0.1298,0.5137-0.1933c-0.0059,0.4336-0.0186,0.6875-0.0186,0.6875c0.17-0.0703,0.3418-0.1299,0.5127-0.1934
		c-0.0058,0.4336-0.0185,0.6875-0.0185,0.6875c0.1699-0.0703,0.3428-0.1299,0.5137-0.1933
		c-0.0049,0.4336-0.0186,0.6884-0.0186,0.6884c0.1699-0.0703,0.3418-0.1289,0.5127-0.1933
		c-0.0059,0.4336-0.0186,0.6875-0.0186,0.6875c0.17-0.0703,0.3418-0.1289,0.5127-0.1934c-0.0058,0.4336-0.0185,0.6875-0.0185,0.6875
		c0.1699-0.0703,0.3428-0.1299,0.5137-0.1933c-0.0059,0.4335-0.0186,0.6884-0.0186,0.6884
		c0.1699-0.0703,0.3418-0.1299,0.5127-0.1933c-0.0059,0.4336-0.0186,0.6875-0.0186,0.6875c0.17-0.0703,0.3418-0.1299,0.5127-0.1934
		c-0.0058,0.4346-0.0185,0.6885-0.0185,0.6885c0.1699-0.0703,0.3428-0.1299,0.5136-0.1934
		c-0.0048,0.4336-0.0185,0.6875-0.0185,0.6875c0.1699-0.0703,0.3418-0.1289,0.5127-0.1933
		c-0.0059,0.4336-0.0186,0.6875-0.0186,0.6875c0.17-0.0703,0.3418-0.1289,0.5127-0.1934c-0.0049,0.4346-0.0185,0.6885-0.0185,0.6885
		c0.1699-0.0703,0.3427-0.1299,0.5136-0.1934c-0.0058,0.4336-0.0185,0.6875-0.0185,0.6875
		c0.1699-0.0703,0.3418-0.1299,0.5127-0.1933c-0.0059,0.4336-0.0186,0.6875-0.0186,0.6875c0.17-0.0703,0.3428-0.1299,0.5137-0.1934
		c-0.0049,0.4336-0.0185,0.6885-0.0185,0.6885c0.1699-0.0703,0.3417-0.1289,0.5126-0.1934
		c-0.0058,0.4336-0.0185,0.6875-0.0185,0.6875c0.1699-0.0703,0.3418-0.1289,0.5127-0.1933
		c-0.0059,0.4336-0.0186,0.6875-0.0186,0.6875c0.17-0.0703,0.3428-0.1299,0.5137-0.1934c-0.0059,0.4336-0.0186,0.6885-0.0186,0.6885
		c0.17-0.0703,0.3418-0.1299,0.5127-0.1934c-0.0058,0.4336-0.0185,0.6875-0.0185,0.6875c0.1699-0.0703,0.3428-0.1299,0.5137-0.1933
		c-0.0049,0.4336-0.0186,0.6884-0.0186,0.6884c0.1699-0.0703,0.3418-0.1289,0.5127-0.1933
		c-0.0059,0.4336-0.0186,0.6875-0.0186,0.6875c0.17-0.0703,0.3418-0.1289,0.5127-0.1934c-0.0058,0.4336-0.0185,0.6875-0.0185,0.6875
		c0.1699-0.0703,0.3418-0.1289,0.5127-0.1933c-0.0049,0.4345-0.0186,0.6884-0.0186,0.6884c0.17-0.0703,0.3428-0.1298,0.5137-0.1933
		c-0.0059,0.4336-0.0186,0.6875-0.0186,0.6875c0.17-0.0703,0.3428-0.1299,0.5137-0.1934c-0.0049,0.4336-0.0185,0.6875-0.0185,0.6875
		c0.1699-0.0703,0.3418-0.1299,0.5127-0.1933c-0.0049,0.4345-0.0186,0.6884-0.0186,0.6884
		c0.1699-0.0703,0.3418-0.1289,0.5127-0.1933c-0.0059,0.4336-0.0186,0.6875-0.0186,0.6875c0.17-0.0703,0.3418-0.1289,0.5127-0.1934
		c-0.0048,0.4336-0.0185,0.6875-0.0185,0.6875c0.1699-0.0703,0.3428-0.1299,0.5137-0.1933
		c-0.0059,0.4336-0.0186,0.6884-0.0186,0.6884c0.1699-0.0703,0.3418-0.1298,0.5127-0.1933
		c-0.0059,0.4345-0.0186,0.6885-0.0186,0.6885c0.17-0.0704,0.3428-0.1299,0.5137-0.1934c-0.0058,0.4336-0.0185,0.6875-0.0185,0.6875
		c0.1699-0.0703,0.3418-0.1289,0.5127-0.1934c-0.0059,0.4336-0.0186,0.6875-0.0186,0.6875
		c0.1699-0.0703,0.3418-0.1289,0.5127-0.1933c-0.0049,0.4345-0.0186,0.6885-0.0186,0.6885c0.17-0.0704,0.3428-0.1299,0.5137-0.1934
		c-0.0058,0.4326-0.0185,0.6865-0.0185,0.6865c0.1699-0.0703,0.3418-0.1289,0.5127-0.1933
		c-0.0049,0.4345-0.0186,0.6894-0.0186,0.6894c0.1699-0.0703,0.3428-0.1299,0.5137-0.1933
		c-0.0059,0.4335-0.0186,0.6875-0.0186,0.6875c0.1699-0.0704,0.3418-0.129,0.5127-0.1934
		c-0.0058,0.4336-0.0185,0.6875-0.0185,0.6875c0.1699-0.0703,0.3418-0.1289,0.5127-0.1934
		c-0.0059,0.4336-0.0186,0.6875-0.0186,0.6875c0.1699-0.0703,0.3428-0.1298,0.5137-0.1933
		c-0.0059,0.4336-0.0186,0.6885-0.0186,0.6885c0.1699-0.0704,0.3418-0.1299,0.5127-0.1934
		c-0.0058,0.4336-0.0185,0.6875-0.0185,0.6875c0.1699-0.0703,0.3418-0.1299,0.5127-0.1934
		c-0.0059,0.4336-0.0186,0.6875-0.0186,0.6875c0.1699-0.0703,0.3428-0.1299,0.5137-0.1933
		c-0.0059,0.4336-0.0186,0.6884-0.0186,0.6884c0.1699-0.0703,0.3418-0.1289,0.5127-0.1933
		c-0.0059,0.4336-0.0185,0.6875-0.0185,0.6875c0.1699-0.0703,0.3427-0.1299,0.5136-0.1934
		c-0.0058,0.4336-0.0185,0.6875-0.0185,0.6875c0.1699-0.0703,0.3418-0.1289,0.5127-0.1933
		c-0.0059,0.4345-0.0186,0.6884-0.0186,0.6884c0.1699-0.0703,0.3418-0.1298,0.5127-0.1933
		c-0.0059,0.4346-0.0185,0.6885-0.0185,0.6885c0.1699-0.0703,0.3427-0.1299,0.5136-0.1934
		c-0.0049,0.4336-0.0185,0.6875-0.0185,0.6875c0.1699-0.0703,0.3418-0.1299,0.5127-0.1934
		c-0.0059,0.4336-0.0186,0.6875-0.0186,0.6875c0.1699-0.0703,0.3428-0.1298,0.5137-0.1933
		c-0.0059,0.4336-0.0186,0.6875-0.0186,0.6875c0.1699-0.0703,0.3418-0.1289,0.5127-0.1934
		c-0.0058,0.4346-0.0185,0.6885-0.0185,0.6885c0.1699-0.0703,0.3418-0.1299,0.5127-0.1934
		c-0.0059,0.4336-0.0186,0.6875-0.0186,0.6875c0.1699-0.0703,0.3428-0.1298,0.5137-0.1933
		c-0.002,0.1406-0.0039,0.2539-0.0069,0.3545c20.1729-5.9444,35.0323-24.2608,35.8028-46.1709l-0.5596,0.9678
		c0.0576-0.2256,0.1113-0.4512,0.1787-0.6758l0.3867-0.5371c0.002-0.0723,0.0039-0.1446,0.0059-0.2168
		c-0.0732,0.0752-0.1397,0.1582-0.2139,0.2314c0.0684-0.2002,0.1475-0.3975,0.2227-0.5947
		c0.0019-0.1084,0.0068-0.2158,0.0088-0.3242l-0.3604,0.623c0.1084-0.2724,0.2383-0.5381,0.3643-0.8057
		c0.001-0.0273,0.0019-0.0537,0.0019-0.081l-1.0888,1.8838c0.0576-0.2256,0.1123-0.4512,0.1797-0.6748l0.9111-1.2656
		c0-0.0176,0.001-0.0333,0.001-0.0508c-0.2364,0.2744-0.4776,0.5429-0.7334,0.7949c0.2031-0.5938,0.4384-1.1797,0.7226-1.7471
		c0-0.0078,0-0.0146,0-0.0224l-0.8525,1.4746C99.2852,50.3701,99.459,49.9795,99.6572,49.5977z M23.5801,39.1982l-0.0156-0.0166
		l0.0341,0.0284C23.5928,39.2061,23.5859,39.2021,23.5801,39.1982z M24.0742,39.6924l-0.0117-0.0127l0.0264,0.0215
		C24.084,39.6982,24.0791,39.6953,24.0742,39.6924z M24.5693,40.1865l-0.0117-0.0127l0.0264,0.0215
		C24.5791,40.1924,24.5742,40.1895,24.5693,40.1865z M25.0645,40.6807l-0.0088-0.0088l0.0195,0.0156
		C25.0713,40.6846,25.0684,40.6826,25.0645,40.6807z M25.5586,41.1758l-0.0156-0.0166l0.0351,0.0283
		C25.5713,41.1836,25.5645,41.1797,25.5586,41.1758z M26.0527,41.6699l-0.0117-0.0127l0.0264,0.0215
		C26.0625,41.6758,26.0576,41.6729,26.0527,41.6699z M26.5479,42.165l-0.0127-0.0136l0.0283,0.0234
		C26.5586,42.1709,26.5527,42.168,26.5479,42.165z M27.042,42.6592l-0.0088-0.0088l0.0195,0.0156
		C27.0488,42.6631,27.0459,42.6611,27.042,42.6592z M27.5361,43.1543l-0.0156-0.0166l0.0342,0.0283
		C27.5488,43.1621,27.542,43.1582,27.5361,43.1543z M28.0313,43.6484l-0.0127-0.0136l0.0283,0.0234
		C28.042,43.6543,28.0361,43.6514,28.0313,43.6484z M28.5254,44.1426l-0.0117-0.0127l0.0263,0.0215
		C28.5352,44.1484,28.5303,44.1455,28.5254,44.1426z M29.0205,44.6367l-0.0088-0.0088l0.0196,0.0157
		C29.0273,44.6406,29.0234,44.6387,29.0205,44.6367z M29.5146,45.1318l-0.0156-0.0166l0.0352,0.0284
		C29.5273,45.1396,29.5205,45.1357,29.5146,45.1318z M30.0088,45.626l-0.0117-0.0127l0.0263,0.0215
		C30.0186,45.6318,30.0137,45.6289,30.0088,45.626z M30.5039,46.1211l-0.0127-0.0137l0.0283,0.0235
		C30.5146,46.127,30.5088,46.124,30.5039,46.1211z M30.998,46.6152l-0.0117-0.0127l0.0264,0.0215
		C31.0078,46.6211,31.0029,46.6182,30.998,46.6152z M31.4932,47.1094l-0.0088-0.0088l0.0195,0.0156
		C31.5,47.1133,31.4961,47.1113,31.4932,47.1094z M31.9873,47.6045l-0.0127-0.0137l0.0274,0.0225
		C31.9971,47.6104,31.9922,47.6074,31.9873,47.6045z M32.4814,48.0986l-0.0117-0.0127l0.0264,0.0215
		C32.4912,48.1045,32.4863,48.1016,32.4814,48.0986z M32.9766,48.5928l-0.0088-0.0088l0.0195,0.0156
		C32.9834,48.5967,32.9805,48.5947,32.9766,48.5928z M33.4707,49.0879l-0.0117-0.0127l0.0264,0.0215
		C33.4805,49.0937,33.4756,49.0908,33.4707,49.0879z M33.9648,49.582l-0.0117-0.0127l0.0264,0.0215
		C33.9746,49.5879,33.9697,49.585,33.9648,49.582z M34.46,50.0771l-0.0127-0.0136l0.0283,0.0234
		C34.4707,50.083,34.4648,50.0801,34.46,50.0771z M34.9541,50.5713l-0.0117-0.0127l0.0264,0.0215
		C34.9639,50.5771,34.959,50.5742,34.9541,50.5713z M35.4492,51.0664l-0.0127-0.0137l0.0283,0.0235
		C35.46,51.0723,35.4541,51.0693,35.4492,51.0664z M35.9434,51.5605l-0.0118-0.0126l0.0264,0.0214
		C35.9531,51.5664,35.9482,51.5635,35.9434,51.5605z M36.4375,52.0547l-0.0117-0.0127l0.0263,0.0215
		C36.4473,52.0605,36.4424,52.0576,36.4375,52.0547z M36.9316,52.5488l-0.0117-0.0127l0.0264,0.0215
		C36.9414,52.5547,36.9365,52.5518,36.9316,52.5488z M37.4268,53.0439l-0.0088-0.0087l0.0195,0.0156
		C37.4336,53.0479,37.4307,53.0459,37.4268,53.0439z M37.9219,53.5381l-0.0088-0.0088l0.0195,0.0156
		C37.9287,53.542,37.9258,53.54,37.9219,53.5381z M38.416,54.0332l-0.0127-0.0137l0.0283,0.0235
		C38.4268,54.0391,38.4209,54.0361,38.416,54.0332z M38.9102,54.5273l-0.0118-0.0127l0.0264,0.0215
		C38.9199,54.5332,38.915,54.5303,38.9102,54.5273z M39.4043,55.0215l-0.0117-0.0127l0.0263,0.0215
		C39.4141,55.0273,39.4092,55.0244,39.4043,55.0215z M39.8994,55.5166l-0.0127-0.0137l0.0283,0.0225
		C39.9102,55.5225,39.9043,55.5195,39.8994,55.5166z M40.3936,56.0107l-0.0157-0.0166l0.0352,0.0284
		C40.4063,56.0186,40.3994,56.0146,40.3936,56.0107z M40.8887,56.5059l-0.0127-0.0137l0.0283,0.0234
		C40.8994,56.5117,40.8936,56.5088,40.8887,56.5059z M41.3828,57l-0.0127-0.0137l0.0283,0.0235
		C41.3936,57.0059,41.3877,57.0029,41.3828,57z M41.877,57.4941l-0.0118-0.0127l0.0264,0.0215
		C41.8867,57.5,41.8818,57.4971,41.877,57.4941z M42.3711,57.9883l-0.0117-0.0127l0.0263,0.0215
		C42.3809,57.9941,42.376,57.9912,42.3711,57.9883z M42.8662,58.4834l-0.0127-0.0137l0.0274,0.0225
		C42.876,58.4893,42.8711,58.4863,42.8662,58.4834z M43.3613,58.9775l-0.0088-0.0088l0.0196,0.0157
		C43.3682,58.9814,43.3652,58.9795,43.3613,58.9775z M43.8555,59.4727l-0.0127-0.0137l0.0283,0.0234
		C43.8662,59.4785,43.8604,59.4756,43.8555,59.4727z M44.3496,59.9668l-0.0117-0.0127l0.0264,0.0215
		C44.3594,59.9727,44.3545,59.9697,44.3496,59.9668z M44.8438,60.4609l-0.0118-0.0127l0.0264,0.0215
		C44.8535,60.4668,44.8486,60.4639,44.8438,60.4609z M45.3379,60.9551l-0.0117-0.0127l0.0263,0.0215
		C45.3477,60.9609,45.3428,60.958,45.3379,60.9551z M45.834,61.4512l-0.0127-0.0137l0.0283,0.0234
		C45.8447,61.457,45.8389,61.4541,45.834,61.4512z M46.3281,61.9453l-0.0127-0.0137l0.0284,0.0235
		C46.3389,61.9512,46.333,61.9482,46.3281,61.9453z M46.8223,62.4395l-0.0118-0.0127l0.0264,0.0214
		C46.832,62.4453,46.8271,62.4424,46.8223,62.4395z M47.3164,62.9336l-0.0117-0.0127l0.0264,0.0215
		C47.3262,62.9395,47.3213,62.9365,47.3164,62.9336z M47.8105,63.4287l-0.0156-0.0166l0.0342,0.0283
		C47.8232,63.4365,47.8164,63.4326,47.8105,63.4287z M48.3057,63.9229l-0.0088-0.0088l0.0195,0.0156
		C48.3125,63.9268,48.3086,63.9248,48.3057,63.9229z M48.8008,64.418l-0.0127-0.0137l0.0283,0.0234
		C48.8115,64.4238,48.8057,64.4209,48.8008,64.418z M49.2949,64.9121l-0.0117-0.0127l0.0264,0.0215
		C49.3047,64.918,49.2998,64.915,49.2949,64.9121z M49.7891,65.4062l-0.0118-0.0126l0.0264,0.0214
		C49.7988,65.4121,49.7939,65.4092,49.7891,65.4062z M50.2832,65.9014l-0.0156-0.0166l0.0351,0.0283
		C50.2959,65.9092,50.2891,65.9053,50.2832,65.9014z M50.7783,66.3955l-0.0156-0.0166l0.0352,0.0283
		C50.791,66.4033,50.7842,66.3994,50.7783,66.3955z M53.1123,49.1484c0.0156-0.0429,0.0293-0.0869,0.0459-0.1298
		c0,0-0.0039,0-0.0068,0c0.0351-0.0967,0.0693-0.1944,0.1035-0.2911c0.0322,0.1368,0.0644,0.2745,0.0928,0.4112
		C53.2764,49.1416,53.1992,49.1455,53.1123,49.1484z"/>
</g>
<g id="holly-holly">
	<g>
		<path fill="#FFFFFF" d="M36.9961,62.2559l5.7871-2.8291l-3.2031-3.3653c-1.5645-0.3818-3.8789-0.6719-6.4102,0.0342l4.4102-2.1465
			l-3.7891-3.9853c-1.2012-0.3213-3.0625-0.5977-5.1055-0.0244l3.4688-1.6905l-8.6914-9.1494l3.2891,2.6592l6.3085,5.4385
			l1.3497-2.959c-0.0645,0.3984-0.1055,0.7929-0.1172,1.1699c-0.0977,1.166,0.0371,2.2324,0.2422,3.0762L39,52.3164l1.6992-3.7578
			c-0.0976,0.5527-0.1543,1.0908-0.1738,1.6162c-0.1035,1.3779,0.0351,2.6397,0.2559,3.6865l3.9335,3.3672l2.2579-5.0068
			c-0.1426,0.7412-0.2286,1.4648-0.2657,2.164c-0.1445,1.8135,0.0371,3.4766,0.3203,4.8545l1.3262,1.1387
			c0.1445-0.417,0.334-0.8184,0.582-1.1914c0.5508-0.8359,1.3106-1.4824,2.1973-1.8965c-0.4863-2.3994-0.6562-5.124-0.0332-7.8467
			c0.0176-0.0771,0.0371-0.1572,0.0586-0.2412c0.0156-0.0566,0.0313-0.1172,0.0469-0.1767
			c0.0918-0.3438,0.1953-0.6846,0.3047-1.0235c0.0527-0.1543,0.1054-0.3134,0.164-0.4677c0,0-0.0039,0-0.0058,0
			c0.0488-0.1329,0.0918-0.2686,0.1425-0.4004c0,0-13.4921,1.0908-15.8242-6.1573c0,0-5.1972,0.7764-10-0.8867
			c-1.1875-0.4756-2.3554-1.1045-3.4218-1.9365l0.9238,0.793c-0.1367-0.0782-0.2715-0.1592-0.4024-0.2442l-0.5214-0.5488
			c0.1171,0.1387,0.2265,0.2842,0.3359,0.4277c-0.2285-0.1552-0.459-0.3164-0.6797-0.4873l0.7988,0.6465
			c3.8028,5.1797,3.3887,12.6572,3.3887,12.6572c7.3203,2.1104,6.5781,15.7364,6.5781,15.7364
			c5.002-2.0733,10.502-1.2549,14.1055-0.2686c0.123-0.2822,0.2598-0.5596,0.4316-0.8213c0.2129-0.3242,0.459-0.6152,0.7286-0.8818
			l-2.8438-2.9912C43.3203,61.6807,40.2813,61.3301,36.9961,62.2559z"/>
		<path fill="#FFFFFF" d="M73.9063,40.1797c-1.7637-0.1084-3.3184,0.3486-4.418,0.8457l-2.9375,5.0996l3.0683,0.7422
			c-0.8398,0.1387-1.6445,0.3945-2.3789,0.6719c-0.6875,0.1748-1.3144,0.3925-1.8769,0.624l-2.5703,4.4931l4.2265,1.0196
			c-2.2109,0.2324-4.3047,1.0224-5.7715,1.6279l-2.8398,4.9209c0.1992,0.5059,0.3281,1.0313,0.3672,1.5625
			c2.2129-1.5293,6.0176-3.6992,10.3984-4.208c1.4063-0.1279,2.8848-0.0937,4.42,0.1777c0,0-0.0098-0.0263-0.0196-0.0742
			c0.0117,0.0029,0.0235,0.0029,0.0332,0.0059c0,0-1.8047-6.4873-0.5625-11.6045c0.5293-2.1699,1.6035-4.0889,3.5879-5.169
			c0,0-1.9414-7.9853,1.1485-13.9687l-0.9043,1.5644c0.1562-0.3935,0.33-0.7841,0.5273-1.165l-6.9316,11.9932L73.9063,40.1797z"/>
		<path fill="#FFFFFF" d="M53.7617,56.8008c0.7149,0.0478,1.4141,0.2392,2.0606,0.5683l2.2402-3.1113
			c0.0938-2.1387-0.1309-5.1914-1.6484-8.251l3.8593,5.1612l2.7071-3.7725c0.0859-1.6084-0.0645-3.9375-1.2285-6.291l2.9316,3.9336
			l3.207-4.4649c0.0938-1.2421,0.0196-3.1211-0.9218-5.0224l2.3046,3.0937l8.1309-11.2988
			c-4.2891,5.1748-12.2949,6.2383-12.2949,6.2383c-0.711,7.5879-14.2364,9.3965-14.2364,9.3965
			C53.8457,47.5156,54.0645,53.0762,53.7617,56.8008z"/>
	</g>
	<g>
		<path fill="#FC6E51" d="M57.209,63.9561c-0.2735,0.2675-0.5176,0.5625-0.7324,0.8837c-0.0274,0.0411-0.0489,0.0909-0.0762,0.1348
			c-0.207,0.1856-0.4356,0.3438-0.6738,0.4834c-1.2989,0.9248-3.084,1.0107-4.5,0.0615c-1.8418-1.2334-2.3457-3.7285-1.1348-5.5693
			c0.3516-0.5352,0.8125-0.9502,1.3301-1.251c1.3027-0.9238,3.0957-1.0029,4.5156-0.0537
			C57.6934,59.8242,58.2168,62.1465,57.209,63.9561z"/>
		<path fill="#FC6E51" d="M55.502,67.0254c-0.2676,0.1045-0.5469,0.1875-0.8301,0.2461c-1.416,0.2842-2.8574-0.002-4.0567-0.8096
			c-0.3339-0.2236-0.6347-0.4912-0.9082-0.7783c-0.291,0.2275-0.5586,0.4912-0.7851,0.8057c-0.084,0.0986-0.168,0.205-0.2383,0.3164
			c-1.2148,1.8398-0.707,4.3339,1.1328,5.5713c1.7813,1.1923,4.1524,0.7656,5.4043-0.9317
			c0.1016-0.1191,0.1973-0.2441,0.2852-0.3769c0.1992-0.3047,0.3359-0.6299,0.4472-0.96
			C55.4961,69.1328,55.3535,68.0596,55.502,67.0254z"/>
		<path fill="#FC6E51" d="M63.0332,64.5088c-1.6738-1.125-3.8613-0.8164-5.1562,0.6269c-0.2071,0.2002-0.3946,0.4219-0.5586,0.6719
			c-1.2129,1.8389-0.7071,4.333,1.1328,5.5674c1.6718,1.1201,3.8672,0.8105,5.164-0.6318c0.2051-0.1993,0.3946-0.419,0.5528-0.667
			C65.3828,68.2354,64.8711,65.7393,63.0332,64.5088z"/>
	</g>
</g>
</svg>
