<?xml version="1.0" encoding="utf-8"?>
<!-- Generator: Adobe Illustrator 17.1.0, SVG Export Plug-In . SVG Version: 6.00 Build 0)  -->
<!DOCTYPE svg PUBLIC "-//W3C//DTD SVG 1.1//EN" "http://www.w3.org/Graphics/SVG/1.1/DTD/svg11.dtd">
<svg version="1.1" id="joy" xmlns="http://www.w3.org/2000/svg" xmlns:xlink="http://www.w3.org/1999/xlink" x="0px" y="0px"
	 viewBox="0 0 100 100" enable-background="new 0 0 100 100" xml:space="preserve">
<circle id="joy-label" fill="#A0D468" cx="50" cy="50" r="50"/>
<g id="joy-shadow">
	<path fill="#8CC152" d="M99.3975,53.2383h-0.669l0.1748-0.4942h-0.6699l0.1748-0.4951h-0.6689l0.1748-0.4941h-0.669l0.1748-0.4951
		H96.75l0.1748-0.4942h-0.6689l0.1748-0.4941h-0.67l0.1748-0.4951h-0.6689l0.1748-0.4942h-0.6689l0.1748-0.4951h-0.67l0.1748-0.4941
		h-0.6689l0.1748-0.4942h-0.6689l0.1748-0.4951h-0.67l0.1749-0.4941h-0.669l0.1748-0.4942h-0.6689l0.1748-0.4951h-0.67
		l0.1749-0.4941h-0.669l0.1748-0.4942h-0.6699l0.1748-0.4951h-0.669l0.1749-0.4941h-0.669l0.1748-0.4951h-0.6699l0.1748-0.4942
		h-0.6689l0.1748-0.4941h-0.67l0.1748-0.4942h-0.6689l0.1748-0.4951h-0.6689l0.1748-0.4951h-0.67l0.1748-0.4941h-0.6689
		l0.1748-0.4942H85.377l0.1748-0.4951h-0.67l0.1748-0.4941h-0.6689l0.1748-0.4942h-0.6699l0.1748-0.4941h-0.669l0.1748-0.4951
		h-7.3759l-1.0284,4.9453H74.916l-0.126-0.4942h-0.3681l-0.126-0.4951h-0.3682l-0.1259-0.4951h-0.3692l-0.126-0.4941h-0.3681
		l-0.126-0.4942h-0.3691l-0.126-0.4951h-0.3682l-0.126-0.4941h-0.3681l-0.126-0.4942H70.96l-0.126-0.4941h-0.3682l-0.126-0.4951
		h-7.6074l1.2451,3.6015l-0.0048,0.0049l-0.3721-0.6191l-0.1221,0.125l-0.373-0.6202l-0.1221,0.125l-0.3721-0.6191l-0.122,0.125
		l-0.3721-0.6191l-0.1221,0.125l-0.373-0.6201L61.5,38.5479l-0.3721-0.6192l-0.122,0.125l-0.3721-0.6191l-0.1221,0.125
		l-0.373-0.6201l-0.1221,0.125l-0.3721-0.6192l-0.122,0.125l-0.3731-0.6201l-0.1221,0.125l-0.372-0.6191l-0.1221,0.124
		l-0.3721-0.6182l-0.122,0.125l-0.3731-0.6201l-0.1221,0.125l-0.372-0.6191l-0.1221,0.125l-0.373-0.6192l-0.1211,0.124
		l-0.3731-0.6191l-0.1221,0.125l-0.372-0.6191l-0.1221,0.125l-0.373-0.6202l-0.1221,0.125L54.6992,31.5l-6.1269,6.2676
		c-0.1075-0.0069-0.2159-0.0127-0.3262-0.0127c-0.2041,0-0.4082,0.0127-0.6123,0.0185l-6.4063-5.6679l-1.8759,2.4248l0.6601,0.2812
		l-0.165,0.2129l0.6592,0.2813l-0.1651,0.2138L41,35.8008l-0.165,0.2129l0.6601,0.2812l-0.165,0.2129l0.6592,0.2813l-0.1651,0.2138
		l0.6592,0.2813l-0.165,0.2129l0.6601,0.2812l-0.165,0.2139l0.6592,0.2812l-0.1651,0.2129l0.126,0.0537
		c-3.0234,1.0039-5.6318,2.9239-7.502,5.4297H35.585v-0.4941h-0.4952v-0.4942h-0.4941v-0.4951h-0.4941v-0.4941h-0.4952v-0.4951
		h-0.4941v-0.4942h-0.4941v-0.4941H32.123v-0.4951h-0.4941v-0.4942h-0.4941v-0.4941h-0.4952v-0.4951h-0.4941v-0.4942h-0.4951V37.541
		h-0.4941v-0.4941h-7.1495v21.0293c0,3.5976-1.4746,4.1963-2.9062,4.1963c-0.8291,0-1.4736-0.0909-2.0742-0.2754l-0.6006,5.9922
		c0.1465,0.0595,0.333,0.1142,0.5283,0.1669l-0.0332,0.3282c0.1465,0.0586,0.332,0.1142,0.5273,0.167l-0.0332,0.3271
		c0.1465,0.0586,0.3321,0.1143,0.5274,0.167l-0.0332,0.3272c0.1465,0.0585,0.333,0.1142,0.5283,0.1669l-0.0332,0.3272
		c0.1465,0.0596,0.332,0.1143,0.5273,0.168l-0.0332,0.3271c0.1465,0.0586,0.3321,0.1143,0.5274,0.167l-0.0332,0.3272
		c0.1465,0.0585,0.332,0.1142,0.5273,0.1669l-0.0332,0.3282c0.1465,0.0586,0.333,0.1142,0.5283,0.167l-0.0332,0.3271
		c0.1465,0.0586,0.333,0.1143,0.5284,0.167l-0.0332,0.3281c0.1464,0.0586,0.332,0.1133,0.5273,0.167l-0.0332,0.3272
		c0.1465,0.0586,0.332,0.1142,0.5273,0.167l-0.0332,0.3271c0.1465,0.0586,0.3321,0.1143,0.5274,0.167l-0.0332,0.3281
		c0.1465,0.0586,0.332,0.1143,0.5283,0.167l-0.0332,0.3272c0.1465,0.0586,0.332,0.1142,0.5273,0.167l-0.0332,0.3271
		c0.1465,0.0586,0.333,0.1143,0.5284,0.167l-0.0332,0.3281c0.1464,0.0586,0.332,0.1143,0.5273,0.167l-0.0332,0.3272
		c0.1465,0.0586,0.332,0.1142,0.5273,0.167l-0.0332,0.3281c0.1465,0.0586,0.333,0.1142,0.5284,0.167l-0.0333,0.3271
		c0.1465,0.0586,0.3321,0.1143,0.5274,0.167l-0.0332,0.3272c0.1465,0.0586,0.333,0.1142,0.5283,0.167l-0.0332,0.3271
		c0.1465,0.0586,0.332,0.1143,0.5274,0.167l-0.0333,0.3281c0.1465,0.0586,0.3321,0.1143,0.5274,0.167l-0.0332,0.3272
		c0.1465,0.0586,0.332,0.1142,0.5273,0.167l-0.0332,0.3281c0.1465,0.0586,0.333,0.1142,0.5283,0.167l-0.0332,0.3271
		c0.1465,0.0586,0.3321,0.1143,0.5274,0.167l-0.0332,0.3272c0.1465,0.0586,0.333,0.1142,0.5283,0.167l-0.0332,0.3281
		c0.1465,0.0586,0.332,0.1142,0.5273,0.167l-0.0332,0.3271c0.1465,0.0586,0.3321,0.1143,0.5274,0.167l-0.0332,0.3281
		c0.1465,0.0586,0.333,0.1143,0.5283,0.167l-0.0332,0.3272c0.1465,0.0586,0.332,0.1142,0.5273,0.167l-0.0332,0.3271
		c0.1465,0.0586,0.3321,0.1143,0.5274,0.167l-0.0332,0.3281c0.1465,0.0596,0.333,0.1143,0.5283,0.167L32.25,83.8135
		c0.1465,0.0586,0.332,0.1142,0.5273,0.167l-0.0332,0.3281c0.1465,0.0586,0.333,0.1143,0.5284,0.167l-0.0332,0.3271
		c0.1464,0.0586,0.332,0.1143,0.5273,0.167l-0.0332,0.3272c0.1465,0.0586,0.332,0.1142,0.5273,0.167l-0.0332,0.3271
		c0.1465,0.0586,0.333,0.1143,0.5284,0.168l-0.0332,0.3271c0.1464,0.0586,0.332,0.1143,0.5273,0.167l-0.0332,0.3272
		c0.1465,0.0595,0.333,0.1142,0.5283,0.167l-0.0332,0.3281c0.1465,0.0586,0.332,0.1142,0.5274,0.167l-0.0332,0.3271
		c0.1464,0.0586,0.332,0.1143,0.5273,0.167l-0.0332,0.3272c0.1465,0.0586,0.333,0.1142,0.5283,0.167l-0.0332,0.3271
		c0.1465,0.0586,0.332,0.1143,0.5274,0.167l-0.0332,0.3281c0.1464,0.0586,0.332,0.1143,0.5273,0.167l-0.0332,0.3281
		c0.1465,0.0586,0.333,0.1143,0.5283,0.167l-0.0332,0.3272c0.1465,0.0586,0.332,0.1142,0.5274,0.167l-0.0332,0.3271
		c0.1464,0.0586,0.333,0.1143,0.5283,0.167l-0.0332,0.3272c0.1465,0.0586,0.332,0.1142,0.5273,0.167l-0.0332,0.3281
		c0.1465,0.0586,0.332,0.1142,0.5274,0.167l-0.0332,0.3281c0.1464,0.0586,0.333,0.1143,0.5283,0.167l-0.0332,0.3271
		c0.1465,0.0586,0.332,0.1143,0.5273,0.167l-0.0332,0.3272c0.1465,0.0586,0.333,0.1142,0.5283,0.167l-0.0332,0.3281
		c0.1465,0.0586,0.3321,0.1133,0.5274,0.167l-0.0332,0.3271c0.1465,0.0586,0.332,0.1143,0.5273,0.167l-0.0332,0.3272
		c0.1465,0.0586,0.332,0.1142,0.5274,0.167l-0.0333,0.3281c0.1465,0.0586,0.3321,0.1143,0.5284,0.167l-0.0332,0.3271
		c0.1464,0.0586,0.333,0.1143,0.5283,0.167l-0.0332,0.3272c0.1465,0.0586,0.332,0.1142,0.5273,0.167l-0.0332,0.3281
		c0.1465,0.0586,0.3321,0.1143,0.5274,0.167l-0.0332,0.3271c0.1464,0.0586,0.332,0.1143,0.5273,0.167l-0.0332,0.3272
		c0.1465,0.0595,0.333,0.1142,0.5283,0.1679l-0.0332,0.3272c0.1465,0.0586,0.3321,0.1143,0.5274,0.167l-0.0332,0.3271
		c0.1464,0.0586,0.333,0.1143,0.5283,0.167l-0.0332,0.3272c0.1465,0.0586,0.332,0.1142,0.5273,0.167l-0.0332,0.3281
		c0.1465,0.0586,0.3321,0.1143,0.5274,0.167l-0.0166,0.1592C49.0566,99.9775,49.5254,100,50,100
		c26.1885,0,47.6611-20.1387,49.8086-45.7725h-0.0908l0.1162-0.33c0.0049-0.0547,0.0088-0.1104,0.0127-0.1651h-0.624
		L99.3975,53.2383z M49.5039,37.8164c-0.1143-0.0098-0.2266-0.0254-0.3418-0.0322l0.749-0.3848L49.5039,37.8164z M50.3877,37.9121
		c-0.0039-0.001-0.0088-0.0019-0.0127-0.0019l0.0293-0.0157L50.3877,37.9121z"/>
</g>
<g id="joy-joy">
	<path fill="#FFFFFF" d="M69.5566,68.501V57.1553l-6.8242-19.7412h7.6074l1.8448,7.2431c0.5049,1.9356,0.9668,4.1963,1.3369,6.4092
		h0.0918c0.2754-2.165,0.6465-4.3809,1.1064-6.5488l1.4776-7.1035h7.3759l-6.8701,19.4638V68.501H69.5566z"/>
	<g>
		<path fill="#FFFFFF" d="M61.8721,46.0352H34.623c2.3946-4.5704,7.0176-7.8047,12.4122-8.2295l-7.6836-3.2754l1.8759-2.4248
			l6.4063,5.6679c0.2041-0.0058,0.4082-0.0185,0.6123-0.0185c0.1103,0,0.2187,0.0058,0.3262,0.0127L54.6992,31.5l1.5801,2.626
			l-7.1172,3.6582C54.6885,38.1123,59.4355,41.377,61.8721,46.0352z"/>
		<path fill="#FC6E51" d="M61.6035,60.7051h-26.709c-1.2793-2.2393-2.0195-4.8233-2.0195-7.5781c0-1.9239,0.373-3.7618,1.0205-5.46
			h28.7041c0.6504,1.6982,1.0234,3.5361,1.0234,5.46C63.623,55.8818,62.8809,58.4658,61.6035,60.7051z"/>
		<g>
			<path fill="#FFCE54" d="M40.4355,54.6143c0-1.7051-1.3925-3.0948-3.1015-3.0948c-1.7012,0-3.0908,1.3897-3.0908,3.0948
				c0,1.7041,1.3896,3.0947,3.0908,3.0947C39.043,57.709,40.4355,56.3184,40.4355,54.6143z"/>
			<path fill="#FFCE54" d="M42.125,52.3467c0.8555,0,1.5479-0.6963,1.5479-1.5479c0-0.8545-0.6924-1.5478-1.5479-1.5478
				c-0.8496,0-1.5469,0.6933-1.5469,1.5478C40.5781,51.6504,41.2754,52.3467,42.125,52.3467z"/>
			<path fill="#FFCE54" d="M45.6289,54.4756c0-0.8858-0.7275-1.6162-1.6152-1.6162c-0.8916,0-1.6192,0.7304-1.6192,1.6162
				c0,0.8916,0.7276,1.6201,1.6192,1.6201C44.9014,56.0957,45.6289,55.3672,45.6289,54.4756z"/>
			<path fill="#FFCE54" d="M49.8301,51.1416c0-0.918-0.749-1.667-1.6719-1.667c-0.9219,0-1.6719,0.749-1.6719,1.667
				c0,0.9248,0.75,1.6748,1.6719,1.6748C49.0811,52.8164,49.8301,52.0664,49.8301,51.1416z"/>
			<path fill="#FFCE54" d="M55.5801,54.3828c0-1.707-1.3887-3.0957-3.0938-3.0957c-1.706,0-3.0957,1.3887-3.0957,3.0957
				c0,1.7031,1.3897,3.0947,3.0957,3.0947C54.1914,57.4775,55.5801,56.0859,55.5801,54.3828z"/>
			<path fill="#FFCE54" d="M60.5645,56.083c0-0.7598-0.6192-1.373-1.377-1.373c-0.7598,0-1.3779,0.6132-1.3779,1.373
				c0,0.7598,0.6181,1.376,1.3779,1.376C59.9453,57.459,60.5645,56.8428,60.5645,56.083z"/>
			<path fill="#FFCE54" d="M61.3789,51.4189c0-1.1084-0.9101-2.0205-2.0215-2.0205c-1.1123,0-2.0195,0.9121-2.0195,2.0205
				c0,1.1143,0.9072,2.0235,2.0195,2.0235C60.4688,53.4424,61.3789,52.5332,61.3789,51.4189z"/>
		</g>
		<path fill="#FFFFFF" d="M35.9766,62.3311c-0.3926-0.5176-0.7559-1.0567-1.0821-1.626c2.6504,4.6435,7.6416,7.7959,13.3516,7.7959
			c5.6973,0,10.6758-3.1348,13.334-7.7569c-0.3203,0.5508-0.6738,1.0811-1.0586,1.587H35.9766z"/>
	</g>
	<path fill="#FFFFFF" d="M22.0068,37.0469h7.1495v20.6592c0,9.8251-4.9834,10.7949-9.3633,10.7949
		c-1.3828,0-2.6748-0.2324-3.3672-0.5117l0.6006-5.9922c0.6006,0.1845,1.2451,0.2754,2.0742,0.2754
		c1.4316,0,2.9062-0.5987,2.9062-4.1963V37.0469z"/>
</g>
</svg>
