<?xml version="1.0" encoding="utf-8"?>
<!-- Generator: Adobe Illustrator 17.1.0, SVG Export Plug-In . SVG Version: 6.00 Build 0)  -->
<!DOCTYPE svg PUBLIC "-//W3C//DTD SVG 1.1//EN" "http://www.w3.org/Graphics/SVG/1.1/DTD/svg11.dtd">
<svg version="1.1" id="lantern" xmlns="http://www.w3.org/2000/svg" xmlns:xlink="http://www.w3.org/1999/xlink" x="0px" y="0px"
	 viewBox="0 0 100 100" enable-background="new 0 0 100 100" xml:space="preserve">
<circle id="lantern-label" fill="#FFCE54" cx="50" cy="50" r="50"/>
<g id="lantern-shadow">
	<path fill="#F6BB42" d="M98.4883,61.2432h-0.4942V60.749H97.5v-0.4941h-0.4951v-0.4951h-0.4942v-0.4942h-0.4951v-0.4941h-0.4941
		v-0.4951h-0.4942v-0.4942h-0.4941v-0.4951h-0.4951V56.793H93.543v-0.4942h-0.4942v-0.4951h-0.4941v-0.4941h-0.4942v-0.4951h-0.4951
		v-0.4942h-0.4951v-0.4941h-0.4941v-0.4951H90.082v-0.4942h-0.4941v-0.4951h-0.4951v-0.4941h-0.4942v-0.4942h-0.4941v-0.4951
		h-0.4951v-0.4941h-0.4942v-0.4942h-0.4941V49.375H86.126v-0.4941h-0.4951v-0.4942h-0.4942v-0.4951h-0.4941v-0.4941h-0.4951v-0.4952
		h-0.4942v-0.4941h-0.4941v-0.4941h-0.4951v-0.4952h-0.4942v-0.4941h-0.4941v-0.4951h-0.4951v-0.4942h-0.4942v-0.4941h-0.4941
		v-0.4951h-0.4951v-0.4942h-0.4942V41.957H78.709v-0.4931h-0.4951v-0.4952h-0.4942v-0.4941h-0.4951v-0.4951h-0.4941v-0.4941h-0.4951
		v-0.4942h-0.4942v-0.4951h-0.4951V38.002h-0.4932v-0.4952h-0.4951v-0.4941h-0.668l-1.4726-0.4277h1.2119l-1.7012-0.4942h1.2061
		l-9.8125-2.8506l-0.125-0.3828l-0.1035,0.3174l-0.1397-0.041l-0.2519-0.7705l-0.166,0.5097l-0.3282-1.0048l-0.166,0.5117
		l-0.3291-1.0069l-0.166,0.5108l-0.3281-1.0049l-0.166,0.5107l-0.3282-1.0048l-0.166,0.5117l-0.3291-1.0069l-0.166,0.5108
		l-0.3281-1.0049l-0.166,0.5107l-0.3282-1.0048l-0.166,0.5117l-0.3291-1.0069l-0.166,0.5108l-0.3281-1.0049l-0.166,0.5108
		l-0.3291-1.0059L57.29,27.9277l-0.3281-1.0039l-0.166,0.5098l-0.3281-1.0049l-0.166,0.5117l-0.3291-1.0068l-0.1661,0.5107
		l-0.3281-1.0048l-0.166,0.5107l-0.3281-1.0049l-0.166,0.5117l-0.3291-1.0068l-0.1661,0.5107l-0.3281-1.0048l-0.166,0.5107
		l-0.3281-1.0049l-0.166,0.5117l-0.3291-1.0068l-0.1661,0.5107l-0.3281-1.0048l-0.166,0.5117l-0.3291-1.0069l-0.166,0.5098
		l-0.3272-1.0039l-0.167,0.5127l-0.3291-1.0068l-0.166,0.5097l-0.3281-1.0049l-0.166,0.5108L50.0391,20l-1.2539,3.8564
		l1.2539,1.5069l0.042-0.0498l0.4521,0.5439l0.041-0.0498l0.4336,0.5215c-0.2344-0.1855-0.5469-0.2949-0.9687-0.2949
		c-0.9473,0-1.4219,0.4756-1.4219,1.4258c0,0.6416,0.2344,1.0478,0.666,1.2568c0.1074,0.2217,0.2725,0.3867,0.4932,0.4941
		c0.0498,0.1026,0.0976,0.2071,0.1709,0.2852l-22.7832,6.5947h2.2021l-1.707,0.4942h2.2051l-1.4786,0.4277h-2.6455v1.1728h0.4952
		v0.4952h0.4941v0.4941h0.1152l8.2823,36.8018h0.3828l0.1113,0.4951h0.3838l0.0576,0.2568h-1.7754v0.9238h0.4942v0.4952h0.4951
		v0.4931h0.4941v0.4951h0.4941v0.4942h0.4952v0.4951h0.4941v0.4941h0.4951v0.4942h0.4942v0.4951h0.4941v0.4941h0.4951v0.4952h0.4942
		v0.4941h0.4941v0.4941h0.4951v0.4952H41.21v0.4941h0.4951v0.4951h0.4941v0.4942h0.4942v0.4941h0.4951v0.4951h0.4941v0.4942h0.4942
		v0.4951h0.4951v0.4941h0.4941v0.4941h0.4942v0.4952h0.4951v0.4941h0.4951v0.4941h0.4941v0.4952h0.4942v0.4941h0.4941v0.4941h0.4951
		v0.4952h0.4942v0.4941h0.4951v0.4951h0.4941v0.4942h0.4942v0.4941h0.4951v0.4941h0.4941V94.96h0.4942v0.4951h0.4951v0.4941h0.4941
		v0.4942h0.4951v0.4951h0.4942v0.4941h0.4951v0.4951h0.4941v0.4942h0.4942v0.4941h0.4941v0.4951H56.54v0.1494
		c20.6163-2.6953,37.2745-17.9394,42.0606-37.8222h-0.1123V61.2432z M51.2969,26.7012c-0.0674-0.1397-0.1514-0.2617-0.2627-0.3565
		l0.0351-0.0429l0.4375,0.5253C51.4453,26.7773,51.3721,26.7373,51.2969,26.7012z M51.79,27.1953
		c-0.0664-0.1387-0.1494-0.2617-0.2607-0.3555l0.0352-0.0419l0.4345,0.5224C51.9375,27.2705,51.8652,27.2314,51.79,27.1953z
		 M52.2852,27.6885c-0.0674-0.1377-0.1504-0.2608-0.2627-0.3545l0.0361-0.043l0.4346,0.5225
		C52.4316,27.7646,52.3594,27.7256,52.2852,27.6885z M52.7793,28.1826c-0.0674-0.1377-0.1504-0.2607-0.2617-0.3545l0.0361-0.042
		l0.4336,0.5215C52.9258,28.2588,52.8535,28.2187,52.7793,28.1826z M53.2754,28.6787c-0.0674-0.1387-0.1514-0.2617-0.2637-0.3564
		l0.0362-0.042l0.4345,0.5234C53.4209,28.7539,53.3496,28.7148,53.2754,28.6787z M53.7686,29.1729
		c-0.0674-0.1387-0.1504-0.2608-0.2618-0.3545l0.0362-0.043l0.4336,0.5225C53.915,29.248,53.8438,29.209,53.7686,29.1729z
		 M54.2627,29.667c-0.0664-0.1377-0.1494-0.2608-0.2617-0.3545l0.0361-0.043l0.4346,0.5225
		C54.4102,29.7432,54.3379,29.7031,54.2627,29.667z M54.7578,30.1621c-0.0674-0.1387-0.1504-0.2617-0.2627-0.3555l0.0362-0.0429
		l0.4345,0.5234C54.9043,30.2373,54.833,30.1982,54.7578,30.1621z M55.252,30.6562c-0.0674-0.1386-0.1504-0.2607-0.2618-0.3554
		l0.0362-0.042l0.4336,0.5224C55.3984,30.7314,55.3271,30.6924,55.252,30.6562z M55.7295,31.123
		c-0.0654-0.1259-0.1416-0.2402-0.2451-0.3281l0.0361-0.042l0.3389,0.4073L55.7295,31.123z"/>
</g>
<g id="lantern-lantern">
	<polygon fill="#F6BB42" points="71.0762,40.3652 28.9277,40.3652 36.4668,74.4678 47.6953,74.4678 47.6953,72.2061 
		52.5566,72.2061 52.5566,74.4678 63.6172,74.4678 	"/>
	<rect x="48.3652" y="56.7031" fill="#E9573F" width="3.2676" height="15.083"/>
	<path fill="#FFFFFF" d="M51.1328,52.8486c0,0.7852-0.1406,1.3985-0.4199,1.8438l-0.6738,0.9228l-1.086-0.6689
		c-0.2793-0.2256-0.3926-0.7813-0.3359-1.6758c0-1.0625,0.4746-2.4316,1.4219-4.1074
		C50.7656,50.6172,51.1328,51.8437,51.1328,52.8486z"/>
	<g>
		<rect x="25.7402" y="37.0127" fill="#FFFFFF" width="48.5176" height="1.1728"/>
		<polygon fill="#FFFFFF" points="72.834,36.0908 27.1641,36.0908 50.0391,29.4697 		"/>
		<path fill="#FFFFFF" d="M73.168,39.1104l-8.2969,36.8662H35.127l-8.2969-36.8662H73.168z M71.0762,40.3652H28.9277l7.5391,34.1026
			h11.2285v-2.2617h4.8613v2.2617h11.0606L71.0762,40.3652z"/>
		<rect x="34.2871" y="76.7285" fill="#FFFFFF" width="31.4238" height="0.9238"/>
		<polygon fill="#FFFFFF" points="64.0352,78.4082 61.6074,80 38.3926,80 36.0508,78.4082 		"/>
		<path fill="#FFFFFF" d="M51.4668,27.46c0,0.9511-0.4746,1.4267-1.4277,1.4267c-0.9473,0-1.4219-0.4756-1.4219-1.4267
			c0-0.9502,0.4746-1.4258,1.4219-1.4258C50.9922,26.0342,51.4668,26.5098,51.4668,27.46z"/>
		<polygon fill="#FFFFFF" points="51.2988,23.8564 50.0391,25.3633 48.7852,23.8564 50.0391,20 		"/>
	</g>
</g>
</svg>
