<?xml version="1.0" encoding="utf-8"?>
<!-- Generator: Adobe Illustrator 17.1.0, SVG Export Plug-In . SVG Version: 6.00 Build 0)  -->
<!DOCTYPE svg PUBLIC "-//W3C//DTD SVG 1.1//EN" "http://www.w3.org/Graphics/SVG/1.1/DTD/svg11.dtd">
<svg version="1.1" id="mountains" xmlns="http://www.w3.org/2000/svg" xmlns:xlink="http://www.w3.org/1999/xlink" x="0px" y="0px"
	 viewBox="0 0 100 100" enable-background="new 0 0 100 100" xml:space="preserve">
<circle fill="#5D9CEC" cx="50" cy="50" r="50"/>
<g id="mountains-shadow">
	<path fill="#4A89DC" d="M97.9355,63.7324l-0.3798-0.706l-0.1143,0.2119l-0.3809-0.7061l-0.1132,0.2119l-0.3809-0.707
		l-0.1133,0.2119l-0.3808-0.706l-0.1143,0.2119l-0.3799-0.7061l-0.1152,0.211l-0.3799-0.7061l-0.1142,0.2119l-0.3799-0.706
		l-0.1143,0.2119l-0.3808-0.707l-0.1133,0.2119l-0.3809-0.7061l-0.1142,0.2119l-0.3799-0.706l-0.1143,0.2119l-0.3808-0.707
		l-0.1143,0.2119l-0.3799-0.7061l-0.1142,0.2119l-0.3809-0.706l-0.1133,0.2119l-0.3808-0.707l-0.1143,0.2119l-0.3799-0.7061
		l-0.1142,0.2119l-0.3799-0.706l-0.1143,0.2119l-0.3808-0.707l-0.1143,0.2119l-0.3799-0.7061l-0.1142,0.2119l-0.3809-0.706
		l-0.1133,0.2119l-0.3808-0.707l-0.1143,0.2128l-0.3809-0.707l-0.1142,0.211l-0.3799-0.7051l-0.1143,0.2109l-0.3798-0.706
		l-0.1143,0.2119l-0.3809-0.7061l-0.1132,0.2119l-0.3809-0.707l-0.1143,0.2129l-0.3808-0.707l-0.1143,0.2114l-0.3799-0.7061
		l-0.1142,0.2119l-0.3809-0.7065l-0.1133,0.2114l-0.3808-0.706l-0.1133,0.2124l-0.3809-0.7066l-0.1132,0.2115l-0.3809-0.7061
		l-0.1143,0.2124l-0.3808-0.707l-0.1143,0.2119l-0.3799-0.7061l-0.1142,0.2115l-0.3809-0.7066l-0.1133,0.2124l-0.3808-0.7065
		l-0.1143,0.2119l-0.3799-0.7066l-0.1152,0.212l-0.3799-0.7066l-0.1142,0.2119l-0.3799-0.706l-0.1143,0.2119l-0.3808-0.7065
		l-0.1133,0.2119l-0.3809-0.7066l-0.1142,0.2119l-0.3799-0.7065l-0.1143,0.2119l-0.3798-0.706l-0.1153,0.2119l-0.3799-0.7066
		l-0.1142,0.2114l-0.3799-0.706l-0.1143,0.2124l-0.3808-0.7065L75.6836,41.48l-0.3809-0.7066l-0.1142,0.212l-0.3799-0.7061
		L64.7598,58.9375l-0.0821-0.1514l-0.1132,0.2119l-0.3809-0.707l-0.1133,0.2119l-0.3808-0.706l-0.1143,0.2129l-0.3809-0.7071
		l-0.1142,0.211l-0.3799-0.7051l-0.1143,0.2119l-0.3808-0.707l-0.1133,0.2119l-0.3809-0.707l-0.1142,0.2119l-0.3799-0.7061
		l-0.1143,0.211l-0.3798-0.7051l-0.1153,0.2119l-0.3799-0.7061l-0.1142,0.211l-0.3809-0.7061l-0.1133,0.2119l-0.3808-0.706
		l-0.1133,0.2119l-0.3809-0.707l-0.1142,0.2129l-0.3809-0.7071l-0.1142,0.211l-0.3799-0.7051l-0.1143,0.2109l-0.3799-0.706
		l-0.1142,0.2119l-0.3809-0.7061l-0.1133,0.2119l-0.3808-0.7065l-0.1143,0.2119l-0.3799-0.7065l-0.1152,0.2119l-0.3799-0.7061
		l-0.1142,0.2115l-0.3799-0.7066l-0.1143,0.2124l-0.3808-0.7065l-0.1133,0.2114l-0.3809-0.7061l-0.1142,0.212l-0.3799-0.7066
		l-0.1152,0.2119l-0.3799-0.7065l-0.1143,0.2114l-0.3799-0.706l-0.1142,0.2119l-0.3799-0.7061l-0.1143,0.2124l-0.3808-0.7065
		l-0.1133,0.2114l-0.3809-0.7061l-0.1142,0.212l-0.3804-0.7066l-0.1143,0.2119l-0.3803-0.7065l-0.1138,0.2114l-0.3804-0.706
		l-0.1142,0.2124l-0.3809-0.7066l-0.1138,0.2114l-0.3803-0.7065l-0.1143,0.2119l-0.3804-0.706l-0.1142,0.2119l-0.3804-0.7061
		l-0.1142,0.2119l-0.3804-0.7065l-0.1138,0.2109l-0.3799-0.7055l-0.1142,0.2124l-0.3809-0.7071l-0.1138,0.2115L45.3926,39.5
		l-0.1143,0.2119l-0.3804-0.706l-0.1142,0.2119l-0.3804-0.7061l-0.1142,0.2119l-0.3804-0.707l-0.1143,0.2119l-0.3803-0.7065
		l-0.1143,0.2119l-0.3799-0.7061l-0.1142,0.2119l-0.3804-0.7065l-0.1143,0.2119l-0.3803-0.7065l-0.1143,0.2119l-0.3804-0.7066
		l-0.1137,0.212l-0.3804-0.7061l-0.1143,0.2119l-0.3803-0.7065l-0.1138,0.2114l-0.3804-0.7061l-0.1142,0.212l-0.3804-0.7066
		l-0.1143,0.2124l-0.3803-0.7065l-0.1143,0.2119l-0.3804-0.7066l-0.1142,0.212l-0.3804-0.7061l-0.1142,0.2119l-0.3804-0.707
		l-0.1143,0.2119l-0.3803-0.7061l-0.1138,0.2115l-0.3804-0.7061l-0.1142,0.2124l-0.3804-0.7065l-0.1138,0.2114l-0.3808-0.7065
		l-0.1143,0.2119l-0.3799-0.7061l-0.1142,0.2119l-0.3804-0.7065l-0.1143,0.2119l-0.3803-0.706l-0.1138,0.2114l-0.3804-0.7066
		l-0.1142,0.2119l-0.3804-0.706l-0.1143,0.2119l-0.3803-0.7065L6.5962,74.8096c2.2407,3.9111,4.998,7.4873,8.1724,10.6455
		c0.1357,0.1386,0.2744,0.2754,0.413,0.4121C24.1846,94.6094,36.4595,100,50,100c22.8887,0,42.1719-15.3867,48.1055-36.376
		l-0.0557-0.1025L97.9355,63.7324z"/>
</g>
<g id="mountains-mountains">
	<path fill="#7D6959" d="M88.4023,65.5273l-4.082-5.2734l1.8174,12.2217l-6.9443-12.7598l-1.1543,9.8057l-3.6407-10.0723
		l-1.1552,14.6387l-3.6348-14.6387l-3.4736,14.1016l-0.1651-13.0283l-6.0908,7.4804l14.9297-27.7236L57.3438,72.709L69.834,95.9023
		c9.9512-4.3056,18.2197-11.7539,23.5703-21.0927L74.8086,40.2793L88.4023,65.5273z"/>
	<polygon fill="#FFFFFF" points="65.9697,60.5225 66.1348,73.5508 69.6084,59.4492 73.2432,74.0879 74.3984,59.4492 
		78.0391,69.5215 79.1934,59.7158 86.1377,72.4756 84.3203,60.2539 88.4023,65.5273 74.8086,40.2793 59.8789,68.0029 	"/>
	<path fill="#4FC1E9" d="M32.5352,26.6431L49.1519,57.502l-4.9913-6.4454l2.2227,14.9366L37.895,50.3989l-1.4111,11.9849
		l-4.4492-12.3115L30.623,67.9648l-4.4423-17.8925l-4.2456,17.2363l-0.2022-15.9238l-7.4443,9.1425L32.5352,26.6431L6.5962,74.8096
		C15.2148,89.8555,31.417,100,50,100c7.0479,0,13.752-1.4658,19.834-4.0977L57.3438,72.709L32.5352,26.6431z"/>
	<polygon fill="#FFFFFF" points="21.7329,51.3848 21.9351,67.3086 26.1807,50.0723 30.623,67.9648 32.0347,50.0723 36.4839,62.3838 
		37.895,50.3989 46.3833,65.9932 44.1606,51.0566 49.1519,57.502 32.5352,26.6431 14.2886,60.5273 	"/>
</g>
</svg>
