<?xml version="1.0" encoding="utf-8"?>
<!-- Generator: Adobe Illustrator 17.1.0, SVG Export Plug-In . SVG Version: 6.00 Build 0)  -->
<!DOCTYPE svg PUBLIC "-//W3C//DTD SVG 1.1//EN" "http://www.w3.org/Graphics/SVG/1.1/DTD/svg11.dtd">
<svg version="1.1" id="skate" xmlns="http://www.w3.org/2000/svg" xmlns:xlink="http://www.w3.org/1999/xlink" x="0px" y="0px"
	 viewBox="0 0 100 100" enable-background="new 0 0 100 100" xml:space="preserve">
<circle id="skate-label" fill="#4FC1E9" cx="50" cy="50" r="50"/>
<g id="skate-shadow">
	<path fill="#3BAFDA" d="M91.9307,74.998c-0.1504-0.1757-0.3184-0.3398-0.4971-0.497c-0.1494-0.1748-0.3164-0.3369-0.4932-0.4932
		c-0.1494-0.1758-0.3174-0.3389-0.4951-0.4941c-0.1504-0.1758-0.3164-0.3389-0.4941-0.4942
		c-0.1494-0.1758-0.3164-0.3379-0.4932-0.4941c-0.1504-0.1758-0.3184-0.3399-0.4961-0.4961
		c-0.1494-0.1748-0.3164-0.3379-0.4941-0.4932c-0.1494-0.1757-0.3164-0.3388-0.4942-0.4951
		c-0.1504-0.1758-0.3183-0.3398-0.4961-0.4961c-0.1494-0.1738-0.3154-0.3359-0.4921-0.4922
		c-0.1504-0.1757-0.3184-0.3398-0.4971-0.4961c-0.1494-0.1757-0.3154-0.3379-0.4932-0.4921
		c-0.1494-0.1758-0.3154-0.3389-0.4931-0.4942c-0.1504-0.1767-0.3184-0.3408-0.4971-0.498
		c-0.1494-0.1739-0.3164-0.3369-0.4932-0.4922c-0.1494-0.1758-0.3164-0.3379-0.4941-0.4942
		c-0.1504-0.1757-0.3174-0.3398-0.4961-0.4961c-0.1494-0.1748-0.3154-0.3378-0.4922-0.4921
		c-0.1504-0.1768-0.3184-0.3399-0.4961-0.4971c-0.1494-0.1748-0.3164-0.3379-0.4941-0.4932
		c-0.1495-0.1758-0.3164-0.3379-0.4932-0.4941c-0.1504-0.1758-0.3184-0.3399-0.4961-0.4961
		c-0.1494-0.1758-0.3164-0.3379-0.4941-0.4932c-0.1494-0.1758-0.3164-0.3388-0.4942-0.4951
		c-0.1494-0.1758-0.3174-0.3379-0.4951-0.4941c-0.1494-0.1758-0.3164-0.3389-0.4941-0.4942
		c-0.1504-0.1758-0.3174-0.3398-0.4952-0.4951c-0.1494-0.1758-0.3164-0.3389-0.4941-0.4951
		c-0.1494-0.1748-0.3164-0.3379-0.4941-0.4932c-0.1494-0.1767-0.3174-0.3398-0.4961-0.4961
		c-0.1494-0.1748-0.3155-0.3379-0.4932-0.4931c-0.5976-0.7012-1.4121-1.2422-2.498-1.6446
		c-0.1133-0.1425-0.2491-0.2695-0.4063-0.3828c-0.1299-0.1875-0.2949-0.3515-0.4922-0.4931
		c-0.1308-0.1885-0.2968-0.3526-0.4961-0.4952c-0.1308-0.1884-0.2968-0.3525-0.4951-0.4951
		c-0.1299-0.1875-0.2959-0.3506-0.4931-0.4931c-0.1309-0.1885-0.2969-0.3536-0.4961-0.4961
		c-0.1299-0.1875-0.295-0.3516-0.4932-0.4932c-0.1299-0.1885-0.2959-0.3525-0.4941-0.4951
		c-0.1309-0.1875-0.2969-0.3526-0.4952-0.4942c-0.1308-0.1884-0.2959-0.3525-0.4941-0.4951
		c-0.1309-0.1884-0.2969-0.3525-0.4951-0.4951c-0.1309-0.1875-0.2969-0.3516-0.4942-0.4941
		c-0.1308-0.1875-0.2959-0.3516-0.4941-0.4942c-0.1309-0.1875-0.2969-0.3515-0.4951-0.4941
		c-0.1299-0.1885-0.2959-0.3525-0.4942-0.4951c-0.1308-0.1875-0.2968-0.3516-0.4941-0.4932
		c-0.1309-0.1894-0.2969-0.3535-0.4961-0.4961c-0.1299-0.1875-0.2949-0.3515-0.4922-0.4931
		c-0.1308-0.1885-0.2969-0.3526-0.4951-0.4952c-0.1309-0.1884-0.2979-0.3525-0.4961-0.4951
		c-0.1299-0.1875-0.2949-0.3506-0.4922-0.4931c-0.1318-0.1885-0.2978-0.3536-0.4971-0.4961
		c-0.1298-0.1875-0.2959-0.3516-0.4931-0.4932c-0.1299-0.1885-0.2959-0.3525-0.4942-0.4951
		c-0.1308-0.1875-0.2968-0.3516-0.4951-0.4942c-0.1299-0.1884-0.2959-0.3525-0.4941-0.4941
		c-0.1309-0.1895-0.2969-0.3535-0.4961-0.4961c-0.1299-0.1875-0.2959-0.3516-0.4932-0.4941
		c-0.1308-0.1875-0.2959-0.3516-0.4941-0.4932c-0.1299-0.1885-0.2969-0.3525-0.4951-0.4951
		c-0.1309-0.1885-0.2959-0.3526-0.4942-0.4951c-0.1308-0.1875-0.2959-0.3516-0.4941-0.4932
		c-0.1309-0.1895-0.2969-0.3535-0.4961-0.4961c-0.1299-0.1875-0.2959-0.3516-0.4932-0.4932
		c-0.1299-0.1884-0.2959-0.3525-0.4951-0.4951c-0.1299-0.1885-0.2959-0.3525-0.4941-0.4951
		c-0.1309-0.1875-0.2969-0.3506-0.4942-0.4932c-0.1308-0.1884-0.2968-0.3535-0.4961-0.4961
		c-0.1298-0.1875-0.2949-0.3515-0.4931-0.4931c-0.1299-0.1885-0.2959-0.3526-0.4942-0.4951
		c-0.1308-0.1885-0.2968-0.3526-0.4961-0.4951c-0.1298-0.1875-0.2949-0.3506-0.4931-0.4932
		c-0.1309-0.1885-0.2969-0.3535-0.4951-0.4961c-0.1309-0.1875-0.2959-0.3516-0.4942-0.4941
		c-0.1308-0.1875-0.2959-0.3516-0.4941-0.4942c-0.1309-0.1875-0.2969-0.3525-0.4951-0.4951
		c-0.1309-0.1875-0.2969-0.3516-0.4942-0.4932c-0.1308-0.1884-0.2959-0.3525-0.4941-0.4941
		c-0.1309-0.1895-0.2969-0.3535-0.4961-0.4961c-0.1299-0.1875-0.2959-0.3516-0.4932-0.4932
		c-0.1299-0.1884-0.2959-0.3525-0.4941-0.4951c-0.1309-0.1875-0.2969-0.3525-0.4951-0.4951
		c-0.1309-0.1875-0.2959-0.3516-0.4942-0.4932c-0.1308-0.1884-0.2969-0.3525-0.4951-0.4951
		c-0.1299-0.1885-0.2959-0.3525-0.4941-0.4951c-0.1309-0.1875-0.2959-0.3516-0.4942-0.4932
		c-0.1299-0.1884-0.2959-0.3525-0.4941-0.4951c-0.1309-0.1885-0.2969-0.3525-0.4951-0.4951
		c-0.1309-0.1885-0.2969-0.3525-0.4952-0.4951c-0.1308-0.1875-0.2958-0.3516-0.4941-0.4942
		c-0.1309-0.1875-0.2959-0.3515-0.4941-0.4941c-0.1309-0.1875-0.2969-0.3516-0.4951-0.4941
		c-0.1309-0.1885-0.2959-0.3526-0.4942-0.4942c-0.1308-0.1885-0.2959-0.3525-0.4941-0.4941
		c-0.1309-0.1895-0.2969-0.3535-0.4942-0.4961c-0.1308-0.1875-0.2968-0.3516-0.4951-0.4942c-0.4141-0.5957-1.1152-0.998-2.417-0.998
		H24.418c-1.2071,0-2.4746,0.3145-2.4746,2.457v2.8438h0.4941v0.4941h0.4951v0.4942h0.4942v0.4941h0.4941v0.248h-1.9775v8.4727
		h0.4941v0.4941h0.4951v0.4942h0.4942v0.4941h0.4941v0.4951h0.4951v0.4952h0.4942v0.4941h0.4941v0.4941h0.4951v0.4942h0.4942v0.4941
		h0.4951v0.4961h0.4941v0.4942h0.4942v0.4941h0.4951v0.4941h0.4941v0.4942h0.2051c-0.6582,0.748-1.6338,1.248-2.9326,1.248h-4.1953
		v16.9473h0.4941v0.4941h0.4951v0.4942h0.4942v0.4951h0.4941v0.0478h-1.8408c0.1435,0.5723,0.4179,0.9698,0.8213,1.2452
		c0.1328,0.1992,0.2988,0.3613,0.4941,0.4951c0.1328,0.1982,0.2988,0.3594,0.4941,0.4931c0.1329,0.1993,0.2999,0.3614,0.4952,0.4952
		c0.1328,0.1992,0.2988,0.3613,0.4951,0.4951c0.1318,0.1982,0.2978,0.3603,0.4931,0.4931c0.0801,0.1211,0.1719,0.2295,0.2754,0.3262
		h-2.1972c-1.6856,0-2.0059,0.8848-0.711,1.9649l0.0313,0.0253c0.1221,0.1504,0.2685,0.3067,0.4629,0.4688l0.0342,0.0283
		c0.122,0.1494,0.2675,0.3047,0.4609,0.4658l0.0303,0.0254c0.122,0.1504,0.2685,0.3067,0.4638,0.4698l0.0323,0.0263
		c0.122,0.1504,0.2685,0.3067,0.4619,0.4678l0.0332,0.0273c0.122,0.1514,0.2685,0.3057,0.4619,0.4678l0.0312,0.0254
		c0.1231,0.1504,0.2686,0.3066,0.4629,0.4688l0.0332,0.0263c0.1221,0.1514,0.2676,0.3057,0.4619,0.4678l0.0303,0.0254
		c0.1231,0.1514,0.2696,0.3066,0.4639,0.4687l0.0322,0.0274c0.1221,0.1504,0.2686,0.3056,0.4629,0.4678l0.0313,0.0263
		c0.123,0.1504,0.2685,0.3057,0.4628,0.4678l0.0303,0.0254c0.1231,0.1513,0.2686,0.3066,0.4639,0.4697l0.0312,0.0254
		c0.1221,0.1514,0.2686,0.3066,0.4629,0.4687l0.0332,0.0274c0.1221,0.1504,0.2686,0.3057,0.4619,0.4668l0.0313,0.0264
		c0.1221,0.1513,0.2686,0.3066,0.4629,0.4687l0.0342,0.0283c0.122,0.1504,0.2675,0.3047,0.4609,0.4658l0.0313,0.0264
		c0.122,0.1504,0.2685,0.3057,0.4628,0.4678l0.0303,0.0244c0.1221,0.1523,0.2686,0.3086,0.4639,0.4707l0.0332,0.0273
		c0.1221,0.1504,0.2685,0.3057,0.4619,0.4668l0.0313,0.0264c0.122,0.1514,0.2685,0.3057,0.4628,0.4678l0.0332,0.0273
		c0.1221,0.1514,0.2686,0.3067,0.462,0.4678l0.0312,0.0264c0.1221,0.1504,0.2686,0.3056,0.4629,0.4677l0.0303,0.0245
		c0.122,0.1523,0.2685,0.3086,0.4638,0.4707l0.0313,0.0263c0.123,0.1514,0.2685,0.3057,0.4629,0.4678l0.0332,0.0273
		c0.1221,0.1504,0.2685,0.3057,0.4619,0.4668l0.0322,0.0274c0.1221,0.1504,0.2686,0.3057,0.4629,0.4678l0.0313,0.0263
		c0.123,0.1504,0.2685,0.3057,0.4629,0.4678l0.0302,0.0244c0.1221,0.1524,0.2686,0.3086,0.4639,0.4707l0.0312,0.0264
		c0.1231,0.1504,0.2686,0.3056,0.4629,0.4678l0.0342,0.0283c0.1221,0.1494,0.2676,0.3047,0.461,0.4658l0.0302,0.0254
		c0.1231,0.1514,0.2696,0.3066,0.4639,0.4687l0.0332,0.0274c0.1221,0.1514,0.2686,0.3066,0.4619,0.4678l0.0303,0.0253
		c0.123,0.1514,0.2685,0.3067,0.4639,0.4698l0.0302,0.0254c0.1231,0.1504,0.2696,0.3066,0.4639,0.4687l0.0312,0.0254
		c0.1221,0.1514,0.2686,0.3066,0.4629,0.4688L39.5859,89.5c0.1221,0.1504,0.2686,0.3057,0.462,0.4668l0.0322,0.0273
		c0.123,0.1504,0.2685,0.3057,0.4629,0.4678l0.0312,0.0264c0.1221,0.1504,0.2686,0.3066,0.4629,0.4687l0.0313,0.0254
		c0.122,0.1504,0.2685,0.3067,0.4629,0.4688l0.0332,0.0273c0.122,0.1504,0.2685,0.3047,0.4619,0.4668l0.0312,0.0254
		c0.1221,0.1514,0.2686,0.3066,0.4629,0.4688l0.0303,0.0253c0.1221,0.1504,0.2685,0.3067,0.4638,0.4698l0.0342,0.0283
		c0.1221,0.1504,0.2676,0.3047,0.461,0.4658l0.0312,0.0254c0.1221,0.1514,0.2686,0.3066,0.4629,0.4697l0.0303,0.0254
		c0.123,0.1504,0.2695,0.3067,0.4638,0.4688l0.0342,0.0283c0.1221,0.1494,0.2676,0.3047,0.461,0.4658l0.0302,0.0254
		c0.1231,0.1514,0.2686,0.3066,0.4639,0.4697l0.0342,0.0283c0.1221,0.1504,0.2676,0.3047,0.4609,0.4659l0.0313,0.0254
		c0.122,0.1513,0.2685,0.3066,0.4629,0.4697l0.0312,0.0254c0.1221,0.1504,0.2686,0.3066,0.4629,0.4687l0.0322,0.0264
		c0.1221,0.1504,0.2686,0.3057,0.4629,0.4678l0.0313,0.0254c0.122,0.1513,0.2685,0.3066,0.4629,0.4687l0.0302,0.0254
		c0.1231,0.1514,0.2696,0.3066,0.4639,0.4697l0.0332,0.0283c0.1221,0.1504,0.2686,0.3047,0.4619,0.4668l0.0313,0.0254
		c0.122,0.1504,0.2685,0.3067,0.4629,0.4688l0.0312,0.0263c0.1231,0.1514,0.2686,0.3057,0.4629,0.4678l0.0332,0.0274
		c0.0303,0.0371,0.0674,0.0761,0.1016,0.1132c18.1162-0.0253,33.9746-9.6855,42.7246-24.1328
		c-0.1192-0.1279-0.2383-0.2548-0.3721-0.373C92.2744,75.3164,92.1074,75.1543,91.9307,74.998z"/>
</g>
<g id="skate-skate">
	<path fill="#FC6E51" d="M21.9434,29.8008V26.957c0-2.1425,1.2675-2.457,2.4746-2.457h14.7187c2.5371,0,2.8086,1.5137,3.0742,3.0566
		c0.1309,0.7559,0.252,1.502,0.375,2.2442H21.9434z"/>
	<path fill="#7D6959" d="M22.7402,72.6602l1.0586,0.8769c1.2969,1.082,3.7383,1.9629,5.4258,1.9629H70.752
		c1.6855,0,4.1289-0.8809,5.4238-1.9629l1.0586-0.8769c1.2949-1.0801,0.9765-1.9649-0.709-1.9649h-9.1875v-2.2969
		c4.5586,0,7.5898,0,7.5898,0c1.4688,0,2.3965-0.7109,2.8379-1.7461H22.0801c0.3281,1.3125,1.3066,1.7461,3.082,1.7461h7.4766
		v2.2969h-9.1875C21.7656,70.6953,21.4453,71.5801,22.7402,72.6602z M35.8965,68.3984h28.1836v2.2969H35.8965V68.3984z"/>
	<path fill="#FFFFFF" d="M26.1387,40.0039h-4.1953v-8.4727h20.7168c0.9101,5.5,1.8574,10.1778,4.9238,14.1602l-4.4649,4.1309
		c-0.5898,0.5468-0.6289,1.4707-0.082,2.0644c0.5508,0.5918,1.4746,0.627,2.0664,0.0801l4.4492-4.1152
		c0.5664,0.5371,1.1836,1.0605,1.8594,1.5722l-3.0098,2.7774c-0.5898,0.5468-0.6269,1.4707-0.0781,2.0664
		c0.5508,0.5898,1.4727,0.6269,2.0664,0.082l3.5215-3.2578c0.6992,0.4102,1.4492,0.8125,2.2461,1.209l-2.4668,2.2773
		c-0.5937,0.5489-0.6289,1.4746-0.082,2.0684c0.5488,0.5898,1.4726,0.6289,2.0664,0.082l3.3828-3.1308
		c0.8008,0.3261,1.6348,0.6445,2.5215,0.957l-2.6016,2.4043c-0.5937,0.5469-0.6328,1.4746-0.084,2.0683
		c0.5489,0.5918,1.4766,0.6289,2.0664,0.0801l3.8086-3.5215c2.336,0.7032,4.9239,1.3692,7.8282,2.0039
		c4.2636,0.9317,5.457,3.2364,5.457,7.5313H21.9434V48.1738h4.1953C31.4082,48.1738,31.4082,40.0039,26.1387,40.0039z"/>
</g>
</svg>
