<?xml version="1.0" encoding="utf-8"?>
<!-- Generator: Adobe Illustrator 17.1.0, SVG Export Plug-In . SVG Version: 6.00 Build 0)  -->
<!DOCTYPE svg PUBLIC "-//W3C//DTD SVG 1.1//EN" "http://www.w3.org/Graphics/SVG/1.1/DTD/svg11.dtd">
<svg version="1.1" id="ski-poles" xmlns="http://www.w3.org/2000/svg" xmlns:xlink="http://www.w3.org/1999/xlink" x="0px" y="0px"
	 viewBox="0 0 100 100" enable-background="new 0 0 100 100" xml:space="preserve">
<circle id="ski-poles-label" fill="#4FC1E9" cx="50" cy="50" r="50"/>
<g id="ski-poles-shadow">
	<path fill="#3BAFDA" d="M98.6777,55.959v-0.001l-0.4941-0.4941l-0.3828-0.3828l-0.1113-0.1114v-0.001l-0.4961-0.4931l0.0019-0.001
		l-0.5195-0.5185l-0.2246-0.2237l-0.2461-0.2461v-0.0009l-0.002-0.001l-0.4922-0.4922v-0.001l-0.4394-0.4394l-0.0547-0.0547v-0.001
		l-0.4961-0.4932l0.002-0.0009l-0.4961-0.4942l-0.2246-0.2246l-0.2696-0.2695l0,0l-0.3828-0.3833l-0.1113-0.1118l0,0l-0.3828-0.3829
		l-0.1114-0.1113l0,0l-0.2558-0.2554l-0.2393-0.2392l0.001-0.0005l-0.7676-0.7656l-0.2226-0.2227v-0.0005l-0.2549-0.2549
		l-0.2393-0.2397l0,0L90,47.2803l-0.2236-0.2232l0.0009-0.0005l-0.4951-0.4936l0.001-0.0005l-0.4951-0.4941l-0.4951-0.4942v-0.0005
		l-0.4942-0.4946l-0.2246-0.2246l-0.2695-0.2695v-0.0005l-0.2559-0.2549l-0.2392-0.2393l0.0009-0.0005l-0.4375-0.435l-0.0585-0.0586
		l0.0009-0.0005l-0.4951-0.4941l-0.2695-0.2696l-0.2246-0.2246v-0.001l-0.5108-0.5102l-0.4775-0.478v-0.0005l-0.4951-0.4947
		l-0.4951-0.4941l-0.4942-0.4946v-0.0005l-0.4941-0.4937v-0.0005l-0.4942-0.4941V39.145l-0.4961-0.4941l0.001-0.0005l-0.4951-0.4946
		l-0.2471-0.2471l-0.0244-0.0239l-0.2226-0.2227v-0.001l-0.4942-0.4936V37.167l-0.4941-0.4941l-0.2227-0.2227l-0.0488-0.0488
		l-0.2236-0.2232l-0.001-0.0014l-0.4942-0.4932h0.001l-0.2558-0.2554l-0.0166-0.0161l-0.168-0.1675l-0.0547-0.0551V35.189
		l-0.3154-0.315l-0.1787-0.1792v-0.0005l-0.4942-0.4941l-0.2226-0.2227l-0.0489-0.0488l-0.2226-0.2226l-0.2256-0.2251
		l-0.2705-0.2696l0.001-0.0005l-0.4952-0.4941l-0.4941-0.4941v-0.0005l-0.4941-0.4942v-0.0005l-0.4952-0.4941l0.001-0.0005
		l-0.4951-0.4941l0.001-0.0005l-0.4961-0.4942L72.4688,29.75v-0.0005l-0.4942-0.4941l-0.4951-0.4947l0.001-0.0004l-0.4951-0.4937
		l0.0009-0.0005l-0.4951-0.4946l-0.4951-0.4942l-0.4941-0.4946v-0.0005l-0.4942-0.4936v-0.0005l-0.4951-0.4942l0.001-0.0004
		l-0.7676-0.7657L31.1914,61.584l0.6553,0.334l-0.1607,0.1611l0.6543,0.334l-0.1601,0.1601l0.6552,0.334l-0.1606,0.1612
		l0.6553,0.3339l-0.0083,0.0079l-4.2744-2.1368c0.0258,2.0948-2.0425,2.043-2.0425,2.043c-0.0786,2.043-2.0332,2.0352-2.0332,2.0352
		c-0.166,2.0761-2.1045,2.1035-2.1045,2.1035c-0.1372,0.9658-0.8677,1.5332-2.2407,1.9648c-1.312,0.4121-0.1573,1.291-0.1573,1.291
		s0.0957,0.1006,0.251,0.2598c0.0615,0.0723,0.1226,0.1309,0.169,0.1719c0.2085,0.2129,0.478,0.4844,0.7876,0.791
		c0.146,0.1484,0.3071,0.3086,0.4809,0.4824c0.1543,0.1553,0.3262,0.3272,0.5122,0.5117c0.1431,0.1446,0.3008,0.3018,0.4712,0.4707
		c0.1553,0.1573,0.3286,0.3301,0.5161,0.5166c0.146,0.1475,0.3062,0.3077,0.48,0.4795c0.04,0.041,0.082,0.084,0.125,0.126
		c0.0029,0.0029,0.0054,0.0059,0.0083,0.0088c0.1138,0.1143,0.2339,0.2344,0.3618,0.3613c0.145,0.1465,0.3057,0.3067,0.4785,0.4785
		c0.1587,0.1602,0.337,0.3379,0.5298,0.5293c0.1426,0.1446,0.2989,0.3008,0.4683,0.4678c0.1543,0.1563,0.3271,0.3291,0.5137,0.5137
		c0.0361,0.0371,0.0737,0.0752,0.1123,0.1142c0.0024,0.002,0.0044,0.0039,0.0068,0.0059c0.1167,0.1172,0.2397,0.2402,0.3711,0.3711
		c0.1279,0.1289,0.2661,0.2666,0.416,0.416c0.062,0.0625,0.1226,0.1231,0.1895,0.1895c0.0966,0.0976,0.1963,0.1972,0.3032,0.3037
		c0.0664,0.0654,0.1313,0.1318,0.2021,0.2021c0.105,0.1055,0.2144,0.2149,0.3311,0.3301c0.0425,0.043,0.0825,0.084,0.1274,0.1279
		c0.0108,0.0108,0.021,0.0215,0.0318,0.0323c0.0014,0.0019,0.0029,0.0029,0.0044,0.0039c0.0976,0.0986,0.1987,0.1992,0.3071,0.3066
		c0.0586,0.0596,0.1162,0.1172,0.1792,0.1797c0.0976,0.0976,0.1987,0.1992,0.3071,0.3066c0.0606,0.0616,0.1196,0.1211,0.1846,0.1856
		c0.1074,0.1074,0.2197,0.2197,0.3403,0.3398c0.043,0.043,0.0835,0.084,0.1284,0.1289c0.0108,0.0098,0.0205,0.0205,0.0313,0.0313
		c0.0024,0.0019,0.0049,0.0039,0.0073,0.0068c0.1021,0.1026,0.2085,0.209,0.3223,0.3223c0.0508,0.0517,0.1006,0.1006,0.1543,0.1543
		c0.0927,0.0937,0.1885,0.1885,0.292,0.292c0.0683,0.0683,0.1352,0.1357,0.209,0.2099c0.102,0.1026,0.2075,0.208,0.3212,0.3203
		c0.0557,0.0557,0.1094,0.1104,0.1685,0.169c0.1089,0.1094,0.2231,0.2226,0.3452,0.3447c0.0371,0.0371,0.0698,0.0703,0.1084,0.1084
		c0.1196,0.1211,0.2461,0.2471,0.3833,0.3828c0.0532,0.0537,0.1055,0.1065,0.1616,0.1621c0.003,0.0039,0.0059,0.0059,0.0088,0.0088
		c0.0054,0.0049,0.0113,0.0117,0.0166,0.0166c0.0811,0.0821,0.1641,0.1641,0.2525,0.252c0.0659,0.0664,0.1294,0.1308,0.2006,0.2011
		c0.105,0.1055,0.2149,0.2149,0.3326,0.3321c0.0532,0.0547,0.1045,0.1054,0.1611,0.1621c0.1069,0.1074,0.2192,0.2197,0.3398,0.3398
		c0.0582,0.0577,0.1153,0.1153,0.1768,0.1758c0.0947,0.0957,0.1924,0.1934,0.2974,0.2979c0.0605,0.0605,0.1191,0.1201,0.1836,0.1845
		c0.1049,0.1055,0.2143,0.2139,0.332,0.3311c0.0522,0.0517,0.103,0.1025,0.1582,0.1582c0.0981,0.0986,0.1992,0.2002,0.3086,0.3086
		c0.0723,0.0723,0.144,0.1445,0.2222,0.2217c0.083,0.084,0.1684,0.1699,0.2597,0.2597c0.0738,0.0743,0.1475,0.1485,0.228,0.2285
		c0.0928,0.0938,0.189,0.1895,0.292,0.2911c0.0562,0.0576,0.1109,0.1123,0.1709,0.1718c0.0982,0.0987,0.1988,0.1993,0.3081,0.3086
		c0.0733,0.0733,0.147,0.1465,0.2261,0.2266c0.0801,0.0801,0.1616,0.1611,0.249,0.248c0.0738,0.0743,0.146,0.1465,0.2261,0.2266
		c0.0982,0.0986,0.2007,0.2012,0.3101,0.3096c0.0503,0.0508,0.0976,0.0986,0.1513,0.1513c0.1114,0.1123,0.2281,0.2286,0.354,0.3536
		c0.0508,0.0517,0.0997,0.1005,0.1534,0.1543c0.0034,0.0039,0.0068,0.0068,0.0102,0.0097c0.0059,0.0059,0.0113,0.0117,0.0171,0.0176
		c0.1016,0.1025,0.208,0.208,0.3208,0.3203c0.0518,0.0518,0.1026,0.1026,0.1572,0.1572c0.0059,0.0069,0.0118,0.0118,0.0176,0.0176
		c0.0894,0.0899,0.1817,0.1817,0.2798,0.2803c0.0488,0.0488,0.0923,0.0928,0.144,0.1445c0.127,0.127,0.2627,0.2637,0.4097,0.4092
		c0.0415,0.041,0.0816,0.0811,0.125,0.124c0.0054,0.0059,0.0103,0.0117,0.0156,0.0166c0.0035,0.003,0.0059,0.0059,0.0093,0.0088
		c0.0952,0.0957,0.1944,0.1953,0.3003,0.3008c0.0576,0.0566,0.1138,0.1133,0.1748,0.1748c0.0044,0.0039,0.0078,0.0078,0.0117,0.0117
		c0.0015,0.001,0.003,0.0029,0.0044,0.0049c0.1001,0.0996,0.2041,0.2031,0.315,0.3145c0.0478,0.0468,0.0923,0.0918,0.143,0.1425
		c0.1211,0.1221,0.25,0.25,0.3882,0.3887c0.0269,0.0264,0.0498,0.0488,0.0772,0.0762c0.1196,0.1211,0.2465,0.248,0.3838,0.3847
		c0.0561,0.0567,0.1113,0.1114,0.1709,0.17c0.0034,0.0039,0.0068,0.0078,0.0102,0.0107c0.0903,0.0908,0.1831,0.1836,0.2827,0.2822
		c0.0659,0.0664,0.1304,0.1319,0.2017,0.2032c0.105,0.1054,0.2143,0.2138,0.332,0.33c0.0357,0.0362,0.0669,0.0684,0.104,0.1055
		c0.1211,0.1221,0.25,0.25,0.3892,0.3887c0.0522,0.0527,0.1035,0.1035,0.1592,0.1592c0.0078,0.0087,0.0151,0.0156,0.0224,0.0224
		c0.0864,0.0879,0.1748,0.1758,0.2695,0.2695c0.0684,0.0684,0.1353,0.1368,0.209,0.209c0.0015,0.002,0.003,0.0039,0.0044,0.0049
		c0.0005,0.001,0.0015,0.001,0.002,0.002c0.0991,0.0996,0.2021,0.2021,0.3125,0.3115c0.0039,0.0039,0.0083,0.0088,0.0122,0.0127
		c0.0322,0.0322,0.0591,0.0596,0.0923,0.0928c0.1323,0.1338,0.2754,0.2754,0.4292,0.4296c0.0385,0.0372,0.0757,0.0752,0.1157,0.1153
		c0.0068,0.0068,0.0132,0.0137,0.02,0.0195c0.0015,0.002,0.0029,0.0039,0.0039,0.0039c0.0952,0.0957,0.1939,0.1944,0.2993,0.2988
		c0.0537,0.0547,0.104,0.1055,0.1612,0.1622c0.1128,0.1132,0.2319,0.2324,0.3598,0.3593c0.0474,0.0479,0.0928,0.0938,0.1426,0.1426
		c0.1152,0.1162,0.2363,0.2373,0.3672,0.3672c0.0356,0.0352,0.0679,0.0684,0.105,0.1055c0.1098,0.1103,0.2251,0.2256,0.3501,0.3496
		c0.062,0.0625,0.123,0.124,0.1899,0.1904c0.001,0.001,0.002,0.002,0.0029,0.0029c0.0015,0.002,0.0035,0.0039,0.0049,0.0049
		c0.0913,0.0918,0.1856,0.1856,0.2867,0.2862c0.0615,0.0615,0.1206,0.121,0.1865,0.1865c0.1108,0.1123,0.2275,0.2285,0.353,0.3525
		c0.0405,0.041,0.0786,0.0791,0.1206,0.1211c0.0117,0.0117,0.0225,0.0225,0.0342,0.0342c0.001,0.001,0.0024,0.0029,0.0034,0.0039
		c0.0913,0.0908,0.1846,0.1846,0.2852,0.2842c0.0703,0.0713,0.1401,0.1406,0.2163,0.2168c0.0976,0.0976,0.1982,0.1992,0.3061,0.3066
		c0.0464,0.0469,0.0899,0.0899,0.1387,0.1387c0.1196,0.1201,0.2461,0.2461,0.3828,0.3828c0.044,0.043,0.0864,0.0859,0.1328,0.1328
		c0.0054,0.0049,0.0108,0.0098,0.0161,0.0156c0.003,0.003,0.0054,0.0059,0.0078,0.0078c0.0777,0.0782,0.1612,0.1612,0.2452,0.2452
		C49.8237,99.9941,49.9111,100,50,100c25.3027,0,46.2041-18.8008,49.5264-43.1934l-0.626-0.625L98.6777,55.959z M33.8164,63.9043
		l-0.1934-0.0957c0.0083-0.002,0.0137-0.002,0.0215-0.0039l0.1802,0.0918L33.8164,63.9043z M34.3105,64.3994l-0.1928-0.0967
		c0.0083-0.0019,0.0136-0.0019,0.0215-0.0039l0.1796,0.0918L34.3105,64.3994z M34.8047,64.8945l-0.1924-0.0966
		c0.0083-0.002,0.0137-0.003,0.022-0.004l0.1787,0.0918L34.8047,64.8945z M35.2998,65.3887l-0.1929-0.0967
		c0.0083-0.001,0.0132-0.002,0.021-0.0029l0.1797,0.0918L35.2998,65.3887z M35.7944,65.8828l-0.1923-0.0967
		c0.0078-0.0009,0.0126-0.0019,0.0205-0.0029l0.1801,0.0918L35.7944,65.8828z M36.2886,66.377l-0.1924-0.0958
		c0.0078-0.0019,0.0127-0.0019,0.0205-0.0039l0.1797,0.0918L36.2886,66.377z M36.7832,66.8711l-0.1929-0.0957
		c0.0078-0.002,0.0132-0.002,0.021-0.0039l0.1797,0.0918L36.7832,66.8711z M37.2778,67.3662l-0.1933-0.0967
		c0.0083-0.0019,0.0136-0.0019,0.0215-0.0039l0.1801,0.0918L37.2778,67.3662z"/>
	<path fill="#3BAFDA" d="M99.1152,53.9453l-0.4951-0.4951l-0.9892-0.9893l-0.4942-0.4941l-0.9883-0.9888l-1.4843-1.4834
		l-1.4834-1.4839h-0.001l-0.1328-0.1328v-0.0005l-2.4063-2.4057l-2.4043-2.4058l-1.4843-1.4834V41.582l-1.4834-1.4834
		l-1.4834-1.4834l-3.461-3.4614l-0.6289-0.6279l-0.1797-0.1807l-0.1816-0.1806l-0.1328-0.1334l-0.9219-0.9223l-0.9229-0.9224
		l-1.4834-1.4834l-0.4941-0.4946l-1.4844-1.4829l-0.4941-0.4951l-0.4941-0.4942l-2.7422-2.7422l-2.4727-2.4726l-0.4951-0.4942
		l-0.4951-0.4946l-0.7657,0.7652l0.9893,0.9892l5.3066,5.3071l0.8975,0.8975l5.3057,5.3057l0.4951,0.4946l0.6894,0.689
		l0.9278,0.9282l0.0605,0.061l0.0313,0.0308l0.582,0.583l0.3145,0.3144l0.1211,0.1202l0.2402,0.2402l0.2246,0.2256l0.3594,0.3584
		l0.3603,0.3608l0.1787,0.1782l1.4825,1.4834l0.9902,0.9893l2.832,2.833l1.1231,1.123l0.3613,0.3604l0.9883,0.9893l1.6172,1.6171
		l2.3398,2.3389l1.6172,1.6172l1.3496,1.3496l1.1231,1.1231l0.7861,0.7861c0.0556-0.459,0.1084-0.919,0.1494-1.3818l-0.1699-0.1709
		L99.1152,53.9453z"/>
	<path fill="#3BAFDA" d="M99.6699,46.7168l-0.1279-0.1274l-0.3662-0.3667l0,0l-0.4942-0.4947l-0.4951-0.4946l-0.1592-0.1592
		l-0.041-0.04l-0.2939-0.2954l-0.001,0.0005l-0.0459-0.0464l-0.2236-0.2246l-0.2246-0.2237v0.0005l-0.1582-0.1597l-0.959-0.958
		l-0.3653-0.3667l-0.0009,0.0005l-0.1592-0.1591l-0.168-0.168l-0.167-0.1675l-0.0801-0.0796l-0.415-0.415v0.0005l-0.1279-0.1285
		l-0.3662-0.3667l-0.1592-0.1591l-0.04-0.0401l-0.295-0.2954v0.0005l-0.4941-0.4946v0.0005l-0.1289-0.1285l-0.3662-0.3667
		l-0.9893-0.9892v0.0005l-0.1279-0.128l-0.3662-0.3667l0,0l-0.4942-0.4946l-0.4941-0.4946l-0.001,0.0005l-0.1592-0.1597
		l-0.1679-0.168l-0.168-0.1674l-0.0801-0.0796l-0.414-0.4146v0.0005v-0.0005l-0.4942-0.4946l-0.3847-0.3843l-0.6036-0.605
		l-0.0009,0.0005l-0.128-0.1279l-0.3662-0.3667h-0.001l-0.4941-0.4946l-0.4941-0.4947v0.0005l-0.1289-0.1284l-0.0313-0.0312h0.001
		l-0.251-0.2515l-0.084-0.084l-0.2187-0.2178l-0.2754-0.2763l-0.0547-0.0533l-0.4404-0.4414l-0.9893-0.9892v0.0005l-0.2705-0.271
		h-0.001l-0.1133-0.1133l-1.0976-1.0996l-0.001,0.0005l-0.2881-0.2876l-0.207-0.2075l-0.1631-0.1631l-0.3311-0.3311v0.0005
		l-0.4941-0.4951l0,0l-0.4941-0.4946l-0.4942-0.4947l-0.001,0.0005l-0.1591-0.1597l0,0l-0.416-0.415l-0.4141-0.4145v0.0004
		l-0.1582-0.1591v-0.0005l-0.5508-0.5503l-0.0566-0.0557l-0.292-0.2925l-0.0908-0.0903l-0.9883-0.9888l-0.1114-0.1118
		l-0.8789-0.8779h0.001l-0.9892-0.9883v-0.0005l-0.5508-0.5503l-0.0547-0.0556l-0.1914-0.1914l-0.1914-0.1915l-0.0567-0.0556
		l-0.5498-0.5508h-0.0009l-0.4942-0.4941l-3.4287,3.4311l1.0986,1.1001v-0.0005l0.4942,0.4947v-0.0005l0.4951,0.4956l0.001-0.0005
		l0.4931,0.4946l0.001-0.0005l0.4942,0.4951l0.4941,0.4947v-0.0005l0.4941,0.4946l0.4942,0.4946l0.0009-0.0004l0.4942,0.4951
		l0.001-0.0005l0.4941,0.4951v-0.0005l0.4941,0.4946l0.1583,0.1587l0,0l0.4941,0.4947l0.4941,0.4941l0.1123,0.1118l0.0049,0.0044
		l0.2188,0.2202l0.1601,0.1582l-0.001,0.0005l0.5499,0.5503l0.0566,0.0557l0.3828,0.3828l1.0996,1.1006l0.4951,0.4946l0.001-0.0005
		l0.3828,0.3833l0.1114,0.1113l0.3828,0.3829l0.1113,0.1118l0.4941,0.4946l0.4395,0.439l0.5498,0.5503l0.001-0.0005l0.9882,0.9892
		l0.9883,0.9893l0.3828,0.3828l1.1016,1.1006l0.2246,0.2246V39.604l0.1582,0.1587l0.959,0.9585l0.0293,0.0308l0.252,0.2519
		l0.0839,0.084l0.709,0.7085l0.0264,0.0259l0.2549,0.2548l0.7636,0.7642v-0.0005l0.4395,0.439l0.0107,0.0112l0.2686,0.2695
		l0.2695,0.2696l0.9903,0.9892l0.2246,0.2246l0.1582,0.1582l0.9883,0.9893l1.1015,1.1006l0.3828,0.3828l1.0996,1.1006l0.001-0.0005
		L95.0908,49h0.001l0.1582,0.1582l0.4941,0.4946l0.0547,0.0557l0.4395,0.439l1.0996,1.1005l0.2246,0.2247h0.001l0.1582,0.1582
		l1.1006,1.1005l0.4941,0.4942l0.5293,0.5293C99.9375,52.5137,100,51.2646,100,50c0-1.0269-0.041-2.0435-0.1016-3.0547
		L99.6699,46.7168L99.6699,46.7168z"/>
</g>
<g id="ski-poles-ski-poles">
	<g>
		<path fill="#FFFFFF" d="M29.0474,61.2734l4.9658,2.4825c0,0-1.0562,0.0488-2.0962,0.75
			c-0.5689,0.3847-1.1792,1.0683-1.4995,1.8095c-0.6851,1.5869-1.4439,2.7666-3.4468,3.794c-1.7773,0.914-1.9658,1.999-1.999,2.5527
			c-0.0279,0.4453,0.1699,1.0332-0.4683,1.3262c-0.4272,0.1963-0.7358-0.086-1.1035-0.4151
			c-1.3091-1.1709-2.9307-2.8623-2.9307-2.8623s-1.1547-0.8789,0.1573-1.291c1.373-0.4316,2.1035-0.999,2.2407-1.9648
			c0,0,1.9385-0.0274,2.1045-2.1035c0,0,1.9546,0.0078,2.0332-2.0352C27.0049,63.3164,29.0732,63.3682,29.0474,61.2734z"/>
		<polygon fill="#FFFFFF" points="32.2051,62.1016 68.5137,25.7935 67.7461,25.0278 31.1914,61.584 		"/>
		
			<rect x="68.4301" y="20.8167" transform="matrix(-0.7069 0.7073 -0.7073 -0.7069 135.1047 -6.85)" fill="#FFFFFF" width="1.0831" height="7.5044"/>
		
			<rect x="70.7544" y="19.5828" transform="matrix(-0.7066 -0.7076 0.7076 -0.7066 106.5045 88.1762)" fill="#FFFFFF" width="1.5547" height="4.8524"/>
	</g>
	<g>
		<path fill="#FFFFFF" d="M33.209,69.5215c-0.0786,2.041-2.0342,2.0332-2.0342,2.0332c-0.1665,2.0781-2.1035,2.1045-2.1035,2.1045
			c-0.1387,0.9648-0.8677,1.5322-2.2407,1.9648c-1.3125,0.4131-0.1563,1.292-0.1563,1.292s1.6196,1.6895,2.9297,2.8613
			c0.3667,0.3291,0.6758,0.6094,1.1035,0.4141c0.6372-0.293,0.4404-0.8809,0.4673-1.3281c0.0332-0.5508,0.2231-1.6367,2-2.5498
			c2.0024-1.0283,2.7607-2.208,3.4458-3.793c0.3213-0.7422,0.9316-1.4258,1.5005-1.8115c1.0386-0.7012,2.0952-0.75,2.0952-0.75
			l-4.9648-2.4805C35.2764,69.5713,33.209,69.5215,33.209,69.5215z"/>
		<polygon fill="#FFFFFF" points="38.4082,68.3047 74.7168,31.9976 73.9512,31.2319 37.3945,67.7871 		"/>
		
			<rect x="74.6341" y="27.0204" transform="matrix(-0.7076 0.7066 -0.7066 -0.7076 150.1128 -0.577)" fill="#FFFFFF" width="1.0834" height="7.5037"/>
		
			<rect x="76.9562" y="25.7866" transform="matrix(-0.7071 -0.7071 0.7071 -0.7071 112.7482 103.1301)" fill="#FFFFFF" width="1.5564" height="4.852"/>
	</g>
</g>
</svg>
