<?xml version="1.0" encoding="utf-8"?>
<!-- Generator: Adobe Illustrator 17.1.0, SVG Export Plug-In . SVG Version: 6.00 Build 0)  -->
<!DOCTYPE svg PUBLIC "-//W3C//DTD SVG 1.1//EN" "http://www.w3.org/Graphics/SVG/1.1/DTD/svg11.dtd">
<svg version="1.1" id="skis" xmlns="http://www.w3.org/2000/svg" xmlns:xlink="http://www.w3.org/1999/xlink" x="0px" y="0px"
	 viewBox="0 0 100 100" enable-background="new 0 0 100 100" xml:space="preserve">
<circle id="skis-label" fill="#5D9CEC" cx="50" cy="50" r="50"/>
<g id="skis-shadow">
	<path fill="#4A89DC" d="M99.8896,50.3408c-0.0458-0.0459-0.0947-0.0888-0.1435-0.1318c-0.0459-0.0528-0.0918-0.1045-0.1406-0.1533
		c-0.0352-0.0352-0.0742-0.0684-0.1114-0.1016c-0.0322-0.0361-0.0644-0.0742-0.0986-0.1084
		c-0.0488-0.0488-0.1016-0.0947-0.1543-0.1416c-0.043-0.0479-0.0859-0.0977-0.1308-0.1426
		c-0.0352-0.0351-0.0743-0.0683-0.1114-0.1015c-0.0322-0.0362-0.0644-0.0743-0.0986-0.1084
		c-0.0459-0.0459-0.0947-0.0889-0.1436-0.1319c-0.0459-0.0527-0.0918-0.1045-0.1406-0.1533
		c-0.0381-0.0391-0.081-0.0742-0.1221-0.1113c-0.0293-0.0322-0.0576-0.0664-0.0888-0.0977
		c-0.044-0.0439-0.0918-0.0859-0.1387-0.1279c-0.0469-0.0537-0.0947-0.1074-0.1445-0.1572
		c-0.0371-0.0371-0.0772-0.0713-0.1172-0.1075c-0.0313-0.0341-0.0615-0.0703-0.0938-0.1025
		c-0.0459-0.0459-0.0947-0.0889-0.1445-0.1318c-0.0449-0.0518-0.0908-0.1045-0.1387-0.1524
		c-0.0371-0.0371-0.0771-0.0713-0.1162-0.1064c-0.0312-0.0342-0.0615-0.0703-0.0947-0.1035
		c-0.0459-0.0459-0.0947-0.0889-0.1436-0.1319c-0.0459-0.0527-0.0918-0.1045-0.1406-0.1533
		c-0.0351-0.0351-0.0742-0.0684-0.1113-0.1016c-0.0322-0.0361-0.0645-0.0742-0.0986-0.1084
		c-0.0469-0.0468-0.0977-0.0918-0.1485-0.1367c-0.0449-0.0498-0.0889-0.1006-0.1357-0.1474
		c-0.0371-0.0371-0.0772-0.0713-0.1162-0.1065c-0.0323-0.0351-0.0625-0.0713-0.0948-0.1035
		c-0.0459-0.0459-0.0957-0.0889-0.1445-0.1328c-0.0459-0.0518-0.0918-0.1035-0.1396-0.1524
		c-0.0372-0.0371-0.0772-0.0712-0.1163-0.1064c-0.0312-0.0342-0.0615-0.0703-0.0937-0.1025
		c-0.0459-0.0459-0.0947-0.0889-0.1436-0.1319c-0.0459-0.0527-0.0918-0.1045-0.1406-0.1533
		c-0.0381-0.0381-0.0801-0.0742-0.1211-0.1113c-0.0303-0.0322-0.0586-0.0664-0.0898-0.0977
		c-0.044-0.0439-0.0918-0.0849-0.1387-0.1269c-0.0469-0.0537-0.0947-0.1084-0.1445-0.1582
		c-0.0371-0.0371-0.0772-0.0713-0.1162-0.1065c-0.0313-0.0342-0.0616-0.0703-0.0948-0.1035
		c-0.0439-0.0439-0.0918-0.085-0.1386-0.1269c-0.0469-0.0538-0.0948-0.1084-0.1446-0.1582c-0.039-0.0391-0.081-0.0752-0.122-0.1124
		c-0.0303-0.0322-0.0586-0.0664-0.0899-0.0976c-0.0459-0.0459-0.0947-0.0879-0.1435-0.1318
		c-0.0459-0.0518-0.0918-0.1036-0.1397-0.1524c-0.0371-0.0371-0.0771-0.0713-0.1162-0.1064
		c-0.0322-0.0352-0.0625-0.0713-0.0947-0.1036c-0.044-0.0439-0.0918-0.0849-0.1387-0.1269
		c-0.0469-0.0537-0.0947-0.1084-0.1445-0.1582c-0.0391-0.0391-0.0811-0.0752-0.1221-0.1113
		c-0.0293-0.0332-0.0586-0.0664-0.0889-0.0977c-0.0459-0.0459-0.0947-0.0889-0.1435-0.1318
		c-0.0459-0.0528-0.0918-0.1045-0.1406-0.1533c-0.0391-0.0391-0.0811-0.0752-0.1221-0.1124
		c-0.0303-0.0322-0.0586-0.0664-0.0889-0.0966c-0.0439-0.044-0.0918-0.086-0.1387-0.128c-0.0468-0.0537-0.0947-0.1074-0.1445-0.1572
		c-0.0371-0.0371-0.0771-0.0713-0.1162-0.1064c-0.0312-0.0342-0.0615-0.0703-0.0947-0.1035
		c-0.0459-0.0459-0.0947-0.0889-0.1436-0.1319c-0.0459-0.0517-0.0918-0.1035-0.1396-0.1523
		c-0.0371-0.0371-0.0772-0.0713-0.1162-0.1065c-0.0313-0.0342-0.0616-0.0703-0.0948-0.1035
		c-0.0459-0.0459-0.0947-0.0889-0.1435-0.1318c-0.0459-0.0528-0.0918-0.1045-0.1406-0.1533
		c-0.0371-0.0372-0.0772-0.0713-0.1163-0.1065c-0.0322-0.0351-0.0625-0.0713-0.0947-0.1035
		c-0.0439-0.044-0.0918-0.0859-0.1396-0.1279c-0.0469-0.0537-0.0938-0.1075-0.1436-0.1573c-0.0381-0.038-0.081-0.0742-0.1221-0.1113
		c-0.0292-0.0322-0.0576-0.0664-0.0888-0.0976c-0.0459-0.0459-0.0957-0.0889-0.1445-0.1329
		c-0.0459-0.0517-0.0918-0.1035-0.1397-0.1523c-0.0371-0.0371-0.0771-0.0713-0.1152-0.1064
		c-0.0323-0.0342-0.0625-0.0704-0.0948-0.1026c-0.0459-0.0459-0.0947-0.0889-0.1435-0.1318
		c-0.0459-0.0528-0.0918-0.1045-0.1406-0.1533c-0.0371-0.0372-0.0772-0.0713-0.1162-0.1075
		c-0.0323-0.0341-0.0625-0.0703-0.0948-0.1025c-0.0459-0.0459-0.0947-0.0889-0.1445-0.1318
		c-0.0449-0.0518-0.0908-0.1045-0.1387-0.1524c-0.0371-0.0371-0.0771-0.0713-0.1162-0.1074
		c-0.0322-0.0342-0.0625-0.0703-0.0947-0.1025c-0.0459-0.0459-0.0947-0.0889-0.1436-0.1319
		c-0.0459-0.0527-0.0918-0.1045-0.1406-0.1533c-0.0352-0.0352-0.0742-0.0684-0.1113-0.1016
		c-0.0323-0.0361-0.0645-0.0742-0.0987-0.1084c-0.0478-0.0478-0.0986-0.0918-0.1494-0.1367
		c-0.0439-0.0508-0.0879-0.1006-0.1347-0.1474c-0.0371-0.0372-0.0772-0.0713-0.1162-0.1065
		c-0.0323-0.0351-0.0625-0.0713-0.0948-0.1035c-0.0459-0.0459-0.0947-0.0889-0.1435-0.1318
		c-0.0459-0.0528-0.0918-0.1045-0.1407-0.1534c-0.0371-0.0371-0.0771-0.0712-0.1162-0.1064
		c-0.0312-0.0342-0.0615-0.0703-0.0937-0.1025c-0.0459-0.045-0.0947-0.0879-0.1436-0.1309
		c-0.0459-0.0527-0.0918-0.1055-0.1406-0.1543c-0.0371-0.0371-0.0771-0.0713-0.1162-0.1064
		c-0.0313-0.0342-0.0615-0.0704-0.0947-0.1036c-0.0459-0.0459-0.0948-0.0888-0.1436-0.1318
		c-0.0459-0.0518-0.0908-0.1035-0.1396-0.1523c-0.0371-0.0372-0.0772-0.0713-0.1162-0.1075
		c-0.0323-0.0341-0.0625-0.0703-0.0948-0.1025c-0.0468-0.0469-0.0976-0.0918-0.1484-0.1367
		c-0.0449-0.0498-0.0889-0.1006-0.1358-0.1475c-0.0332-0.0332-0.0703-0.0644-0.1054-0.0976
		c-0.0352-0.0381-0.0684-0.0772-0.1045-0.1133c-0.0469-0.0469-0.0977-0.0918-0.1485-0.1358
		c-0.0439-0.0507-0.0888-0.1015-0.1357-0.1484c-0.0371-0.0371-0.0771-0.0713-0.1162-0.1064
		c-0.0322-0.0352-0.0625-0.0713-0.0947-0.1036c-0.044-0.0439-0.0918-0.0859-0.1397-0.1279
		c-0.0469-0.0537-0.0937-0.1074-0.1435-0.1572c-0.0391-0.0391-0.0811-0.0752-0.1221-0.1123
		c-0.0293-0.0322-0.0586-0.0664-0.0889-0.0967c-0.0459-0.0459-0.0947-0.0889-0.1435-0.1318
		c-0.0459-0.0528-0.0918-0.1045-0.1407-0.1534c-0.0371-0.0371-0.0771-0.0712-0.1162-0.1064
		c-0.0312-0.0342-0.0615-0.0703-0.0937-0.1025c-0.0449-0.045-0.0947-0.0879-0.1426-0.1309
		c-0.0459-0.0527-0.0928-0.1055-0.1416-0.1543c-0.0371-0.0371-0.0771-0.0713-0.1162-0.1074
		c-0.0322-0.0342-0.0625-0.0703-0.0947-0.1026c-0.0459-0.0459-0.0948-0.0888-0.1436-0.1318
		c-0.0459-0.0518-0.0918-0.1035-0.1396-0.1523c-0.0352-0.0352-0.0743-0.0684-0.1114-0.1016
		c-0.0332-0.0371-0.0654-0.0752-0.0996-0.1094c-0.0468-0.0469-0.0976-0.0918-0.1484-0.1367
		c-0.0449-0.0498-0.0889-0.1006-0.1357-0.1475c-0.0352-0.0351-0.0743-0.0683-0.1114-0.1025
		c-0.0332-0.0361-0.0644-0.0732-0.0986-0.1074c-0.0459-0.0459-0.0957-0.0889-0.1445-0.1328
		c-0.0459-0.0518-0.0918-0.1045-0.1397-0.1524c-0.0381-0.0381-0.081-0.0742-0.1221-0.1113
		c-0.0293-0.0322-0.0576-0.0664-0.0888-0.0977c-0.0459-0.0459-0.0957-0.0888-0.1446-0.1328
		c-0.0459-0.0517-0.0918-0.1035-0.1396-0.1523c-0.0371-0.0371-0.0772-0.0713-0.1162-0.1074
		c-0.0313-0.0332-0.0615-0.0694-0.0938-0.1016c-0.0459-0.0459-0.0957-0.0889-0.1445-0.1328
		c-0.0459-0.0518-0.0918-0.1035-0.1396-0.1524c-0.0372-0.0371-0.0772-0.0712-0.1163-0.1074
		c-0.0322-0.0342-0.0625-0.0703-0.0947-0.1025c-0.0449-0.0459-0.0947-0.0879-0.1435-0.1309
		c-0.0459-0.0527-0.0909-0.1045-0.1397-0.1533c-0.0371-0.0371-0.0771-0.0713-0.1162-0.1064
		c-0.0312-0.0342-0.0615-0.0704-0.0947-0.1036c-0.0459-0.0459-0.0948-0.0888-0.1436-0.1318
		c-0.0459-0.0527-0.0918-0.1045-0.1406-0.1533c-0.0371-0.0371-0.0772-0.0713-0.1162-0.1065
		c-0.0313-0.0341-0.0615-0.0703-0.0938-0.1025c-0.0459-0.0459-0.0947-0.0889-0.1435-0.1318
		c-0.0459-0.0528-0.0918-0.1045-0.1406-0.1534c-0.0372-0.0371-0.0772-0.0712-0.1163-0.1064
		c-0.0322-0.0352-0.0625-0.0713-0.0947-0.1035c-0.0459-0.0459-0.0957-0.0889-0.1445-0.1328
		c-0.0459-0.0518-0.0918-0.1035-0.1397-0.1524c-0.0371-0.0371-0.0781-0.0722-0.1172-0.1074
		c-0.0312-0.0342-0.0605-0.0693-0.0927-0.1016c-0.0459-0.0459-0.0948-0.0888-0.1436-0.1318
		c-0.0459-0.0527-0.0918-0.1045-0.1406-0.1533c-0.0352-0.0352-0.0742-0.0684-0.1113-0.1016
		c-0.0323-0.0361-0.0645-0.0742-0.0987-0.1084c-0.0468-0.0478-0.0986-0.0918-0.1494-0.1367
		c-0.0439-0.0508-0.0879-0.1006-0.1347-0.1475c-0.0372-0.0371-0.0772-0.0712-0.1163-0.1064
		c-0.0312-0.0342-0.0615-0.0703-0.0947-0.1035c-0.0469-0.0469-0.0976-0.0918-0.1484-0.1367
		c-0.0449-0.0498-0.0889-0.1006-0.1358-0.1475c-0.081-0.081-0.1699-0.1572-0.2617-0.2305
		c-0.0732-0.0927-0.1504-0.1826-0.2324-0.2646c-0.0811-0.0811-0.1699-0.1582-0.2617-0.2315
		c-0.0742-0.0927-0.1504-0.1816-0.2324-0.2636c-0.0821-0.0821-0.1719-0.1592-0.2647-0.2334
		c-0.0732-0.0918-0.1494-0.1797-0.2305-0.2608c-0.082-0.082-0.1709-0.1582-0.2627-0.2324
		c-0.0742-0.0918-0.1503-0.1807-0.2314-0.2617c-0.082-0.082-0.1709-0.1582-0.2637-0.2324
		c-0.0732-0.0918-0.1494-0.1807-0.2304-0.2617c-0.0821-0.0821-0.1709-0.1583-0.2637-0.2325
		c-0.0733-0.0918-0.1494-0.1806-0.2315-0.2627c-0.081-0.081-0.1699-0.1572-0.2617-0.2314
		c-0.0742-0.0928-0.1504-0.1817-0.2324-0.2637c-0.082-0.082-0.1719-0.1592-0.2656-0.2344
		c-0.0733-0.0908-0.1485-0.1787-0.2295-0.2597c-0.082-0.0821-0.1709-0.1582-0.2627-0.2324
		c-0.0742-0.0918-0.1504-0.1807-0.2315-0.2618c-0.082-0.082-0.1709-0.1582-0.2627-0.2324
		c-0.0742-0.0918-0.1503-0.1806-0.2314-0.2617c-0.082-0.082-0.1719-0.1592-0.2637-0.2334
		c-0.0742-0.0918-0.1504-0.1807-0.2314-0.2617c-0.082-0.0821-0.1709-0.1582-0.2627-0.2324
		c-0.0742-0.0918-0.1504-0.1807-0.2315-0.2618c-0.082-0.082-0.1709-0.1591-0.2636-0.2334
		c-0.0742-0.0918-0.1504-0.1806-0.2315-0.2617c-0.082-0.082-0.1709-0.1582-0.2627-0.2324
		c-0.0742-0.0918-0.1504-0.1807-0.2314-0.2617c-0.082-0.0821-0.1719-0.1592-0.2647-0.2334
		c-0.0732-0.0918-0.1494-0.1797-0.2304-0.2608c-0.0811-0.081-0.17-0.1572-0.2608-0.2314c-0.0742-0.0918-0.1504-0.1807-0.2324-0.2627
		c-0.082-0.082-0.1709-0.1592-0.2637-0.2324c-0.0732-0.0928-0.1504-0.1817-0.2314-0.2627c-1.0342-1.0352-2.9453-1.5176-5.0879,0.624
		c0,0-7.7783,7.9629-14.1787,14.4795l-0.2686-0.2695l-0.0009,0.0009l-0.4932-0.4951l-0.001,0.002l-0.4941-0.4971l-0.001,0.001
		l-0.4932-0.4951l-1.9101,2.7666l0.9892,0.9883v0.0009l0.3555,0.3555c-1.8496,1.8789-3.4521,3.5019-4.5264,4.5801l0.4942,0.4951
		l0.5918,0.5908l0.5908,0.5918l0.7148,0.7149l0.1377,0.1367l0.1368,0.1377l0.1103,0.1093l0.3838,0.3848l0.2207,0.2207l0.1377,0.1367
		l0.1367,0.1377l0.1104,0.1094l0.1093,0.1104l0.1377,0.1367l0.1368,0.1377l0.1103,0.1093l0.1094,0.1104l0.1377,0.1367l0.1367,0.1377
		l0.1103,0.1094l0.1104,0.1113l0.1367,0.1367l0.1367,0.1367l0.1114,0.1104l0.1093,0.1103l0.1377,0.1368l0.1367,0.1377l0.1104,0.1093
		l0.1104,0.1114l0.9882,0.9892L52,50.6035l0.9189,0.919l0.1104,0.1103l0.1103,0.1104l0.1377,0.1367l0.1368,0.1377l0.1103,0.1094
		l0.1094,0.1103l0.1377,0.1367l0.1367,0.1377l0.1104,0.1094l0.1103,0.1113l0.1367,0.1367l0.1367,0.1368l0.0987,0.0976l0.122,0.1231
		l0.042,0.042l0.0215,0.0214l0.0742,0.0733l0.1368,0.1377l0.1103,0.1094l0.1094,0.1103l1.4834,1.4844l0.9463,0.9443l0.0429,0.044
		l0.042,0.042l0.0215,0.0214l0.0742,0.0733l0.1368,0.1377l0.0048,0.0039l0.0039,0.0049l0.0918,0.0918l0.1827,0.1826l0.2109,0.2109
		l0.0088,0.0088l0.1377,0.1377l0.0742,0.0742l0.042,0.042l0.0215,0.0215l0.0742,0.0732l0.1367,0.1377l0.0088,0.0088l0.2119,0.211
		l-0.001,0.0009l0.9288,0.9278l0.3427,0.3437l0.1377,0.1377l0.1377,0.1377l0.1172,0.1162l0.5879,0.5889l0.001-0.001l0.0976,0.0986
		l0.1221,0.1221l0.042,0.042l0.0215,0.0215l0.0742,0.0732l0.1367,0.1377l0.0088,0.0088l0.2119,0.211l-0.001,0.0009l0.5264,0.5254
		l0.251,0.252l0.1377,0.1377l0.1377,0.1377l0.3691,0.3681l0.126,0.126l0.0166,0.0166l0.0967,0.0967l0.0967,0.0967l0.0087,0.0088
		l0.126,0.1259l0.5801,0.5811l0.0478,0.0478l0.0157,0.0157l1.0967,1.0966l0.3867,0.3868l0.2109,0.2109l0.4941,0.4941l0.001-0.0009
		l0.0977,0.0986l0.1221,0.1221l0.0419,0.042l0.0215,0.0214l0.0742,0.0733l0.1368,0.1377l0.0088,0.0088l0.1377,0.1377l0.0742,0.0742
		l0.0322,0.0312l0.0312,0.0323l0.0284,0.0283l0.1826,0.1826l0.0088,0.0078l-0.001,0.001l0.4404,0.4394l0.0537,0.0547l0.1573,0.1573
		l0.1181,0.1181l0.3692,0.3682l0.0625,0.0625l0.042,0.042l0.0214,0.0215l0.0743,0.0732l0.1367,0.1377l0.0049,0.0039l0.0029,0.0039
		l0.0918,0.0918l0.1201,0.1201l0.0313,0.0322l0.0322,0.0313l0.0742,0.0732l0.1367,0.1377l0.0088,0.0088l0.1377,0.1377l0.0742,0.0733
		l-0.001,0.0009l0.5918,0.5909l0.1866,0.1855l-0.001,0.001l0.5596,0.5586l1.2168,1.2168l0.1132,0.1133l0.583,0.5839l0.3301,0.3291
		l0.4395,0.4405l0.2109,0.2099l0.0088,0.0088l0.1377,0.1377l0.0742,0.0742l0.042,0.042l0.0215,0.0215l0.0742,0.0733l0.1367,0.1376
		l0.0088,0.0079l-0.001,0.0009l0.9717,0.9707l0.0176,0.0176l0.1055,0.1055l0.664,0.665l0.0743,0.0723l0.1367,0.1377l0.0088,0.0088
		l0.1621,0.1621l0.0078,0.0078l0.042,0.042l0.0478,0.0478l0.0157,0.0157l0.0742,0.0732l0.1367,0.1377l0.0078,0.0078l0.1836,0.1836
		l0.0293,0.0283l-0.001,0.001l0.9463,0.9443l0.043,0.044l0.042,0.042l0.0215,0.0215l0.2197,0.2187l-0.001,0.001l0.3926,0.3916
		l0.5879,0.5889l0.0009-0.001l0.0723,0.0732l0.1475,0.1475l0.042,0.042l0.0215,0.0215l0.0742,0.0732l0.1367,0.1377l0.0088,0.0088
		l0.1621,0.1621l0.0498,0.0488l-0.001,0.001l0.7774,0.7773l0.4336,0.4327l0.0527,0.0527l0.0029,0.0029l0.0059,0.0049l-0.001,0.001
		l0.2119,0.2119l0.9102,0.9092l0.0791,0.0801l0.9463,0.9443l0.0429,0.0439l0.042,0.042l0.0215,0.0215l0.2197,0.2188l-0.0009,0.0009
		l0.3271,0.3262l0.6533,0.6543l0.001-0.001l0.0977,0.0987l0.122,0.122l0.042,0.042l0.0215,0.0215l0.0742,0.0733l0.1367,0.1377
		l0.0088,0.0087l0.1377,0.1377l0.0742,0.0733l-0.0009,0.001l0.2597,0.2597c8.545-8.8867,13.835-20.9179,13.9522-34.1914l0,0
		C99.9561,50.4131,99.9238,50.375,99.8896,50.3408z"/>
	<path fill="#4A89DC" d="M84.9287,84.6025l-0.0166-0.0166l-0.085-0.0849l-0.1826-0.1826l-0.1982-0.1993l-0.1524-0.1513
		l-0.455-0.4561l-0.0977-0.0976l-0.8066-0.8057l-0.1826-0.1826l-0.085-0.085l-0.8066-0.8076l-0.3926-0.3926l-0.0508-0.0508
		l-0.0508-0.0507l-0.5918-0.5918l-0.5517-0.5508l-0.5518-0.5528l-0.1816-0.1806l-0.0166-0.0166l-0.085-0.085l-0.1826-0.1826
		l-0.0293-0.0293l-0.1973-0.1973l-0.0849-0.0849l-0.0977-0.0987l-0.8066-0.8066l-0.4942-0.4932l-0.1826-0.1826l-0.085-0.0859
		l-0.4941-0.4942l-0.3125-0.3125l-0.4941-0.4941l-0.0977-0.0976l-0.8066-0.8067l-0.2969-0.2969l-0.1973-0.1972l-0.0859-0.085
		l-0.1817-0.1826l-0.8066-0.8066l-0.4023-0.4014l-0.1895-0.1904l-0.8066-0.8067l-0.2676-0.2676l-0.8067-0.8066l-0.3027-0.3018
		l-0.0908-0.0908l-0.0166-0.0166l-0.085-0.0849l-0.0976-0.0977l-0.2949-0.2949l-0.0167-0.0166l-0.0849-0.085l-0.0977-0.0976
		l-0.0849-0.085l-0.0293-0.0293l-0.1973-0.1973l-0.1826-0.1826l-0.085-0.0859l-0.8066-0.8067l-0.1963-0.1962l-0.2979-0.2979
		l-0.1542-0.1543l-0.75-0.75l-0.1827-0.1816l-0.0849-0.085l-0.0293-0.0293l-0.1817-0.1816l-0.0166-0.0166l-0.0849-0.085
		l-0.0977-0.0967c0.001-0.001,0.001-0.001,0.001-0.001l-0.2959-0.2959l-0.1992-0.1982l-0.2832-0.2842l-0.0117-0.0117l-0.0342-0.0342
		l-0.0674-0.0674l-0.3027-0.3017l-0.0909-0.0908l-0.0166-0.0166l-0.0849-0.085l-0.0977-0.0977l-0.8056-0.8066l-0.1827-0.1816
		l-0.8066-0.8077l-0.001,0.001l-0.084-0.0849l-0.0976-0.0977l-0.085-0.085l-0.0293-0.0293l-0.1689-0.1699l-0.2022-0.2011
		l-0.0088-0.0088l-0.1142-0.1143l-0.1817-0.1816l-0.7783-0.7793l-0.0146-0.0147l-0.0147-0.0146l-0.3799-0.3799L60.71,60.3828
		l-0.2022-0.2012l-0.0088-0.0087l-0.0849-0.085l-0.0293-0.0293l-0.1817-0.1816l-0.1015-0.1016l-0.0967-0.0977l-0.8067-0.8066
		l-0.1826-0.1816l-0.0849-0.085l-0.8067-0.8076l-0.4941-0.4942l-0.0977-0.0966l-0.0849-0.085l-0.0293-0.0293l-0.1817-0.1816
		l-0.0166-0.0166l-0.0849-0.085l-0.1827-0.1826l-0.2109-0.21l0.001-0.001l-0.8076-0.8066l-0.1817-0.1816l-0.0166-0.0166
		l-0.0849-0.085l-0.1826-0.1826l-0.0293-0.0293l-0.2823-0.2822l-0.1826-0.1827l-0.0293-0.0293l-0.0908-0.0908l-0.4033-0.4043
		c0,0,0,0-0.001,0.001l-0.1807-0.1816l-0.1015-0.1016l-0.1826-0.1826l-0.0293-0.0293l-0.1817-0.1807l0.001-0.001l-0.8076-0.8076
		l-0.2832-0.2832l-0.1826-0.1816l-0.0293-0.0293l-0.169-0.1699l-0.2021-0.2012l-0.0938-0.0938l-0.3125-0.3125l-0.1826-0.1826
		l-0.1992-0.1982c0.001-0.001,0.001-0.001,0.001-0.001l-0.4034-0.4033l-0.205-0.2041l-0.4942-0.4942l-0.0898-0.0888l-0.0928-0.0938
		l-0.1982-0.1992l-0.2022-0.2012l-0.4062-0.4062l-0.0899-0.0889L49.04,48.7148l0.001-0.0009l-0.4951-0.4942l-0.1992-0.1982
		c0.001-0.001,0.001-0.001,0.001-0.001l-0.2959-0.2959l-0.8067-0.8066l-0.1826-0.1817L46.75,46.4238l-0.4941-0.4941c0,0,0,0-0.001,0
		l-0.1817-0.1817v-0.0009l-0.4941-0.4942l-0.3125-0.3125l-0.1826-0.1826l-0.3115-0.3115l-0.1827-0.1826l-0.3115-0.3116
		l-0.4951-0.4951c-6.8975,6.8887-21.8311,21.4395-21.8311,21.4395c-2.7705,2.7676-2.0791,4.4707-1.0439,5.5049
		c0.0811,0.081,0.1689,0.1591,0.2588,0.2353c0.0752,0.0899,0.1533,0.1768,0.2353,0.2588c0.0821,0.082,0.169,0.1592,0.2588,0.2354
		c0.0762,0.0908,0.1543,0.1777,0.2364,0.2597c0.081,0.0811,0.1689,0.1592,0.2588,0.2354c0.0751,0.0898,0.1533,0.1767,0.2353,0.2588
		c0.0811,0.081,0.1689,0.1591,0.2588,0.2353c0.0752,0.0899,0.1533,0.1768,0.2353,0.2588c0.0821,0.082,0.169,0.1602,0.2588,0.2354
		c0.0762,0.0908,0.1543,0.1777,0.2364,0.2597c0.081,0.0811,0.1689,0.1592,0.2587,0.2354c0.0752,0.0898,0.1534,0.1767,0.2354,0.2588
		c0.082,0.082,0.1689,0.1591,0.2588,0.2353c0.0762,0.0908,0.1543,0.1777,0.2363,0.2598c0.0811,0.081,0.168,0.1592,0.2578,0.2353
		c0.0762,0.0899,0.1543,0.1768,0.2364,0.2588c0.081,0.0811,0.1679,0.1592,0.2578,0.2344c0.0761,0.0908,0.1543,0.1777,0.2363,0.2598
		c0.082,0.082,0.1699,0.1601,0.2607,0.2373c0.0752,0.0888,0.1534,0.1757,0.2344,0.2568c0.0811,0.0811,0.167,0.1582,0.2569,0.2334
		c0.0761,0.0908,0.1552,0.1797,0.2373,0.2617c0.082,0.0821,0.1689,0.1592,0.2587,0.2354c0.0762,0.0908,0.1543,0.1777,0.2364,0.2597
		c0.081,0.0811,0.1679,0.1592,0.2578,0.2354c0.0762,0.0898,0.1543,0.1767,0.2363,0.2588c0.0811,0.081,0.169,0.1592,0.2588,0.2353
		c0.0752,0.0899,0.1533,0.1768,0.2354,0.2588c0.081,0.0811,0.1679,0.1582,0.2568,0.2334c0.0762,0.0908,0.1553,0.1797,0.2373,0.2617
		c0.082,0.0821,0.1699,0.1612,0.2607,0.2373c0.0752,0.0889,0.1534,0.1758,0.2344,0.2569c0.0811,0.081,0.169,0.1592,0.2588,0.2353
		c0.0752,0.0899,0.1533,0.1768,0.2354,0.2588c0.0429,0.043,0.0888,0.085,0.1347,0.126c0.0488,0.0547,0.0977,0.1084,0.1485,0.1592
		c0.039,0.039,0.081,0.0761,0.122,0.1142c0.0303,0.0323,0.0596,0.0655,0.0899,0.0957c0.041,0.041,0.0849,0.0811,0.1289,0.1211
		c0.0498,0.0557,0.1006,0.1114,0.1533,0.1641c0.041,0.041,0.085,0.0801,0.1289,0.1201c0.0273,0.0293,0.0547,0.0606,0.083,0.0889
		c0.043,0.0429,0.0889,0.084,0.1348,0.126c0.0488,0.0546,0.0976,0.1083,0.1484,0.1591c0.0391,0.0391,0.0811,0.0762,0.1221,0.1133
		c0.0293,0.0322,0.0586,0.0654,0.0889,0.0957c0.0429,0.043,0.0888,0.084,0.1337,0.125c0.0489,0.0547,0.0987,0.1094,0.1495,0.1602
		c0.039,0.039,0.081,0.0761,0.122,0.1142c0.0303,0.0323,0.0596,0.0655,0.0899,0.0957c0.041,0.041,0.084,0.0791,0.1269,0.1192
		c0.0508,0.0566,0.1026,0.1123,0.1553,0.166c0.041,0.041,0.085,0.0801,0.1279,0.1201c0.0283,0.0293,0.0557,0.0606,0.084,0.0889
		c0.043,0.0429,0.0889,0.0849,0.1348,0.1259c0.0488,0.0547,0.0976,0.1084,0.1484,0.1592c0.0391,0.0391,0.0811,0.0762,0.1221,0.1143
		c0.0303,0.0322,0.0596,0.0654,0.0898,0.0957c0.0449,0.0449,0.0928,0.0889,0.1407,0.1318c0.0468,0.0518,0.0937,0.1035,0.1425,0.1524
		c0.0371,0.0371,0.0762,0.0713,0.1153,0.1074c0.0312,0.0342,0.0625,0.0693,0.0957,0.1025c0.0449,0.045,0.0937,0.0889,0.1406,0.1319
		c0.0469,0.0517,0.0937,0.1035,0.1426,0.1523c0.0361,0.0361,0.0761,0.0713,0.1142,0.1065c0.0323,0.0351,0.0635,0.0703,0.0967,0.1035
		c0.043,0.0429,0.0889,0.084,0.1348,0.1259c0.0488,0.0547,0.0976,0.1084,0.1484,0.1592c0.041,0.041,0.0859,0.0811,0.1289,0.1211
		c0.0274,0.0293,0.0547,0.0596,0.083,0.0879c0.041,0.041,0.085,0.0801,0.128,0.1201c0.0507,0.0567,0.1015,0.1123,0.1543,0.1651
		c0.039,0.039,0.081,0.0761,0.122,0.1142c0.0303,0.0323,0.0596,0.0655,0.0899,0.0957c0.0429,0.043,0.0888,0.085,0.1347,0.126
		c0.0489,0.0547,0.0977,0.1084,0.1485,0.1592c0.039,0.039,0.081,0.0771,0.123,0.1152c0.0293,0.0313,0.0586,0.0645,0.0889,0.0947
		c0.043,0.043,0.0889,0.084,0.1338,0.126c0.0488,0.0537,0.0976,0.1074,0.1484,0.1582c0.0391,0.0391,0.0811,0.0762,0.1221,0.1143
		c0.0303,0.0322,0.0596,0.0654,0.0898,0.0957c0.043,0.043,0.0899,0.0849,0.1358,0.1269c0.0478,0.0538,0.0966,0.1075,0.1474,0.1582
		c0.0391,0.0391,0.0811,0.0762,0.1211,0.1133c0.0303,0.0323,0.0596,0.0655,0.0899,0.0957c0.0429,0.043,0.0888,0.084,0.1347,0.126
		c0.0489,0.0547,0.0977,0.1084,0.1485,0.1592c0.039,0.039,0.08,0.0762,0.1211,0.1133c0.0302,0.0322,0.0595,0.0654,0.0898,0.0957
		c0.043,0.0429,0.0889,0.0849,0.1348,0.1259c0.0488,0.0547,0.0976,0.1084,0.1484,0.1592c0.0391,0.0391,0.0811,0.0762,0.1221,0.1143
		c0.0303,0.0322,0.0595,0.0654,0.0898,0.0957c0.043,0.043,0.0899,0.0849,0.1358,0.1269c0.0478,0.0537,0.0966,0.1075,0.1474,0.1582
		c0.041,0.0411,0.085,0.0801,0.1289,0.1202c0.0274,0.0293,0.0547,0.0605,0.083,0.0888c0.0411,0.041,0.084,0.0801,0.127,0.1192
		c0.0508,0.0566,0.1025,0.1132,0.1553,0.166c0.039,0.039,0.081,0.0762,0.122,0.1142c0.0303,0.0323,0.0596,0.0655,0.0899,0.0957
		c0.0429,0.043,0.0888,0.084,0.1347,0.126c0.0489,0.0537,0.0967,0.1074,0.1475,0.1582c0.0391,0.0391,0.0811,0.0762,0.1221,0.1143
		c0.0303,0.0322,0.0595,0.0654,0.0898,0.0957c0.043,0.043,0.0889,0.084,0.1348,0.126c0.0488,0.0546,0.0976,0.1084,0.1484,0.1591
		c0.0391,0.0391,0.0801,0.0752,0.1211,0.1133c0.0303,0.0313,0.0586,0.0655,0.0899,0.0957c0.0429,0.043,0.0888,0.084,0.1338,0.125
		c0.0488,0.0547,0.0986,0.1094,0.1494,0.1602c0.039,0.039,0.081,0.0762,0.122,0.1142c0.0303,0.0323,0.0596,0.0655,0.0899,0.0957
		c0.041,0.0411,0.0849,0.0801,0.1279,0.1192c0.0508,0.0566,0.1016,0.1133,0.1543,0.166c0.041,0.041,0.085,0.0801,0.1279,0.1201
		c0.0284,0.0293,0.0557,0.0606,0.084,0.0889c0.043,0.043,0.0889,0.0849,0.1348,0.126c0.0488,0.0546,0.0976,0.1084,0.1484,0.1591
		c0.042,0.0411,0.086,0.0811,0.1299,0.1211c0.0273,0.0293,0.0537,0.0596,0.082,0.0879c0.0411,0.041,0.084,0.0801,0.127,0.1192
		c0.0508,0.0566,0.1025,0.1132,0.1553,0.166c0.039,0.039,0.081,0.0762,0.122,0.1142c0.0303,0.0323,0.0596,0.0655,0.0899,0.0957
		c0.0429,0.043,0.0898,0.085,0.1357,0.127c0.0479,0.0537,0.0967,0.1074,0.1475,0.1582c0.039,0.0391,0.081,0.0762,0.1211,0.1133
		c0.0302,0.0322,0.0595,0.0654,0.0898,0.0957c0.043,0.0429,0.0899,0.0849,0.1358,0.1269c0.0478,0.0537,0.0966,0.1075,0.1474,0.1582
		c0.0391,0.0391,0.0811,0.0762,0.1221,0.1143c0.0293,0.0312,0.0586,0.0644,0.0889,0.0947c0.0429,0.043,0.0888,0.084,0.1337,0.125
		c0.0489,0.0547,0.0987,0.1094,0.1495,0.1602c0.039,0.039,0.081,0.0761,0.122,0.1142c0.0303,0.0323,0.0596,0.0655,0.0899,0.0957
		c0.0429,0.043,0.0888,0.085,0.1347,0.126c0.0489,0.0547,0.0977,0.1084,0.1485,0.1592c0.039,0.0391,0.081,0.0762,0.122,0.1143
		c0.0303,0.0322,0.0596,0.0654,0.0899,0.0957c0.043,0.0429,0.0889,0.0849,0.1348,0.1259c0.0488,0.0537,0.0966,0.1075,0.1474,0.1582
		c0.0391,0.0391,0.0811,0.0772,0.1231,0.1153c0.0293,0.0312,0.0586,0.0644,0.0888,0.0947c0.044,0.0439,0.0899,0.085,0.1358,0.1279
		c0.0488,0.0537,0.0967,0.1065,0.1474,0.1573c0.0391,0.039,0.0801,0.0751,0.1211,0.1132c0.0303,0.0313,0.0586,0.0655,0.0899,0.0957
		c0.0429,0.043,0.0888,0.084,0.1338,0.125c0.0488,0.0547,0.0986,0.1094,0.1494,0.1602c0.0371,0.0361,0.0761,0.0713,0.1142,0.1074
		c0.0323,0.0342,0.0635,0.0694,0.0967,0.1026c0.0449,0.0449,0.0928,0.0878,0.1406,0.1318c0.0469,0.0517,0.0938,0.1035,0.1426,0.1523
		c0.0391,0.0391,0.0811,0.0762,0.1221,0.1143c0.0303,0.0322,0.0596,0.0654,0.0898,0.0957c0.043,0.043,0.0889,0.085,0.1348,0.126
		c0.0488,0.0547,0.0977,0.1084,0.1484,0.1592c0.0391,0.039,0.0811,0.0761,0.1221,0.1142c0.0303,0.0322,0.0596,0.0654,0.0898,0.0957
		c0.043,0.043,0.0889,0.084,0.1338,0.126c0.0489,0.0537,0.0977,0.1074,0.1485,0.1582c0.039,0.0391,0.081,0.0762,0.122,0.1142
		c0.0303,0.0323,0.0596,0.0655,0.0899,0.0958c0.043,0.0429,0.0889,0.0839,0.1348,0.1259c0.0488,0.0537,0.0966,0.1075,0.1474,0.1582
		c0.0391,0.0391,0.0811,0.0762,0.1221,0.1143c0.0303,0.0322,0.0596,0.0654,0.0898,0.0957c0.043,0.043,0.0889,0.084,0.1348,0.126
		c0.0488,0.0547,0.0977,0.1084,0.1484,0.1591c0.041,0.0411,0.085,0.0801,0.128,0.1192c0.0283,0.0303,0.0556,0.0615,0.0839,0.0898
		c0.0411,0.041,0.085,0.0801,0.128,0.1202c0.0508,0.0566,0.1015,0.1123,0.1543,0.165c0.0371,0.0371,0.0761,0.0723,0.1152,0.1074
		c0.0313,0.0342,0.0625,0.0693,0.0957,0.1026c0.0449,0.0449,0.0938,0.0888,0.1406,0.1318c0.0469,0.0517,0.0938,0.1035,0.1426,0.1523
		c0.0391,0.0391,0.0811,0.0762,0.1221,0.1143c0.0303,0.0322,0.0596,0.0654,0.0898,0.0957c0.043,0.043,0.0889,0.085,0.1348,0.126
		c0.0488,0.0547,0.0977,0.1084,0.1484,0.1591c0.0371,0.0362,0.0762,0.0713,0.1143,0.1075c0.0322,0.0341,0.0635,0.0693,0.0967,0.1025
		c0.0478,0.0469,0.0976,0.0928,0.1474,0.1387c0.045,0.0488,0.0899,0.0986,0.1367,0.1455c0.0372,0.0371,0.0762,0.0713,0.1153,0.1074
		c0.0312,0.0342,0.0625,0.0693,0.0957,0.1025c0.043,0.043,0.0898,0.085,0.1357,0.127c0.0479,0.0537,0.0967,0.1074,0.1475,0.1582
		c0.0391,0.0391,0.081,0.0762,0.1211,0.1133c0.0303,0.0322,0.0596,0.0654,0.0898,0.0957c0.043,0.043,0.0889,0.084,0.1348,0.126
		c0.0488,0.0547,0.0976,0.1084,0.1484,0.1591c0.0391,0.0391,0.0811,0.0762,0.1221,0.1143c0.0293,0.0313,0.0586,0.0645,0.0889,0.0947
		c0.0429,0.043,0.0888,0.084,0.1347,0.126c0.0489,0.0537,0.0977,0.1084,0.1485,0.1592c0.039,0.039,0.081,0.0771,0.123,0.1152
		c0.0293,0.0313,0.0586,0.0645,0.0889,0.0947c0.043,0.043,0.0889,0.084,0.1338,0.125c0.0488,0.0547,0.0986,0.1084,0.1494,0.1602
		c0.041,0.041,0.0859,0.0811,0.1289,0.1211c0.001,0.001,0.0029,0.0029,0.0039,0.0039c13.6904-0.1348,26.0635-5.7656,35.0146-14.7998
		l-0.4042-0.4043L84.9287,84.6025z"/>
</g>
<g id="skis-skis">
	<g>
		<g>
			<linearGradient id="SVGID_1_" gradientUnits="userSpaceOnUse" x1="39.8206" y1="64.405" x2="44.2839" y2="68.8684">
				<stop  offset="0.5" style="stop-color:#FFFFFF"/>
				<stop  offset="0.5" style="stop-color:#D9D9D9"/>
			</linearGradient>
			<path fill="url(#SVGID_1_)" d="M54.6357,56.5117l-1.2949,0.2549l-1.3965-1.3984l0.2344-1.3125l1.1016-1.1016l-0.8076-0.8076
				c-6.8975,6.8896-21.834,21.4404-21.834,21.4404c-2.7657,2.7666-2.0742,4.4697-1.041,5.5059
				c1.0361,1.0342,2.7392,1.7246,5.5058-1.044c0,0,14.5518-14.9355,21.4395-21.832l-0.8067-0.8066L54.6357,56.5117z"/>
			<linearGradient id="SVGID_2_" gradientUnits="userSpaceOnUse" x1="64.8496" y1="39.377" x2="69.314" y2="43.8413">
				<stop  offset="0.5" style="stop-color:#FFFFFF"/>
				<stop  offset="0.5" style="stop-color:#D9D9D9"/>
			</linearGradient>
			<path fill="url(#SVGID_2_)" d="M58.2285,49.748l-0.4463-0.4453l0.5938-1.4297l3.1543-3.1543l2.5605-1.2509l1.1319,1.1318
				l-1.25,2.5586l-3.1573,3.1553l-1.4267,0.5947l-0.4473-0.4453l-3.541,3.541l1.6787,1.6768
				c4.9541-4.9375,21.417-21.0215,21.417-21.0215c2.1426-2.1426,1.6582-4.0528,0.624-5.0879
				c-1.0351-1.0361-2.9463-1.5186-5.0888,0.624c0,0-16.084,16.4619-21.0215,21.416l1.6767,1.6787L58.2285,49.748z"/>
		</g>
		<g>
			<g>
				<path fill="#61514D" d="M57.248,46.7451l0.5362-0.5361c0,0-0.3692-0.3692-0.6084-0.6084
					c0.289-0.4131,1.4844-2.1211,1.4844-2.1211l-0.5586-0.5586l-1.9121,2.7666L57.248,46.7451z"/>
			</g>
			<g>
				<path fill="#61514D" d="M61.9453,51.4414l0.5361-0.5352c0,0,0.3692,0.3682,0.6084,0.6075
					c0.4141-0.2881,2.1211-1.4834,2.1211-1.4834l0.5586,0.5595L63.0039,52.5L61.9453,51.4414z"/>
			</g>
		</g>
	</g>
	<g>
		<g>
			<linearGradient id="SVGID_3_" gradientUnits="userSpaceOnUse" x1="31.1325" y1="55.7161" x2="35.595" y2="60.1785">
				<stop  offset="0.5" style="stop-color:#FFFFFF"/>
				<stop  offset="0.5" style="stop-color:#D9D9D9"/>
			</linearGradient>
			<path fill="url(#SVGID_3_)" d="M45.9443,47.8213l-1.2939,0.2539l-1.3975-1.3965l0.2364-1.3135l1.1005-1.1015l-0.8066-0.8067
				c-6.8975,6.8887-21.8311,21.4395-21.8311,21.4395c-2.7705,2.7676-2.0791,4.4707-1.0439,5.5049
				c1.0361,1.0361,2.7383,1.7265,5.5049-1.041c0,0,14.5517-14.9366,21.4394-21.834l-0.8076-0.8057L45.9443,47.8213z"/>
			<linearGradient id="SVGID_4_" gradientUnits="userSpaceOnUse" x1="56.1594" y1="30.6863" x2="60.6237" y2="35.1507">
				<stop  offset="0.5" style="stop-color:#FFFFFF"/>
				<stop  offset="0.5" style="stop-color:#D9D9D9"/>
			</linearGradient>
			<path fill="url(#SVGID_4_)" d="M49.5391,41.0586l-0.4473-0.4473l0.5937-1.4277l3.1573-3.1563l2.5576-1.248l1.1318,1.1289
				l-1.25,2.5605L52.127,41.624l-1.4278,0.5938l-0.4472-0.4463l-3.5411,3.543l1.6778,1.6767
				c4.9541-4.9385,21.417-21.0225,21.417-21.0225c2.1425-2.1416,1.6591-4.0527,0.624-5.0888
				c-1.0342-1.0352-2.9453-1.5176-5.0879,0.624c0,0-16.083,16.4629-21.0225,21.418l1.6768,1.6777L49.5391,41.0586z"/>
		</g>
		<g>
			<g>
				<path fill="#61514D" d="M48.5596,38.0547l0.5342-0.5361c0,0-0.3692-0.3682-0.6084-0.6084
					c0.289-0.4131,1.4843-2.1192,1.4843-2.1192l-0.5586-0.5605l-1.9101,2.7666L48.5596,38.0547z"/>
			</g>
			<g>
				<path fill="#61514D" d="M53.2549,42.752l0.5361-0.5362c0,0,0.3701,0.3692,0.6084,0.6084
					c0.4131-0.289,2.1211-1.4834,2.1211-1.4834l0.5586,0.5576l-2.7666,1.9121L53.2549,42.752z"/>
			</g>
		</g>
	</g>
</g>
</svg>
