<?xml version="1.0" encoding="utf-8"?>
<!-- Generator: Adobe Illustrator 17.1.0, SVG Export Plug-In . SVG Version: 6.00 Build 0)  -->
<!DOCTYPE svg PUBLIC "-//W3C//DTD SVG 1.1//EN" "http://www.w3.org/Graphics/SVG/1.1/DTD/svg11.dtd">
<svg version="1.1" id="snow-cap" xmlns="http://www.w3.org/2000/svg" xmlns:xlink="http://www.w3.org/1999/xlink" x="0px" y="0px"
	 viewBox="0 0 100 100" enable-background="new 0 0 100 100" xml:space="preserve">
<circle id="snow-cap-label" fill="#4FC1E9" cx="50" cy="50" r="50"/>
<g id="snow-cap-shadow">
	<path fill="#3BAFDA" d="M97.0732,64.0352c-0.1591-0.1739-0.3252-0.3409-0.499-0.4991c-0.1553-0.1709-0.3183-0.333-0.4892-0.4892
		c-0.1592-0.1748-0.3262-0.3418-0.502-0.501c-0.1553-0.1709-0.3184-0.333-0.4883-0.4893c-0.1582-0.1728-0.3232-0.3379-0.4961-0.4961
		c-0.1572-0.1718-0.3213-0.3369-0.4941-0.4931c-0.1572-0.1729-0.3223-0.3379-0.4951-0.4961
		c-0.1573-0.1719-0.3223-0.3379-0.4951-0.4951c-0.1573-0.1719-0.3213-0.335-0.4922-0.4922
		c-0.1582-0.1729-0.3233-0.3379-0.4961-0.4961c-0.1572-0.1719-0.3223-0.3369-0.4942-0.4942
		c-0.1572-0.1728-0.3222-0.3369-0.4951-0.4951c-0.1572-0.1718-0.3213-0.3359-0.4941-0.4941
		c-0.1572-0.1719-0.3223-0.3369-0.4942-0.4941c-0.1572-0.1719-0.3222-0.337-0.4941-0.4942
		c-0.1572-0.1719-0.3213-0.3359-0.4932-0.4932c-0.1582-0.1738-0.3252-0.3408-0.499-0.499
		c-0.1562-0.1719-0.3203-0.3349-0.4922-0.4922c-0.1572-0.1728-0.3232-0.3379-0.4961-0.4961
		c-0.1562-0.1709-0.3193-0.3339-0.4912-0.4902c-0.1572-0.1728-0.3213-0.3369-0.4941-0.4951
		c-0.1582-0.1738-0.3242-0.3399-0.4981-0.4981c-0.1572-0.1718-0.3213-0.3359-0.4931-0.4931
		c-0.1573-0.1729-0.3233-0.3379-0.4961-0.4951c-0.1563-0.1719-0.3194-0.335-0.4912-0.4912
		c-0.1573-0.1739-0.3233-0.3389-0.4961-0.4971c-0.1563-0.1709-0.3194-0.334-0.4903-0.4903
		c-0.1591-0.1748-0.3261-0.3418-0.5009-0.5009c-0.1573-0.1729-0.3223-0.3369-0.4952-0.4942
		c-0.1562-0.1718-0.3203-0.3359-0.4921-0.4922c-0.1563-0.1709-0.3194-0.3349-0.4913-0.4921c-0.1591-0.1739-0.3252-0.3399-0.5-0.4991
		c-0.1552-0.1709-0.3183-0.334-0.4892-0.4902c-0.1582-0.1729-0.3233-0.3389-0.4971-0.4971
		c-0.1582-0.1728-0.3232-0.3379-0.4971-0.4961c-0.1552-0.1709-0.3183-0.334-0.4892-0.4902
		c-0.1582-0.1729-0.3233-0.3379-0.4971-0.4961c-0.1572-0.1728-0.3223-0.3379-0.4941-0.4951
		c-0.1573-0.1729-0.3223-0.3369-0.4951-0.4951c-0.1573-0.1719-0.3223-0.3369-0.4952-0.4951
		c-0.1572-0.1719-0.3212-0.336-0.4931-0.4932c-0.1573-0.1729-0.3223-0.3369-0.4951-0.4951
		c-0.1563-0.1709-0.3204-0.335-0.4913-0.4912c-0.1591-0.1748-0.3251-0.3409-0.5-0.5c-0.1572-0.1729-0.3222-0.337-0.4951-0.4942
		c-0.1552-0.1699-0.3174-0.333-0.4873-0.4883c-0.1592-0.1748-0.3261-0.3418-0.501-0.5009c-0.1562-0.1719-0.3203-0.336-0.4921-0.4922
		c-0.1573-0.1719-0.3223-0.3369-0.4942-0.4942c-0.1572-0.1718-0.3222-0.3369-0.4951-0.4951
		c-0.1572-0.1719-0.3213-0.3369-0.4941-0.4941c-0.1573-0.1729-0.3223-0.3369-0.4952-0.4951
		c-0.1562-0.1709-0.3203-0.335-0.4912-0.4913c-0.1582-0.1738-0.3232-0.3388-0.4961-0.496c-0.1582-0.1739-0.3242-0.3399-0.498-0.4981
		c-0.1572-0.1719-0.3213-0.3359-0.4932-0.4922c-0.1562-0.1728-0.3213-0.3369-0.4931-0.4941
		c-0.1563-0.1719-0.3203-0.335-0.4922-0.4922c-0.1592-0.1738-0.3252-0.3408-0.5-0.5c-0.1563-0.1709-0.3203-0.335-0.4922-0.4922
		c-0.1582-0.1728-0.3242-0.3389-0.4971-0.4971c-0.1562-0.1699-0.3183-0.333-0.4883-0.4882
		c-0.1582-0.1739-0.3242-0.3389-0.498-0.4981c-0.1563-0.1709-0.3203-0.335-0.4922-0.4922c-0.1582-0.1738-0.3242-0.3388-0.498-0.4971
		c-0.1563-0.1718-0.3213-0.3369-0.4932-0.4941c-0.1572-0.1719-0.3223-0.3369-0.4941-0.4941
		c-0.1573-0.1719-0.3223-0.3369-0.4942-0.4942c-0.1572-0.1718-0.3223-0.3369-0.4951-0.4951
		c-0.1572-0.1719-0.3223-0.3369-0.4941-0.4941c-0.1573-0.1729-0.3223-0.3369-0.4952-0.4951
		c-0.1582-0.1729-0.3242-0.3389-0.497-0.4971c-0.1563-0.1699-0.3184-0.333-0.4883-0.4883c-0.1592-0.1738-0.3242-0.3398-0.4981-0.498
		c-0.1582-0.1729-0.3222-0.337-0.4951-0.4952c-0.1572-0.1709-0.3203-0.3349-0.4922-0.4912
		c-0.1572-0.1728-0.3213-0.3369-0.4941-0.4951c-0.1582-0.1738-0.3242-0.3398-0.4981-0.498
		c-0.1572-0.1719-0.3212-0.336-0.4931-0.4932c-0.1582-0.1729-0.3242-0.3389-0.4971-0.4971
		c-0.1562-0.1699-0.3183-0.333-0.4883-0.4883c-0.1582-0.1738-0.3242-0.3388-0.498-0.498c-0.1582-0.1729-0.3233-0.3379-0.4971-0.4961
		c-0.1553-0.1709-0.3183-0.334-0.4892-0.4902C54.1396,20.9668,52.1348,20,49.8984,20c-4.2099,0-7.625,3.4141-7.625,7.625
		c0,0.75,0.1397,1.458,0.3409,2.1426c0.1162-0.0264,0.2431-0.0459,0.3613-0.0713c0.0439,0.1885,0.0781,0.3808,0.1328,0.5654
		c0.1162-0.0263,0.2441-0.0459,0.3623-0.0713c0.0215,0.0918,0.04,0.1846,0.0645,0.2754c-0.3077,0.0606-0.625,0.1133-0.9209,0.1836
		c-14.293,3.2901-14.0284,15.9727-14.0284,15.9727v20.4863h0.4942v0.4951h0.4951v0.4942h0.4941v0.4941h0.4942v0.3769h-3.7647
		c-1.7881,0-3.2392,1.4542-3.2392,3.2432v4.5469c0,1.0224,0.4834,1.9228,1.2226,2.5176c0.1465,0.1816,0.3096,0.3447,0.4912,0.4912
		c0.1475,0.1836,0.3125,0.3486,0.4961,0.4961c0.1475,0.1826,0.3116,0.3476,0.4942,0.4941c0.1474,0.1826,0.3125,0.3477,0.4951,0.4951
		c0.1465,0.1826,0.3115,0.3477,0.4941,0.4942c0.1465,0.1826,0.3106,0.3466,0.4932,0.4931c0.1475,0.1836,0.3135,0.3496,0.4971,0.4971
		c0.1464,0.1826,0.3115,0.3477,0.4951,0.4951c0.1465,0.1817,0.3105,0.3457,0.4922,0.4922c0.1474,0.1826,0.3125,0.3477,0.4951,0.4951
		c0.1465,0.1826,0.3115,0.3467,0.4932,0.4942c0.1474,0.1826,0.3134,0.3486,0.497,0.4961c0.1465,0.1826,0.3106,0.3466,0.4932,0.4931
		c0.1474,0.1826,0.3115,0.3477,0.4951,0.4951c0.1465,0.1817,0.3105,0.3467,0.4932,0.4932c0.1474,0.1826,0.3125,0.3477,0.4951,0.4951
		c0.1474,0.1826,0.3125,0.3477,0.4951,0.4951c0.1465,0.1827,0.3115,0.3467,0.4941,0.4942c0.1465,0.1816,0.3106,0.3467,0.4922,0.4931
		c0.1485,0.1836,0.3135,0.3497,0.4971,0.4971c0.1475,0.1817,0.3115,0.3467,0.4941,0.4932c0.1465,0.1826,0.3116,0.3467,0.4932,0.4941
		c0.1475,0.1826,0.3135,0.3487,0.4971,0.4961c0.1465,0.1826,0.3105,0.3467,0.4931,0.4932c0.1475,0.1826,0.3116,0.3467,0.4942,0.4941
		c0.1474,0.1826,0.3115,0.3477,0.4951,0.4951c0.1465,0.1827,0.3115,0.3477,0.4941,0.4942c0.1475,0.1826,0.3116,0.3476,0.4942,0.4941
		c0.1465,0.1826,0.3115,0.3467,0.4931,0.4942c0.1485,0.1836,0.3135,0.3486,0.4971,0.497c0.1475,0.1826,0.3115,0.3467,0.4942,0.4932
		c0.1474,0.1826,0.3115,0.3476,0.4941,0.4941c0.1475,0.1826,0.3115,0.3477,0.4941,0.4942c0.1475,0.1826,0.3125,0.3476,0.4952,0.4951
		c0.1464,0.1826,0.3105,0.3467,0.4921,0.4932c0.1485,0.1835,0.3145,0.3496,0.4981,0.498c0.1465,0.1816,0.3115,0.3457,0.4931,0.4922
		c0.1465,0.1826,0.3106,0.3467,0.4932,0.4932c0.1475,0.1835,0.3135,0.3496,0.4971,0.497c0.1465,0.1817,0.3105,0.3457,0.4922,0.4922
		c0.1474,0.1836,0.3125,0.3496,0.4961,0.4971c0.0664,0.081,0.1484,0.1465,0.2207,0.2207C46.832,99.917,48.4063,100,50,100
		c22.4795,0,41.4922-14.8369,47.7861-35.252c-0.0742-0.0732-0.1435-0.1503-0.2207-0.2207
		C97.4092,64.3555,97.2451,64.1914,97.0732,64.0352z"/>
</g>
<g id="snow-cap-snow-cap">
	<path fill="#FFFFFF" d="M42.6143,29.7676c-0.2012-0.6846-0.3409-1.3926-0.3409-2.1426c0-4.2109,3.4151-7.625,7.625-7.625
		c4.2149,0,7.6319,3.4141,7.6319,7.625c0,0.7354-0.1338,1.4248-0.3282,2.0986c-1.081-0.2402-2.2392-0.4277-3.4892-0.5517H46.29
		C44.9658,29.2979,43.75,29.5078,42.6143,29.7676z"/>
	<path fill="#FC6E51" d="M73.2012,68.9687H26.7988c-1.7881,0-3.2392,1.4542-3.2392,3.2432v4.5469
		c0,1.7891,1.4511,3.2412,3.2392,3.2412h46.4024c1.792,0,3.2392-1.4521,3.2392-3.2412v-4.5469
		C76.4404,70.4229,74.9932,68.9687,73.2012,68.9687z"/>
	<path fill="#4A89DC" d="M28.5859,67.1084H71.415V46.6221c0,0,0.2735-12.7979-14.2129-16.0215
		c-1.081-0.2393-2.2392-0.4297-3.4892-0.5557H46.29c-1.3242,0.1377-2.54,0.334-3.6757,0.6045
		c-14.293,3.2901-14.0284,15.9727-14.0284,15.9727V67.1084z"/>
	<path fill="#FFFFFF" d="M62.0928,55.5615L60.96,54.9062l1.0957-0.5986l-1.543-0.8926l-1.1201,0.586l-0.5684-0.3281l1.9072-1.0391
		l-1.54-0.8906l-1.9365,1.0205l-0.9092-0.5283v-5.0665l0.9092-0.4921l1.9365,1.0205l1.54-0.8897l-1.9072-1.0381l0.5684-0.3281
		l1.123,0.582l1.5401-0.8896L60.96,44.5312l1.1357-0.6552l0.3242-1.2149l-1.2168-0.3222l-1.1308,0.6562l0.0254-1.2519
		l-1.5362,0.8906l-0.0605,1.2656l-0.5635,0.3252l0.0479-2.1719l-1.5391,0.8916l-0.083,2.1895l-1.0332,0.5625l-4.2393-2.4502v-1.1592
		l1.8535-1.166v-1.7803l-1.8535,1.1289v-0.6494l1.0655-0.6797v-1.7802l-1.0655,0.6464v-1.3095l-0.8926-0.8887l-0.8877,0.8887v1.3095
		l-1.0703-0.6464v1.7802l1.0703,0.6797v0.6494l-1.8574-1.1289v1.7803l1.8574,1.166v1.2422l-4.163,2.4092l-1.1143-0.6045
		l-0.084-2.1963l-1.541-0.8906l0.0527,2.1777l-0.5615-0.3252l-0.0596-1.2656l-1.5371-0.8906l0.0254,1.2461l-1.1347-0.6504
		l-1.2159,0.3222l0.3233,1.2149l1.1377,0.6552l-1.0977,0.6026l1.541,0.8896l1.126-0.582l0.5645,0.3232l-1.9073,1.043l1.5391,0.8897
		l1.9385-1.0274l1.0517,0.5752v4.9082l-1.0527,0.6104l-1.9375-1.0205l-1.5391,0.8906l1.9073,1.0391l-0.5645,0.3281l-1.126-0.586
		l-1.541,0.8897l1.0977,0.6015l-1.1377,0.6534l-0.3233,1.2109l1.2159,0.3291l1.1308-0.6562l-0.0234,1.2509l1.539-0.8896
		l0.0596-1.2637l0.5615-0.3281l-0.0527,2.1758l1.5391-0.8946l0.0859-2.1865l0.9482-0.5498l4.3262,2.4922v1.1035l-1.8574,1.1631
		v1.7803l1.8574-1.128v0.6475l-1.0674,0.6875v1.7744l1.0674-0.6445v1.3066l0.8877,0.8907l0.8955-0.8907v-1.3066l1.0655,0.6445
		v-1.7744l-1.0655-0.6875v-0.6475l1.8535,1.128v-1.7803l-1.8535-1.1631v-1.0166l4.4024-2.543l0.8701,0.5137l0.083,2.1924
		l1.5391,0.8887l-0.0518-2.1758l0.5674,0.3281l0.0556,1.2676l1.5411,0.8857l-0.0254-1.2509l1.1308,0.6562l1.2149-0.3213
		L62.0928,55.5615z M54.7363,51.2812l-1.5166-0.8896c0-0.4951,0-1.0684,0-1.5195l1.5166-0.8252
		C54.7363,48.9316,54.7363,50.3184,54.7363,51.2812z M53.6719,46.6016l-1.5615,0.8535c-0.3389-0.1973-0.7041-0.4141-1.0196-0.5996
		v-1.7461C51.8135,45.5293,52.8828,46.1426,53.6719,46.6016z M48.9043,50.583c0-0.0176,0-1.5576,0-1.583
		c0.0137-0.0059,0.8164-0.4678,0.8164-0.4678s0.5303-0.3095,0.5508-0.3222c0.0185,0.0127,1.3525,0.7841,1.3691,0.79
		c0,0.0254,0,1.5654,0,1.583c-0.0166,0.0127-1.3506,0.7803-1.3691,0.794C50.251,51.3633,48.918,50.5957,48.9043,50.583z
		 M49.3105,45.1943v1.75c-0.1367,0.0762-0.2314,0.1338-0.2314,0.1338s-0.333,0.1875-0.707,0.4073l-1.5635-0.8516
		C47.5557,46.207,48.5713,45.6201,49.3105,45.1943z M45.8066,48.1201l1.5176,0.8203c0,0.4239,0,0.9473,0,1.4063l-1.5176,0.875
		C45.8066,50.2861,45.8066,48.9854,45.8066,48.1201z M46.5938,52.8223l1.5166-0.8721c0.3652,0.2148,0.8076,0.4678,1.1972,0.6894
		v1.754C48.4961,53.9248,47.3506,53.2627,46.5938,52.8223z M51.0908,54.4746v-1.7461c0.4043-0.2334,0.8955-0.5234,1.3086-0.7558
		l1.4981,0.8798C53.0889,53.3203,51.8838,54.0195,51.0908,54.4746z"/>
</g>
</svg>
