<?xml version="1.0" encoding="utf-8"?>
<!-- Generator: Adobe Illustrator 17.1.0, SVG Export Plug-In . SVG Version: 6.00 Build 0)  -->
<!DOCTYPE svg PUBLIC "-//W3C//DTD SVG 1.1//EN" "http://www.w3.org/Graphics/SVG/1.1/DTD/svg11.dtd">
<svg version="1.1" id="snowlift" xmlns="http://www.w3.org/2000/svg" xmlns:xlink="http://www.w3.org/1999/xlink" x="0px" y="0px"
	 viewBox="0 0 100 100" enable-background="new 0 0 100 100" xml:space="preserve">
<circle id="snowlift-label" fill="#5D9CEC" cx="50" cy="50" r="50"/>
<g id="snowlift-shadow">
	<path fill="#4A89DC" d="M98.668,39.9619l-0.4942,0.1865v-0.6806l-0.4951,0.1875v-0.6826l-0.4941,0.1865v-0.6807l-0.4951,0.1875
		v-0.6816l-0.4942,0.1865v-0.6816l-0.4941,0.1865v-0.6807l-0.4942,0.1865V36.5l-0.4951,0.1875v-0.6816l-0.4951,0.1875v-0.6817
		l-0.4941,0.1865v-0.6816l-0.4942,0.1865v-0.6806l-0.4941,0.1865v-0.6807l-0.4951,0.1875v-0.6826l-0.4942,0.1865v-0.6806
		l-0.4941,0.1865v-0.6807l-0.4951,0.1875v-0.6826l-0.4942,0.1865v-0.6816l-0.4951,0.1875v-0.6817l-0.4941,0.1866v-0.6807
		l-0.4942,0.1865v-0.6816l-0.4951,0.1875v-0.6817l-0.4941,0.1866V29.083l-0.4942,0.1865v-0.6806l-0.4951,0.1875v-0.6827
		l-0.4941,0.1866v-0.6807l-0.4952,0.1875v-0.6816l-0.4941,0.1865v-0.6816l-0.4941,0.1865v-0.6807l-0.4952,0.1875v-0.6826
		l-0.4941,0.1865V25.127l-0.4941,0.1865v-0.6817l-0.4951,0.1875v-0.6816l-0.4942,0.1865v-0.6816l-0.4941,0.1865v-0.6807
		l-0.4951,0.1875v-0.6816l-19.6475,7.4326c-0.1025-0.1084-0.2158-0.2021-0.3311-0.2969c-0.1484-0.1826-0.3134-0.3476-0.497-0.4961
		c-0.1475-0.1816-0.3106-0.3457-0.4922-0.4931c-0.1485-0.1826-0.3145-0.3477-0.4971-0.4971
		c-0.1475-0.1807-0.3115-0.3447-0.4932-0.4922c-0.1474-0.1826-0.3125-0.3467-0.4941-0.4951
		c-0.1484-0.1816-0.3125-0.3457-0.4941-0.4941c-0.1485-0.1817-0.3125-0.3457-0.4942-0.4942
		c-0.1484-0.1816-0.3135-0.3467-0.4951-0.4951c-0.1484-0.1826-0.3135-0.3467-0.4961-0.4951
		c-0.625-0.7686-1.5664-1.2695-2.6348-1.2695c-1.8837,0-3.4121,1.5273-3.4121,3.4091c0,1.0684,0.501,2.0098,1.2696,2.6358
		c0.1484,0.1816,0.3134,0.3467,0.4961,0.4951c0.1474,0.1816,0.3125,0.3467,0.4951,0.4941c0.1465,0.1817,0.3105,0.3448,0.4912,0.4922
		c0.1484,0.1826,0.3135,0.3477,0.4961,0.4971c0.1484,0.1816,0.3125,0.3457,0.4941,0.4932c0.0381,0.0468,0.0752,0.0947,0.1153,0.1396
		l-1.1543,0.4365c-0.1094-0.1181-0.2295-0.2236-0.3545-0.3252c-0.1485-0.1836-0.3145-0.3496-0.4981-0.498
		c-0.1474-0.1807-0.3105-0.3447-0.4912-0.4912c-0.1494-0.1836-0.3154-0.3496-0.499-0.4981
		c-0.1465-0.1806-0.3096-0.3437-0.4902-0.4902c-0.1485-0.1826-0.3135-0.3477-0.4952-0.4961
		c-0.1484-0.1816-0.3125-0.3467-0.4951-0.4941c-0.1484-0.1827-0.3135-0.3477-0.4961-0.4961
		c-0.1474-0.1817-0.3115-0.3457-0.4922-0.4932c-0.1484-0.1826-0.3134-0.3477-0.4961-0.4951
		c-0.625-0.7686-1.5664-1.2695-2.6337-1.2695c-1.8829,0-3.4082,1.5273-3.4082,3.4111c0,1.0674,0.5009,2.0088,1.2685,2.6338
		c0.1475,0.1806,0.3125,0.3457,0.4941,0.4931c0.1475,0.1827,0.3125,0.3467,0.4952,0.4952c0.1474,0.1826,0.3125,0.3466,0.4951,0.4951
		c0.1474,0.1816,0.3125,0.3467,0.4941,0.4951c0.1485,0.1816,0.3125,0.3457,0.4942,0.4941c0.0459,0.0557,0.0888,0.1133,0.1377,0.167
		L18.6406,46.3809v2.1211l0.4942-0.1866v0.6807l0.4951-0.1875v0.6826l0.4941-0.1865v0.6807l0.4951-0.1875v0.6816l0.4942-0.1865
		v0.6816l0.4941-0.1865v0.6806l0.4951-0.1875v0.6827l0.4942-0.1866v0.6807l0.4941-0.1865v0.6806l0.4951-0.1875v0.6827l0.4942-0.1866
		v0.6807l0.4941-0.1865v0.6806l0.4951-0.1875v0.6827l0.4942-0.1866v0.6807l0.4951-0.1875v0.6826l0.4941-0.1865v0.6807l0.4942-0.1866
		v0.6807l0.4951-0.1875v0.6816l0.4941-0.1865v0.6817l0.4942-0.1866v0.6817l0.4951-0.1875v0.6816l0.4941-0.1865v0.6807l0.4942-0.1866
		v0.6807l0.4951-0.1875v0.6826l0.4951-0.1875v0.6826l0.4941-0.1865v0.6807l0.4942-0.1865v0.6806l0.4375-0.166V75.166
		c0,0.7276,0.3594,1.3662,0.9062,1.7617c0.1377,0.1924,0.3057,0.3604,0.4981,0.4981c0.1367,0.1894,0.3027,0.3554,0.4922,0.4922
		c0.1377,0.1904,0.3037,0.3564,0.4941,0.4941c0.1377,0.1914,0.3057,0.3594,0.4971,0.4971c0.1367,0.1904,0.3027,0.3554,0.4931,0.4931
		c0.1368,0.1895,0.3038,0.3555,0.4932,0.4932c0.1377,0.1914,0.3057,0.3584,0.4971,0.4971c0.1367,0.1894,0.3027,0.3554,0.4931,0.4931
		c0.1377,0.1905,0.3038,0.3565,0.4942,0.4942c0.1377,0.1904,0.3047,0.3574,0.4951,0.4951c0.1367,0.1904,0.3037,0.3564,0.4941,0.4941
		c0.1368,0.1905,0.3038,0.3575,0.4942,0.4942c0.1377,0.1904,0.3047,0.3574,0.4951,0.4951c0.1367,0.1904,0.3037,0.3564,0.4941,0.4941
		c0.1377,0.1914,0.3047,0.3584,0.4961,0.4961c0.1368,0.1895,0.3028,0.3555,0.4932,0.4932c0.1367,0.1904,0.3037,0.3564,0.4941,0.4941
		c0.1377,0.1914,0.3047,0.3575,0.4952,0.4952c0.1377,0.1904,0.3046,0.3574,0.4951,0.4941c0.1367,0.1914,0.3037,0.3574,0.4941,0.4951
		c0.1377,0.1904,0.3037,0.3565,0.4942,0.4942c0.1377,0.1904,0.3046,0.3574,0.4951,0.4951c0.1367,0.1894,0.3037,0.3554,0.4931,0.4931
		c0.1377,0.1914,0.3057,0.3584,0.4971,0.4961c0.1367,0.1895,0.3027,0.3555,0.4922,0.4922c0.1367,0.1914,0.3047,0.3584,0.4951,0.4961
		c0.1377,0.1914,0.3047,0.3574,0.4961,0.4961c0.1367,0.1895,0.3027,0.3545,0.4922,0.4912c0.1367,0.1914,0.3047,0.3584,0.4951,0.4961
		c0.1377,0.1904,0.3037,0.3565,0.4942,0.4941c0.1376,0.1905,0.3046,0.3575,0.4951,0.4952c0.1367,0.1904,0.3037,0.3564,0.4941,0.4941
		c0.1367,0.1904,0.3037,0.3565,0.4932,0.4932c0.1377,0.1924,0.3056,0.3593,0.497,0.497c0.1368,0.1895,0.3028,0.3555,0.4922,0.4922
		c0.1377,0.1914,0.3047,0.3584,0.4961,0.4961c0.1367,0.1905,0.3037,0.3565,0.4942,0.4942c0.1367,0.1894,0.3027,0.3554,0.4931,0.4931
		c0.1377,0.1914,0.3047,0.3584,0.4961,0.4961c0.1377,0.1904,0.3047,0.3574,0.4951,0.4951c0.1368,0.1895,0.3028,0.3555,0.4922,0.4922
		c0.1377,0.1914,0.3047,0.3584,0.4961,0.4961c0.1367,0.1904,0.3037,0.3565,0.4942,0.4942c0.1367,0.1894,0.3027,0.3554,0.4922,0.4921
		c0.1386,0.1934,0.3076,0.3624,0.5009,0.501c0.1221,0.168,0.2735,0.3106,0.4385,0.4385C80.7998,96.6436,100,75.5703,100,50
		c0-3.0303-0.2852-5.9932-0.8008-8.875l-0.0371,0.0137v-0.2188c-0.0264-0.1445-0.0498-0.29-0.0771-0.4336l-0.417,0.1573V39.9619z"/>
</g>
<g id="snowlift-snowlift">
	<path fill="#FFFFFF" d="M67.2842,50.1035H52.0771V37.7773l-2.1201,0.8555v11.4707H34.6113c-1.205,0-2.1816,0.9785-2.1816,2.1817
		V75.166c0,1.2051,0.9766,2.1797,2.1816,2.1797h32.6729c1.2041,0,2.1816-0.9746,2.1816-2.1797V52.2852
		C69.4658,51.082,68.4883,50.1035,67.2842,50.1035z"/>
	<circle fill="#FFFFFF" cx="54.2939" cy="27.4785" r="3.4101"/>
	<circle fill="#FFFFFF" cx="46.1436" cy="30.524" r="3.4096"/>
	<polygon fill="#FFFFFF" points="81.3604,24.7754 81.3604,22.6543 18.6406,46.3809 18.6406,48.502 	"/>
	<path fill="#4FC1E9" d="M44.0908,62.5361c0,0.6553-0.5293,1.1846-1.1836,1.1846h-7.1758c-0.6543,0-1.1835-0.5293-1.1835-1.1846
		v-7.1748c0-0.6543,0.5292-1.1845,1.1835-1.1845h7.1758c0.6543,0,1.1836,0.5302,1.1836,1.1845V62.5361z"/>
	<path fill="#4FC1E9" d="M55.7676,62.4395c0,0.6542-0.5303,1.1855-1.1826,1.1855h-7.1778c-0.6533,0-1.1826-0.5313-1.1826-1.1855
		v-7.1758c0-0.6543,0.5293-1.1836,1.1826-1.1836h7.1778c0.6523,0,1.1826,0.5293,1.1826,1.1836V62.4395z"/>
	<path fill="#4FC1E9" d="M67.373,62.4395c0,0.6542-0.5302,1.1855-1.1835,1.1855h-7.1778c-0.6523,0-1.1826-0.5313-1.1826-1.1855
		v-7.1758c0-0.6543,0.5303-1.1836,1.1826-1.1836h7.1778c0.6533,0,1.1835,0.5293,1.1835,1.1836V62.4395z"/>
</g>
</svg>
