<?xml version="1.0" encoding="utf-8"?>
<!-- Generator: Adobe Illustrator 17.1.0, SVG Export Plug-In . SVG Version: 6.00 Build 0)  -->
<!DOCTYPE svg PUBLIC "-//W3C//DTD SVG 1.1//EN" "http://www.w3.org/Graphics/SVG/1.1/DTD/svg11.dtd">
<svg version="1.1" id="snowboard" xmlns="http://www.w3.org/2000/svg" xmlns:xlink="http://www.w3.org/1999/xlink" x="0px" y="0px"
	 viewBox="0 0 100 100" enable-background="new 0 0 100 100" xml:space="preserve">
<circle id="snowboard-label" fill="#4FC1E9" cx="50" cy="50" r="50"/>
<g id="snowboard-shadow">
	<path id="snowboard-shadow_1_" fill="#3BAFDA" d="M94.4746,59.3594l3.7715,3.7715c-4.6318,17.0566-18.0596,30.4834-35.1172,35.1152
		l-0.2412-0.2422l-2.0449-2.0449l-4.3838-4.3838l-0.4942-0.4941l-0.9892-0.9893l-1.0557-1.0557l-0.6367-0.6367l-3.8144-3.8135
		c0,0,0,0,0.0009,0l-0.9228-0.9228l-2.9668-2.9668l-0.5615-0.5615l-0.4942-0.4942l-0.9892-0.9892l-0.6368-0.6368l-3.8144-3.8134
		c0,0,0,0,0.001,0l-1.9786-1.9785l-2.9668-2.9668l-6.4287-6.4288l-0.9882-0.9892c1.5371-1.249,3.205-2.5234,4.8554-3.9317
		C35,54.9863,39.9668,50.5195,43.2207,47.2646l4.043-4.0429c3.2558-3.2549,7.7217-8.2207,10.6426-11.6436
		c1.4072-1.6484,2.6816-3.3174,3.9306-4.8554l0.9893,0.9892l0.4941,0.4942l0.4942,0.4941l0,0l0.9902,0.9893l5.9336,5.9335l3,3.001
		l3.001,3l1.9111,1.9112l5.7207,5.7207l0.4228,0.4228l0.2852,0.2852l1.7647,1.7646l1.7636,1.7637l0.2852,0.2851l0.1426,0.1426
		L94.4746,59.3594z M99.4434,44.5654c-0.1504-0.1533-0.25-0.2412-0.25-0.2412s-0.0899-0.1015-0.2471-0.2549
		c-0.1494-0.1523-0.2481-0.2402-0.2481-0.2402s-0.08-0.0898-0.2177-0.2266c-0.167-0.1718-0.2764-0.2685-0.2764-0.2685
		s-0.0898-0.1016-0.2471-0.2549c-0.1484-0.1514-0.247-0.2393-0.247-0.2393s-0.0938-0.1054-0.2588-0.2666
		c-0.1426-0.1435-0.2364-0.2275-0.2364-0.2275s-0.0918-0.1045-0.2539-0.2627c-0.1445-0.1465-0.2402-0.2314-0.2402-0.2314
		s-0.085-0.0957-0.2314-0.2393c-0.1582-0.1631-0.2627-0.2559-0.2627-0.2559s-0.086-0.0957-0.2325-0.2402
		c-0.1582-0.1621-0.2627-0.2549-0.2627-0.2549s-0.0888-0.1006-0.2441-0.2519c-0.1504-0.1533-0.25-0.2422-0.25-0.2422
		s-0.0898-0.1006-0.2451-0.2539c-0.1504-0.1524-0.249-0.2403-0.249-0.2403s-0.0967-0.1093-0.2686-0.2753
		c-0.1367-0.1387-0.2266-0.2188-0.2266-0.2188s-0.08-0.0898-0.2187-0.2275c-0.166-0.1709-0.2754-0.2676-0.2754-0.2676
		s-0.0937-0.1055-0.2568-0.2647c-0.1436-0.1455-0.2373-0.2295-0.2373-0.2295s-0.086-0.0957-0.2325-0.2402
		c-0.1582-0.1621-0.2627-0.2549-0.2627-0.2549s-0.0898-0.1006-0.2451-0.2539c-0.1504-0.1523-0.249-0.2402-0.249-0.2402
		s-0.0976-0.1104-0.2715-0.2793c-0.1347-0.1357-0.2236-0.2149-0.2236-0.2149s-0.0879-0.0996-0.2422-0.25
		c-0.1523-0.1552-0.2519-0.2441-0.2519-0.2441s-0.085-0.0957-0.2315-0.2392c-0.1582-0.1631-0.2627-0.2559-0.2627-0.2559
		s-0.0859-0.0957-0.2324-0.2402c-0.1582-0.1622-0.2627-0.2549-0.2627-0.2549s-0.0938-0.1055-0.2578-0.2657
		c-0.1426-0.1445-0.2373-0.2285-0.2373-0.2285s-0.0928-0.1054-0.2578-0.2656c-0.1426-0.1445-0.2364-0.2285-0.2364-0.2285
		s-0.0879-0.0996-0.2422-0.25c-0.1523-0.1553-0.2519-0.2441-0.2519-0.2441s-0.0801-0.0899-0.2188-0.2276
		c-0.166-0.1709-0.2753-0.2676-0.2753-0.2676s-0.0938-0.1064-0.2598-0.2675c-0.1416-0.1436-0.2344-0.2266-0.2344-0.2266
		s-0.0849-0.0947-0.2305-0.2383c-0.1601-0.164-0.2646-0.2568-0.2646-0.2568s-0.0928-0.1055-0.2568-0.2647
		c-0.1436-0.1455-0.2383-0.2295-0.2383-0.2295s-0.0928-0.1054-0.2578-0.2656c-0.1426-0.1445-0.2364-0.2285-0.2364-0.2285
		s-0.08-0.0898-0.2187-0.2275c-0.166-0.1709-0.2754-0.2676-0.2754-0.2676s-0.0898-0.1006-0.2461-0.2539
		c-0.1494-0.1524-0.248-0.2403-0.248-0.2403s-0.0899-0.1005-0.2452-0.2529c-0.1504-0.1543-0.25-0.2422-0.25-0.2422
		s-0.0898-0.1006-0.2451-0.2539c-0.1504-0.1523-0.249-0.2402-0.249-0.2402s-0.0938-0.1065-0.2588-0.2676
		c-0.1426-0.1436-0.2363-0.2266-0.2363-0.2266s-0.084-0.0947-0.2305-0.2382c-0.1582-0.1641-0.2637-0.2569-0.2637-0.2569
		s-0.0937-0.1054-0.2568-0.2646c-0.1435-0.1455-0.2373-0.2295-0.2373-0.2295s-0.0937-0.1055-0.2578-0.2656
		c-0.1426-0.1446-0.2373-0.2286-0.2373-0.2286s-0.0801-0.0898-0.2188-0.2275c-0.166-0.1709-0.2754-0.2676-0.2754-0.2676
		s-0.0937-0.1054-0.2587-0.2666c-0.1426-0.1435-0.2364-0.2275-0.2364-0.2275s-0.0879-0.0996-0.2422-0.251
		c-0.1513-0.1543-0.2519-0.2432-0.2519-0.2432s-0.0889-0.1005-0.2442-0.2519c-0.1503-0.1543-0.25-0.2432-0.25-0.2432
		s-0.0898-0.1006-0.246-0.2539c-0.1495-0.1523-0.2481-0.2402-0.2481-0.2402s-0.0859-0.0957-0.2324-0.2402
		c-0.1582-0.1622-0.2627-0.2549-0.2627-0.2549s-0.0899-0.1006-0.2451-0.2539c-0.1504-0.1524-0.2491-0.2403-0.2491-0.2403
		s-0.0966-0.1103-0.2705-0.2773c-0.1347-0.1377-0.2246-0.2168-0.2246-0.2168s-0.08-0.0899-0.2187-0.2276
		c-0.166-0.1709-0.2754-0.2675-0.2754-0.2675s-0.0938-0.1065-0.2588-0.2666c-0.1416-0.1436-0.2354-0.2276-0.2354-0.2276
		s-3.1289-3.6308-7.7617-2.2529c-0.7383,0.2187-1.4336,0.5312-2.0996,0.9199l0.9903,0.9893c-0.001,0-0.001,0-0.001,0l2.4726,2.4726
		l1.4834,1.4834l3.9561,3.9561l3.956,3.956l2.4727,2.4727l4.9453,4.9453l0,0l2.7979,2.7979l3.4502,3.4502l5.7656,5.7656
		C99.9443,52.3564,100,51.1855,100,50c0-1.7334-0.0879-3.4453-0.2598-5.1338c-0.0293-0.0264-0.0527-0.0478-0.0527-0.0478
		S99.5977,44.7178,99.4434,44.5654z M56.5264,94.7451L56.0313,94.25c0.0009,0,0.0009,0,0.0009,0l-6.9228-6.9229l-0.9893-0.9892
		l-2.9678-2.9668l-2.4726-2.4727l-1.2363-1.2363l-0.2461-0.2471l-1.4844-1.4834l-0.9883-0.9892l-1.2363-1.2363l-8.0029-8.002
		l-2.9668-2.9668l-0.9893-0.9893l-0.4941-0.4941c-0.17,0.1504-0.336,0.3018-0.5,0.4512l1.9775,1.9785l4.25,4.25l5.0381,5.0381
		l1.4824,1.4834l1.4844,1.4834l3.4609,3.4619c0,0,0,0,0.001,0l2.7197,2.7197l2.7188,2.7197l0.8603,0.8604l4.085,4.085l0.4941,0.4941
		l3.4629,3.4619l1.4824,1.4834l1.7998,1.7998c0.2627-0.0527,0.5225-0.1133,0.7842-0.1699l-2.1328-2.1318L56.5264,94.7451z
		 M52.3867,98.7285l-0.4941-0.4941l-1.4834-1.4834l-0.4951-0.4951l-0.4942-0.4942l-0.4941-0.4941l-1.9785-1.9785l-1.4834-1.4834
		l-1.4834-1.4834l-0.9893-0.9893l-1.4834-1.4834l-0.9892-0.9892l-0.4942-0.4942l-0.9892-0.9892l-0.4942-0.4942l-0.9892-0.9892
		l-0.9893-0.9893l-0.4941-0.4941l-1.9786-1.9786l-0.4941-0.4941l-1.4834-1.4834l-0.9893-0.9893l-0.4941-0.4941l-2.4726-2.4727
		l-0.4942-0.4941l-0.9902-0.9893l-0.4942-0.4941l-0.9882-0.9893l-0.4942-0.4941l-2.4736-2.4736c0,0,0,0,0,0.001l-0.9893-0.9893
		c-0.3896,0.666-0.7011,1.3613-0.9209,2.0996c-1.3769,4.6309,2.2549,7.7607,2.2549,7.7607s0.084,0.0948,0.2305,0.2393
		c0.1582,0.1631,0.2636,0.2559,0.2636,0.2559s0.0958,0.1084,0.2657,0.2734c0.1386,0.1396,0.2285,0.2197,0.2285,0.2197
		s0.0849,0.0957,0.2314,0.2393c0.1582,0.1631,0.2627,0.2558,0.2627,0.2558s0.085,0.0948,0.2305,0.2383
		c0.1592,0.1631,0.2646,0.2569,0.2646,0.2569s0.0889,0.0996,0.2422,0.25c0.1514,0.1552,0.252,0.2441,0.252,0.2441
		s0.0928,0.1045,0.2549,0.2627c0.1445,0.1465,0.2402,0.2314,0.2402,0.2314s0.0957,0.1094,0.2686,0.2764
		c0.1357,0.1377,0.2255,0.2178,0.2255,0.2178s0.0801,0.0898,0.2178,0.2256c0.167,0.1728,0.2764,0.2695,0.2764,0.2695
		s0.0937,0.1045,0.2558,0.2627c0.1446,0.1465,0.2393,0.2314,0.2393,0.2314s0.084,0.0948,0.2295,0.2383
		c0.1602,0.1631,0.2656,0.2569,0.2656,0.2569s0.0879,0.0996,0.2422,0.2509c0.1514,0.1543,0.252,0.2432,0.252,0.2432
		s0.0839,0.0947,0.2285,0.2383c0.1601,0.1631,0.2656,0.2568,0.2656,0.2568s0.0918,0.1035,0.2529,0.2608
		c0.1455,0.1474,0.2412,0.2334,0.2412,0.2334s0.0938,0.1044,0.2559,0.2627c0.1445,0.1464,0.2393,0.2314,0.2393,0.2314
		s0.0791,0.0889,0.2158,0.2246c0.1679,0.1729,0.2783,0.2705,0.2783,0.2705s0.0928,0.1055,0.2568,0.2647
		c0.1436,0.1455,0.2383,0.2295,0.2383,0.2295s0.0918,0.1035,0.2529,0.2607c0.1456,0.1484,0.2413,0.2334,0.2413,0.2334
		s0.0791,0.0889,0.2158,0.2246c0.1679,0.1729,0.2783,0.2705,0.2783,0.2705s0.0937,0.1055,0.2568,0.2647
		c0.1436,0.1455,0.2373,0.2295,0.2373,0.2295s0.085,0.0947,0.2305,0.2382c0.1592,0.1631,0.2647,0.2569,0.2647,0.2569
		s0.0927,0.1045,0.2548,0.2627c0.1446,0.1465,0.2403,0.2314,0.2403,0.2314s0.0927,0.1055,0.2558,0.2647
		c0.1436,0.1455,0.2383,0.2295,0.2383,0.2295s0.0879,0.0996,0.2412,0.249c0.1524,0.1552,0.253,0.2451,0.253,0.2451
		s0.0849,0.0957,0.2314,0.2393c0.1582,0.163,0.2627,0.2558,0.2627,0.2558s0.0937,0.1045,0.2559,0.2627
		c0.1445,0.1465,0.2392,0.2315,0.2392,0.2315s0.0801,0.0898,0.2178,0.2265c0.166,0.1719,0.2764,0.2686,0.2764,0.2686
		s0.0927,0.1054,0.2568,0.2646c0.1435,0.1455,0.2383,0.2295,0.2383,0.2295s0.083,0.0938,0.2265,0.2354
		c0.1612,0.166,0.2676,0.2597,0.2676,0.2597s0.0889,0.1006,0.2442,0.252c0.1503,0.1533,0.25,0.2422,0.25,0.2422
		s0.0839,0.0947,0.2304,0.2392c0.1592,0.1631,0.2637,0.2559,0.2637,0.2559s0.0928,0.1045,0.2549,0.2627
		c0.1445,0.1465,0.2402,0.2314,0.2402,0.2314s0.0889,0.1006,0.2441,0.252c0.1504,0.1533,0.25,0.2422,0.25,0.2422
		s0.0967,0.1093,0.2667,0.2744c0.1386,0.1396,0.2285,0.2197,0.2285,0.2197s0.0918,0.1035,0.2519,0.2607
		c0.1465,0.1475,0.2422,0.2334,0.2422,0.2334s0.085,0.0948,0.2305,0.2383c0.1601,0.1641,0.2646,0.2569,0.2646,0.2569
		s0.0889,0.1005,0.2442,0.2519c0.1504,0.1533,0.25,0.2422,0.25,0.2422s0.0839,0.0947,0.2295,0.2383
		c0.1601,0.1631,0.2656,0.2568,0.2656,0.2568s0.0928,0.1055,0.2558,0.2637c0.1436,0.1465,0.2383,0.2305,0.2383,0.2305
		s0.0791,0.0888,0.2158,0.2246c0.168,0.1728,0.2784,0.2705,0.2784,0.2705s0.0937,0.1054,0.2568,0.2646
		c0.1436,0.1455,0.2373,0.2295,0.2373,0.2295s0.0859,0.0957,0.2324,0.2393c0.1582,0.1631,0.2627,0.2558,0.2627,0.2558
		s0.0889,0.0996,0.2422,0.25c0.1514,0.1553,0.252,0.2442,0.252,0.2442s0.0927,0.1045,0.2548,0.2627
		c0.1446,0.1465,0.2403,0.2314,0.2403,0.2314s0.0918,0.1045,0.2539,0.2617c0.1445,0.1475,0.2402,0.2325,0.2402,0.2325
		s0.0801,0.0898,0.2188,0.2275c0.166,0.1709,0.2754,0.2676,0.2754,0.2676s0.0254,0.0283,0.0468,0.0508
		C46.5527,99.9111,48.2656,100,50,100c1.1846,0,2.3564-0.0557,3.5215-0.1367l-0.1455-0.1455L52.3867,98.7285z M54.5361,98.0693
		l-0.9892-0.9892l-1.4834-1.4834l-2.9678-2.9678l-0.4941-0.4941l-0.4942-0.4942l-0.4941-0.4941l-0.6817-0.6817l-0.205-0.205
		l-0.1026-0.1026l-0.5879-0.5879l-0.8955-0.8955l-1.1758-1.1758L32.2832,75.8164l-0.4941-0.4941l-0.9903-0.9903l-0.9883-0.9883
		l-0.4941-0.4941l-0.4941-0.4941l-0.9893-0.9893l-0.9892-0.9892L26.75,70.2832l-3.3672-3.3682c0,0,0,0-0.001,0l-0.4941-0.4941
		l-0.4951-0.4941c-0.3115,0.3798-0.6016,0.7695-0.8633,1.1718l0.4941,0.4942l0.4952,0.4951l0.4941,0.4941l0.9893,0.9893
		l0.4941,0.4941l0.4951,0.4951c-0.001,0-0.001,0-0.001,0l1.4844,1.4834l2.4727,2.4727L30.4297,76l1.8135,1.8125l0.165,0.165
		l0.4951,0.4952c-0.001,0-0.001,0-0.001,0l1.9786,1.9775l0.4941,0.4941l0.4951,0.4952l0.4942,0.4941l0.4951,0.4951l0.4941,0.4942
		l0.4942,0.4941l0.4951,0.4951l0.4941,0.4941l1.4834,1.4834c0,0.001,0,0.001,0,0.001l3.9561,3.9551l0.9892,0.9893l0.4951,0.4951
		c-0.0009,0-0.0009,0-0.0009,0l1.4843,1.4834l1.9776,1.9775l0.4941,0.4942l0.9893,0.9892l0.4941,0.4942c0,0.0009,0,0.0009,0,0.0009
		l2.4727,2.4727l0.5664,0.5664c0.6191-0.0527,1.2344-0.1162,1.8467-0.1904l-0.0655-0.0655L54.5361,98.0693z M85.957,46.7871
		L85.957,46.7871l-0.4941-0.4941l-0.1074-0.1075l0,0l-2.4727-2.4726l-0.4941-0.4942l-0.4942-0.4941l-1.9785-1.9785l-0.9883-0.9893
		l0,0L67.166,27.9961l-1.9775-1.9775l-0.9893-0.9893l-0.4941-0.4941c-0.1504,0.164-0.3008,0.33-0.4512,0.5009l0.4941,0.4942
		l8.4063,8.4072l1.4834,1.4834l2.4727,2.4727l2.9667,2.9668l0.9893,0.9892l1.4834,1.4834l0.9893,0.9893l1.3261,1.3261l1.4834,1.4834
		l1.6407,1.6407l0.832,0.832l0.1572,0.1572l1.8731,1.8731l3.9043,3.9043l0,0l0.4941,0.4941l0.6514,0.6514l0.9892,0.9892
		l2.8096,2.8096l0.1553,0.1553c0.0566-0.2617,0.1162-0.5215,0.1689-0.7842l-1.3056-1.3057L85.957,46.7871z M98.1348,55.7656
		l-0.1973-0.1972l-0.5937-0.5938l-1.4834-1.4834l-3.462-3.4619l-0.4941-0.4941l-0.627-0.626l-0.3623-0.3633l-0.4443-0.4443
		l-0.4453-0.4454l-0.2305-0.2314l-0.2636-0.2627l-0.0997-0.0996l-0.4453-0.4453l-0.4443-0.4443l-0.9893-0.9893l-0.5937-0.5938
		l-0.4942-0.4941l-0.4941-0.4941l-0.4951-0.4952l-2.4727-2.4726l-1.4834-1.4834l-1.4834-1.4834l-0.9892-0.9893L67.2773,24.9092
		l-1.9775-1.9776c-0.2822,0.2569-0.5635,0.5254-0.8389,0.8067l0.9893,0.9892c-0.001,0-0.001,0-0.001,0l5.9346,5.9346l1.956,1.9561
		l3.9112,3.9111l2.4726,2.4727l0.0664,0.0664l0.4717,0.4726l0.9453,0.9444l2.1651,2.165l1.791,1.791l1.0557,1.0557l10.3398,10.3398
		l2.7012,2.7012c0.081-0.4717,0.1601-0.9434,0.2275-1.4199l-1.1543-1.1543L98.1348,55.7656z M55.3535,96.0762l-2.0117-2.0117
		l-1.4844-1.4834l-0.9883-0.9893l-2.9668-2.9668l-1.6972-1.6973l-1.6973-1.6972l-0.5625-0.5616l-0.9883-0.9892l-4.4511-4.4502
		l-2.4727-2.4727l-3.2139-3.2138l-2.1582-2.1582l-1.4834-1.4834l-4.4511-4.4512l-0.9883-0.9883
		c-0.2813,0.2754-0.5498,0.5567-0.8067,0.8379l3.462,3.4619l4.3505,4.3516l4.4512,4.4512l1.4824,1.4834l1.4844,1.4833l0.9883,0.9893
		l1.4844,1.4834l0,0l0.4941,0.4941l0.4941,0.4942l0.4952,0.4951l2.4716,2.4727c0,0,0,0,0.001,0l0.4942,0.4941l0.9892,0.9893
		l0.4942,0.4941l0.9892,0.9893l0.4942,0.4941l0.9892,0.9893l1.4834,1.4834l0.3633,0.3632l2.6045,2.6045l2.9668,2.9668l0,0
		l0.4941,0.4942l0.1641,0.165c0.4766-0.0684,0.9473-0.1475,1.418-0.2275l-1.2041-1.2051L55.3535,96.0762z M96.7676,51.2002
		L96.7676,51.2002l-0.4942-0.4941l-0.0009-0.001l-0.2471-0.2471l-5.6856-5.6865l-4.9453-4.9453l0,0l-2.9668-2.9668l0,0
		l-2.9668-2.9668l-3.957-3.9561l0,0l-2.9668-2.9668l-0.9883-0.9892c0,0,0,0-0.0009,0l-2.9659-2.9668c0,0,0,0-0.0009,0
		l-0.4942-0.4942l-0.9892-0.9892c-0.4024,0.2607-0.7891,0.5498-1.1719,0.8633l0.4941,0.4941l0.4951,0.4951
		c-0.0009,0-0.0009,0-0.0009,0l0.9902,0.9893l2.4717,2.4716l0.4951,0.4952l0,0l0.9883,0.9892l1.4844,1.4834l1.4833,1.4834
		c-0.0009,0-0.0009,0-0.0009,0l0.9902,0.9893l2.9668,2.9668l0,0l2.9668,2.9668l0.4941,0.4951l0,0l2.9668,2.9668l0,0l5.4405,5.4394
		c-0.001,0-0.001,0-0.001,0l3.957,3.9561l0,0l0.9883,0.9893l0,0l2.4102,2.4101l0.0625,0.0625l0,0l1.5507,1.5498
		c0.0743-0.6123,0.1377-1.2275,0.1895-1.8457l-2.0508-2.0517L96.7676,51.2002z"/>
</g>
<g id="snowboard-skateboard">
	<linearGradient id="SVGID_1_" gradientUnits="userSpaceOnUse" x1="44.0991" y1="44.0986" x2="55.9015" y2="55.901">
		<stop  offset="0.5" style="stop-color:#FFFFFF"/>
		<stop  offset="0.5" style="stop-color:#D9D9D9"/>
	</linearGradient>
	<path fill="url(#SVGID_1_)" d="M22.3926,65.9268l11.6816,11.6816c-0.3808,0.3125-0.7705,0.6006-1.1709,0.8623l-11.374-11.3721
		C21.791,66.6963,22.0811,66.3066,22.3926,65.9268z M63.2539,25.0361l11.7109,11.711c0.17-0.1514,0.336-0.3008,0.501-0.4512
		L63.7051,24.5352C63.5547,24.6992,63.4043,24.8652,63.2539,25.0361z M77.4355,22.5654c0,0-3.1289-3.6308-7.7617-2.2529
		c-0.7383,0.2187-1.4336,0.5312-2.0996,0.9199l11.1944,11.1934c0.3877-0.666,0.7011-1.3613,0.9189-2.0987
		C81.0664,25.6953,77.4355,22.5654,77.4355,22.5654z M64.4609,23.7383L76.2617,35.54c0.2813-0.2773,0.5508-0.5566,0.8067-0.8398
		L65.2998,22.9316C65.0176,23.1885,64.7363,23.457,64.4609,23.7383z M22.9316,65.2998l11.7686,11.7695
		c0.2832-0.2568,0.5615-0.5263,0.8389-0.8066L23.7383,64.4619C23.457,64.7373,23.1885,65.0186,22.9316,65.2998z M65.9258,22.3936
		l11.6816,11.6806c0.3125-0.3808,0.6016-0.7695,0.8623-1.1709l-11.372-11.373C66.6953,21.791,66.3086,22.0801,65.9258,22.3936z
		 M20.3115,69.6748c-1.3769,4.6309,2.2549,7.7607,2.2549,7.7607s3.1289,3.6299,7.7598,2.253
		c0.7373-0.2198,1.4336-0.5313,2.0986-0.919L21.2324,67.5752C20.8428,68.2412,20.5313,68.9365,20.3115,69.6748z M57.9063,31.5781
		c-2.9209,3.4229-7.3868,8.3887-10.6426,11.6436l-4.043,4.0429C39.9668,50.5195,35,54.9863,31.5781,57.9062
		c-1.6504,1.4083-3.3183,2.6827-4.8554,3.9317l11.4394,11.4404c1.25-1.5381,2.5234-3.206,3.9317-4.8564
		c2.9218-3.4229,7.3867-8.3877,10.6425-11.6416l4.043-4.043C60.0352,49.4814,65,45.0166,68.4219,42.0947
		c1.6494-1.4082,3.3174-2.6826,4.8554-3.9316L61.8369,26.7227C60.5879,28.2607,59.3135,29.9297,57.9063,31.5781z M24.5352,63.7051
		l11.7597,11.7607c0.1514-0.164,0.3008-0.331,0.4512-0.501L25.0352,63.2539C24.8652,63.4043,24.6992,63.5557,24.5352,63.7051z"/>
</g>
</svg>
