<?xml version="1.0" encoding="utf-8"?>
<!-- Generator: Adobe Illustrator 17.1.0, SVG Export Plug-In . SVG Version: 6.00 Build 0)  -->
<!DOCTYPE svg PUBLIC "-//W3C//DTD SVG 1.1//EN" "http://www.w3.org/Graphics/SVG/1.1/DTD/svg11.dtd">
<svg version="1.1" id="snowball" xmlns="http://www.w3.org/2000/svg" xmlns:xlink="http://www.w3.org/1999/xlink" x="0px" y="0px"
	 viewBox="0 0 100 100" enable-background="new 0 0 100 100" xml:space="preserve">
<circle id="snowball-label" fill="#AC92EC" cx="50" cy="50" r="50"/>
<g id="snowball-shadow">
	<path fill="#967ADC" d="M98.0068,60.6172c-0.1591-0.1641-0.3203-0.3252-0.4843-0.4844c-0.1621-0.167-0.3272-0.332-0.4942-0.4941
		c-0.1631-0.168-0.3281-0.334-0.4951-0.4961c-0.167-0.1719-0.3359-0.3408-0.5078-0.5078c-0.1611-0.1651-0.3242-0.3282-0.4902-0.4893
		c-0.1582-0.1631-0.3204-0.3252-0.4834-0.4834c-0.1651-0.1709-0.333-0.3389-0.5039-0.5039
		c-0.1583-0.1641-0.3194-0.3242-0.4825-0.4834c-0.1689-0.1738-0.3388-0.3447-0.5127-0.5127
		c-0.1591-0.1641-0.3213-0.3252-0.4853-0.4853c-0.1631-0.167-0.3272-0.3321-0.4951-0.4942c-0.1621-0.167-0.3272-0.332-0.4942-0.4951
		c-0.1621-0.166-0.3261-0.3311-0.4931-0.4922c-0.1621-0.167-0.3262-0.332-0.4932-0.4941c-0.165-0.169-0.332-0.336-0.501-0.501
		c-0.1631-0.167-0.3271-0.3311-0.4951-0.4941c-0.1611-0.1661-0.3242-0.3291-0.4902-0.4903
		c-0.1592-0.164-0.3213-0.3262-0.4854-0.4863c-0.167-0.1719-0.3369-0.3418-0.5088-0.5088c-0.1611-0.165-0.3242-0.3281-0.4892-0.4893
		c-0.1631-0.1669-0.3272-0.331-0.4942-0.4941c-0.166-0.1699-0.334-0.3379-0.5039-0.5029c-0.1572-0.1612-0.3154-0.3203-0.4765-0.4766
		c-0.1661-0.1709-0.334-0.3398-0.5049-0.5058c-0.1621-0.1661-0.3262-0.3301-0.4922-0.4922
		c-0.1631-0.167-0.3281-0.3321-0.4951-0.4952c-0.1641-0.1689-0.3311-0.3349-0.5-0.499c-0.1592-0.164-0.3203-0.3252-0.4844-0.4844
		c-0.1641-0.1699-0.3311-0.3369-0.501-0.5009c-0.1621-0.167-0.3261-0.3311-0.4922-0.4922c-0.1631-0.168-0.3281-0.333-0.4951-0.4961
		c-0.164-0.168-0.3301-0.334-0.499-0.4981c-0.1582-0.1621-0.3184-0.3232-0.4815-0.4814c-0.1679-0.1738-0.3398-0.3457-0.5136-0.5137
		c-0.1582-0.1631-0.3194-0.3242-0.4824-0.4824c-0.1622-0.167-0.3272-0.332-0.4942-0.4941c-0.1631-0.168-0.3281-0.334-0.4961-0.4971
		c-0.1611-0.165-0.3232-0.3272-0.4883-0.4883c-0.167-0.1709-0.3359-0.3408-0.5078-0.5068
		c-0.1601-0.1651-0.3222-0.3281-0.4873-0.4883c-0.1631-0.167-0.3281-0.332-0.4951-0.4941c-0.1621-0.168-0.3271-0.3321-0.4941-0.4952
		c-0.1631-0.167-0.3282-0.332-0.4952-0.4941c-0.1621-0.168-0.3271-0.333-0.4951-0.4951c-0.1621-0.167-0.3261-0.3321-0.4931-0.4942
		c-0.1621-0.167-0.3272-0.331-0.4942-0.4931c-0.1631-0.168-0.3291-0.334-0.497-0.4971c-0.1612-0.167-0.3252-0.3301-0.4913-0.4922
		c-0.164-0.168-0.3291-0.334-0.498-0.4971c-0.1611-0.1669-0.3262-0.331-0.4922-0.4931c-0.1621-0.166-0.3252-0.3291-0.4912-0.4903
		c-0.165-0.1699-0.332-0.3378-0.502-0.5029c-0.1611-0.166-0.3251-0.3291-0.4902-0.4902c-0.1631-0.167-0.3281-0.333-0.4961-0.4951
		c-0.1621-0.167-0.3262-0.3311-0.4922-0.4922c-0.1611-0.167-0.3252-0.3301-0.4912-0.4922c-0.165-0.1699-0.333-0.3369-0.5029-0.502
		c-0.1611-0.166-0.3242-0.33-0.4902-0.4912c-0.1622-0.166-0.3252-0.33-0.4922-0.4912c-0.1641-0.1689-0.3301-0.3359-0.5-0.5
		c-0.1612-0.166-0.3252-0.3301-0.4912-0.4922c-0.1631-0.167-0.3272-0.332-0.4952-0.4941c-0.1621-0.168-0.3271-0.332-0.4941-0.4951
		C62.5879,25.0693,56.6162,22.332,50,22.332c-12.9805,0-23.5,10.5235-23.5,23.5039c0,6.6446,2.7617,12.6368,7.1992,16.9082
		c0.1612,0.1651,0.3233,0.3291,0.4893,0.4893c0.1631,0.167,0.3271,0.334,0.4961,0.4961c0.164,0.168,0.3291,0.3359,0.499,0.499
		c0.1602,0.1641,0.3203,0.3272,0.4853,0.4863c0.1651,0.168,0.3301,0.336,0.4991,0.4991c0.1045,0.1064,0.2031,0.2177,0.3095,0.3222
		l-6.0039,6.5059h0.9522l-0.457,0.4951h0.9482l-0.4551,0.4932h0.9522l-0.3584,0.3886h-2.8604v4.2491h0.4942v0.4941h0.4941v0.4951
		h0.4951v0.4942h0.4951v0.4941h0.4942v0.4951h0.4941v0.4942h0.4951v0.4951h0.4942v0.4941h0.4941v0.4942h0.4951v0.4951h0.4942v0.4941
		h0.4941v0.4951h0.4951v0.4942h0.4951v0.4941h0.4942v0.4951h0.4941v0.4942h0.4942v0.4941h0.4951v0.4942h0.4941v0.4951h0.4951v0.4951
		h0.4942v0.4941h0.4941v0.4942h0.4951v0.4941h0.4942v0.4951h0.4941v0.4942h0.4951v0.4951h0.4942v0.4941h0.4941v0.4942h0.4951v0.4951
		h0.4952v0.4941h0.4941v0.4951h0.4941v0.4942h0.4942v0.4941h0.4951v0.4942h0.4941v0.4951h0.4951v0.4951h0.4942v0.4941h0.4941v0.4942
		h0.4951v0.4941h0.4942v0.4951h0.4941v0.4942h0.4951v0.4951h0.4942v0.4941h0.4941v0.4942h0.4942v0.4951h0.4961v0.0303
		c22.8564-0.875,41.7695-17.086,46.7568-38.6416c-0.0645-0.0645-0.1279-0.1299-0.1934-0.1934
		C98.3428,60.9473,98.1758,60.7812,98.0068,60.6172z"/>
</g>
<g id="snowball-snowball">
	<path fill="#FFFFFF" d="M36.7539,65.2373C30.5605,61.0068,26.5,53.8984,26.5,45.8359C26.5,32.8555,37.0195,22.332,50,22.332
		c12.9814,0,23.5,10.5235,23.5,23.5039c0,7.9922-4.001,15.0498-10.1016,19.293l6.3809,6.9131H30.4736L36.7539,65.2373z"/>
	<g>
		<polyline fill="#FFCE54" points="53.4023,50.1387 53.4023,52.3418 55.6719,52.3418 55.6719,50.1387 		"/>
		<rect x="53.4023" y="47.1631" fill="#FFCE54" width="2.2696" height="2.207"/>
		<rect x="50.3682" y="50.1387" fill="#FFCE54" width="2.2597" height="2.2031"/>
		<rect x="50.3682" y="47.1631" fill="#FFCE54" width="2.2597" height="2.207"/>
	</g>
	<path fill="#4A89DC" d="M56.5742,38.041l5.4063,4.0557v-2.1768h-0.3926v-1.3047h3.2353v1.3047h-0.4834v3.9444l4.7637,3.5664
		h-4.0039v7.2373h3.7666c1.3262-2.7266,2.0889-5.7871,2.0889-9.0313c0-11.4619-9.292-20.7607-20.7627-20.7607
		c-11.4649,0-20.7569,9.2988-20.7569,20.7607c0,3.2315,0.7579,6.2725,2.0772,9.0029h17.2119v-7.3603h-4.1631L56.5742,38.041z"/>
	<polygon fill="#F4EFDC" points="49.1543,42.5479 49.1543,42.5391 49.1729,42.5391 	"/>
	<g>
		<polygon fill="#4FC1E9" points="52.8799,28.9414 53.3857,27.4043 53.8818,28.9414 55.5029,28.9414 54.1885,29.8936 
			54.6895,31.4375 53.3857,30.4814 52.0664,31.4375 52.5723,29.8936 51.2588,28.9414 		"/>
		<polygon fill="#4FC1E9" points="40.8516,36.5361 41.5752,38.7754 39.6729,37.3887 37.7637,38.7754 38.4932,36.5361 
			36.5879,35.1475 38.9434,35.1475 39.6729,32.9062 40.3965,35.1475 42.7568,35.1475 		"/>
		<polygon fill="#4FC1E9" points="49.1602,37.5957 47.9658,38.4697 48.4209,37.0586 47.2207,36.1904 48.709,36.1904 
			49.1602,34.7832 49.6182,36.1904 51.1025,36.1904 49.9043,37.0586 50.3623,38.4697 		"/>
		<polygon fill="#4FC1E9" points="59.3389,34.1406 59.6104,33.3008 59.8838,34.1406 60.7773,34.1406 60.0557,34.6641 
			60.3301,35.5059 59.6104,34.9863 58.8926,35.5059 59.1699,34.6641 58.4512,34.1406 		"/>
		<polygon fill="#4FC1E9" points="34.7354,46.4561 33.7256,45.7227 32.7139,46.4561 33.1016,45.2676 32.0957,44.5332 
			33.3389,44.5332 33.7256,43.3525 34.1104,44.5332 35.3564,44.5332 34.3506,45.2676 		"/>
		<polygon fill="#4FC1E9" points="43.1748,29.7871 42.6445,29.4023 42.1143,29.7871 42.3164,29.1641 41.7822,28.7744 
			42.4404,28.7744 42.6445,28.1494 42.8477,28.7744 43.501,28.7744 42.9775,29.1641 		"/>
	</g>
	<rect x="29.1953" y="73.4189" fill="#FFFFFF" width="41.8623" height="4.2491"/>
</g>
</svg>
