<?xml version="1.0" encoding="utf-8"?>
<!-- Generator: Adobe Illustrator 17.1.0, SVG Export Plug-In . SVG Version: 6.00 Build 0)  -->
<!DOCTYPE svg PUBLIC "-//W3C//DTD SVG 1.1//EN" "http://www.w3.org/Graphics/SVG/1.1/DTD/svg11.dtd">
<svg version="1.1" id="snowflake-3" xmlns="http://www.w3.org/2000/svg" xmlns:xlink="http://www.w3.org/1999/xlink" x="0px"
	 y="0px" viewBox="0 0 100 100" enable-background="new 0 0 100 100" xml:space="preserve">
<circle id="snowflake-3-label" fill="#A0D468" cx="50" cy="50" r="50"/>
<g id="snowflake-3-shadow">
	<path fill="#8CC152" d="M98.6367,59.0566l-0.3369-0.5839l-0.1572,0.0908l-0.3379-0.585l-0.1563,0.0899l-0.3379-0.585
		l-0.1562,0.0908l-0.3379-0.5849l-0.1572,0.0908l-0.3369-0.586L96.165,56.585L95.8271,56l-0.1572,0.0898l-0.3379-0.5839
		l-0.1562,0.0898l-0.3379-0.584l-0.1563,0.0899l-0.3378-0.585l-0.1563,0.0908l-0.3379-0.5859l-0.1572,0.0908l-0.3369-0.585
		l-0.1582,0.0909l-0.3379-0.585l-0.1563,0.0898l-0.3379-0.5839l-0.1562,0.0898l-0.3379-0.585l-0.1563,0.0909l-0.3378-0.586
		l-0.1573,0.0908l-0.3369-0.5849l-0.1572,0.0908l-0.3379-0.585l-0.1572,0.0904l-0.3379-0.585l-0.1563,0.0903l-0.3379-0.5849
		l-0.1562,0.0908l-0.3379-0.585l-0.1572,0.0904l-0.3369-0.585l-0.1573,0.0904l-0.3379-0.585l-0.1572,0.0903l-0.3379-0.5849
		l-0.1562,0.0903l-0.3379-0.5845l-0.1563,0.0908l-0.3379-0.5854l-0.1562,0.0903l-0.3379-0.5849l-0.1572,0.0903l-0.3379-0.585
		l-0.1572,0.0904l-0.337-0.5845l-0.1572,0.0908l-0.3379-0.5854l-0.1562,0.0903l-0.3379-0.585l-0.1563,0.0909l-0.3379-0.5855
		l-0.1572,0.0903l-0.3369-0.5844l-0.1572,0.0903l-0.3379-0.585l-0.1572,0.0909l-0.3379-0.5855l-0.1563,0.0903l-0.3379-0.5849
		L81.3301,41.75l-0.3379-0.585l-0.1572,0.0904l-0.337-0.585l-0.1572,0.0903l-0.3379-0.5849l-0.1572,0.0903l-0.3369-0.5849
		l-0.1572,0.0908l-0.3379-0.585l-0.1563,0.0908l-0.3379-0.5854l-0.1572,0.0903l-0.3369-0.5849l-0.1572,0.0903l-0.3379-0.585
		l-0.1573,0.0904l-0.3369-0.5845l-0.1572,0.0908l-0.3379-0.5854l-0.1562,0.0903l-0.3379-0.585l-0.1563,0.0908l-0.3379-0.5854
		l-0.1572,0.0903l-0.3369-0.5844l-0.1572,0.0903l-0.3379-0.585l-3.7354,2.1568l-0.0215-0.5298l-0.4638,0.269l-0.0313-0.7636
		l-0.4629,0.2685l-0.0312-0.7632l-0.4639,0.2696l-0.0312-0.7637l-0.4629,0.2685l-0.0313-0.7631l-1.8554,1.0771l0.0859,1.8848
		l-0.1172,0.0678h-0.1797v-0.4951h-0.0683l-0.0059-0.1387l-0.2402,0.1387h-0.1797v-0.4941h-0.0684l-0.0058-0.1392l-0.2403,0.1392
		h-0.1797v-0.4942h-0.0693l-0.0049-0.1391l-0.2412,0.1391h-0.1787v-0.4951H65.209l-0.0039-0.1386l-0.2403,0.1386h-0.1806v-0.4941
		h-0.4951v-0.4942h-0.4942v-0.4951h-0.4941V33.459h-0.4942v-0.4951h-0.4951v-0.4942h-0.4941v-0.4941h-0.4951v-0.4951h-0.4942
		v-0.4942H60.334v-0.4941h-0.4942v-0.4951h-0.496v-0.4947h-0.4942v-0.4941h-0.4941v-0.4946h-0.4942V28.019h-0.4941v-0.4946h-0.4951
		v-0.4941H56.377v-0.4947h-0.4942V26.041h-0.4941v-0.4941h-0.4942v-0.4947h-0.4951v-0.4946h-0.4951V24.063h-0.4941v-0.4942H52.916
		v-0.4946h-0.4941v-0.4946h-0.4942V22.085h-0.4951v-0.4942h-0.4951v-0.4946h-1.877v6.4521l-3.1699-1.663l0.0039,2.1464
		l0.4942,0.2554v0.2393l0.4941,0.2558l0.001,0.2383l0.4932,0.2559l0.0009,0.2387l0.4942,0.2559l0.0009,0.2388l0.4942,0.2558v0.2388
		l0.4941,0.2554v0.2392l0.1992,0.1035v0.6016l-4.1894-2.2217v2.1406l0.4941,0.2593v0.2354l0.4942,0.2597v0.2349l0.4941,0.2593
		v0.2348l0.4951,0.2598v0.2349l0.4952,0.2597v0.2349l0.4941,0.2598v0.2348l0.4941,0.2593v0.2354l0.4942,0.2597v0.2344l0.2343,0.123
		v0.1636l-4.9492-2.6377l0.0059,2.1612l0.4932,0.2587l0.0009,0.2359l0.4942,0.2593v0.2348l0.4941,0.2588v0.2359l0.4942,0.2592
		l0.0009,0.2354l0.4942,0.2593l0.0009,0.2348l0.4932,0.2588l0.001,0.2359l0.4941,0.2592v0.2354l0.4942,0.2593v0.2348l0.4941,0.2593
		v0.0962l-6.5293-3.4941l0.002,0.0048l-0.0098-0.0058l-0.1006,3.1772l-0.165-0.0952l0.0088-0.2031l-0.503-0.292l0.0078-0.2022
		l-0.5019-0.2919l0.0078-0.2032l-0.5029-0.292l0.0088-0.2021l-1.8711-1.0855l-0.0567,1.6783l-0.2383-0.1372l0.0088-0.2041
		l-0.5029-0.2901l0.0088-0.2046l-0.5029-0.2905l0.0078-0.2036l-0.502-0.2901l0.0078-0.2045l-1.8535-1.0708l-0.0713,1.9799
		L34.5,37.1484l0.0098-0.2026l-0.5039-0.292l0.0087-0.2021l-0.5029-0.292l0.0088-0.2032l-0.5039-0.2919l0.0088-0.2022
		l-1.8574-1.0771l-0.1446,3.5776l-5.5879-3.2266L24.5,36.3584l0.584,0.3379l-0.0899,0.1562l0.585,0.3379l-0.0908,0.1568
		l0.5859,0.3379l-0.0908,0.1567l0.585,0.3379l-0.0909,0.1567l0.585,0.3379l-0.0898,0.1568l0.5839,0.3374l-0.0898,0.1567
		l0.585,0.3379l-0.0909,0.1572l0.585,0.3379l-0.0908,0.1563l0.2519,0.145l-1.6465,1.0415l0.67,0.3838l-0.1758,0.1108l0.6699,0.3838
		l-0.1748,0.1103l0.669,0.3843l-0.1749,0.1109l0.669,0.3838l-0.1738,0.1103l0.6679,0.3838l-0.1738,0.1108l0.2422,0.1397
		l-0.1113,0.0703l0.4257,0.2456l-0.0625,0.0386l0.2442,0.1396l-0.1133,0.0708l0.4258,0.2456l-0.0625,0.0391l0.2431,0.1392
		l-0.1123,0.0703l0.4258,0.2456l-0.0615,0.039l0.2432,0.1397l-0.1133,0.0703l0.4258,0.2456l-0.0616,0.0391l0.2432,0.1396
		l-0.1123,0.0703l0.4248,0.2456l-0.0605,0.0386l0.2431,0.1396l-0.1133,0.0708l0.4268,0.2457L32.5,46.9409l0.2432,0.1392
		l-0.1123,0.0708l0.4257,0.2456l-0.0625,0.0386l0.2442,0.1396L33.125,47.645l0.4258,0.2456l-0.0625,0.0391l0.2441,0.1396
		l-0.1133,0.0703l0.4258,0.2457l-0.0605,0.0385l0.2422,0.1397l-0.1123,0.0703l0.4267,0.2456l-0.0625,0.0395l0.2422,0.1392
		l-0.1113,0.0703l0.4258,0.2456l-0.0625,0.0391l0.0214,0.0122l-0.9218,0.5727L34.0781,50l-0.0107,0.0044l0.6426,0.3989
		l-0.1436,0.0889l0.0059,0.0024l-0.0098,0.0044l0.6426,0.3994l-0.1426,0.0889l0.0039,0.0015l-0.0098,0.0044l0.6426,0.3994
		l-0.1426,0.0888l0.0039,0.003l-0.0097,0.0039l0.6435,0.3984l-0.1435,0.0899l0.0049,0.0019l-0.0108,0.0039l0.6436,0.3985
		l-0.1436,0.0898l0.0059,0.002L36.54,52.4766l0.6436,0.3994L37.04,52.9648l0.0049,0.002l-0.0107,0.0049l0.6435,0.3994
		l-0.1435,0.0879l0.0049,0.0029l-0.0098,0.0039l0.6426,0.3994l-0.1426,0.0889l0.0039,0.002l-0.0098,0.0048l0.6426,0.3985
		l-0.1426,0.0888l0.0049,0.003l-0.0107,0.0039l0.6445,0.3994l-0.1445,0.0889l0.0049,0.0019l-0.0098,0.0039l0.2607,0.1621
		l-0.1494,0.086l-4.7197-2.9864l-1.8721,1.0762l0.6494,0.4053l-0.1543,0.0888l0.6495,0.4053l-0.1553,0.0899l0.6484,0.4052
		l-0.1543,0.0889l0.6504,0.4053l-0.1562,0.0898l0.6504,0.4043l-0.1553,0.0899l0.6494,0.4052L35.5,56.2539l0.6484,0.4063
		l-0.1543,0.0888l0.2129,0.1328l-0.6845,0.3946l-4.003-2.5303l-1.8554,1.0693l0.6464,0.4063l-0.1523,0.0879l0.6484,0.4062
		l-0.1543,0.0889l0.6485,0.4062l-0.1543,0.0879l0.6484,0.4063l-0.1533,0.0879l0.6475,0.4062l-0.1534,0.0889l0.6475,0.4062
		l-0.1523,0.0879l0.1357,0.085l-0.8408,0.4863l-3.002-1.9228l-1.8633,1.0683l0.6446,0.4082l-0.1504,0.0869l0.6455,0.4082
		l-0.1504,0.086l0.6445,0.4082l-0.1504,0.0859l0.6456,0.4082l-0.1504,0.086l0.4492,0.2851L24.5,63.6416l0.9355,1.6221l0.1563-0.0908
		l0.3379,0.5849l0.1582-0.0898l0.3369,0.584l0.1572-0.0899l0.3379,0.585l0.1563-0.0909l0.3379,0.586l0.1562-0.0908l0.3379,0.5849
		l0.1563-0.0908l0.3378,0.585l0.1563-0.0899l0.3379,0.584l0.1572-0.0898l0.3379,0.5849l0.1572-0.0908l0.3379,0.585l0.1563-0.0909
		l0.3379,0.586l0.1562-0.0908l0.3379,0.5849l0.1563-0.0898l0.3378,0.5849l0.1582-0.0908l0.337,0.585l0.1572-0.0908l0.3379,0.5849
		l0.1562-0.0908l0.3379,0.5859l0.1563-0.0898l0.3379,0.584l0.1562-0.0908l0.3379,0.5849l0.1562-0.0898l0.3379,0.5849l0.1582-0.0908
		l0.337,0.586l0.1572-0.0918l0.3379,0.5859l0.1562-0.0908l0.3379,0.5849l0.1563-0.0898l0.3379,0.584l0.1572-0.0899l0.3369,0.584
		l0.1572-0.0898l0.3379,0.5849l0.1572-0.0908l0.3379,0.586l0.1563-0.0909l0.3379,0.585l0.1562-0.0908l0.3379,0.5849l0.1563-0.0898
		l0.3379,0.584l0.1572-0.0899l0.3369,0.585l0.1582-0.0908l0.3379,0.5849l0.1562-0.0908l0.3379,0.5859l0.1563-0.0908l0.3379,0.585
		l0.1562-0.0908l0.3379,0.5849l0.1572-0.0898l0.3369,0.584l0.1573-0.0899l0.3379,0.585l0.1572-0.0908l0.3379,0.5859l0.1562-0.0918
		l0.3379,0.5859l0.1563-0.0908l0.3379,0.585l0.1562-0.0899l0.3379,0.585l0.1572-0.0908l0.3369,0.5849l0.1582-0.0908l0.3379,0.585
		l0.1563-0.0908l0.3379,0.5859l0.1562-0.0908l0.3379,0.5849l0.1563-0.0908l0.3379,0.585l0.1562-0.0899l0.3379,0.585l0.1582-0.0908
		l0.3379,0.5859l0.1562-0.0908l0.3379,0.585l0.1563-0.0909L49.1719,89l0.1562-0.0898l0.3379,0.5839l0.1572-0.0898l0.337,0.585
		l0.1582-0.0909l0.3379,0.585l0.1562-0.0908l0.3379,0.5859l0.1562-0.0908l0.3379,0.585l0.1563-0.0909l0.3379,0.585l0.1562-0.0908
		l0.3379,0.5859l0.1572-0.0908l0.337,0.585l0.1582-0.0909l0.3378,0.585l0.1563-0.0908l0.3379,0.5859l0.1562-0.0908l0.3379,0.585
		l0.1563-0.0909l0.3379,0.585l0.1572-0.0899l0.3379,0.585l0.1572-0.0908l0.3379,0.585l0.1563-0.0909l0.3378,0.586l0.1563-0.0909
		l0.3379,0.585l0.1562-0.0908l0.3379,0.5849l0.1573-0.0898l0.3369,0.584l0.1572-0.0899l0.3379,0.585l0.1572-0.0908l0.3379,0.5849
		l0.1563-0.0908l0.1767,0.3067c20.0479-3.8145,35.8477-19.5899,39.6943-39.625l-0.2959-0.5137L98.6367,59.0566z"/>
</g>
<path id="snowflake-3-snowflake-3" fill="#FFFFFF" d="M72.9375,58.499l-1.8604-1.0683l-3.0029,1.9228l-1.7637-1.0166l4.0235-2.5215
	l-1.8545-1.0693l-4.0029,2.5303l-1.7696-1.0205l4.7598-2.9688l-1.8711-1.0762l-4.7217,2.9864l-1.7138-0.9912l6.7714-4.2017
	L65.9219,50l0.0039-0.002l-6.7656-4.205l1.7138-0.9903l4.7217,2.9849l1.8711-1.0747l-4.7598-2.9683l1.7696-1.0219l4.0029,2.5312
	l1.8545-1.0718l-4.0235-2.5195l1.7637-1.0156l3.0029,1.9223l1.8604-1.0683l-3.0273-1.9151L75.5,36.3584l-0.9365-1.6221
	l-5.5889,3.2266l-0.1465-3.5776l-1.8554,1.0771l0.163,3.5625L65.374,40.04l-0.1689-4.7421l-1.8555,1.0708l0.1914,4.7309
	l-1.7695,1.0215l-0.1895-5.606l-1.8691,1.0855l0.2266,5.5796l-1.7168,0.9902l-0.253-7.9653l-0.0088,0.0058v-0.0112l-7.0234,3.7651
	v-1.9814l4.9434-2.5942l0.0078-2.1612l-4.9512,2.6377v-2.0425l4.1934-2.2002v-2.1406l-4.1934,2.2217v-2.0332l3.167-1.6392
	l0.0049-2.1464l-3.1719,1.663v-6.4521h-1.877v6.4521l-3.1699-1.663l0.0039,2.1464l3.166,1.6392v2.0332l-4.1894-2.2217v2.1406
	l4.1894,2.2002v2.0425l-4.9492-2.6377l0.0059,2.1612l4.9433,2.5942v1.9814l-7.0234-3.7587l0.002,0.0048l-0.0098-0.0058
	l-0.252,7.9653l-1.7168-0.9902l0.2286-5.5796l-1.8711-1.0855l-0.1905,5.606l-1.7685-1.0215l0.1894-4.7309l-1.8535-1.0708
	L34.625,40.04l-1.7617-1.0151l0.1621-3.5625l-1.8574-1.0771l-0.1446,3.5776l-5.5879-3.2266L24.5,36.3584l5.5879,3.2275
	l-3.0274,1.9151l1.8633,1.0693l3.002-1.9233l1.7597,1.0156l-4.0214,2.521l1.8554,1.0703l4.003-2.5312l1.7685,1.0219l-4.7588,2.9683
	l1.8721,1.0747l4.7197-2.9849l1.7158,0.9903l-6.7675,4.205L34.0781,50l-0.0107,0.0044l6.7724,4.2017l-1.7158,0.9912l-4.7197-2.9864
	l-1.8721,1.0762l4.7588,2.9688l-1.7685,1.0205l-4.003-2.5303l-1.8554,1.0693l4.0214,2.5215l-1.7597,1.0166l-3.002-1.9228
	l-1.8633,1.0683l3.0274,1.9151L24.5,63.6416l0.9355,1.6221l5.5879-3.2266l0.1446,3.5801l1.8574-1.0781l-0.1621-3.5645l1.7617-1.0166
	l0.1699,4.7441l1.8535-1.0712l-0.1894-4.7315l1.7685-1.0205l0.1905,5.6065l1.8711-1.086l-0.2286-5.5791l1.7168-0.9902l0.2569,7.9629
	l0.0049-0.0059l-0.002,0.0059l7.0234-3.7578v1.9804l-4.9433,2.5957l-0.0059,2.1602l4.9492-2.6367v2.041l-4.1894,2.2021v2.1407
	l4.1894-2.2227v2.0322l-3.166,1.6406l-0.0039,2.1446l3.1699-1.6621v6.4531h1.877v-6.4531l3.1719,1.6621l-0.0049-2.1446
	l-3.167-1.6406v-2.0322l4.1934,2.2227v-2.1407l-4.1934-2.2021v-2.041l4.9512,2.6367l-0.0078-2.1602l-4.9434-2.5957v-1.9804
	l7.0234,3.7636v-0.0107l0.003,0.0049l0.2588-7.9629l1.7168,0.9883l-0.2266,5.581l1.8691,1.085l0.1895-5.6055l1.7695,1.0205
	l-0.1914,4.7315l1.8555,1.0712l0.1689-4.7441l1.7617,1.0166l-0.163,3.5645l1.8554,1.0761l0.1465-3.5781l5.5889,3.2256L75.5,63.6416
	l-5.5898-3.2275L72.9375,58.499z M56.1729,39.3076l0.2128,5.9224l-3.1005,1.7915l-0.0957-2.5332l-2.252,1.1919v-3.5967
	L56.1729,39.3076z M49.0605,45.6655l-2.2402-1.186l-0.0918,2.5488L43.6133,45.23l0.2119-5.9273l5.2353,2.7798V45.6655z
	 M37.6494,49.9976l5.0254-3.1451l3.1025,1.7915l-2.1474,1.3482l2.1592,1.3555l-3.1143,1.7988L37.6494,49.9976z M43.8223,60.6982
	l-0.209-5.9287l3.1015-1.792l0.0918,2.5352l2.2539-1.1924v3.5977L43.8223,60.6982z M50.9375,54.334l2.2422,1.1855l0.0918-2.5488
	l3.1142,1.7979l-0.208,5.9267l-5.2402-2.7793V54.334z M57.3223,53.1465l-3.1026-1.791l2.1494-1.3477l-2.1601-1.3555l3.1152-1.7998
	l5.0254,3.1451L57.3223,53.1465z"/>
</svg>
