<?xml version="1.0" encoding="utf-8"?>
<!-- Generator: Adobe Illustrator 17.1.0, SVG Export Plug-In . SVG Version: 6.00 Build 0)  -->
<!DOCTYPE svg PUBLIC "-//W3C//DTD SVG 1.1//EN" "http://www.w3.org/Graphics/SVG/1.1/DTD/svg11.dtd">
<svg version="1.1" id="snowflake" xmlns="http://www.w3.org/2000/svg" xmlns:xlink="http://www.w3.org/1999/xlink" x="0px" y="0px"
	 viewBox="0 0 100 100" enable-background="new 0 0 100 100" xml:space="preserve">
<circle id="snowflake-label" fill="#FC6E51" cx="50" cy="50" r="50"/>
<g id="snowflake-shadow">
	<path fill="#E9573F" d="M99.1182,58.1143l-0.3379-0.585l-0.1573,0.0908l-0.3378-0.5849l-0.1563,0.0898l-0.3379-0.584
		l-0.1562,0.0899l-0.3379-0.584l-0.1563,0.0898l-0.3379-0.5849l-0.1562,0.0908l-0.3379-0.586l-0.1572,0.0918l-0.3389-0.5859
		l-0.1562,0.0898l-0.337-0.5839l-0.1562,0.0908l-0.3389-0.585l-0.1562,0.0899l-0.3379-0.584l-0.1563,0.0898l-0.3379-0.5859
		l-0.1572,0.0908l-0.3379-0.585l-0.1562,0.0909l-0.3379-0.585l-0.1572,0.0898l-0.3379-0.5839l-0.1563,0.0898l-0.3379-0.5845
		l-0.1562,0.0904l-0.3379-0.5855l-0.1563,0.0903l-0.3379-0.5844l-0.1572,0.0903l-0.3369-0.5845l-0.1582,0.0909l-0.3379-0.5855
		l-0.1562,0.0903l-0.3379-0.5849l-0.1563,0.0908l-0.3379-0.5855L88.7344,47.73l-0.3379-0.585l-0.1572,0.0904l-0.337-0.5845
		l-0.1572,0.0903l-0.3388-0.5854L87.25,46.2461l-0.3379-0.5845l-0.1562,0.0904l-0.3379-0.5845l-0.1563,0.0903l-0.3379-0.5849
		l-0.1562,0.0903l-0.3379-0.585l-0.1572,0.0904l-0.3379-0.585l-0.1573,0.0903l-0.3378-0.5849l-0.1563,0.0903l-0.3379-0.5845
		l-0.1562,0.0904l-0.3379-0.585l-0.1563,0.0903l-0.3379-0.5849l-0.1572,0.0903l-0.3379-0.585l-0.1572,0.0904l-0.3379-0.5845
		l-0.1563,0.0903l-0.3378-0.5849l-0.1563,0.0903l-0.3379-0.585l-0.1562,0.0904l-0.3379-0.5845l-0.1563,0.0903l-0.3379-0.5849
		l-0.1572,0.0908l-0.3389-0.5855l-0.1552,0.0899l-0.3379-0.5845l-0.1572,0.0903l-0.3379-0.5849l-0.1563,0.0903l-0.3379-0.5849
		l-0.1562,0.0903l-0.3379-0.5845l-0.1572,0.0903l-0.3379-0.5844l-0.1563,0.0903l-0.3379-0.585l-0.1572,0.0904l-0.3379-0.585
		L75.877,34.873l-0.3379-0.5849l-1.6895,0.9751v-0.4727l-0.4951,0.2857v-0.7803l-0.4951,0.2856v-0.7797l-0.4942,0.2856v-0.7803
		l-0.4941,0.2857V32.812l-0.4941,0.2857v-0.7798l-0.4942,0.2856v-0.7803l-0.4951,0.2857v-0.7798l-0.4951,0.2856v-0.7802
		l-3.2744,1.8916v-0.6465l-0.4952,0.2851V31.585l-0.4941,0.2856v-0.7798l-0.4941,0.2852v-0.7798l-0.4942,0.2851v-0.7797
		l-0.4941,0.2851v-0.7798l-0.4961,0.2857v-0.7798l-0.4941,0.2851v-0.7797l-0.4942,0.2856v-0.7803l-0.4941,0.2852v-0.7798
		l-0.4951,0.2857v-0.7798l-0.4942,0.2851v-0.7798l-0.4951,0.2852V26.146l-0.4941,0.2852v-0.7803l-0.4942,0.2856v-0.7798
		l-0.4941,0.2852v-0.7798l-1.8574,1.0718v-0.2774h-0.4952v-0.4951h-0.4951v-0.4946h-0.4941v-0.4946h-0.4942V23.478h-0.4941v-0.4946
		H54.377v-0.4946h-0.4961v-0.4942h-0.4942V21.5h-3.373v6.5166l-5.8125-3.3545v3.8965l0.4941,0.2856v0.209l0.4942,0.2852v0.2095
		l0.4941,0.2856v0.209l0.4951,0.2856v0.2085l0.4942,0.2852v0.2094l0.4951,0.2857v0.209l0.4941,0.2861v0.208l0.4942,0.2852v0.2094
		l0.4951,0.2857v0.209l0.4951,0.2856v0.2085l0.4941,0.2852v0.2094l0.3731,0.2159v3.3369l-3.6914-2.0728v3.8985l0.4941,0.2744v0.2197
		l0.4951,0.2749v0.2202l0.4942,0.2744v0.2198l0.4951,0.2744v0.2197l0.4941,0.2749v0.2202l0.4942,0.2744v0.2198l0.4941,0.2744v0.2207
		l0.2305,0.1279v1.6914l-0.4063-0.2344l0.002-0.208l-0.4961-0.2861l0.0019-0.2085l-0.4961-0.2861l0.002-0.2085l-0.4961-0.2862
		l0.002-0.208l-0.4971-0.2861l0.0019-0.2085l-0.497-0.2861l0.0019-0.2085l-0.4961-0.2862l0.002-0.2085l-0.4961-0.2866l0.0019-0.208
		l-0.4961-0.2861l0.002-0.208l-0.4971-0.2862l0.002-0.2085l-3.334-1.9218V37.728l-0.4951-0.2856v-0.209l-0.4942-0.2856v-0.209
		l-0.4941-0.2852v-0.2095l-0.4941-0.2861V35.75l-0.4942-0.2856v-0.209l-0.4951-0.2857v-0.209l-0.4951-0.2856v-0.209l-0.4942-0.2851
		v-0.209l-0.4941-0.2857v-0.209l-0.4941-0.2856v-0.209l-3.3731-1.9482v6.7119l-5.6445-3.2583L26.1738,37.21l0.586,0.3379
		l-0.0909,0.1567l0.585,0.3379l-0.0898,0.1562l0.5839,0.3379l-0.0898,0.1568l0.584,0.3378l-0.0899,0.1568l0.586,0.3379
		l-0.0918,0.1567l0.5859,0.3379l-0.0908,0.1567l0.585,0.3379l-0.0909,0.1563l0.585,0.3379l-0.0898,0.1567l0.2402,0.1392
		l-4.3633,2.5195l0.6758,0.3901l-0.1816,0.104l0.6757,0.3902l-0.1816,0.105l0.6758,0.3901l-0.1797,0.104l0.6748,0.3901
		l-0.1807,0.1045l0.6748,0.3902l-0.1806,0.104l0.6758,0.3901l-0.1817,0.105l0.6758,0.3901l-0.1807,0.104l0.6748,0.3902
		l-0.1806,0.1045l0.6748,0.3901l-0.1797,0.104l0.6758,0.3906L30.9531,48.77l0.6748,0.3902l-0.1806,0.104l0.6757,0.3901
		l-0.1816,0.1045l0.6758,0.3901l-0.1807,0.104l0.6748,0.3902l-0.1806,0.1049l0.6748,0.3907l-0.1797,0.1035l0.6758,0.3906
		l-0.1817,0.1035l0.6758,0.3907l-0.1816,0.1035l0.6757,0.3906l-0.1816,0.1055l0.6758,0.3896l-0.1797,0.1045l0.6748,0.3897
		l-0.1807,0.1044l0.6748,0.3907l-0.1806,0.1035l0.6758,0.3906l-0.1817,0.1045l0.6758,0.3896l-0.1816,0.1045l0.6757,0.3897
		l-0.1816,0.1055l0.2949,0.1699l-2.9765,1.7168l-5.8106-3.3555l-3.375,1.9492l0.6758,0.3907L26.502,56.668l0.6757,0.3906
		l-0.1816,0.1055l0.6758,0.3896l-0.1797,0.1045l0.6748,0.3897l-0.1807,0.1044l0.6758,0.3907l-0.1816,0.1035l0.6758,0.3906
		l-0.1817,0.1035l0.6758,0.3906l-0.1807,0.1045l0.6748,0.3897l-0.1806,0.1055l0.4072,0.2343l-4.1973,2.4229l1.6895,2.9219
		l0.1562-0.0909l0.3379,0.586l0.1572-0.0908l0.3379,0.5849l0.1563-0.0908l0.3379,0.585l0.1572-0.0899l0.3379,0.584l0.1562-0.0898
		l0.3379,0.5849l0.1563-0.0908l0.3379,0.585l0.1562-0.0909l0.3379,0.586l0.1563-0.0908l0.3388,0.5849l0.1573-0.0898l0.3379,0.584
		l0.1562-0.0899l0.3379,0.584l0.1562-0.0898l0.3379,0.5849l0.1563-0.0908l0.3379,0.5859l0.1572-0.0908l0.3379,0.585l0.1562-0.0908
		l0.3389,0.5849l0.1563-0.0898l0.3379,0.584l0.1562-0.0899l0.3379,0.585l0.1562-0.0909l0.3379,0.586l0.1573-0.0908l0.3378,0.5849
		l0.1553-0.0898l0.3389,0.584l0.1572-0.0899l0.3379,0.584l0.1563-0.0898l0.3378,0.5839l0.1563-0.0898l0.3379,0.5859l0.1562-0.0908
		l0.3379,0.585l0.1563-0.0908l0.3379,0.5849l0.1572-0.0908l0.3389,0.585l0.1562-0.0899l0.3379,0.584l0.1563-0.0898l0.3378,0.5859
		l0.1563-0.0918l0.3379,0.5859l0.1562-0.0908l0.3379,0.585l0.1573-0.0908l0.3388,0.5849l0.1563-0.0898l0.3379,0.584l0.1562-0.0899
		l0.3379,0.584l0.1563-0.0898l0.3378,0.5859l0.1563-0.0908l0.3379,0.5849l0.1582-0.0908l0.3379,0.585l0.1562-0.0899l0.3379,0.584
		l0.1563-0.0898l0.3379,0.5849l0.1562-0.0908l0.3379,0.586l0.1562-0.0909l0.3379,0.585l0.1563-0.0908l0.3379,0.5849l0.1572-0.0898
		l0.3389,0.584l0.1562-0.0899l0.3379,0.584l0.1563-0.0898l0.3379,0.5849l0.1562-0.0908l0.3379,0.5859l0.1562-0.0908l0.3379,0.585
		l0.1563-0.0908l0.3389,0.5849l0.1572-0.0898l0.3379,0.584l0.1562-0.0899l0.3379,0.585l0.1563-0.0908l0.3379,0.5859l0.1562-0.0908
		l0.3379,0.5849l0.1562-0.0908l0.3379,0.585l0.1573-0.0899l0.3388,0.584l0.1563-0.0898l0.3379,0.584l0.1562-0.0899l0.3379,0.585
		l0.1563-0.0908l0.3378,0.5859l0.1563-0.0908l0.3379,0.5849l0.1562-0.0908l0.3389,0.585l0.1572-0.0899l0.3379,0.584l0.1563-0.0898
		l0.3379,0.5849l0.1562-0.0908l0.3379,0.586l0.1563-0.0909l0.3378,0.585l0.1563-0.0908l0.3389,0.5849l0.1572-0.0898l0.3379,0.584
		l0.1562-0.0899l0.3379,0.584l0.1563-0.0898l0.3379,0.5849l0.1562-0.0908l0.3379,0.586l0.1572-0.0909l0.3028,0.5235
		c19.747-4.419,35.0791-20.5088,38.372-40.6573l-0.0566-0.0996L99.1182,58.1143z"/>
</g>
<polygon id="snowflake-snowflake" fill="#FFFFFF" points="74.0195,54.2246 68.207,57.582 63.3242,54.7617 66.9658,52.6016 
	63.5898,50.6538 59.9678,52.8252 55.0752,49.999 59.9766,47.1709 63.834,49.4507 67.209,47.5024 63.3398,45.2295 68.207,42.4175 
	74.0195,45.7739 77.3936,43.8247 71.582,40.4697 77.2266,37.21 75.5391,34.2881 69.8926,37.5464 69.8926,30.8345 66.5195,32.7827 
	66.5195,39.4951 61.6377,42.3135 61.5879,38.0811 58.2119,40.0283 58.2813,44.2524 53.3867,47.0767 53.3867,41.4189 57.291,39.2168 
	57.291,35.3198 53.3867,37.5342 53.3867,31.915 59.2012,28.5586 59.2012,24.6621 53.3867,28.0166 53.3867,21.5 50.0137,21.5 
	50.0137,28.0166 44.2012,24.6621 44.2012,28.5586 50.0137,31.915 50.0137,37.5508 46.3223,35.478 46.3223,39.3765 50.0137,41.4263 
	50.0137,47.0767 45.1143,44.2471 45.1592,39.7646 41.7832,37.8184 41.75,42.3052 36.8809,39.4951 36.8809,32.7827 33.5078,30.8345 
	33.5078,37.5464 27.8633,34.2881 26.1738,37.21 31.8193,40.4697 26.0078,43.8247 29.3828,45.7739 35.1934,42.4175 40.0762,45.2358 
	36.4355,47.3965 39.8105,49.3462 43.4316,47.1748 48.3252,49.999 43.4238,52.8291 39.5684,50.5493 36.1914,52.498 40.0625,54.7695 
	35.1934,57.5801 29.3828,54.2246 26.0078,56.1738 31.8193,59.5293 26.1738,62.7881 27.8633,65.71 33.5078,62.4521 33.5078,69.1641 
	36.8809,67.2168 36.8809,60.5029 41.7637,57.6855 41.8145,61.918 45.1885,59.9697 45.1191,55.7461 50.0137,52.9219 50.0137,58.5781 
	46.1104,60.7812 46.1104,64.6787 50.0137,62.4639 50.0137,68.085 44.2012,71.4414 44.2012,75.3379 50.0137,71.9824 50.0137,78.5 
	53.3867,78.5 53.3867,71.9824 59.2012,75.3379 59.2012,71.4414 53.3867,68.085 53.3867,62.4482 57.0801,64.5195 57.0801,60.623 
	53.3867,58.5723 53.3867,52.9238 58.2891,55.751 58.2432,60.2305 61.6172,62.1816 61.6504,57.6924 66.5195,60.5029 66.5195,67.2148 
	69.8926,69.1641 69.8926,62.4521 75.5371,65.71 77.2266,62.7881 71.582,59.5293 77.3936,56.1738 "/>
</svg>
