<?xml version="1.0" encoding="utf-8"?>
<!-- Generator: Adobe Illustrator 17.1.0, SVG Export Plug-In . SVG Version: 6.00 Build 0)  -->
<!DOCTYPE svg PUBLIC "-//W3C//DTD SVG 1.1//EN" "http://www.w3.org/Graphics/SVG/1.1/DTD/svg11.dtd">
<svg version="1.1" id="snow-cabin" xmlns="http://www.w3.org/2000/svg" xmlns:xlink="http://www.w3.org/1999/xlink" x="0px" y="0px"
	 viewBox="0 0 100 100" enable-background="new 0 0 100 100" xml:space="preserve">
<circle id="snow-cabin-label" fill="#4FC1E9" cx="50" cy="50" r="50"/>
<g id="snow-cabin-shadow">
	<path fill="#3BAFDA" d="M97.543,63.2607c-0.1397-0.1816-0.3164-0.3378-0.4942-0.4931c-0.1396-0.1817-0.3164-0.3399-0.4951-0.4961
		c-0.1396-0.1817-0.3154-0.3379-0.4932-0.4932c-0.1406-0.1816-0.3164-0.3388-0.4951-0.4941
		c-0.1396-0.1826-0.3164-0.3408-0.4951-0.4971c-0.1396-0.1816-0.3164-0.3379-0.4941-0.4932
		c-0.1397-0.1816-0.3164-0.3388-0.4942-0.4941c-0.1406-0.1826-0.3164-0.3398-0.4961-0.4951
		c-0.1386-0.1817-0.3144-0.3379-0.4921-0.4932c-0.1407-0.1826-0.3165-0.3388-0.4961-0.4951
		c-0.1387-0.1816-0.3164-0.3389-0.4942-0.4941c-0.1387-0.1817-0.3164-0.3399-0.4941-0.4942
		c-0.1406-0.1826-0.3164-0.3398-0.4961-0.4961c-0.1387-0.1806-0.3145-0.3369-0.4922-0.4922
		c-0.1397-0.1826-0.3164-0.3408-0.4961-0.497c-0.1396-0.1817-0.3164-0.3389-0.4941-0.4942
		c-0.1397-0.1816-0.3164-0.3388-0.4942-0.4931c-0.1396-0.1826-0.3164-0.3399-0.4951-0.4961
		c-0.1396-0.1817-0.3154-0.3389-0.4951-0.4942c-0.1387-0.1816-0.3145-0.3379-0.4932-0.4931
		c-0.1396-0.1826-0.3164-0.3399-0.4951-0.4951c-0.1396-0.1827-0.3164-0.3399-0.4941-0.4952
		c-0.1407-0.1816-0.3164-0.3388-0.4942-0.4941c-0.1406-0.1816-0.3164-0.3389-0.4941-0.4932
		c-0.1397-0.1816-0.3164-0.3398-0.4942-0.4946c-0.1406-0.1826-0.3164-0.3403-0.4961-0.4961
		c-0.1396-0.1821-0.3164-0.3393-0.4941-0.4946c-0.1406-0.1817-0.3164-0.3389-0.4941-0.4937
		c-0.1397-0.1821-0.3164-0.3393-0.4942-0.4946c-0.1406-0.1821-0.3164-0.3394-0.4961-0.4951
		c-0.1386-0.1817-0.3154-0.3389-0.4941-0.4942c-0.1387-0.1816-0.3164-0.3388-0.4941-0.4941
		c-0.1397-0.1821-0.3165-0.3394-0.4942-0.4951c-0.1396-0.1817-0.3164-0.3384-0.4941-0.4937
		c-0.1407-0.1821-0.3164-0.3398-0.4961-0.4956c-0.1387-0.1816-0.3145-0.3384-0.4932-0.4936
		c-0.1396-0.1822-0.3164-0.3394-0.4951-0.4947c-0.1397-0.1821-0.3164-0.3398-0.4941-0.4956
		c-0.1407-0.1811-0.3165-0.3383-0.4942-0.4936c-0.1894-0.2456-0.4101-0.4712-0.6699-0.6665L60.5811,30.5552v-0.0269h-0.0352
		l-7.7168-5.7846c-1.5566-1.17-4.1035-1.17-5.6611,0L22.4111,43.3091c-1.0122,0.7632-1.4907,1.9697-1.3872,3.1494
		c-0.0605,0.8154,0.0376,1.6157,0.3179,2.2036c0.0605-0.1313,0.1299-0.3315,0.2051-0.5532
		c0.0512,0.3872,0.1455,0.7461,0.2895,1.0478c0.0596-0.1308,0.1289-0.3291,0.2036-0.5493c0.001,0.001,0.0015,0.0015,0.002,0.002
		c0.0513,0.3852,0.1455,0.7412,0.2891,1.0415c0.06-0.1304,0.1289-0.3286,0.2036-0.5493c0.0005,0.0009,0.0009,0.0014,0.0019,0.0024
		c0.0513,0.3848,0.1455,0.7412,0.2891,1.0415c0.0596-0.1304,0.1284-0.3291,0.2031-0.5493c0.001,0.0005,0.0015,0.0015,0.0015,0.0015
		c0.0522,0.3857,0.1465,0.7421,0.2895,1.0429c0.0601-0.1308,0.1289-0.3296,0.2036-0.5498c0.001,0.001,0.0015,0.0015,0.0025,0.0025
		c0.0512,0.3847,0.1455,0.7412,0.2886,1.0415c0.06-0.1309,0.1289-0.3291,0.2036-0.5494c0.0005,0.0005,0.0014,0.0015,0.0014,0.0015
		c0.0303,0.2222,0.0772,0.4307,0.1368,0.6289c-0.0064,0.0762-0.0215,0.1494-0.0215,0.2276c0,0.8867,0.4253,1.664,1.0781,2.1621
		c0.1445,0.1855,0.3081,0.3525,0.4946,0.4951c0.0738,0.0937,0.1533,0.1816,0.2383,0.2646c-1.0527,0.3799-1.811,1.378-1.811,2.5655
		c0,0.8877,0.4253,1.666,1.0786,2.164c0.1445,0.1846,0.3076,0.3526,0.4941,0.4942c0.0733,0.0937,0.1519,0.1806,0.2363,0.2636
		c-1.0512,0.3809-1.809,1.378-1.809,2.5635c0,0.8867,0.4253,1.666,1.0776,2.1641c0.1445,0.1836,0.3081,0.3515,0.4946,0.4941
		c0.0738,0.0938,0.1534,0.1817,0.2383,0.2656c-1.0522,0.3809-1.8105,1.377-1.8105,2.5625c0,0.8868,0.4253,1.6661,1.0781,2.1631
		c0.1445,0.1846,0.3081,0.3526,0.4951,0.4951c0.0733,0.0938,0.1524,0.1807,0.2368,0.2637c-1.0517,0.3819-1.81,1.3789-1.81,2.5664
		c0,0.8848,0.4253,1.6621,1.0742,2.1641c0.144,0.1855,0.3096,0.3515,0.4956,0.4951c0.1431,0.1846,0.3081,0.3506,0.4932,0.4932
		c0.1435,0.1855,0.309,0.3515,0.4946,0.4951c0.1435,0.1855,0.3091,0.3506,0.4951,0.4951c0.1436,0.1855,0.3091,0.3506,0.4946,0.4941
		c0.1431,0.1856,0.3081,0.3506,0.4937,0.4942c0.1435,0.1855,0.3091,0.3515,0.4951,0.4951c0.1436,0.1855,0.3086,0.3506,0.4946,0.4941
		c0.1436,0.1856,0.3086,0.3506,0.4947,0.4952c0.1435,0.1855,0.309,0.3505,0.4946,0.4941c0.1431,0.1855,0.3081,0.3496,0.4931,0.4932
		c0.1436,0.1865,0.3096,0.3515,0.4952,0.4951c0.1435,0.1855,0.309,0.3515,0.4951,0.4951c0.1431,0.1855,0.3081,0.3506,0.4936,0.4932
		c0.1436,0.1865,0.3091,0.3515,0.4952,0.4961c0.143,0.1855,0.3085,0.3505,0.4941,0.4941c0.1435,0.1855,0.3091,0.3516,0.4951,0.4941
		c0.1436,0.1856,0.3091,0.3516,0.4946,0.4952c0.1436,0.1855,0.3081,0.3505,0.4932,0.4931c0.1436,0.1856,0.3096,0.3516,0.4951,0.4951
		c0.1436,0.1866,0.3091,0.3516,0.4951,0.4952c0.1431,0.1855,0.3081,0.3505,0.4937,0.4941c0.1435,0.1855,0.3086,0.3506,0.4936,0.4941
		c0.1441,0.1856,0.3096,0.3516,0.4956,0.4942c0.1436,0.1865,0.3091,0.3515,0.4947,0.4951c0.1435,0.1865,0.3086,0.3516,0.4946,0.4951
		c0.1436,0.1856,0.3086,0.3506,0.4941,0.4941c0.1436,0.1856,0.3086,0.3506,0.4942,0.4942c0.1435,0.1855,0.3091,0.3516,0.4946,0.4941
		c0.1436,0.1856,0.3091,0.3516,0.4951,0.4951c0.1431,0.1846,0.3081,0.3506,0.4932,0.4932c0.144,0.1865,0.3101,0.3526,0.4961,0.4961
		c0.1435,0.1856,0.3086,0.3516,0.4941,0.4941c0.1436,0.1856,0.3086,0.3516,0.4942,0.4942c0.1435,0.1855,0.3091,0.3515,0.4946,0.4941
		c0.1436,0.1866,0.3091,0.3516,0.4946,0.4951c0.1436,0.1856,0.3086,0.3506,0.4942,0.4942c0.1435,0.1865,0.3091,0.3515,0.4946,0.4951
		c0.1436,0.1855,0.3091,0.3516,0.4946,0.4941c0.1441,0.1866,0.3096,0.3516,0.4951,0.4952c0.1436,0.1855,0.3086,0.3505,0.4942,0.4941
		c0.1431,0.1855,0.3086,0.3506,0.4941,0.4941c0.1436,0.1866,0.3091,0.3516,0.4947,0.4952c0.1435,0.1855,0.309,0.3505,0.4946,0.4941
		c0.1435,0.1855,0.3091,0.3516,0.4951,0.4951c0.1431,0.1856,0.3086,0.3506,0.4941,0.4942c0.1436,0.1855,0.3086,0.3505,0.4942,0.4941
		c0.1435,0.1865,0.3091,0.3516,0.4951,0.4951c0.1431,0.1856,0.3086,0.3516,0.4941,0.4942c0.0596,0.0771,0.1387,0.1357,0.2061,0.206
		C49.7642,99.9922,49.8813,100,50,100c22.832,0,42.0762-15.3105,48.0605-36.2207c-0.0078-0.0068-0.0136-0.0156-0.0224-0.0234
		C97.8984,63.5742,97.7217,63.416,97.543,63.2607z"/>
</g>
<g id="snow-cabin-snow-cabin">
	<path fill="#625140" d="M77.5879,43.3091L60.5811,30.5552v-0.0269h-0.0352l-7.7168-5.7846c-1.5566-1.17-4.1035-1.17-5.6611,0
		L22.4111,43.3091c-1.5566,1.1733-1.8759,3.3984-0.706,4.9555c0.749,1.0005,1.9404,1.4825,3.1064,1.3921
		c-0.416,0.48-0.6767,1.1016-0.6767,1.7867c0,1.3808,1.0254,2.5087,2.3496,2.7031v0.0801
		c-1.3242,0.1894-2.3496,1.3213-2.3496,2.7041c0,1.3818,1.0254,2.5107,2.3496,2.7021v0.0801
		c-1.3242,0.1904-2.3496,1.3223-2.3496,2.7031c0,1.3828,1.0254,2.5117,2.3496,2.7012v0.082
		c-1.3242,0.1924-2.3496,1.3223-2.3496,2.7031c0,1.3809,1.0254,2.5118,2.3496,2.7012v0.0801
		c-1.3242,0.1934-2.3496,1.3242-2.3496,2.707c0,1.5156,1.2265,2.7422,2.7412,2.7422c0.8164,0,1.54-0.3633,2.0439-0.9297h42.1602
		c0.501,0.5664,1.2246,0.9297,2.042,0.9297c1.5146,0,2.7402-1.2266,2.7402-2.7422c0-1.2402-0.8262-2.2802-1.959-2.6191v-0.252
		c1.1328-0.3369,1.959-1.375,1.959-2.6172c0-1.2392-0.8262-2.2773-1.959-2.6152v-0.2578c1.1328-0.3389,1.959-1.3731,1.959-2.6133
		c0-1.2412-0.8262-2.2773-1.959-2.6172v-0.2519c1.1328-0.3418,1.959-1.377,1.959-2.6162c0-1.2432-0.8262-2.2754-1.959-2.6143
		v-0.2559c1.1328-0.3398,1.959-1.375,1.959-2.6171c0-0.6851-0.2598-1.3067-0.6777-1.7867c1.1709,0.0904,2.3584-0.3916,3.1113-1.3921
		C79.4639,46.7075,79.1445,44.4824,77.5879,43.3091z"/>
	<path fill="#FFFFFF" d="M22.4111,46.3096L47.168,27.7437c1.5576-1.1705,4.1045-1.1705,5.6611,0l7.7168,5.7846h0.0352v0.0269
		l17.0068,12.7544c0.4844,0.3647,0.833,1.8369,1.0703,2.3535c0.707-1.4868,0.2949-4.3252-1.0703-5.354L60.5811,30.5552v-0.0269
		h-0.0352l-7.7168-5.7846c-1.5566-1.17-4.1035-1.17-5.6611,0L22.4111,43.3091c-1.3652,1.0288-1.7773,3.8667-1.0693,5.353
		C21.5791,48.1455,21.9277,46.6738,22.4111,46.3096z"/>
	<polygon fill="#FFFFFF" points="55.877,52.4746 55.877,52.8652 55.877,53.2598 55.877,57.9629 55.877,58.3535 55.877,58.7451 
		55.877,63.4473 55.877,63.8389 55.877,64.2334 55.877,68.9336 44.1221,68.9336 44.1221,64.2334 44.1221,63.8389 44.1221,63.4473 
		44.1221,58.7451 44.1221,58.3535 44.1221,57.9629 44.1221,53.2598 44.1221,52.8652 44.1221,52.4746 44.1221,49.7319 
		55.877,49.7319 	"/>
	<path fill="#7D6959" d="M71.7441,47.7734l1.252,0.9385c-0.2324,0.0108-0.4561,0.0532-0.668,0.1192
		c-1.126,0.3422-1.9502,1.3784-1.9502,2.6123c0,0.3691,0.0742,0.7148,0.2051,1.0312H56.6611v-2.7427h1.5684
		c0.5957,0,1.0771-0.4809,1.0771-1.0786v-0.8799H70.918H71.7441z M43.9297,36.0156h0.8262h10.4863h0.8242l-3.2373-2.4297
		c-1.5566-1.1674-4.1035-1.1674-5.6611,0L43.9297,36.0156z M36.6123,41.5024h0.8301h25.1142h0.8282l-6.2744-4.7021h-0.8243H43.7119
		h-0.8271L36.6123,41.5024z M29.2979,46.9873h0.8281h10.7441c0.1895-0.2935,0.5225-0.4888,0.9004-0.4888h16.459
		c0.3779,0,0.707,0.1953,0.8994,0.4888h10.7412h0.8301l-6.2695-4.7002h-0.8272h-27.208h-0.8281L29.2979,46.9873z M40.6895,71.4824
		v-1.0781c0-0.2637,0.0996-0.5,0.2539-0.6856H28.9199c-0.4189,0.4747-0.9961,0.7901-1.6494,0.8848v0.0801
		c1.3233,0.1934,2.3467,1.3242,2.3467,2.707c0,0.3633-0.0713,0.711-0.2002,1.0293h9.2168v-1.7627
		c0-0.5947,0.4824-1.0771,1.081-1.0771h0.9873C40.6973,71.5488,40.6895,71.5156,40.6895,71.4824z M43.3369,64.2334h-14.417
		c-0.4189,0.4678-0.9961,0.792-1.6494,0.8838v0.082c1.3233,0.1924,2.3467,1.3223,2.3467,2.7031c0,0.3663-0.0713,0.712-0.2002,1.0313
		h13.9199V64.2334z M43.3369,58.7451h-14.417c-0.4189,0.4717-0.9961,0.794-1.6494,0.8877v0.0801
		c1.3233,0.1904,2.3467,1.3223,2.3467,2.7031c0,0.3672-0.0713,0.7129-0.2002,1.0313h13.9199V58.7451z M43.3369,53.2598h-14.417
		c-0.4189,0.4716-0.9961,0.7929-1.6494,0.8867v0.0801c1.3233,0.1894,2.3467,1.3213,2.3467,2.7041
		c0,0.3642-0.0713,0.7099-0.2002,1.0322h13.9199V53.2598z M43.3369,49.7319h-1.5664c-0.5957,0-1.081-0.4809-1.081-1.0786v-0.8799
		H29.082h-0.8291l-0.9824,0.7364v0.229c0.1367,0.0195,0.2695,0.0522,0.3994,0.0923c1.125,0.3422,1.9473,1.3784,1.9473,2.6123
		c0,0.3691-0.0713,0.7148-0.2002,1.0312h13.9199V49.7319z M73.1221,70.6455c-0.8174,0-1.541-0.3613-2.042-0.9268H59.0547
		c0.1523,0.1856,0.2519,0.4219,0.2519,0.6856v1.0781c0,0.0332-0.0087,0.0664-0.0117,0.0977h0.9922
		c0.5957,0,1.0781,0.4824,1.0781,1.0771v1.7627h9.2178c-0.1309-0.3183-0.2051-0.666-0.2051-1.0293
		C70.3779,71.8721,71.6055,70.6455,73.1221,70.6455z M73.1221,65.1582c-0.8174,0-1.541-0.3633-2.042-0.9248h-14.419v4.7002H70.583
		c-0.1309-0.3193-0.2051-0.665-0.2051-1.0313C70.3779,66.3877,71.6055,65.1582,73.1221,65.1582z M73.1221,59.6719
		c-0.8174,0-1.541-0.3633-2.042-0.9268h-14.419v4.7022H70.583c-0.1309-0.3184-0.2051-0.6641-0.2051-1.0313
		C70.3779,60.9004,71.6055,59.6719,73.1221,59.6719z M73.1221,54.1875c-0.8174,0-1.541-0.3633-2.042-0.9277h-14.419v4.7031H70.583
		c-0.1309-0.3223-0.2051-0.668-0.2051-1.0322C70.3779,55.4131,71.6055,54.1875,73.1221,54.1875z"/>
	<rect x="50.8301" y="57.5459" fill="#7D6959" width="4.5" height="1.333"/>
</g>
</svg>
