<?xml version="1.0" encoding="utf-8"?>
<!-- Generator: Adobe Illustrator 17.1.0, SVG Export Plug-In . SVG Version: 6.00 Build 0)  -->
<!DOCTYPE svg PUBLIC "-//W3C//DTD SVG 1.1//EN" "http://www.w3.org/Graphics/SVG/1.1/DTD/svg11.dtd">
<svg version="1.1" id="snowflake-6" xmlns="http://www.w3.org/2000/svg" xmlns:xlink="http://www.w3.org/1999/xlink" x="0px"
	 y="0px" viewBox="0 0 100 100" enable-background="new 0 0 100 100" xml:space="preserve">
<circle id="snowflake-6-label" fill="#AC92EC" cx="50" cy="50" r="50"/>
<g id="snowflake-6-shadow">
	<path fill="#967ADC" d="M98.6152,58.4482c-0.1357-0.2011-0.3027-0.3662-0.4931-0.4941c-0.1367-0.2021-0.3057-0.3682-0.4981-0.4961
		c-0.1347-0.2002-0.3017-0.3652-0.4922-0.4932c-0.1357-0.2011-0.3037-0.3671-0.4951-0.4961
		c-0.1357-0.2001-0.3027-0.3652-0.4941-0.4931c-0.1358-0.2002-0.3028-0.3662-0.4932-0.4942
		c-0.1367-0.2011-0.3037-0.3671-0.4961-0.4951c-0.1357-0.2002-0.3027-0.3662-0.4941-0.4941
		c-0.1358-0.2012-0.3037-0.3672-0.4951-0.4951c-0.1358-0.2002-0.3028-0.3662-0.4942-0.4942
		c-0.1357-0.2002-0.3027-0.3662-0.4931-0.4931c-0.1368-0.2012-0.3038-0.3682-0.4961-0.4961
		c-0.1358-0.2002-0.3028-0.3662-0.4942-0.4942c-0.1357-0.2011-0.3027-0.3672-0.4951-0.4941
		c-0.1357-0.2012-0.3027-0.3672-0.4941-0.4951c-0.1358-0.2002-0.3028-0.3662-0.4932-0.4932
		c-0.1367-0.2021-0.3037-0.3682-0.4961-0.4961c-0.1357-0.2012-0.3027-0.3662-0.4941-0.4941
		c-0.1358-0.2012-0.3028-0.3672-0.4942-0.4942c-0.1357-0.2011-0.3037-0.3672-0.4951-0.4951
		c-0.1357-0.2012-0.3027-0.3662-0.4941-0.4941c-0.1358-0.2012-0.3037-0.3672-0.4951-0.4942
		c-0.1358-0.2011-0.3028-0.3672-0.4942-0.4941c-0.1348-0.2012-0.3017-0.3662-0.4932-0.4941
		c-0.1357-0.2022-0.3037-0.3682-0.496-0.4961c-0.1358-0.2012-0.3028-0.3663-0.4942-0.4942
		c-0.1357-0.2012-0.3037-0.3672-0.4961-0.4951c-0.1347-0.2002-0.3017-0.3662-0.4922-0.4932
		c-0.1357-0.2011-0.3037-0.3671-0.4951-0.4951c-0.1357-0.2012-0.3027-0.3672-0.4951-0.4941
		c-0.1357-0.2012-0.3027-0.3672-0.4941-0.4951c-0.1358-0.2012-0.3028-0.3662-0.4942-0.4942
		c-0.1357-0.2011-0.3037-0.3672-0.4951-0.4951c-0.1357-0.2002-0.3027-0.3662-0.4941-0.4932
		c-0.1358-0.2011-0.3028-0.3671-0.4942-0.4951c-0.1357-0.2011-0.3037-0.3672-0.4951-0.4951
		c-0.1357-0.2012-0.3027-0.3662-0.4941-0.4941c-0.1358-0.2012-0.3038-0.3672-0.4961-0.4952
		c-0.1358-0.2001-0.3018-0.3662-0.4932-0.4941c-0.1357-0.2012-0.3027-0.3662-0.4951-0.4941
		c-0.1358-0.2012-0.3027-0.3672-0.4942-0.4951c-0.1357-0.2012-0.3027-0.3663-0.4941-0.4942
		c-0.1357-0.2012-0.3037-0.3672-0.4961-0.4951c-0.1348-0.2002-0.3017-0.3662-0.4932-0.4941
		c-0.1357-0.2002-0.3027-0.3663-0.4941-0.4942c-0.1357-0.2012-0.3037-0.3672-0.4961-0.4951
		C75.7314,35.5,75.5645,35.334,75.374,35.207c-0.5322-0.7871-1.5781-1.0439-2.4111-0.5634l-0.625,0.3603
		c-0.0371-0.0293-0.0684-0.0635-0.1084-0.0898c-0.1328-0.1934-0.2949-0.3633-0.4961-0.4952
		c-0.1318-0.1923-0.2939-0.3623-0.4932-0.4931c-0.1328-0.1934-0.2949-0.3643-0.4951-0.4961
		c-0.1328-0.1924-0.2949-0.3623-0.4941-0.4942c-0.1328-0.1923-0.2949-0.3623-0.4942-0.4941
		c-0.1328-0.1934-0.2949-0.3643-0.4961-0.4961c-0.1318-0.1924-0.2939-0.3613-0.4941-0.4932
		c-0.1318-0.1923-0.2939-0.3632-0.4941-0.4941c-0.1329-0.1924-0.294-0.3633-0.4942-0.4941
		c-0.2353-0.3467-0.582-0.6192-1.0195-0.7354c-0.8906-0.2422-1.7998,0.2334-2.1426,1.0645c-0.001-0.001-0.0019-0.003-0.0029-0.0039
		c-0.084-0.084-0.1748-0.1563-0.2695-0.2198c-0.0655-0.0966-0.1397-0.1894-0.2247-0.2744c-0.0839-0.084-0.1757-0.1562-0.2705-0.2207
		c-0.0644-0.0967-0.1386-0.1894-0.2246-0.2744c-0.084-0.083-0.1748-0.1553-0.2695-0.2187
		c-0.0645-0.0977-0.1387-0.1895-0.2246-0.2754c-0.084-0.083-0.1738-0.1553-0.2686-0.2188
		c-0.0654-0.0976-0.1396-0.1904-0.2256-0.2764c-0.0849-0.0839-0.1767-0.1572-0.2714-0.2216
		c-0.0655-0.0957-0.1387-0.1875-0.2237-0.2725c-0.084-0.084-0.1748-0.1562-0.2695-0.2197
		c-0.0654-0.0967-0.1397-0.1895-0.2246-0.2744c-0.084-0.084-0.1758-0.1563-0.2705-0.2207
		c-0.0645-0.0967-0.1387-0.1895-0.2246-0.2745c-0.084-0.0839-0.1748-0.1562-0.2696-0.2197
		c-0.0654-0.0967-0.1386-0.1894-0.2246-0.2744c-0.084-0.084-0.1748-0.1562-0.2695-0.2197
		c-0.0654-0.0967-0.1387-0.1895-0.2246-0.2744c-0.085-0.085-0.1768-0.1582-0.2725-0.2227
		c-0.0644-0.0957-0.1377-0.1865-0.2226-0.2715c-0.083-0.083-0.1739-0.1543-0.2676-0.2177
		c-0.0654-0.0977-0.1406-0.1915-0.2266-0.2774c-0.7109-0.709-1.8603-0.709-2.5713,0.0029c0,0-0.2197,0.2198-0.5761,0.5752
		c-0.0235-0.0175-0.043-0.039-0.0674-0.0556c-0.1319-0.1944-0.2988-0.3614-0.4932-0.4932
		c-0.1318-0.1953-0.2998-0.3633-0.4951-0.4951c-0.1318-0.1953-0.2998-0.3633-0.4951-0.4942
		c-0.1309-0.1953-0.2988-0.3632-0.4942-0.4951c-0.1318-0.1953-0.2988-0.3633-0.4941-0.4941
		c-0.1318-0.1953-0.2998-0.3633-0.4951-0.4951c-0.1318-0.1953-0.2998-0.3633-0.4951-0.4951
		c-0.1309-0.1944-0.2989-0.3623-0.4942-0.4932c-0.1308-0.1953-0.2988-0.3633-0.4941-0.4951
		c-0.3272-0.4844-0.8809-0.8037-1.5088-0.8037c-1.0029,0-1.8184,0.8134-1.8184,1.8183v7.6992
		c-2.1074-2.1074-4.789-4.7861-4.789-4.7861c-0.711-0.709-1.8604-0.709-2.5703,0.0029c-0.711,0.709-0.711,1.8594,0,2.5713
		l0.4892,0.4893c0.002,0.0019,0.003,0.0039,0.0049,0.0058l2.4727,2.4717l0.4941,0.4942l0.001,0.0009l0.4931,0.4932
		c0.001,0,0.001,0.001,0.001,0.001l0.4893,0.4892c0.0019,0.002,0.0029,0.0039,0.0049,0.0059l2.9091,2.9082v8.1279
		c-0.0351-0.0273-0.0722-0.0527-0.1093-0.0781c-0.1328-0.1982-0.3008-0.3643-0.4952-0.4951
		c-0.1328-0.1983-0.3007-0.3643-0.4951-0.4951c-0.1328-0.1973-0.2998-0.3643-0.4941-0.4942
		c-0.1328-0.1972-0.3008-0.3632-0.4941-0.4941c-0.1329-0.1973-0.3008-0.3643-0.4942-0.4941
		c-0.1338-0.1983-0.3008-0.3643-0.4951-0.4952c-0.1328-0.1972-0.2998-0.3632-0.4932-0.4931
		c-0.1338-0.1983-0.3008-0.3653-0.4951-0.4951c-0.1338-0.1983-0.3017-0.3653-0.4961-0.4961
		c-0.1328-0.1973-0.2998-0.3633-0.4931-0.4932c-0.1338-0.1982-0.3018-0.3652-0.4961-0.4951
		c-0.1329-0.1973-0.2998-0.3633-0.4932-0.4932c-0.1328-0.1982-0.2998-0.3642-0.4941-0.4951
		c-0.1329-0.1973-0.2998-0.3643-0.4942-0.4941c-0.1328-0.1983-0.3008-0.3653-0.4951-0.4952
		c-0.1328-0.1972-0.3008-0.3642-0.4941-0.4941c-0.1338-0.1982-0.3008-0.3643-0.4952-0.4951
		c-0.1328-0.1973-0.3007-0.3643-0.4941-0.4942c-0.1328-0.1982-0.3008-0.3642-0.4941-0.4941
		c-0.1329-0.1982-0.3008-0.3643-0.4952-0.4941c-0.1328-0.1983-0.2998-0.3653-0.4941-0.4952
		c-0.1328-0.1982-0.3008-0.3642-0.4941-0.4941c-0.1338-0.1982-0.3018-0.3652-0.4961-0.4961
		c-0.1328-0.1973-0.2998-0.3643-0.4942-0.4941c-0.1328-0.1973-0.3008-0.3643-0.4941-0.4942
		c-0.1328-0.1972-0.3008-0.3633-0.4942-0.4931c-0.4209-0.6289-1.2041-0.9571-1.9736-0.7481
		c-0.8135,0.2168-1.3486,0.9522-1.3486,1.7539c0,0.1553,0.0166,0.3155,0.0615,0.4717c0,0,0.9805,3.6611,1.752,6.54l-6.669-3.8505
		c-0.8701-0.502-1.9824-0.2041-2.4853,0.6669c-0.4815,0.8301-0.2198,1.8838,0.5644,2.4122c0.1279,0.1914,0.294,0.3593,0.4942,0.4941
		c0.1279,0.1924,0.2939,0.3594,0.4941,0.4941c0.1279,0.1924,0.2939,0.3594,0.4941,0.4942c0.128,0.1924,0.294,0.3594,0.4952,0.4951
		c0.1279,0.1924,0.2939,0.3594,0.4951,0.4951c0.1279,0.1914,0.2939,0.3584,0.4941,0.4932c0.1279,0.1924,0.294,0.3603,0.4941,0.4951
		c0.128,0.1924,0.294,0.3594,0.4942,0.4941c0.1289,0.1924,0.2949,0.3594,0.4951,0.4952c0.0176,0.0253,0.0303,0.0537,0.0488,0.0791
		c-2.2314,0.5976-4.2685,1.1435-4.2685,1.1435C24.5361,43.6143,24,44.3477,24,45.1494c0,0.1563,0.0186,0.3174,0.0635,0.4736
		c0.1191,0.4463,0.3994,0.8038,0.7568,1.0401c0.1328,0.1933,0.2979,0.3564,0.4873,0.4853c0.1338,0.1983,0.3018,0.3643,0.4951,0.4952
		c0.1338,0.1972,0.3008,0.3632,0.4942,0.4941c0.1338,0.1982,0.3017,0.3652,0.4951,0.4951c0.1338,0.1973,0.3008,0.3643,0.4941,0.4942
		c0.1328,0.1972,0.2998,0.3623,0.4922,0.4921c0.1348,0.2002,0.3028,0.3682,0.499,0.4991c0.1329,0.1972,0.2998,0.3623,0.4922,0.4922
		c0.1338,0.1982,0.3018,0.3642,0.4951,0.4941c0.1338,0.1982,0.3008,0.3652,0.4942,0.4951c0.1338,0.1983,0.3017,0.3652,0.4961,0.4951
		c0.1328,0.1973,0.2998,0.3633,0.4931,0.4932c0.1338,0.1982,0.3008,0.3652,0.4942,0.4951c0.1338,0.1973,0.3008,0.3643,0.4941,0.4941
		c0.1338,0.1983,0.3018,0.3653,0.4951,0.4952c0.1338,0.1972,0.3008,0.3632,0.4942,0.4941c0.0791,0.1172,0.168,0.2266,0.2705,0.3213
		L26.29,53.0898c-0.9697-0.2578-1.9677,0.3194-2.2265,1.2872C24.0186,54.5352,24,54.6934,24,54.8477
		c0,0.6132,0.3154,1.1835,0.8242,1.5185c0.1319,0.1934,0.294,0.3633,0.4942,0.4942c0.1318,0.1943,0.2949,0.3642,0.4951,0.496
		c0.1328,0.1924,0.2949,0.3623,0.4951,0.4942c0.1318,0.1924,0.2939,0.3623,0.4941,0.4941c0.1319,0.1934,0.295,0.3633,0.4942,0.4942
		c0.1318,0.1933,0.2949,0.3632,0.4941,0.4941c0.1328,0.1943,0.2949,0.3643,0.4951,0.4951c0.1026,0.1494,0.2285,0.2783,0.3721,0.3926
		l-3.4414,1.9863c-0.8701,0.501-1.168,1.6162-0.665,2.4844c0.1445,0.25,0.3437,0.4463,0.5683,0.5967
		c0.1358,0.2002,0.3028,0.3662,0.4942,0.4941c0.1357,0.2002,0.3027,0.3662,0.4941,0.4942c0.1357,0.2002,0.3027,0.3662,0.4941,0.4941
		c0.1358,0.2012,0.3038,0.3672,0.4952,0.4951c0.1357,0.2012,0.3037,0.3672,0.4951,0.4951c0.1347,0.2002,0.3017,0.3653,0.4931,0.4932
		c0.1358,0.2012,0.3037,0.3682,0.4961,0.4961c0.1348,0.2002,0.3018,0.3652,0.4932,0.4932c0.1357,0.2011,0.3037,0.3681,0.4961,0.4961
		c0.1357,0.2002,0.3027,0.3662,0.4941,0.4941c0.1358,0.2012,0.3037,0.3672,0.4951,0.4951c0.1358,0.2002,0.3028,0.3652,0.4932,0.4932
		c0.1358,0.2012,0.3037,0.3672,0.4951,0.4951c0.1358,0.2002,0.3028,0.3662,0.4942,0.4941c0.1357,0.2012,0.3027,0.3672,0.4951,0.4942
		c0.1348,0.2011,0.3027,0.3672,0.4941,0.4951c0.1358,0.2002,0.3028,0.3662,0.4942,0.4941c0.1357,0.2012,0.3027,0.3672,0.4951,0.4952
		c0.1348,0.2001,0.3017,0.3652,0.4931,0.4931c0.1358,0.2022,0.3038,0.3682,0.4961,0.4961c0.1358,0.2002,0.3028,0.3662,0.4942,0.4942
		c0.1347,0.2001,0.3017,0.3652,0.4931,0.4931c0.1358,0.2022,0.3038,0.3682,0.4961,0.4961c0.1358,0.2002,0.3018,0.3652,0.4932,0.4932
		c0.1357,0.2011,0.3037,0.3681,0.4961,0.4961c0.1348,0.2002,0.3027,0.3652,0.4932,0.4931c0.1357,0.2012,0.3037,0.3672,0.4961,0.4961
		c0.1357,0.2002,0.3027,0.3662,0.4941,0.4942c0.1357,0.2011,0.3037,0.3672,0.4951,0.4951c0.1358,0.2002,0.3027,0.3652,0.4932,0.4931
		c0.1357,0.2002,0.3027,0.3663,0.4951,0.4942c0.1348,0.2012,0.3027,0.3672,0.4941,0.4951c0.1358,0.2002,0.3028,0.3662,0.4942,0.4941
		c0.1357,0.2012,0.3027,0.3672,0.4951,0.4952c0.1357,0.2002,0.3027,0.3662,0.4941,0.4941c0.1358,0.2012,0.3028,0.3672,0.4952,0.4941
		c0.1347,0.2012,0.3017,0.3663,0.4931,0.4942c0.1358,0.2002,0.3028,0.3662,0.4942,0.4941c0.1357,0.2022,0.3037,0.3682,0.4961,0.4961
		c0.1357,0.2002,0.3017,0.3653,0.4931,0.4932c0.1358,0.2012,0.3037,0.3681,0.4961,0.4961c0.1348,0.2002,0.3027,0.3652,0.4932,0.4931
		c0.1357,0.2002,0.3027,0.3663,0.4931,0.4942c0.1368,0.2012,0.3037,0.3681,0.4961,0.4961c0.1367,0.2011,0.3047,0.3672,0.4971,0.4951
		c0.1348,0.2002,0.3018,0.3652,0.4922,0.4932c0.1357,0.2002,0.3027,0.3662,0.4941,0.4941c0.1358,0.2012,0.3037,0.3672,0.4951,0.4951
		c0.1358,0.2012,0.3028,0.3662,0.4942,0.4942c0.1357,0.2011,0.3037,0.3671,0.4951,0.4951c0.1357,0.2011,0.3027,0.3662,0.4941,0.4941
		c0.1358,0.2012,0.3028,0.3672,0.4952,0.4942c0.1347,0.2011,0.3017,0.3662,0.4931,0.4941c0.1358,0.2012,0.3037,0.3672,0.4951,0.4951
		c0.1358,0.2012,0.3038,0.3672,0.4952,0.4951c0.1347,0.2002,0.3017,0.3653,0.4931,0.4932c0.1358,0.2012,0.3037,0.3682,0.4961,0.4961
		c0.1348,0.2002,0.3018,0.3662,0.4932,0.4931c0.1367,0.2012,0.3037,0.3682,0.4961,0.4961c0.1357,0.2002,0.3027,0.3663,0.4941,0.4942
		c0.1358,0.2002,0.3028,0.3662,0.4942,0.4941c0.1357,0.2002,0.3027,0.3662,0.4941,0.4942c0.1357,0.2011,0.3027,0.3662,0.4941,0.4941
		c0.1358,0.2012,0.3037,0.3672,0.4952,0.4951c0.1357,0.2002,0.3027,0.3662,0.4941,0.4942c0.1357,0.2011,0.3027,0.3672,0.4951,0.4951
		c0.1358,0.2002,0.3027,0.3662,0.4942,0.4941c0.1357,0.2012,0.3027,0.3662,0.4941,0.4942c0.0664,0.0976,0.1406,0.1875,0.2207,0.2685
		c20.4111-3.6982,36.499-19.7773,40.21-40.1846c-0.0235-0.0175-0.043-0.039-0.0674-0.0556
		C98.9736,58.7412,98.8066,58.5762,98.6152,58.4482z"/>
</g>
<path id="snowflake-6-snowflake-6" fill="#FFFFFF" d="M76,54.8477c0-0.1543-0.0186-0.3125-0.0635-0.4707
	c-0.2607-0.9678-1.2568-1.545-2.2265-1.2872l-10.0518,2.6973L53.6387,50.002l10.0195-5.7852L73.71,46.9072
	c0.9697,0.2617,1.9658-0.3144,2.2265-1.2842C75.9814,45.4668,76,45.3057,76,45.1494c0-0.8017-0.5361-1.5351-1.3467-1.7539
	c0,0-3.6601-0.9824-6.539-1.7519l6.6689-3.8487c0.8701-0.5039,1.166-1.6172,0.665-2.4844c-0.5048-0.873-1.6152-1.1689-2.4853-0.6669
	l-6.669,3.8486c0.7696-2.8779,1.752-6.5381,1.752-6.5381c0.0449-0.1562,0.0605-0.3164,0.0605-0.4717
	c0-0.8017-0.5341-1.5371-1.3476-1.7539c-0.9678-0.2627-1.9668,0.3164-2.2256,1.2842l-2.6953,10.0527l-10.0195,5.7842V35.2822
	l7.3554-7.3584c0.711-0.7119,0.711-1.8642,0-2.5742c-0.7109-0.709-1.8603-0.709-2.5713,0.0029c0,0-2.6796,2.6758-4.7841,4.7832
	v-7.6992c0-1.0049-0.8155-1.8183-1.8184-1.8183c-1.0029,0-1.8184,0.8134-1.8184,1.8183v7.6992
	c-2.1074-2.1074-4.789-4.7861-4.789-4.7861c-0.711-0.709-1.8604-0.709-2.5703,0.0029c-0.711,0.709-0.711,1.8594,0,2.5713
	l7.3593,7.3574v11.5684l-10.0195-5.7842l-2.6953-10.0527c-0.2588-0.9678-1.2578-1.5469-2.2256-1.2842
	c-0.8135,0.2168-1.3486,0.9522-1.3486,1.7539c0,0.1553,0.0166,0.3155,0.0615,0.4717c0,0,0.9805,3.6611,1.752,6.54l-6.669-3.8505
	c-0.8701-0.502-1.9824-0.2041-2.4853,0.6669c-0.503,0.8672-0.2022,1.9834,0.665,2.4844l6.667,3.8487
	c-2.8799,0.7714-6.5371,1.7519-6.5371,1.7519C24.5361,43.6143,24,44.3477,24,45.1494c0,0.1563,0.0186,0.3174,0.0635,0.4736
	c0.2588,0.9698,1.2568,1.5459,2.2265,1.2842l10.0498-2.6904l10.0196,5.7852l-10.0176,5.7822L26.29,53.0898
	c-0.9697-0.2578-1.9677,0.3194-2.2265,1.2872C24.0186,54.5352,24,54.6934,24,54.8477c0,0.8037,0.5361,1.54,1.3467,1.7597
	c0,0,3.6601,0.9785,6.539,1.75l-6.6689,3.8496c-0.8701,0.501-1.168,1.6162-0.665,2.4844c0.5048,0.8701,1.6152,1.169,2.4853,0.666
	l6.667-3.8506c-0.7695,2.8799-1.75,6.5381-1.75,6.5381c-0.0449,0.1582-0.0615,0.3174-0.0615,0.4717
	c0,0.8027,0.5351,1.5391,1.3486,1.7568c0.9678,0.2608,1.9668-0.3173,2.2256-1.2871l2.6924-10.0498l10.0224-5.7851v11.5673
	l-7.3593,7.3594c-0.711,0.71-0.711,1.8594,0,2.5723c0.7099,0.708,1.8593,0.708,2.5703,0.0019c0,0,2.6816-2.6816,4.789-4.789v7.7012
	c0,1.0058,0.8155,1.8183,1.8184,1.8183c1.0029,0,1.8184-0.8125,1.8184-1.8183v-7.7012c2.1045,2.1074,4.7841,4.7871,4.7841,4.7871
	c0.711,0.708,1.8604,0.708,2.5713,0.0019c0.711-0.7128,0.711-1.8642,0-2.5742l-7.3554-7.3613V53.1514l10.0254,5.7871l2.6894,10.0478
	c0.2568,0.9698,1.2578,1.5479,2.2256,1.2871c0.8135-0.2148,1.3476-0.9541,1.3476-1.7568c0-0.1543-0.0156-0.3135-0.0605-0.4717
	c0,0-0.9805-3.6582-1.75-6.5351l6.667,3.8476c0.8701,0.503,1.9824,0.2022,2.4853-0.666c0.501-0.8682,0.2022-1.9834-0.665-2.4844
	l-6.6689-3.8496c2.8759-0.7715,6.539-1.75,6.539-1.75C75.4639,56.3877,76,55.6514,76,54.8477z"/>
</svg>
