<?xml version="1.0" encoding="utf-8"?>
<!-- Generator: Adobe Illustrator 17.1.0, SVG Export Plug-In . SVG Version: 6.00 Build 0)  -->
<!DOCTYPE svg PUBLIC "-//W3C//DTD SVG 1.1//EN" "http://www.w3.org/Graphics/SVG/1.1/DTD/svg11.dtd">
<svg version="1.1" id="snowflake-2" xmlns="http://www.w3.org/2000/svg" xmlns:xlink="http://www.w3.org/1999/xlink" x="0px"
	 y="0px" viewBox="0 0 100 100" enable-background="new 0 0 100 100" xml:space="preserve">
<circle id="snowflake-2-label" fill="#4FC1E9" cx="50" cy="50" r="50"/>
<g id="snowflake-2-shadow">
	<path fill="#3BAFDA" d="M99.0947,58.3418l-0.581-0.1641l0.0859-0.331l-0.5801-0.1631l0.086-0.3311l-0.5811-0.163l0.086-0.3321
		l-0.5801-0.1631l0.0859-0.331l-0.5801-0.1641l0.086-0.3301l-0.5811-0.164l0.086-0.3311l-0.5801-0.1631l0.0859-0.331l-0.581-0.1631
		l0.0859-0.332l-0.5801-0.1631l0.086-0.3311l-0.5801-0.1631l0.0859-0.331l-0.5801-0.1641l0.086-0.3301l-0.5811-0.164l0.086-0.3311
		l-0.5811-0.1631l0.0859-0.331l-0.58-0.1631l0.0859-0.332l-0.5801-0.1631l0.086-0.3311l-0.5801-0.1635l0.0859-0.3311l-0.5801-0.1636
		l0.086-0.331l-0.5821-0.1636l0.086-0.3306l-0.5801-0.1635l0.0859-0.3316l-0.58-0.1631l0.0859-0.331l-0.5801-0.1636l0.086-0.3311
		l-0.5801-0.1635l0.0859-0.3306l-0.581-0.1636l0.0859-0.331l-0.5801-0.1636l0.086-0.3311l-0.5811-0.1635l0.0859-0.3311l-0.58-0.1636
		l0.0859-0.3305l-0.581-0.1636l0.0859-0.3315l-0.5801-0.1636l0.0859-0.3306l-0.58-0.1636l0.0859-0.331l-0.581-0.1636l0.0859-0.3306
		l-0.5801-0.1635l0.0859-0.3311l-0.58-0.1636l0.0859-0.3305l-0.581-0.1636l0.0859-0.3315l-0.5801-0.1636l0.086-0.3306
		l-0.5811-0.1636l0.0859-0.331l-0.58-0.1636l0.0859-0.331l-0.5801-0.1631l0.086-0.3316l-0.5811-0.1635l0.0859-0.3306l-0.58-0.1636
		l0.0859-0.331l-0.5801-0.1636l0.086-0.3306l-0.5811-0.164l0.0859-0.3311l-0.58-0.1631l0.0859-0.331l-0.5801-0.1636l0.086-0.3311
		L77.25,36.9141l0.0859-0.3306l-0.58-0.1636l0.0859-0.3315l-0.5801-0.1636l0.086-0.3306l-0.5811-0.164l0.0859-0.3306l-1.8613-0.5244
		l-0.75,0.4307l-0.0039-0.6148l-0.4893,0.2774l-0.0048-0.772l-0.4893,0.2773l-0.0049-0.7715l-0.4902,0.2784l-0.0049-0.773
		l-0.4893,0.2774l-0.0048-0.772l-2.6338,1.4951l-0.0313,1.8921l-0.0849,0.0483l0.0048-0.7778l-0.499,0.2832l0.0049-0.7778
		l-0.499,0.2827l0.0049-0.7774l-0.5,0.2837l0.0049-0.7778l-0.4991,0.2827l0.0049-0.7773l-1.4277,0.81l-0.0049-0.7241l-0.4902,0.2783
		l-0.0049-0.7729l-0.4893,0.2778l-0.0049-0.7724l-0.4892,0.2778l-0.0049-0.7725l-0.4902,0.2783l-0.0049-0.7724l-0.4893,0.2778
		l-0.0049-0.7724l-0.4902,0.2783l-0.0049-0.773l-0.4892,0.2779l-0.0049-0.7725l-0.4893,0.2778l-0.0049-0.7719l-0.4902,0.2783
		l-0.0049-0.7725l-0.4892,0.2778l-0.0049-0.7729l-0.4893,0.2778l-0.0049-0.7719l-0.4902,0.2783l-0.0049-0.773l-0.4892,0.2779
		L58.6758,26.75l-0.4903,0.2783l-0.0048-0.7729l-0.4893,0.2778l-0.0049-0.772l-0.4892,0.2779l-0.0049-0.773l-0.4903,0.2783
		l-0.0048-0.7724l-0.4893,0.2778l-0.0049-0.7725l-0.4892,0.2779l-0.0049-0.772l-0.4902,0.2783l-0.0049-0.7734l-0.4893,0.2778
		l-0.0049-0.772l-1.3066,0.7422l-0.0391-0.0385v-0.0079l-0.4941-0.4863v-0.0083l-0.4942-0.4863V22.501l-0.4941-0.4864v-0.0087
		l-0.4951-0.4864v-0.0078l-1.374-1.3515l-1.3877,1.3515v3.124l-3.2325-1.8418l-0.0244,3.0274l0.4971,0.2983l-0.002,0.1958
		l0.4961,0.2979l-0.0019,0.1972l0.4961,0.2979l-0.002,0.1963l0.4971,0.2983l-0.002,0.1963l0.4961,0.2979l-0.0019,0.1967
		l0.4961,0.2979l-0.002,0.1963l0.2901,0.1743v1.2007l-5.0078-2.9336l-0.0196,3.0273l0.4951,0.3028l-0.0009,0.1919l0.4961,0.3032
		l-0.001,0.1909l0.4951,0.3027l-0.001,0.1924l0.4951,0.3028l-0.0009,0.1914l0.4961,0.3032l-0.001,0.1914l0.4951,0.3027
		l-0.001,0.1914l0.4961,0.3033l-0.001,0.1918l0.4952,0.3028l-0.001,0.1914l0.4961,0.3032l-0.001,0.1914l0.1426,0.0869
		l-7.5713,4.3697l-0.0137-0.0074l-0.0049-0.2172l-0.4892-0.2774l-0.0049-0.2168l-0.4893-0.2773l-0.0049-0.2168l-0.4902-0.2779
		l-0.0049-0.2168l-0.4892-0.2768l-0.0049-0.2178l-0.4893-0.2773l-0.0049-0.2173l-0.4902-0.2778l-0.0049-0.2168l-0.4892-0.2774
		l-0.0049-0.2168l-0.4902-0.2778l-0.0049-0.2173l-0.4893-0.2769l-0.0049-0.2172l-2.6396-1.4961l0.0195,3.0815l-0.125-0.0708
		l-0.0039-0.2163l-0.4902-0.2778l-0.0039-0.2163l-0.4903-0.2779l-0.0039-0.2173L31.9326,34.52l-0.0039-0.2158l-0.4902-0.2778
		l-0.0039-0.2168l-2.6407-1.4951l-0.0214,3.8232l-2.7432-1.5918l-1.8613,0.5166l0.4785,1.876l0.4326,0.25l0.0625,0.2446
		l0.4316,0.2495l0.0625,0.2446l0.4317,0.2496l0.0625,0.2451l0.4316,0.2495l0.0625,0.2451l0.0078,0.0044l-2.4892,1.459l0.6679,0.3926
		l-0.1738,0.102l0.668,0.3926l-0.1729,0.1016l0.668,0.3925l-0.1738,0.1021l0.6679,0.393l-0.1728,0.1016l0.668,0.3926l-0.1739,0.1016
		l0.668,0.3925l-0.1738,0.1021l0.6689,0.393l-0.0967,0.0562l-0.5888,0.335l0.6709,0.394l-0.1768,0.1001l0.6719,0.3945
		l-0.1768,0.1006l0.6709,0.3936l-0.1767,0.1006l0.6709,0.394l-0.1768,0.1006l0.6709,0.394l-0.1758,0.1001l0.6709,0.3946
		l-0.1767,0.1005l0.6709,0.3941l-0.1758,0.1001l0.6709,0.394l-0.1768,0.1006l0.6709,0.3941l-0.1758,0.1001l0.6709,0.3945
		l-0.1767,0.1006l0.6709,0.394l-0.1768,0.1001l0.6709,0.3941l-0.1767,0.1005l0.6709,0.3941l-0.1758,0.1001l0.6709,0.3945
		l-0.1768,0.1011l0.6709,0.3935l-0.1758,0.1006l0.6709,0.3936l-0.1767,0.1006l0.6709,0.3945l-0.1768,0.0996l0.4004,0.2354v3.7568
		l-0.9922,0.5693l-5.2607-2.8681l-2.6104,1.5341l0.6778,0.3858l-0.1836,0.1084l0.6787,0.3867l-0.1836,0.1084l0.6777,0.3867
		l-0.1836,0.1074l0.6787,0.3868l-0.1845,0.1074l0.6787,0.3867l-0.1836,0.1084l0.6787,0.3857l-0.1846,0.1094l0.6787,0.3858
		l-0.1836,0.1084l0.3682,0.2089l-0.7676,0.4424l-3.4072-1.8925l-2.6094,1.5341l0.67,0.3916l-0.1758,0.1026l0.6699,0.3925
		l-0.1748,0.1026l0.6699,0.3916l-0.1758,0.1025l0.67,0.3916l-0.1758,0.1035l0.6133,0.3575l-2.0411,1.1767l-0.4834,1.8672
		l0.5801,0.1631l-0.0859,0.332l0.581,0.1621l-0.0859,0.3321l0.5801,0.1621l-0.086,0.332l0.5801,0.1631L26.126,66.877l0.581,0.163
		l-0.0859,0.3311l0.5801,0.1631l-0.086,0.332l0.5801,0.1631l-0.0859,0.332l0.581,0.1621l-0.0859,0.3321l0.5801,0.1621l-0.086,0.332
		l0.5811,0.1631l-0.0859,0.332l0.58,0.1631l-0.0859,0.3311l0.5801,0.1631l-0.086,0.332l0.5811,0.1621l-0.086,0.332l0.5801,0.1621
		l-0.0859,0.3321l0.581,0.1621l-0.0859,0.332l0.5801,0.1631l-0.086,0.332l0.5801,0.1631l-0.0859,0.332l0.581,0.1621l-0.0859,0.3321
		l0.5801,0.1621l-0.086,0.332l0.5811,0.1631l-0.0859,0.3311l0.58,0.163l-0.0859,0.3321l0.5801,0.1631l-0.086,0.331l0.5811,0.1631
		l-0.0859,0.332l0.58,0.1621l-0.0859,0.3321l0.5801,0.1621l-0.086,0.332l0.5801,0.1621l-0.0859,0.3321l0.581,0.164L37.5,78.251
		l0.5811,0.1631l-0.086,0.332l0.5801,0.1621l-0.0859,0.332l0.58,0.1621l-0.0859,0.3321l0.5801,0.1621l-0.086,0.333l0.5811,0.1631
		l-0.0859,0.331l0.581,0.1631l-0.0859,0.3311l0.5801,0.1631l-0.086,0.332l0.5801,0.1621l-0.0859,0.332l0.58,0.1621l-0.0859,0.3321
		l0.5811,0.164l-0.086,0.3311l0.5801,0.1631l-0.0859,0.332l0.58,0.1621l-0.0859,0.3311l0.581,0.1631l-0.0859,0.332l0.5801,0.1621
		l-0.0859,0.332l0.581,0.1621l-0.0859,0.333l0.58,0.1631l-0.0859,0.3311l0.5801,0.1631l-0.0859,0.332l0.581,0.1621l-0.0859,0.332
		l0.58,0.1622l-0.0859,0.332l0.5801,0.1621l-0.086,0.333l0.5811,0.1631l-0.0859,0.331l0.58,0.1631l-0.0859,0.3321L48.96,89.293
		l-0.086,0.332l0.5801,0.1621l-0.0859,0.332l0.58,0.1621l-0.0859,0.3321l0.5811,0.1631l-0.086,0.332l0.5801,0.1631l-0.0859,0.331
		l0.581,0.1631l-0.0859,0.3321l0.5801,0.1621l-0.086,0.332l0.5801,0.1621l-0.0859,0.332l0.581,0.1631l-0.0859,0.3321l0.5801,0.163
		l-0.086,0.3311l0.5811,0.1631l-0.086,0.331l0.5801,0.1631l-0.0859,0.3321l0.5801,0.1621l-0.086,0.332l0.5801,0.1621l-0.0859,0.332
		l0.581,0.1631l-0.0859,0.3321l0.5801,0.163l-0.086,0.3311l0.5811,0.1631l-0.086,0.332l0.5801,0.1621l-0.0859,0.332l0.5801,0.1622
		l-0.086,0.332l0.5811,0.1631l-0.086,0.331l0.5801,0.1631l-0.0058,0.0215c20.5576-3.6709,36.7539-19.8975,40.3798-40.4717
		l-0.2148-0.0605L99.0947,58.3418z"/>
</g>
<path id="snowflake-2-snowflake-2" fill="#FFFFFF" d="M73.2441,58.083l-3.3134,1.8516l-2.0694-1.1983l5.045-2.8711l-2.6143-1.5341
	l-5.168,2.8251l-0.9922-0.5703v-13.166l0.9346-0.5332l5.2852,2.8819l2.6132-1.5362l-5.1474-2.9316l2.0683-1.1885l3.419,1.9053
	l2.6133-1.5352l-3.3028-1.9355l2.752-1.5821l0.4853-1.8652l-1.8613-0.5244l-2.706,1.5557l-0.0254-3.7178l-2.6338,1.4951
	l-0.0615,3.7852l-2.0625,1.1904l0.0351-5.791l-2.6396,1.497L63.7568,40.46l-1.0615,0.6084l-11.2988-6.5245v-1.163l5.1162-3.1241
	l-0.0244-3.0273l-5.0918,2.9814v-2.3847l3.3428-2.0049l-0.0196-3.0274l-3.3232,1.8877v-3.1699l-1.374-1.3515l-1.3877,1.3515v3.124
	l-3.2325-1.8418l-0.0244,3.0274l3.2569,1.956v2.3858l-5.0078-2.9336l-0.0196,3.0273l5.0274,3.0713v1.2158l-11.3194,6.5332
	l-1.0107-0.583l-0.1436-6.0048l-2.6396-1.4961l0.0371,5.9121l-2.0606-1.1914l-0.0634-3.9043l-2.6407-1.4951l-0.0214,3.8232
	l-2.7432-1.5918l-1.8613,0.5166l0.4785,1.876l2.7021,1.5625l-3.206,1.8789l2.6084,1.5332l3.3115-1.8418l2.0674,1.1953
	l-5.0371,2.8643l2.6152,1.5361l5.1641-2.8135l1.0273,0.5957v13.0801l-0.9922,0.5693l-5.2607-2.8681l-2.6104,1.5341l5.1289,2.9219
	l-2.0664,1.1914l-3.4072-1.8925l-2.6094,1.5341l3.2989,1.9278l-2.7491,1.5849l-0.4834,1.8672l1.8643,0.5225l2.7021-1.5625
	l0.0196,3.7236l2.6406-1.4912l0.0596-3.8008l2.0683-1.1885l-0.0351,5.8018l2.6338-1.4981l0.1435-5.8916L37.21,58.958l11.3935,6.5762
	v1.082l-5.1133,3.124l0.0196,3.0332l5.0937-2.9814v2.3789l-3.3418,2.0049l0.0196,3.0342l3.3222-1.8955v3.1699l1.3721,1.3564
	l1.3877-1.3564v-3.1201l3.2373,1.8457l0.0176-3.0342l-3.2549-1.9561v-2.3808l5.0078,2.9345l0.0273-3.0332l-5.0351-3.0752v-0.8623
	h0.0332v-0.2509l11.3574-6.5567l0.9414,0.5371l0.1465,5.9795l2.6318,1.4951l-0.0341-5.9043l2.0693,1.1885l0.0557,3.8965
	l2.6386,1.501l0.0254-3.8213l2.7403,1.583l1.8613-0.5078l-0.4785-1.8789l-2.7051-1.5615l3.2109-1.8858L73.2441,58.083z
	 M51.3965,37.1924l8.999,5.1924l-2.4687,1.4199l-6.5303-3.7676V37.1924z M54.499,51.0254V48.959l2.3887-1.375v4.8232L54.499,51.0254
	z M55.5215,54.8057l-4.125,2.3828v-2.7569l1.7383-1.0107L55.5215,54.8057z M51.3965,42.9111l4.0342,2.3301l-2.3975,1.3721
	l-1.6367-0.9463V42.9111z M48.6348,37.1924v2.8408l-6.5703,3.7949l-2.4629-1.4258L48.6348,37.1924z M44.5488,45.2676l4.086-2.3604
	v2.7598l-1.6983,0.9814L44.5488,45.2676z M45.5322,49.0205v1.9121l-2.3896,1.3672v-4.6621L45.5322,49.0205z M38.1914,44.7725
	l2.459,1.4277v7.5322l-2.459,1.4141V44.7725z M48.6348,62.9062l-9.1827-5.3037l2.4727-1.4189l6.71,3.8789V62.9062z M48.6348,57.1885
	L44.416,54.749l2.3936-1.374l1.8252,1.0566V57.1885z M50.0537,52.4795l-2.1064-1.2149v-2.4335l2.1064-1.209l2.1016,1.209v2.4335
	L50.0537,52.4795z M51.3965,62.9062v-2.8466l6.6103-3.8174l2.461,1.4238L51.3965,62.9062z M61.8418,55.2764l-2.4688-1.4307v-7.6924
	l2.4688-1.4131V55.2764z"/>
</svg>
