<?xml version="1.0" encoding="utf-8"?>
<!-- Generator: Adobe Illustrator 17.1.0, SVG Export Plug-In . SVG Version: 6.00 Build 0)  -->
<!DOCTYPE svg PUBLIC "-//W3C//DTD SVG 1.1//EN" "http://www.w3.org/Graphics/SVG/1.1/DTD/svg11.dtd">
<svg version="1.1" id="snowflake-4" xmlns="http://www.w3.org/2000/svg" xmlns:xlink="http://www.w3.org/1999/xlink" x="0px"
	 y="0px" viewBox="0 0 100 100" enable-background="new 0 0 100 100" xml:space="preserve">
<circle id="snowflake-4-label" fill="#FFCE54" cx="50" cy="50" r="50"/>
<g id="snowflake-4-shadow">
	<path fill="#F6BB42" d="M99.2314,58.2617l-0.58-0.1631l0.0859-0.332l-0.5791-0.1631l0.085-0.331l-0.5811-0.1631l0.0859-0.3321
		l-0.58-0.163l0.0859-0.3311l-0.5801-0.1631l0.086-0.331l-0.5801-0.1631l0.0859-0.3321l-0.5801-0.163l0.085-0.3311l-0.5801-0.1631
		l0.086-0.332l-0.5811-0.1631l0.086-0.3311l-0.5801-0.163l0.0859-0.3311l-0.5801-0.1631l0.085-0.331l-0.5801-0.1631l0.086-0.3321
		l-0.5801-0.163l0.0849-0.3311l-0.58-0.1631l0.0859-0.332l-0.5801-0.1631l0.086-0.3311l-0.5801-0.163l0.0859-0.3311l-0.581-0.1631
		l0.0859-0.332l-0.5801-0.1631l0.086-0.331L89.75,49.1973l0.0859-0.3321l-0.58-0.1631l0.0859-0.331l-0.5801-0.1631l0.086-0.331
		l-0.5801-0.1631l0.0859-0.3321l-0.5801-0.1631l0.085-0.331l-0.5801-0.1631l0.086-0.332l-0.5811-0.1631l0.0859-0.3311l-0.58-0.163
		l0.0859-0.3311l-0.5801-0.1631l0.086-0.331l-0.5811-0.1631l0.0859-0.3321l-0.58-0.163l0.0849-0.3311l-0.5801-0.1631l0.086-0.332
		l-0.5801-0.1631l0.0859-0.3311l-0.58-0.163l0.0859-0.3321l-0.5801-0.1631l0.085-0.331l-0.5791-0.1631l0.0849-0.3311l-0.581-0.163
		l0.0859-0.3321l-0.58-0.1621l0.0859-0.332l-0.5801-0.1631l0.0859-0.3311l-0.58-0.163l0.0859-0.3321l-0.5801-0.1631l0.085-0.331
		l-0.5801-0.1631l0.0859-0.332l-0.581-0.1631l0.0859-0.3311l-0.58-0.1631l0.0859-0.331l-0.5801-0.1631l0.086-0.3311l-0.5801-0.163
		l0.0859-0.3321l-0.581-0.1631l0.0849-0.331l-0.5801-0.1631l0.086-0.332l-0.5801-0.1631l0.0859-0.3311l-1.8701-0.5254
		l-0.7627,0.4375l-0.0039-0.6347l-0.4902,0.2783l-0.0039-0.7725l-0.4903,0.2774l-0.0039-0.7715l-0.4902,0.2783l-0.0059-0.7734
		l-0.4882,0.2773l-0.0059-0.7715l-2.6484,1.503l-0.0313,1.8789l-0.0986,0.0566l0.0049-0.7773l-0.5,0.2832l0.0048-0.7783
		l-0.499,0.2832l0.0049-0.7774l-0.499,0.2842l0.0039-0.7793l-0.4981,0.2832l0.0039-0.7773l-0.998,0.5664v-0.0401l-0.4902,0.2783
		l-0.0049-0.7724l-0.4893,0.2783L64.6357,32.54l-0.4892,0.2784l-0.0059-0.7735l-0.4892,0.2783l-0.0049-0.7724l-0.4893,0.2773
		l-0.0049-0.7724l-0.4902,0.2783l-0.0039-0.7725l-0.4902,0.2783l-0.0049-0.7734l-0.4893,0.2783l-0.0049-0.7724l-0.4902,0.2783
		l-0.0049-0.7725l-0.4892,0.2783l-0.0049-0.7724l-0.4902,0.2783l-0.004-0.7734l-0.4902,0.2783l-0.0049-0.7725l-0.4892,0.2783
		l-0.0049-0.7734l-0.4893,0.2783l-0.0058-0.7724l-0.4893,0.2783l-0.0049-0.7725l-0.4902,0.2783l-0.0039-0.7734l-0.4902,0.2783
		l-0.0039-0.7724l-0.4903,0.2783l-0.0049-0.7725l-0.4892,0.2783l-0.0059-0.7734l-0.4892,0.2783l-0.0049-0.7724l-0.4893,0.2783
		l-0.0049-0.7734L54.75,23.4219l-0.0039-0.7725l-1.3145,0.7461l-0.0488-0.0488v-0.0078l-0.4951-0.4873v-0.0079l-0.4941-0.4863
		v-0.0078l-0.4952-0.4863v-0.0088l-0.4941-0.4863v-0.0078L50.0215,20l-1.3936,1.3604V24.5l-3.2509-1.8506l-0.0245,3.0459
		l0.4961,0.2969l-0.0014,0.1973l0.4956,0.2968l-0.0015,0.1983l0.4961,0.2968l-0.0015,0.1973l0.4961,0.2979l-0.0014,0.1963
		l0.4961,0.2978l-0.0015,0.1973l0.4956,0.2968l-0.0015,0.1973l0.3086,0.1846v1.2099l-5.0356-2.9502l-0.0195,3.0459l0.4956,0.3028
		l-0.001,0.1914l0.4951,0.3027l-0.001,0.1924l0.4961,0.3027l-0.0014,0.1914l0.4956,0.3028l-0.001,0.1914l0.4956,0.3027
		l-0.0015,0.1924l0.4961,0.3027l-0.0014,0.1914l0.4965,0.3028l-0.0014,0.1914l0.4956,0.3027l-0.0015,0.1924l0.4956,0.3027
		l-0.001,0.1914l0.1719,0.1055l-7.6074,4.3926l-0.0444-0.0254l-0.0054-0.2178l-0.4893-0.2773l-0.0053-0.2168l-0.4893-0.2774
		l-0.0054-0.2168l-0.4892-0.2773l-0.0054-0.2178l-0.4888-0.2773l-0.0053-0.2168l-0.4893-0.2774l-0.0054-0.2177l-0.4887-0.2774
		l-0.0054-0.2168l-0.4898-0.2783l-0.0053-0.2158l-0.4888-0.2774l-0.0054-0.2177l-0.4892-0.2774l-0.0054-0.2168l-2.6533-1.5049
		l0.019,3.0918l-0.1357-0.0771l-0.0034-0.2158l-0.4912-0.2783l-0.0035-0.2168l-0.4907-0.2784l-0.0034-0.2158l-0.4917-0.2783
		l-0.0034-0.2158l-0.4907-0.2783l-0.0035-0.2168l-2.6552-1.504l-0.022,3.8448l-2.7583-1.6016l-1.8711,0.5225l0.4819,1.8877
		l0.4322,0.249l0.0625,0.2451l0.4311,0.249l0.063,0.2461l0.4321,0.2491l0.0625,0.2451l0.4322,0.249l0.0625,0.2451l0.0185,0.0108
		l-2.5029,1.4677l0.6665,0.3926l-0.1724,0.1016l0.668,0.3935l-0.1729,0.1016l0.6665,0.3926l-0.1723,0.1015l0.667,0.3936
		l-0.1724,0.1006l0.6675,0.3935l-0.1733,0.1016l0.6669,0.3935l-0.1718,0.1006l0.6674,0.3936L27.4663,43.79l0.0264,0.0157
		l-0.5215,0.2968l0.6709,0.3936l-0.1763,0.1006l0.6714,0.3945L27.96,45.0918l0.6709,0.3936l-0.1763,0.1005l0.6709,0.3936
		l-0.1763,0.1006l0.6719,0.3945l-0.1773,0.1006l0.6709,0.3935l-0.1767,0.1006l0.6719,0.3946l-0.1773,0.1006l0.6709,0.3935
		l-0.1763,0.1006l0.6709,0.3935l-0.1767,0.1006l0.6719,0.3946l-0.1773,0.1006l0.6714,0.3935l-0.1763,0.1006l0.6714,0.3945
		l-0.1772,0.1006l0.6709,0.3936l-0.1768,0.1005l0.6714,0.3936l-0.1763,0.1006l0.6709,0.3935l-0.1762,0.1006l0.6713,0.3946
		l-0.1772,0.1005l0.6709,0.3936l-0.1763,0.1006l0.4473,0.2627v3.7949l-1,0.5693L29.54,54.251l-2.6279,1.5469l0.6782,0.3857
		l-0.1836,0.1084l0.6787,0.3867l-0.1845,0.1084l0.6782,0.3858l-0.1836,0.1083l0.6782,0.3858l-0.1836,0.1084l0.6792,0.3867
		l-0.1845,0.1084l0.6777,0.3857l-0.1836,0.1084l0.6792,0.3868l-0.1846,0.1084l0.3931,0.2236l-0.7729,0.4453l-3.4258-1.9014
		l-2.625,1.542l0.6689,0.3916l-0.1743,0.1026l0.6699,0.3926l-0.1753,0.1025l0.669,0.3916l-0.1743,0.1025l0.6694,0.3926
		l-0.1753,0.1026l0.6313,0.3701l-2.0551,1.1845l-0.4864,1.878l0.5801,0.1621l-0.0859,0.332l0.581,0.1621L25,65.9697l0.5801,0.1621
		l-0.086,0.3321l0.5811,0.1621l-0.0864,0.333l0.5805,0.1621l-0.0859,0.332l0.5801,0.1621l-0.086,0.3321l0.5806,0.1621l-0.0859,0.332
		l0.5805,0.1621l-0.0859,0.333l0.5806,0.1621l-0.086,0.3321l0.5806,0.1621l-0.0864,0.333l0.581,0.1621l-0.0859,0.332l0.5806,0.1621
		l-0.0865,0.333l0.5806,0.1621l-0.0859,0.3321l0.5805,0.1621l-0.0859,0.332l0.5805,0.1621l-0.0864,0.333l0.5806,0.1621
		l-0.0859,0.3321l0.581,0.1621l-0.0864,0.333l0.5805,0.1621l-0.0859,0.332l0.5801,0.1621l-0.0859,0.3321l0.5805,0.1621
		l-0.0859,0.332l0.5805,0.1621l-0.0859,0.333l0.5801,0.1621l-0.086,0.3321l0.5811,0.1621l-0.0859,0.333l0.58,0.1621l-0.0859,0.332
		l0.5801,0.1621l-0.086,0.3321l0.5811,0.1631l-0.0859,0.332L37.4482,78l-0.0859,0.332l0.5801,0.1621l-0.086,0.3321l0.5811,0.1621
		l-0.0859,0.333l0.58,0.1621l-0.0859,0.332l0.5806,0.1621l-0.086,0.3321l0.5806,0.1621l-0.0859,0.333l0.5805,0.1621l-0.0859,0.332
		l0.5806,0.1621l-0.0865,0.333l0.5806,0.1622l-0.0859,0.332l0.581,0.1621l-0.0864,0.333l0.5806,0.1621l-0.086,0.332l0.5806,0.1622
		l-0.086,0.332l0.5806,0.1621l-0.0859,0.332l0.5801,0.1621l-0.086,0.333l0.5806,0.1622l-0.0864,0.333l0.581,0.1621l-0.0859,0.332
		l0.5801,0.1621l-0.086,0.332l0.5806,0.1621l-0.086,0.3321l0.5806,0.1621l-0.0859,0.332l0.5805,0.1621l-0.0864,0.333l0.5811,0.1621
		l-0.0865,0.3331l0.5806,0.1621l-0.0859,0.332l0.58,0.1621l-0.0859,0.332l0.5811,0.1621l-0.086,0.3331l0.5801,0.1621l-0.0859,0.332
		l0.581,0.1621l-0.0864,0.333l0.5806,0.1621l-0.086,0.3321l0.5806,0.1621l-0.0859,0.332l0.5805,0.1621l-0.0859,0.333l0.5801,0.1621
		l-0.086,0.3321l0.5811,0.1621l-0.0869,0.333l0.58,0.1621l-0.0859,0.332l0.5811,0.1621l-0.086,0.332l0.5811,0.1622l-0.086,0.332
		l0.5801,0.1621l-0.0859,0.333l0.5801,0.1621l-0.086,0.332l0.5801,0.1622l-0.0859,0.333l0.581,0.1621l-0.0859,0.332l0.5801,0.1621
		l-0.086,0.332l0.5811,0.1622l-0.086,0.333l0.5801,0.1621l-0.0859,0.332l0.5801,0.1621l-0.086,0.333l0.5811,0.1621l-0.086,0.3321
		l0.501,0.1406c20.6953-3.6055,37.0127-19.9238,40.6113-40.6221l-0.0976-0.0273L99.2314,58.2617z"/>
</g>
<path id="snowflake-4-snowflake-4" fill="#FFFFFF" d="M73.3691,58.127l-3.332,1.8603l-2.0781-1.2012l5.0703-2.8867l-2.6289-1.5449
	l-5.1983,2.8398l-0.9941-0.5722V43.3838l0.9385-0.5352l5.3144,2.8965l2.627-1.5449l-5.1758-2.9414l2.0801-1.1973l3.4355,1.9131
	l2.6289-1.5439l-3.3222-1.9434l2.7705-1.5898l0.4853-1.878l-1.8701-0.5254l-2.7217,1.5616l-0.0234-3.7364l-2.6484,1.503
	L68.665,37.626l-2.0761,1.1972l0.0341-5.8212l-2.6513,1.5058l-0.1426,5.9014l-1.0635,0.6103L51.4043,34.458v-1.165l5.1426-3.1407
	l-0.0235-3.0459l-5.1191,2.9991V27.709l3.3594-2.0137l-0.0176-3.0459l-3.3418,1.8975v-3.1865L50.0215,20l-1.3936,1.3604V24.5
	l-3.2509-1.8506l-0.0245,3.0459l3.2754,1.9629v2.3984l-5.0356-2.9502l-0.0195,3.0459l5.0551,3.087v1.2187l-11.3808,6.5713
	l-1.0157-0.585l-0.144-6.0371l-2.6533-1.5049l0.0371,5.9483l-2.0737-1.2051l-0.0616-3.9228l-2.6552-1.504l-0.022,3.8448
	l-2.7583-1.6016l-1.8711,0.5225l0.4819,1.8877l2.7159,1.5664l-3.2222,1.8896l2.6206,1.5449l3.3296-1.8564l2.0786,1.2051
	l-5.0625,2.8808l2.6289,1.543l5.1909-2.8281l1.0342,0.5967v13.1523l-1,0.5693L29.54,54.251l-2.6279,1.5469l5.1567,2.9355
	l-2.0751,1.1953l-3.4258-1.9014l-2.625,1.542l3.3149,1.9414l-2.7607,1.5918l-0.4864,1.878l1.8741,0.5234l2.7153-1.5693
	l0.0225,3.7422l2.6523-1.501l0.061-3.8174l2.0801-1.1992l-0.0371,5.8349l2.6484-1.5058l0.1465-5.9248l0.9673-0.5576l11.4556,6.6142
	v1.085l-5.1411,3.1406l0.02,3.0479l5.1211-2.9952v2.3926l-3.3599,2.0117l0.0186,3.0498l3.3413-1.9013v3.1884L49.9766,80
	l1.3955-1.3604V75.502l3.2529,1.8505l0.0156-3.0498l-3.2685-1.9629v-2.3984l5.0322,2.9522l0.0273-3.0479l-5.0595-3.0908v-0.8682
	h0.0322v-0.2529l11.418-6.5899l0.9463,0.5391l0.1435,6.0098l2.6484,1.5068l-0.0332-5.9365l2.0791,1.1973l0.0586,3.9169
	l2.6514,1.5059l0.0254-3.8408l2.7559,1.5898l1.8691-0.5107l-0.4805-1.8897l-2.7187-1.5703l3.2285-1.8935L73.3691,58.127z
	 M51.4043,37.125l9.0469,5.2207l-2.4824,1.4248l-6.5645-3.7851V37.125z M54.5215,51.0283V48.958l2.4023-1.3877v4.8496
	L54.5215,51.0283z M55.5508,54.8281l-4.1465,2.4004v-2.7734l1.748-1.0147L55.5508,54.8281z M51.4043,42.874l4.0557,2.3408
	l-2.4102,1.3819l-1.6455-0.9512V42.874z M48.6279,37.125v2.8564l-6.604,3.8145l-2.4775-1.4346L48.6279,37.125z M44.5195,45.2412
	l4.1084-2.3711v2.7754l-1.707,0.9844L44.5195,45.2412z M45.5088,49.0166v1.9199l-2.4043,1.375V47.623L45.5088,49.0166z
	 M38.1284,44.7461l2.4727,1.4326v7.5762l-2.4727,1.4189V44.7461z M48.6279,62.9766l-9.2319-5.3321l2.4868-1.4287l6.7451,3.9014
	V62.9766z M48.6279,57.2324l-4.2417-2.4551l2.4077-1.3857l1.834,1.0635V57.2324z M50.0532,52.4922l-2.1167-1.2207v-2.4453
	l2.1167-1.2207l2.1128,1.2207v2.4453L50.0532,52.4922z M51.4043,62.9766v-2.8653l6.6465-3.8349l2.4717,1.4326L51.4043,62.9766z
	 M61.9043,55.3066l-2.4805-1.4365v-7.7344l2.4805-1.4248V55.3066z"/>
</svg>
