<?xml version="1.0" encoding="utf-8"?>
<!-- Generator: Adobe Illustrator 17.1.0, SVG Export Plug-In . SVG Version: 6.00 Build 0)  -->
<!DOCTYPE svg PUBLIC "-//W3C//DTD SVG 1.1//EN" "http://www.w3.org/Graphics/SVG/1.1/DTD/svg11.dtd">
<svg version="1.1" id="snowflake-5" xmlns="http://www.w3.org/2000/svg" xmlns:xlink="http://www.w3.org/1999/xlink" x="0px"
	 y="0px" viewBox="0 0 100 100" enable-background="new 0 0 100 100" xml:space="preserve">
<circle id="snowflake-5-label" fill="#5D9CEC" cx="50" cy="50" r="50"/>
<g id="snowflake-5-shadow">
	<path fill="#4A89DC" d="M98.7402,56.3291c-0.1601-0.166-0.3261-0.3271-0.4902-0.4893c-0.1641-0.1699-0.332-0.3359-0.5-0.5019
		c-0.1611-0.166-0.3262-0.3272-0.4902-0.4893c-0.1641-0.1699-0.3321-0.3349-0.5-0.5c-0.1621-0.167-0.3282-0.33-0.4942-0.4931
		c-0.1582-0.1651-0.3222-0.3252-0.4853-0.4864c-0.1651-0.1709-0.335-0.3379-0.5049-0.5048
		c-0.1602-0.1651-0.3242-0.3262-0.4873-0.4873c-0.1651-0.1709-0.335-0.337-0.5029-0.504c-0.1602-0.164-0.3243-0.3242-0.4864-0.4863
		c-0.1621-0.167-0.3291-0.3301-0.4941-0.4941c-0.1621-0.167-0.3301-0.3301-0.4961-0.4942c-0.1621-0.1689-0.3301-0.3339-0.4981-0.499
		c-0.1611-0.167-0.3281-0.3301-0.4941-0.4932c-0.1621-0.1689-0.3301-0.333-0.4971-0.498c-0.1611-0.166-0.3252-0.3271-0.4902-0.4902
		c-0.1611-0.166-0.3252-0.3282-0.4902-0.4903c-0.1651-0.1699-0.333-0.3359-0.502-0.5019c-0.1601-0.166-0.3242-0.3262-0.4873-0.4883
		c-0.165-0.1699-0.335-0.3359-0.5039-0.5029c-0.1611-0.167-0.3262-0.3282-0.4922-0.4912c-0.1582-0.1641-0.3203-0.3233-0.4824-0.4834
		c-0.166-0.1719-0.3379-0.3399-0.5078-0.5088c-0.1612-0.166-0.3262-0.3272-0.4912-0.4903c-0.1602-0.166-0.3252-0.3271-0.4893-0.4892
		c-0.165-0.1709-0.334-0.3369-0.5039-0.5039c-0.1592-0.1651-0.3242-0.3252-0.4883-0.4873c-0.1601-0.167-0.3261-0.3291-0.4912-0.4922
		c-0.1631-0.169-0.332-0.334-0.499-0.499c-0.1621-0.167-0.3281-0.3291-0.4922-0.4922c-0.1641-0.17-0.332-0.334-0.5-0.5
		c-0.1611-0.167-0.3262-0.3282-0.4912-0.4912c-0.1611-0.167-0.3272-0.3282-0.4912-0.4913c-0.1641-0.1699-0.333-0.3349-0.502-0.5009
		c-0.1601-0.166-0.3242-0.3272-0.4883-0.4893c-0.1621-0.168-0.33-0.332-0.496-0.4961c-0.1631-0.1689-0.3301-0.333-0.4981-0.4971
		c-0.1582-0.165-0.3223-0.3251-0.4853-0.4863c-0.1651-0.1709-0.335-0.3379-0.5049-0.5049c-0.1602-0.165-0.3242-0.3261-0.4883-0.4873
		c-0.1611-0.1679-0.3272-0.33-0.4922-0.4941c-0.165-0.1699-0.335-0.3359-0.5039-0.5029c-0.1582-0.1641-0.3223-0.3243-0.4854-0.4854
		c-0.163-0.1689-0.331-0.334-0.499-0.499c-0.1621-0.168-0.3301-0.332-0.4961-0.4971c-0.1611-0.165-0.3261-0.3262-0.4902-0.4883
		c-0.1621-0.1679-0.3291-0.332-0.4951-0.4961c-0.1631-0.1689-0.3311-0.3339-0.499-0.499c-0.1602-0.166-0.3252-0.3271-0.4893-0.4892
		c-0.1641-0.17-0.333-0.335-0.501-0.501c-0.1601-0.166-0.3262-0.3272-0.4902-0.4893c-0.1602-0.167-0.3262-0.3281-0.4902-0.4912
		c-0.1631-0.1689-0.3301-0.333-0.4981-0.498c-0.1621-0.168-0.3291-0.3311-0.4961-0.4961c-0.1611-0.167-0.3271-0.3291-0.4922-0.4922
		c-0.4394-0.4551-0.8886-0.8994-1.3574-1.3262l0.002,4.8906c-0.0772-0.0234-0.1563-0.0439-0.2344-0.0673v-0.0498l-0.0576,0.0332
		c-0.1045-0.0303-0.21-0.0606-0.3145-0.0899l0.4072-0.2353c-0.1748-0.0557-0.3535-0.0996-0.5302-0.1524v-0.0498l-0.0577,0.0332
		c-0.1044-0.0303-0.2089-0.0605-0.3144-0.0898l0.4082-0.2354c-0.1748-0.0556-0.3535-0.0996-0.5303-0.1523v-0.0508l-0.0586,0.0342
		c-0.1045-0.0313-0.208-0.0606-0.3134-0.0899l0.4082-0.2353c-0.1758-0.0557-0.3545-0.0996-0.5313-0.1524v-0.0507l-0.0586,0.0341
		c-0.1035-0.0312-0.209-0.0615-0.3135-0.0908l0.4082-0.2353c-0.1748-0.0557-0.3545-0.0996-0.5302-0.1524v-0.0498l-0.0567,0.0332
		c-0.1054-0.0312-0.2109-0.0605-0.3164-0.0908l0.4082-0.2354c-0.1738-0.0546-0.3535-0.0996-0.5293-0.1523v-0.0488l-0.0566,0.0332
		c-0.1055-0.0313-0.211-0.0606-0.3154-0.0908l0.4072-0.2354c-0.1738-0.0557-0.3535-0.0996-0.5293-0.1523v-0.0498l-0.0586,0.0332
		c-0.1035-0.0303-0.209-0.0606-0.3135-0.0899l0.4072-0.2353c-0.2968-0.0938-0.6005-0.1739-0.9023-0.2588l0.4082-0.2354
		c-0.2979-0.0937-0.6016-0.1738-0.9033-0.2597l0.4082-0.2354c-0.2979-0.0937-0.6006-0.1738-0.9014-0.2588l0.4072-0.2353
		c-0.2978-0.0948-0.6015-0.1739-0.9033-0.2598l0.4082-0.2354c-0.2969-0.0937-0.6006-0.1738-0.9023-0.2587l0.4082-0.2354
		c-0.2969-0.0937-0.6006-0.1738-0.9014-0.2588l0.4072-0.2353c-0.2968-0.0938-0.6005-0.1739-0.9023-0.2588l0.4082-0.2354
		c-0.2979-0.0947-0.6016-0.1738-0.9023-0.2597l0.4072-0.2354c-0.2979-0.0947-0.6016-0.1738-0.9033-0.2598l0.4082-0.2353
		c-0.2969-0.0938-0.6006-0.1738-0.9024-0.2588l0.4082-0.2353c-0.2968-0.0938-0.6006-0.1739-0.9013-0.2588l0.4072-0.2354
		c-0.2969-0.0937-0.6006-0.1738-0.9024-0.2588l0.4082-0.2353c-0.2978-0.0938-0.6015-0.1739-0.9033-0.2598l0.4092-0.2353
		c-0.2978-0.0938-0.6016-0.1739-0.9023-0.2588l0.4062-0.2354c-0.2969-0.0937-0.6006-0.1738-0.9023-0.2598l0.4082-0.2353
		c-0.2969-0.0938-0.6006-0.1738-0.9024-0.2588l0.4082-0.2353c-1.0488-0.3321-2.1211-0.6104-3.2148-0.8291l-2.7617,1.5908V22.002
		c-0.1641-0.0059-0.3301-0.0059-0.4942-0.0098v-0.4854c-0.164-0.0058-0.3301-0.0058-0.4941-0.0097v-0.4844
		c-0.1651-0.0059-0.3301-0.0068-0.4942-0.0107v-0.4844c-0.165-0.0059-0.33-0.0059-0.4951-0.0098v-0.4844
		C50.7715,20.0098,50.3867,20,49.999,20c-0.3906,0-0.7802,0.0098-1.167,0.0234v3.2891l-4.7382-2.7314
		c-1.0928,0.2187-2.1641,0.497-3.2149,0.831l0.7373,0.4248c-0.081,0.0254-0.1631,0.0449-0.2432,0.0703l0.7364,0.4248
		c-0.0801,0.0244-0.1621,0.044-0.2412,0.0694l0.7363,0.4248c-0.0801,0.0244-0.1621,0.0439-0.2412,0.0693l0.7363,0.4248
		c-0.0801,0.0254-0.1621,0.0449-0.2422,0.0703l0.7354,0.4248c-0.0801,0.0244-0.1621,0.044-0.2412,0.0694l0.7353,0.4248
		c-0.0791,0.0244-0.1611,0.0439-0.2412,0.0693l0.7373,0.4248c-0.081,0.0254-0.1631,0.0449-0.2432,0.0703l0.7364,0.4248
		c-0.0801,0.0244-0.1621,0.044-0.2412,0.0694l0.7353,0.4248c-0.0791,0.0244-0.1611,0.0439-0.2402,0.0693l0.7363,0.4248
		c-0.0801,0.0254-0.1621,0.0449-0.2422,0.0703l0.7363,0.4248c-0.08,0.0244-0.1621,0.044-0.2421,0.0694l0.7363,0.4248
		c-0.0801,0.0244-0.1621,0.0439-0.2422,0.0693l0.7383,0.4248c-0.0811,0.0254-0.1631,0.0449-0.2432,0.0703l0.7354,0.4248
		c-0.0801,0.0244-0.1621,0.044-0.2412,0.0694l0.7373,0.4248c-0.0801,0.0254-0.1621,0.0449-0.2422,0.0703l0.5351,0.3095v0.1729
		c-0.0136,0.0039-0.0273,0.0078-0.041,0.0117l0.041,0.0235v0.3437l-7.9863-4.6055v2.6856l0.4941,0.2851v0.209l0.4942,0.2852v0.2099
		l0.4941,0.2852v0.209l0.4951,0.2851v0.209l0.4942,0.2852v0.2099l0.4951,0.2852v0.209l0.4941,0.2851v0.21l0.4942,0.2852v0.2089
		l0.4951,0.2852v0.209l0.4941,0.2851v0.21l0.4952,0.2852v0.2089l0.4941,0.2852v0.209l0.4941,0.2851v0.21l0.4952,0.2852v0.2089
		l0.4941,0.2852v0.21l0.4941,0.2851v0.209l0.0752,0.0439v0.3682l-7.9863-4.6289v2.6768l-2.3184-1.3389l0.002,1.4648l-0.2344-0.1347
		v-0.21l-0.4941-0.2852v-0.2089l-0.4942-0.2852v-0.21l-0.4951-0.2851v-0.209l-0.4941-0.2852v-0.2089l-0.4951-0.2852v-0.21
		l-0.4942-0.2851v-0.209l-2.3261-1.3428l-0.001,1.9141c-0.0791,0.0742-0.1553,0.1504-0.2334,0.2256v-0.9727
		c-0.169,0.1543-0.3281,0.3184-0.4942,0.4776v-0.9717c-0.1699,0.1543-0.3291,0.3193-0.4941,0.4775V29.793
		c-0.1699,0.1543-0.3291,0.3193-0.4951,0.4775l0.001-0.9717c-0.17,0.1543-0.3301,0.3194-0.4961,0.4776v-0.9717
		c-0.169,0.1543-0.3282,0.3183-0.4942,0.4765v-0.9707c-0.1689,0.1543-0.3281,0.3184-0.4941,0.4766v-0.9717
		c-0.8184,0.7471-1.5938,1.5381-2.3262,2.3701l-0.0019,5.4581l-2.8536-1.6456c-0.4121,0.6534-0.8007,1.3243-1.166,2.0127
		l0.585,0.3379c-0.0283,0.0537-0.0625,0.1035-0.0908,0.1573l0.5849,0.3378c-0.0283,0.0528-0.0625,0.1026-0.0908,0.1563l0.585,0.3379
		c-0.0284,0.0527-0.0616,0.1025-0.0909,0.1562l0.586,0.3379c-0.0283,0.0537-0.0625,0.1035-0.0908,0.1573l0.1552,0.0898
		l-4.0195,2.3193c-0.3516,1.043-0.6445,2.1104-0.8818,3.1973l0.7177-0.415c-0.0752,0.3027-0.1562,0.6035-0.2236,0.9091l0.7197-0.415
		c-0.0761,0.3027-0.1582,0.6035-0.2246,0.9092l0.7188-0.4151c-0.0762,0.3028-0.1582,0.6036-0.2246,0.9102l0.7187-0.415
		c-0.0762,0.3027-0.1582,0.6035-0.2246,0.9101l0.7188-0.415c-0.0752,0.3027-0.1573,0.6035-0.2237,0.9092l0.7178-0.4151
		c-0.0752,0.3028-0.1572,0.6035-0.2236,0.9092l0.7197-0.415c-0.0762,0.3027-0.1582,0.6035-0.2246,0.9101l0.7178-0.415
		c-0.0752,0.3027-0.1573,0.6035-0.2237,0.9092l0.7188-0.4151c-0.0762,0.3028-0.1582,0.6035-0.2246,0.9092l0.7187-0.415
		c-0.0752,0.3027-0.1572,0.6035-0.2236,0.9101l0.7178-0.415c-0.0752,0.3027-0.1573,0.6035-0.2237,0.9092l0.7178-0.4151
		c-0.0752,0.3028-0.1563,0.6035-0.2236,0.9092l0.7197-0.416c-0.0762,0.3037-0.1582,0.6045-0.2246,0.9111l0.7187-0.415
		c-0.0761,0.3027-0.1582,0.6035-0.2246,0.9092l0.7188-0.4151c-0.0752,0.3027-0.1573,0.6035-0.2237,0.9102l0.7178-0.4151
		c-0.0752,0.3028-0.1572,0.6035-0.2236,0.9092l0.7178-0.415c-0.0752,0.3027-0.1563,0.6035-0.2237,0.9092l0.7197-0.4151
		c-0.0761,0.3027-0.1582,0.6035-0.2246,0.9102l0.7188-0.4151c-0.0762,0.3028-0.1582,0.6035-0.2246,0.9092l0.7187-0.415
		c-0.0761,0.3027-0.1582,0.6035-0.2246,0.9101l0.7188-0.415c-0.0752,0.3027-0.1563,0.6035-0.2237,0.9092l0.7178-0.4151
		c-0.0752,0.3028-0.1562,0.6035-0.2236,0.9092l0.7187-0.415c-0.0752,0.3027-0.1572,0.6035-0.2236,0.9091l0.7187-0.415
		c-0.0761,0.3027-0.1582,0.6035-0.2246,0.9102l0.7188-0.4151c-0.0762,0.3028-0.1582,0.6035-0.2246,0.9092l0.7187-0.415
		c-0.0752,0.3027-0.1572,0.6035-0.2236,0.9101l0.7178-0.415c-0.0752,0.3027-0.1573,0.6035-0.2237,0.9092l0.7178-0.4151
		c-0.0752,0.3028-0.1562,0.6045-0.2236,0.9102l0.7187-0.4151c-0.0127,0.0518-0.0263,0.1045-0.0381,0.1563l-1.0527,0.6074
		l-7.9805-4.6133l-2.3252,1.3418l0.6748,0.3897l-0.1796,0.1045l0.6748,0.3906l-0.1807,0.1045l0.6738,0.3896l-0.1797,0.1045
		l0.6748,0.3897l-0.1806,0.1045l0.6758,0.3906l-0.1817,0.1045L27,57.3818l-0.1807,0.1045l0.6748,0.3907l-0.1796,0.1035
		l0.6757,0.3906l-0.1816,0.1045l0.6748,0.3896l-0.1807,0.1045l0.6758,0.3907l-0.1806,0.1044l0.6748,0.3897L29.292,59.959
		l0.5557,0.3213l-1.211,0.6992l-7.956-4.5957c0.2353,1.0859,0.5293,2.1543,0.8779,3.1924l0.418,0.2412
		c0.0273,0.084,0.0488,0.1699,0.0761,0.2529l0.417,0.2412c0.0274,0.084,0.0498,0.1699,0.0772,0.2539l0.4179,0.2412
		c0.0274,0.084,0.0489,0.17,0.0772,0.253l0.417,0.2412c0.0273,0.084,0.0498,0.1699,0.0781,0.2529l0.416,0.2412
		c0.0274,0.084,0.0508,0.1699,0.0782,0.2539l0.4169,0.2412c0.0274,0.083,0.0498,0.17,0.0772,0.253l0.417,0.2412
		c0.0273,0.084,0.0498,0.1709,0.0771,0.2539l0.0264,0.0146l-1.5977,0.9219c0.3623,0.6895,0.7491,1.3604,1.1631,2.0137l0.1563-0.0908
		c0.1162,0.1933,0.2178,0.3955,0.3379,0.5849l0.1572-0.0908c0.1162,0.1934,0.2178,0.3955,0.3379,0.585l0.1562-0.0899
		c0.1162,0.1924,0.2178,0.3955,0.3379,0.585l0.1573-0.0908c0.1152,0.1933,0.2168,0.3964,0.3378,0.5859l0.1563-0.0908
		c0.1152,0.1933,0.2178,0.3955,0.3379,0.5849l0.1562-0.0898c0.0801,0.1328,0.1524,0.2725,0.2344,0.4053v1.0371
		c0.4717,0.5361,0.9678,1.0498,1.4746,1.5508c0.1621,0.1669,0.3281,0.33,0.4932,0.4931c0.1631,0.1699,0.332,0.334,0.499,0.5
		c0.1621,0.167,0.3281,0.3291,0.4932,0.4922c0.1601,0.166,0.3252,0.3262,0.4883,0.4883c0.165,0.1709,0.3339,0.3359,0.5029,0.5029
		c0.1582,0.1641,0.3222,0.3242,0.4844,0.4854c0.165,0.1699,0.3349,0.3359,0.5039,0.5029c0.1621,0.168,0.3291,0.3311,0.4951,0.4951
		c0.1582,0.1641,0.3213,0.3223,0.4834,0.4824c0.165,0.1719,0.3349,0.3379,0.5039,0.5059c0.1621,0.167,0.3281,0.3281,0.4922,0.4912
		c0.1611,0.167,0.3261,0.3281,0.4912,0.4912c0.164,0.1699,0.333,0.335,0.501,0.502c0.1601,0.165,0.3242,0.3252,0.4873,0.4863
		c0.164,0.1699,0.333,0.335,0.5009,0.501c0.1622,0.1679,0.3282,0.331,0.4942,0.4951c0.1601,0.165,0.3242,0.3242,0.4863,0.4863
		c0.165,0.1699,0.335,0.336,0.5039,0.503c0.1621,0.1679,0.3301,0.331,0.4961,0.4951c0.1582,0.164,0.3213,0.3232,0.4834,0.4843
		c0.165,0.1719,0.3359,0.3379,0.5049,0.5059c0.1592,0.1641,0.3223,0.3232,0.4853,0.4844c0.1631,0.1689,0.3311,0.333,0.4991,0.499
		c0.1631,0.1689,0.332,0.333,0.499,0.499c0.1582,0.1641,0.3213,0.3223,0.4834,0.4834c0.166,0.1719,0.3359,0.3389,0.5068,0.5069
		c0.1612,0.1679,0.3281,0.33,0.4932,0.4931c0.1601,0.1651,0.3242,0.3252,0.4873,0.4873c0.1631,0.169,0.332,0.334,0.499,0.4991
		c0.1602,0.166,0.3252,0.3271,0.4893,0.4892c0.164,0.1699,0.333,0.335,0.501,0.501c0.1621,0.168,0.33,0.331,0.496,0.4961
		c0.1582,0.164,0.3223,0.3232,0.4844,0.4844c0.1641,0.1699,0.333,0.3349,0.5,0.5009c0.1641,0.169,0.3321,0.3321,0.4981,0.4971
		c0.1582,0.1641,0.3222,0.3232,0.4843,0.4834c0.1651,0.1719,0.335,0.3379,0.5039,0.5049c0.1592,0.165,0.3223,0.3252,0.4864,0.4863
		c0.166,0.1719,0.3369,0.3389,0.5078,0.5078c0.1601,0.166,0.3262,0.3272,0.4902,0.4903c0.1582,0.164,0.3213,0.3222,0.4824,0.4824
		c0.167,0.1728,0.3379,0.3398,0.5088,0.5088c0.1602,0.166,0.3252,0.3271,0.4893,0.4892c0.1621,0.167,0.3281,0.3291,0.4922,0.4922
		c0.164,0.1709,0.334,0.336,0.5019,0.502c0.1602,0.165,0.3243,0.3261,0.4883,0.4873c0.1611,0.1679,0.3281,0.331,0.4932,0.4941
		c0.1631,0.169,0.3301,0.332,0.497,0.4961c0.1622,0.169,0.3301,0.333,0.4971,0.4981c0.1612,0.1669,0.3272,0.3291,0.4922,0.4921
		C53.8359,96.2559,54,96.417,54.165,96.5801c0.1621,0.1679,0.3291,0.331,0.4952,0.4961c0.166,0.1709,0.3359,0.3359,0.5039,0.5029
		c0.1591,0.165,0.3232,0.3252,0.4863,0.4854c0.1621,0.1689,0.3291,0.332,0.4961,0.496c0.1621,0.17,0.3301,0.334,0.498,0.4991
		c0.1416,0.1474,0.2871,0.289,0.4326,0.4326c21.9463-3.1113,39.3018-20.4658,42.4141-42.4121
		c-0.0869-0.086-0.1709-0.1729-0.2588-0.2578C99.0713,56.6543,98.9053,56.4922,98.7402,56.3291z M70.1895,33.0518
		c-0.0372-0.0108-0.0743-0.0225-0.1133-0.0332l0.1133-0.0645V33.0518z"/>
</g>
<path id="snowflake-5-snowflake-5" fill="#FFFFFF" d="M49.9941,40.8984l7.8789,4.5469v9.0938l-7.8789,4.5498l-7.8759-4.5498v-9.0938
	L49.9941,40.8984z M44.4424,46.7842v6.4131l5.5517,3.206l5.5538-3.206v-6.4151l-5.5538-3.2051L44.4424,46.7842z M79.3184,56.3779
	l-7.9629,4.6016l-3.1973-1.8477l7.9805-4.6123l-2.3242-1.3437l-7.9844,4.6152l-3.2207-1.8603l8.0029-4.6006l-2.3193-1.3389
	l2.3193-1.3389l-8.0029-4.6015l3.2207-1.8584l7.9844,4.6123l2.3242-1.3428l-7.9805-4.6152l3.1953-1.8457l7.961,4.6015
	c-0.2383-1.0898-0.5332-2.1572-0.8838-3.1982l-4.751-2.7432l2.8613-1.6523c-0.3623-0.6885-0.7519-1.3604-1.166-2.0137
	l-2.8594,1.6485v-5.4659c-0.7324-0.831-1.5078-1.623-2.3281-2.3701l0.0039,9.1797l-3.1973,1.8457l-0.0058-9.2187l-2.3252,1.3437
	l0.0049,9.2158l-3.2207,1.8614l0.0156-9.2305l-2.3203,1.3389v-2.6768l-7.9854,4.6289V32.377l7.9854-4.6055v-2.6856l-7.9854,4.6055
	V26l7.9541-4.5898c-1.0488-0.3321-2.1211-0.6104-3.2148-0.8291l-4.7393,2.7314v-3.2891C50.7715,20.0098,50.3867,20,49.999,20
	c-0.3906,0-0.7802,0.0098-1.167,0.0234v3.2891l-4.7382-2.7314c-1.0928,0.2187-2.1641,0.497-3.2149,0.831L48.832,26v3.6914
	l-7.9863-4.6055v2.6856l7.9863,4.6055v3.7187l-7.9863-4.6289v2.6768l-2.3184-1.3389l0.0157,9.2305l-3.2207-1.8614l0.0058-9.2158
	l-2.3261-1.3428l-0.004,9.2178l-3.1992-1.8457l0.002-9.1719c-0.8184,0.7471-1.5938,1.5381-2.3262,2.3701l-0.0019,5.4581
	l-2.8536-1.6456c-0.4121,0.6534-0.8007,1.3243-1.166,2.0127l2.8574,1.6504l-4.7441,2.7373
	c-0.3516,1.043-0.6445,2.1104-0.8818,3.1973l7.9521-4.5947l3.1973,1.8486l-7.9815,4.6123l2.3252,1.3428l7.9805-4.6123l3.2236,1.8584
	l-8.0048,4.6015l2.3203,1.3389l-2.3203,1.3389l8.0048,4.6006l-3.2236,1.8603l-7.9805-4.6133l-2.3252,1.3418l7.9815,4.6123
	l-3.1973,1.8477l-7.956-4.5957c0.2353,1.0859,0.5293,2.1543,0.8779,3.1924l4.7519,2.747l-2.8623,1.6514
	c0.3623,0.6895,0.7491,1.3604,1.1631,2.0137l2.8614-1.6514l0.0019,5.4766c0.7324,0.833,1.5078,1.626,2.3262,2.373l-0.002-9.1914
	l3.1992-1.8467l0.004,9.2188l2.3261-1.3428l-0.0058-9.2187l3.2207-1.8594l-0.0157,9.2295l2.3184-1.3379v2.6758l7.9863-4.627v3.7188
	L40.8457,72.21v2.6855l7.9863-4.6045v3.6904l-7.9726,4.5997c1.0469,0.3359,2.1201,0.6152,3.2129,0.8339l4.7597-2.7441v3.3057
	C49.2188,79.9912,49.6084,80,49.999,80c0.3877,0,0.7725-0.0088,1.1582-0.0234v-3.3057l4.7627,2.7451
	c1.0928-0.2197,2.1641-0.499,3.2119-0.833l-7.9746-4.6016V70.291l7.9854,4.6045V72.21l-7.9854-4.6045v-3.7188l7.9854,4.627v-2.6758
	l2.3203,1.3379l-0.0156-9.2295l3.2226,1.8594l-0.0058,9.2187l2.3242,1.3428l0.0058-9.2188l3.1973,1.8467l-0.0039,9.1953
	c0.8203-0.7451,1.5957-1.5361,2.3281-2.3672v-5.4863l2.8682,1.6543c0.415-0.6543,0.8017-1.3262,1.1631-2.0137l-2.8672-1.6543
	l4.7598-2.75C78.7871,58.5322,79.082,57.4658,79.3184,56.3779z M59.1094,55.252l0.0176,7.8886l-2.3106-1.332v2.665l-6.8223-3.958
	l-6.8222,3.958v-2.665l-2.3076,1.332l0.0146-7.8886l-6.8379-3.9288l2.3086-1.332l-2.3086-1.334l6.8379-3.9287l-0.0146-7.8887
	l2.3076,1.335v-2.668l6.8222,3.96l6.8223-3.96v2.668l2.3106-1.335l-0.0176,7.8887l6.8408,3.9287l-2.3086,1.334l2.3086,1.332
	L59.1094,55.252z"/>
</svg>
