<?xml version="1.0" encoding="utf-8"?>
<!-- Generator: Adobe Illustrator 17.1.0, SVG Export Plug-In . SVG Version: 6.00 Build 0)  -->
<!DOCTYPE svg PUBLIC "-//W3C//DTD SVG 1.1//EN" "http://www.w3.org/Graphics/SVG/1.1/DTD/svg11.dtd">
<svg version="1.1" id="snowman" xmlns="http://www.w3.org/2000/svg" xmlns:xlink="http://www.w3.org/1999/xlink" x="0px" y="0px"
	 viewBox="0 0 100 100" enable-background="new 0 0 100 100" xml:space="preserve">
<g id="snowman-label">
	<circle id="snowman-label_1_" fill="#AC92EC" cx="50" cy="50" r="50"/>
</g>
<path id="snowman-shadow" fill="#967ADC" d="M99.875,48.3784c0.0303,0.0195,0.0566,0.0459,0.0859,0.0679
	C99.9766,48.9639,100,49.479,100,50c0,3.7637-0.4297,7.4258-1.2187,10.9512c-0.0137-0.0196-0.0372-0.0293-0.0508-0.0508
	c-0.1465-0.0957-0.2715-0.2158-0.3731-0.3721c-0.1445-0.0947-0.2705-0.2158-0.3711-0.3721
	c-0.1455-0.0937-0.2715-0.2148-0.3711-0.371c-0.1464-0.0957-0.2734-0.2159-0.373-0.3731c-0.1465-0.0947-0.2715-0.2148-0.3721-0.3711
	c-0.1455-0.0957-0.2715-0.2158-0.3711-0.3721c-0.1465-0.0947-0.2724-0.2158-0.373-0.372c-0.1455-0.0957-0.2725-0.2158-0.3721-0.3731
	c-0.1465-0.0937-0.2715-0.2148-0.3711-0.3711c-0.1465-0.0947-0.2715-0.2148-0.3711-0.3711c-0.1465-0.0957-0.2734-0.2168-0.373-0.373
	c-0.1465-0.0947-0.2715-0.2158-0.3711-0.3721c-0.1465-0.0947-0.2715-0.2148-0.3711-0.3701
	c-0.1465-0.0947-0.2735-0.2158-0.3731-0.373c-0.1464-0.0948-0.2734-0.2149-0.373-0.3721c-0.1465-0.0947-0.2715-0.2158-0.3711-0.3721
	c-0.1465-0.0957-0.2715-0.2158-0.3711-0.3711c-0.1465-0.0957-0.2725-0.2158-0.373-0.373c-0.1456-0.0938-0.2715-0.2149-0.3711-0.3711
	c-0.1465-0.0947-0.2715-0.2149-0.3721-0.3711c-0.1455-0.0957-0.2725-0.2168-0.3721-0.3731
	c-0.1465-0.0957-0.2715-0.2158-0.3711-0.372c-0.1465-0.0948-0.2724-0.2158-0.373-0.3721c-0.1445-0.0937-0.2695-0.2148-0.3701-0.3701
	c-0.1475-0.0947-0.2735-0.2158-0.3741-0.3721c-0.1455-0.0957-0.2714-0.2168-0.3711-0.373c-0.1464-0.0948-0.2724-0.2149-0.373-0.3721
	c-0.1465-0.0952-0.2715-0.2158-0.3721-0.3721c-0.1455-0.0952-0.2705-0.2153-0.3711-0.3716
	c-0.1455-0.0947-0.2705-0.2153-0.3701-0.371c-0.1465-0.0948-0.2724-0.2154-0.373-0.3721c-0.1465-0.0947-0.2725-0.2158-0.3731-0.3726
	c-0.1455-0.0952-0.2715-0.2158-0.3711-0.372c-0.1465-0.0948-0.2715-0.2154-0.372-0.3716c-0.1455-0.0948-0.2715-0.2158-0.3721-0.3721
	c-0.1455-0.0947-0.2715-0.2153-0.3711-0.3716c-0.1465-0.0947-0.2715-0.2153-0.3721-0.3721
	c-0.1455-0.0947-0.2724-0.2153-0.372-0.3715c-0.1465-0.0952-0.2715-0.2159-0.3731-0.3726
	c-0.1445-0.0952-0.2705-0.2158-0.3711-0.3716c-0.1455-0.0947-0.2715-0.2158-0.3711-0.372c-0.1465-0.0948-0.2734-0.2159-0.373-0.3721
	c-0.1455-0.0947-0.2715-0.2149-0.3711-0.3711c-0.1465-0.0947-0.2715-0.2158-0.3731-0.3726
	c-0.1445-0.0952-0.2705-0.2153-0.3701-0.3715c-0.1465-0.0948-0.2724-0.2154-0.373-0.3721
	c-0.1455-0.0947-0.2715-0.2154-0.3721-0.3716c-0.1445-0.0952-0.2715-0.2153-0.3711-0.3716
	c-0.1465-0.0947-0.2725-0.2158-0.373-0.3721c-0.1455-0.0952-0.2715-0.2158-0.3721-0.3725
	c-0.1455-0.0947-0.2705-0.2153-0.3711-0.3716c-0.1455-0.0952-0.2725-0.2158-0.3721-0.3721
	c-0.1465-0.0952-0.2715-0.2158-0.3711-0.3715c-0.1465-0.0948-0.2715-0.2154-0.372-0.3716
	c-0.1455-0.0948-0.2725-0.2158-0.3721-0.3726c-0.1465-0.0947-0.2715-0.2153-0.3721-0.3716
	c-0.1455-0.0947-0.2724-0.2158-0.372-0.3725c-0.1456-0.0948-0.2715-0.2154-0.3711-0.3711
	c-0.1465-0.0952-0.2725-0.2158-0.3731-0.3726c-0.1455-0.0947-0.2715-0.2153-0.3721-0.3721
	c-0.1455-0.0947-0.2705-0.2158-0.3711-0.3715c-0.1455-0.0948-0.2714-0.2154-0.372-0.3721
	c-0.1455-0.0947-0.2715-0.2153-0.3711-0.3716c-0.1465-0.0947-0.2715-0.2153-0.3711-0.3716
	c-0.1465-0.0947-0.2734-0.2153-0.3731-0.3725c-0.1464-0.0948-0.2724-0.2154-0.373-0.3711
	c-0.1465-0.0952-0.2715-0.2163-0.3721-0.3726c-0.1455-0.0952-0.2705-0.2153-0.3711-0.372c-0.1455-0.0948-0.2724-0.2154-0.372-0.3716
	c-0.1465-0.0948-0.2715-0.2159-0.3731-0.3721c-0.1445-0.0947-0.2705-0.2153-0.3711-0.3716
	c-0.1445-0.0947-0.2705-0.2153-0.3711-0.3716c-0.1455-0.0947-0.2715-0.2153-0.3711-0.3711
	c-0.164-0.1049-0.3066-0.2348-0.4111-0.4179c-0.1807-0.2984-0.2197-0.6211-0.1338-0.9419c0.0859-0.3247,0.2852-0.5801,0.5879-0.7525
	c0.291-0.1714,0.6191-0.2153,0.9355-0.123c0.1875,0.0464,0.3399,0.124,0.4766,0.2349l0.1699-0.0992
	c-0.0527-0.0542-0.1015-0.1123-0.1425-0.1753c-0.1563-0.1025-0.2774-0.2285-0.3731-0.373c-0.1562-0.1021-0.2773-0.228-0.3711-0.3726
	c-0.1562-0.1015-0.2773-0.2265-0.3711-0.3701c-0.1572-0.102-0.2793-0.2285-0.373-0.373c-0.2705-0.1729-0.459-0.4034-0.5391-0.7085
	c-0.0859-0.3267-0.0469-0.6343,0.1338-0.9453c0.1748-0.3018,0.4287-0.4971,0.7529-0.5787c0.3252-0.0922,0.6367-0.0512,0.9414,0.1226
	c0.1836,0.106,0.3106,0.2481,0.4131,0.4082c0.1592,0.1001,0.2783,0.2256,0.3701,0.3701c0.1602,0.1001,0.2803,0.2271,0.3731,0.3726
	c0.1592,0.1001,0.2793,0.2261,0.3711,0.3711c0.1601,0.1006,0.2803,0.227,0.372,0.3725c0.1241,0.0777,0.2295,0.1661,0.3125,0.2701
	v-1.6456c-0.0302-0.0249-0.0615-0.0439-0.0898-0.0727c-0.0557-0.0532-0.083-0.1206-0.126-0.1802
	c-0.0859-0.0517-0.1679-0.1138-0.2461-0.1919c-0.2451-0.2324-0.3672-0.5302-0.3672-0.8774c0-0.3384,0.1221-0.6333,0.3672-0.8765
	c0.2422-0.2402,0.5391-0.3623,0.877-0.3623c0.3496,0,0.6426,0.1216,0.8818,0.3623c0.0674,0.0674,0.1035,0.148,0.1533,0.2232
	c0.0733,0.0478,0.1524,0.083,0.2188,0.1484c0.0684,0.0679,0.1035,0.1484,0.1523,0.2236c0.0743,0.0479,0.1543,0.083,0.2188,0.1485
	c0.0683,0.0678,0.1035,0.1484,0.1533,0.2236c0.0733,0.0479,0.1533,0.0825,0.2197,0.1484c0.0664,0.0674,0.1036,0.148,0.1524,0.2227
	c0.0732,0.0483,0.1533,0.0835,0.2187,0.1494c0.0684,0.0674,0.1035,0.148,0.1524,0.2232c0.0156,0.0097,0.0312,0.02,0.0468,0.0307
	c0.0264-0.0185,0.043-0.0449,0.0713-0.062c0.293-0.1738,0.6143-0.2148,0.9405-0.1226c0.3154,0.0811,0.5468,0.2618,0.7187,0.5386
	c0.1465,0.0928,0.2715,0.2124,0.3731,0.3721c0.1445,0.0928,0.2695,0.2124,0.3701,0.3711c0.1455,0.0923,0.2724,0.2124,0.3721,0.3725
	c0.1464,0.0928,0.2714,0.2129,0.373,0.3726c0.1445,0.0923,0.2695,0.2119,0.3711,0.3706c0.1445,0.0928,0.2715,0.2129,0.3721,0.3726
	c0.1455,0.0923,0.2724,0.2124,0.372,0.372c0.1446,0.0923,0.2715,0.2124,0.3711,0.3716c0.1465,0.0923,0.2715,0.2124,0.3731,0.3716
	c0.1445,0.0933,0.2715,0.2134,0.373,0.373c0.1436,0.0923,0.2696,0.212,0.3692,0.3707c0.1464,0.0927,0.2724,0.2128,0.373,0.3725
	c0.1455,0.0928,0.2715,0.2124,0.3731,0.3721c0.1445,0.0928,0.2695,0.2124,0.3701,0.3716c0.1455,0.0922,0.2705,0.2119,0.372,0.3711
	c0.1446,0.0927,0.2715,0.2128,0.3731,0.3725c0.1445,0.0928,0.2695,0.2129,0.3711,0.3716c0.1445,0.0928,0.2715,0.2129,0.3721,0.3721
	c0.1455,0.0927,0.2724,0.2129,0.372,0.3725c0.1455,0.0928,0.2715,0.2124,0.3711,0.3716c0.1465,0.0923,0.2715,0.2124,0.3731,0.3721
	c0.1445,0.0923,0.2714,0.2124,0.3711,0.3716c0.1455,0.0927,0.2714,0.2129,0.3711,0.3715c0.1464,0.0928,0.2724,0.2129,0.373,0.3726
	c0.1455,0.0923,0.2715,0.2124,0.3711,0.3716c0.1465,0.0928,0.2715,0.2129,0.373,0.3721c0.1446,0.0927,0.2696,0.2124,0.3711,0.3715
	c0.1446,0.0928,0.2715,0.2124,0.3721,0.3721c0.1455,0.0928,0.2725,0.2129,0.373,0.3726c0.1456,0.0927,0.2706,0.2124,0.3711,0.3715
	c0.1456,0.0923,0.2706,0.2125,0.3721,0.3716c0.1445,0.0928,0.2715,0.2124,0.3711,0.3716c0.1455,0.0928,0.2715,0.2129,0.3731,0.3721
	c0.1445,0.0928,0.2705,0.2124,0.371,0.3721c0.1465,0.0927,0.2715,0.2128,0.3731,0.3725c0.1445,0.0928,0.2705,0.2124,0.3711,0.3711
	c0.1455,0.0933,0.2715,0.2129,0.373,0.3731c0.1446,0.0927,0.2696,0.2124,0.3702,0.371c0.1455,0.0923,0.2705,0.2124,0.372,0.3711
	c0.1446,0.0928,0.2715,0.2129,0.3721,0.3726c0.1455,0.0928,0.2725,0.2129,0.373,0.3726c0.1455,0.0927,0.2705,0.2124,0.3711,0.3715
	c0.1455,0.0923,0.2705,0.212,0.3711,0.3706c0.1455,0.0928,0.2725,0.2129,0.3721,0.3731c0.1455,0.0923,0.2715,0.2124,0.3711,0.3711
	c0.1465,0.0928,0.2725,0.2129,0.373,0.3725c0.1465,0.0928,0.2725,0.2129,0.3731,0.3726c0.1445,0.0928,0.2705,0.2124,0.3711,0.3711
	c0.1455,0.0928,0.2715,0.2129,0.373,0.373c0.1446,0.0923,0.2696,0.212,0.3692,0.3702c0.1465,0.0927,0.2715,0.2129,0.373,0.3725
	c0.1455,0.0928,0.2715,0.2124,0.3721,0.3721c0.1455,0.0928,0.2724,0.2129,0.373,0.3725
	C99.6484,48.0991,99.7734,48.2192,99.875,48.3784z M97.5049,62.9687c-0.1192-0.1367-0.2422-0.2617-0.3701-0.371
	c-0.1192-0.1368-0.2432-0.2618-0.3721-0.3731c-0.1201-0.1357-0.2432-0.2617-0.374-0.373c-0.1192-0.1358-0.2422-0.2618-0.3721-0.3711
	c-0.1191-0.1368-0.2422-0.2618-0.3711-0.3711c-0.1191-0.1367-0.2432-0.2617-0.3721-0.3731
	c-0.1191-0.1347-0.2421-0.2607-0.3711-0.3711c-0.1191-0.1367-0.2421-0.2617-0.372-0.372c-0.1192-0.1358-0.2432-0.2608-0.3721-0.3721
	c-0.1191-0.1367-0.2441-0.2627-0.373-0.3731c-0.1192-0.1367-0.2422-0.2617-0.3711-0.371c-0.1192-0.1348-0.2422-0.2598-0.3711-0.3702
	c-0.1192-0.1367-0.2432-0.2627-0.3731-0.373c-0.1191-0.1358-0.2422-0.2617-0.3711-0.3721
	c-0.1191-0.1367-0.2422-0.2617-0.3711-0.3711c-0.1211-0.1367-0.2441-0.2636-0.375-0.374c-0.1191-0.1357-0.2412-0.2607-0.3691-0.3701
	c-0.1201-0.1367-0.2441-0.2617-0.3731-0.3731c-0.1191-0.1357-0.2431-0.2617-0.373-0.3711
	c-0.1182-0.1367-0.2402-0.2617-0.3691-0.3711c-0.1192-0.1367-0.2442-0.2626-0.3731-0.373c-0.1191-0.1367-0.2432-0.2617-0.373-0.3721
	c-0.1192-0.1357-0.2422-0.2607-0.3711-0.372c-0.1192-0.1348-0.2422-0.2598-0.3701-0.3702c-0.1202-0.1377-0.2452-0.2636-0.3741-0.374
	c-0.1191-0.1357-0.2422-0.2607-0.3711-0.3711c-0.1191-0.1357-0.2431-0.2617-0.373-0.372c-0.1191-0.1358-0.2422-0.2608-0.3711-0.3721
	c-0.1191-0.1358-0.2422-0.2617-0.3711-0.3711c-0.1191-0.1367-0.2432-0.2617-0.373-0.3721c-0.1192-0.1357-0.2422-0.2617-0.3711-0.372
	c-0.1192-0.1368-0.2432-0.2618-0.3731-0.3731c-0.1191-0.1352-0.2422-0.2607-0.3711-0.3706c-0.1191-0.1367-0.2441-0.2622-0.373-0.373
	c-0.1192-0.1353-0.2422-0.2603-0.3701-0.3702c-0.1202-0.1362-0.2432-0.2622-0.3721-0.3725
	c-0.1192-0.1363-0.2432-0.2617-0.3731-0.3721c-0.1191-0.1362-0.2421-0.2617-0.3711-0.3716c-0.1191-0.1362-0.2421-0.2617-0.371-0.372
	c-0.1211-0.1363-0.2442-0.2623-0.3731-0.3726c-0.1191-0.1357-0.2422-0.2612-0.3711-0.3711
	c-0.1191-0.1362-0.2432-0.2617-0.373-0.3721c-0.1192-0.1362-0.2422-0.2617-0.3711-0.372c-0.1192-0.1363-0.2432-0.2613-0.3721-0.3716
	c-0.1191-0.1363-0.2422-0.2617-0.3711-0.3716c-0.1201-0.1372-0.2451-0.2632-0.374-0.374c-0.1192-0.1353-0.2422-0.2598-0.3692-0.3692
	c-0.1201-0.1367-0.2441-0.2627-0.373-0.373c-0.1191-0.1362-0.2432-0.2617-0.3721-0.3721c-0.1201-0.1362-0.2431-0.2617-0.372-0.3721
	c-0.7168-0.8164-1.6114-1.1694-2.6114-1.0268c-0.0869-0.085-0.1718-0.1719-0.2597-0.2549c-0.1231-0.123-0.2422-0.25-0.3692-0.3682
	c-0.125-0.1254-0.2461-0.2548-0.375-0.3754c-0.123-0.1246-0.2441-0.2525-0.372-0.3721c-0.1231-0.1235-0.2422-0.2505-0.3692-0.3692
	c-0.125-0.1259-0.2471-0.2553-0.376-0.3759c-0.123-0.1236-0.2422-0.25-0.3691-0.3687c-0.1231-0.1245-0.2441-0.2529-0.3731-0.3725
	c-0.123-0.1241-0.2421-0.2515-0.3691-0.3706c-0.125-0.125-0.2461-0.254-0.375-0.3746c-0.125-0.125-0.2461-0.2534-0.374-0.374
	c-0.1221-0.1225-0.2412-0.249-0.3672-0.3672c-0.124-0.125-0.2451-0.2534-0.374-0.374c-0.1231-0.123-0.2422-0.2505-0.3692-0.3691
	c-0.125-0.125-0.2461-0.2539-0.374-0.3741c-0.124-0.125-0.2451-0.2529-0.373-0.373c-0.1231-0.1235-0.2432-0.2505-0.3692-0.3696
	c-0.124-0.125-0.2451-0.2535-0.374-0.3736c-0.123-0.1245-0.2441-0.2524-0.3721-0.372c-0.124-0.1246-0.2451-0.2525-0.372-0.3726
	c-0.1231-0.123-0.2432-0.2505-0.3692-0.3691c-0.125-0.1246-0.2441-0.2525-0.373-0.3721c-0.125-0.126-0.2461-0.2549-0.375-0.3755
	c-0.1231-0.124-0.2442-0.251-0.3711-0.3701c-0.1231-0.1235-0.2422-0.2505-0.3682-0.3687c-0.124-0.1255-0.2461-0.2544-0.374-0.375
	c-0.124-0.124-0.2442-0.2514-0.3711-0.3706c-0.125-0.125-0.2461-0.2534-0.3731-0.3735c-0.123-0.1235-0.2421-0.2505-0.3691-0.3696
	c-0.126-0.1255-0.248-0.2549-0.3769-0.376c-0.1231-0.1231-0.2422-0.25-0.3692-0.3687c-0.123-0.1245-0.2441-0.2524-0.3711-0.3725
	c-0.125-0.1245-0.2451-0.2525-0.373-0.3721c-0.1231-0.124-0.2432-0.2515-0.3711-0.3706c-0.125-0.1255-0.2461-0.2549-0.375-0.3755
	c-0.1231-0.123-0.2422-0.2495-0.3682-0.3682c-0.124-0.1254-0.2451-0.2539-0.374-0.3745c-0.1231-0.1235-0.2441-0.2509-0.3711-0.3701
	c-0.123-0.124-0.2441-0.2519-0.3711-0.3716c-0.125-0.125-0.2451-0.2529-0.373-0.373c-0.1231-0.1245-0.2442-0.252-0.3711-0.3716
	c-0.125-0.1245-0.2461-0.2529-0.3731-0.373c-0.124-0.1241-0.2441-0.2515-0.3711-0.3711c-0.124-0.1241-0.2441-0.252-0.372-0.3716
	c-0.1241-0.1245-0.2442-0.2525-0.3721-0.3716c-2.4922-2.501-5.7461-4.0811-9.3399-4.229c0.2295,0.1729,0.4454,0.4829,0.5293,1.0469
	l0.0098,0.0385c0.0293,0.1807,0.0703,0.3965,0.1182,0.6275c-0.0459-0.0278-0.0909-0.0567-0.1553-0.0557
	c-0.0039,0-0.0059,0.0034-0.0088,0.0034c-0.0508-0.1884-0.1436-0.3784-0.3643-0.3754c-0.0029,0-0.0039,0.0034-0.0078,0.0034
	c-0.0507-0.188-0.1445-0.378-0.3632-0.375c-0.003,0-0.004,0.0029-0.0079,0.0034c-0.0507-0.188-0.1445-0.3774-0.3642-0.3755
	c-0.1338,0.0024-0.21,0.1187-0.2578,0.2495c-0.0909,0.0073-0.1817,0.0186-0.2725,0.0278c0.0918-0.2021,0.2031-0.3486,0.3252-0.4428
	c-0.2353,0.0112-0.4658,0.0478-0.6982,0.0713c0.0918-0.2022,0.205-0.3492,0.3261-0.4434
	c-6.5156,0.3076-11.9218,5.3003-13.5918,12.0171c-0.0459-0.042-0.0957-0.0811-0.1484-0.1148
	c-0.1006-0.1591-0.2266-0.2788-0.3711-0.3715c-0.1016-0.1597-0.2285-0.2798-0.373-0.3731
	c-0.1016-0.1582-0.2266-0.2783-0.3711-0.3711c-0.1006-0.1592-0.2266-0.2788-0.3731-0.3716
	c-0.0996-0.1591-0.2265-0.2793-0.3711-0.372c-0.1006-0.1587-0.2265-0.2788-0.3711-0.3716c-0.1015-0.1592-0.2275-0.2793-0.373-0.3726
	c-0.1006-0.1587-0.2266-0.2783-0.3711-0.3711c-0.1006-0.1596-0.2266-0.2793-0.3721-0.3725
	c-0.1006-0.1592-0.2275-0.2793-0.373-0.3721c-0.1006-0.1587-0.2256-0.2788-0.3711-0.3716
	c-0.1006-0.1596-0.2276-0.2798-0.3731-0.3725c-0.1006-0.1587-0.2256-0.2788-0.3711-0.3711
	c-0.1005-0.1592-0.2265-0.2793-0.372-0.3721c-0.0996-0.1592-0.2266-0.2788-0.3711-0.3721c-0.1016-0.1587-0.2266-0.2788-0.3731-0.372
	c-0.1738-0.2769-0.4062-0.458-0.7246-0.5401c-0.3262-0.0923-0.6426-0.0522-0.9355,0.1216c-0.0293,0.0176-0.045,0.044-0.0723,0.0625
	c-0.0176-0.0117-0.0332-0.0229-0.0508-0.0342c-0.0469-0.0732-0.082-0.1523-0.1474-0.2182
	c-0.0674-0.0684-0.1495-0.1045-0.2246-0.1538c-0.0479-0.0733-0.0821-0.1524-0.1475-0.2183
	c-0.0684-0.0684-0.1484-0.105-0.2246-0.1543c-0.0479-0.0728-0.082-0.1519-0.1475-0.2173c-0.0674-0.0679-0.1484-0.104-0.2236-0.1533
	c-0.0479-0.0737-0.082-0.1528-0.1484-0.2188c-0.0674-0.0683-0.1485-0.1044-0.2247-0.1538c-0.0468-0.0732-0.082-0.1523-0.1464-0.2182
	c-0.2422-0.2442-0.5313-0.3653-0.8829-0.3653c-0.3418,0-0.6357,0.1221-0.8789,0.3653c-0.2421,0.2422-0.3632,0.5371-0.3632,0.8764
	c0,0.3467,0.1211,0.6431,0.3632,0.8765c0.0791,0.0767,0.1621,0.1382,0.2461,0.1904c0.043,0.0601,0.0703,0.128,0.125,0.1817
	c0.0293,0.0278,0.0606,0.0464,0.0899,0.0713v1.644c-0.083-0.103-0.1875-0.1904-0.3096-0.2676
	c-0.0928-0.1455-0.2139-0.2719-0.3721-0.373c-0.0937-0.1445-0.2129-0.2705-0.372-0.3711c-0.0928-0.1445-0.2129-0.2705-0.3721-0.3711
	c-0.0928-0.1455-0.2129-0.2725-0.3731-0.3735c-0.1015-0.1587-0.2304-0.2994-0.4111-0.4063
	c-0.3017-0.1738-0.6191-0.2139-0.9443-0.1216c-0.3223,0.0816-0.5742,0.2783-0.7481,0.5786
	c-0.1797,0.3101-0.2246,0.6172-0.1338,0.9468c0.0772,0.3023,0.2657,0.5362,0.5381,0.7075c0.0938,0.1446,0.2149,0.271,0.3731,0.3726
	c0.0937,0.144,0.2138,0.2695,0.3711,0.3711c0.0937,0.144,0.2148,0.27,0.3711,0.3716c0.0937,0.1445,0.2148,0.2705,0.372,0.3725
	c0.041,0.0625,0.0889,0.1206,0.1416,0.1753l-0.1718,0.0996c-0.1329-0.1118-0.2871-0.1875-0.4707-0.2348
	c-0.3184-0.0933-0.6446-0.0474-0.9385,0.1206c-0.3037,0.1738-0.5029,0.4302-0.586,0.7529
	c-0.0908,0.3213-0.0459,0.6445,0.1338,0.9414c0.1045,0.188,0.2481,0.3189,0.4151,0.4243c0.0986,0.1587,0.2256,0.2798,0.373,0.3731
	c0.0987,0.1577,0.2237,0.2783,0.3711,0.3711c0.0986,0.1587,0.2246,0.2793,0.3721,0.372c0.0986,0.1582,0.2246,0.2788,0.3711,0.3716
	c0.0996,0.1587,0.2246,0.2793,0.373,0.3726c0.0987,0.1582,0.2246,0.2788,0.3721,0.372c0.0986,0.1583,0.2246,0.2789,0.3721,0.3721
	c0.0986,0.1582,0.2246,0.2788,0.372,0.3721c0.0987,0.1577,0.2237,0.2783,0.3711,0.3711c0.0987,0.1582,0.2237,0.2788,0.3721,0.3721
	c0.0977,0.1582,0.2246,0.2788,0.3721,0.372c0.0986,0.1582,0.2246,0.2788,0.372,0.3721c0.0977,0.1582,0.2246,0.2783,0.3711,0.3716
	c0.0987,0.1582,0.2246,0.2788,0.3721,0.3716c0.0986,0.1582,0.2236,0.2788,0.3721,0.372c0.0976,0.1587,0.2246,0.2793,0.373,0.3731
	c0.0977,0.1577,0.2237,0.2783,0.3711,0.3711c0.0977,0.1577,0.2246,0.2783,0.3711,0.3716c0.0996,0.1582,0.2246,0.2788,0.3731,0.372
	c0.0976,0.1582,0.2246,0.2788,0.371,0.3716c0.0987,0.1592,0.2247,0.2798,0.3731,0.3731c0.0977,0.1572,0.2236,0.2778,0.3711,0.3706
	c0.0976,0.1586,0.2246,0.2793,0.373,0.3725c0.0977,0.1582,0.2237,0.2788,0.3711,0.3716c0.0977,0.1582,0.2246,0.2788,0.3711,0.3726
	c0.0996,0.1577,0.2246,0.2783,0.3721,0.3715c0.0986,0.1582,0.2256,0.2788,0.3721,0.3716c0.0986,0.1587,0.2246,0.2793,0.3711,0.3721
	c0.0996,0.1577,0.2246,0.2783,0.3711,0.3716c0.0996,0.1577,0.2246,0.2783,0.373,0.3716c0.0977,0.1586,0.2246,0.2793,0.373,0.3725
	c0.0977,0.1582,0.2247,0.2788,0.3711,0.3721c0.0987,0.1577,0.2246,0.2783,0.3711,0.3711c0.0987,0.1587,0.2246,0.2788,0.3731,0.3725
	c0.0976,0.1587,0.2246,0.2793,0.373,0.3731c0.0977,0.1577,0.2246,0.2778,0.3711,0.3711c0.0977,0.1577,0.2246,0.2783,0.3711,0.3711
	c0.0986,0.1582,0.2246,0.2788,0.3711,0.372c0.0996,0.1587,0.2256,0.2793,0.3731,0.3721c0.0986,0.1587,0.2246,0.2793,0.373,0.3726
	c0.0977,0.1577,0.2227,0.2778,0.3701,0.3706c0.0987,0.1582,0.2246,0.2788,0.3721,0.372c0.0976,0.1582,0.2246,0.2789,0.3711,0.3721
	c0.0996,0.1587,0.2265,0.2793,0.373,0.3726c0.0996,0.1587,0.2256,0.2793,0.3731,0.3725c0.0986,0.1577,0.2246,0.2784,0.3711,0.3706
	c0.0029,0.0059,0.0078,0.0098,0.0117,0.0147c-0.0371,0.0439-0.0742,0.083-0.1113,0.1269l-0.1895-0.1552
	c-0.0996-0.1075-0.2051-0.2095-0.3154-0.3096c-0.1182-0.1299-0.2432-0.2554-0.376-0.3755c-0.1152-0.1269-0.2383-0.249-0.3672-0.3672
	c-0.1172-0.1279-0.2402-0.2514-0.3711-0.3701c-0.1172-0.1299-0.2422-0.2549-0.374-0.375c-0.1162-0.1279-0.2393-0.2515-0.3701-0.3701
	c-0.1162-0.1275-0.2383-0.25-0.3682-0.3682c-0.1181-0.1308-0.2441-0.2568-0.3779-0.3779c-0.1172-0.1289-0.2402-0.2525-0.3711-0.3711
	c-0.1172-0.1289-0.2402-0.2529-0.3731-0.3716c-0.1152-0.1274-0.2382-0.2505-0.3681-0.3686
	c-0.1172-0.1294-0.2412-0.2539-0.3731-0.3736c-0.1172-0.1294-0.2412-0.2539-0.374-0.374c-0.1162-0.1279-0.2392-0.2515-0.3701-0.3701
	c-0.2998-0.3296-0.6504-0.6328-1.0186-0.8721c-0.0703-0.0718-0.1416-0.1396-0.2148-0.2016
	c-0.1201-0.1377-0.2441-0.2632-0.3711-0.3716c-0.1211-0.1377-0.2441-0.2637-0.3721-0.3716
	c-0.1201-0.1377-0.2441-0.2637-0.372-0.3721c-0.1211-0.1377-0.2442-0.2636-0.3721-0.3725
	c-0.1201-0.1377-0.2451-0.2637-0.3721-0.3716c-0.1201-0.1372-0.2431-0.2622-0.3691-0.3701
	c-0.1221-0.1387-0.2461-0.2657-0.375-0.3745c-0.666-0.7588-1.4375-1.1153-2.2598-0.6246c-0.6113,0.3638-0.874,1.0381-0.417,2.1084
	c-2.2334-2.25-4.4697-2.0249-5.915,0.3765c-1.2168,2.0239,0.0039,4.5166,1.9277,6.3325c0.1211,0.126,0.2442,0.2505,0.3711,0.3711
	c0.1211,0.1265,0.2442,0.2505,0.3711,0.3716c0.1221,0.127,0.2451,0.252,0.3731,0.373c0.121,0.126,0.2441,0.25,0.371,0.3711
	c0.1211,0.126,0.2442,0.251,0.3721,0.3711c0.1211,0.127,0.2432,0.251,0.3701,0.3711c0.1231,0.127,0.2461,0.252,0.375,0.3741
	c0.0313,0.0322,0.0625,0.0654,0.0948,0.0986c0.0459,0.0937,0.1074,0.1855,0.1904,0.2734c0.0937,0.0977,0.1992,0.1875,0.3037,0.2774
	c0.0244,0.0312,0.0381,0.0644,0.0674,0.0947c0.0967,0.1006,0.2041,0.1943,0.3125,0.2881c0.0215,0.0273,0.0342,0.0566,0.0605,0.084
	c0.0957,0.1005,0.2032,0.1933,0.3096,0.2851c0.0225,0.0293,0.0352,0.0586,0.0615,0.086c0.0967,0.1015,0.2041,0.1953,0.3115,0.2871
	c0.0225,0.0283,0.0342,0.0586,0.0606,0.0849c0.0957,0.1006,0.2021,0.1924,0.3096,0.2842c0.0214,0.0293,0.0351,0.0606,0.0625,0.0879
	c0.0957,0.1006,0.2031,0.1934,0.3105,0.2861c0.0215,0.0283,0.0352,0.0586,0.0606,0.086c0.0966,0.1006,0.2031,0.1943,0.3105,0.2861
	c0.0234,0.0283,0.0352,0.0586,0.0625,0.0859c0.0957,0.0996,0.2031,0.1934,0.3086,0.2852c0.0234,0.0283,0.0361,0.0586,0.0625,0.0859
	c0.0957,0.1006,0.2031,0.1934,0.3086,0.2852c0.0234,0.0293,0.0361,0.0596,0.0625,0.0879c0.0976,0.1006,0.2051,0.1943,0.3125,0.2871
	c0.0225,0.0273,0.0351,0.0576,0.0605,0.084c0.0957,0.1015,0.2032,0.1933,0.3106,0.2871c0.0215,0.0273,0.0351,0.0576,0.0605,0.0849
	c0.0967,0.1006,0.2032,0.1944,0.3106,0.2862c0.0234,0.0283,0.0351,0.0586,0.0625,0.0859c0.0957,0.1006,0.2031,0.1934,0.3105,0.2871
	c0.0225,0.0274,0.0352,0.0567,0.0606,0.084c0.0957,0.1006,0.2031,0.1934,0.3095,0.2852c0.0225,0.0293,0.0362,0.0595,0.0625,0.0879
	c0.0967,0.0996,0.2032,0.1933,0.3096,0.2851c0.0235,0.0283,0.0361,0.0586,0.0625,0.0859c0.0957,0.1006,0.2031,0.1934,0.3096,0.2852
	c0.0224,0.0293,0.0361,0.0596,0.0615,0.0879c0.0967,0.0996,0.2031,0.1934,0.3106,0.2851c0.0234,0.0293,0.0351,0.0586,0.0625,0.086
	c0.0957,0.1015,0.2041,0.1953,0.3125,0.2881c0.0214,0.0283,0.0332,0.0576,0.0585,0.083c0.0967,0.1006,0.2032,0.1933,0.3096,0.2851
	c0.0225,0.0293,0.0362,0.0596,0.0625,0.0879c0.0752,0.0782,0.1612,0.1494,0.2432,0.2227
	c-1.6621,4.1621-2.3945,8.4453-0.9356,10.9258c0.3145,0.5351,0.7422,1.0302,1.2559,1.4892c0.1191,0.124,0.2344,0.249,0.3672,0.3682
	c0.123,0.1269,0.2402,0.2539,0.375,0.375c0.1211,0.124,0.2363,0.25,0.3691,0.3691c0.1231,0.127,0.2403,0.2539,0.376,0.375
	c0.1201,0.125,0.2354,0.25,0.3682,0.3692c0.122,0.1259,0.2402,0.2539,0.375,0.375c0.1211,0.124,0.2363,0.25,0.3691,0.3691
	c0.1221,0.125,0.2393,0.2529,0.374,0.3731c0.1201,0.125,0.2354,0.25,0.3682,0.3691c0.123,0.1269,0.2412,0.2559,0.3769,0.3769
	c0.1202,0.1231,0.2354,0.2491,0.3672,0.3672c0.1231,0.127,0.2403,0.2549,0.376,0.375c0.1201,0.125,0.2363,0.251,0.3701,0.3702
	c0.1211,0.1259,0.2383,0.2529,0.3731,0.374c0.1211,0.125,0.2363,0.25,0.3691,0.3691c0.1221,0.126,0.2383,0.2529,0.3731,0.3731
	c0.1211,0.125,0.2382,0.2519,0.373,0.373c0.1211,0.125,0.2383,0.252,0.3731,0.3731c0.121,0.123,0.2363,0.25,0.3691,0.3691
	c0.1221,0.125,0.2402,0.2539,0.375,0.374c0.1201,0.124,0.2363,0.251,0.3691,0.3701c0.1211,0.125,0.2383,0.252,0.3731,0.3731
	c0.1211,0.125,0.2383,0.2519,0.3721,0.3711c0.122,0.126,0.2392,0.2529,0.372,0.373c0.1211,0.125,0.2364,0.25,0.3692,0.3692
	c0.123,0.1269,0.2402,0.2539,0.375,0.375c0.1211,0.125,0.2363,0.25,0.3701,0.3701c0.1211,0.125,0.2373,0.251,0.3721,0.3721
	c0.121,0.125,0.2382,0.2519,0.373,0.373c0.1211,0.125,0.2383,0.252,0.373,0.373c0.1211,0.1231,0.2354,0.2491,0.3672,0.3672
	c0.1231,0.127,0.2422,0.2559,0.377,0.377c0.1211,0.124,0.2363,0.25,0.3691,0.3682c0.1211,0.1259,0.2383,0.2529,0.3721,0.373
	c0.1221,0.126,0.2383,0.2529,0.3721,0.3721c0.123,0.1269,0.2402,0.2539,0.375,0.374c0.1191,0.124,0.2343,0.249,0.3662,0.3672
	c0.122,0.1269,0.2412,0.2549,0.376,0.376c0.121,0.125,0.2363,0.25,0.3691,0.3691c0.123,0.126,0.2393,0.2539,0.374,0.373
	c0.1211,0.125,0.2373,0.252,0.3701,0.3711c0.1231,0.127,0.2412,0.2549,0.377,0.377c0.1191,0.1221,0.2324,0.2461,0.3642,0.3643
	c0.1221,0.1259,0.2413,0.2548,0.377,0.3769c0.1201,0.124,0.2373,0.251,0.3701,0.3701c0.1211,0.125,0.2383,0.252,0.3731,0.3731
	c0.1211,0.124,0.2363,0.25,0.3691,0.3701c0.1231,0.126,0.2422,0.2549,0.377,0.376c0.1191,0.123,0.2343,0.248,0.3662,0.3662
	c0.122,0.1259,0.2412,0.2549,0.3759,0.3759c0.1211,0.125,0.2373,0.251,0.3711,0.3711c0.1211,0.125,0.2373,0.251,0.3711,0.3711
	c0.1211,0.125,0.2364,0.252,0.3711,0.3711c0.1221,0.127,0.2403,0.2539,0.376,0.375c0.1201,0.1241,0.2344,0.2491,0.3662,0.3672
	c0.1231,0.127,0.2402,0.2549,0.376,0.376c0.1201,0.124,0.2373,0.251,0.3701,0.3701c0.1211,0.125,0.2383,0.252,0.3731,0.3731
	c0.121,0.125,0.2382,0.2519,0.372,0.3711c0.1211,0.1259,0.2373,0.2529,0.3721,0.373c0.1211,0.124,0.2363,0.25,0.3701,0.3691
	c0.1211,0.125,0.2373,0.252,0.3711,0.3721c0.1221,0.126,0.2393,0.2539,0.375,0.375c0.1221,0.125,0.2383,0.252,0.3721,0.3721
	c0.1211,0.125,0.2373,0.25,0.3711,0.3701c0.1211,0.124,0.2363,0.251,0.3691,0.3701c0.1231,0.127,0.2402,0.2539,0.375,0.374
	c0.1211,0.125,0.2363,0.252,0.3711,0.3721c0.1211,0.125,0.2373,0.251,0.3711,0.3711c0.1211,0.125,0.2383,0.252,0.373,0.373
	c0.0245,0.0254,0.0508,0.0499,0.0762,0.0752c18.8223-3.4404,33.9551-17.4101,39.0762-35.5888
	c-0.0791-0.0821-0.1563-0.168-0.2402-0.2403C97.7578,63.2041,97.6338,63.0781,97.5049,62.9687z"/>
<g id="snowman-snowman">
	<ellipse fill="#FFFFFF" cx="49.8169" cy="37.8574" rx="11.6899" ry="11.7798"/>
	<g>
		<path fill="#8CC152" d="M74.3066,53.2676c-0.3164,0.1152-0.5859,0.0752-0.8281-0.1387c-1.7265-1.5381-3.1914-3.7495-4.0976-6.1787
			c-0.1602-0.4297-0.125-0.9175,0.0918-1.3755c0.0136-0.0254,0.0263-0.0508,0.0371-0.0776
			c-0.2637-0.2979-0.5899-0.3902-1.0303-0.1949c-0.5713,0.2535-1.1455,0.6665-1.5869,1.1294
			c-0.2598,0.271-0.3819,0.67-0.3867,1.0396c-0.0039,0.1289,0.0078,0.2588,0.0312,0.373c0.5,2.335,2.3057,5.4937,4.0078,7.1597
			c0.3487,0.3418,0.8301,0.6055,1.3555,0.4688c0.0742-0.0206,0.1562-0.0518,0.2305-0.0791c0.6689-0.21,1.3671-0.5655,1.9111-1.0411
			C74.3887,54.0459,74.459,53.6484,74.3066,53.2676z"/>
		<path fill="#8CC152" d="M31.6348,44.8301c-0.42-0.2329-0.75-0.1714-1.043,0.1045c0.0137,0.0263,0.0254,0.0537,0.0332,0.0796
			c0.1738,0.4755,0.1641,0.9633-0.0332,1.3823c-1.1133,2.3389-2.7656,4.4126-4.6211,5.7871c-0.2637,0.1953-0.5293,0.21-0.834,0.0664
			c-0.1865,0.3682-0.1523,0.7686,0.168,1.1074c0.5039,0.5176,1.1621,0.9395,1.8086,1.2051
			c0.0752,0.0332,0.1504,0.0693,0.2246,0.0967c0.5176,0.1855,1.0176-0.0362,1.3906-0.3467
			c1.8457-1.5117,3.9141-4.4966,4.6172-6.7764c0.0352-0.1172,0.0586-0.2402,0.0664-0.3715
			c0.0274-0.3667-0.0586-0.7759-0.2939-1.0709C32.7197,45.5991,32.1807,45.1299,31.6348,44.8301z"/>
	</g>
	<g>
		<path fill="#FFFFFF" d="M79.6504,45.5078c-1.2305-2.5234-3.4316-2.9399-5.8594-0.9014c0.5508-1.0249,0.3477-1.7226-0.2265-2.1323
			c-1.4844-1.0718-3.0499,0.9331-4.0547,3.023c-0.0108,0.0268-0.0235,0.0522-0.0371,0.0776
			c-0.2168,0.458-0.252,0.9458-0.0918,1.3755c0.9062,2.4292,2.3711,4.6406,4.0976,6.1787c0.2422,0.2139,0.5117,0.2539,0.8281,0.1387
			c0-0.002,0-0.002,0-0.002C77.5898,52.0859,81.1318,48.5356,79.6504,45.5078z"/>
		<path fill="#FFFFFF" d="M30.5918,44.9346c-0.8135-2.1704-2.2012-4.3067-3.7715-3.3697c-0.6113,0.3638-0.874,1.0381-0.417,2.1084
			c-2.2334-2.25-4.4697-2.0249-5.915,0.3765c-1.7373,2.8887,1.4863,6.7383,4.6445,8.2002h0.0039
			c0.3047,0.1436,0.5703,0.1289,0.834-0.0664c1.8555-1.3745,3.5078-3.4482,4.6211-5.7871c0.1973-0.419,0.207-0.9068,0.0332-1.3823
			C30.6172,44.9883,30.6055,44.9609,30.5918,44.9346z"/>
	</g>
	<path fill="#7D6959" d="M39.7051,49.0127c-0.0117-0.127-0.0254-0.252-0.0254-0.376c0-1.1509,0.6445-2.2099,1.748-3.0752
		c-1.7578-1.624-2.8359-3.9614-2.8359-7.0698c0-1.8345,0.3672-3.5688,1.0117-5.1353c-0.0039-0.0039-0.0058-0.0048-0.0088-0.0092
		c0.0401-0.1001,0.0908-0.1939,0.1338-0.291c0.0654-0.1495,0.1338-0.3028,0.207-0.4498c0.0879-0.1826,0.1797-0.3588,0.2774-0.5356
		c0.0742-0.1304,0.1406-0.2656,0.2187-0.3945c0.1172-0.1992,0.2422-0.3863,0.3711-0.5762c0.0664-0.1006,0.1289-0.2041,0.1953-0.3013
		c0.2041-0.2846,0.4151-0.5581,0.6387-0.8232c0-0.0025,0.0039-0.0025,0.0039-0.0034c0.1387-0.1592,0.2754-0.3174,0.4199-0.4693
		c0.004-0.0058,0.0098-0.0107,0.0166-0.0171c0.1436-0.1528,0.292-0.3027,0.4444-0.4448c1.5859-1.5049,3.5547-2.5224,5.7197-2.854
		c0.1758-1.1548,0.3438-2.2451,0.4219-2.7143c0.082-0.5157,0.2734-0.8072,0.4814-0.9688
		c-7.8652,0.3716-14.1347,7.563-14.1347,16.3843C35.0098,43.5283,36.834,46.8594,39.7051,49.0127z"/>
	<path fill="#7D6959" d="M50.8652,23.5469l0.0098,0.0385c0.1016,0.6382,0.3398,1.646,0.5801,2.6197
		c2.1601,0.3584,4.1133,1.4053,5.6875,2.9321c0,0,0,0,0,0.0024c0.6289,0.6055,1.1914,1.2906,1.6836,2.0386
		c0.0205,0.0288,0.0351,0.0591,0.0586,0.0874c0.0937,0.1485,0.1875,0.2979,0.2783,0.4531c0.0264,0.0489,0.0557,0.0977,0.0849,0.1456
		c0.0791,0.1401,0.1524,0.2802,0.2286,0.4238c0.0293,0.0556,0.0566,0.1103,0.0879,0.166c0.0703,0.1475,0.1406,0.2964,0.2109,0.4453
		c0.0234,0.0523,0.0469,0.1006,0.0703,0.1504c0.0859,0.2022,0.1729,0.4048,0.25,0.6138c0.5674,1.4839,0.875,3.1157,0.875,4.8281
		c0,3.2222-1.0547,5.6177-2.8125,7.2485c0.9727,0.8311,1.5352,1.8218,1.5352,2.8965c0,0.2368-0.0313,0.4697-0.0821,0.6968
		c0.0196,0.0215,0.0391,0.0425,0.0586,0.064c3.0156-2.1285,4.8828-5.5826,4.8828-10.5093c0-8.855-6.3125-16.063-14.2168-16.3882
		C50.5654,22.6729,50.7813,22.9829,50.8652,23.5469z"/>
	<path fill="#E14400" d="M40.998,30.7988c0.2041-0.2846,0.4151-0.5581,0.6387-0.8232
		C41.4131,30.2407,41.2021,30.5142,40.998,30.7988z"/>
	<path fill="#FC6E51" d="M72.1309,55.3936c-0.0743,0.0273-0.1563,0.0585-0.2305,0.0791c-0.5254,0.1367-1.0068-0.127-1.3555-0.4688
		c-1.7021-1.666-3.5078-4.8247-4.0078-7.1597c-0.0234-0.1142-0.0351-0.2441-0.0312-0.373l-5.6289,3.8677
		c-0.4571-0.5699-0.92-1.1123-1.3858-1.5996c-0.8642,2.2978-4.376,4.0244-8.8213,4.248l3.5508,9.5088l-8.6406,1.9961l-0.4727-7.624
		l-2.4746,6.6045l-4.7598-2.5303l-3.0703-1.6299l5.6289-7.3555l0.9727-1.2666c-0.8164-0.6445-1.374-1.3945-1.6055-2.209
		c-0.5205,0.5118-1.0332,1.0806-1.5429,1.6836l-4.8438-4.0004c-0.0078,0.1313-0.0312,0.2543-0.0664,0.3715
		c-0.7031,2.2798-2.7715,5.2647-4.6172,6.7764c-0.373,0.3105-0.873,0.5322-1.3906,0.3467
		c-0.0742-0.0274-0.1494-0.0635-0.2246-0.0967l5.9814,4.9326c-1.9922,4.5039-3.0117,9.3662-1.417,12.0772
		C34.0879,75.666,42.7676,77.5,50.3027,77.5c8.8399,0,15.5547-2.3174,17.1055-5.9063c1.1094-2.5664,0.418-7.123-1.5781-11.8671
		L72.1309,55.3936z"/>
	<g>
		<path fill="#8CC152" d="M46.6406,53.7646l-0.584,1.5674l0.543,8.7901l6.1445-1.417l-3.2451-8.6973
			C48.502,54,47.542,53.916,46.6406,53.7646z"/>
		<path fill="#8CC152" d="M42.3184,52.3086l-1.0332,1.3516l-4.8096,6.29l2.1123,1.124l3.4531,1.836l2.8975-7.7471l0.4736-1.2686
			l0.1328-0.3506c-0.0527-0.0117-0.1054-0.0244-0.1562-0.0371c-0.1905-0.0468-0.3789-0.0966-0.5625-0.1494
			C43.8867,53.0781,43.041,52.7266,42.3184,52.3086z"/>
		<path fill="#8CC152" d="M42.0723,50.8164c0.1406,0.1079,0.291,0.2139,0.4492,0.3184c0.1533,0.0996,0.3125,0.1933,0.4805,0.2851
			c0.5166,0.2822,1.1025,0.5371,1.7519,0.7481c0.1816,0.0586,0.3691,0.1172,0.5625,0.1689
			c0.1856,0.0518,0.3731,0.0986,0.5625,0.1436c0.0176,0.0039,0.042,0.0078,0.0586,0.0156c0.1777,0.04,0.3613,0.0771,0.5449,0.1133
			c0.1856,0.0312,0.3692,0.0664,0.5567,0.0957c0.6552,0.1025,1.3379,0.166,2.0459,0.1924c0.1963,0.0048,0.3955,0.0087,0.5947,0.0087
			c0.0019,0,0.0068,0,0.0068,0c0.1944,0,0.3877-0.0029,0.5791-0.0087c3.1289-0.1055,5.874-1.0196,7.2949-2.3038
			c0.586-0.5322,0.9551-1.1279,1.0166-1.7553c0.0088-0.0669,0.0108-0.1348,0.0108-0.2017c0-0.0122,0-0.0224,0-0.0317
			c-0.002-0.0899-0.0108-0.1797-0.0215-0.272c-0.1113-0.6797-0.5605-1.3237-1.2832-1.8882c-0.2012,0.1475-0.416,0.2862-0.6348,0.417
			c-0.0605,0.0352-0.122,0.0669-0.1806,0.1011c-0.0615,0.0342-0.126,0.0679-0.1846,0.0986
			c-1.7578,0.937-3.9053,1.3887-6.2617,1.3887c-0.4863,0-0.9668-0.0249-1.4414-0.0601c-0.0459-0.0039-0.0938-0.0112-0.1397-0.0112
			c-1.9306-0.1763-3.7275-0.6782-5.2431-1.5327c-0.0625-0.0366-0.1289-0.0752-0.1953-0.1152
			c-0.0645-0.0381-0.1329-0.0757-0.1954-0.1172c-0.1738-0.107-0.3359-0.2173-0.4961-0.333c-0.7089,0.5-1.1992,1.0722-1.4101,1.6811
			c-0.0371,0.1118-0.0625,0.2178-0.084,0.3306c-0.0137,0.0903-0.0254,0.1826-0.0293,0.2749c0,0.0234-0.0039,0.0469-0.0039,0.0693
			c0,0.4815,0.1807,0.9492,0.5039,1.3833C41.4932,50.3008,41.7559,50.5659,42.0723,50.8164z"/>
	</g>
	<path fill="#FC6E51" d="M49.7803,36.9082c3.2334,0,5.0498-5.2656,5.0674-5.3105c-0.7676,1.935-8.8575,2.142-9.9395,0.1543
		C44.9287,31.7871,46.3594,36.9082,49.7803,36.9082z"/>
	<path fill="#FFFFFF" d="M77.9561,29.9141l-1.5987,0.9287l1.5938,0.9218c0.1289-0.1137,0.2851-0.1953,0.4824-0.2578
		c0.3262-0.083,0.6445-0.0381,0.9394,0.1333c0.3008,0.1714,0.4883,0.4175,0.5821,0.7525c0.0869,0.3257,0.0488,0.6426-0.1289,0.9419
		c-0.1709,0.3037-0.418,0.4912-0.7539,0.5786c-0.3243,0.0898-0.6485,0.0488-0.9405-0.125c-0.2939-0.166-0.4882-0.4194-0.5859-0.7529
		c-0.0488-0.1773-0.0518-0.3526-0.0215-0.5235l-1.6074-0.9238v1.833c0.1826,0.0664,0.335,0.1641,0.457,0.293
		c0.2451,0.2465,0.3672,0.5356,0.3672,0.8789c0,0.3491-0.1211,0.6362-0.3672,0.8818c-0.251,0.2437-0.5439,0.3604-0.8818,0.3604
		c-0.3379,0-0.627-0.1197-0.8692-0.3604c-0.246-0.2456-0.3632-0.5327-0.3632-0.8818c0-0.3433,0.1211-0.6324,0.3632-0.8789
		c0.1221-0.1289,0.2735-0.2276,0.4375-0.2871v-1.8487l-1.5839,0.9141c0.0302,0.1846,0.0214,0.3691-0.0352,0.543
		c-0.084,0.3335-0.2715,0.5849-0.5762,0.7529c-0.2988,0.1738-0.6162,0.2197-0.9414,0.1323
		c-0.3388-0.0947-0.582-0.2861-0.7529-0.5859c-0.1807-0.2984-0.2197-0.6211-0.1338-0.9419
		c0.0859-0.3247,0.2852-0.5801,0.5879-0.7525c0.291-0.1714,0.6191-0.2153,0.9355-0.123c0.1875,0.0464,0.3399,0.124,0.4766,0.2349
		l1.5977-0.9278l-1.5899-0.914c-0.1289,0.1132-0.2929,0.1982-0.4844,0.248c-0.3398,0.0845-0.6542,0.0439-0.9355-0.1279
		c-0.3027-0.1758-0.502-0.4239-0.5879-0.75c-0.0859-0.3267-0.0469-0.6343,0.1338-0.9453c0.1748-0.3018,0.4287-0.4971,0.7529-0.5787
		c0.3252-0.0922,0.6367-0.0512,0.9414,0.1226c0.3047,0.1763,0.4922,0.4277,0.5782,0.7539c0.0507,0.1904,0.0586,0.3706,0.0332,0.5298
		l1.6005,0.9214v-1.8355c-0.1679-0.0571-0.3212-0.1543-0.4619-0.2954c-0.2451-0.2324-0.3672-0.5302-0.3672-0.8774
		c0-0.3384,0.1221-0.6333,0.3672-0.8765c0.2422-0.2402,0.5391-0.3623,0.877-0.3623c0.3496,0,0.6426,0.1216,0.8818,0.3623
		c0.2451,0.2432,0.3672,0.5381,0.3672,0.8765c0,0.3472-0.1221,0.645-0.3672,0.8774c-0.1338,0.1372-0.2812,0.2295-0.4453,0.2871
		v1.8594l1.5957-0.9238c-0.0303-0.1724-0.0273-0.3584,0.0215-0.543c0.0977-0.3301,0.2881-0.5776,0.5859-0.7539
		c0.293-0.1738,0.6143-0.2148,0.9405-0.1226c0.334,0.086,0.5781,0.2735,0.7539,0.5787c0.1777,0.3012,0.2158,0.6186,0.1289,0.9404
		c-0.0938,0.3359-0.2813,0.5791-0.5821,0.7549c-0.2949,0.1704-0.6132,0.2119-0.9394,0.1279
		C78.2559,30.1108,78.0918,30.0269,77.9561,29.9141z"/>
	<path fill="#FFFFFF" d="M27.6172,30.0742l-1.6006,0.9287l1.5947,0.9229c0.128-0.1143,0.2871-0.1983,0.4825-0.2578
		c0.3261-0.085,0.6445-0.0391,0.9414,0.1289c0.3007,0.1723,0.4882,0.4189,0.5781,0.7529c0.0879,0.3262,0.0488,0.6436-0.127,0.9414
		c-0.1718,0.3071-0.416,0.4942-0.7578,0.5811c-0.3183,0.0888-0.6465,0.0483-0.9355-0.1241
		c-0.2969-0.1689-0.4942-0.4204-0.586-0.7548c-0.0468-0.1763-0.0527-0.3506-0.0254-0.5215l-1.6035-0.9263v1.833
		c0.1817,0.0679,0.334,0.1626,0.4571,0.2954c0.2402,0.2432,0.3613,0.5332,0.3613,0.8765c0,0.3496-0.1172,0.6396-0.3613,0.8838
		c-0.252,0.2417-0.5459,0.3608-0.8829,0.3608c-0.3359,0-0.6308-0.1216-0.8701-0.3608c-0.2431-0.2442-0.3633-0.5342-0.3633-0.8838
		c0-0.3433,0.1241-0.6333,0.3633-0.8765c0.1241-0.1328,0.2725-0.2295,0.4366-0.2871v-1.8515l-1.587,0.914
		c0.0323,0.1875,0.0274,0.3696-0.0322,0.544c-0.083,0.3344-0.2715,0.5849-0.5752,0.7548c-0.2998,0.1724-0.6162,0.2178-0.9443,0.1309
		c-0.3399-0.0937-0.5791-0.2842-0.7481-0.5879c-0.1797-0.2969-0.2246-0.6201-0.1338-0.9414
		c0.0831-0.3227,0.2823-0.5791,0.586-0.7529c0.2939-0.168,0.6201-0.2139,0.9385-0.1206c0.1836,0.0473,0.3378,0.123,0.4707,0.2348
		l1.6005-0.9277l-1.5869-0.9141c-0.1338,0.1119-0.2968,0.1983-0.4843,0.2481c-0.3428,0.0874-0.6563,0.0439-0.9385-0.1279
		c-0.3037-0.1734-0.5029-0.4253-0.586-0.7486c-0.0908-0.3296-0.0459-0.6367,0.1338-0.9468c0.1739-0.3003,0.4258-0.497,0.7481-0.5786
		c0.3252-0.0923,0.6426-0.0522,0.9443,0.1216c0.3037,0.1787,0.4922,0.4297,0.5811,0.7549c0.0508,0.1904,0.0537,0.3706,0.0263,0.5298
		l1.6026,0.9204v-1.833c-0.1641-0.0596-0.3164-0.1572-0.461-0.2969c-0.2421-0.2334-0.3632-0.5298-0.3632-0.8765
		c0-0.3393,0.1211-0.6342,0.3632-0.8764c0.2432-0.2432,0.5371-0.3653,0.8789-0.3653c0.3516,0,0.6407,0.1211,0.8829,0.3653
		c0.2402,0.2422,0.3613,0.5371,0.3613,0.8764c0,0.3467-0.1211,0.6431-0.3613,0.8765c-0.1348,0.1387-0.2832,0.23-0.4454,0.2881
		v1.8574l1.5918-0.9214c-0.0273-0.1738-0.0214-0.3598,0.0254-0.5444c0.0918-0.3296,0.2832-0.5762,0.586-0.7549
		c0.2929-0.1738,0.6093-0.2139,0.9355-0.1216c0.336,0.0865,0.5811,0.2744,0.7578,0.5786c0.1758,0.3003,0.2149,0.6172,0.127,0.941
		c-0.0899,0.3364-0.2774,0.581-0.5781,0.7544c-0.2969,0.1679-0.6153,0.2119-0.9414,0.1279
		C27.9131,30.27,27.7539,30.1875,27.6172,30.0742z"/>
	<path fill="#FFCE54" d="M48.4453,29.9141c-0.0351,1.2324,1.6035,1.7695,2.46,1.0927c0.7021-0.5595,0.6142-1.3789,0.5556-1.7031
		c-0.0703-0.4048-0.4492-1.8076-0.7871-3.1948c-0.2207-0.9043-0.4297-1.8023-0.5302-2.4068
		c-0.0264-0.1953-0.0772-0.6635-0.4219-0.6606c-0.2451,0.0044-0.3057,0.3945-0.3321,0.5508
		c-0.0947,0.5659-0.2412,1.5151-0.3916,2.5073C48.7285,27.8779,48.4492,29.792,48.4453,29.9141z"/>
</g>
</svg>
