<?xml version="1.0" encoding="utf-8"?>
<!-- Generator: Adobe Illustrator 17.1.0, SVG Export Plug-In . SVG Version: 6.00 Build 0)  -->
<!DOCTYPE svg PUBLIC "-//W3C//DTD SVG 1.1//EN" "http://www.w3.org/Graphics/SVG/1.1/DTD/svg11.dtd">
<svg version="1.1" id="wreath" xmlns="http://www.w3.org/2000/svg" xmlns:xlink="http://www.w3.org/1999/xlink" x="0px" y="0px"
	 viewBox="0 0 100 100" enable-background="new 0 0 100 100" xml:space="preserve">
<circle id="wreath-label" fill="#FFCE54" cx="50" cy="50" r="50"/>
<g id="wreath-shadow">
	<path fill="#F6BB42" d="M98.416,57.8779c-0.1611-0.166-0.3252-0.3291-0.4912-0.4912c-0.1641-0.1699-0.331-0.3359-0.501-0.501
		c-0.1631-0.1689-0.33-0.3339-0.498-0.498c-0.1592-0.1631-0.3203-0.3242-0.4834-0.4834c-0.1631-0.168-0.3291-0.334-0.4971-0.4971
		c-0.1611-0.166-0.3252-0.3301-0.4912-0.4912c-0.166-0.1719-0.335-0.3398-0.5059-0.5058c-0.1611-0.1661-0.3242-0.3282-0.4902-0.4903
		c-0.1621-0.166-0.3271-0.331-0.4932-0.4941c-0.1611-0.1641-0.3232-0.3272-0.4882-0.4873c-0.1641-0.169-0.3311-0.336-0.5-0.501
		c-0.1612-0.1641-0.3233-0.3271-0.4883-0.4883c-0.166-0.1699-0.335-0.3388-0.5059-0.5058c-0.1631-0.167-0.3281-0.3321-0.4961-0.4952
		c-0.1601-0.164-0.3213-0.3256-0.4853-0.4858c-0.1621-0.1665-0.3262-0.3306-0.4932-0.4927
		c-0.1631-0.1679-0.3281-0.333-0.4961-0.4966c-0.164-0.1684-0.3301-0.3344-0.498-0.4985c-0.1651-0.1689-0.3311-0.335-0.5-0.499
		c-0.1602-0.1646-0.3223-0.3267-0.4873-0.4868c-0.1612-0.1656-0.3243-0.3291-0.4903-0.4908c-0.164-0.1689-0.331-0.3354-0.5-0.5
		c-0.1611-0.166-0.3252-0.33-0.4912-0.4917c-0.166-0.1704-0.334-0.3383-0.5049-0.5043c-0.1591-0.1636-0.3203-0.3248-0.4843-0.4844
		c-0.1631-0.1675-0.3282-0.333-0.4961-0.4961c-0.1612-0.1665-0.3252-0.3301-0.4912-0.4917
		c-0.1661-0.1704-0.333-0.3379-0.5039-0.5034c-0.1602-0.1651-0.3233-0.3277-0.4883-0.4883c-0.1641-0.169-0.3311-0.3355-0.5-0.5
		c-0.1602-0.1646-0.3223-0.3267-0.4864-0.4863c-0.163-0.168-0.3281-0.3331-0.4951-0.4956c-0.1631-0.167-0.3271-0.3316-0.4931-0.4937
		c-0.1661-0.1709-0.335-0.3389-0.5059-0.5049c-0.1611-0.1655-0.3242-0.3291-0.4902-0.4902
		c-0.1621-0.166-0.3262-0.3301-0.4922-0.4917c-0.1612-0.1655-0.3242-0.3286-0.4893-0.4898c-0.164-0.1689-0.331-0.3349-0.499-0.4995
		c-0.1621-0.1665-0.3262-0.3305-0.4922-0.4927c-0.164-0.1684-0.3301-0.3344-0.499-0.498c-0.1621-0.1665-0.3262-0.3306-0.4922-0.4927
		c-0.1641-0.1679-0.3291-0.3335-0.4971-0.4966c-0.1601-0.165-0.3222-0.3276-0.4873-0.4877
		c-0.167-0.1714-0.3349-0.3394-0.5058-0.5059c-0.1602-0.1641-0.3213-0.3252-0.4854-0.4849
		c-0.1631-0.1675-0.3281-0.3325-0.4951-0.4956c-0.1641-0.1679-0.3291-0.3335-0.4971-0.497
		c-0.1621-0.1661-0.3252-0.3296-0.4912-0.4913c-0.165-0.1699-0.333-0.3369-0.5019-0.5019
		c-0.1602-0.1646-0.3223-0.3267-0.4873-0.4863c-0.1612-0.1665-0.3252-0.3311-0.4922-0.4927
		c-0.167-0.1719-0.336-0.3413-0.5078-0.5078c-0.1592-0.1631-0.3194-0.3242-0.4825-0.4829c-0.163-0.167-0.3281-0.3321-0.4951-0.4947
		c-0.164-0.1694-0.331-0.3364-0.501-0.5009c-0.1611-0.1661-0.3252-0.3296-0.4912-0.4913c-0.1631-0.1674-0.3271-0.332-0.4941-0.4946
		c-0.1611-0.1655-0.3242-0.3291-0.4902-0.4902c-0.1661-0.1704-0.334-0.3389-0.5049-0.5044
		c-0.1621-0.1665-0.3252-0.3301-0.4922-0.4917c-0.1602-0.165-0.3223-0.3276-0.4873-0.4878C63.6279,22.96,57.1631,20,50.0039,20
		c-14.0654,0-25.4736,11.4067-25.4736,25.4697c0,7.2158,3.0176,13.7178,7.8457,18.3487c0.166,0.1679,0.331,0.3359,0.501,0.5
		c0.1611,0.163,0.3203,0.3281,0.4863,0.4863c0.166,0.168,0.331,0.3379,0.5019,0.501c0.1612,0.163,0.3203,0.3271,0.4854,0.4863
		c0.164,0.166,0.3262,0.334,0.4951,0.4951c0.166,0.168,0.3301,0.3369,0.5,0.5c0.1484,0.1504,0.2939,0.3037,0.4463,0.4502v3.9277
		c0,0,0.1768,0.002,0.4951-0.0214v0.5156c0,0,0.1758,0.0019,0.4932-0.0215v0.5166c0,0,0.1767,0.0019,0.4951-0.0215v0.5156
		c0,0,0.1767,0.002,0.4941-0.0214v0.5156c0,0,0.1768,0.0019,0.4951-0.0215v0.5166c0,0,0.1768,0.0019,0.4942-0.0215v0.5166
		c0,0,0.1767,0.002,0.4941-0.0215v0.1074l-2.1943,2.1973l0.9922-0.0039l-0.4981,0.4981l0.9922-0.004l-0.497,0.4981l0.9921-0.0039
		l-0.498,0.499l0.9922-0.0039l-0.4981,0.499l0.9922-0.0039l-0.497,0.4981l0.9921-0.0039l-0.498,0.498l0.9932-0.0039l-0.4981,0.499
		l0.9912-0.0039l-0.4971,0.4981l0.9922-0.0039l-0.498,0.499l0.9932-0.0039l-0.4981,0.498l0.9912-0.0039l-0.4971,0.4981
		l0.9922-0.0039l-0.498,0.498l0.9932-0.0039l-0.4981,0.499l0.9922-0.0039l-0.4971,0.4981l0.9912-0.0039l-0.498,0.499l0.9932-0.0039
		l-0.4981,0.498l0.9912-0.0039l-0.4971,0.4981l0.9932-0.0039l-0.498,0.498l0.9921-0.0039l-0.498,0.499l0.9922-0.0039l-0.4981,0.499
		l0.9932-0.0039l-0.498,0.4981l0.9921-0.0039l-0.498,0.498l0.9922-0.0039l-0.4981,0.499l0.9922-0.0039l-0.497,0.4981l0.9931-0.0039
		l-0.498,0.499l0.9922-0.0039l-0.4981,0.498l0.9922-0.0039l-0.498,0.4981l0.9921-0.0039l-0.498,0.498l0.9932-0.0039l-0.4981,0.499
		l0.9912-0.0039l-0.497,0.4981l0.9931-0.0039l-0.498,0.499l0.9922-0.0039l-0.4981,0.498l0.9922-0.0039l-0.498,0.4981l0.9931-0.0039
		l-0.498,0.499l0.9912-0.0039l-0.4971,0.498l0.9932-0.0039l-0.4981,0.499l0.9922-0.0039l-0.498,0.4981l0.9912-0.0039l-0.4971,0.498
		l0.9922-0.0039l-0.498,0.4981l0.9931-0.0039l-0.498,0.499l0.9922-0.0039l-0.4971,0.498l0.9922-0.0039l-0.4981,0.499l0.9922-0.0039
		l-0.498,0.4981l0.9912-0.0039l-0.4971,0.498l0.9932-0.0039l-0.4981,0.499l0.9912-0.0039l-0.3388,0.3389
		c20.04-4.0527,35.7207-20.0918,39.2675-40.3105c-0.1054-0.1055-0.2099-0.2129-0.3173-0.3174
		C98.75,58.207,98.584,58.041,98.416,57.8779z"/>
</g>
<g id="wreath-wreath">
	<path fill="#FC6E51" d="M45.1328,68.5078c-0.0664-0.1289-0.1094-0.2676-0.1094-0.4199v-6.8037
		c0-0.1358,0.0352-0.2666,0.0938-0.3916c0.1484-0.3125,0.4648-0.5401,0.8428-0.5401h8.2636c0.3702,0,0.6944,0.2276,0.8409,0.5401
		c0.0576,0.125,0.0888,0.2558,0.0888,0.3916v6.8037c0,0.1523-0.0361,0.291-0.1015,0.4199c-0.1514,0.2998-0.462,0.5147-0.8282,0.5147
		H45.96C45.5977,69.0225,45.2813,68.8076,45.1328,68.5078z M44.1055,60.6855c-1.9756-1.1914-5.2032-2.7294-8.3135-2.4716V71.165
		c0,0,3.3096,0.0713,8.3135-2.4746V60.6855z M56.0723,60.6543c0,0.0078,0.0058,0.0078,0.0058,0.0107v8.0479c0,0,0,0,0,0.0039
		c4.9746,2.5195,8.2657,2.4482,8.2657,2.4482V58.2139C61.2568,57.9561,58.0557,59.4736,56.0723,60.6543z M54.9736,69.8154h-9.7705
		c-0.4189,0-0.7773-0.2431-0.9648-0.5869l-7.1797,7.1875l6.7539-0.0264L46.0664,80l3.9024-9.3613L53.8633,80l2.2549-3.6104
		l6.7509,0.0264l-7.0244-7.0381C55.6445,69.6387,55.3301,69.8154,54.9736,69.8154z"/>
	<path fill="#8CC152" d="M75.4697,45.4697c0,8.1201-3.8144,15.3369-9.7343,20.003v-7.2588c0-0.7237-0.5528-1.3291-1.2745-1.3819
		c-3.3261-0.2812-6.6709,1.2041-8.9443,2.542c-0.2217-0.1533-0.4727-0.251-0.7334-0.3174c5.6397-2.0361,9.6777-7.414,9.6777-13.7519
		c0-8.0747-6.5488-14.6221-14.624-14.6221s-14.624,6.5474-14.624,14.6221c0,6.4316,4.1572,11.8789,9.9228,13.8379
		c-0.1709,0.0674-0.3398,0.1426-0.4912,0.2451c-2.2773-1.3467-5.625-2.8369-8.9707-2.5557
		c-0.7187,0.0528-1.2724,0.6582-1.2724,1.3819v7.3584c-5.9971-4.6582-9.8711-11.9229-9.8711-20.1026
		C24.5303,31.4067,35.9385,20,50.0039,20S75.4697,31.4067,75.4697,45.4697z"/>
	<g>
		<path fill="#FFFFFF" d="M32.8809,56.832c0-0.8906-0.7217-1.6133-1.6163-1.6133c-0.8867,0-1.6123,0.7227-1.6123,1.6133
			c0,0.8907,0.7256,1.6114,1.6123,1.6114C32.1592,58.4434,32.8809,57.7227,32.8809,56.832z"/>
		<path fill="#FFFFFF" d="M33.4961,45.2002c0-0.8945-0.7217-1.6123-1.6123-1.6123c-0.8936,0-1.6143,0.7178-1.6143,1.6123
			c0,0.8906,0.7207,1.6103,1.6143,1.6103C32.7744,46.8105,33.4961,46.0908,33.4961,45.2002z"/>
		<path fill="#FFFFFF" d="M33.8828,32.5498c0-0.897-0.7236-1.6201-1.6113-1.6201c-0.8906,0-1.6152,0.7231-1.6152,1.6201
			c0,0.8867,0.7246,1.606,1.6152,1.606C33.1592,34.1558,33.8828,33.4365,33.8828,32.5498z"/>
		<circle fill="#FFFFFF" cx="41.9765" cy="27.9253" r="1.6133"/>
		<path fill="#FFFFFF" d="M56.8203,24.2095c0-0.8931-0.7217-1.6138-1.6103-1.6138c-0.8907,0-1.6143,0.7207-1.6143,1.6138
			c0,0.8882,0.7236,1.6108,1.6143,1.6108C56.0986,25.8203,56.8203,25.0977,56.8203,24.2095z"/>
		<circle fill="#FFFFFF" cx="63.2021" cy="33.2451" r="1.6123"/>
		<path fill="#FFFFFF" d="M68.2168,54.5937c0-0.8906-0.7188-1.6132-1.6143-1.6132c-0.8906,0-1.6093,0.7226-1.6093,1.6132
			c0,0.8926,0.7187,1.6114,1.6093,1.6114C67.498,56.2051,68.2168,55.4863,68.2168,54.5937z"/>
		<path fill="#FFFFFF" d="M73.627,42.332c0-0.8896-0.7237-1.6103-1.6182-1.6103c-0.8867,0-1.6094,0.7207-1.6094,1.6103
			c0,0.8916,0.7227,1.6172,1.6094,1.6172C72.9033,43.9492,73.627,43.2236,73.627,42.332z"/>
	</g>
</g>
</svg>
