<?xml version="1.0" encoding="utf-8"?>
<!-- Generator: Adobe Illustrator 17.1.0, SVG Export Plug-In . SVG Version: 6.00 Build 0)  -->
<!DOCTYPE svg PUBLIC "-//W3C//DTD SVG 1.1//EN" "http://www.w3.org/Graphics/SVG/1.1/DTD/svg11.dtd">
<svg version="1.1" id="xmas-ball-2" xmlns="http://www.w3.org/2000/svg" xmlns:xlink="http://www.w3.org/1999/xlink" x="0px"
	 y="0px" viewBox="0 0 100 100" enable-background="new 0 0 100 100" xml:space="preserve">
<circle id="xmas-ball-2-label" fill="#FC6E51" cx="50" cy="50" r="50"/>
<g id="xmas-ball-2-shadow">
	<path fill="#E9573F" d="M97.8057,60.9404c-0.1534-0.1875-0.3164-0.3496-0.4903-0.4902c-0.1543-0.1904-0.3203-0.3545-0.4961-0.4971
		c-0.1543-0.1894-0.3203-0.3525-0.4951-0.4941c-0.1543-0.1895-0.3193-0.3535-0.4941-0.4951
		c-0.1543-0.1885-0.3194-0.3526-0.4942-0.4942c-0.1543-0.1894-0.3203-0.3525-0.4951-0.4941
		c-0.1543-0.1895-0.3193-0.3526-0.4941-0.4942c-0.1543-0.1894-0.3194-0.3525-0.4932-0.4941
		c-0.1553-0.1904-0.3213-0.3555-0.4971-0.4971c-0.1543-0.1884-0.3193-0.3515-0.4931-0.4931
		c-0.1543-0.1885-0.3194-0.3516-0.4932-0.4932c-0.1553-0.1904-0.3213-0.3545-0.4971-0.4961
		c-0.1542-0.1904-0.3203-0.3545-0.496-0.4961c-0.1524-0.1875-0.3165-0.3496-0.4893-0.4902
		c-0.1553-0.1904-0.3223-0.3555-0.4981-0.4981c-0.1542-0.1884-0.3183-0.3515-0.4921-0.4922
		c-0.1553-0.1904-0.3223-0.3554-0.4991-0.498c-0.1523-0.1865-0.3154-0.3486-0.4873-0.4883c-0.1562-0.1924-0.3232-0.3574-0.5-0.5
		c-0.1543-0.1894-0.3193-0.3525-0.4941-0.4931c-0.1543-0.1895-0.3184-0.3526-0.4932-0.4942
		c-0.1533-0.1875-0.3183-0.3506-0.4922-0.4912c-0.1552-0.1924-0.3222-0.3574-0.499-0.499
		c-0.1533-0.1895-0.3183-0.3526-0.4922-0.4932c-0.1552-0.1894-0.3203-0.3535-0.4961-0.4951
		c-0.1533-0.1895-0.3183-0.3525-0.4931-0.4941c-0.1553-0.1895-0.3213-0.3536-0.4971-0.4952
		c-0.1533-0.1884-0.3174-0.3515-0.4912-0.4921c-0.1543-0.1905-0.3203-0.3536-0.4951-0.4961
		c-0.1543-0.1895-0.3203-0.3536-0.4951-0.4942c-0.1543-0.1894-0.3194-0.3535-0.4942-0.4951
		c-0.1543-0.1885-0.3193-0.3516-0.4931-0.4932c-0.1553-0.1904-0.3213-0.3545-0.4971-0.4961
		c-0.1533-0.1894-0.3184-0.3525-0.4932-0.4941c-0.1543-0.1885-0.3193-0.3516-0.4931-0.4932
		c-0.1553-0.1904-0.3213-0.3545-0.4971-0.4961c-0.1543-0.1894-0.3194-0.3525-0.4932-0.4941
		c-0.1533-0.1875-0.3174-0.3506-0.4912-0.4912c-0.1562-0.1924-0.3232-0.3584-0.501-0.501
		c-0.1523-0.1865-0.3164-0.3486-0.4892-0.4883c-0.1553-0.1923-0.3223-0.3574-0.499-0.5c-0.1543-0.1884-0.3184-0.3515-0.4922-0.4921
		c-0.1543-0.1885-0.3184-0.3516-0.4932-0.4922c-0.1553-0.1914-0.3213-0.3565-0.498-0.4981
		c-0.1534-0.1885-0.3174-0.3515-0.4913-0.4922c-0.1552-0.1904-0.3212-0.3545-0.497-0.4961
		c-0.1543-0.1894-0.3184-0.3525-0.4932-0.4941c-0.1543-0.1885-0.3193-0.3525-0.4941-0.4941
		c-0.1543-0.1895-0.3194-0.3526-0.4952-0.4942c-0.1542-0.1894-0.3193-0.3535-0.4941-0.4951
		c-0.1553-0.1895-0.3213-0.3535-0.4971-0.4951c-0.1533-0.1885-0.3173-0.3516-0.4912-0.4922
		c-0.1543-0.1904-0.3203-0.3535-0.4951-0.4961c-0.1543-0.1885-0.3193-0.3525-0.4941-0.4932
		c-0.1543-0.1904-0.3203-0.3545-0.4961-0.4961c-0.1533-0.1884-0.3174-0.3505-0.4912-0.4912c-0.1553-0.1924-0.3223-0.3574-0.4991-0.5
		c-0.1533-0.1884-0.3183-0.3515-0.4921-0.4922c-0.1534-0.1875-0.3184-0.3505-0.4922-0.4921
		c-0.1553-0.1915-0.3223-0.3565-0.4991-0.4981c-0.1533-0.1885-0.3173-0.3516-0.4912-0.4922
		c-0.1552-0.1904-0.3213-0.3545-0.497-0.4961c-0.1543-0.1894-0.3184-0.3525-0.4932-0.4931
		c-0.1543-0.1905-0.3203-0.3536-0.4951-0.4952c-0.1543-0.1894-0.3184-0.3515-0.4932-0.4931
		c-0.1543-0.1904-0.3203-0.3535-0.4951-0.4961c-0.1553-0.1895-0.3213-0.3535-0.4971-0.4951
		c-0.1533-0.1885-0.3174-0.3516-0.4912-0.4922c-0.1543-0.1904-0.3203-0.3535-0.4951-0.4961
		c-0.1553-0.1895-0.3203-0.3535-0.4961-0.4951c-0.1494-0.1826-0.3086-0.3418-0.4775-0.4805
		c-1.7451-2.1728-4.9278-1.0947-7.5703,0.1172c-0.8936,0.4531-1.6573,1.0098-2.3526,1.624
		c-0.0742-0.0732-0.1533-0.1357-0.2305-0.2021c-0.1582-0.1797-0.3222-0.3457-0.4951-0.4961
		c-0.1582-0.1787-0.3213-0.3438-0.4941-0.4932c-0.1582-0.1797-0.3223-0.3457-0.4951-0.4961
		c-0.1573-0.1777-0.3203-0.3428-0.4922-0.4922c-0.1592-0.1797-0.3252-0.3476-0.499-0.498
		c-0.1563-0.1768-0.3194-0.3418-0.4903-0.4903c-0.1582-0.1796-0.3232-0.3466-0.4961-0.496
		c-0.1582-0.1797-0.3222-0.3458-0.4951-0.4952c-0.1572-0.1787-0.3213-0.3447-0.4931-0.4941
		c-0.1583-0.1787-0.3223-0.3447-0.4952-0.4951c-0.1582-0.1787-0.3232-0.3457-0.4961-0.4961
		c-0.1621-0.1817-0.3291-0.3506-0.5058-0.502c-1.2237-1.3691-2.8731-1.9443-4.9649-0.8955
		c-2.9209,1.499-2.3632,4.0449-0.9843,6.5977c0.5615,1.0254,1.7871,2.7988,3.166,4.1162c0.1777,0.1865,0.3574,0.3701,0.541,0.543
		c0.1592,0.1669,0.3203,0.3291,0.4844,0.4843c0.1631,0.1709,0.3291,0.3379,0.498,0.4981c0.1602,0.167,0.3223,0.3301,0.4863,0.4853
		c0.1641,0.1719,0.3301,0.3399,0.4991,0.4991c0.1611,0.1689,0.3242,0.333,0.4902,0.4902c0.165,0.1728,0.332,0.3418,0.502,0.5029
		c0.1601,0.168,0.3232,0.3311,0.4882,0.4873c0.1651,0.1739,0.333,0.3438,0.5039,0.5049c0.0196,0.0205,0.0381,0.041,0.0577,0.0615
		c-5.3125,6.5713-20.9903,10.8916-20.7217,21.0069c0.0752,2.8955,1.5127,5.206,3.6221,7.1904
		c0.165,0.1689,0.3281,0.3379,0.5029,0.5019c0.1611,0.1651,0.3203,0.3311,0.4902,0.4913c0.1602,0.163,0.3184,0.3281,0.4873,0.4873
		c0.167,0.1709,0.3321,0.3418,0.5078,0.5078c0.1612,0.164,0.3194,0.3281,0.4883,0.4883c0.1631,0.166,0.3233,0.332,0.4942,0.4941
		c0.163,0.166,0.3232,0.333,0.4951,0.4951c0.1631,0.1651,0.3222,0.332,0.4941,0.4932c0.1631,0.167,0.3242,0.3349,0.4971,0.497
		c0.1611,0.1651,0.3203,0.3311,0.4912,0.4913c0.1641,0.1679,0.3262,0.3369,0.5,0.5c0.1601,0.163,0.3164,0.3271,0.4853,0.4853
		c0.1641,0.168,0.3262,0.3369,0.4991,0.5c0.1621,0.1651,0.3222,0.332,0.4931,0.4932c0.1631,0.167,0.3252,0.3349,0.4981,0.497
		c0.1631,0.167,0.3232,0.334,0.4961,0.4961c0.1601,0.1631,0.3174,0.3282,0.4863,0.4873c0.1641,0.168,0.3271,0.337,0.501,0.5
		c0.1601,0.1641,0.3174,0.3282,0.4863,0.4873c0.166,0.17,0.3301,0.3409,0.5059,0.5059c0.1611,0.1641,0.3193,0.3291,0.4892,0.4893
		c0.1621,0.165,0.3213,0.331,0.4912,0.4912c0.1641,0.1679,0.3272,0.3369,0.501,0.5c0.1621,0.166,0.3233,0.333,0.4951,0.4951
		c0.1592,0.1631,0.3155,0.3262,0.4844,0.4844c0.165,0.1699,0.3291,0.3398,0.5049,0.5049c0.1592,0.163,0.3174,0.3281,0.4863,0.4863
		c0.1651,0.1699,0.3291,0.3398,0.5039,0.5049c0.1612,0.164,0.3194,0.3291,0.4893,0.4892c0.164,0.167,0.3261,0.335,0.499,0.4981
		c0.1602,0.1631,0.3164,0.3271,0.4854,0.4853c0.1621,0.166,0.3212,0.3321,0.4921,0.4932c0.1651,0.1689,0.3291,0.3398,0.5039,0.5039
		c0.1631,0.166,0.3243,0.333,0.4961,0.4951c0.1641,0.167,0.3252,0.3359,0.4991,0.4981c0.1572,0.1611,0.3125,0.3232,0.4785,0.4794
		c0.166,0.17,0.3301,0.3409,0.5058,0.5059c0.1592,0.1621,0.3155,0.3262,0.4834,0.4844c0.1661,0.1699,0.3301,0.3398,0.5059,0.5049
		c0.1621,0.166,0.3223,0.333,0.4941,0.4941c0.1631,0.166,0.3233,0.333,0.4952,0.4951c0.1591,0.1621,0.3154,0.3252,0.4834,0.4834
		c0.164,0.168,0.3271,0.3379,0.5009,0.502c0.1621,0.165,0.3223,0.332,0.4942,0.4931c0.1631,0.167,0.3242,0.335,0.497,0.4971
		c0.1621,0.166,0.3223,0.333,0.4942,0.4941c0.1611,0.1651,0.3213,0.3311,0.4922,0.4922c0.1621,0.1661,0.3232,0.334,0.4951,0.4961
		c0.1631,0.166,0.3232,0.3321,0.4941,0.4942c0.1631,0.166,0.3233,0.333,0.4951,0.4951c0.1641,0.167,0.3252,0.3349,0.4981,0.4971
		c0.1601,0.164,0.3183,0.3291,0.4873,0.4882c0.1641,0.167,0.3252,0.335,0.498,0.4981c0.1641,0.167,0.3252,0.334,0.4981,0.4971
		c0.1601,0.163,0.3183,0.3281,0.4873,0.4873c0.1641,0.1679,0.3262,0.3369,0.499,0.5c0.1631,0.166,0.3252,0.3339,0.4971,0.4961
		c0.1601,0.163,0.3174,0.3281,0.4863,0.4863c0.1651,0.1689,0.3272,0.3379,0.502,0.5019c0.1601,0.1641,0.3183,0.3291,0.4882,0.4893
		c0.1641,0.167,0.3262,0.3359,0.5,0.499c0.1641,0.167,0.3252,0.336,0.4991,0.4981c0.1582,0.1621,0.3144,0.3261,0.4824,0.4834
		c0.1641,0.1679,0.3262,0.3369,0.499,0.5c0.1631,0.166,0.3242,0.3339,0.4961,0.4961c0.1631,0.166,0.3233,0.332,0.4942,0.4941
		c0.164,0.167,0.3261,0.335,0.499,0.498c0.1601,0.1631,0.3164,0.3272,0.4853,0.4854c0.0244,0.0254,0.0508,0.0498,0.0752,0.0752
		c16.6299-5.2168,29.5069-18.8887,33.6192-35.9775c-0.0987-0.1026-0.1934-0.2129-0.2989-0.2989
		C98.1475,61.2461,97.9814,61.082,97.8057,60.9404z"/>
</g>
<g id="xmas-ball-2-xmas-ball-2">
	<path fill="#FFFFFF" d="M50.7686,34.1719c0.4121-0.2324,0.6953-0.6631,0.6953-1.1621c0-0.7207-0.5869-1.3047-1.3194-1.3311
		c-0.0029-0.0635-0.0127-0.1221-0.0127-0.1855c0,0.0615-0.0136,0.1201-0.0156,0.1816c-0.0098,0-0.0205-0.0029-0.0254-0.0029
		c-0.7588,0-1.376,0.5976-1.376,1.3379c0,0.5166,0.2998,0.957,0.7364,1.1836c-3.7647,7.542-22.0821,11.705-21.792,22.6289
		C27.9609,68.375,49.9209,70.6113,49.873,80c0.0479-9.3887,22.0342-11.3887,22.4649-22.9375
		C72.7422,46.123,54.418,41.7705,50.7686,34.1719z"/>
	<g>
		<path fill="#967ADC" d="M58.4238,47.4229c0.4776,0.4794,0.4737,1.249,0,1.7255c-0.4756,0.4717-7.834,6.0977-7.834,6.0977
			s5.6348-7.3477,6.1114-7.8232C57.1768,46.9463,57.9482,46.9473,58.4238,47.4229z"/>
		<path fill="#967ADC" d="M57.8271,53.4922c-0.2685,0.2695-0.7001,0.2695-0.9736,0c-0.2637-0.2695-0.2637-0.7031,0.0059-0.9668
			c0.2676-0.2715,0.6992-0.2715,0.9677-0.0029C58.0957,52.793,58.0957,53.2256,57.8271,53.4922z"/>
		<path fill="#967ADC" d="M56.0078,54.1621c-0.3398,0.127-5.1728,1.249-5.1728,1.249s4.375-2.3466,4.7119-2.4746
			c0.3359-0.124,0.7138,0.0479,0.8418,0.3799C56.5146,53.6562,56.3447,54.0332,56.0078,54.1621z"/>
		<circle fill="#967ADC" cx="53.3413" cy="48.6075" r="0.6855"/>
		<path fill="#967ADC" d="M52.8877,49.502c0.3281,0.1503,0.4727,0.538,0.3262,0.8652c-0.1514,0.3301-2.7793,4.543-2.7793,4.543
			s1.4394-4.754,1.5898-5.0821C52.168,49.5,52.5566,49.3525,52.8877,49.502z"/>
		<path fill="#967ADC" d="M50.0693,43.9043c0.6768,0,1.2207,0.5439,1.2207,1.2168c0,0.6738-1.2285,9.8535-1.2285,9.8535
			s-1.2109-9.1797-1.2109-9.8535C48.8506,44.4482,49.3994,43.9043,50.0693,43.9043z"/>
		<path fill="#967ADC" d="M48.5518,49.6602c0.1279,0.3398,1.2509,5.1757,1.2509,5.1757s-2.3447-4.374-2.4736-4.7129
			c-0.126-0.3378,0.0439-0.7158,0.3818-0.8437C48.0459,49.1523,48.4268,49.3223,48.5518,49.6602z"/>
		<path fill="#967ADC" d="M46.9131,47.8418c0.2715-0.2715,0.7051-0.2715,0.9736,0c0.2686,0.2656,0.2686,0.7012,0,0.9687
			c-0.2685,0.2657-0.7041,0.2657-0.9736-0.0019C46.6484,48.5391,46.6484,48.1055,46.9131,47.8418z"/>
		<path fill="#967ADC" d="M41.6777,47.3203c0.4737-0.4746,1.2452-0.4746,1.7237,0.002c0.4736,0.4765,6.0966,7.8339,6.0966,7.8339
			s-7.3476-5.6337-7.8222-6.1113C41.2002,48.5684,41.2012,47.7988,41.6777,47.3203z"/>
		<path fill="#967ADC" d="M49.3018,55.2324c0,0-4.753-1.4375-5.0801-1.5869c-0.3311-0.1475-0.4746-0.5342-0.3252-0.8643
			c0.1465-0.33,0.5322-0.4765,0.8642-0.3261C45.0898,52.6074,49.3018,55.2324,49.3018,55.2324z"/>
		<path fill="#967ADC" d="M43.6846,52.3262c0,0.3808-0.3067,0.6894-0.6826,0.6865c-0.3819,0-0.6875-0.3057-0.6875-0.6865
			c0-0.377,0.3076-0.6826,0.6875-0.6856C43.3799,51.6436,43.6846,51.9492,43.6846,52.3262z"/>
		<path fill="#967ADC" d="M38.1563,55.6719c0.0029-0.6719,0.5439-1.2168,1.2177-1.2168c0.6768,0,9.8555,1.2285,9.8555,1.2285
			s-9.1826,1.207-9.8555,1.207C38.7002,56.8906,38.1563,56.3457,38.1563,55.6719z"/>
		<path fill="#967ADC" d="M49.2295,55.8652c0,0-4.376,2.3477-4.7139,2.4746c-0.3388,0.1231-0.7177-0.0468-0.8427-0.3847
			c-0.128-0.336,0.0429-0.7149,0.3828-0.8438C44.3916,56.9863,49.2295,55.8652,49.2295,55.8652z"/>
		<circle fill="#967ADC" cx="42.7182" cy="58.2675" r="0.6867"/>
		<path fill="#967ADC" d="M41.5703,64.0664c-0.4726-0.4746-0.4726-1.248,0.0039-1.7246c0.4776-0.4727,7.8311-6.0977,7.8311-6.0977
			s-5.6299,7.3496-6.1094,7.8282C42.8203,64.5449,42.0479,64.5449,41.5703,64.0664z"/>
		<circle fill="#967ADC" cx="46.7192" cy="62.666" r="0.6856"/>
		<path fill="#967ADC" d="M47.1719,61.7715c-0.3272-0.1504-0.4727-0.5352-0.3233-0.8653c0.1475-0.3281,2.7735-4.539,2.7735-4.539
			s-1.4356,4.7519-1.5811,5.0801C47.8896,61.7754,47.502,61.9219,47.1719,61.7715z"/>
		<path fill="#967ADC" d="M49.9229,67.5879c-0.6719-0.0059-1.2149-0.5488-1.2149-1.2168c0-0.6777,1.2256-9.8535,1.2256-9.8535
			s1.2119,9.1797,1.2119,9.8554C51.1455,67.0449,50.5977,67.5898,49.9229,67.5879z"/>
		<path fill="#967ADC" d="M51.5068,61.6152c-0.1259-0.3418-1.25-5.1738-1.25-5.1738s2.3448,4.375,2.4727,4.7109
			c0.1289,0.3399-0.044,0.7168-0.3789,0.8418C52.0117,62.123,51.6367,61.9512,51.5068,61.6152z"/>
		<path fill="#967ADC" d="M53.1426,63.4336c-0.2666,0.2695-0.7022,0.2695-0.9678,0c-0.2666-0.2656-0.2666-0.6992,0-0.9668
			c0.2656-0.2715,0.7041-0.2695,0.9678,0C53.4131,62.7363,53.4131,63.168,53.1426,63.4336z"/>
		<path fill="#967ADC" d="M58.3203,64.1719c-0.4726,0.4765-1.249,0.4765-1.7246,0c-0.4736-0.4805-6.0986-7.836-6.0986-7.836
			s7.3506,5.6368,7.8252,6.1114C58.7988,62.9238,58.7939,63.6973,58.3203,64.1719z"/>
		<path fill="#967ADC" d="M50.7588,56.043c0,0,4.75,1.4375,5.085,1.5859c0.3222,0.1504,0.4716,0.5371,0.3222,0.8672
			c-0.1474,0.3242-0.539,0.4726-0.8662,0.3242C54.9678,58.6699,50.7588,56.043,50.7588,56.043z"/>
		<path fill="#967ADC" d="M56.373,58.9473c0-0.3809,0.3077-0.6836,0.6885-0.6836c0.3789,0,0.6846,0.3047,0.6846,0.6836
			c-0.002,0.3808-0.3066,0.6875-0.6846,0.6914C56.6807,59.6348,56.373,59.3281,56.373,58.9473z"/>
		<path fill="#967ADC" d="M60.6211,57.0391c-0.6748-0.002-9.8525-1.2305-9.8525-1.2305s9.1826-1.209,9.8554-1.209
			c0.6709,0,1.2149,0.5469,1.2149,1.2197C61.8389,56.4922,61.293,57.0391,60.6211,57.0391z"/>
	</g>
	<path fill="#FFCE54" d="M47.1855,32.9219l1.5977-0.1123c0.0186-0.0459,0.0303-0.0996,0.0479-0.1494
		c0.0293,0.0039,0.0605,0.0097,0.0898,0.0097c0.1426,0,0.2773-0.0254,0.4092-0.0683c4.4541-0.1016,16.376,0.7216,14.1308-5.3946
		c-1.4111-3.9043-5.2343-2.6582-8.3173-1.2441c-2.1993,1.1152-3.6329,2.833-5.1016,4.5918
		c-0.1992-0.2715-0.4981-0.4717-0.8467-0.541c0.0889-4.9727-2.4316-12.0332-7.5469-9.4688
		c-2.9209,1.499-2.3632,4.0449-0.9843,6.5977C41.6768,28.9922,44.8467,33.2773,47.1855,32.9219z M54.5703,27.585
		c1.9697-0.9053,4.4131-1.7022,5.3154,0.7939c1.542,4.2031-7.3857,3.2803-9.5898,3.4766l-0.0928-0.0489
		c0.003-0.0097,0.0078-0.0205,0.0088-0.0293C51.626,30.2725,52.6348,28.5625,54.5703,27.585z M43.0732,22.9844
		c3.7852-1.8994,5.6368,3.3769,5.544,7.0361c-0.6084,0.1357-1.0684,0.669-1.0684,1.3096c0,0.2617,0.0791,0.5049,0.2129,0.7109
		l-0.6201,0.043c-1.7207,0.2578-4.0508-2.8906-4.7939-4.2529C41.3311,25.958,40.9219,24.084,43.0732,22.9844z"/>
</g>
</svg>
