<?xml version="1.0" encoding="utf-8"?>
<!-- Generator: Adobe Illustrator 17.1.0, SVG Export Plug-In . SVG Version: 6.00 Build 0)  -->
<!DOCTYPE svg PUBLIC "-//W3C//DTD SVG 1.1//EN" "http://www.w3.org/Graphics/SVG/1.1/DTD/svg11.dtd">
<svg version="1.1" id="xmas-ball" xmlns="http://www.w3.org/2000/svg" xmlns:xlink="http://www.w3.org/1999/xlink" x="0px" y="0px"
	 viewBox="0 0 100 100" enable-background="new 0 0 100 100" xml:space="preserve">
<circle id="xmas-ball-label" fill="#FC6E51" cx="50" cy="50" r="50"/>
<g id="xmas-ball-shadow">
	<path fill="#E9573F" d="M97.2451,65.0986c-0.083-0.08-0.1797-0.1611-0.2832-0.2412c-0.0723-0.083-0.1318-0.1767-0.2109-0.2529
		c-0.083-0.0791-0.1787-0.1602-0.2813-0.2402c-0.0732-0.0831-0.1328-0.1778-0.2138-0.2549
		c-0.083-0.0801-0.1797-0.1612-0.2832-0.2412c-0.0723-0.083-0.1309-0.1768-0.211-0.253c-0.084-0.08-0.1797-0.1611-0.2832-0.2412
		c-0.0722-0.083-0.1318-0.1767-0.2109-0.2529c-0.084-0.0791-0.1797-0.1602-0.2822-0.2402c-0.0733-0.084-0.1329-0.1778-0.2129-0.2549
		c-0.083-0.0801-0.1797-0.1612-0.2842-0.2412c-0.0713-0.083-0.1309-0.1768-0.21-0.253c-0.083-0.08-0.1797-0.1611-0.2842-0.2412
		c-0.0722-0.083-0.1308-0.1767-0.2109-0.2529c-0.082-0.0791-0.1777-0.1592-0.2803-0.2393
		c-0.0732-0.0839-0.1328-0.1787-0.2138-0.2558c-0.083-0.0801-0.1797-0.1612-0.2832-0.2412c-0.0723-0.083-0.1319-0.1768-0.211-0.253
		c-0.083-0.0791-0.1787-0.1601-0.2812-0.2402c-0.0733-0.084-0.1328-0.1777-0.2129-0.2549c-0.084-0.0801-0.1807-0.1611-0.2852-0.2422
		c-0.0713-0.082-0.1308-0.1757-0.2099-0.2519c-0.083-0.0801-0.1787-0.1612-0.2832-0.2412c-0.0713-0.083-0.1319-0.1768-0.211-0.253
		c-0.083-0.0791-0.1787-0.1601-0.2822-0.2402c-0.0723-0.084-0.1318-0.1777-0.2129-0.2549c-0.083-0.0801-0.1797-0.1611-0.2832-0.2412
		c-0.0723-0.083-0.1318-0.1767-0.2109-0.2529c-0.083-0.0791-0.1778-0.1602-0.2813-0.2393c-0.0722-0.084-0.1328-0.1787-0.2129-0.2558
		c-0.084-0.0801-0.1797-0.1602-0.2832-0.2412c-0.0722-0.0831-0.1328-0.1768-0.2119-0.253c-0.083-0.0801-0.1787-0.1601-0.2822-0.2412
		c-0.0723-0.083-0.1328-0.1767-0.2119-0.2529c-0.083-0.0791-0.1787-0.1602-0.2823-0.2403
		c-0.0722-0.0839-0.1318-0.1777-0.2128-0.2548c-0.0831-0.0801-0.1797-0.1612-0.2833-0.2422
		c-0.0722-0.083-0.1318-0.1758-0.2109-0.252c-0.084-0.0801-0.1797-0.1611-0.2832-0.2412c-0.0723-0.083-0.1318-0.1767-0.2109-0.2529
		c-0.084-0.0791-0.1797-0.1602-0.2823-0.2403C87,54.8848,86.9404,54.791,86.8604,54.7139
		c-0.0831-0.0801-0.1788-0.1602-0.2833-0.2412c-0.0712-0.0831-0.1318-0.1768-0.2109-0.253
		c-0.083-0.0801-0.1797-0.1611-0.2842-0.2412c-0.0713-0.083-0.1308-0.1767-0.2109-0.2529c-0.082-0.0791-0.1777-0.1602-0.2813-0.2402
		c-0.0722-0.084-0.1328-0.1778-0.2128-0.2549c-0.084-0.0801-0.1797-0.1602-0.2832-0.2412c-0.0723-0.0831-0.1309-0.1768-0.211-0.253
		c-0.082-0.0791-0.1777-0.1592-0.2803-0.2392c-0.0732-0.084-0.1337-0.1787-0.2138-0.2559c-0.084-0.0801-0.1807-0.1621-0.2852-0.2422
		c-0.0722-0.083-0.1308-0.1758-0.2099-0.2519c-0.0831-0.0801-0.1788-0.1602-0.2823-0.2412c-0.0722-0.083-0.1328-0.1768-0.2119-0.253
		c-0.083-0.08-0.1797-0.1611-0.2842-0.2412c-0.0713-0.083-0.1308-0.1767-0.2109-0.2529c-0.082-0.0791-0.1777-0.1602-0.2813-0.2402
		c-0.0722-0.084-0.1328-0.1778-0.2128-0.2549c-0.0831-0.0791-0.1778-0.1592-0.2813-0.2393
		c-0.0723-0.084-0.1328-0.1787-0.2129-0.2558c-0.084-0.0801-0.1806-0.1622-0.2851-0.2432c-0.0723-0.082-0.1309-0.1748-0.21-0.251
		c-0.083-0.0801-0.1787-0.1601-0.2822-0.2412c-0.0723-0.083-0.1328-0.1768-0.2119-0.2529c-0.083-0.0801-0.1797-0.1612-0.2842-0.2412
		c-0.0713-0.083-0.1309-0.1768-0.211-0.253c-0.082-0.0791-0.1777-0.1601-0.2812-0.2402c-0.0723-0.084-0.1328-0.1777-0.2129-0.2549
		c-0.083-0.0791-0.1777-0.1592-0.2812-0.2392c-0.0723-0.084-0.1329-0.1788-0.2129-0.2559c-0.084-0.0801-0.1797-0.1611-0.2852-0.2422
		c-0.0713-0.083-0.1309-0.1758-0.21-0.2519c-0.083-0.0791-0.1787-0.1602-0.2822-0.2403c-0.0722-0.084-0.1328-0.1777-0.2119-0.2539
		c-0.083-0.0801-0.1797-0.1611-0.2842-0.2412c-0.0722-0.083-0.1308-0.1768-0.2109-0.2529c-0.083-0.0801-0.1797-0.1612-0.2832-0.2422
		c-0.0723-0.082-0.1319-0.1758-0.211-0.252c-0.083-0.0791-0.1787-0.1601-0.2812-0.2402c-0.0723-0.084-0.1328-0.1777-0.2129-0.2549
		c-0.083-0.0801-0.1797-0.1601-0.2832-0.2402c-0.0723-0.084-0.1318-0.1787-0.2119-0.2549c-0.083-0.0801-0.1787-0.1602-0.2832-0.2412
		c-0.0713-0.083-0.1319-0.1768-0.211-0.2529c-0.083-0.0801-0.1787-0.1602-0.2822-0.2403c-0.0722-0.084-0.1318-0.1777-0.2119-0.2539
		c-0.084-0.0801-0.1807-0.1611-0.2842-0.2422c-0.0722-0.083-0.1318-0.1757-0.2109-0.2519c-0.083-0.0791-0.1777-0.1592-0.2813-0.2393
		c-0.0722-0.084-0.1328-0.1787-0.2129-0.2558c-0.083-0.0791-0.1777-0.1592-0.2812-0.2393c-0.0723-0.084-0.1328-0.1787-0.2129-0.2559
		c-0.084-0.08-0.1816-0.1621-0.2851-0.2431c-0.0723-0.0821-0.1309-0.1758-0.21-0.251c-0.083-0.0801-0.1787-0.1602-0.2822-0.2412
		c-0.0723-0.083-0.1328-0.1768-0.212-0.2529c-0.083-0.0801-0.1796-0.1612-0.2841-0.2412c-0.0723-0.0831-0.1309-0.1768-0.211-0.253
		c-0.082-0.0791-0.1777-0.1601-0.2812-0.2402c-0.0723-0.084-0.1328-0.1777-0.2129-0.2549c-0.083-0.0791-0.1777-0.1592-0.2813-0.2393
		c-0.0722-0.0839-0.1328-0.1787-0.2128-0.2558c-0.084-0.0801-0.1797-0.1611-0.2852-0.2422c-0.0713-0.083-0.1309-0.1758-0.209-0.252
		c-0.084-0.08-0.1807-0.1611-0.2851-0.2421c-0.0713-0.083-0.1309-0.1758-0.21-0.252c-0.083-0.0801-0.1797-0.1611-0.2842-0.2412
		c-0.0713-0.083-0.1308-0.1768-0.2109-0.2529c-0.0821-0.0791-0.1778-0.1602-0.2813-0.2403
		c-0.0722-0.084-0.1328-0.1777-0.2129-0.2549c-0.0839-0.08-0.1797-0.1611-0.2832-0.2412c-0.0722-0.083-0.1308-0.1767-0.2109-0.2529
		c-0.083-0.0791-0.1777-0.1592-0.2813-0.2392c-0.0722-0.084-0.1328-0.1788-0.2128-0.2559c-0.084-0.0801-0.1807-0.1621-0.2852-0.2432
		c-0.0723-0.082-0.1309-0.1758-0.21-0.2509c-0.083-0.0801-0.1787-0.1602-0.2822-0.2413c-0.0723-0.083-0.1328-0.1767-0.2119-0.2529
		c-0.084-0.0801-0.1807-0.1611-0.2842-0.2422c-0.0722-0.083-0.1318-0.1758-0.2109-0.2519c-0.083-0.0791-0.1778-0.1602-0.2813-0.2393
		c-0.0722-0.084-0.1328-0.1787-0.2129-0.2558c-0.083-0.0791-0.1777-0.1592-0.2812-0.2393c-0.0723-0.084-0.1328-0.1787-0.2129-0.2559
		c-0.084-0.08-0.1807-0.1621-0.2852-0.2431c-0.0722-0.0821-0.1308-0.1758-0.2099-0.251c-0.083-0.0801-0.1787-0.1602-0.2822-0.2412
		c-0.0723-0.083-0.1329-0.1768-0.212-0.2529c-0.0839-0.0801-0.1806-0.1612-0.2841-0.2422c-0.0723-0.083-0.1319-0.1758-0.211-0.252
		c-0.082-0.0791-0.1777-0.1592-0.2793-0.2383c-0.0732-0.0849-0.1338-0.1797-0.2148-0.2568
		c-0.083-0.0801-0.1797-0.1611-0.2832-0.2422c-0.0723-0.083-0.1319-0.1758-0.211-0.2519c-0.083-0.0791-0.1787-0.1602-0.2822-0.2403
		c-0.0723-0.084-0.1318-0.1777-0.2119-0.2549c-0.084-0.08-0.1807-0.1611-0.2852-0.2421c-0.0722-0.0831-0.1308-0.1758-0.2099-0.252
		c-0.083-0.0801-0.1797-0.1611-0.2842-0.2412c-0.0723-0.083-0.1309-0.1768-0.2109-0.2529
		c-0.0821-0.0791-0.1778-0.1592-0.2803-0.2393c-0.0732-0.084-0.1328-0.1787-0.2139-0.2559c-0.083-0.08-0.1797-0.1611-0.2832-0.2412
		c-0.0722-0.083-0.1318-0.1767-0.2109-0.2529c-0.083-0.0791-0.1787-0.1602-0.2813-0.2402c-0.0732-0.084-0.1328-0.1778-0.2129-0.2549
		c-0.0839-0.0801-0.1806-0.1612-0.2851-0.2422c-0.0713-0.083-0.1309-0.1758-0.21-0.252c-0.083-0.08-0.1797-0.1611-0.2842-0.2412
		c-0.0722-0.083-0.1308-0.1767-0.2109-0.2529c-0.082-0.0791-0.1777-0.1592-0.2803-0.2393
		c-0.0732-0.0839-0.1328-0.1787-0.2138-0.2558c-0.084-0.0801-0.1797-0.1621-0.2842-0.2422c-0.0713-0.083-0.1309-0.1758-0.21-0.252
		c-0.084-0.08-0.1797-0.1601-0.2832-0.2412c-0.0722-0.083-0.1308-0.1767-0.2109-0.2529c-0.084-0.0801-0.1797-0.1611-0.2832-0.2412
		c-0.0723-0.083-0.1319-0.1777-0.2119-0.2539c-0.083-0.0801-0.1787-0.1602-0.2832-0.2412c-0.0713-0.083-0.1319-0.1768-0.211-0.253
		c-0.083-0.08-0.1787-0.1601-0.2822-0.2412c-0.0723-0.083-0.1328-0.1767-0.2119-0.2529c-0.083-0.0801-0.1787-0.1602-0.2822-0.2402
		c-0.0723-0.084-0.1328-0.1787-0.2129-0.2549c-0.083-0.0801-0.1797-0.1611-0.2832-0.2412c-0.0723-0.083-0.1309-0.1768-0.211-0.253
		c-0.083-0.0791-0.1777-0.1601-0.2812-0.2402c-0.0723-0.083-0.1328-0.1777-0.2129-0.2549c-0.084-0.08-0.1807-0.1611-0.2852-0.2422
		c-0.0713-0.083-0.1308-0.1757-0.2099-0.2519c-0.083-0.0801-0.1787-0.1602-0.2823-0.2402c-0.0722-0.084-0.1318-0.1778-0.2119-0.254
		c-0.083-0.0791-0.1787-0.1601-0.2822-0.2402c-0.0723-0.084-0.1328-0.1777-0.2129-0.2549c-0.082-0.0791-0.1777-0.1591-0.2803-0.2392
		c-0.0732-0.084-0.1337-0.1787-0.2138-0.2549c-0.5908-0.5703-1.6836-1.2109-3.5137-1.0674
		c-2.3096,0.1865-3.6133,1.3691-3.8769,3.5205c-0.044,0.3789,0.1875,0.7139,0.5332,0.8389
		c0.0761,0.2314,0.2583,0.4092,0.4941,0.4941c0.0762,0.2324,0.2588,0.4102,0.4951,0.4951c0.0762,0.2315,0.2588,0.4092,0.4946,0.4942
		c0.0762,0.2314,0.2583,0.4092,0.4937,0.4941c0.0762,0.2324,0.2593,0.4102,0.4956,0.4951c0.062,0.1885,0.188,0.3506,0.3618,0.4502
		l-0.2207,0.8096l-0.0049,2.626h-4.0302v5.3564C35.1006,38.3818,27.748,47.1973,27.748,57.748
		c0,6.2686,2.5967,11.9288,6.7686,15.9727c0.1631,0.1689,0.3291,0.335,0.4971,0.498c0.1631,0.168,0.3286,0.3331,0.497,0.4961
		c0.1626,0.168,0.3282,0.3331,0.4961,0.4961c0.1597,0.1651,0.3213,0.3262,0.4859,0.4864c0.1645,0.1699,0.3315,0.3369,0.5014,0.5009
		c0.1612,0.1661,0.3247,0.3301,0.4908,0.4913c0.1626,0.1669,0.3271,0.332,0.4946,0.4951c0.1611,0.166,0.3252,0.3291,0.4912,0.4902
		c0.1646,0.1699,0.3315,0.3369,0.501,0.502c0.1631,0.1679,0.3291,0.333,0.4971,0.4961c0.1611,0.166,0.3251,0.33,0.4912,0.4912
		c0.1606,0.166,0.3242,0.3291,0.4902,0.4902c0.1636,0.1689,0.3296,0.335,0.498,0.498c0.1622,0.168,0.3272,0.3331,0.4947,0.4952
		c0.1616,0.167,0.3261,0.331,0.4926,0.4921c0.1622,0.168,0.3262,0.3321,0.4932,0.4942c0.1641,0.1689,0.3301,0.3349,0.499,0.499
		c0.1621,0.167,0.3262,0.3311,0.4932,0.4922c0.1636,0.1689,0.3301,0.335,0.499,0.499c0.1587,0.1641,0.3203,0.3252,0.4844,0.4844
		c0.1641,0.1689,0.3306,0.3359,0.5,0.5c0.1621,0.168,0.3271,0.332,0.4946,0.4951c0.1616,0.167,0.3262,0.3311,0.4927,0.4932
		c0.1641,0.1689,0.3311,0.3349,0.5,0.499c0.1611,0.166,0.3247,0.3301,0.4907,0.4912c0.1607,0.1651,0.3233,0.3281,0.4888,0.4883
		c0.165,0.1699,0.3325,0.3379,0.5029,0.5029c0.1602,0.1651,0.3228,0.3281,0.4883,0.4883c0.1641,0.1699,0.3311,0.3359,0.5,0.5
		c0.1602,0.165,0.3223,0.3272,0.4873,0.4873c0.1641,0.1699,0.3311,0.3369,0.501,0.501c0.1631,0.1689,0.3286,0.334,0.4971,0.4971
		c0.1596,0.165,0.3212,0.3261,0.4858,0.4863c0.1636,0.1689,0.3306,0.3349,0.4985,0.499c0.1621,0.167,0.3272,0.3311,0.4942,0.4932
		c0.1631,0.1679,0.3281,0.334,0.4961,0.4961c0.1611,0.167,0.3252,0.33,0.4912,0.4922c0.1631,0.1679,0.3291,0.333,0.497,0.496
		c0.1631,0.169,0.3291,0.335,0.4981,0.4981c0.1621,0.168,0.3271,0.333,0.4951,0.4951c0.1592,0.1641,0.3193,0.3252,0.4834,0.4834
		c0.165,0.1709,0.333,0.3389,0.5039,0.5039c0.1602,0.166,0.3233,0.3281,0.4883,0.4893c0.166,0.1699,0.333,0.3379,0.5039,0.5029
		c0.1602,0.165,0.3223,0.3272,0.4863,0.4873c0.1621,0.167,0.3262,0.3311,0.4932,0.4932c0.165,0.1699,0.332,0.3369,0.501,0.5009
		c0.1631,0.167,0.3281,0.3321,0.4951,0.4942c0.1601,0.165,0.3223,0.3271,0.4873,0.4873c0.1641,0.1689,0.3301,0.3359,0.499,0.499
		c0.1631,0.168,0.3291,0.334,0.4971,0.4971c0.0273,0.0283,0.0547,0.0547,0.082,0.083C77.6416,95.4785,92.0371,82.46,97.5586,65.4395
		c-0.0352-0.0293-0.0645-0.0577-0.1016-0.087C97.3848,65.2695,97.3252,65.1748,97.2451,65.0986z"/>
</g>
<g id="xmas-ball-xmas-ball">
	<path fill="#FFFFFF" d="M54.8457,36.042v-5.3037H50.585v-2.7412c-0.0118-0.0117,0.3457-0.1299,0.3457-0.1299
		c1.4082-0.2012,3.3906-1.6367,3.4609-3.8115c0.0381-1.1524-0.3828-2.2334-1.1572-2.9678
		c-0.5908-0.5703-1.6836-1.2109-3.5137-1.0674c-2.3096,0.1865-3.6133,1.3691-3.8769,3.5205
		c-0.0508,0.4395,0.2587,0.8389,0.7011,0.8945c0.4385,0.0528,0.8389-0.2626,0.8936-0.7011c0.1201-1.0069,0.5-1.96,2.4111-2.1153
		c0.9766-0.0761,1.7666,0.1407,2.2764,0.628c0.4414,0.4218,0.6855,1.0605,0.6631,1.7549c-0.044,1.2304-1.2412,2.1562-2.083,2.2763
		c-0.6377,0.0899-1.1153,0.3408-1.418,0.7442l-0.2969,1.0898l-0.0049,2.626h-4.0302v5.3564
		C35.1006,38.3818,27.748,47.1973,27.748,57.748C27.748,70.0361,37.7119,80,49.999,80c12.2881,0,22.252-9.9639,22.252-22.252
		C72.251,47.127,64.8027,38.2588,54.8457,36.042z"/>
	<polygon fill="#FFCE54" points="57.7246,65.2988 51.9932,62.2725 50.0811,77.3057 48.1699,62.2725 42.5039,65.2354 
		45.4697,59.5684 35.8252,57.6562 45.4697,55.7461 42.5684,50.1436 48.1699,53.0449 50.0811,38.2676 51.9932,53.0449 
		58.1104,49.6309 54.6953,55.7461 64.3418,57.6562 54.6953,59.5684 	"/>
	<polygon fill="#FFCE54" points="34.2998,47.3896 36.3096,46.9902 35.707,45.8232 36.873,46.4287 37.2715,43.3447 37.6729,46.4287 
		38.9453,45.7139 38.2344,46.9902 40.2432,47.3896 38.2344,47.7871 38.8652,48.9834 37.6729,48.3535 37.2715,51.4854 
		36.873,48.3535 35.6934,48.9707 36.3096,47.7871 	"/>
	<polygon fill="#FFCE54" points="66.6484,54.4521 66.249,57.585 65.8486,54.4521 64.667,55.0674 65.2861,53.8877 63.2725,53.4893 
		65.2861,53.0898 64.6816,51.9238 65.8486,52.5273 66.249,49.4473 66.6484,52.5273 67.9189,51.8145 67.2109,53.0898 
		69.2207,53.4893 67.2109,53.8877 67.8408,55.0811 	"/>
</g>
</svg>
