<?xml version="1.0" encoding="utf-8"?>
<!-- Generator: Adobe Illustrator 17.1.0, SVG Export Plug-In . SVG Version: 6.00 Build 0)  -->
<!DOCTYPE svg PUBLIC "-//W3C//DTD SVG 1.1//EN" "http://www.w3.org/Graphics/SVG/1.1/DTD/svg11.dtd">
<svg version="1.1" id="xmas-tree" xmlns="http://www.w3.org/2000/svg" xmlns:xlink="http://www.w3.org/1999/xlink" x="0px" y="0px"
	 viewBox="0 0 100 100" enable-background="new 0 0 100 100" xml:space="preserve">
<circle id="xmas-tree-label" fill="#FFCE54" cx="50" cy="50" r="50"/>
<g id="xmas-tree-shadow">
	<path fill="#F6BB42" d="M97.2598,65.2012l-0.8731-0.1162l0.3789-0.378l-0.874-0.1162l0.3799-0.3789l-0.874-0.1162l0.3789-0.3779
		l-0.8731-0.1162l0.3789-0.378l-0.874-0.1162l0.3789-0.3789l-0.873-0.1152l0.3789-0.3789l-0.8731-0.1162l0.3789-0.378l-0.874-0.1172
		l0.3789-0.3769l-0.873-0.1172l0.3789-0.3779l-0.8741-0.1162l0.379-0.3789l-0.8731-0.1153l0.3789-0.3789l-0.873-0.1162
		l0.3789-0.3779l-0.875-0.1162l0.3799-0.3789l-0.8731-0.1163l0.3789-0.3779l-0.873-0.1162l0.3789-0.3789l-0.874-0.1152
		l0.3789-0.3789l-0.8731-0.1162l0.3789-0.378l-0.873-0.1162l0.3789-0.3779l-0.874-0.1172l0.3789-0.3779l-0.8731-0.1162l0.3789-0.378
		l-0.874-0.1162l0.3789-0.3789l-0.873-0.1152l0.3789-0.3789l-0.8731-0.1162l0.3789-0.378l-0.874-0.1162l0.3799-0.3789l-0.874-0.1162
		l0.3789-0.3779l-0.875-0.1162l0.3798-0.379l-0.873-0.1152l0.3789-0.3789l-0.873-0.1162l0.3789-0.3779L82.54,51.2383l0.3789-0.3775
		l-0.873-0.1162l0.3789-0.3784l-0.874-0.1162l0.3789-0.3779l-0.8731-0.1162l0.3789-0.3785l-0.873-0.1162l0.3789-0.3784
		l-0.874-0.1162l0.3789-0.3784l-0.8731-0.1162l0.3789-0.3784l-0.873-0.1163l0.3789-0.3779l-0.874-0.1162l0.3789-0.3784
		l-0.8731-0.1162l0.379-0.3784l-0.8731-0.1163l0.3789-0.3779l-0.874-0.1162l0.3789-0.3784l-0.8731-0.1162l0.379-0.3784
		l-0.8741-0.1163l0.3789-0.3784l-0.873-0.1162l0.3789-0.3784l-0.8731-0.1162l0.379-0.3779l-0.8741-0.1163l0.3799-0.3789
		l-0.874-0.1162l0.3789-0.3779l-0.874-0.1162l0.3789-0.3779l-0.874-0.1163l0.3798-0.3789l-0.873-0.1162l0.3789-0.3779l-0.873-0.1162
		l0.3789-0.3779l-0.8731-0.1162l0.3789-0.3785l-0.874-0.1162l0.3789-0.3784l-0.874-0.1162l0.3789-0.3784l-0.8731-0.1162
		l0.3789-0.3785l-0.873-0.1162l0.3789-0.3784l-0.874-0.1162l0.3789-0.3784l-0.8731-0.1162l0.3789-0.378l-0.873-0.1162l0.3789-0.3779
		l-0.875-0.1162l0.3799-0.3789l-0.8731-0.1162l0.3789-0.378l-0.874-0.1162l0.3789-0.3784l-0.873-0.1162l0.3789-0.3784
		l-0.8731-0.1162l0.3789-0.3784l-0.874-0.1162l0.3789-0.378l-0.873-0.1162l0.3789-0.3784l-0.8731-0.1162l0.3789-0.3784
		l-0.874-0.1162l0.3789-0.3785l-0.873-0.1162l0.3789-0.3779l-0.874-0.1162l0.3789-0.3789l-0.8731-0.1162l0.3789-0.378l-0.873-0.1162
		l0.3789-0.3779l-0.8731-0.1162l0.379-0.3784l-0.8741-0.1162l0.3789-0.3785l-0.873-0.1162l0.3789-0.3784l-0.874-0.1162
		l0.3789-0.3779l-0.874-0.1162l0.3798-0.3789l-0.873-0.1163l0.3789-0.3779l-0.874-0.1162l0.3789-0.3784l-0.8731-0.1162l0.3789-0.378
		l-0.874-0.1162l0.3799-0.3789l-0.874-0.1162l0.3789-0.3779l-2.6416-0.3516l-0.1758-0.3442l-0.1172,0.2456l-0.3769-0.7402
		l-0.1182,0.246l-0.376-0.7402l-0.1181,0.2466l-0.377-0.7412l-0.1172,0.2456l-0.3769-0.7402l-0.1172,0.2456l-0.377-0.7403
		l-0.1181,0.2466l-0.377-0.7412l-0.1172,0.2456l-0.3769-0.7402l-0.1182,0.2466l-0.377-0.7408l-0.1171,0.2456L49.9375,20
		l-2.1719,4.5371l-4.9668,0.7842l0.5157,0.4907l-0.0206,0.0034l0.5166,0.4917l-0.0224,0.0034l0.5156,0.4908l-0.0215,0.0034
		l0.5166,0.4912l-0.0215,0.0034l0.5157,0.4912l-0.0215,0.0034l0.5156,0.4908l-0.0215,0.0034l0.5157,0.4912l-0.0215,0.0034
		l0.1582,0.1509l-0.7657,4.8223l0.628-0.3399l-0.1328,0.8345l0.6269-0.3394l-0.1328,0.8335l0.627-0.3393l-0.1329,0.8344
		l0.628-0.3398l-0.1328,0.834l0.6269-0.3394l-0.1328,0.834l0.042-0.0224L36.248,51.6475h0.877l-0.3818,0.4951h0.8759l-0.3818,0.4941
		h0.876l-0.3819,0.4942h0.875l-0.3808,0.4941h0.8769l-0.3818,0.4941h0.8106l-9.2481,11.9834h0.877l-0.3819,0.4952h0.876
		l-0.3818,0.4941h0.8759l-0.3818,0.4941h0.876l-0.3819,0.4942h0.877l-0.3818,0.4951h0.875L33.25,69.0693h0.877l-0.3819,0.4952
		h0.5733L26.2637,80h0.8759l-0.3818,0.4941h0.877l-0.3819,0.4952h0.876l-0.3818,0.4941h0.8759l-0.3818,0.4951h0.877l-0.3819,0.4942
		h0.876l-0.3818,0.4941h0.8759l-0.3818,0.4941h0.877l-0.3819,0.4952h0.876l-0.3818,0.4951h0.8769l-0.3818,0.4941h0.876
		l-0.3819,0.4942h0.875l-0.3808,0.4941h0.8769l-0.3818,0.4951h0.876l-0.3819,0.4942h0.877l-0.3819,0.4951h0.876l-0.3818,0.4941
		h0.876l-0.3819,0.4941h0.877l-0.3819,0.4952h0.876l-0.3818,0.4941h0.876l-0.3819,0.4951h0.877l-0.3819,0.4942h0.876l-0.3818,0.4941
		h0.8769l-0.3818,0.4941h0.876l-0.3819,0.4952h0.876l-0.3818,0.4941h0.8769l-0.3818,0.4951h0.876l-0.3819,0.4942h0.877
		l-0.3818,0.4941h0.8759l-0.3818,0.4951h0.876l-0.3819,0.4942h0.877l-0.3818,0.4951h0.8759l-0.3818,0.4941h0.876l-0.3819,0.4942
		h0.876l-0.3818,0.4951h0.8769l-0.3818,0.4941h0.8769l-0.3818,0.4951h0.876l-0.3819,0.4942h0.876l-0.3818,0.4941h0.875
		l-0.3809,0.4942h0.877l-0.3819,0.4951h0.877l-0.085,0.1103C47.8838,99.9551,48.9365,100,50,100
		c22.1416,0,40.9111-14.3994,47.4844-34.3398l-0.6035-0.0801L97.2598,65.2012z"/>
</g>
<g id="xmas-tree-xmas-tree">
	<polygon fill="#8CC152" points="73.7383,80 63.0117,66.1025 69.7188,66.1025 58.5625,51.6475 63.7539,51.6475 50.002,33.8281 
		36.248,51.6475 41.4395,51.6475 30.2832,66.1025 36.9902,66.1025 26.2637,80 	"/>
	<polygon fill="#FFFFFF" points="45.6523,33.7559 50.0742,31.3613 54.5547,33.6484 53.6445,28.7002 57.2051,25.1465 
		52.2188,24.4834 49.9375,20 47.7656,24.5371 42.7988,25.3213 46.4414,28.7881 	"/>
</g>
</svg>
