<?xml version="1.0" encoding="utf-8"?>
<!-- Generator: Adobe Illustrator 17.1.0, SVG Export Plug-In . SVG Version: 6.00 Build 0)  -->
<!DOCTYPE svg PUBLIC "-//W3C//DTD SVG 1.1//EN" "http://www.w3.org/Graphics/SVG/1.1/DTD/svg11.dtd">
<svg version="1.1" id="arrow-graphs" xmlns="http://www.w3.org/2000/svg" xmlns:xlink="http://www.w3.org/1999/xlink" x="0px"
	 y="0px" viewBox="0 0 1006.797 1010.0045" enable-background="new 0 0 1006.797 1010.0045" xml:space="preserve">
<g id="arrow-graphs-arrow-graphs">
	<path fill="#B4BB4A" d="M544.5177,193.6744h37.5215v647.3808h104.0782V193.6744h37.5214c17.3643,0,24.4112-12.2671,15.7813-27.2676
		L649.8293,11.2657c-8.6719-15.021-22.8506-15.021-31.5215,0l-89.5713,155.1411
		C520.0446,181.4073,527.154,193.6744,544.5177,193.6744z"/>
	<path fill="#58595B" d="M993.0304,913.4888h-44.4267V375.0357h37.5224c17.3829,0,24.4727-12.2881,15.7813-27.3091
		l-89.5508-155.1411c-8.6719-15.0415-22.8497-15.0415-31.5215,0l-89.5508,155.1411c-8.6718,15.021-1.623,27.3091,15.7403,27.3091
		h37.5215v538.4531H686.1174v-43.3164H582.0392v43.3164H423.569V570.1021h37.5425c17.3428,0,24.4526-12.287,15.7812-27.3086
		L387.342,387.6524c-8.7124-15.0005-22.8907-15.0005-31.542,0l-89.5708,155.1411c-8.6714,15.0215-1.6026,27.3086,15.7402,27.3086
		h37.5215v343.3867H161.0622V710.1002h37.542c17.3632,0,24.4116-12.2676,15.7812-27.3106l-89.6118-155.1191
		c-8.6304-15.002-22.8501-15.002-31.5215,0L3.7018,682.7896c-8.6719,15.043-1.5825,27.3106,15.7813,27.3106h37.5215v203.3886
		H13.7702c-7.6026,0-13.7671,6.1426-13.7671,13.7461v69.002c0,7.623,6.1645,13.7676,13.7671,13.7676h979.2602
		c7.6016,0,13.7666-6.1446,13.7666-13.7676v-69.002C1006.797,919.6314,1000.632,913.4888,993.0304,913.4888z"/>
</g>
</svg>
