<?xml version="1.0" encoding="utf-8"?>
<!-- Generator: Adobe Illustrator 17.1.0, SVG Export Plug-In . SVG Version: 6.00 Build 0)  -->
<!DOCTYPE svg PUBLIC "-//W3C//DTD SVG 1.1//EN" "http://www.w3.org/Graphics/SVG/1.1/DTD/svg11.dtd">
<svg version="1.1" id="avatar-arrows" xmlns="http://www.w3.org/2000/svg" xmlns:xlink="http://www.w3.org/1999/xlink" x="0px"
	 y="0px" viewBox="0 0 997.8355 1010" enable-background="new 0 0 997.8355 1010" xml:space="preserve">
<g id="avatar-arrows-avatar-arrows">
	<path fill="#B4BB4A" d="M941.7378,269.165C857.0777,109.3384,689.895,0,496.6572,0C247.5684,0,40.8706,181.7104,0,419.436h93.0845
		C132.5991,232.6504,298.3643,91.8105,496.6572,91.8105c157.648,0,294.2955,88.9751,363.7496,219.0679l-52.1934,26.8364
		l153.0869,66.4126l35.7539-163.3813L941.7378,269.165z"/>
	<path fill="#B4BB4A" d="M904.9976,564.9609c-29.2411,199.3819-200.9033,353.084-408.3404,353.084
		c-154.1958,0-288.3159-85.4394-359.1264-211.1347l52.9126-27.1036L37.2749,613.4141L1.6026,776.7129l54.0629-27.7402
		C141.7437,904.3604,306.9536,1010,496.6572,1010c258.2124,0,471.3619-194.8203,501.1783-445.0391H904.9976z"/>
	<path fill="#58595B" d="M557.2339,836.5508c96.6602-17.6524,179.9229-73.3184,233.7188-151.1973
		c-28.295-19.6846-77.0567-35.3017-125.7979-55.6035c-62.5498-26.0762-77.4062-35.1992-77.4062-35.1992l-0.5547-60.002
		c0,0,23.4463-18.0215,30.7197-74.5503c14.6924,4.2539,30.1035-21.9248,30.9258-35.6103
		c0.7402-13.2949-2.0957-50.0152-19.9317-46.3985c3.6573-27.6376,6.287-52.5835,4.9317-65.7553
		c-4.5625-48.2681-52.0703-99.1465-125.0996-99.1465c-73.0088,0-120.5786,50.8784-125.1612,99.1465
		c-1.2534,13.1718,1.295,38.1177,5.0347,65.7553c-17.939-3.6167-20.7539,33.1036-19.9526,46.3985
		c0.8833,13.6855,16.1508,39.8642,30.9047,35.6103c7.233,56.5288,30.7613,74.5503,30.7613,74.5503l-0.6167,60.002
		c0,0-14.8975,9.123-77.5088,35.1992c-62.5083,26.1172-125.7774,44.3232-144.5791,73.6465
		c-0.2876,0.5137-0.4932,1.1094-0.7398,1.541c56.837,71.5703,139.8531,120.9883,234.6636,133.9961l58.5635-103.667
		L557.2339,836.5508z M500.1094,654.6348l40.2544,40.2949l-40.2544,40.3369l-40.3164-40.3369L500.1094,654.6348z"/>
</g>
</svg>
