<?xml version="1.0" encoding="utf-8"?>
<!-- Generator: Adobe Illustrator 17.1.0, SVG Export Plug-In . SVG Version: 6.00 Build 0)  -->
<!DOCTYPE svg PUBLIC "-//W3C//DTD SVG 1.1//EN" "http://www.w3.org/Graphics/SVG/1.1/DTD/svg11.dtd">
<svg version="1.1" id="business-building" xmlns="http://www.w3.org/2000/svg" xmlns:xlink="http://www.w3.org/1999/xlink" x="0px"
	 y="0px" viewBox="0 0 1010 922.2168" enable-background="new 0 0 1010 922.2168" xml:space="preserve">
<g id="business-building-business-building">
	<path fill="#58595B" d="M732.0195,0H356.4136v922.2168h375.6059V0z M411.8945,692.4023h100.3384v100.3584H411.8945V692.4023z
		 M498.2705,642.4697V542.1924h100.3691v100.2773H498.2705z M411.8945,391.9009h100.3384v100.3589H411.8945V391.9009z
		 M498.2705,341.9888V241.6299h100.3691v100.3589H498.2705z M512.2329,191.7178H411.8945V91.4204h100.3384V191.7178z
		 M685.0459,191.7178H584.6875V91.4204h100.3584V191.7178z M685.0459,492.2598H584.6875V391.9009h100.3584V492.2598z
		 M685.0459,792.7607H584.6875V692.4023h100.3584V792.7607z"/>
	<g>
		<rect x="784.8711" y="291.542" fill="#58595B" width="225.1289" height="630.6748"/>
		<rect x="847.2559" y="363.5234" fill="#B4BB4A" width="100.3593" height="100.3799"/>
		<rect x="847.2559" y="541.8643" fill="#B4BB4A" width="100.3593" height="100.3789"/>
		<rect x="847.2559" y="713.3213" fill="#B4BB4A" width="100.3593" height="100.2969"/>
	</g>
	<g>
		<polygon fill="#58595B" points="0,380.4146 0,922.2168 309.5732,922.2168 309.5732,380.4146 265.127,380.4146 265.127,260.5347 
			210.4785,260.5347 210.4785,143.6753 171.2925,143.6753 171.2925,34.8296 138.353,34.8296 138.353,143.6753 99.0952,143.6753 
			99.0952,260.5347 44.5186,260.5347 44.5186,380.4146 		"/>
		<rect x="158.0078" y="752.9385" fill="#B4BB4A" width="100.3691" height="100.3789"/>
		<rect x="158.0078" y="445.3477" fill="#B4BB4A" width="100.3691" height="100.3798"/>
		<rect x="40.2441" y="597.8799" fill="#B4BB4A" width="100.3589" height="100.3584"/>
	</g>
</g>
</svg>
