<?xml version="1.0" encoding="utf-8"?>
<!-- Generator: Adobe Illustrator 17.1.0, SVG Export Plug-In . SVG Version: 6.00 Build 0)  -->
<!DOCTYPE svg PUBLIC "-//W3C//DTD SVG 1.1//EN" "http://www.w3.org/Graphics/SVG/1.1/DTD/svg11.dtd">
<svg version="1.1" id="business-team" xmlns="http://www.w3.org/2000/svg" xmlns:xlink="http://www.w3.org/1999/xlink" x="0px"
	 y="0px" viewBox="0 0 907.7925 1010" enable-background="new 0 0 907.7925 1010" xml:space="preserve">
<g id="business-team-business-team">
	<g>
		<path fill="#58595B" d="M685.0874,295.6108c9.7188,3.2876,20.0762,5.4659,30.9258,5.4659
			c54.1035,0,98.0156-43.9532,98.0156-98.0162c0-54.0839-43.9121-98.0166-98.0156-98.0166
			c-54.125,0-97.9961,43.9327-97.9961,98.0166c0,8.5479,1.459,16.7261,3.4727,24.6167
			C649.5796,242.0615,671.7925,265.7744,685.0874,295.6108z"/>
		<path fill="#58595B" d="M808.2339,322.4268c-4.377,0-63.8233,0-114.0645,0c3.0215,12.5136,4.7266,25.665,4.7266,39.4531V650.668
			c0,39.1445-31.625,70.9131-70.4609,70.9131c-7.1505,0-14.0137-1.253-20.5899-3.2256c0,112.667,0,231.6836,0,291.6445h98.0987
			c0-87.6807,0-282.9941,0-282.9941h20.0556c0,0,0,195.3134,0,282.9941h98.1807c0-132.6201,0-555.2617,0-555.2617h11.0547
			c0,0,0,209.8008,0,233.3076c0,20.1787,16.3974,36.5146,36.5556,36.5146s36.002-16.3359,36.002-36.5146
			c0-20.1377,0-228.6636,0-258.7466C907.7925,370.2637,867.2085,322.4268,808.2339,322.4268z"/>
	</g>
	<g>
		<path fill="#58595B" d="M191.8716,301.0767c11.1377,0,21.6479-2.2603,31.686-5.7124
			c13.3155-28.7476,35.1792-52.0494,62.4058-66.5772c2.3115-8.2402,3.894-16.7676,3.894-25.7266
			c0-54.0839-43.8916-98.0166-97.9858-98.0166c-54.145,0-98.0161,43.9327-98.0161,98.0166
			C93.8555,257.1235,137.7266,301.0767,191.8716,301.0767z"/>
		<path fill="#58595B" d="M208.896,650.668V361.8799c0-13.7471,1.8701-26.898,5.0347-39.4531c-50.354,0-109.9449,0-114.229,0
			C40.6553,322.4268,0,370.2637,0,429.2993c0,30.083,0,238.6089,0,258.7466c0,20.1787,15.8843,36.5146,36.0522,36.5146
			c20.1685,0,36.5254-16.3359,36.5254-36.5146c0-23.5068,0-233.3076,0-233.3076h11.086c0,0,0,422.6416,0,555.2617h98.1909
			c0-87.6807,0-282.9941,0-282.9941h20.0859c0,0,0,195.3134,0,282.9941h98.0577c0-59.9609,0-179.1006,0-291.707
			c-6.6167,2.0135-13.4698,3.2881-20.6822,3.2881C240.5103,721.5811,208.896,689.8125,208.896,650.668z"/>
	</g>
	<path fill="#B4BB4A" d="M454.6768,218.7798c60.4126,0,109.3598-49.0288,109.3598-109.3794C564.0366,49.0083,515.0894,0,454.6768,0
		c-60.4024,0-109.4107,49.0083-109.4107,109.4004C345.2661,169.751,394.2744,218.7798,454.6768,218.7798z"/>
	<path fill="#B4BB4A" d="M628.4351,691.457c22.6035,0,40.3163-18.2469,40.3163-40.7889c0-22.4796,0-255.253,0-288.7881
		c0-13.8086-2.0957-27.0625-5.877-39.4531c-14.2197-46.4605-53.3847-79.8311-105.332-79.8311c-8.2813,0-23.4258,0-42.001,0
		l-4.8291,4.1099l-47.4463,40.7065l34.9326,93.5571l-46.666,101.3042l-41.8364-99.6806l31.8296-95.1807l-44.6826-40.5835
		l-4.6748-4.2329c-17.9287,0-32.4668,0-40.3882,0c-52.0083,0-92.0572,33.3706-106.5952,79.8311
		c-3.8941,12.3906-6.0723,25.6445-6.0723,39.4531c0,33.5351,0,266.3086,0,288.7881c0,22.542,17.7231,40.7889,40.2031,40.7889
		c7.5518,0,14.6099-2.2187,20.6822-5.7949c4.8286-2.918,9.1132-6.6572,12.3598-11.1992c4.8291-6.7188,7.7569-14.8965,7.7569-23.7949
		c0-26.1993,0-260.3902,0-260.3902h13.8398c0,0,0,165.3941,0,331.0367c0,114.0644,0,228.2734,0,288.6855h109.4619
		c0-97.8516,0-315.8301,0-315.8301h22.3565c0,0,0,217.9785,0,315.8301h109.6269c0-60.5361,0-175.1553,0-289.4463
		c0-165.415,0-330.2759,0-330.2759h12.3496c0,0,0,234.1909,0,260.3902c0,8.8769,2.918,17.0351,7.7256,23.7754
		c3.2881,4.5195,7.5205,8.2597,12.3701,11.2187C613.9273,689.2383,620.9136,691.457,628.4351,691.457z"/>
</g>
</svg>
