<?xml version="1.0" encoding="utf-8"?>
<!-- Generator: Adobe Illustrator 17.1.0, SVG Export Plug-In . SVG Version: 6.00 Build 0)  -->
<!DOCTYPE svg PUBLIC "-//W3C//DTD SVG 1.1//EN" "http://www.w3.org/Graphics/SVG/1.1/DTD/svg11.dtd">
<svg version="1.1" id="business-suitcase" xmlns="http://www.w3.org/2000/svg" xmlns:xlink="http://www.w3.org/1999/xlink" x="0px"
	 y="0px" viewBox="0 0 1010 924.5191" enable-background="new 0 0 1010 924.5191" xml:space="preserve">
<g id="business-suitcase-business-suitcase">
	<g>
		<path fill="#58595B" d="M1009.0547,207.5811c0-31.5215-25.541-57.0015-57.043-57.0015H710.1152v-38.5488
			c0-3.4522-2.8359-6.2471-6.2881-6.2471h-13.4794V78.4546c0-43.3164-35.0977-78.4131-78.4131-78.4546H391.5313
			c-43.3575,0.0415-78.4336,35.1382-78.4542,78.4546v27.3291h-13.4389c-3.4522,0-6.2876,2.7949-6.2876,6.2471v38.5488H57.9878
			c-31.501,0-57.0425,25.48-57.0425,57.0015v293.0425h1008.1094V207.5811z M644.2363,105.7837H631.373
			c-3.4511,0-6.2675,2.7949-6.2675,6.2471v38.5488H378.3804v-38.5488c0-3.4522-2.836-6.2471-6.2881-6.2471H359.229V78.4546
			c0.0205-17.8364,14.4663-32.2612,32.3023-32.2612h220.4033c17.8154,0,32.2402,14.4248,32.3017,32.2612V105.7837z"/>
		<path fill="#58595B" d="M0.9453,542.7066v14.4863H0v286.2002v25.7266c0,30.5761,40.5215,55.3994,71.0977,55.3994h42.1655H883.832
			h55.0293c30.5762,0,71.1387-24.8233,71.1387-55.3994v-25.7266V557.1929h-0.9453v-14.4863H0.9453z"/>
	</g>
	<path fill="#B4BB4A" d="M584.584,545.9331h-9.9043v36.4942v12.164c0,6.412-5.2402,11.6309-11.6504,11.6309H452.8892
		c-6.4317,0-11.6719-5.2188-11.6719-11.6309v-12.164v-36.4942h-9.9043c-7.315,0-13.2744-5.959-13.2744-13.2754v-17.5479v-46.5215
		c0-7.3154,5.9594-13.3154,13.2744-13.3154h153.271c7.3359,0,13.2949,6,13.2949,13.3154v46.5215v17.5479
		C597.8789,539.9741,591.9199,545.9331,584.584,545.9331z"/>
</g>
</svg>
