<?xml version="1.0" encoding="utf-8"?>
<!-- Generator: Adobe Illustrator 17.1.0, SVG Export Plug-In . SVG Version: 6.00 Build 0)  -->
<!DOCTYPE svg PUBLIC "-//W3C//DTD SVG 1.1//EN" "http://www.w3.org/Graphics/SVG/1.1/DTD/svg11.dtd">
<svg version="1.1" id="businessman-chess-pawn" xmlns="http://www.w3.org/2000/svg" xmlns:xlink="http://www.w3.org/1999/xlink"
	 x="0px" y="0px" viewBox="0 0 661.0567 1010" enable-background="new 0 0 661.0567 1010" xml:space="preserve">
<g id="businessman-chess-pawn-businessman-chess-pawn">
	<path fill="#58595B" d="M392.724,952.2998c-1.418,20.2197,3.1641,40.7686,12.1035,57.7002h-95.6943
		c0-63.9062,0-108.7422,0-108.7422h-31.6035c0,0,0,44.836,0,108.7422H123.0873c0-202.998,0-411.2578,0-463.4922
		c0-8.0752,0-12.5547,0-12.5547h-13.7266v364.4893c0,0,0.4932,62.3857-55.0903,62.3857c-7.8906,0-14.5898-1.3164-20.3433-3.4316
		c0.4317,0.3281,0.6783,0.7392,1.1099,1.0273c-14.98-5.1378-23.4668-16.1523-28.3364-27.248
		c-0.1646-0.3692-0.4112-0.7813-0.5552-1.2324c-0.1846-0.4532-0.3696-0.8633-0.5137-1.3155
		c-5.8974-14.6718-5.6299-28.8095-5.6299-28.8095l0.6778-405.586c0,0,6.4521-168.4975,162.7441-168.4975
		c0,0,28.398-0.0411,67.0293-0.0616l6.3906,5.7945l43.8301,39.8027l-30.7817,92.1187l1.0683,2.5688l-1.0683,3.2261l42.3916,101.2007
		l47.3437-102.8243l-1.1919-3.2465l1.1919-2.5684l-33.7407-90.5161l46.481-39.8438l6.8213-5.8154
		c35.3847-0.041,65.4472-0.041,79.2148-0.041c17.3633,0,33.6797,2.6099,48.6992,7.5005h0.0215
		c0.5547,0.2051,1.0879,0.4311,1.6231,0.6367c4.0683,1.3564,8.0136,2.877,11.8164,4.5415c1.5605,0.6777,3.082,1.459,4.582,2.1987
		c2.793,1.356,5.5469,2.7329,8.2187,4.2124c1.6036,0.9038,3.1856,1.8492,4.7462,2.7945c2.5273,1.5615,5.0352,3.226,7.4805,4.9521
		c1.4375,0.9864,2.8965,1.9932,4.2539,3c2.8359,2.1782,5.5274,4.3975,8.1563,6.6988c0.9043,0.7812,1.83,1.4794,2.6718,2.2812
		c3.3496,3.0615,6.5762,6.3491,9.6778,9.7397c1.0488,1.1304,2.0351,2.4043,3.0429,3.6167c2.0332,2.3833,4.0274,4.7876,5.918,7.315
		c1.1289,1.5,2.1973,3.0005,3.2656,4.521c1.6856,2.4248,3.3086,4.8906,4.8907,7.459c0.9863,1.541,1.9726,3.144,2.8574,4.726
		c1.6426,2.877,3.1836,5.795,4.6836,8.7745c0.6582,1.3559,1.3769,2.6713,2.0156,4.0273c2.0137,4.3564,3.8828,8.7744,5.5273,13.2949
		c0.3907,1.0889,0.6973,2.2398,1.0879,3.2876c1.2755,3.6167,2.4043,7.2334,3.4121,10.9527c0.4922,1.7055,0.8829,3.4316,1.295,5.1577
		c0.8203,3.226,1.5195,6.4931,2.1562,9.8012c0.3496,1.8497,0.6777,3.6783,0.9668,5.5279c0.5547,3.4931,1.0059,7.0068,1.3555,10.5825
		c0.1445,1.6435,0.3906,3.2671,0.4941,4.9316c0.4297,5.2398,0.6778,10.4995,0.6778,15.8433c0,1.5605,0,3.4922,0,5.6914
		c-15.9258-12.3906-35.6524-20.0757-57.2891-20.0757c-52.0508,0-94.3809,42.6587-94.3809,95.1812
		c0,17.6504,4.9317,34.6639,13.7266,49.3163c-13.8906,4.8486-32.1992,20.3222-33.9043,44.7949
		c-2.0957,28.2344,24.7812,46.5625,38.2617,48.2891c0.1641,0.0204,1.418,0.041,3.2461,0.041c0,4.747,0,9.5351,0,14.3847h-43.3574
		l-5.4238,4.0684c-2.6309,1.9922-11.5489,9.1641-15.6172,18.9453c-3.4121,8.2598-3.8223,19.541-3.8438,24l-0.1015,20.4668h57.289
		c-6.0625,18.8027-12.3711,36.3711-18.2676,50.8789c-9.0625,3.6563-17.3222,11.4649-20.1171,23.0137
		c-1.8497,7.0273-0.9668,14.4248,2.3418,20.918C406.019,910.3398,394.2865,930.2715,392.724,952.2998z M154.7729,168.354
		c0.4112,3.1646,0.8838,6.3081,1.4385,9.4111c0.3286,1.6026,0.6577,3.2261,1.0274,4.8291c0.6577,3,1.3974,5.9385,2.2807,8.8355
		c0.3906,1.4795,0.7813,2.959,1.2329,4.3974c1.336,4.0689,2.795,8.0757,4.48,12.021c0.5547,1.3355,1.2534,2.6919,1.8696,4.0274
		c1.2124,2.6099,2.3838,5.1372,3.7193,7.6645c1.0068,1.8907,2.0757,3.6988,3.144,5.5689c1.0889,1.8286,2.1577,3.6167,3.3291,5.4043
		c1.274,2.0137,2.5889,3.9453,4.0069,5.8974c0.9658,1.418,2.0341,2.774,3.1025,4.1509c5.877,7.6851,12.5142,14.7949,19.7471,21.2676
		c0.5346,0.4316,1.0073,0.8833,1.521,1.3355c2.4863,2.1577,5.0752,4.1918,7.7055,6.185c0.5752,0.4316,1.1299,0.8633,1.7466,1.2534
		c11.98,8.8155,25.2954,15.8843,39.6587,20.857c0.0615,0.041,0.1231,0.082,0.1851,0.082h-0.0415
		c5.9384,2.0347,12.0004,3.8428,18.1855,5.1577c0.1441,0.0205,0.2261,0.0825,0.3906,0.0825
		c4.459,0.9449,9.041,1.6231,13.6646,2.1573c0.6167,0.062,1.1919,0.2055,1.8496,0.2465c5.1577,0.5552,10.3975,0.8428,15.7812,0.8428
		c83.5083,0,151.2154-67.1733,151.2154-149.9424c0-4.747-0.2871-9.3701-0.7383-14.0141c-0.1035-1.418-0.3496-2.836-0.4941-4.295
		c-0.3907-3.164-0.8633-6.2876-1.4786-9.3906c-0.2675-1.582-0.5976-3.1435-0.9257-4.7466c-0.7188-3.0615-1.5-6.103-2.3829-9.144
		c-0.3906-1.3355-0.7187-2.6919-1.1503-4.0479c-1.3165-4.0893-2.7344-8.0551-4.377-11.9184
		c-0.6992-1.582-1.4395-3.082-2.1582-4.6231c-1.0898-2.3632-2.1992-4.747-3.4316-7.0688c-0.9864-1.9111-2.0762-3.7603-3.1641-5.6304
		c-1.0488-1.8286-2.1367-3.5547-3.2266-5.2807c-1.2949-2.0142-2.5683-4.0074-3.9668-5.9595
		c-0.9023-1.2739-1.8066-2.4863-2.7734-3.7193c-5.7949-7.685-12.3496-14.7949-19.5-21.2265
		c-0.5352-0.4932-1.0684-0.9658-1.5625-1.459c-2.5684-2.2192-5.1777-4.3354-7.8496-6.3906
		c-0.3496-0.2466-0.6777-0.5137-0.9863-0.7188c-8.4239-6.2881-17.4454-11.7539-27.0821-16.2334
		c-3.9453-1.8291-7.9531-3.4726-12.0625-4.9936c-0.123-0.0205-0.205-0.0615-0.2666-0.1026c0.041,0.0411,0.0616,0.0411,0.0821,0.0821
		c-0.8218-0.3286-1.6641-0.6368-2.5069-0.9244c-0.123-0.0415-0.2055-0.0825-0.3491-0.103c-4.6851-1.6025-9.5142-3-14.4048-4.1094
		c-0.5342-0.1235-1.0478-0.288-1.6025-0.4111c-4.459-1.0068-9.0415-1.7466-13.6651-2.3428
		c-0.9243-0.123-1.7876-0.3286-2.7124-0.4106C315.8524,0.3081,310.3661,0,304.7978,0c-83.5708,0-151.2373,67.1523-151.2373,150.0864
		c0,4.6851,0.2671,9.3081,0.6988,13.9317C154.3828,165.4976,154.6089,166.936,154.7729,168.354z"/>
	<g>
		<path fill="#B4BB4A" d="M541.1265,867.9277c0,0-7.1934,0-17.836,0c-30.3515,0-75.2695,0-77.1816,0
			c-2.6914,0-10.1094,1.8496-12.1641,10.1914c-1.7676,6.6993,5.0137,12.042,7.7871,12.1036c1.666,0.0205,60.1055,0,90.4551,0
			c30.3711,0,102.6602,0.0205,104.3242,0c2.7539-0.0616,9.5567-5.4043,7.7891-12.1036c-2.0352-8.3418-9.5137-10.1914-12.166-10.1914
			C630.183,867.9277,571.4545,867.9277,541.1265,867.9277z"/>
		<path fill="#B4BB4A" d="M610.6616,574.7012c0-41.3029-33.123-74.7774-73.9531-74.7774c-40.8516,0-73.9961,33.4746-73.9961,74.7774
			c0,29.7129,17.1172,55.4178,41.9805,67.4803l-0.0411,0.5957c-19.1503,0-39.1855,0-40.0683,0
			c-1.8711,0-20.6934,7.377-22.0703,27.5352c-1.1914,16.1719,17.0957,26.1797,19.0488,26.4258
			c0.7188,0.0205,19.2754,0.0205,38.4668,0.0205c-2.4863,15.5752-6.8848,34.7881-12.2871,55.1729h-60.6387
			c0,0-6.7207,5.0752-9.0019,10.5c-2.2188,5.4247-2.3008,16.1924-2.3008,16.1924h64.4609
			c-9.0625,30.8428-19.7676,61.9541-29.6308,85.2549h178.875c-11.0352-20.7539-23.7754-52.8711-34.461-85.2549h63.084
			c0,0-0.6152-10.706-2.5683-15.8643c-1.9512-5.0957-8.6719-10.8281-8.6719-10.8281h-60.2266
			c-6.0215-20.5078-10.8086-39.9669-13.3164-55.1729c19.3164,0,37.2559,0,37.8926-0.0205
			c1.9316-0.2461,21.082-10.2539,19.8496-26.4258c-1.4395-20.1992-21.041-27.5352-22.8301-27.5352c-0.8633,0-20.1992,0-39.4941,0
			l-0.0821-0.5957C593.5853,630.1191,610.6616,604.4141,610.6616,574.7012z"/>
		<path fill="#B4BB4A" d="M635.6478,893.9414H440.726c-10.541,16.666-26.1172,38.2832-27.6582,59.7969
			c-1.5215,21.4941,4.8691,42.2676,15.5351,56.2617h216.7442c10.6445-13.9941,16.8497-30.9463,15.5352-52.0703
			C659.5463,936.1074,647.814,912.3125,635.6478,893.9414z"/>
	</g>
</g>
</svg>
