<?xml version="1.0" encoding="utf-8"?>
<!-- Generator: Adobe Illustrator 17.1.0, SVG Export Plug-In . SVG Version: 6.00 Build 0)  -->
<!DOCTYPE svg PUBLIC "-//W3C//DTD SVG 1.1//EN" "http://www.w3.org/Graphics/SVG/1.1/DTD/svg11.dtd">
<svg version="1.1" id="business-startup" xmlns="http://www.w3.org/2000/svg" xmlns:xlink="http://www.w3.org/1999/xlink" x="0px"
	 y="0px" viewBox="0 0 850.0704 1009.9978" enable-background="new 0 0 850.0704 1009.9978" xml:space="preserve">
<g id="business-startup-business-startup">
	<g>
		<polygon fill="#58595B" points="508.3163,777.9646 334.5995,777.9236 334.5583,851.117 508.3163,851.0759 		"/>
		<polygon fill="#B4BB4A" points="334.4764,875.8572 333.2435,880.2957 302.2357,992.367 383.0121,940.0095 426.6571,1009.9978 
			470.5897,942.9275 544.1736,989.572 505.2751,875.8572 		"/>
		<path fill="#58595B" d="M501.7205,63.78c-14.0546-31.1923-37.0283-52.3164-50.1171-57.9462
			c-18.4532-7.7784-39.4947-7.7784-60.4131,0c-13.2744,5.0136-36.0625,26.6718-50.1797,57.9462
			c-23.5484,52.6045-49.9326,120.9893-68.3443,176.2657c-13.1098,39.4941-20.9799,76.4404-20.9799,113.2627
			c0,44.7549,0,402.5038,0,402.5038l339.4404,0.082c0,0,0.0625-357.831,0-402.5859c0-36.8223-7.7676-73.7686-21.0215-113.2627
			C551.6736,184.7693,525.4128,116.3845,501.7205,63.78z M421.3143,559.3689c-68.7964,0-124.4829-55.8096-124.5239-124.5654
			c0.041-68.7959,55.7275-124.5645,124.5239-124.5645c68.9199,0,124.6885,55.7686,124.6885,124.5645
			C545.9608,503.5593,490.2342,559.3689,421.3143,559.3689z"/>
		<path fill="#58595B" d="M154.0809,358.6922C141.3617,381.9939,54.7288,592.1638,15.3377,682.865l0.1026,0.083
			c-3.6577,8.3838-6.6988,15.4112-8.6714,20.3838c-15.9868,37.8506-2.5894,52.4805,28.9731,52.5625l177.313-0.082v-1.0273h4.8701
			l0.8633-443.7236C176.7049,304.115,154.0809,358.6922,154.0809,358.6922z"/>
		<path fill="#58595B" d="M843.3397,703.3318c-2.0762-5.0137-5.0137-12-8.6719-20.3838h0.0615
			c-39.288-90.7842-126.0244-300.9541-138.7226-324.2558c0,0-22.6035-54.5772-64.6865-47.5489l0.8828,443.6416h4.8496l0.041,1.1094
			H814.366C845.8669,755.8943,859.2645,741.1824,843.3397,703.3318z"/>
		<path fill="#B4BB4A" d="M373.1488,511.2439l0.0615-157.0312h26.2402c11.7129,0,20.98,0.7812,27.9258,2.4248
			c6.9863,1.6025,12.9043,4.3564,17.7744,8.2607c4.8697,3.9453,8.7534,8.959,11.6099,14.918
			c2.9385,6.041,4.418,12.165,4.418,18.2881c0.0205,11.2607-4.8086,20.7949-14.3638,28.5625c9.2671,2.8769,16.562,7.8496,21.9458,15
			c5.4043,7.0693,8.1572,15.2881,8.1572,24.6172c0,12.288-4.8281,22.6865-14.5273,31.1103
			c-5.7539,5.2607-12.2876,8.877-19.521,10.8906c-7.8907,1.9727-17.8565,2.959-29.7539,2.959H373.1488z M399.533,421.6531h8.2603
			c9.7607,0,16.9731-1.9727,21.5557-5.877c4.541-3.9043,6.8628-9.6582,6.8628-17.2607c0-7.3564-2.3628-12.9873-7.0479-16.8496
			c-4.6851-3.7813-11.4043-5.7539-20.3433-5.7539h-9.2876V421.6531z M399.533,488.9705h16.336
			c11.8974,0,20.6308-2.0547,26.1787-6.3301c5.8769-4.4795,8.8154-10.2734,8.8154-17.3018c0-6.7392-2.7739-12.4111-8.4663-17.0546
			c-5.5068-4.5625-15.3291-6.7813-29.5278-6.7813l-13.336-0.082V488.9705z"/>
	</g>
</g>
</svg>
