<?xml version="1.0" encoding="utf-8"?>
<!-- Generator: Adobe Illustrator 17.1.0, SVG Export Plug-In . SVG Version: 6.00 Build 0)  -->
<!DOCTYPE svg PUBLIC "-//W3C//DTD SVG 1.1//EN" "http://www.w3.org/Graphics/SVG/1.1/DTD/svg11.dtd">
<svg version="1.1" id="business-team-globe" xmlns="http://www.w3.org/2000/svg" xmlns:xlink="http://www.w3.org/1999/xlink"
	 x="0px" y="0px" viewBox="0 0 890.9403 1010.0002" enable-background="new 0 0 890.9403 1010.0002" xml:space="preserve">
<g id="business-team-globe-businessteam-globe">
	<g>
		<g>
			<polygon fill="#58595B" points="424.1889,338.648 441.9018,358.5386 456.7787,341.2368 464.5253,332.2368 456.7787,306.1812 
				453.8197,296.1538 430.0248,296.1538 424.1889,314.3184 418.4765,332.2368 			"/>
			<path fill="#58595B" d="M571.1102,130.1226c0-0.1641,0-0.3697,0-0.5342c0-9.4522-1.0478-18.6167-2.9589-27.4526
				C555.5351,43.7373,503.6503,0,441.5316,0c-62.5698,0-114.7627,44.354-126.9067,103.3276
				c-1.7056,8.1783-2.5684,16.6856-2.6094,25.398c0,0.2466-0.062,0.5752-0.062,0.8628c0,65.6728,48.9053,119.7563,112.2354,128.2632
				c5.7124,0.7397,11.4663,1.3149,17.3427,1.3149c5.1578,0,10.2334-0.4106,15.2471-0.9863
				C520.9511,250.6187,570.7811,196.2886,571.1102,130.1226z"/>
			<path fill="#58595B" d="M430.2714,292.4961c0,0,15.9043,0.3286,23.7949-0.2056c0,0,1.2739-1.5205,2.7124-3.7397
				c2.5068-3.8628,5.7739-10.4795,5.4248-19.9316c-1.8081-0.1646-3.6372-0.1236-5.4248-0.2466
				c-4.8496-0.3701-9.6987-0.6988-14.6099-0.6988c-6.103,0-12.0415,0.3287-17.9799,0.8628c-0.5342,0-1.0684,0-1.5616,0.0826
				c0,0-0.4111,5.7124,1.5616,12.4521C425.3397,284.8521,427.1478,288.9619,430.2714,292.4961z"/>
			<g>
				<polygon fill="#58595B" points="705.496,366.4292 722.4491,346.7026 714.3944,319.5791 696.578,319.5791 687.8867,346.7026 				
					"/>
				<path fill="#58595B" d="M757.2167,307.4556l-52.0283,69.3301l-51.9873-69.3301c-6.0821,2.1367-11.918,4.8081-17.6719,7.7261
					c41.7539,41.7543,67.5625,99.7006,67.584,163.853v45.042h158.1191v-67.2754
					C861.2323,387.7998,817.7929,329.2368,757.2167,307.4556z"/>
				<path fill="#58595B" d="M714.62,316.7022c0,0,6.4727-6.6167,6.0615-17.7539c-4.9316-0.4932-9.9658-0.7398-15.0205-0.7398
					c-4.9316,0-9.8427,0.2466-14.6513,0.6987c0,0-0.7813,10.521,5.7539,17.9595C696.7636,316.8667,708.702,317.1133,714.62,316.7022
					z"/>
				<path fill="#58595B" d="M631.4608,131.397c-3.123,3.6572-5.9179,7.5205-8.5078,11.5889
					c-9.4316,14.9594-14.9375,32.6308-14.9375,51.6176c0,5.7534,0.5742,11.3428,1.541,16.8086
					c3.3496,19.2744,12.3282,36.4942,25.2539,50.0972c6.7393,7.1099,14.5069,13.1919,23.1368,18.0005
					c13.9941,7.8081,30.125,12.3286,47.2617,12.3286c53.6719,0,97.1933-43.5215,97.1933-97.2349
					c0-44.3843-29.7949-81.7412-70.4394-93.4131c-3.4522-0.9448-6.9658-1.726-10.5625-2.3422
					c-2.876-0.4522-5.7324-0.8218-8.6504-1.0684c-2.5068-0.2056-5.0137-0.3701-7.541-0.3701
					C675.6806,97.4097,649.2343,110.6016,631.4608,131.397z"/>
			</g>
			<g>
				<polygon fill="#58595B" points="185.4579,366.4292 168.5258,346.7026 176.581,319.5791 194.3759,319.5791 203.0883,346.7026 
									"/>
				<path fill="#58595B" d="M133.7377,307.4556l52.0488,69.3301l51.9873-69.3301c6.0825,2.1367,11.9185,4.8081,17.6719,7.7261
					c-41.7339,41.7543-67.563,99.7006-67.584,163.853v45.042H29.7011v-67.2754C29.7011,387.7998,73.1815,329.2368,133.7377,307.4556
					z"/>
				<path fill="#58595B" d="M176.3549,316.7022c0,0-6.4727-6.6167-6.1031-17.7539c4.9727-0.4932,9.9869-0.7398,15.0416-0.7398
					c4.9521,0,9.8632,0.2466,14.6713,0.6987c0,0,0.7607,10.521-5.7329,17.9595
					C194.2319,316.8667,182.2934,317.1133,176.3549,316.7022z"/>
				<path fill="#58595B" d="M259.5346,131.397c3.103,3.6572,5.9179,7.5205,8.4868,11.5889
					c9.4316,14.9594,14.959,32.6308,14.959,51.6176c0,5.7534-0.5752,11.3428-1.5205,16.8086
					c-3.4112,19.2744-12.3907,36.4942-25.2745,50.0972c-6.7812,7.1099-14.5278,13.1919-23.1582,18.0005
					c-13.9931,7.8081-30.1035,12.3286-47.2612,12.3286c-53.6724,0-97.2143-43.5215-97.2143-97.2349
					c0-44.3843,29.7949-81.7412,70.4399-93.4131c3.4727-0.9448,7.0068-1.726,10.5615-2.3422
					c2.877-0.4522,5.7334-0.8218,8.6719-1.0684c2.4863-0.2056,4.9727-0.3701,7.541-0.3701
					C215.2938,97.4097,241.6986,110.6016,259.5346,131.397z"/>
			</g>
			<path fill="#58595B" d="M575.4257,317.6475c-13.7481-11.7539-29.0147-21.6992-45.3926-29.5489
				c-6.2461-3-12.6367-5.7944-19.1914-8.1372l-16.7676,22.357l-37.2954,49.686l-15.2881,20.3838l-17.3017-23.0962l-34.7676-46.3574
				l-17.2197-22.9732c-6.9043,2.4659-13.6031,5.4248-20.1372,8.6304c-16.398,7.9316-31.6241,17.9595-45.3301,29.8364
				c-7.5821,6.5342-14.6509,13.6441-21.2676,21.2471c-32.2402,37.1514-51.9258,85.8511-51.9258,139.3594v45.042h415.9609v-45.042
				c0-53.9195-19.9727-102.9478-52.7266-140.2637C590.1796,331.2505,583.0282,324.1817,575.4257,317.6475z"/>
		</g>
	</g>
	<path fill="#B4BB4A" d="M0.0702,551.2417c-1.2124,72.4541,13.2744,145.5645,43.2954,205.0322
		c71.7549,154.9755,240.2315,260.3477,409.6118,253.4023c171.9483-0.2871,334.6299-115.7695,401.2901-271.7324
		c26.3222-56.3438,37.9931-121.4825,36.5547-186.7022H0.0702z M132.7309,843.9321
		C65.7221,768.9722,29.2899,678.8882,25.057,576.8853l158.3667-0.2871l14.6304,0.4521
		c1.0684,68.0147,16.1304,131.3447,40.7061,190.2783C199.328,787.3013,165.1972,814.6314,132.7309,843.9321z M151.3476,863.6177
		c28.4799-30.8633,63.7412-53.3027,97.4199-72.2481c34.8706,70.6045,91.1733,141.4551,158.4692,191.1827
		C308.7894,974.2095,221.0888,931.0581,151.3476,863.6177z M437.4223,971.9497
		c-70.1934-47.7549-128.5098-116.7969-164.6338-191.8808c50.6313-23.754,105.2075-35.7549,165.25-37.2755L437.4223,971.9497z
		 M438.5316,715.9165c-1.9726,0.5752-5.0547,0.7812-7.685,0.9863c-59.0562,2.1778-116.8789,15.9454-169.0723,38.713
		c-21.5347-52.6035-35.5483-112.4824-37.9731-168.6611l0.4931-10.1924l168.127-0.2461l46.3569,0.2051L438.5316,715.9165z
		 M465.2445,576.8442l209.0386-0.4921l5.8359,0.4101c-0.6572,65.5498-17.4248,126.7422-41.4453,183.5801
		c-53.0771-24.6172-111.3525-40.1523-174.0249-43.3164L465.2445,576.8442z M464.4843,742.8755
		c54.9463,3.2881,110.6738,16.6035,159.373,40.3984l3.041,1.8907c-35.6718,72.4531-96.0019,139.6054-163.4004,185.8398
		L464.4843,742.8755z M495.163,980.9087c52.7275-39.5762,99.5361-91.1523,134.0371-146.8809
		c7.542-12.205,13.9111-23.7949,20.6514-36.5761c31.7265,16.4394,60.6582,38.9199,88.0293,65.3037
		C670.7284,928.3872,586.8085,969.5239,495.163,980.9087z M756.1278,843.3169c-29.4052-28.1934-61.6455-50.7139-94.5634-70.2344
		c26.7324-60.5361,43.9727-131.8808,44.8359-196.5663l152.8808-0.3701c1.8077,0.9863,4.212,0.4522,6.5137,0.6982
		C861.8495,676.2993,823.8554,766.9175,756.1278,843.3169z"/>
</g>
</svg>
