<?xml version="1.0" encoding="utf-8"?>
<!-- Generator: Adobe Illustrator 17.1.0, SVG Export Plug-In . SVG Version: 6.00 Build 0)  -->
<!DOCTYPE svg PUBLIC "-//W3C//DTD SVG 1.1//EN" "http://www.w3.org/Graphics/SVG/1.1/DTD/svg11.dtd">
<svg version="1.1" id="business-hierarchy" xmlns="http://www.w3.org/2000/svg" xmlns:xlink="http://www.w3.org/1999/xlink" x="0px"
	 y="0px" viewBox="0 0 839.5436 1009.9998" enable-background="new 0 0 839.5436 1009.9998" xml:space="preserve">
<g id="business-hierarchy-business-hierarchy">
	<path fill="#B4BB4A" d="M505.1867,119.4893V0c-12.4931,0-24.9873,0.3701-37.542,1.3154
		C310.5525,9.8018,154.7956,103.6875,71.657,243.6221c-81.2896,130.6054-96.3721,320.4726-30.001,461.331
		c75.5771,175.1348,260.0605,304.6719,455.0024,305c2.8574,0.123,5.6719-0.041,8.5283,0V889.293v-15.5753h76.9737v-21.7812h-76.9737
		v-7.0693V526.6143v-8.0137h76.9737v-21.7822h-76.9737v-14.6299V163.894v-15.5346h76.9737v-21.8018h-76.9737V119.4893z
		 M483.0354,330.2129l-0.4522,164.4687l-0.4931,0.4942l-47.8365-0.124l-195.333-0.4727
		c1.9522-77.6108,18.9048-149.2017,49.5835-215.1211c49.4185,23.6104,103.5845,39.5352,159.5996,45.7617
		c11.5479,1.2534,23.1368,2.2808,34.8496,2.6914L483.0354,330.2129z M483.4055,681.5078
		c-11.918,0.6172-23.6719,1.7266-35.3018,3.082c-57.7412,6.7403-111.9482,22.501-162.0039,45.5157
		c-27.247-63.8029-46.2339-132.4766-47.0556-206.0186l6.6987-0.5137l188.5107,0.4522l48.4732,0.123L483.4055,681.5078z
		 M482.4397,51.0835l0.123,68.4058l0.2676,178.7089c-11.8359-0.3286-23.3633-1.3149-34.7266-2.5478
		c-52.789-5.7739-101.0576-20.8565-147.0449-43.2134C339.9572,176.6548,408.5681,99.4131,482.4397,51.0835z M458.3567,30.8228
		C384.28,82.7896,313.799,161.0171,274.9421,239.5532c-37.0488-19.7265-72.9058-46.0488-102.8447-76.3169
		C253.1814,84.9883,351.7312,42.083,458.3567,30.8228z M151.6721,185.2646c33.3911,32.2608,70.1934,59.3023,109.5229,80.1797
		c-30.8842,71.5904-49.4189,146.1812-52.0488,229.3194l-180.6411-0.3282C32.0808,376.0767,73.1775,270.8281,151.6721,185.2646z
		 M28.6286,524.1074c2.5069-0.2461,5.3013,0.4522,7.356-0.6992l173.3052,0.3711c0.9863,72.6172,20.5483,152.6738,50.8369,220.6484
		c-37.2339,21.8633-73.8921,47.1368-107.1807,78.8233C76.1775,737.4414,33.0671,635.7676,28.6286,524.1074z M173.5769,845.0322
		c31.0483-29.5488,63.9258-54.8232,99.8242-73.2549c7.6851,14.3633,14.8769,27.3497,23.4658,41.0137
		c39.083,62.6113,92.1597,120.4346,151.9146,164.9424C344.8684,964.9111,249.8318,918.7598,173.5769,845.0322z M299.4153,757.9482
		l3.4521-2.0752c44.7544-21.6796,94.728-35.1583,145.2363-41.6309c11.795-1.541,23.6504-3,35.4659-3.6992l0.7812,178.75
		l0.3291,77.3027C408.3625,914.6094,339.9572,839.3203,299.4153,757.9482z"/>
	<path fill="#58595B" d="M831.7414,928.3359c-9.7197-9.8222-32.3838-16.7265-54.9463-26.1796
		c-25.0078-10.3965-30.8632-14.0137-30.8632-14.0137l-0.2881-23.959c0,0,9.3701-7.1514,12.247-29.7539
		c5.836,1.7256,12-8.7129,12.3702-14.2402c0.288-5.2608-0.8213-19.9532-7.9522-18.4727c1.418-11.0557,2.5274-21.001,1.9932-26.2207
		c-1.8701-19.3154-20.836-39.5762-49.9737-39.5762s-48.1035,20.2607-49.9326,39.5762c-0.5342,5.2197,0.4932,15.165,1.9932,26.2207
		c-7.1719-1.4805-8.2813,13.2119-7.9522,18.4727c0.3291,5.5273,6.4522,15.9658,12.3077,14.2402
		c2.9394,22.6025,12.2675,29.7539,12.2675,29.7539l-0.2461,23.959c0,0-5.9179,3.6172-30.8847,14.0137
		c-22.541,9.4531-45.2471,16.3574-54.9258,26.1796c-1.0469,1.0684-2.0742,2.0957-2.8145,3.2461
		c-6.7197,10.5205-4.705,60.9464-4.705,60.9464h45.3701h48.9053l27.1445-48.2881l27.1855,48.2881h55.8301h45.3906
		c0,0,2.0137-50.4258-4.7256-60.9464C833.7971,930.4316,832.7893,929.4043,831.7414,928.3359z M710.8762,944.2402l-16.0889-16.0283
		l16.0684-16.1103l16.1094,16.1103L710.8762,944.2402z M831.7414,569.1904c-9.7197-9.8633-32.3838-16.8087-54.9463-26.1787
		c-25.0078-10.4385-30.8632-14.0547-30.8632-14.0547l-0.2881-24.0009c0,0,9.3701-7.1514,12.247-29.7129
		c5.836,1.6645,12-8.7124,12.3702-14.2398c0.288-5.2607-0.8213-19.9526-7.9522-18.4731c1.418-11.0347,2.5274-20.98,1.9932-26.2813
		c-1.8701-19.2129-20.836-39.5556-49.9737-39.5556s-48.1035,20.3427-49.9326,39.5556c-0.5342,5.3013,0.4932,15.2466,1.9932,26.2813
		c-7.1719-1.4795-8.2813,13.2124-7.9522,18.4731c0.3291,5.5274,6.4522,15.9043,12.3077,14.2398
		c2.9394,22.5615,12.2675,29.7129,12.2675,29.7129l-0.2461,24.0009c0,0-5.9179,3.6162-30.8847,14.0547
		c-22.541,9.3701-45.2471,16.3154-54.9258,26.1787c-1.0469,0.9864-2.0742,2.0547-2.8145,3.2061
		c-6.7197,10.4795-4.705,60.9043-4.705,60.9043h45.3701h48.9053l27.1445-48.2061l27.1855,48.2061h55.8301h45.3906
		c0,0,2.0137-50.4248-4.7256-60.9043C833.7971,571.2451,832.7893,570.1768,831.7414,569.1904z M710.8762,585.0947l-16.0889-16.1104
		l16.0684-16.0684l16.1094,16.0684L710.8762,585.0947z M634.8059,274.0747h48.9053l27.1445-48.2065l27.1855,48.2065h55.8301h45.3906
		c0,0,2.0137-50.4258-4.7256-60.9468c-0.7392-1.1093-1.747-2.1367-2.7949-3.2055c-9.7197-9.8633-32.3838-16.7676-54.9463-26.1582
		c-25.0078-10.418-30.8632-14.0342-30.8632-14.0342l-0.2881-24.0005c0,0,9.3701-7.1509,12.247-29.6924
		c5.836,1.6436,12-8.7334,12.3702-14.2607c0.288-5.2603-0.8213-19.9527-7.9522-18.4732c1.418-11.0962,2.5274-20.98,1.9932-26.2812
		c-1.8701-19.2539-20.836-39.5557-49.9737-39.5557s-48.1035,20.3018-49.9326,39.5557c-0.5342,5.3012,0.4932,15.185,1.9932,26.2812
		c-7.1719-1.4795-8.2813,13.2129-7.9522,18.4732c0.3291,5.5273,6.4522,15.9043,12.3077,14.2607
		c2.9394,22.5415,12.2675,29.6924,12.2675,29.6924l-0.2461,24.0005c0,0-5.9179,3.6162-30.8847,14.0342
		c-22.541,9.3906-45.2471,16.2949-54.9258,26.1582c-1.0469,1.0688-2.0742,2.0962-2.8145,3.2055
		c-6.7197,10.521-4.705,60.9468-4.705,60.9468H634.8059z M710.8557,193.6895l16.1094,16.0688l-16.0889,16.1099l-16.0889-16.1099
		L710.8557,193.6895z"/>
</g>
</svg>
