<?xml version="1.0" encoding="utf-8"?>
<!-- Generator: Adobe Illustrator 17.1.0, SVG Export Plug-In . SVG Version: 6.00 Build 0)  -->
<!DOCTYPE svg PUBLIC "-//W3C//DTD SVG 1.1//EN" "http://www.w3.org/Graphics/SVG/1.1/DTD/svg11.dtd">
<svg version="1.1" id="business-meeting" xmlns="http://www.w3.org/2000/svg" xmlns:xlink="http://www.w3.org/1999/xlink" x="0px"
	 y="0px" viewBox="0 0 1009.9954 920.4029" enable-background="new 0 0 1009.9954 920.4029" xml:space="preserve">
<g id="business-meeting-business-meeting">
	<path fill-rule="evenodd" clip-rule="evenodd" fill="#58595B" d="M641.8295,338.7198l-36.6367-0.041l0.1426-93.9473
		c-1.8691-54.7407-24.4316-91.728-83.8169-86.0156l-60.8232,0.9043l-39.7818,115.7285l-37.0278-114.7012l-76.6455,1.0273
		c-53.8575-1.8081-71.0156,44.837-69.002,91.7691l0.9453,85.605c-307.9174,19.8086-329.5346,490.7778-0.5341,508.2837
		l0.5341,73.0703h365.6792l0.0411-72.8223h38.7539l0.5136,68.3027h365.6602l0.164-170.0996
		c-1.871-50.0976-24.4316-84.0429-83.7968-78.8242l-214.2793,2.7539c-53.836-1.6445-71.0352,41.0547-68.9805,84.002l0.3906,52.8086
		l-38.3847,0.2461l0.041-61.8907c-1.8692-51.0019-24.4317-85.6054-83.8164-80.2207l-214.2583,2.7539
		c-53.878-1.7265-71.0357,41.877-69.0015,85.6446l0.4522,55.6035c-283.7735-13.3555-260.8414-427.8164,17.9179-429.0903
		l385.96,0.041v0.2465h365.6797l0.1445-134.0166c-1.8906-58.0698-24.4316-97.3994-83.7969-91.2763l-60.8437,0.9043
		l-39.8028,123.0029l-37.0078-121.8931l-76.6035,1.1094c-53.8574-1.9316-71.0156,47.6314-69.0019,97.4404L641.8295,338.7198
		L641.8295,338.7198z"/>
	<path fill-rule="evenodd" clip-rule="evenodd" fill="#B4BB4A" d="M421.263,495.0513c37.7676,0,68.5904,30.043,68.5904,66.8652
		c0,36.8633-30.8228,66.9473-68.5904,66.9473c-37.7885,0-68.5498-30.084-68.5498-66.9473
		C352.7133,525.0943,383.4745,495.0513,421.263,495.0513L421.263,495.0513z"/>
	<path fill-rule="evenodd" clip-rule="evenodd" fill="#B4BB4A" d="M826.2728,497.4361c37.7461,0,68.5273,29.959,68.5273,66.8633
		c0,36.8242-30.7812,66.8652-68.5273,66.8652c-37.7481,0-68.5703-30.041-68.5703-66.8652
		C757.7025,527.3951,788.5247,497.4361,826.2728,497.4361L826.2728,497.4361z"/>
	<path fill-rule="evenodd" clip-rule="evenodd" fill="#B4BB4A" d="M421.6122,1.3975c37.7681,0,68.5699,30.0415,68.5699,66.8643
		c0,36.8637-30.8018,66.9467-68.5699,66.9467c-37.7885,0-68.5493-30.083-68.5493-66.9467
		C353.0628,31.439,383.8236,1.3975,421.6122,1.3975L421.6122,1.3975z"/>
	<path fill-rule="evenodd" clip-rule="evenodd" fill="#B4BB4A" d="M824.3607,0c37.7265,0,68.5488,30.083,68.5488,66.9468
		c0,36.8228-30.8223,66.9058-68.5488,66.9058c-37.7891,0-68.5899-30.083-68.5899-66.9058C755.7708,30.083,786.5717,0,824.3607,0z"/>
</g>
</svg>
