<?xml version="1.0" encoding="utf-8"?>
<!-- Generator: Adobe Illustrator 17.1.0, SVG Export Plug-In . SVG Version: 6.00 Build 0)  -->
<!DOCTYPE svg PUBLIC "-//W3C//DTD SVG 1.1//EN" "http://www.w3.org/Graphics/SVG/1.1/DTD/svg11.dtd">
<svg version="1.1" id="business-team-2" xmlns="http://www.w3.org/2000/svg" xmlns:xlink="http://www.w3.org/1999/xlink" x="0px"
	 y="0px" viewBox="0 0 1010 746.3628" enable-background="new 0 0 1010 746.3628" xml:space="preserve">
<g id="business-team-2-business-team">
	<path fill="#58595B" d="M128.5928,164.3262c45.4121,0,82.1938-36.7817,82.1938-82.2143C210.7866,36.7408,174.0049,0,128.5928,0
		C83.2217,0,46.4395,36.7408,46.4395,82.1119C46.4395,127.5445,83.2217,164.3262,128.5928,164.3262z"/>
	<path fill="#B4BB4A" d="M235.7324,252.2535l-4.2329-15.4732c-2.7124-10.2129-16.2744-56.0356-100.1533-56.0356
		c-74.1802,0-97.4409,45.8227-100.1533,56.0356l-4.1919,15.4732c-2.836,7.2124-4.8086,14.6919-6.1031,22.4389L0,352.1812h262.7124
		l-20.9595-77.4888C240.4585,266.9454,238.5474,259.4659,235.7324,252.2535z"/>
	<path fill="#58595B" d="M588.4883,164.3262c45.3711,0,82.1123-36.7817,82.1123-82.2143C670.6006,36.7408,633.8594,0,588.4883,0
		s-82.2144,36.7408-82.2144,82.1119C506.2739,127.5445,543.1172,164.3262,588.4883,164.3262z"/>
	<path fill="#B4BB4A" d="M695.6074,252.2535l-4.2324-15.4732c-2.7129-10.2129-16.2334-56.0356-100.1738-56.0356
		c-74.1597,0-97.3999,45.8227-100.1123,56.0356l-4.2334,15.4732c-2.815,7.2124-4.8286,14.6919-6.0616,22.4389l-20.9184,77.4888
		h262.7124l-20.918-77.4888C700.3955,266.9454,698.4229,259.4659,695.6074,252.2535z"/>
	<path fill="#58595B" d="M875.8594,164.3262c45.4121,0,82.1523-36.7817,82.1523-82.2143C958.0117,36.7408,921.2715,0,875.8594,0
		c-45.3711,0-82.1524,36.7408-82.1524,82.1119C793.707,127.5445,830.4883,164.3262,875.8594,164.3262z"/>
	<path fill="#B4BB4A" d="M989.082,274.6924c-1.2744-7.747-3.2469-15.2265-6.1035-22.4389l-4.1504-15.4732
		c-2.7539-10.2129-16.2744-56.0356-100.2148-56.0356c-74.2217,0-97.4414,45.8227-100.1543,56.0356l-4.2324,15.4732
		c-2.8155,7.2124-4.7461,14.6919-6.0215,22.4389l-20.959,77.4888H1010L989.082,274.6924z"/>
	<path fill="#58595B" d="M670.6006,476.2935c0-45.3711-36.7412-82.1943-82.1123-82.1943s-82.2144,36.8232-82.2144,82.1943
		c0,45.4326,36.8433,82.1729,82.2144,82.1729S670.6006,521.7261,670.6006,476.2935z"/>
	<path fill="#B4BB4A" d="M695.6074,646.3941l-4.2324-15.4316c-2.7129-10.2129-16.2334-56.0772-100.1738-56.0772
		c-74.1597,0-97.3999,45.8643-100.1123,56.0772l-4.2334,15.4316c-2.815,7.1504-4.8286,14.6504-6.0616,22.4805l-20.9184,77.4882
		h262.7124l-20.918-77.4882C700.3955,661.0445,698.4229,653.5445,695.6074,646.3941z"/>
	<path fill="#58595B" d="M793.707,476.2935c0,45.4326,36.7813,82.1729,82.1524,82.1729c45.4121,0,82.1523-36.7403,82.1523-82.1729
		c0-45.3711-36.7402-82.1943-82.1523-82.1943C830.4883,394.0992,793.707,430.9224,793.707,476.2935z"/>
	<path fill="#B4BB4A" d="M982.9785,646.3941l-4.1504-15.4316c-2.7539-10.2129-16.2744-56.0772-100.2148-56.0772
		c-74.2217,0-97.4414,45.8643-100.1543,56.0772l-4.2324,15.4316c-2.8155,7.1504-4.7461,14.6504-6.0215,22.4805l-20.959,77.4882H1010
		l-20.918-77.4882C987.8076,661.0445,985.835,653.5445,982.9785,646.3941z"/>
	<polygon fill="#58595B" points="283.2202,221.6773 324.2964,221.6773 324.2964,656.8941 336.6255,656.8941 336.6255,656.8941 
		439.2651,656.8941 439.2651,620.0093 369.4824,620.0093 369.4824,221.6773 439.2651,221.6773 439.2651,184.7515 283.2202,184.7515 
			"/>
</g>
</svg>
