<?xml version="1.0" encoding="utf-8"?>
<!-- Generator: Adobe Illustrator 17.1.0, SVG Export Plug-In . SVG Version: 6.00 Build 0)  -->
<!DOCTYPE svg PUBLIC "-//W3C//DTD SVG 1.1//EN" "http://www.w3.org/Graphics/SVG/1.1/DTD/svg11.dtd">
<svg version="1.1" id="businessman" xmlns="http://www.w3.org/2000/svg" xmlns:xlink="http://www.w3.org/1999/xlink" x="0px"
	 y="0px" viewBox="0 0 911.8215 1010" enable-background="new 0 0 911.8215 1010" xml:space="preserve">
<g id="businessman-businessman">
	<path fill="#58595B" d="M455.8835,410.4771c108.732,0,196.9683-91.9136,196.9683-205.2388C652.8517,91.9136,564.6155,0,455.8835,0
		c-108.7426,0-196.896,91.9136-196.896,205.2383C258.9875,318.5635,347.1409,410.4771,455.8835,410.4771z"/>
	<polygon fill="#B4BB4A" points="469.99,529.8437 551.4435,460.0811 360.3845,460.0811 437.2561,529.8437 389.3987,672.9219 
		452.2771,822.8438 522.4094,670.498 	"/>
	<path fill="#58595B" d="M909.7278,807.5566c-3.9863-67.8105-15.6162-139.6679-52.2549-197.3476
		c-38.4668-60.5371-140.3867-114.7852-205.875-133.1963L455.9143,895.4219L262.2034,469.7593
		C114.6858,498.7949,64.3625,591.8174,56.4104,607.5781c-0.6577,0.9864-1.4385,1.7051-2.0757,2.6309
		C17.738,667.8887,6.0666,739.7461,2.0593,807.5566c-2.2807,38.3018-2.6504,77.2207-1.1914,115.5645
		C1.9773,952.2998,3.5598,981.1289,5.2034,1010H155.906c1.0483-38.3027,1.7261-63.248,1.7466-64.2969
		c0.4521-17.0752,1.2329-34.0078,1.4795-51.0625c0.2261-10.4796-0.2256-21.4531,2.0757-31.789
		c2.4658-11.1368,10.685-20.4865,20.5278-11.4649c5.0137,4.541,5.6304,25.5,5.6919,35.3633
		c0.7397,39.6992,1.0068,76.3994,1.2944,109.9756c0.062,4.6435,0.1646,8.7539,0.2261,13.2744h533.9116
		c0.1035-4.5205,0.1641-8.6309,0.1856-13.2744c0.3496-33.5762,0.5752-70.2764,1.3144-109.9756
		c0.1856-9.8633,0.7403-30.8223,5.7129-35.3633c9.8428-9.0215,18.082,0.3281,20.5488,11.4649
		c2.3008,10.3359,1.8692,21.3094,2.0547,31.789c0.3086,17.0547,1.0479,33.9873,1.4785,51.0625
		c0.0215,1.0489,0.6788,25.9942,1.7266,64.2969h150.7031c1.6641-28.8711,3.2676-57.7002,4.3555-86.8789
		C912.4202,884.7773,912.0499,845.8584,909.7278,807.5566z"/>
</g>
</svg>
