<?xml version="1.0" encoding="utf-8"?>
<!-- Generator: Adobe Illustrator 17.1.0, SVG Export Plug-In . SVG Version: 6.00 Build 0)  -->
<!DOCTYPE svg PUBLIC "-//W3C//DTD SVG 1.1//EN" "http://www.w3.org/Graphics/SVG/1.1/DTD/svg11.dtd">
<svg version="1.1" id="business-presentation" xmlns="http://www.w3.org/2000/svg" xmlns:xlink="http://www.w3.org/1999/xlink"
	 x="0px" y="0px" viewBox="0 0 1009.9982 1006.1763" enable-background="new 0 0 1009.9982 1006.1763" xml:space="preserve">
<g id="business-presentation-business-presentation">
	<path fill="#58595B" d="M232.4853,1006.1763H1.1303c-6.1855-199.5254,115.6465-184.6484,115.6465-184.6484
		S238.6294,806.6509,232.4853,1006.1763z"/>
	<path fill="#58595B" d="M178.9775,728.1353c0-34.377-27.8432-62.2207-62.2007-62.2207c-34.3159,0-62.1591,27.8438-62.1591,62.2207
		c0,34.3359,27.8432,62.1797,62.1591,62.1797C151.1343,790.315,178.9775,762.4712,178.9775,728.1353z"/>
	<path fill="#58595B" d="M403.9629,821.5279c0,0-121.8526-14.877-115.6675,184.6484h231.3555
		C525.7944,806.6509,403.9629,821.5279,403.9629,821.5279z"/>
	<path fill="#58595B" d="M466.1426,728.1353c0-34.377-27.8228-62.2207-62.1797-62.2207c-34.3369,0-62.1797,27.8438-62.1797,62.2207
		c0,34.3359,27.8428,62.1797,62.1797,62.1797C438.3198,790.315,466.1426,762.4712,466.1426,728.1353z"/>
	<path fill="#58595B" d="M691.1279,821.5279c0,0-121.8115-14.877-115.6475,184.6484h231.336
		C812.9804,806.6509,691.1279,821.5279,691.1279,821.5279z"/>
	<path fill="#58595B" d="M753.3281,728.1353c0-34.377-27.8437-62.2207-62.2002-62.2207c-34.3154,0-62.1592,27.8438-62.1592,62.2207
		c0,34.3359,27.8438,62.1797,62.1592,62.1797C725.4844,790.315,753.3281,762.4712,753.3281,728.1353z"/>
	<path fill="#58595B" d="M845.8984,222.232c32.3848,0,58.625-26.2608,58.625-58.6661c0-32.3432-26.2402-58.6245-58.625-58.6245
		c-32.3428,0-58.6035,26.2813-58.6035,58.6245C787.2949,195.9712,813.5556,222.232,845.8984,222.232z"/>
	<path fill="#58595B" d="M927.7441,446.4981v-62.5493l-130.2578-0.1851l1.0078,149.8188l165.9903,1.7462l-1.0069,81.043H742.334
		V456.4849c0,0-29.1993,36.2265-84.5157,5.5068c-4.5615-2.5273-9.3691-5.2807-14.3007-8.1577v97.7896H0V0h634.8242h8.6934v370.6333
		l45.5546,21.5962c11.0147-18.3701,20.2207-33.083,33.0625-55.1313c49.6055-91.8726,119.5108-85.9956,119.5108-85.9956
		s85.2969-11.2808,131.0381,78.9062c14.0752,27.7817,21.9043,46.8916,30.9668,83.2422
		c21.9863,88.4194-18.2481,107.0776-42.9678,109.0503c0,0-136.2773-2.3008-148.5654-2.4649
		c-0.2051-9.371-0.8008-37.9335-0.9659-46.0087C821.2207,471.5879,927.7441,446.4981,927.7441,446.4981z M626.1533,17.3638
		c-16.6025,0-592.166,0-608.79,0c0,16.3975,0,500.4375,0,516.8965c16.624,0,592.1875,0,608.79,0c0-4.2949,0-40.0274,0-90.8648
		c-45.0421-27.4321-94.2148-61.0908-94.2148-61.0908l9.3085-17.3633L342.0298,254.9248l10.0683-18.206l198.9712,109.852
		l8.4248-15.6577l66.6592,31.501C626.1533,215.9238,626.1533,27.4531,626.1533,17.3638z"/>
	<path fill="#B4BB4A" d="M120.7636,344.8858c7.6231,2.4658,16.0279-1.7466,18.5962-9.5342l61.1524-189.9912l79.5019,128.8388
		l86.92-136.5034l92.4682,141.9282l57.2691-164.2441c2.6914-7.7261-1.3565-16.1304-9.0415-18.8223
		c-7.6441-2.7739-16.0689,1.356-18.6993,9.062l-37.583,107.6534L366.6875,83.2422l-86.3238,135.4966L192.0254,75.5366
		L111.311,326.3921C108.7837,334.1187,113.0371,342.3994,120.7636,344.8858z"/>
</g>
</svg>
