<?xml version="1.0" encoding="utf-8"?>
<!-- Generator: Adobe Illustrator 17.1.0, SVG Export Plug-In . SVG Version: 6.00 Build 0)  -->
<!DOCTYPE svg PUBLIC "-//W3C//DTD SVG 1.1//EN" "http://www.w3.org/Graphics/SVG/1.1/DTD/svg11.dtd">
<svg version="1.1" id="businessmen-shaking-hands" xmlns="http://www.w3.org/2000/svg" xmlns:xlink="http://www.w3.org/1999/xlink"
	 x="0px" y="0px" viewBox="0 0 1010 940.8647" enable-background="new 0 0 1010 940.8647" xml:space="preserve">
<g id="businessmen-shaking-hands-businessmen-shaking-hands">
	<g>
		<path fill="#58595B" d="M689.7491,75.4531c0,41.6719-33.9248,75.4531-75.8027,75.4531c-41.8565,0-75.7822-33.7812-75.7822-75.4531
			C538.1642,33.7812,572.0899,0,613.9464,0C655.8243,0,689.7491,33.7812,689.7491,75.4531z"/>
		<path fill="#B4BB4A" d="M981.7814,472.8979c-0.4727-0.3701-1.1299-0.4931-1.7461-0.3701l-60.7002,12l-3.6983-18.6162
			c-2.3838-11.8359-13.9531-19.562-25.8711-17.2608l-52.7265,10.4805c-11.8975,2.3828-19.623,13.8906-17.3018,25.7256
			l3.7197,18.6582l-60.6992,11.959c-0.5762,0.123-1.1514,0.4932-1.4805,0.9863c-0.3281,0.5342-0.4511,1.1514-0.3281,1.8076
			l27.1641,136.2774c0.123,0.6161,0.4941,1.1094,0.9863,1.4785c0.5137,0.3291,1.1719,0.4531,1.7471,0.3291l217.2773-42.9463
			c0.5967-0.123,1.1709-0.4922,1.5-0.9863c0.3291-0.5332,0.4522-1.1505,0.3291-1.7256l-27.1855-136.3174
			C982.6446,473.7612,982.295,473.227,981.7814,472.8979z M832.087,482.4321c-1.0068-5.0547,2.3633-10.0273,7.3975-11.0547
			l52.748-10.4385c5.0137-0.9453,10.0684,2.3838,11.0752,7.4385l3.7393,18.5762l-71.2617,14.1367L832.087,482.4321z"/>
		<path fill="#58595B" d="M853.5802,345.2109c-21.3086-62.9189-57.7403-142.605-119.4258-177.0029
			c-16.7266-9.3291-34.1523-13.9727-51.4121-14.7949c-1.9522-0.1231-3.8633-0.1641-5.7949-0.1641
			c-46.5215,0-91.3575,26.8769-120.4121,63.9463L391.2237,428.103c-0.7602,0.9863-0.6372,2.4653,0.3081,3.2876l34.1514,29.9185
			c0.9243,0.7812,2.3013,0.7812,3.2056,0l157.6875-142.3999c1.0888,11.9179,3.7402,44.7543,3.7402,80.9604
			c0.041,36.3701-2.7539,76.1523-12.248,100.9746L463.2042,935.1528c-0.1645,0.6982-0.0205,1.4375,0.4522,2.0137
			c0.4111,0.5742,1.0683,0.9453,1.8081,0.9863l77.8579,2.7119l2.3632-1.5615L674.297,588.4204l99.084,349.3203
			c0.3086,1.1924,1.4375,1.8906,2.6504,1.7266l73.7685-9.4932c0.6572-0.082,1.2744-0.4521,1.6641-0.9863
			c0.3906-0.5342,0.5136-1.2334,0.3906-1.8487l-76.5635-430.9804c0.041,0.2871-15.6162-137.7559-25.2734-204.4146
			c19.6025,33.001,77.9599,134.9204,83.4053,187.0718c0.0615,0.6982,0.4716,1.3154,1.0479,1.7256
			c0.5547,0.3711,1.2734,0.5351,1.9727,0.3711l43.6855-10.8907c1.1719-0.33,1.9316-1.3984,1.8087-2.5898
			C877.1085,426.0888,866.8136,384.4995,853.5802,345.2109z"/>
	</g>
	<g>
		<path fill="#58595B" d="M162.172,75.4531c0,41.6719,33.9043,75.4531,75.7817,75.4531c41.8364,0,75.7822-33.7812,75.7822-75.4531
			C313.7359,33.7812,279.7901,0,237.9537,0C196.0763,0,162.172,33.7812,162.172,75.4531z"/>
		<path fill="#58595B" d="M118.774,169.6875c53.3843-44.3433,135.8653,3.1645,176.5918,47.5078
			c0.0205,0,165.3111,210.9077,165.3111,210.9077c0.7807,0.9863,0.6367,2.4653-0.3081,3.2876l-34.1719,29.9185
			c-0.9043,0.7812-2.2808,0.7812-3.1851,0L265.3243,318.9092c-1.0683,11.9179-3.7397,44.7543-3.7397,80.9604
			c-0.041,36.3701,2.7329,76.1523,12.2466,100.9746l114.8652,434.3086c0.1641,0.6982,0.0205,1.4375-0.4522,2.0137
			c-0.4111,0.5742-1.0688,0.9453-1.8086,0.9863l-77.8779,2.7119l-2.3423-1.5615L177.6036,588.4204L78.4991,937.7407
			c-0.2876,1.1924-1.4179,1.8906-2.6299,1.7266l-73.7685-9.4932c-0.6577-0.082-1.2739-0.4521-1.6646-0.9863
			c-0.3901-0.5342-0.5136-1.2334-0.3901-1.8487l76.542-430.9804c3.3291-23.4668-2.938-50.9185-3.2261-74.5904
			c-0.9243-71.3437-14.7124-170.5918,28.583-233.1816C107.1231,180.8657,112.7735,174.7011,118.774,169.6875z"/>
	</g>
</g>
</svg>
