<?xml version="1.0" encoding="utf-8"?>
<!-- Generator: Adobe Illustrator 17.1.0, SVG Export Plug-In . SVG Version: 6.00 Build 0)  -->
<!DOCTYPE svg PUBLIC "-//W3C//DTD SVG 1.1//EN" "http://www.w3.org/Graphics/SVG/1.1/DTD/svg11.dtd">
<svg version="1.1" id="business-planner" xmlns="http://www.w3.org/2000/svg" xmlns:xlink="http://www.w3.org/1999/xlink" x="0px"
	 y="0px" viewBox="0 0 1002.5903 1010" enable-background="new 0 0 1002.5903 1010" xml:space="preserve">
<g id="business-planner-business-planner">
	<path fill="#B4BB4A" d="M890.0415,83.0596V41.0752C890.0415,18.3696,871.6714,0,849.0122,0
		c-22.6816,0-41.0508,18.3696-41.0508,41.0752v41.751h-87.0928v-41.751C720.8687,18.3696,702.4985,0,679.7935,0
		c-22.6123,0-40.9824,18.3696-40.9824,41.0752v41.751h-87.1152v-41.751C551.6959,18.3696,533.3267,0,510.644,0
		c-22.6582,0-41.0283,18.3696-41.0283,41.0752v41.751h-87.0683v-41.751C382.5475,18.3696,364.1772,0,341.4723,0
		c-22.6592,0-41.0284,18.3696-41.0284,41.0752v41.751h-87.0693v-41.751C213.3745,18.3696,194.9819,0,172.3227,0
		c-22.6591,0-41.0517,18.3696-41.0517,41.0752v41.751h-14.4531c-127.9346,0-116.5586,147.3296-116.5586,147.3296v67.1611h8.7422
		h984.8232h8.7656V183.6724C1002.5903,183.6724,998.604,85.3906,890.0415,83.0596z M226.0562,187.5654
		c0,5.8745-4.872,10.7002-10.747,10.7002h-88.3506c-5.9219,0-10.7471-4.8257-10.7471-10.7002v-62.9878
		c0-5.9214,4.8252-10.7002,10.7471-10.7002h4.3125v1.5855c0,22.6821,18.3926,41.0517,41.0517,41.0517
		c22.6592,0,41.0518-18.3696,41.0518-41.0517v-1.5855h1.9346c5.875,0,10.747,4.7788,10.747,10.7002V187.5654z M395.2516,187.5654
		c0,5.8745-4.8487,10.7002-10.7227,10.7002h-88.3516c-5.8974,0-10.7236-4.8257-10.7236-10.7002v-62.9878
		c0-5.9214,4.8262-10.7002,10.7236-10.7002h4.2666v1.5855c0,22.6821,18.3692,41.0517,41.0284,41.0517
		c22.705,0,41.0752-18.3696,41.0752-41.0517v-1.5855h1.9814c5.874,0,10.7227,4.7788,10.7227,10.7002V187.5654z M564.4713,187.5654
		c0,5.8745-4.8496,10.7002-10.7237,10.7002H465.397c-5.9219,0-10.7471-4.8257-10.7471-10.7002v-62.9878
		c0-5.9214,4.8252-10.7002,10.7471-10.7002h4.2187v1.5855c0,22.6821,18.3701,41.0517,41.0283,41.0517
		c22.6827,0,41.0518-18.3696,41.0518-41.0517v-1.5855h2.0517c5.8741,0,10.7237,4.7788,10.7237,10.7002V187.5654z M733.7134,187.5654
		c0,5.8745-4.8721,10.7002-10.7461,10.7002h-88.3516c-5.9219,0-10.7002-4.8257-10.7002-10.7002v-62.9878
		c0-5.9214,4.7783-10.7002,10.7002-10.7002h4.1953v1.5855c0,22.6821,18.3701,41.0517,40.9824,41.0517
		c22.7051,0,41.0752-18.3696,41.0752-41.0517v-1.5855h2.0987c5.874,0,10.7461,4.7788,10.7461,10.7002V187.5654z M902.9088,187.5654
		c0,5.8745-4.8018,10.7002-10.7227,10.7002h-88.3281c-5.9209,0-10.7227-4.8257-10.7227-10.7002v-62.9878
		c0-5.9214,4.8018-10.7002,10.7227-10.7002h4.1035v1.5855c0,22.6821,18.3692,41.0517,41.0508,41.0517
		c22.6592,0,41.0293-18.3696,41.0293-41.0517v-1.5855h2.1445c5.9209,0,10.7227,4.7788,10.7227,10.7002V187.5654z"/>
	<path fill="#58595B" d="M1001.7739,329.1606H1.0757H0.2593v8.0191v574.8887c0,53.873,44.082,97.9316,97.9326,97.9316h806.4883
		c53.8271,0,97.9101-44.0586,97.9101-97.9316V337.1797v-8.0191H1001.7739z M263.5415,917.6162H135.9332V790.0313h127.6084V917.6162z
		 M263.5415,726.251H135.9332V598.666h127.6084V726.251z M454.9067,917.6162H327.3452V790.0313h127.5615V917.6162z
		 M454.9067,726.251H327.3452V598.666h127.5615V726.251z M454.9067,534.8857H327.3452V407.2778h127.5615V534.8857z
		 M646.3647,917.6162H518.7339V790.0313h127.6308V917.6162z M646.3647,726.251H518.7339V598.666h127.6308V726.251z
		 M646.3647,534.8857H518.7339V407.2778h127.6308V534.8857z M837.7524,726.251H710.1216V598.666h127.6308V726.251z
		 M837.7524,534.8857H710.1216V407.2778h127.6308V534.8857z"/>
</g>
</svg>
