<?xml version="1.0" encoding="utf-8"?>
<!-- Generator: Adobe Illustrator 17.1.0, SVG Export Plug-In . SVG Version: 6.00 Build 0)  -->
<!DOCTYPE svg PUBLIC "-//W3C//DTD SVG 1.1//EN" "http://www.w3.org/Graphics/SVG/1.1/DTD/svg11.dtd">
<svg version="1.1" id="business-idea" xmlns="http://www.w3.org/2000/svg" xmlns:xlink="http://www.w3.org/1999/xlink" x="0px"
	 y="0px" viewBox="0 0 873.6585 1010" enable-background="new 0 0 873.6585 1010" xml:space="preserve">
<g id="business-idea-business-idea">
	<g>
		<g>
			<path fill="#B4BB4A" d="M767.5693,251.9248c0-62.9194-51.124-113.8594-114.167-113.8594
				c-63.0839,0-114.2089,50.94-114.2089,113.8594c0,19.8906,5.0957,38.5488,14.1367,54.8232h-1.4375
				c0,0,2.2187,2.4659,5.6719,6.9249c2.4238,3.8222,5.0957,7.5004,7.9726,10.9526c19.2734,27.7812,51.5762,84.9267,45.5762,150.7436
				h84.5781c-6.042-65.8169,26.2188-122.9624,45.5352-150.7436c2.9589-3.4522,5.5479-7.1304,7.9726-10.9526
				c3.4932-4.459,5.713-6.9249,5.713-6.9249h-1.4395C762.4736,290.4736,767.5693,271.8154,767.5693,251.9248z"/>
			<rect x="611.1133" y="492.2393" fill="#B4BB4A" width="80.3447" height="16.8701"/>
			<rect x="611.1133" y="525.959" fill="#B4BB4A" width="80.3447" height="16.8496"/>
			<path fill="#B4BB4A" d="M653.4023,559.6797c-14.0556,0-25.3574,5.6914-25.3574,12.6777c0,6.9863,11.3018,12.6582,25.3574,12.6582
				c14.0137,0,25.3565-5.6719,25.3565-12.6582C678.7588,565.3711,667.416,559.6797,653.4023,559.6797z"/>
		</g>
	</g>
	<g>
		<polygon fill="#58595B" points="757.9121,131.6338 844.5859,88.708 856.709,106.7495 769.9941,149.7163 757.9121,131.6338 		"/>
		<polygon fill="#58595B" points="706.7051,95.3862 756.7607,21.0415 777.8027,31.4395 727.7461,105.7837 706.7051,95.3862 		"/>
		<polyline fill="#58595B" points="641.2373,0 641.2373,85.8926 665.5664,85.8926 665.5664,0 641.2373,0 		"/>
		<polygon fill="#58595B" points="529.002,31.4395 550.043,21.0415 600.0586,95.3862 579.0166,105.7837 529.002,31.4395 		"/>
		<polygon fill="#58595B" points="536.7686,149.7163 450.0537,106.77 462.2187,88.708 548.8926,131.6543 536.7686,149.7163 		"/>
	</g>
	<g>
		<path fill="#58595B" d="M443.4375,346.4067c0-94.2763-76.4814-170.7168-170.8408-170.7168
			c-94.2764,0-170.7578,76.4405-170.7578,170.7168c0,94.3794,76.4814,170.8404,170.7578,170.8404
			C366.9561,517.2471,443.4375,440.7861,443.4375,346.4067z"/>
		<path fill="#58595B" d="M354.3389,543.5488H184.3203l84.9893,276.3163L354.3389,543.5488z M844.627,573.5703
			c-33.248-26.5488-81.8243-21.1855-108.4961,12.1856L620.6895,730.1504L529.043,612.9619
			c-22.2344-41.1787-65.2217-69.4131-115.1953-69.4131h-49.4815l67.5635,55.7891l-55.8096,36.1445l26.2608,62.4062
			L271.9395,828.3105l2.3427,7.5206l-4.9726-4.8907l-4.8907,4.8907l2.3008-7.5206L136.3193,697.8887l26.2608-62.4062
			l-55.8096-36.1445l67.5635-55.7891h-42.9463C58.8516,543.5488,0,602.3594,0,674.8945V1010h545.2344V884.4277l11.0136,13.9942
			c20.0567,25.8087,53.0567,35.1377,82.5235,26.4258c17.3428-3.3497,33.7402-12.2481,45.6992-27.2481L856.709,682.1279
			C883.3809,648.8594,877.9971,600.2627,844.627,573.5703z"/>
	</g>
</g>
</svg>
