<?xml version="1.0" encoding="utf-8"?>
<!-- Generator: Adobe Illustrator 17.1.0, SVG Export Plug-In . SVG Version: 6.00 Build 0)  -->
<!DOCTYPE svg PUBLIC "-//W3C//DTD SVG 1.1//EN" "http://www.w3.org/Graphics/SVG/1.1/DTD/svg11.dtd">
<svg version="1.1" id="businessman-dollar-coin" xmlns="http://www.w3.org/2000/svg" xmlns:xlink="http://www.w3.org/1999/xlink"
	 x="0px" y="0px" viewBox="0 0 774.0201 1010" enable-background="new 0 0 774.0201 1010" xml:space="preserve">
<g id="businessman-dollar-coin-businessman-dollar-coin">
	<g>
		<path fill="#58595B" d="M208.8135,218.3896c60.8648,0,110.0991-48.9057,110.0991-109.1538C318.9126,48.9053,269.6783,0,208.8135,0
			C147.9903,0,98.7149,48.9053,98.7149,109.2358C98.7149,169.4839,147.9903,218.3896,208.8135,218.3896z"/>
		<path fill="#58595B" d="M611.523,420.792c-18.165,0-74.4678,0-121.6064,0c-18.3692-27.8223-56.1788-80.2007-88.5225-128.7153
			c-22.1099-33.1656-61.1524-55.0704-103.8521-55.0704c-4.3149,0-10.1919,0-17.1782,0l-5.6304,5.0962l-51.6181,46.8711
			l36.7822,109.8521L211.6084,513.959L157.73,396.9766l40.2754-108.003l-54.7412-46.9531l-5.918-5.0142
			c-9.9048,0-18.3296,0-24.165,0C45.5352,237.0063,0,291.8711,0,359.5166c0,34.46,0,273.501,0,296.6377
			c0,23.0977,18.1646,41.8164,41.2613,41.8164c23.0552,0,41.8779-18.7187,41.8779-41.8164c0-27,0-267.4385,0-267.4385h11.7124
			c0,0,0,474.7735,0,621.2842H207.334c0-95.9199,0-309.2959,0-309.2959h23.0147c0,0,0,213.376,0,309.2959h112.4824
			c0-18.9043,0-43.3574,0-71.4268c-47.3027-48.4531-76.605-114.5781-76.605-187.5253c0-72.8447,29.3023-138.9902,76.605-187.4434
			c0-99.7017,0-174.8887,0-174.8887h9.9453c0,0,49.1109,73.7075,63.9468,96.167c5.1787,7.7471,12.4941,12.9668,20.6309,15.9453
			c30.4121-11.9375,63.33-18.7187,97.8925-18.7187c33.2891,0,65.0977,6.3496,94.5645,17.5068
			c13.9316-6.8223,23.6308-21.0005,23.6308-37.624C653.4419,438.916,634.7017,420.792,611.523,420.792z"/>
	</g>
	<g>
		<path fill="#B4BB4A" d="M535.2466,512.2734c-79.1113,0-149.0171,38.632-192.4155,97.8526
			c-29.0146,39.4941-46.3984,88.1123-46.3984,140.9219c0,52.8301,17.3838,101.4268,46.3984,140.962
			c43.3984,59.2627,113.3042,97.873,192.4155,97.873c131.8809,0,238.7735-106.9551,238.7735-238.835
			S667.1275,512.2734,535.2466,512.2734z M535.2466,951.1074c-91.5634,0-168.8257-61.8916-192.4155-146.0781
			c-4.8906-17.1582-7.644-35.2002-7.644-53.9814c0-18.6993,2.7534-36.7001,7.644-53.96
			c23.5898-84.126,100.8521-146.0801,192.4155-146.0801c110.3047,0,200.0606,89.6943,200.0606,200.04
			C735.3072,861.4141,645.5513,951.1074,535.2466,951.1074z"/>
		<path fill="#B4BB4A" d="M559.2066,736.1094l-12.9453-4.9942v-62.3437c17.6299,1.3769,35.4668,5.5898,53.3847,12.6582
			l12.5342-31.3164c-20.7949-8.5479-42.8222-13.2324-65.9189-14.0137v-28.2754h-22.8096v28.7266
			c-21.041,2.1992-37.6855,8.3438-50.0137,18.5351c-12.248,10.1309-18.33,23.1172-18.33,38.8781
			c0,14.7129,4.3154,27.0829,12.9453,37.1103c8.5898,9.9453,22.3164,18.5762,40.9336,25.7676l14.4648,5.3027v64.0284
			c-10.4375-0.1026-22.1504-1.7881-35.3018-5.0547c-13.1103-3.2471-24.5751-7.2531-34.4384-12.083v36.125
			c18.164,8.2597,41.4258,12.5752,69.7402,13.0683v36.125h22.8096v-37.1523c22.8086-2.5069,40.2334-9.1641,52.3574-19.8701
			c12.0829-10.7471,18.165-24.4112,18.165-40.9737c0-13.3769-4.1914-24.5967-12.5351-33.8438
			C595.9478,753.2266,580.9468,744.4316,559.2066,736.1094z M523.4517,722.752c-10.6435-4.253-18-8.5274-22.0684-12.8223
			c-3.9863-4.336-6.082-9.8418-6.082-16.336c0-6.246,2.5059-11.5478,7.2735-15.6992c4.7675-4.2734,11.7128-7.0683,20.8769-8.3828
			V722.752z M546.2613,824.8164v-54.6172c10.7666,4.0069,18.5342,8.1367,23.0967,12.3701
			c4.7265,4.3156,6.9863,9.7393,6.9863,16.3975C576.3443,813.1455,566.2759,821.7344,546.2613,824.8164z"/>
	</g>
</g>
</svg>
