<?xml version="1.0" encoding="utf-8"?>
<!-- Generator: Adobe Illustrator 17.1.0, SVG Export Plug-In . SVG Version: 6.00 Build 0)  -->
<!DOCTYPE svg PUBLIC "-//W3C//DTD SVG 1.1//EN" "http://www.w3.org/Graphics/SVG/1.1/DTD/svg11.dtd">
<svg version="1.1" id="chart-graphs" xmlns="http://www.w3.org/2000/svg" xmlns:xlink="http://www.w3.org/1999/xlink" x="0px"
	 y="0px" viewBox="0 0 1007.2128 1010" enable-background="new 0 0 1007.2128 1010" xml:space="preserve">
<g id="chart-graphs-chart-graphs">
	<path fill="#58595B" d="M577.581,832.2744L635,992.1523C593.0332,1003.3613,549.1386,1010,503.6064,1010
		C237.5615,1010,20.0205,804.2422,0,543.3809h170.205c19.0879,167.3154,160.9732,297.3564,333.4014,297.3564
		C529.0161,840.7373,553.7294,837.6436,577.581,832.2744z M284.2622,251.1685l-94.4058-143.4839
		C82.7251,192.582,11.0961,320.1436,0,464.8564h170.5122C180.6352,379.6719,222.643,304.4678,284.2622,251.1685z M836.7002,464.8564
		h170.5126C988.1347,215.9429,789.5087,17.9307,540.6562,0v171.4346C695.3896,188.4019,818.3193,310.4712,836.7002,464.8564z
		 M466.5468,171.373V0C388.996,5.5537,316.311,28.6069,252.3769,65.3486l94.1289,143.0122
		C383.0429,188.9961,423.5659,176.1069,466.5468,171.373z M647.9921,807.7246l57.4991,160.1436
		c167.3359-73.1339,287.0488-234.0567,301.7216-424.4873h-170.205C823.6269,660.4307,750,758.9551,647.9921,807.7246z"/>
	<path fill="#B4BB4A" d="M416.4345,427.2744h-89.5293v272.8067h89.5293V427.2744z M550.7177,548.5459h-89.5293v151.5352h89.5293
		V548.5459z M595.4716,336.3936v363.6875H685V336.3936H595.4716z"/>
</g>
</svg>
