<?xml version="1.0" encoding="utf-8"?>
<!-- Generator: Adobe Illustrator 17.1.0, SVG Export Plug-In . SVG Version: 6.00 Build 0)  -->
<!DOCTYPE svg PUBLIC "-//W3C//DTD SVG 1.1//EN" "http://www.w3.org/Graphics/SVG/1.1/DTD/svg11.dtd">
<svg version="1.1" id="chess-horse" xmlns="http://www.w3.org/2000/svg" xmlns:xlink="http://www.w3.org/1999/xlink" x="0px"
	 y="0px" viewBox="0 0 583.3062 1009.9998" enable-background="new 0 0 583.3062 1009.9998" xml:space="preserve">
<g id="chess-horse-chess-horse">
	<path fill="#58595B" d="M436.639,544.9021L436.639,544.9021L436.639,544.9021c0,0,0,0-0.0615,0l0,0l0,0l0,0l0,0l0,0l0,0l0,0l0,0
		v0.0411l0,0l0,0l0,0l0,0l0,0c0.0615,0,0.0615,0,0.0615,0C436.639,544.9021,436.639,544.9021,436.639,544.9021z M436.5775,544.9432
		L436.5775,544.9432L436.5775,544.9432v-0.0411l0,0l0,0l0,0l0,0l0,0C436.5775,544.9021,436.5775,544.9021,436.5775,544.9432
		L436.5775,544.9432z M436.5775,544.9021L436.5775,544.9021L436.5775,544.9021L436.5775,544.9021L436.5775,544.9021
		L436.5775,544.9021L436.5775,544.9021z M436.5775,544.9432L436.5775,544.9432c0-0.0411,0-0.0411,0-0.0411
		c0.0615,0,0.0615,0,0.0615,0.0411C436.639,544.9432,436.639,544.9432,436.5775,544.9432z M436.5775,544.9021L436.5775,544.9021
		L436.5775,544.9021c0.0615,0,0.0615,0,0.0615,0S436.639,544.9021,436.5775,544.9021z"/>
	<path fill="#58595B" d="M42.66,1009.9998c-50.7138-44.2207-71.8994-103.4824,26.7134-238.9395h331.8193
		c98.6338,135.4571,77.4268,194.7188,26.7139,238.9395H42.66z"/>
	<polygon fill="#B4BB4A" points="77.6752,757.4158 54.64,734.3611 86.8807,707.6473 385.5345,707.6473 417.7963,734.3611 
		394.7816,757.4158 	"/>
	<path fill="#58595B" d="M92.4291,694.1268h288.5234l55.625-149.2247c-84.3525-61.9746-174.1704-178.4443-170.9233-288.5439
		c0.5547-19.3159,18.6577-17.0967,19.2334-3.2056c1.0273,26.7134,17.9184,73.2764,80.1401,57.7417
		c34.1924-8.5893,70.5225-15.0005,94.0293-2.1782c23.5078,12.8633,55.5645,33.1245,76.9346,53.4678
		c0,0,32.1181-36.2891,39.5771-49.1939c16.0078-27.7402,8.2188-67.3994-33.166-92.9209
		c-36.3301-22.4389-95.0576-82.3178-117.5586-117.5791c-18.7197-29.4668-27.4121-42.0424-40.9121-52.0293
		c5.3008-16.0278,28.0693-36.6997,40.9121-45.248c-32.0557-9.6167-62.5293-6.6167-88.1738,14.7949
		C226.4471-12.2126,43.3588,55.4339,9.1044,256.3582C-13.6637,390.4588,25.6459,581.3963,92.4291,694.1268z"/>
</g>
</svg>
