<?xml version="1.0" encoding="utf-8"?>
<!-- Generator: Adobe Illustrator 17.1.0, SVG Export Plug-In . SVG Version: 6.00 Build 0)  -->
<!DOCTYPE svg PUBLIC "-//W3C//DTD SVG 1.1//EN" "http://www.w3.org/Graphics/SVG/1.1/DTD/svg11.dtd">
<svg version="1.1" id="dollar-bills" xmlns="http://www.w3.org/2000/svg" xmlns:xlink="http://www.w3.org/1999/xlink" x="0px"
	 y="0px" viewBox="0 0 1010 656.1841" enable-background="new 0 0 1010 656.1841" xml:space="preserve">
<g id="dollar-bills-dollar-bills">
	<path fill="#58595B" d="M986.5254,0H172.2725c-12.9805,0-23.5142,10.4946-23.5142,23.4746
		c0,12.9405,10.5337,23.4746,23.5142,23.4746h790.7197v444.8345c0,12.9395,10.5332,23.4746,23.5332,23.4746
		c12.9609,0,23.4746-10.5351,23.4746-23.4746V23.4746C1010,10.4946,999.4863,0,986.5254,0z"/>
	<path fill="#58595B" d="M918.6855,62.6118h-814.312c-12.9409,0-23.5141,10.5342-23.5141,23.4746
		c0,12.9805,10.5732,23.5142,23.5141,23.5142h790.7788V554.395c0,12.9414,10.5332,23.4747,23.5332,23.4747
		c12.9014,0,23.4747-10.5333,23.4747-23.4747V86.0864C942.1602,73.146,931.5869,62.6118,918.6855,62.6118z"/>
	<path fill="#B4BB4A" d="M845.5996,125.2241H31.3062C14.0454,125.2241,0,139.23,0,156.5498v468.2691
		c0,17.3203,14.0454,31.3652,31.3062,31.3652h814.2934c17.2598,0,31.2656-14.0449,31.2656-31.3652V156.5498
		C876.8652,139.23,862.8594,125.2241,845.5996,125.2241z M814.2734,593.5327H62.6123V187.9151h751.6611V593.5327z"/>
	<path fill="#B4BB4A" d="M95.8516,522.0435c1.6176-0.2364,3.1958-0.5127,4.8134-0.5127c20.7129,0,37.4805,16.8467,37.441,38.1123
		c-0.0591,0.2363-0.2173,1.7353-0.2173,1.8926c-0.1577,2.6445,0.73,5.2089,2.5053,7.1816c1.7754,1.9326,4.3204,2.998,6.9439,2.998
		h582.21c2.6435,0,5.1484-1.0654,6.9238-2.998c1.8349-1.9727,2.7021-4.5371,2.5244-7.1816c0-0.1573-0.2363-2.2872-0.2559-2.4844
		c0-20.6738,16.7871-37.5205,37.5-37.5205c1.6172,0,3.1953,0.2763,5.3457,0.5918c2.7032,0.3945,5.5039-0.4346,7.5557-2.1699
		c2.0908-1.8545,3.2549-4.4581,3.2549-7.2198V268.6362c0-2.7221-1.4199-5.2866-3.5313-7.1015
		c-2.0908-1.7754-5.1484-2.5249-7.8711-2.1699c-1.5586,0.2368-3.1367,0.5127-4.7539,0.5127c-20.7129,0-37.5-16.8462-37.4609-38.0723
		c0.0596-0.1973,0.2168-1.7358,0.2168-1.9331c0.1777-2.604-0.6895-5.2075-2.5244-7.1411c-1.7754-1.9331-4.2803-3.0376-6.9238-3.0376
		h-582.21c-2.6235,0-5.1685,1.1045-6.9439,3.0376c-1.7753,1.9336-2.663,4.5371-2.5053,7.1411c0,0.1973,0.2568,2.2886,0.2568,2.5249
		c0,20.6343-16.7676,37.4805-37.4805,37.4805c-1.6176,0-3.1958-0.2759-5.3261-0.5523c-2.7422-0.355-5.4844,0.355-7.6343,2.1699
		c-2.0122,1.815-3.2354,4.419-3.2354,7.1411v244.0967c0,2.7617,1.4795,5.3653,3.5708,7.1406
		C90.0913,521.688,93.1294,522.438,95.8516,522.0435z M659.5977,334.2857c31.1678,0,56.4765,25.33,56.4765,56.4179
		c0,31.1289-25.3087,56.4981-56.4765,56.4981c-31.0899,0-56.4375-25.3692-56.4375-56.4981
		C603.1602,359.6157,628.5078,334.2857,659.5977,334.2857z M438.4624,254.9854c74.9609,0,135.6997,60.7973,135.6997,135.7182
		c0,75.041-60.7388,135.7188-135.6997,135.7188s-135.7383-60.6778-135.7383-135.7188
		C302.7241,315.7827,363.5015,254.9854,438.4624,254.9854z M217.249,334.2857c31.1284,0,56.4966,25.33,56.4966,56.4179
		c0,31.1289-25.3682,56.4981-56.4966,56.4981c-31.1089,0-56.4179-25.3692-56.4179-56.4981
		C160.8311,359.6157,186.1401,334.2857,217.249,334.2857z"/>
	<path fill="#58595B" d="M431.5186,441.2837c-16.7081,0-31.7989-5.4453-42.5699-11.3633l-7.6933,30.0635
		c9.7055,5.4053,26.414,10.2178,43.5957,10.9678v24.4609h25.3686V468.94c29.4912-4.8926,45.4497-24.3428,45.4497-47.1856
		c0-23.3174-12.0727-37.4414-42.6289-48.1728c-21.9951-8.0088-30.9907-13.6114-30.9907-21.8565
		c0-7.1416,5.3262-14.5976,22.0151-14.5976c18.4639,0,30.4971,5.957,36.9873,8.9941l7.6734-28.9981
		c-9.0147-4.1025-20.5547-7.9296-37.4409-8.4423v-22.6065h-25.1709v24.3819c-27.3804,5.1289-43.2803,22.8037-43.2803,45.6084
		c0,24.9335,18.7007,37.7558,46.1206,46.9882c19.2139,6.3907,27.4399,12.5459,27.4399,22.2911
		C456.394,435.3657,446.3926,441.2837,431.5186,441.2837z"/>
</g>
</svg>
