<?xml version="1.0" encoding="utf-8"?>
<!-- Generator: Adobe Illustrator 17.1.0, SVG Export Plug-In . SVG Version: 6.00 Build 0)  -->
<!DOCTYPE svg PUBLIC "-//W3C//DTD SVG 1.1//EN" "http://www.w3.org/Graphics/SVG/1.1/DTD/svg11.dtd">
<svg version="1.1" id="exchange-dollar" xmlns="http://www.w3.org/2000/svg" xmlns:xlink="http://www.w3.org/1999/xlink" x="0px"
	 y="0px" viewBox="0 0 1004.8521 1009.9996" enable-background="new 0 0 1004.8521 1009.9996" xml:space="preserve">
<g id="exchange-dollar-exchange-dollar">
	<path fill="#58595B" d="M502.8189,103.2335c135.8554,0.2178,255.5742,68.0806,328.0166,171.4004l-70.959,49.5449
		c-11.4482,7.9375-9.29,18.6231,4.7314,23.813l204.1758,75.146c14.0225,5.1025,25.4707-2.8784,25.4707-17.8379l0.0655-217.5439
		c0-14.959-9.3116-20.6289-20.7159-12.7349l-58.1582,40.604C824.3365,85.6139,673.8052,0.2188,503.0152,0.0006
		C240.6372-0.392,24.8599,199.4444,0,455.4117l102.4483,12.8223C120.8965,263.338,293.1914,102.8844,502.8189,103.2335z"/>
	<path fill="#58595B" d="M902.4263,541.1114c-18.209,205.2012-190.5898,365.961-400.3926,365.6114
		c-135.8554-0.2178-255.5522-68.0372-327.9941-171.3575l70.915-49.5449c11.4053-7.9805,9.29-18.666-4.7319-23.8555L36.003,586.8624
		c-14-5.1025-25.4483,2.8779-25.4483,17.7939l-0.0874,217.6309c0.0874,14.916,9.355,20.6289,20.7383,12.6045l58.1367-40.5166
		c91.1084,130.0117,241.7271,215.4063,412.5171,215.624c262.4868,0.3926,478.3306-199.6181,502.9926-455.7158L902.4263,541.1114z"/>
	<path fill="#B4BB4A" d="M468.7349,410.8824c-3.5542,5.3643-5.3423,11.4702-5.3423,18.4483c0,7.6757,2.0933,13.52,6.3237,17.7944
		c4.209,4.2305,9.6387,8.0684,16.2896,11.5137v-61.3203C478.1118,401.0694,472.333,405.5616,468.7349,410.8824z"/>
	<path fill="#B4BB4A" d="M533.937,581.1924c7.6983-2.7471,13.585-6.0615,17.5987-10.0313
		c4.1211-3.9687,6.4101-8.6357,6.9121-14.0869c1.2646-8.1992,0.2832-15.3086-2.9658-21.3711
		c-3.2061-6.0615-9.0713-10.7285-17.4453-13.9121c-0.501-0.2617-0.96-0.4355-1.3077-0.5234
		c-0.3925-0.1739-1.3086-0.6543-2.792-1.3954V581.1924z"/>
	<path fill="#B4BB4A" d="M274.7647,489.7794c0.3486,125.1269,102.0552,226.2227,227.1382,225.917
		c125.1484-0.3486,226.288-102.0557,225.9609-227.1826c-0.3486-125.083-102.1211-226.2222-227.2036-225.8736
		C375.5767,263.0328,274.3941,364.6959,274.7647,489.7794z M586.2954,391.6051c9.1797,19.2334,13.2793,34.3237,12.2549,45.4887
		h-45.292c0-7.9375-1.4179-15.1337-4.2744-21.6757c-2.8564-6.5855-7.8721-11.8628-15.0469-15.8755v72.8345
		c4.9502,1.4394,9.8565,3.1401,14.6543,5.0156c4.8623,1.8315,9.6163,3.8808,14.2832,6.1054
		c15.1338,6.9356,26.9092,16.7481,35.3487,29.3516c8.3955,12.6055,11.623,27.084,9.6172,43.4395
		c-1.7012,18.0995-8.6358,33.6699-20.7383,46.666c-12.1904,12.997-29.919,21.1972-53.1651,24.6426v25.2949l-47.9311-0.3926v-24.9023
		c-26.9966-4.9288-46.0776-16.6612-57.3296-35.2403c-11.2739-18.5791-16.8784-37.289-16.8784-56.0869h48.2583
		c0,11.6455,2.355,20.9346,7.2178,27.8252c4.8627,6.9785,11.0341,12.168,18.7319,15.6133v-73.5752
		c-3.4673-1.1777-6.9561-2.5303-10.5762-3.8818c-3.5981-1.3086-6.978-2.6602-10.1836-3.9249
		c-16.3989-6.4111-28.872-15.7011-37.5293-27.7817c-8.6137-12.1245-12.3647-27.2583-11.165-45.3579
		c0.7632-14.5669,6.7163-29.0029,17.8594-43.2212c11.1435-14.3052,28.3491-23.5947,51.5947-28.0434v-23.8125h47.9311v24.205
		C559.7124,359.9855,577.1802,372.4151,586.2954,391.6051z"/>
</g>
</svg>
