<?xml version="1.0" encoding="utf-8"?>
<!-- Generator: Adobe Illustrator 17.1.0, SVG Export Plug-In . SVG Version: 6.00 Build 0)  -->
<!DOCTYPE svg PUBLIC "-//W3C//DTD SVG 1.1//EN" "http://www.w3.org/Graphics/SVG/1.1/DTD/svg11.dtd">
<svg version="1.1" id="financial-presentation" xmlns="http://www.w3.org/2000/svg" xmlns:xlink="http://www.w3.org/1999/xlink"
	 x="0px" y="0px" viewBox="0 0 1010 993.1504" enable-background="new 0 0 1010 993.1504" xml:space="preserve">
<g id="financial-presentation-financial-presentation">
	<path fill="#58595B" d="M505,875.3252c9.3291,0,16.8599-7.5,16.8599-16.8086v-50.5293c0-9.2871-7.5308-16.8086-16.8599-16.8086
		c-9.2983,0-16.8086,7.5215-16.8086,16.8086v50.5293C488.1914,867.8252,495.7017,875.3252,505,875.3252L505,875.3252z"/>
	<g>
		<path fill="#58595B" d="M505,993.1504c-37.1211,0-67.3169-30.2061-67.3169-67.2959c0-37.1523,30.1958-67.3379,67.3169-67.3379
			c37.1523,0,67.3574,30.1856,67.3574,67.3379C572.3574,962.9443,542.1523,993.1504,505,993.1504L505,993.1504z M505,892.1543
			c-18.5552,0-33.6479,15.124-33.6479,33.7002c0,18.5342,15.0927,33.6367,33.6479,33.6367
			c18.5859,0,33.6377-15.1025,33.6377-33.6367C538.6377,907.2783,523.5859,892.1543,505,892.1543L505,892.1543z"/>
	</g>
	<rect x="16.8599" y="0" fill="#58595B" width="976.311" height="100.9756"/>
	<g>
		<path fill="#58595B" d="M16.8599,824.8174h976.311c9.3291,0,16.8291-7.5,16.8291-16.8301c0-9.2871-7.5-16.8086-16.8291-16.8086
			H16.8599C7.5312,791.1787,0,798.7002,0,807.9873C0,817.3174,7.5312,824.8174,16.8599,824.8174L16.8599,824.8174z"/>
	</g>
	<path fill="#B4BB4A" d="M882.291,257.4727c-8.5684-8.7945-24.7812-16.0484-48.5352-21.6167v-50.1387
		c9.7188,3.5962,15.5546,10.48,17.8974,20.5078l37.501-4.2539c-2.6309-12.7603-8.5273-23.0347-17.8154-30.7607
		c-9.3496-7.6031-21.8233-12.3291-37.583-13.9322v-12.5962h-21.4737v12.5962c-17.0556,1.4795-30.6377,6.9658-40.9326,16.521
		c-10.1719,9.4937-15.3086,21.3296-15.3086,35.3228c0,13.9116,4.4795,25.665,13.5625,35.4668
		c9.0615,9.7197,23.2403,16.9116,42.6786,21.8022v53.6314c-5.3213-2.1577-10.1709-5.7535-14.5693-10.7261
		c-4.294-4.8906-7.3555-10.8496-8.918-17.7539l-38.6512,3.6987c2.9384,16.7676,9.7812,29.8364,20.4247,39.124
		c10.7061,9.2471,24.6386,14.7539,41.7138,16.5415v23.3228h21.4737V350.27c19.3359-2.4658,34.4179-8.9179,45.2675-19.521
		c10.8086-10.6445,16.2129-23.6718,16.2129-39.2065C895.2363,277.7339,890.9824,266.4321,882.291,257.4727 M812.2822,229.7529
		c-6.4521-2.3838-11.2391-5.6098-14.3633-9.4316c-3.1435-3.8633-4.8496-8.0757-4.8496-12.6787
		c0-4.8696,1.8291-9.5137,5.2198-13.6236c3.5341-4.0683,8.1162-6.9863,13.9931-8.6713V229.7529z M851.9004,312.9331
		c-4.6856,4.7881-10.665,7.7881-18.1445,8.98v-50.0562c8.9796,2.1783,15.3701,5.4248,19.3154,9.5342
		c3.8838,4.1714,5.8154,9.0825,5.8154,14.8775C858.8867,302.5972,856.4824,308.1865,851.9004,312.9331"/>
	<g>
		<path fill="#58595B" d="M131.5,277.0762h251.0825c9.2363,0,16.7261-7.4795,16.7261-16.7471
			c0-9.2261-7.4898-16.7266-16.7261-16.7266H131.5c-9.2363,0-16.7266,7.5005-16.7266,16.7266
			C114.7734,269.5967,122.2637,277.0762,131.5,277.0762z"/>
		<path fill="#58595B" d="M131.5,210.1084h150.6616c9.2368,0,16.7163-7.4795,16.7163-16.7056
			c0-9.2675-7.4795-16.7675-16.7163-16.7675H131.5c-9.2363,0-16.7266,7.5-16.7266,16.7675
			C114.7734,202.6289,122.2637,210.1084,131.5,210.1084z"/>
		<path fill="#58595B" d="M382.5825,310.5293H131.5c-9.2363,0-16.7266,7.5-16.7266,16.7676c0,9.2466,7.4903,16.7261,16.7266,16.7261
			h251.0825c9.2363,0,16.7261-7.4795,16.7261-16.7261C399.3086,318.0293,391.8188,310.5293,382.5825,310.5293z"/>
	</g>
	<g>
		<g>
			<path fill="#58595B" d="M211.1152,628.1885c-4.459,0-8.8974-1.6856-12.2573-5.0762c-6.791-6.7598-6.791-17.7324,0-24.5137
				l50.1284-50.1386c6.791-6.7812,17.7539-6.7812,24.5142,0c6.771,6.7607,6.771,17.7539,0,24.5146l-50.1382,50.1377
				C219.9922,626.5029,215.5537,628.1885,211.1152,628.1885L211.1152,628.1885z"/>
		</g>
		<g>
			<path fill="#58595B" d="M399.9766,628.1885c-4.4385,0-8.8565-1.6856-12.2574-5.0762l-50.1279-50.1377
				c-6.7705-6.7607-6.7705-17.7539,0-24.5146c6.7915-6.7812,17.7539-6.7812,24.5249,0l50.1484,50.1386
				c6.7706,6.7813,6.7706,17.7539,0,24.5137C408.8535,626.5029,404.415,628.1885,399.9766,628.1885L399.9766,628.1885z"/>
		</g>
		<g>
			<path fill="#58595B" d="M463.7593,635.709c-4.4385,0-8.877-1.7061-12.2676-5.0547c-6.7915-6.8018-6.7915-17.7744,0-24.5352
				l144.353-144.394c6.7813-6.7607,17.7334-6.7607,24.5352,0c6.7607,6.7808,6.7607,17.7544,0,24.5347L476.0161,630.6543
				C472.6362,634.0029,468.1978,635.709,463.7593,635.709L463.7593,635.709z"/>
		</g>
		<g>
			<path fill="#58595B" d="M798.8848,593.5029c-4.4385,0-8.877-1.706-12.2471-5.0966l-102.167-102.1465
				c-6.7812-6.7803-6.7812-17.7539,0-24.5347c6.7598-6.7607,17.7334-6.7607,24.5137,0l102.1679,102.188
				c6.7813,6.7392,6.7813,17.7539,0,24.4932C807.7822,591.7969,803.3438,593.5029,798.8848,593.5029L798.8848,593.5029z"/>
		</g>
		<g>
			<path fill="#B4BB4A" d="M305.5356,476.376c-31.6035,0-57.3613,25.7471-57.3613,57.3926c0,31.623,25.7578,57.3915,57.3613,57.3915
				c31.6548,0,57.4126-25.7686,57.4126-57.3915C362.9482,502.1231,337.1904,476.376,305.5356,476.376z M305.5356,553.4541
				c-10.8496,0-19.6547-8.8359-19.6547-19.6855c0-10.8497,8.8051-19.6856,19.6547-19.6856c10.8702,0,19.7061,8.8359,19.7061,19.6856
				C325.2417,544.6182,316.4058,553.4541,305.5356,553.4541z"/>
			<path fill="#B4BB4A" d="M652.4355,389.6816c-31.6445,0-57.3925,25.7271-57.3925,57.3511
				c0,31.6245,25.748,57.4126,57.3925,57.4126c31.6036,0,57.3926-25.7881,57.3926-57.4126
				C709.8281,415.4087,684.0391,389.6816,652.4355,389.6816z M652.4355,466.7183c-10.8701,0-19.706-8.836-19.706-19.6856
				c0-10.8701,8.8359-19.6855,19.706-19.6855c10.8497,0,19.6651,8.8154,19.6651,19.6855
				C672.1006,457.8823,663.2852,466.7183,652.4355,466.7183z"/>
			<path fill="#B4BB4A" d="M825.8438,563.0908c-31.6231,0-57.3917,25.7676-57.3917,57.3712
				c0,31.6445,25.7686,57.3926,57.3917,57.3926c31.625,0,57.3925-25.7481,57.3925-57.3926
				C883.2363,588.8584,857.4688,563.0908,825.8438,563.0908z M825.8438,640.1475c-10.8692,0-19.6641-8.795-19.6641-19.6855
				c0-10.8496,8.7949-19.664,19.6641-19.664c10.8495,0,19.707,8.8144,19.707,19.664
				C845.5508,631.3525,836.6934,640.1475,825.8438,640.1475z"/>
			<path fill="#B4BB4A" d="M447.0327,594.9209c-31.6035,0-57.3921,25.7461-57.3921,57.3496
				c0,31.666,25.7886,57.3926,57.3921,57.3926c31.624,0,57.3819-25.7266,57.3819-57.3926
				C504.4146,620.667,478.6567,594.9209,447.0327,594.9209z M447.0327,671.9775c-10.8496,0-19.6855-8.8154-19.6855-19.707
				c0-10.8496,8.8359-19.6641,19.6855-19.6641c10.8701,0,19.6856,8.8145,19.6856,19.6641
				C466.7183,663.1621,457.9028,671.9775,447.0327,671.9775z"/>
			<path fill="#B4BB4A" d="M184.1558,597.7764c-31.6553,0-57.3921,25.748-57.3921,57.3711
				c0,31.6445,25.7368,57.4131,57.3921,57.4131c31.6445,0,57.3818-25.7686,57.3818-57.4131
				C241.5376,623.5244,215.8003,597.7764,184.1558,597.7764z M184.1558,674.833c-10.8496,0-19.6856-8.8145-19.6856-19.6855
				c0-10.8495,8.836-19.6641,19.6856-19.6641c10.8291,0,19.6547,8.8145,19.6547,19.6641
				C203.8105,666.0186,194.9849,674.833,184.1558,674.833z"/>
		</g>
	</g>
</g>
</svg>
