<?xml version="1.0" encoding="utf-8"?>
<!-- Generator: Adobe Illustrator 17.1.0, SVG Export Plug-In . SVG Version: 6.00 Build 0)  -->
<!DOCTYPE svg PUBLIC "-//W3C//DTD SVG 1.1//EN" "http://www.w3.org/Graphics/SVG/1.1/DTD/svg11.dtd">
<svg version="1.1" id="globe" xmlns="http://www.w3.org/2000/svg" xmlns:xlink="http://www.w3.org/1999/xlink" x="0px" y="0px"
	 viewBox="0 0 1010.0016 716.4258" enable-background="new 0 0 1010.0016 716.4258" xml:space="preserve">
<g id="globe-globe">
	<path fill="#B4BB4A" d="M754.9257,99.2603c94.1582-21.6045,160.9629-19.1387,176.8203,12.7275
		c30.6719,61.4565-139.9277,208.7822-380.9931,329.021C309.6684,561.209,89.3158,608.8008,58.6825,547.3066
		c-16.2177-32.5117,23.8804-88.999,100.9483-152.8837C45.746,480.2158-17.1524,558.5733,4.0922,601.1758
		c35.167,70.5605,287.9736,15.9141,564.5855-122.041c276.6689-137.918,472.4199-306.961,437.2343-377.4844
		C985.0663,59.8447,888.0058,61.9502,754.9257,99.2603z"/>
	<path fill="#58595B" d="M216.1933,551.9727c9.7685-2.1446,19.9355-4.5528,30.33-7.2657c-1.3657-1.9531-2.7691-3.8886-4.0591-5.8984
		h26.1191c30.6904-8.6113,63.5054-19.3857,97.8755-32.1328c-10.9639-40.8184-17.7544-86.1719-18.8545-133.8955h155.2163v76.2705
		c9.6358-4.5518,19.3472-9.2559,29.0972-14.0361v-62.2344H648.078c23.6719-13.7901,46.2256-27.7881,67.546-41.6729
		c-1.8585-44.1196-7.9287-86.1718-17.83-124.374h111.5703c7.0371,13.4678,13.088,27.561,18.2099,42.0713
		c8.3077-7.0371,16.1602-13.9981,23.5391-20.8457c-21.3398-54.6284-55.7666-102.6553-99.374-140.459
		c-2.3526,0.5313-4.6475,1.0054-7.0557,1.5366c2.2949-0.645,4.4756-1.1953,6.752-1.7832
		C692.0654,35.9067,615.7568,3.6992,531.9179,0.3604V0h-29.0972v0.3604C316.5536,7.853,166.9902,157.3975,159.5165,343.6455h-0.3789
		v29.1348h0.3789C162.1342,438.6563,182.62,499.8858,216.1933,551.9727z M792.2734,177.5986H689.2958
		c-18.4365-56.5439-45.125-103.2436-77.2187-134.541C686.7538,65.5728,750.2597,113.8848,792.2734,177.5986z M531.9179,30.4629
		c52.124,9.0479,98.3496,65.8765,126.5547,147.1357H531.9179V30.4629z M531.9179,206.7334h135.6025
		c11.4571,41.5215,18.4366,87.9932,19.5948,136.9121H531.9179V206.7334z M502.8207,343.6455H347.6044
		c1.1192-48.9189,8.1187-95.3906,19.6133-136.9121h135.603V343.6455z M502.8207,30.4629v147.1357H376.2275
		C404.4521,96.3394,450.7153,39.5108,502.8207,30.4629z M422.6235,43.0576c-32.0752,31.2974-58.7823,77.9971-77.1812,134.541
		h-102.978C284.4784,113.8848,347.9838,65.5728,422.6235,43.0576z M225.3359,206.7334h111.5708
		c-10.8687,41.8628-17.356,88.145-18.437,136.9121h-129.837C190.7953,294.4419,203.7885,248.0459,225.3359,206.7334z
		 M318.4697,372.7803c1.081,48.748,7.5683,95.0498,18.437,136.9121H225.3359c-21.5474-41.3311-34.5406-87.7275-36.7032-136.9121
		H318.4697z"/>
	<path fill="#58595B" d="M875.5624,343.6455h-0.3222c-0.4747-11.3618-1.461-22.5342-2.959-33.6118
		c-8.7637,6.8477-17.8301,13.771-27.2383,20.7324c0.3418,4.2866,0.873,8.5738,1.0244,12.8794h-18.7588
		c-13.5254,9.6553-27.6181,19.4043-42.2803,29.1348h61.0391c-2.1621,49.1846-15.1748,95.581-36.7031,136.9121H697.7939
		c7.4736-28.7373,12.7275-59.6162,15.667-91.9014c-10.2989,6.1465-20.8077,12.292-31.5059,18.419
		c-3.3184,25.7021-8.0996,50.3974-14.4346,73.4824H541.9511c-21.3193,10.2236-42.4502,19.9541-63.353,29.1162h24.2226v147.1543
		c-43.9682-7.625-83.6875-49.3174-112.0068-110.9258c-9.1426,3.5283-18.3042,6.9424-27.2949,10.167
		c16.3125,35.8311,36.3427,65.9522,59.1045,88.126c-45.1822-13.6192-86.1534-36.7793-120.8457-66.9961
		c-11.0777,3.5293-21.9273,6.8105-32.5684,9.8828c61.0962,58.8399,142.9624,96.2256,233.6113,99.8301v0.3789h29.0972v-0.3789
		c186.248-7.4551,335.8496-157.0371,343.3223-343.2666h0.3222v-14.3965c0-0.0762,0-0.1143,0-0.1709s0-0.1328,0-0.1895V343.6455z
		 M531.9179,685.9629V538.8086h126.5547C630.2675,620.0674,584.0419,676.915,531.9179,685.9629z M612.0771,673.3301
		c32.0937-31.2598,58.7822-77.959,77.2187-134.5215h102.9776C750.2597,602.5215,686.7538,650.8535,612.0771,673.3301z"/>
</g>
</svg>
