<?xml version="1.0" encoding="utf-8"?>
<!-- Generator: Adobe Illustrator 17.1.0, SVG Export Plug-In . SVG Version: 6.00 Build 0)  -->
<!DOCTYPE svg PUBLIC "-//W3C//DTD SVG 1.1//EN" "http://www.w3.org/Graphics/SVG/1.1/DTD/svg11.dtd">
<svg version="1.1" id="globe-leaf" xmlns="http://www.w3.org/2000/svg" xmlns:xlink="http://www.w3.org/1999/xlink" x="0px" y="0px"
	 viewBox="0 0 730.1992 1010.0002" enable-background="new 0 0 730.1992 1010.0002" xml:space="preserve">
<g id="globe-leaf-globe-leaf">
	<g>
		<path fill="#58595B" d="M365.0996,852.5822c-52.9263,0-103.0713-5.2675-148.8174-14.7363
			c31.6416,102.5391,87.1323,172.1543,148.8174,172.1543c61.7246,0,117.2549-69.6152,148.8574-172.1543
			C468.2109,847.3148,418.0254,852.5822,365.0996,852.5822z"/>
		<path fill="#58595B" d="M206.7939,486.5549c-11.6191,48.2314-18.1289,102.0654-18.1289,158.4043
			c0,56.3203,6.5098,110.1143,18.1289,158.3262c48.1328,11.5595,102.0059,18.1289,158.3057,18.1289
			c56.3398,0,110.1729-6.5694,158.3457-18.1289c11.5791-48.2119,18.168-102.0059,18.168-158.3262
			c0-56.3389-6.5889-110.1729-18.168-158.4043c-48.1728-11.5401-102.0059-18.0698-158.3457-18.0698
			C308.7998,468.4851,254.9267,475.0148,206.7939,486.5549z"/>
		<path fill="#58595B" d="M172.1934,793.7775c-9.4888-45.7665-14.6768-95.9121-14.6768-148.8183
			c0-52.9453,5.188-103.1309,14.6768-148.8965C69.6938,527.7249,0,583.1956,0,644.9592
			C0,706.6447,69.6938,762.175,172.1934,793.7775z"/>
		<path fill="#58595B" d="M365.0996,437.278c52.9258,0,103.1113,5.2666,148.8574,14.7159
			c-31.6025-102.5391-87.1328-172.1539-148.8574-172.1539c-61.6851,0-117.1758,69.6148-148.8569,172.1539
			C262.0283,442.5446,312.1733,437.278,365.0996,437.278z"/>
		<path fill="#58595B" d="M730.1992,644.9592c0-61.7637-69.6543-117.2344-172.1543-148.8965
			c9.4492,45.7656,14.6777,95.9512,14.6777,148.8965c0,52.9062-5.2285,103.0518-14.6777,148.8183
			C660.5449,762.175,730.1992,706.6447,730.1992,644.9592z"/>
		<path fill="#58595B" d="M717.1016,548.1809c-34.0294-123.7056-131.5967-221.1944-255.2627-255.2427
			c37.7177,37.1059,68.3134,95.5161,87.7431,167.4985C621.5449,479.8674,679.9756,510.4826,717.1016,548.1809z"/>
		<path fill="#58595B" d="M268.3603,292.9382C144.6943,326.9865,47.166,424.4753,13.1377,548.1809
			c37.0859-37.6983,95.5556-68.3135,167.5181-87.7442C200.0864,388.4543,230.6631,330.0441,268.3603,292.9382z"/>
		<path fill="#58595B" d="M13.1377,741.6594C47.166,865.3449,144.6943,962.8732,268.3603,996.9417
			c-37.6972-37.1465-68.2739-95.5566-87.7045-167.5586C108.6934,809.9924,50.2236,779.3762,13.1377,741.6594z"/>
		<path fill="#58595B" d="M461.8389,996.9417c123.666-34.0684,221.2334-131.5967,255.2627-255.2822
			c-37.126,37.7168-95.5568,68.333-167.5197,87.7236C530.1523,901.385,499.5566,959.7951,461.8389,996.9417z"/>
	</g>
	<path fill="#B4BB4A" d="M344.3076,152.0114v75.8882c6.8652-0.3154,13.8086-0.5127,20.792-0.5127
		c9.3306,0,18.543,0.4341,27.7754,1.0454V152.465c56.8516,2.6631,168.583-10.5537,205.334-148.2846
		c0,0-175.3301-39.6109-233.0698,125.0273C307.3599-35.4305,131.9902,4.1804,131.9902,4.1804
		C170.3784,147.8098,290.1387,156.0358,344.3076,152.0114z"/>
</g>
</svg>
