<?xml version="1.0" encoding="utf-8"?>
<!-- Generator: Adobe Illustrator 17.1.0, SVG Export Plug-In . SVG Version: 6.00 Build 0)  -->
<!DOCTYPE svg PUBLIC "-//W3C//DTD SVG 1.1//EN" "http://www.w3.org/Graphics/SVG/1.1/DTD/svg11.dtd">
<svg version="1.1" id="globe-head" xmlns="http://www.w3.org/2000/svg" xmlns:xlink="http://www.w3.org/1999/xlink" x="0px" y="0px"
	 viewBox="0 0 990.9552 1010.0004" enable-background="new 0 0 990.9552 1010.0004" xml:space="preserve">
<g id="globe-head-globe-head">
	<path fill="#B4BB4A" d="M496.6744,1009.96c2.8769,0.123,5.6714-0.0821,8.5073,0V0c-12.4526,0-24.9868,0.4219-37.5215,1.3672
		C310.5479,9.833,154.7921,103.7383,71.6944,243.6318C-9.6357,374.2363-24.7182,564.1025,41.6529,704.9404
		C117.2296,880.0947,301.712,1009.6729,496.6744,1009.96z M173.5318,845.0811c31.1104-29.5899,63.9873-54.8643,99.8647-73.2754
		c7.6851,14.3418,14.877,27.3291,23.4664,41.0135c39.124,62.6319,92.1796,120.4141,151.893,164.9209
		C344.8638,964.9189,249.8482,918.7666,173.5318,845.0811z M28.6251,524.1572c2.5483-0.2871,5.3017,0.4102,7.3564-0.7402
		l173.3042,0.3701c0.9863,72.6182,20.5483,152.7158,50.8369,220.6475c-37.2339,21.8633-73.8506,47.1386-107.1802,78.8242
		C76.2149,737.4893,33.0635,635.7754,28.6251,524.1572z M151.6685,185.2744c33.4116,32.3018,70.1929,59.3018,109.5225,80.1797
		c-30.8638,71.5898-49.398,146.1807-52.0283,229.3184L28.502,494.4443C32.1182,376.0859,73.1739,270.8369,151.6685,185.2744z
		 M458.3726,30.874c-74.0971,51.9463-144.5781,130.1533-183.4145,208.6885c-37.0689-19.7256-72.9053-46.0283-102.8238-76.2754
		C253.2183,85.04,351.7676,42.1348,458.3726,30.874z M482.8663,298.249c-66.7002-1.9726-125.8789-18.6172-181.8116-45.7822
		c38.9185-75.7822,107.5088-153.043,181.3594-201.332L482.8663,298.249z M483.0303,330.2217l-0.4521,164.5097l-0.4932,0.4532
		l-243.1684-0.5762c1.9727-77.6729,18.9453-149.2217,49.6035-215.0996c59.5903,28.4795,126.1255,45.9873,194.4692,48.4121
		L483.0303,330.2217z M483.4005,681.5576c-71.0152,3.5332-137.1807,20.918-197.2637,48.5762
		c-27.2886-63.7822-46.2339-132.4961-47.0967-206.0176l6.6987-0.4932l237.0039,0.5752L483.4005,681.5576z M484.7154,966.6035
		c-76.3574-51.9463-144.7422-127.2764-185.3047-208.6475l3.4522-2.0547c55.2338-26.7538,118.4404-41.6719,180.7016-45.3711
		L484.7154,966.6035z"/>
	<path fill="#58595B" d="M751.7198,953.7813c4.5215-38.3428,0.9863-82.8096,35.5898-108.4952
		c36.3301-22.7675,81.7411-18.206,123.6602-27.2881c17.4248-3.5341,39.3701-5.0556,46.6855-24.7402
		c13.8907-39.9053-41.8769-72.4121-3.041-107.2627c3.2871-9.8222-9.8222-12.3281-14.6308-18.6572
		c-10.0684-15.124,13.8906-22.1924,13.3984-36.3701c-10.3574-14.877-21.4531-29.2617-19.4395-49.1523
		c5.5479-27,35.836-22.4796,51.4943-39.4121c5.5477-6.5742,7.5615-17.6709,3-25.4785
		c-36.3301-38.8779-74.919-79.2764-111.5361-119.1396l-3.5342-8.5899c-9.0822-23.4658,16.1504-36.8223,13.3974-60.042
		c-15.165-70.4394-56.7959-131.2627-104.7548-186.5371c-58.6866-52.5215-134.3047-78.9473-212.3467-86.5088v897.7969h182.0576
		V953.7813z"/>
</g>
</svg>
