<?xml version="1.0" encoding="utf-8"?>
<!-- Generator: Adobe Illustrator 17.1.0, SVG Export Plug-In . SVG Version: 6.00 Build 0)  -->
<!DOCTYPE svg PUBLIC "-//W3C//DTD SVG 1.1//EN" "http://www.w3.org/Graphics/SVG/1.1/DTD/svg11.dtd">
<svg version="1.1" id="graphs-increase-arrow" xmlns="http://www.w3.org/2000/svg" xmlns:xlink="http://www.w3.org/1999/xlink"
	 x="0px" y="0px" viewBox="0 0 1010 781.5005" enable-background="new 0 0 1010 781.5005" xml:space="preserve">
<g id="graphs-increase-arrow-graphs-increase-arrow">
	<g>
		<g>
			<polygon fill="#B4BB4A" points="0,650.813 420.7925,381.5454 418.2031,566.563 949.0117,232.7324 973.5879,271.7744 
				370.8594,650.854 373.4277,466.5747 24.8843,689.6489 0,650.813 			"/>
		</g>
		<polygon fill="#B4BB4A" points="979.7734,345.8726 1010,227.3901 891.5176,197.1426 		"/>
		<path fill="#58595B" d="M863.8379,26.7134C863.8379,12.0005,851.7969,0,837.084,0h-93.7012
			c-14.7324,0-26.7539,12.0005-26.7539,26.7134v331.5293l147.209-92.6328v-80.961v-12.6167V26.7134z M634.8457,115.3594h-93.7012
			c-14.7124,0-26.7744,12.0825-26.7744,26.7544V485.438l147.2295-92.5508V142.1138
			C661.5996,127.4419,649.5586,115.3594,634.8457,115.3594z M230.3486,323.105H136.668c-14.7124,0-26.7539,12.041-26.7539,26.7539
			v209.8818l147.1889-94.1933V349.8589C257.103,335.146,245.0615,323.105,230.3486,323.105z M432.5869,223.0747h-93.6806
			c-14.733,0-26.7745,12.0415-26.7745,26.7544v180.4566l126.5376-81.002l-2.5683,185.3887l23.2607-14.6309V249.8291
			C459.3618,235.1162,447.2998,223.0747,432.5869,223.0747z M716.6289,754.7466c0,14.6719,12.0215,26.7539,26.7539,26.7539h93.7012
			c14.7129,0,26.7539-12.082,26.7539-26.7539V361.4072l-147.209,92.5913V754.7466z M514.3701,754.7466
			c0,14.6719,12.062,26.7539,26.7744,26.7539h93.7012c14.7129,0,26.7539-12.082,26.7539-26.7539V488.6021l-147.2295,92.5507
			V754.7466z M355.5303,498.7534l-43.3985,27.7823v228.2109c0,14.6719,12.0415,26.7539,26.7745,26.7539h93.6806
			c14.7129,0,26.7749-12.082,26.7749-26.7539V615.7974l-106.4004,66.9062L355.5303,498.7534z M109.9141,754.7466
			c0,14.6719,12.0415,26.7539,26.7539,26.7539h93.6806c14.7129,0,26.7544-12.082,26.7544-26.7539V561.7544l-147.1889,94.1953
			V754.7466z"/>
	</g>
</g>
</svg>
