<?xml version="1.0" encoding="utf-8"?>
<!-- Generator: Adobe Illustrator 17.1.0, SVG Export Plug-In . SVG Version: 6.00 Build 0)  -->
<!DOCTYPE svg PUBLIC "-//W3C//DTD SVG 1.1//EN" "http://www.w3.org/Graphics/SVG/1.1/DTD/svg11.dtd">
<svg version="1.1" id="graphs-arrow" xmlns="http://www.w3.org/2000/svg" xmlns:xlink="http://www.w3.org/1999/xlink" x="0px"
	 y="0px" viewBox="0 0 1010 942.8672" enable-background="new 0 0 1010 942.8672" xml:space="preserve">
<g id="graphs-arrow-graphs-arrow">
	<g>
		<rect x="0" y="389.2759" fill="#58595B" width="158.1841" height="553.5913"/>
		<rect x="567.8633" y="389.2759" fill="#58595B" width="158.1631" height="553.5913"/>
		<polygon fill="#58595B" points="1010,264.9932 1010,942.8672 851.8369,942.8672 851.8369,264.9722 		"/>
		<rect x="283.9526" y="566.294" fill="#58595B" width="158.1421" height="376.5732"/>
		<polygon fill="#58595B" points="1008.5762,36.3286 874.1025,0 918.8438,142.8447 		"/>
		<g>
			<path fill="#58595B" d="M79.0605,181.8726c-13.6025,0-24.6513,11.0703-24.6513,24.6723
				c0,13.6446,11.0488,24.6934,24.6513,24.6934c13.6441,0,24.7354-11.0488,24.7354-24.6934
				C103.7959,192.9429,92.7046,181.8726,79.0605,181.8726z"/>
			<path fill="#B4BB4A" d="M79.0605,127.4844C35.4497,127.4844,0,162.9761,0,206.5449c0,43.6324,35.4497,79.0611,79.0605,79.0611
				c43.6319,0,79.1236-35.4287,79.1236-79.0611C158.1841,162.9761,122.6924,127.4844,79.0605,127.4844z M79.0605,252.709
				c-25.4467,0-46.143-20.6963-46.143-46.1641c0-25.4463,20.6963-46.1635,46.143-46.1635c25.4468,0,46.2056,20.7172,46.2056,46.1635
				C125.2661,232.0127,104.5073,252.709,79.0605,252.709z"/>
			<path fill="#58595B" d="M362.9922,398.7769c-13.6021,0-24.6514,11.0698-24.6514,24.6933
				c0,13.6441,11.0493,24.6939,24.6514,24.6939c13.644,0,24.6933-11.0498,24.6933-24.6939
				C387.6855,409.8467,376.6362,398.7769,362.9922,398.7769z"/>
			<path fill="#B4BB4A" d="M362.9922,344.3677c-43.6109,0-79.0396,35.4497-79.0396,79.0815
				c0,43.6114,35.4287,79.0821,79.0396,79.0821c43.6108,0,79.1025-35.4707,79.1025-79.0821
				C442.0947,379.8174,406.603,344.3677,362.9922,344.3677z M362.9922,469.5918c-25.4468,0-46.1431-20.6758-46.1431-46.1426
				c0-25.4258,20.6963-46.1225,46.1431-46.1225c25.4468,0,46.185,20.6967,46.185,46.1225
				C409.1772,448.916,388.439,469.5918,362.9922,469.5918z"/>
			<path fill="#58595B" d="M646.9238,123.2993c-13.5605,0-24.6513,11.0493-24.6513,24.6724
				c0,13.665,11.0908,24.6933,24.6513,24.6933c13.6446,0,24.7354-11.0283,24.7354-24.6933
				C671.6592,134.3486,660.5684,123.2993,646.9238,123.2993z"/>
			<path fill="#B4BB4A" d="M646.9238,68.8901c-43.6113,0-79.0605,35.4917-79.0605,79.0606
				c0,43.6318,35.4492,79.1025,79.0605,79.1025c43.6115,0,79.1026-35.4707,79.1026-79.1025
				C726.0264,104.3818,690.5352,68.8901,646.9238,68.8901z M646.9238,194.1567c-25.4472,0-46.1219-20.7172-46.1219-46.206
				c0-25.4468,20.6747-46.1221,46.1219-46.1221c25.4883,0,46.2061,20.6753,46.2061,46.1221
				C693.1299,173.4395,672.4121,194.1567,646.9238,194.1567z"/>
		</g>
		<g>
			<path fill="#58595B" d="M130.9585,280.458l146.2349,114.8447c4.8339-14.7739,13.4345-27.832,24.6093-38.1279L160.2554,245.9707
				C153.5171,259.8242,143.4307,271.6685,130.9585,280.458z"/>
			<path fill="#58595B" d="M572.0068,198.4258L414.8062,349.4736c12.4931,8.7891,22.601,20.6338,29.3603,34.4663l161.7827-155.5053
				C592.3057,221.4448,580.5449,211.0654,572.0068,198.4258z"/>
			<path fill="#58595B" d="M937.8867,83.6436l-14.0204-42.9624l-197.3799,64.4121c6.9483,12.7651,10.8399,27.372,10.8399,42.8574
				c0,0.3975-0.041,0.7954-0.041,1.1719L937.8867,83.6436z"/>
		</g>
	</g>
</g>
</svg>
