<?xml version="1.0" encoding="utf-8"?>
<!-- Generator: Adobe Illustrator 17.1.0, SVG Export Plug-In . SVG Version: 6.00 Build 0)  -->
<!DOCTYPE svg PUBLIC "-//W3C//DTD SVG 1.1//EN" "http://www.w3.org/Graphics/SVG/1.1/DTD/svg11.dtd">
<svg version="1.1" id="growing-business" xmlns="http://www.w3.org/2000/svg" xmlns:xlink="http://www.w3.org/1999/xlink" x="0px"
	 y="0px" viewBox="0 0 1010 1008.5971" enable-background="new 0 0 1010 1008.5971" xml:space="preserve">
<g id="growing-business-growing-business">
	<path fill="#58595B" d="M914.1504,112.3974C914.1504,50.3247,863.8047,0,801.666,0c-62.0294,0-112.377,50.3247-112.377,112.3974
		c0,62.1387,50.3476,112.3975,112.377,112.3975C863.8047,224.7949,914.1504,174.5361,914.1504,112.3974z"/>
	<path fill="#58595B" d="M95.8052,112.3974C95.8052,50.3247,146.1519,0,208.2905,0C270.2974,0,320.644,50.3247,320.644,112.3974
		c0,62.1387-50.3466,112.3975-112.3535,112.3975C146.1519,224.7949,95.8052,174.5361,95.8052,112.3974z"/>
	<path fill="#58595B" d="M888.791,239.5898h-52.539c-66.8947,0-121.1856,48.7466-121.1856,108.9126v201.0361
		c44.8887,9.1172,79.4531,31.8692,81.5576,33.2715l8.2198,5.5674l-4.5811,8.7236c-0.9863,1.8633-13.8525,25.9952-37.2607,50.7188
		v354.7715h199.041V617.2006H1010V348.5024C1010,288.3364,955.6855,239.5898,888.791,239.5898z"/>
	<path fill="#58595B" d="M173.7031,623.7983l-5.6548-8.1104l7.4522-6.5322c2.4985-2.1914,55.1904-47.5185,119.3677-52.3408V348.5024
		c0-60.166-54.2701-108.9126-121.187-108.9126h-52.5166C54.2261,239.5898,0,288.3364,0,348.5024v268.6982h47.8916v385.3907h199.063
		V690.0346C202.9644,665.0913,175.3032,626.0776,173.7031,623.7983z"/>
	<path fill="#B4BB4A" d="M490.7969,614.8989c-25.8418,0-54.5332-49.3164-54.5332-120.1787
		c0-52.9112,38.3574-98.5454,54.5332-115.5537c16.2412,17.0083,54.5547,62.6425,54.5547,115.5537
		C545.3516,565.5825,516.5947,614.8989,490.7969,614.8989z M760.1074,617.2006c-17.6211,22.334-46.0721,50.4776-83.4209,59.9903
		c-45.0859,11.4414-89.9969,9.4688-114.326-5.1289c-8.5264-4.998-13.7647-11.1348-15.5616-18.2364
		c-1.7538-6.9697-0.1543-14.8603,4.9532-23.3427c14.5097-24.4385,53.0204-47.6289,98.0839-59.0264
		c22.2481-5.6543,44.9121-3.7695,65.2305,0.9424c26.1699,6.0283,48.4824,16.8115,60.2529,23.4092
		C771.9004,601.2221,766.7051,608.8061,760.1074,617.2006z M432.3403,648.0835c-0.9204,7.2773-5.3481,13.9843-13.1074,20.0332
		c-22.4004,17.5351-66.6973,25.1191-112.8574,19.5507c-22.4009-2.8046-42.3906-12.4492-59.4209-23.8691
		c-22.9048-15.3203-40.1328-33.9951-48.6372-44.4063c15.935-11.8798,53.8755-36.2968,96.5508-40.1328
		c8.1753-0.7226,16.395-0.9648,24.7895,0.044c46.1821,5.6982,87.3013,23.8252,104.814,46.2256
		C430.521,633.31,433.1953,640.9379,432.3403,648.0835z"/>
	<path fill="#B4BB4A" d="M501.5366,663.8647c0,20.1426,0,324.5234,0,344.7324c-8.1318,0-13.3701,0-21.458,0
		c0-20.209,0-324.5898,0-344.7324C488.1665,663.8647,493.4048,663.8647,501.5366,663.8647z"/>
</g>
</svg>
