<?xml version="1.0" encoding="utf-8"?>
<!-- Generator: Adobe Illustrator 17.1.0, SVG Export Plug-In . SVG Version: 6.00 Build 0)  -->
<!DOCTYPE svg PUBLIC "-//W3C//DTD SVG 1.1//EN" "http://www.w3.org/Graphics/SVG/1.1/DTD/svg11.dtd">
<svg version="1.1" id="hammer" xmlns="http://www.w3.org/2000/svg" xmlns:xlink="http://www.w3.org/1999/xlink" x="0px" y="0px"
	 viewBox="0 0 1010 988.7524" enable-background="new 0 0 1010 988.7524" xml:space="preserve">
<g id="hammer-hammer">
	<path fill="#B4BB4A" d="M532.4961,889.0923H21.3911C9.6172,889.0923,0,898.7085,0,910.5034v56.8779
		c0,11.7538,9.6172,21.3711,21.3911,21.3711h511.105c11.7539,0,21.3916-9.6172,21.3916-21.3711v-56.8779
		C553.8877,898.7085,544.25,889.0923,532.4961,889.0923z"/>
	<path fill="#58595B" d="M1004.4365,776.979l-318.626-318.586c-7.4179-7.4384-19.5839-7.4384-27.0019-0.041l-3.5137,3.5137
		l-57.8652-57.8853l52.7285-52.728c7.418-7.3975,7.418-19.562,0-27.0005L486.4268,160.5205c-7.4385-7.418-19.6036-7.418-27.042,0
		L304.8799,315.0459c-7.418,7.4384-7.4385,19.6035,0,27.042l163.7314,163.7114c7.418,7.4375,19.5825,7.4375,27.0215,0
		l52.8506-52.8311l57.8447,57.8643l-3.4726,3.4941c-7.4395,7.418-7.4395,19.5625,0,27l318.6269,318.627
		c7.4375,7.4394,19.5821,7.4179,27,0l55.9541-55.9336C1011.8545,796.5825,1011.8545,784.4174,1004.4365,776.979z"/>
	<path fill="#58595B" d="M700.2344,338.8823c7.4599,7.4385,19.6035,7.4385,27.0429,0l77.8379-77.8379
		c7.418-7.439,7.4385-19.583,0-27.001L576.6348,5.5634c-7.3965-7.4179-19.5625-7.4179-27,0l-77.8384,77.8584
		c-7.439,7.398-7.439,19.5625,0,27.001L700.2344,338.8823z"/>
	<path fill="#58595B" d="M378.5054,660.6323c7.4389,7.4385,19.6035,7.3974,27.0215,0l76.8725-76.8721
		c7.4385-7.418,7.4385-19.583,0-27.0215L253.9399,328.2793c-7.4385-7.3975-19.6035-7.3975-27.042,0l-76.8515,76.8725
		c-7.439,7.418-7.398,19.5825,0,27.021L378.5054,660.6323z"/>
</g>
</svg>
