<?xml version="1.0" encoding="utf-8"?>
<!-- Generator: Adobe Illustrator 17.1.0, SVG Export Plug-In . SVG Version: 6.00 Build 0)  -->
<!DOCTYPE svg PUBLIC "-//W3C//DTD SVG 1.1//EN" "http://www.w3.org/Graphics/SVG/1.1/DTD/svg11.dtd">
<svg version="1.1" id="hand-pointer-dollar-coin" xmlns="http://www.w3.org/2000/svg" xmlns:xlink="http://www.w3.org/1999/xlink"
	 x="0px" y="0px" viewBox="0 0 1009.9977 965.2689" enable-background="new 0 0 1009.9977 965.2689" xml:space="preserve">
<g id="hand-pointer-dollar-coin-hand-pointer-dollar-coin">
	<g>
		<path fill="#B4BB4A" d="M437.4111,661.6538c0.1035-3.3691,0.6377-6.7402,1.1924-10.1093
			c-26.0352,7.1914-53.3438,11.3828-81.6797,11.3828c-168.6602,0-305.9434-137.2207-305.9434-305.8804
			c0-168.7837,137.2832-306.0874,305.9434-306.0874c168.7217,0,306.0254,137.3037,306.0254,306.0874
			c0,12.9453-1.0889,25.6851-2.6914,38.2607l8.8975,8.836l34.8701,34.8906c6.247-26.3838,9.8632-53.7539,9.8632-81.9873
			C713.8886,160.1118,553.7969,0,356.9238,0C160.1328,0,0,160.1118,0,357.0469c0,196.769,160.1328,356.8413,356.9238,356.8413
			c36.6172,0,71.96-5.5078,105.166-15.8223l-24.8633-24.9043L437.4111,661.6538z"/>
		<path fill="#B4BB4A" d="M377.4717,625.2007v-69.5352c42.8232-4.7656,75.4541-17.1367,98.1796-37.2324
			c22.6446-20.1386,33.9463-45.6582,33.9463-76.6865c0-25.0278-7.7881-46.1924-23.3632-63.4531
			c-15.5967-17.3013-43.8301-33.7813-84.3916-49.398l-24.3711-9.2876V202.8526c33.1445,2.5478,66.5361,10.4384,100.0703,23.7124
			l23.4258-58.6446c-38.919-16.0278-80.1387-24.8222-123.4961-26.3017V88.645H334.834v53.8775
			c-39.3496,4.0688-70.5831,15.6167-93.5352,34.6855c-22.9111,19.0279-34.4394,43.2749-34.4394,72.8233
			c0,27.5346,8.1171,50.7544,24.2265,69.3711c16.1514,18.7397,41.7959,34.8086,76.8096,48.2885l26.9385,9.9043v119.961
			c-19.3975-0.2481-41.4454-3.3711-66.083-9.4532c-24.5342-6.082-46.0694-13.6445-64.419-22.5625v67.6055
			c34.0283,15.4102,77.5088,23.5469,130.502,24.4102v67.6445H377.4717z M377.4717,392.6773
			c20.3222,7.521,34.8916,15.2881,43.4189,23.2607c8.6924,8.0142,13.0479,18.2471,13.0479,30.6172
			c0,26.5478-18.8223,42.6572-56.4668,48.4932V392.6773z M293.5937,279.8262c-7.5615-8.1372-11.3222-18.2881-11.3222-30.4937
			c0-11.7534,4.4589-21.6167,13.4599-29.4663c8.959-7.9316,21.9864-13.1919,39.1026-15.6987v99.7412
			C314.9228,295.9771,301.1972,287.9634,293.5937,279.8262z"/>
	</g>
	<path fill="#58595B" d="M707.6836,838.6577c1.6025,1.5606,5.8359,5.795,5.8359,5.795S886.248,671.6402,886.5351,671.4351
		c-2.3007-2.2598-4.2324-4.1914-5.6298-5.6719c-5.3018-5.2187-14.0147-17.0957-23.5284-30.9863
		c-1.1289-1.6446-2.3008-3.3281-3.4726-4.9727c-3.7188-5.5058-7.4375-11.1367-11.1367-16.6855l1.8085-117.002
		c0.2872-20.6719-16.2333-37.6435-36.8632-37.9726c-2.7129,0-5.3438,0.2465-7.9317,0.7812
		c-16.8496,3.3692-29.6718,18.1641-30.0009,36.082l-0.6983,46.8497l-14.3027-14.2188l-18.2461-18.2461
		c-0.2051-0.2891-0.4932-0.4941-0.7598-0.7812l-39.9668-39.9864l-41.3437-41.2617l-4.2735-4.2739l0,0l-13.3154-13.3975
		l-0.7197-0.6577l-21.7813-21.7812c-0.2871-0.2876-0.5957-0.5342-0.9238-0.8218c-0.5352-0.4932-1.1309-0.9863-1.8087-1.4385
		c-8.8359-7.397-20.3018-10.1094-30.9258-8.0137c-7.0469,1.3975-13.7666,4.8081-19.1709,10.274
		c-14.6299,14.6303-14.6299,38.2202,0,52.8505l3.2666,3.2056l0.5547,0.6572l20.0352,20.0142l0.5957,0.5742l15,15.002l1.1308,1.1093
		l23.1582,23.1368l5.5684,5.5898l-3.3906,3.3692c-2.0547-1.0684-4.2325-1.3965-6.3291-2.0547
		c-1.7881-0.5762-3.4317-1.4805-5.2608-1.7676c-4.3144-0.6563-8.7529-0.4922-13.0683,0.2871
		c-7.0684,1.4394-13.7676,4.7676-19.2735,10.1934c-11.8359,11.8359-14.0556,29.7539-6.5761,43.8906l-6.2461,6.2051
		c-3.4121-1.8497-7.0694-3.0411-10.7891-3.7383c-4.541-0.7812-9.2462-0.7403-13.8691,0.2051
		c-6.9864,1.3964-13.7266,4.7246-19.2334,10.1914c-10.7676,10.8086-13.1514,26.5488-7.9522,39.9453
		c0.5547,1.2754,0.7188,2.6718,1.3965,3.9453l-4.6231,4.5625c-0.9863,0.9863-1.8085,1.9726-2.7119,3
		c-3.3701-1.1504-6.8632-1.5625-10.3769-1.6445c-0.8633,0-1.7266-0.1231-2.5684-0.0821c-1.9316,0.0821-3.8222,0.2871-5.7129,0.6172
		c-6.9863,1.3965-13.747,4.7266-19.1924,10.1094c-1.1093,1.1914-1.9521,2.3418-2.8974,3.5762
		c-5.1162,6.4921-7.8281,14.2597-8.0342,22.0683l25.7676,25.7266l104.2617,104.2617l21.4121,21.4531
		c8.877,8.834,20.1992,13.9317,31.8906,15.1231c2.2188,0.2461,4.3975,0.287,6.6993,0.287c1.3769-0.041,2.7119-0.041,4.0683-0.1641
		c20.6094,0.2871,38.877,1.8086,47.5283,8.0957C706.4912,837.5484,707.1074,838.0816,707.6836,838.6577z M609.0928,435.0889
		c-8.4659,8.5483-23.9385,6.9453-34.4385-3.5752c-10.5215-10.562-12.1651-26.0142-3.6377-34.48
		c8.5273-8.5068,23.9599-6.8633,34.4795,3.6167C615.997,411.1709,617.6201,426.541,609.0928,435.0889z"/>
	<path fill="#58595B" d="M1005.9209,731.1479l-66.6787-66.8223c-6.4727-6.6172-18.5137-5.2187-26.6924,3l-0.9453,0.9863
		l-14.2198,14.1778L724.2656,855.2593l-11.8975,11.918l-0.5341,0.4941c-8.1368,8.2188-9.5137,20.2188-3.0821,26.7129
		l66.7403,66.7813c6.4726,6.4531,18.4121,5.1777,26.6718-3l200.6338-200.3458
		C1011.0176,749.6421,1012.3935,737.6011,1005.9209,731.1479z M778.164,910.4116c-10.1923,0-18.9043-5.9589-23.1377-14.5078
		c-0.8212-1.6837-1.4794-3.4102-1.9316-5.3007c-0.4932-1.9317-0.7803-3.9864-0.7803-6.0411c0-9.7812,5.4864-18.164,13.4795-22.5625
		c3.6572-2.0547,7.8487-3.2871,12.3701-3.2871c1.6026,0,3.1231,0.2051,4.7051,0.4922c12,2.2207,21.124,12.7402,21.083,25.3985
		C803.9521,898.8218,792.3633,910.4527,778.164,910.4116z"/>
</g>
</svg>
