<?xml version="1.0" encoding="utf-8"?>
<!-- Generator: Adobe Illustrator 17.1.0, SVG Export Plug-In . SVG Version: 6.00 Build 0)  -->
<!DOCTYPE svg PUBLIC "-//W3C//DTD SVG 1.1//EN" "http://www.w3.org/Graphics/SVG/1.1/DTD/svg11.dtd">
<svg version="1.1" id="magnifier-user" xmlns="http://www.w3.org/2000/svg" xmlns:xlink="http://www.w3.org/1999/xlink" x="0px"
	 y="0px" viewBox="0 0 873.8063 1009.9976" enable-background="new 0 0 873.8063 1009.9976" xml:space="preserve">
<g id="magnifier-user-magnifier-user">
	<path fill="#B4BB4A" d="M870.3562,924.8827l-168.414-225.375c-5.795-7.7676-16.8086-9.4121-24.5762-3.5762l-20.1377,15
		l-13.9736-18.7402l-17.3633-23.3008l8.2402-6.165c5.4248-4.0694,6.4522-11.6719,2.4658-17.0147l-17.9179-24.123
		c127.1533-125.3868,145.6064-328.5293,35.7129-475.6563C534.2869-14.8488,306.6721-47.8087,145.9422,72.245
		C-14.8288,192.2479-47.8293,419.8837,72.2556,580.6542C184.1624,730.535,389.6468,769.371,547.2117,676.5751l15.9258,21.3291l0,0
		l1.2734,1.7676c3.9658,5.3007,11.6094,6.4511,16.9943,2.3828l8.3417-6.1641l15.7812,21.165l0,0l15.5762,20.836l-20.0967,15.0419
		c-7.8076,5.7939-9.3291,16.8087-3.6162,24.5753l168.456,225.458c5.876,7.7676,16.8086,9.3281,24.5342,3.5332l76.4404-57.042
		C874.5486,943.6639,876.0692,932.6913,870.3562,924.8827z M188.4773,129.2059c64.6455-48.33,142.7705-65.7968,216.8067-54.9883
		c73.9531,10.6446,143.7773,49.6045,192.1074,114.25c48.2676,64.6866,65.8369,142.6875,55.0283,216.7032
		c-10.7256,74.0156-49.6865,143.9218-114.29,192.2099c-64.6045,48.2481-142.6885,65.7149-216.6836,55.0703
		c-74.0357-10.7675-143.9209-49.6855-192.2305-114.373c-48.2681-64.6045-65.7549-142.6465-55.0288-216.7031
		C84.9134,247.3593,123.8318,177.494,188.4773,129.2059z"/>
	<path fill="#58595B" d="M472.5799,470.2684c-44.1582-18.4111-54.6177-24.8222-54.6177-24.8222l-0.4727-42.3711
		c0,0,16.5825-12.7813,21.7403-52.6035c10.2949,2.9589,21.1855-15.4532,21.8432-25.1924
		c0.5342-9.3291-1.4385-35.3028-14.0962-32.7139c2.5479-19.6025,4.459-37.1514,3.5752-46.4394
		c-3.2876-34.0284-36.8637-69.9463-88.3994-69.9463c-51.5557,0-85.0908,35.9179-88.3789,69.9463
		c-0.8833,9.288,1.0073,26.8369,3.5552,46.4394c-12.6372-2.5889-14.6304,23.3848-14.0757,32.7139
		c0.6367,9.7392,11.4453,28.1513,21.8223,25.1924c5.0756,39.8222,21.6787,52.6035,21.6787,52.6035l-0.4112,42.3711
		c0,0-10.5205,6.4111-54.6176,24.8222c-43.2544,17.96-86.7349,30.7412-101.0572,50.7139c0.8428,1.1094,1.3975,2.2188,2.1988,3.2871
		c40.2954,53.9199,97.2148,87.5781,158.3667,99.9893l44.7954-79.5225l46.2959,82.1113
		c41.4668-6.2461,82.0498-22.4384,118.0302-49.3164c21.3702-15.9453,39.5352-34.5215,54.5147-54.9052
		c-0.082-0.1231-0.082-0.2471-0.123-0.3702C561.4519,501.5428,516.7996,488.6385,472.5799,470.2684z M356.0706,544.7361
		l-28.5215-28.4394l28.48-28.4385l28.4394,28.4385L356.0706,544.7361z"/>
</g>
</svg>
