<?xml version="1.0" encoding="utf-8"?>
<!-- Generator: Adobe Illustrator 17.1.0, SVG Export Plug-In . SVG Version: 6.00 Build 0)  -->
<!DOCTYPE svg PUBLIC "-//W3C//DTD SVG 1.1//EN" "http://www.w3.org/Graphics/SVG/1.1/DTD/svg11.dtd">
<svg version="1.1" id="mobile-graphs" xmlns="http://www.w3.org/2000/svg" xmlns:xlink="http://www.w3.org/1999/xlink" x="0px"
	 y="0px" viewBox="0 0 692.6909 1010" enable-background="new 0 0 692.6909 1010" xml:space="preserve">
<g id="mobile-graphs-mobile-graphs">
	<path fill="#58595B" d="M591.9614,0H100.729C45.104,0.144,0.1645,45.0835,0,100.6875v808.625
		C0.1645,964.957,45.104,1009.877,100.729,1010h491.2324c55.625-0.123,100.5645-45.043,100.7295-100.6875v-7.3975l-73.4199-73.3994
		c-0.8633,14.1367-12.9258,25.8495-27.3096,25.8711H100.729c-14.877-0.0215-27.4321-12.5967-27.5147-27.4746V109.8525
		c0.0826-14.8774,12.6377-27.4531,27.5147-27.4941h491.2324c14.877,0.041,27.4736,12.6167,27.5147,27.4941v724.7861l73.2148,73.2354
		V100.6875C692.5259,45.0835,647.5864,0.144,591.9614,0z M346.3657,899.1816c17.3843,0,31.501,14.1172,31.501,31.501
		c0,17.4053-14.1167,31.4805-31.501,31.4805c-17.3838,0-31.4595-14.0752-31.4595-31.4805
		C314.9062,913.2988,328.9819,899.1816,346.3657,899.1816z M393.6479,48.8232h-94.5644c-5.918,0-10.7056-4.767-10.7056-10.685
		c0-5.8975,4.7876-10.6856,10.7056-10.6856h94.5644c5.918,0,10.6641,4.7881,10.6641,10.6856
		C404.312,44.0562,399.5659,48.8232,393.6479,48.8232z"/>
	<g>
		<path fill="#B4BB4A" d="M256.8154,770.3633c0,9.8633-8.0347,17.918-17.8774,17.918h-83.5913
			c-9.8423,0-17.918-8.0547-17.918-17.918V513.6914c0-9.8418,8.0757-17.8965,17.918-17.8965h83.5913
			c9.8427,0,17.8774,8.0547,17.8774,17.8965V770.3633z"/>
		<path fill="#B4BB4A" d="M406.0796,770.3633c0,9.8633-8.1172,17.918-17.918,17.918h-83.5913
			c-9.8428,0-17.8774-8.0547-17.8774-17.918V424.1621c0-9.8633,8.0346-17.9184,17.8774-17.9184h83.5913
			c9.8008,0,17.918,8.0551,17.918,17.9184V770.3633z"/>
		<path fill="#B4BB4A" d="M555.2612,770.3633c0,9.8633-8.0333,17.918-17.918,17.918h-83.5498
			c-9.8427,0-17.9189-8.0547-17.9189-17.918v-435.772c0-9.8017,8.0762-17.8774,17.9189-17.8774h83.5498
			c9.8848,0,17.918,8.0757,17.918,17.8774V770.3633z"/>
	</g>
	<path fill="#58595B" d="M491.2329,286.7339l-40.7061-109.0508l-109.0517,40.7271l54.2275,24.7197
		c-17.3838,36.3296-69.7002,118.5239-194.2451,139.2573c0,0,165.1074,16.8906,231.8076-122.1196L491.2329,286.7339z"/>
</g>
</svg>
