<?xml version="1.0" encoding="utf-8"?>
<!-- Generator: Adobe Illustrator 17.1.0, SVG Export Plug-In . SVG Version: 6.00 Build 0)  -->
<!DOCTYPE svg PUBLIC "-//W3C//DTD SVG 1.1//EN" "http://www.w3.org/Graphics/SVG/1.1/DTD/svg11.dtd">
<svg version="1.1" id="money-pig" xmlns="http://www.w3.org/2000/svg" xmlns:xlink="http://www.w3.org/1999/xlink" x="0px" y="0px"
	 viewBox="0 0 1010 848.9394" enable-background="new 0 0 1010 848.9394" xml:space="preserve">
<g id="money-pig-money-pig">
	<path fill="#B4BB4A" d="M386.4541,38.0381h133.1328c3.9453,0,7.1514-3.2061,7.1514-7.1104V7.1738
		c0-3.9443-3.2061-7.1709-7.1514-7.1709H386.4541c-3.9043,0-7.1094,3.2266-7.1094,7.1709v23.7539
		C379.3447,34.832,382.5498,38.0381,386.4541,38.0381z"/>
	<g id="money-pig-money-pig_1_">
		<path fill="#58595B" d="M1000.8115,308.6592c-7.8291-3.4932-17.0351,0.0395-20.4883,7.8481
			c-4.2734,9.7212-13.3964,22.0073-24.0605,30.9878c-2.3018,1.9717-4.7051,3.8022-7.0889,5.3848
			c0.4522-4.0484,0.6983-8.3428,0.6162-12.7828c0-0.5346-0.0205-0.9848,0-1.3149c-0.124-14.0137-4.3154-26.1382-12.1845-34.6851
			c-7.7881-8.5893-18.7608-12.8227-29.1602-12.7407c-21.9863-0.1855-43.4171,17.8369-45.248,44.9595
			c-0.1006,0.9468-0.1426,1.9736-0.1426,3.0425c0.124,16.3159,9.2266,28.9721,19.459,37.4394
			c3.8633,3.1836,7.9726,5.896,12.2275,8.1768c-11.4464,5.8159-24.9678,6.5967-28.625,6.5356c-0.8017,0-0.9443-0.042-0.9443-0.042
			c-0.4112,0-0.8233,0.0821-1.2129,0.0821c-10.4805-28.1094-24.1026-54.6997-40.625-78.4536
			c-69.1045-98.7549-191.7578-134.0982-301.1152-141.9488c-17.3638-1.1909-34.0499-1.7866-50.0772-1.7866
			c-62.5903-0.124-115.3184,8.9785-159.7437,23.6719c-13.685-13.6245-28.747-23.1797-43.1938-29.5489
			c-27.4111-12.227-52.438-13.9125-65.0566-13.9316c-5.0542,0-8.1368,0.2676-8.6289,0.3496
			c-6.0835,0.5952-11.3438,4.4585-13.8096,10.0894c-2.4243,5.6494-1.6226,12.122,2.1377,16.9931
			c13.3569,17.1783,22.5205,43.4805,27.9453,67.2954c-21.3701,15.6778-39.2256,32.6099-53.7949,49.6241
			c-53.919,62.7148-65.7759,124.8125-66.1656,126.5781c-0.9047,7.7471-11.1372,15.9873-17.2812,15.3711h-28.646
			C19.9116,435.998,0.061,457.5722,0,483.0537v97.4209c0.061,25.4785,19.9116,47.0127,45.9043,47.2187h37.3784
			c30.104,90.0645,103.7686,137.6123,170.9229,161.9825v34.7695c0.04,13.5615,10.9712,24.4521,24.4712,24.4941h89.5722
			c12.4922-0.042,24.1641-9.0224,24.4312-22.6865c0-3.5537,0-6.7803,0-9.0205c0.5136,0,1.1299,0.042,1.6245,0.042l0.1641,0.1846
			h7.1499c21.9042,0,43.5834,0.2041,65.1997,0.2041c52.3789,0,104.5722-1.3545,158.6347-10.7051v6.8017c0,0,0,5.6309,0,12.4932
			c0.2666,13.6641,11.918,22.6445,24.4738,22.6865h89.5293c13.5009-0.042,24.3916-10.9326,24.4521-24.4941v-63.8848
			c32.4463-18.1435,61.7676-42.167,81.8652-74.0361c29.5909-47.9395,42.6592-104.1611,42.6592-160.6279
			c0-34.9942-5.0771-70.1719-14.4872-103.75c9.2061-0.7383,23.3633-3.1436,37.7471-11.0342
			c7.9541-4.1914,15.7197-10.5,22.1523-18.9649c16.1709-2.4868,30.4307-10.8906,42.4512-20.9804
			c14.3027-12.1641,25.6455-27.1245,32.3437-42.001C1012.1533,321.3174,1008.6201,312.1518,1000.8115,308.6592z M302.3086,265.8979
			c-8.0147,9.2671-19.6655,18.02-44.3638,18.3086c-1.8076,0-3.6172-0.082-5.5889-0.164
			c-0.6587-6.3506-1.6455-14.5083-3.1245-23.6719c-0.6567-4.1919-1.4375-8.5894-2.2998-13.2329
			c-1.4395-7.1104-3.247-14.6939-5.3237-22.399c-3.4111-12.9047-7.7456-26.2202-13.6855-39.0424
			c8.4038,1.603,17.8579,4.2544,27.5351,8.5888c7.0889,3.2276,14.3018,7.3164,21.3086,12.4737
			c9.042,6.6782,17.7339,15.3916,25.5425,26.6298c3.3291,4.7471,6.5146,9.8223,9.4521,15.5562
			C310.2603,253.2607,307.3628,259.9179,302.3086,265.8979z M918.7627,340.0971c-0.1455,8.2398-1.1934,14.8365-2.8584,20.3033
			c-4.582-1.5215-9.7188-4.1729-13.5605-7.4805c-5.837-4.8501-8.3643-9.9253-8.2404-13.5615c0-0.1641,0-0.3911,0-0.6587
			c1.0695-12.021,8.6505-16.1094,14.3419-16.3154c2.6729,0.082,4.501,0.8437,6.2686,2.6723
			c1.7256,1.9107,3.9033,5.7529,4.0488,13.9107C918.7627,339.2763,918.7627,339.729,918.7627,340.0971z"/>
		<path fill="#B4BB4A" d="M386.4541,140.2842h133.1343c3.9453,0,7.1499-3.2046,7.1499-7.1499v-23.754
			c0-3.9453-3.2046-7.1518-7.1499-7.1518H386.4541c-3.9033,0-7.1099,3.2065-7.1099,7.1518v23.754
			C379.3442,137.0796,382.5508,140.2842,386.4541,140.2842z"/>
		<path fill="#B4BB4A" d="M386.4541,89.1611h133.1343c3.9453,0,7.1499-3.2065,7.1499-7.1099V58.2553
			c0-3.9243-3.2046-7.1098-7.1499-7.1098H386.4541c-3.9033,0-7.1099,3.1855-7.1099,7.1098v23.7959
			C379.3442,85.9546,382.5508,89.1611,386.4541,89.1611z"/>
		<path fill="#B4BB4A" d="M386.4541,38.0366h133.1343c3.9453,0,7.1499-3.2065,7.1499-7.1099V7.1728
			c0-3.9453-3.2046-7.1728-7.1499-7.1728H386.4541c-3.9033,0-7.1099,3.2275-7.1099,7.1728v23.7539
			C379.3442,34.8301,382.5508,38.0366,386.4541,38.0366z"/>
		<path fill="#B4BB4A" d="M545.7451,140.2842h133.1348c3.9238,0,7.1289-3.2046,7.1289-7.1499v-23.754
			c0-3.9453-3.2051-7.1518-7.1289-7.1518H545.7451c-3.9033,0-7.1289,3.2065-7.1289,7.1518v23.754
			C538.6162,137.0796,541.8418,140.2842,545.7451,140.2842z"/>
		<path fill="#B4BB4A" d="M545.7451,89.1611h133.1348c3.9238,0,7.1289-3.2065,7.1289-7.1099V58.2553
			c0-3.9243-3.2051-7.1098-7.1289-7.1098H545.7451c-3.9033,0-7.1289,3.1855-7.1289,7.1098v23.7959
			C538.6162,85.9546,541.8418,89.1611,545.7451,89.1611z"/>
		<path fill="#B4BB4A" d="M216.5181,448.3476c-17.4248,0-31.5625-14.1377-31.5625-31.583c0-17.4248,14.1377-31.5415,31.5625-31.5415
			c17.4262,0,31.5625,14.1167,31.5625,31.5415C248.0806,434.2099,233.9443,448.3476,216.5181,448.3476z"/>
	</g>
</g>
</svg>
