<?xml version="1.0" encoding="utf-8"?>
<!-- Generator: Adobe Illustrator 17.1.0, SVG Export Plug-In . SVG Version: 6.00 Build 0)  -->
<!DOCTYPE svg PUBLIC "-//W3C//DTD SVG 1.1//EN" "http://www.w3.org/Graphics/SVG/1.1/DTD/svg11.dtd">
<svg version="1.1" id="money-scale" xmlns="http://www.w3.org/2000/svg" xmlns:xlink="http://www.w3.org/1999/xlink" x="0px"
	 y="0px" viewBox="0 0 1000.3152 1009.9996" enable-background="new 0 0 1000.3152 1009.9996" xml:space="preserve">
<g id="money-scale-money-scale">
	<g>
		<path fill="#58595B" d="M0,652.8629c0-0.2051,0.0825-0.4512,0.1235-0.6572C0.0825,652.4117,0,652.5757,0,652.7808
			C0,652.8218,0,652.8629,0,652.8629z"/>
		<path fill="#58595B" d="M382.7812,637.6578c8.1787,0,15.124,6.5342,15.4116,14.6309c-0.041-1.8495-0.2876-3.6993-1.0273-5.5079
			L225.0493,224.6695l225.4194-60.4131c-7.9316-10.4799-12.8633-23.4257-12.8633-37.604c0-0.3291,0.1231-0.6577,0.1231-0.9863
			l-232.8579,62.3857c-6.3291-2.2602-14.1787-0.6167-18.1651,4.8907L85.0307,220.19c-8.0962,2.1783-12.9458,10.48-10.7675,18.5347
			l2.6713,9.9458c2.1368,8.0552,10.4795,12.8633,18.5347,10.6851l71.3452-19.1099L1.0688,646.7808
			c-0.7397,1.7676-0.9453,3.6172-0.9453,5.4249c0.2876-8.0547,6.8633-14.5479,15.0415-14.5479h22.4395l161.4716-396.3027
			l161.5948,396.3027H382.7812z"/>
		<path fill="#58595B" d="M999.2422,500.9264L821.4551,64.8419L915.3213,39.69c8.0547-2.1367,12.8632-10.4795,10.7265-18.5346
			l-2.6718-9.9458c-2.1368-8.0552-10.4786-12.8633-18.4932-10.6851L553.582,94.6373c5.6299,9.3701,9.083,20.2612,9.083,32.0151
			c0,2.6299-0.4531,5.1783-0.7812,7.7261L776.001,77.0479L603.1455,500.9264c-0.7813,1.9316-1.1504,3.9863-1.1094,5.9589
			c0-8.3427,6.8223-15.124,15.1641-15.124h22.4804L801.1943,95.4596L962.748,491.7613h22.1104
			c8.3838,0,15.4531,6.7813,15.4531,15.124C1000.3525,504.9127,1000.0644,502.858,999.2422,500.9264z"/>
		<path fill="#58595B" d="M541.8691,172.8868c-11.0967,10.0278-25.6445,16.3159-41.7134,16.3159
			c-16.0693,0-30.5766-6.247-41.6728-16.2339v733.9585h83.3862V172.8868z"/>
		<path fill="#58595B" d="M541.8691,80.4176V0.8941h-83.3862v79.4414c11.0962-9.9868,25.6035-16.1923,41.6728-16.1923
			C516.2246,64.1432,530.7724,70.3897,541.8691,80.4176z"/>
		<polygon fill="#58595B" points="541.8691,927.7632 458.4829,927.7632 264.7085,927.7632 239.6391,1009.9996 760.6308,1009.9996 
			735.6435,927.7632 		"/>
	</g>
	<g>
		<path fill="#B4BB4A" d="M382.7812,637.6578h-22.1103H37.6045H15.165c-8.3838,0-15.165,6.7813-15.165,15.123
			c0,0.0411,0,0.0821,0,0.0821c0.041,109.7715,89.3457,199.0351,199.0761,199.0351c109.8531,0,199.1988-89.3046,199.1988-199.1172
			c0-0.164-0.0821-0.3281-0.0821-0.4921C397.9052,644.192,390.9599,637.6578,382.7812,637.6578z"/>
		<path fill="#B4BB4A" d="M984.8584,491.7613H962.748H639.6806h-22.4804c-8.3418,0-15.1641,6.7813-15.1641,15.124
			c0,109.8125,89.3457,199.1582,199.1582,199.1582c109.7715,0,199.1172-89.3457,199.1172-199.1582l0,0
			C1000.3115,498.5426,993.2422,491.7613,984.8584,491.7613z"/>
		<path fill="#B4BB4A" d="M541.8691,80.4176c-11.0967-10.0279-25.6445-16.2744-41.7134-16.2744
			c-16.0693,0-30.5766,6.2055-41.6728,16.1923c-12.4937,11.2198-20.4668,27.2886-20.7544,45.3306
			c0,0.3286-0.1231,0.6572-0.1231,0.9863c0,14.1783,4.9317,27.1241,12.8633,37.604c2.4248,3.1646,5.0962,6.0826,8.0142,8.7124
			c11.0962,9.9869,25.6035,16.2339,41.6728,16.2339c16.0689,0,30.6167-6.2881,41.7134-16.3159
			c10.8506-9.7402,18.083-23.2202,20.0147-38.5083c0.3281-2.5478,0.7812-5.0962,0.7812-7.7261
			c0-11.7539-3.4531-22.645-9.083-32.0151C550.376,89.2945,546.4306,84.5274,541.8691,80.4176z M500.1557,104.4185
			c3.2466,0,6.3286,0.8218,9.1236,2.0962c7.685,3.4932,13.0688,11.1372,13.0688,20.1377c0,12.2881-9.9458,22.2334-22.1924,22.2334
			c-12.2885,0-22.2339-9.9453-22.2339-22.2334c0-4.9731,1.9317-9.3291,4.6851-12.9868
			C486.6758,108.1583,492.8403,104.4185,500.1557,104.4185z"/>
	</g>
</g>
</svg>
