<?xml version="1.0" encoding="utf-8"?>
<!-- Generator: Adobe Illustrator 17.1.0, SVG Export Plug-In . SVG Version: 6.00 Build 0)  -->
<!DOCTYPE svg PUBLIC "-//W3C//DTD SVG 1.1//EN" "http://www.w3.org/Graphics/SVG/1.1/DTD/svg11.dtd">
<svg version="1.1" id="money-coins" xmlns="http://www.w3.org/2000/svg" xmlns:xlink="http://www.w3.org/1999/xlink" x="0px"
	 y="0px" viewBox="0 0 1010 747.5546" enable-background="new 0 0 1010 747.5546" xml:space="preserve">
<g id="money-coins-money-coins">
	<path fill="#58595B" d="M397.9014,670.1894c-21.3501,0-38.7134,17.2608-38.7134,38.6934c0,21.3906,17.3633,38.6718,38.7134,38.6718
		h231.3349c9.2461,0,17.5684-3.3701,24.2266-8.7744c-43.3984-14.0146-82.4199-37.7881-114.6816-68.5908H397.9014z"/>
	<path fill="#58595B" d="M397.9014,637.6611H509.418c-18.1856-23.2812-32.9395-49.3164-43.6656-77.4268h-67.851
		c-21.3501,0-38.7134,17.2812-38.7134,38.6719C359.188,620.2978,376.5513,637.6611,397.9014,637.6611z"/>
	<path fill="#58595B" d="M397.9014,527.706h57.5561c-6.0615-23.7539-9.6372-48.4326-9.6372-73.9951
		c0-1.1719,0.1646-2.2813,0.1851-3.4522h-48.104c-21.3501,0-38.7134,17.3428-38.7134,38.6514
		C359.188,510.3017,376.5513,527.706,397.9014,527.706z"/>
	<path fill="#58595B" d="M397.9014,417.7304h50.3232c3.2671-27.1445,10.0483-53.0976,20.0552-77.4677h-70.3784
		c-21.3501,0-38.7134,17.3632-38.7134,38.7548C359.188,400.3671,376.5513,417.7304,397.9014,417.7304z"/>
	<path fill="#58595B" d="M397.9014,307.7343h86.1391c16.3565-29.1992,37.5625-55.2343,62.3853-77.4062H397.9014
		c-21.3501,0-38.7134,17.3432-38.7134,38.7544C359.188,290.371,376.5513,307.7343,397.9014,307.7343z"/>
	<path fill="#58595B" d="M397.9014,197.7587h192.54c23.7129-14.4658,49.4805-25.6035,76.8711-33.0625
		c0.2676-1.8491,0.5342-3.7192,0.5342-5.6098c0-21.3906-17.2403-38.6719-38.6104-38.6719H397.9014
		c-21.3501,0-38.7134,17.2813-38.7134,38.6719C359.188,180.4775,376.5513,197.7587,397.9014,197.7587z"/>
	<path fill="#58595B" d="M397.9014,77.3242h231.3349c21.3701,0,38.6104-17.2608,38.6104-38.5698
		C667.8467,17.2812,650.6064,0,629.2363,0H397.9014c-21.3501,0-38.7134,17.2812-38.7134,38.7544
		C359.188,60.0634,376.5513,77.3242,397.9014,77.3242z"/>
	<path fill="#58595B" d="M270.0894,670.1894H38.7134C17.3843,670.1894,0,687.4502,0,708.8828
		c0,21.3906,17.3843,38.6718,38.7134,38.6718h231.376c21.3295,0,38.7133-17.2812,38.7133-38.6718
		C308.8027,687.4502,291.4189,670.1894,270.0894,670.1894z"/>
	<path fill="#58595B" d="M270.0894,560.2343H38.7134C17.3843,560.2343,0,577.5156,0,598.9062
		c0,21.3916,17.3843,38.7549,38.7134,38.7549h231.376c21.3295,0,38.7133-17.3633,38.7133-38.7549
		C308.8027,577.5156,291.4189,560.2343,270.0894,560.2343z"/>
	<path fill="#58595B" d="M270.0894,450.2587H38.7134C17.3843,450.2587,0,467.6015,0,488.9101
		c0,21.3916,17.3843,38.7959,38.7134,38.7959h231.376c21.3295,0,38.7133-17.4043,38.7133-38.7959
		C308.8027,467.6015,291.4189,450.2587,270.0894,450.2587z"/>
	<path fill="#58595B" d="M270.0894,340.2627H38.7134C17.3843,340.2627,0,357.6259,0,379.0175
		c0,21.3496,17.3843,38.7129,38.7134,38.7129h231.376c21.3295,0,38.7133-17.3633,38.7133-38.7129
		C308.8027,357.6259,291.4189,340.2627,270.0894,340.2627z"/>
	<path fill="#58595B" d="M270.0894,230.3281H38.7134C17.3843,230.3281,0,247.6713,0,269.0825
		c0,21.2885,17.3843,38.6518,38.7134,38.6518h231.376c21.3295,0,38.7133-17.3633,38.7133-38.6518
		C308.8027,247.6713,291.4189,230.3281,270.0894,230.3281z"/>
	<path fill="#58595B" d="M270.0894,120.4145H38.7134C17.3843,120.4145,0,137.6958,0,159.0864
		c0,21.3911,17.3843,38.6723,38.7134,38.6723h231.376c21.3295,0,38.7133-17.2812,38.7133-38.6723
		C308.8027,137.6958,291.4189,120.4145,270.0894,120.4145z"/>
	<path fill="#B4BB4A" d="M745.5615,189.2519c-51.8447,0-100.0918,15.2056-140.9424,41.0762
		c-31.5625,19.9731-58.707,46.3369-79.3789,77.4062c-6.8632,10.3565-12.8427,21.2266-18.1855,32.5284
		c-11.5068,24.0625-19.4385,50.0556-23.1992,77.4677c-1.459,10.6446-2.4038,21.4727-2.5684,32.5283
		c-0.0615,1.1709-0.185,2.2803-0.185,3.4522c0,25.6445,3.8427,50.5078,10.747,73.9951c3.2466,11.1377,7.1919,22.0068,11.836,32.5283
		c12.7812,28.8907,30.5356,55.0078,52.2758,77.4268c11.6299,12.001,24.3702,22.8701,38.0957,32.5283
		c22.3164,15.5957,47.0157,28.0078,73.5645,36.207c24.6582,7.6231,50.7949,11.7325,77.9404,11.7325
		c145.833,0,264.4385-118.6055,264.4385-264.418C1010,307.8784,891.3945,189.2519,745.5615,189.2519z M745.5615,680.4843
		c-54.7627,0-105.0654-19.5625-144.3124-52.0898c-24.247-20.0156-44.0556-45.1465-58.2549-73.5029
		c-4.9931-9.9454-9.3906-20.2198-12.8837-30.8643c-7.233-22.1719-11.3018-45.7607-11.3018-70.3164
		c0-1.1299,0.1645-2.1992,0.1645-3.2871c0.1231-10.5215,1.1919-20.7754,2.7535-30.9473c3.9863-26.2187,12.205-51.0625,24.412-73.563
		c5.9179-10.8701,12.8828-21.124,20.4453-30.9048c22.8086-29.3637,52.6035-52.9946,86.9814-68.3442
		c28.1514-12.5757,59.2217-19.7266,91.9961-19.7266c124.9961,0,226.753,101.7559,226.753,226.773
		C972.3145,578.6875,870.5576,680.4843,745.5615,680.4843z"/>
	<path fill="#B4BB4A" d="M768.3906,589.5976v47.8789h-45.8847v-44.0156c-31.1309-1.5195-61.2549-10.2949-78.8857-20.0762
		l13.8086-54.3086c19.4795,10.787,46.9736,20.4658,77.0576,20.4658c26.959,0,45.1651-10.6435,45.1651-28.788
		c0-17.6719-14.96-28.8506-49.7686-40.419c-49.6445-16.706-83.5508-39.9463-83.5508-84.9678
		c0-41.2412,28.8301-73.3794,78.4141-82.6669V258.726h45.5762v40.8096c30.7208,0.9248,51.4746,7.9316,67.7285,15.2061
		l-13.8916,52.5629c-11.6514-5.5078-33.4942-16.2539-66.7822-16.2539c-30.2676,0-40.0293,13.418-40.0293,26.4258
		c0,14.8555,16.2753,25.0899,56.2206,39.4942c55.1933,19.5205,76.9337,45.124,76.9337,87.289
		C850.502,545.5429,821.7969,580.8447,768.3906,589.5976z"/>
</g>
</svg>
