<?xml version="1.0" encoding="utf-8"?>
<!-- Generator: Adobe Illustrator 17.1.0, SVG Export Plug-In . SVG Version: 6.00 Build 0)  -->
<!DOCTYPE svg PUBLIC "-//W3C//DTD SVG 1.1//EN" "http://www.w3.org/Graphics/SVG/1.1/DTD/svg11.dtd">
<svg version="1.1" id="necktie" xmlns="http://www.w3.org/2000/svg" xmlns:xlink="http://www.w3.org/1999/xlink" x="0px" y="0px"
	 viewBox="0 0 613.1618 1010" enable-background="new 0 0 613.1618 1010" xml:space="preserve">
<g id="necktie-necktie">
	<path fill="#B4BB4A" d="M393.6043,294.8711l-70.8515-84.6187c-8.877-10.5415-23.4668-10.5415-32.3438,0l-70.81,84.6187
		c-8.918,10.5415-10.8496,29.7749-4.315,42.6997l15.6577,30.8022c0.9864,1.9112,2.4248,3.6373,3.7398,5.3838h143.7988
		c1.3154-1.7465,2.7529-3.4726,3.7393-5.3838l15.6582-30.8022C404.4539,324.646,402.4813,305.4126,393.6043,294.8711z"/>
	<path fill="#B4BB4A" d="M454.5506,831.4131l-73.5224-432.5874h-26.5489l2.3018,13.48L235.7913,533.2539l22.9322-134.4282h-26.5488
		l-73.6045,432.5874c-2.4659,13.7471,2.9589,32.9795,11.9589,42.7197l119.5513,128.4697c4.4795,4.9317,10.521,7.3975,16.48,7.3975
		c6,0,12.0415-2.4658,16.521-7.3975l119.5102-128.4697C451.6327,864.3926,457.0575,845.1602,454.5506,831.4131z M416.9471,766.0898
		L255.641,927.375l-28.9322-31.1729l181.5254-181.4843L416.9471,766.0898z M386.8641,589.207L193.3792,782.6924l12.3291-72.4131
		l172.4429-172.4434L386.8641,589.207z M363.0692,449.375l8.7539,51.3711L214.5853,657.9834l12.3291-72.4131L363.0692,449.375z
		 M184.2967,836.0781l0.1646-1.0898l208.7309-208.711l8.7129,51.3711L205.7904,873.7422l-16.0279-17.3418
		C186.557,852.9473,183.2284,842.0566,184.2967,836.0781z M423.4403,856.3789L306.5604,982.0742l-29.96-32.2607l146.6758-146.6553
		l5.5889,32.9199C429.9745,842.0566,426.6043,852.9277,423.4403,856.3789z"/>
	<path fill="#58595B" d="M608.1296,60.5361L567.6902,7.459c-2.918-3.8013-7.1094-6.1851-11.6299-7.0274V0H60.7591
		C54.9647,0,49.1698,2.6304,45.471,7.459L5.0316,60.5361c-6.1236,8.0342-6.7398,21.5552-1.3975,30.1651L153.0218,329.043
		c2.877,4.562,6.9043,6.8632,11.0552,6.8632c3.6987,0,7.3975-1.8081,10.4385-5.4248l121.6884-146.9008
		c6.4112-7.7881,4.8907-18.8843-3.3291-24.6792L101.4041,24.3706h410.3536L320.287,158.9014
		c-8.1788,5.7949-9.7403,16.8911-3.3291,24.6792l121.6884,146.9008c3.041,3.6167,6.7393,5.4248,10.4385,5.4248
		c4.1504,0,8.1777-2.3012,11.0547-6.8632L609.5281,90.7012C614.87,82.0913,614.2538,68.5703,608.1296,60.5361z M165.7621,262.4248
		c11.3427,0,20.5893,9.2061,20.5893,20.5898c0,11.3633-9.2466,20.5689-20.5893,20.5689c-11.3428,0-20.5899-9.2056-20.5899-20.5689
		C145.1722,271.6309,154.4193,262.4248,165.7621,262.4248z M447.3993,303.5835c-11.3418,0-20.5889-9.2056-20.5889-20.5689
		c0-11.3837,9.2471-20.5898,20.5889-20.5898c11.3437,0,20.5898,9.2061,20.5898,20.5898
		C467.9891,294.3779,458.743,303.5835,447.3993,303.5835z"/>
</g>
</svg>
