<?xml version="1.0" encoding="utf-8"?>
<!-- Generator: Adobe Illustrator 17.1.0, SVG Export Plug-In . SVG Version: 6.00 Build 0)  -->
<!DOCTYPE svg PUBLIC "-//W3C//DTD SVG 1.1//EN" "http://www.w3.org/Graphics/SVG/1.1/DTD/svg11.dtd">
<svg version="1.1" id="organization-chart" xmlns="http://www.w3.org/2000/svg" xmlns:xlink="http://www.w3.org/1999/xlink" x="0px"
	 y="0px" viewBox="0 0 1010 905.5312" enable-background="new 0 0 1010 905.5312" xml:space="preserve">
<g id="organization-chart-organization-chart">
	<g>
		<polygon fill="#58595B" points="526.0415,661.7226 483.9585,661.7226 483.9585,243.8081 526.0415,243.8081 526.0415,661.7226 		
			"/>
	</g>
	<g>
		<polygon fill="#58595B" points="909.1484,661.7226 867.0645,661.7226 867.0645,473.8066 142.9355,473.8066 142.9355,661.7226 
			100.8521,661.7226 100.8521,431.7246 909.1484,431.7246 909.1484,661.7226 		"/>
	</g>
	<g>
		<path fill="#58595B" d="M121.8936,905.5312L121.8936,905.5312C54.5767,905.5312,0,850.9551,0,783.6377
			c0-67.3369,54.5767-121.9151,121.8936-121.9151c67.3374,0,121.894,54.5782,121.894,121.9151
			C243.7876,850.9551,189.231,905.5312,121.8936,905.5312"/>
	</g>
	<g>
		<path fill="#58595B" d="M888.1064,905.5312L888.1064,905.5312c-67.3369,0-121.8935-54.5761-121.8935-121.8935
			c0-67.3369,54.5566-121.9151,121.8935-121.9151c67.3174,0,121.8936,54.5782,121.8936,121.9151
			C1010,850.9551,955.4238,905.5312,888.1064,905.5312"/>
	</g>
	<g>
		<path fill="#58595B" d="M505,905.5312L505,905.5312c-67.3169,0-121.8936-54.5761-121.8936-121.8935
			c0-67.3369,54.5767-121.9151,121.8936-121.9151c67.3164,0,121.8936,54.5782,121.8936,121.9151
			C626.8936,850.9551,572.3164,905.5312,505,905.5312"/>
	</g>
	<g>
		<path fill="#B4BB4A" d="M505,243.8081L505,243.8081c-67.3169,0-121.8936-54.5772-121.8936-121.9146
			C383.1064,54.5766,437.6831,0,505,0c67.3164,0,121.8936,54.5766,121.8936,121.8935
			C626.8936,189.2309,572.3164,243.8081,505,243.8081"/>
	</g>
</g>
</svg>
