<?xml version="1.0" encoding="utf-8"?>
<!-- Generator: Adobe Illustrator 17.1.0, SVG Export Plug-In . SVG Version: 6.00 Build 0)  -->
<!DOCTYPE svg PUBLIC "-//W3C//DTD SVG 1.1//EN" "http://www.w3.org/Graphics/SVG/1.1/DTD/svg11.dtd">
<svg version="1.1" id="percentage-coins" xmlns="http://www.w3.org/2000/svg" xmlns:xlink="http://www.w3.org/1999/xlink" x="0px"
	 y="0px" viewBox="0 0 1009.9998 971.2269" enable-background="new 0 0 1009.9998 971.2269" xml:space="preserve">
<g id="percentage-coins-percentage-coins">
	<path fill="#58595B" d="M843.4111,296.738c18.4385,7.4546,28.833-1.9917,23.0664-21.0561L789.8799,21.1906
		c-5.7285-19.0258-24.584-26.6894-41.9981-16.9775L515.8125,133.6594c-17.3379,9.731-16.5415,23.7686,1.9346,31.2231
		l88.7763,35.9468L253.5059,949.924c-5.3872,11.3633,0.4932,20.6963,13.0883,20.7911l110.2876,0.5117
		c12.5577,0.0381,27.1636-9.2383,32.437-20.6192L733.9199,252.407L843.4111,296.738z"/>
	<path fill="#B4BB4A" d="M862.1904,814.5031c2.8076,5.2168,3.6807,11.3252,2.542,18.3057c-0.417,4.7041-2.3514,8.707-5.8808,12.1592
		c-3.4141,3.3389-8.498,6.2021-15.0995,8.498v-52.4873c1.2519,0.6065,2.0488,1.043,2.3906,1.1192
		c0.3037,0.1328,0.6836,0.2461,1.1387,0.4922C854.4893,805.3225,859.459,809.3244,862.1904,814.5031z M1009.999,774.0989
		c0.3036,107.2519-86.4238,194.4726-193.7138,194.7197c-107.252,0.3222-194.4346-86.3867-194.7002-193.6387
		c-0.3418-107.2519,86.4238-194.4531,193.6377-194.7568C922.4375,580.1389,1009.7334,666.8283,1009.999,774.0989z M898.8398,794.927
		c-7.1709-10.8311-17.3007-19.1778-30.2753-25.1905c-4.0215-1.8974-8.043-3.6425-12.254-5.2167
		c-4.1357-1.5938-8.3085-3.0167-12.5585-4.3067v-62.3896c6.1464,3.3759,10.4716,7.9101,12.9003,13.582
		c2.4278,5.5957,3.6797,11.7988,3.6797,18.5898h38.8486c0.8349-9.5225-2.6553-22.5732-10.585-39.0577
		c-7.7773-16.4463-22.7246-27.0508-44.8437-31.9258v-20.7138h-41.087v20.3545c-19.917,3.8125-34.7138,11.7793-44.1982,24.0527
		c-9.5977,12.1973-14.7207,24.5644-15.3272,37.0654c-1.1005,15.5361,2.1241,28.4346,9.5606,38.8487
		c7.3975,10.414,18.1348,18.3437,32.1338,23.9023c2.8076,1.0615,5.6914,2.1816,8.7637,3.3184
		c3.0732,1.1767,6.0703,2.3144,9.0673,3.3398v63.0723c-6.5634-2.9405-11.913-7.3985-16.0859-13.3731
		c-4.1357-5.9189-6.1455-13.8857-6.1455-23.8828h-41.4297c0,16.124,4.8184,32.1719,14.4932,48.0488
		c9.6357,15.9532,26.0255,26.0264,49.1679,30.2754v21.3594l41.087,0.3027v-21.6621c19.956-2.997,35.1318-10.0722,45.5644-21.1318
		c10.3955-11.1533,16.3145-24.4893,17.793-40.0059C908.8164,818.1838,906.0469,805.758,898.8398,794.927z M787.9072,707.5549
		c-3.1103,4.5527-4.6279,9.7695-4.6279,15.7441c0,6.6211,1.8203,11.6289,5.3867,15.2705c3.6035,3.585,8.3086,6.9053,13.999,9.8829
		V695.926C795.874,699.094,790.9805,702.9455,787.9072,707.5549z"/>
	<path fill="#B4BB4A" d="M388.4526,346.7785c-0.3032-107.2329-87.5996-193.979-194.7758-193.6757
		C86.4248,153.4065-0.3408,240.5891,0.001,347.841c0.2651,107.271,87.4477,193.96,194.7002,193.6377
		C301.9912,541.2131,388.7563,454.031,388.4526,346.7785z M285.5259,404.8816c-1.4419,15.479-7.3604,28.8144-17.7935,39.9492
		c-10.395,11.1157-25.6084,18.1723-45.5259,21.1509v21.6816l-41.1254-0.3223v-21.3593
		c-23.1426-4.1924-39.5318-14.3033-49.1304-30.2373c-9.6743-15.896-14.5303-31.9629-14.5303-48.106h41.3906
		c0,10.0156,2.0869,17.9829,6.1841,23.9014c4.1734,5.9941,9.5225,10.4331,16.086,13.3921v-63.0728
		c-2.9971-1.043-5.9942-2.1621-9.0674-3.3193c-3.0728-1.1953-5.9561-2.2954-8.7256-3.3389
		c-14.0371-5.5391-24.7359-13.4868-32.1719-23.9009c-7.3979-10.3955-10.623-23.3135-9.5605-38.8491
		c0.645-12.4819,5.7666-24.8687,15.3271-37.0659c9.5225-12.2354,24.2808-20.2593,44.1983-24.0532v-20.354h41.1254v20.6958
		c22.0801,4.8559,37.0279,15.4975,44.8814,31.9628c7.853,16.4463,11.3433,29.4971,10.5469,39.001h-38.9253
		c0-6.791-1.1758-12.956-3.604-18.5708c-2.4659-5.6719-6.753-10.1865-12.899-13.563v62.3897
		c4.2491,1.29,8.4224,2.7124,12.5577,4.3061c4.1733,1.5933,8.2324,3.3384,12.2539,5.2544
		c12.9751,5.9561,23.0669,14.3218,30.2749,25.1534C284.5015,378.4197,287.2329,390.8635,285.5259,404.8816z M181.0811,268.5686
		v52.5259c-5.691-2.9595-10.357-6.2408-13.9991-9.8453c-3.5664-3.642-5.3877-8.6879-5.3877-15.2509
		c0-6.0132,1.5176-11.1919,4.5909-15.7447C169.396,275.6252,174.3281,271.7556,181.0811,268.5686z M240.6445,387.1833
		c2.8076,5.2354,3.6421,11.3247,2.542,18.3052c-0.4175,4.7231-2.3901,8.7261-5.8803,12.1216
		c-3.4527,3.414-8.5362,6.2026-15.0997,8.5361v-52.4883c1.252,0.626,2.0484,1.0244,2.3521,1.1197
		c0.3413,0.1137,0.7207,0.2465,1.1382,0.4931C232.9053,377.9831,237.875,382.0046,240.6445,387.1833z"/>
</g>
</svg>
