<?xml version="1.0" encoding="utf-8"?>
<!-- Generator: Adobe Illustrator 17.1.0, SVG Export Plug-In . SVG Version: 6.00 Build 0)  -->
<!DOCTYPE svg PUBLIC "-//W3C//DTD SVG 1.1//EN" "http://www.w3.org/Graphics/SVG/1.1/DTD/svg11.dtd">
<svg version="1.1" id="tablet-chart" xmlns="http://www.w3.org/2000/svg" xmlns:xlink="http://www.w3.org/1999/xlink" x="0px"
	 y="0px" viewBox="0 0 779.1582 1010" enable-background="new 0 0 779.1582 1010" xml:space="preserve">
<g id="tablet-chart-tablet-chart">
	<path fill="#58595B" d="M715.6836,0H63.5156C28.583,0,0,28.5625,0,63.4951v883.0098C0,981.4375,28.583,1010,63.5156,1010h652.168
		c34.8916,0,63.4746-28.5625,63.4746-63.4951V63.4951C779.1582,28.5625,750.5752,0,715.6836,0z M388.1816,20.6924
		c9.2471,0,16.7881,7.5205,16.7881,16.8291c0,9.3291-7.541,16.8291-16.7881,16.8291c-9.3286,0-16.8906-7.5-16.8906-16.8291
		C371.291,28.2129,378.853,20.6924,388.1816,20.6924z M438.6494,954.9297c0,5.0957-4.1719,9.2471-9.2676,9.2471h-73.831
		c-5.0962,0-9.2261-4.1514-9.2261-9.2471v-4.6026c0-5.0966,4.1299-9.247,9.2261-9.247h73.831c5.0957,0,9.2676,4.1505,9.2676,9.247
		V954.9297z M714.2041,881.5723H64.9126V128.4282h649.2915V881.5723z"/>
	<path fill="#B4BB4A" d="M278.3911,363.8936l-86.5093,86.4677c4.9937-44.2817,23.857-86.1186,53.8785-119.1401L278.3911,363.8936z"
		/>
	<path fill="#B4BB4A" d="M292.8369,378.3389l-102.147,102.2085c0.4112,13.2944,2.0142,26.5483,4.8907,39.5561l119.5717-119.4897
		L292.8369,378.3389z"/>
	<path fill="#B4BB4A" d="M329.6187,415.0591L201.9302,542.7266c3.6167,10.706,8.1372,21.083,13.4389,31.0488L351.8726,437.313
		L329.6187,415.0591z"/>
	<path fill="#B4BB4A" d="M366.3389,451.7793L226.1978,591.8994c5.8154,8.7334,12.3911,17.0967,19.5625,24.9873l142.812-142.833
		L366.3389,451.7793z"/>
	<path fill="#58595B" d="M560.3779,331.2212L260.1645,631.3525c39.2066,35.5909,89.7764,55.1524,142.8946,55.1524h0.041
		c56.7349,0,110.0981-22.0899,150.2505-62.2002C634.2295,543.3643,637.0244,415.3882,560.3779,331.2212z"/>
	<path fill="#58595B" d="M545.9121,316.7349c-39.165-35.6109-89.7353-55.1524-142.894-55.1524
		c-53.1182,0-103.688,19.5415-142.8536,55.1524l142.8536,142.8325L545.9121,316.7349z"/>
</g>
</svg>
