<?xml version="1.0" encoding="utf-8"?>
<!-- Generator: Adobe Illustrator 17.1.0, SVG Export Plug-In . SVG Version: 6.00 Build 0)  -->
<!DOCTYPE svg PUBLIC "-//W3C//DTD SVG 1.1//EN" "http://www.w3.org/Graphics/SVG/1.1/DTD/svg11.dtd">
<svg version="1.1" id="tablet-globe" xmlns="http://www.w3.org/2000/svg" xmlns:xlink="http://www.w3.org/1999/xlink" x="0px"
	 y="0px" viewBox="0 0 779.1582 1010" enable-background="new 0 0 779.1582 1010" xml:space="preserve">
<g id="tablet-globe-tablet-globe">
	<path fill="#58595B" d="M715.6836,0H63.5156C28.583,0,0,28.5625,0,63.4951v883.0098C0,981.3965,28.583,1010,63.5156,1010h652.168
		c34.8916,0,63.4746-28.6035,63.4746-63.4951V63.4951C779.1582,28.5625,750.5752,0,715.6836,0z M388.1816,20.6719
		c9.2471,0,16.7881,7.562,16.7881,16.8496c0,9.3086-7.541,16.8086-16.7881,16.8086c-9.3286,0-16.8906-7.5-16.8906-16.8086
		C371.291,28.2339,378.853,20.6719,388.1816,20.6719z M438.6494,954.9297c0,5.0957-4.1719,9.2471-9.2676,9.2471h-73.831
		c-5.0962,0-9.2261-4.1514-9.2261-9.2471v-4.6436c0-5.0555,4.1299-9.206,9.2261-9.206h73.831c5.0957,0,9.2676,4.1505,9.2676,9.206
		V954.9297z M714.2041,881.5918H64.9126V128.4282h649.2915V881.5918z"/>
	<g>
		<path fill="#B4BB4A" d="M370.0581,246.9106c-41.5288,30.6177-78.9678,74.4678-100.1738,118.1543
			c-22.0489-11.0346-44.4053-26.4668-61.4405-44.5493C253.2192,277.3228,308.4126,251.5137,370.0581,246.9106z"/>
		<path fill="#B4BB4A" d="M207.7661,696.0605c17.5894-19.0488,39.4121-32.8984,60.2276-44.6728
			c21.5966,43.6455,56.3437,87.4951,97.975,118.1943C305.0835,764.4453,250.877,737.7324,207.7661,696.0605z"/>
		<path fill="#B4BB4A" d="M384.627,763.0479c-43.3985-29.5068-79.4405-72.207-101.7974-118.6064
			c31.3159-14.7119,65.0361-22.1094,102.188-23.0547L384.627,763.0479z"/>
		<path fill="#B4BB4A" d="M356.7632,518.5625l28.6855,0.1641l-0.1025,86.0156c-1.2944,0.3906-3.1646,0.4932-4.8086,0.6172
			c-36.4736,1.3554-72.228,9.8633-104.5093,23.9179c-10.665-25.9726-18.124-54.8232-21.5146-83.1601
			c-4.9317,2.0957-10.2329,3.1855-15.8223,3.4316c3.5757,30.5977,11.6509,59.5498,23.0557,87.002
			c-24.3091,12.3711-45.4126,29.2207-65.4883,47.3857c-41.4258-46.3574-63.9878-102.0644-66.5772-165.1279l62.5293-0.082
			c-1.8291-5.0547-2.9795-10.3565-2.9795-15.9864l-59.0771,0.1231l-0.3906-0.4112l0.7397-19.8916
			c1.1304-0.8418-0.2671-2.4653,0.6167-3.6572c7.0273-54.7822,27.6582-105.126,65.8169-146.7573
			c20.0552,19.2334,42.104,35.7954,65.9605,47.7134c-10.2535,23.4668-17.4248,49.9741-21.7608,76.1938
			c5.4863,0.5757,10.6851,1.9727,15.4116,4.2539c4.0274-25.4599,10.7671-49.83,20.7745-73.0503
			c33.4526,14.2403,70.7485,23.7134,108.3725,24.001l-0.4311,91.4824H283.4463c0,5.6299-1.1714,10.9317-3.021,15.9864
			L356.7632,518.5625z"/>
		<path fill="#B4BB4A" d="M385.3872,394.8804c-38.3433-0.7603-68.7964-8.815-101.0371-22.418
			c22.0898-45.3301,59.1387-87.4546,101.6328-117.0649L385.3872,394.8804z"/>
		<path fill="#B4BB4A" d="M401.7026,410.7031c24.0015-0.8633,47.4468-5.4868,69.8648-12.6377
			c-3.2266-4.3559-5.6299-9.2671-7.2539-14.5893c-19.6856,6.185-40.2949,10.2334-62.5493,10.8701l0.226-136.1133
			c28.9121,19.1309,56.3037,46.5015,77.2832,75.8858c4.212-3.4932,8.9385-6.2671,14.1377-8.1167
			c-21.3496-30.2266-49.2754-58.3165-78.29-78.8858c58.0908,6.1441,111.8252,29.7954,156.0449,72.8652
			c-7.5615,7.7671-15.9248,14.959-24.6378,21.6373c3.3701,4.3359,5.877,9.2675,7.5625,14.6308
			c9.8008-7.3154,19.2324-15.3496,28.2335-24.1035c42.7822,47.1177,65.2002,105.085,67.1729,170.2642l-98.5303,0.165
			c-0.9863-33.083-6.7393-63.6182-16.0889-92.9614c-4.4804,2.9179-9.5135,5.0551-14.8984,6.3086
			c8.8984,27.2265,13.9941,55.9946,14.7539,86.5913l-132.5991,0.2871l-0.2261-0.2666l-0.2056-90.5366V410.7031z"/>
		<path fill="#B4BB4A" d="M581.6045,683.5254c-10.4385-10.0274-21.5137-18.8018-32.8574-26.7949
			c-2.9785,4.5615-6.8008,8.5068-11.1573,11.7734c11.4043,7.9531,22.3155,16.9941,32.7959,27.043
			c-41.6113,40.582-93.3925,66.0215-150.0664,73.0488c32.5703-24.5137,61.543-56.3437,82.8106-90.8242
			c0.041-0.0615,0.041-0.1231,0.082-0.1641c-5.6299-0.7402-10.9101-2.4453-15.7598-5.0137
			c-22.2753,34.9727-52.9951,66.7002-86.7153,89.879l0.6372-141.045c20.5274,1.2325,41.0977,5.0137,60.9473,10.8496
			c0-0.4111-0.1445-0.7812-0.1445-1.1914c0-5.2402,1.0683-10.2334,2.6914-14.9803c-20.2403-5.6914-41.3223-9.5547-63.4532-10.6641
			l0.3907-86.6738L531.0352,518.5l3.6572,0.2676c-0.2871,23.5898-3.9863,46.2755-9.9043,68.0566
			c5.3838,1.8496,10.2334,4.6445,14.4668,8.1778c7.0683-25.3155,11.3008-51.6583,11.6504-76.4395l94.5019-0.2061
			c1.1104,0.6377,2.6309,0.2666,3.9873,0.4112C647.0312,580.2891,623.4619,636.2842,581.6045,683.5254z"/>
	</g>
	<g>
		<path fill="#58595B" d="M554.0908,356.2495c-1.6855-5.3633-4.1924-10.2949-7.5625-14.6308
			c-8.6094-11.1988-22.0273-18.5757-37.2334-18.5757c-5.5888,0-10.8701,1.1508-15.8838,2.959
			c-5.1992,1.8496-9.9257,4.6235-14.1377,8.1167c-10.3154,8.6508-17.0966,21.4936-17.0966,36.0009
			c0,4.6851,0.8837,9.1031,2.1367,13.3565c1.624,5.3222,4.0273,10.2334,7.2539,14.5893
			c8.5683,11.5894,22.2344,19.1924,37.7275,19.1924c3.6983,0,7.253-0.5342,10.6846-1.3354
			c5.3848-1.2535,10.418-3.3907,14.8984-6.3086c12.9453-8.4043,21.5547-22.9322,21.5547-39.4942
			C556.4326,365.27,555.4678,360.6675,554.0908,356.2495z"/>
		<path fill="#58595B" d="M539.2549,595.002c-4.2334-3.5333-9.083-6.3282-14.4668-8.1778
			c-4.8692-1.7051-10.0274-2.8359-15.4932-2.8359c-20.6924,0-38.1181,13.5-44.4267,32.1172
			c-1.6231,4.7469-2.6914,9.7402-2.6914,14.9803c0,0.4102,0.1445,0.7803,0.1445,1.1914
			c0.4316,17.549,10.541,32.5694,25.1308,40.3164c4.8497,2.5684,10.1299,4.2735,15.7598,5.0137
			c2.0352,0.2461,4.0078,0.5752,6.083,0.5752c10.6651,0,20.4043-3.6572,28.2949-9.6787c4.3565-3.2666,8.1788-7.2119,11.1573-11.7734
			c4.8086-7.3986,7.6855-16.1514,7.6855-25.6447C556.4326,616.5371,549.6514,603.6738,539.2549,595.002z"/>
		<path fill="#58595B" d="M256.5483,460.3071c-4.7265-2.2812-9.9253-3.6782-15.4116-4.2539
			c-1.582-0.164-3.1645-0.4931-4.8081-0.4931c-25.9736,0-47.1387,21.165-47.1387,47.1176c0,0.0215,0.0415,0.0625,0.0415,0.0625
			c0,5.6299,1.1504,10.9317,2.9795,15.9864c6.5547,18.0625,23.7745,31.0693,44.1177,31.0693c0.8218,0,1.5615-0.1846,2.3628-0.2471
			c5.5894-0.2461,10.8906-1.3359,15.8223-3.4316c12.0825-5.0752,21.4321-15.0615,25.9116-27.3906
			c1.8496-5.0547,3.021-10.3565,3.021-15.9864c0,0,0-0.041,0-0.0625C283.4463,483.9785,272.4116,467.9307,256.5483,460.3071z"/>
	</g>
</g>
</svg>
