<?xml version="1.0" encoding="utf-8"?>
<!-- Generator: Adobe Illustrator 17.1.0, SVG Export Plug-In . SVG Version: 6.00 Build 0)  -->
<!DOCTYPE svg PUBLIC "-//W3C//DTD SVG 1.1//EN" "http://www.w3.org/Graphics/SVG/1.1/DTD/svg11.dtd">
<svg version="1.1" id="target-arrow" xmlns="http://www.w3.org/2000/svg" xmlns:xlink="http://www.w3.org/1999/xlink" x="0px"
	 y="0px" viewBox="0 0 1010 1010" enable-background="new 0 0 1010 1010" xml:space="preserve">
<g id="target-arrow-target-arrow">
	<path fill="#58595B" d="M734.4443,146.3052L843.8037,36.9873c6.7608-6.7808,13.1514-4.5,14.1161,4.9932l10.3574,102.352
		l102.2696,10.3154c9.5351,0.9659,11.7744,7.295,5.0342,14.0757L866.2227,278.042c-6.8028,6.8218-20.1172,11.5688-29.6934,10.644
		l-64.8096-6.5756L582.7559,471.0742c14.7538,31.7266,9.4111,70.5225-16.8087,96.6807c-33.412,33.5146-87.7222,33.5146-121.1953,0
		c-33.4122-33.4737-33.4122-87.7007,0-121.1743c26.2197-26.2198,65.0566-31.5625,96.701-16.7676L730.458,240.8286l-6.5752-64.8306
		C722.9785,166.4839,727.7051,153.0864,734.4443,146.3052z"/>
	<path fill="#B4BB4A" d="M938.0391,245.2051l-52.337,52.3579c-8.7333,8.7944-22.2128,15.144-35.5488,17.5688
		c31.0488,56.3648,48.7822,121.0103,48.7822,189.8887c0,217.5674-176.4091,393.915-393.9355,393.915
		c-217.5674,0-393.9146-176.3476-393.9146-393.915c0-217.5264,176.3472-393.8735,393.9146-393.8735
		c69.9883,0,135.5996,18.2676,192.4785,50.2617c2.5469-13.0278,8.7939-25.8296,17.5273-34.542l52.9736-52.9946
		C691.416,27.0625,601.332,0,505,0C226.0747,0,0,226.0952,0,505.0205C0,783.9258,226.0747,1010,505,1010
		c278.9258,0,505-226.0742,505-504.9795C1010,410.0249,983.7383,321.1523,938.0391,245.2051z"/>
	<path fill="#B4BB4A" d="M505,336.79c26.4043,0,51.2275,6.2876,73.4404,17.0757l92.7149-92.6943
		C623.8525,228.8076,566.6865,209.8823,505,209.8823c-163.0112,0-295.1587,132.168-295.1587,295.1382
		c0,163.0322,132.1475,295.2002,295.1587,295.2002c163.0313,0,295.1582-132.168,295.1582-295.2002
		c0-60.3306-18.1641-116.3867-49.2129-163.1138l-93.1055,93.064c9.7598,21.3291,15.4112,44.9805,15.4112,70.0498
		c0,92.8994-75.3311,168.251-168.251,168.251c-92.8999,0-168.251-75.3516-168.251-168.251
		C336.749,412.1206,412.1001,336.79,505,336.79z"/>
</g>
</svg>
