<?xml version="1.0" encoding="utf-8"?>
<!-- Generator: Adobe Illustrator 17.1.0, SVG Export Plug-In . SVG Version: 6.00 Build 0)  -->
<!DOCTYPE svg PUBLIC "-//W3C//DTD SVG 1.1//EN" "http://www.w3.org/Graphics/SVG/1.1/DTD/svg11.dtd">
<svg version="1.1" id="target-dollar" xmlns="http://www.w3.org/2000/svg" xmlns:xlink="http://www.w3.org/1999/xlink" x="0px"
	 y="0px" viewBox="0 0 1010 1010" enable-background="new 0 0 1010 1010" xml:space="preserve">
<g id="target-dollar-target-dollar">
	<path fill="#58595B" d="M982.6094,477.5884h-18.8223c-13.6445-232.0132-199.3418-417.71-431.3555-431.3955V27.4526
		C532.4316,12.3291,520.144,0,505,0c-15.1235,0-27.4116,12.3291-27.4116,27.4526v18.7403
		C245.5547,59.8784,59.8579,245.5752,46.2134,477.5884H27.4116C12.2676,477.5884,0,489.877,0,505
		c0,15.1641,12.2676,27.4531,27.4116,27.4531h18.8018c13.6445,232.0127,199.3413,417.709,431.375,431.3535v18.7813
		c0,15.124,12.2881,27.4121,27.4116,27.4121c15.144,0,27.4316-12.2881,27.4316-27.4121v-18.7813
		c232.0137-13.6445,417.711-199.3408,431.3555-431.3535h18.8223c15.1435,0,27.3906-12.289,27.3906-27.4531
		C1010,489.835,997.7529,477.5884,982.6094,477.5884z M532.4316,914.4492V735.6777c0-15.165-12.2876-27.4531-27.4316-27.4531
		c-15.1235,0-27.4116,12.2881-27.4116,27.4531v178.7715c-204.4986-13.6035-368.4346-177.498-381.9966-381.9961h178.7925
		c15.144,0,27.4116-12.289,27.4116-27.4531c0-15.123-12.2676-27.4116-27.4116-27.4116H95.5918
		c13.562-204.4986,177.498-368.4346,381.9966-381.9761v178.7515c0,15.1235,12.2881,27.4116,27.4116,27.4116
		c15.144,0,27.4316-12.2881,27.4316-27.4116V95.6123c204.5,13.5415,368.4141,177.4775,381.9971,381.9761H735.6563
		c-15.1641,0-27.4317,12.2466-27.4317,27.4116c0,15.1641,12.2676,27.4531,27.4317,27.4531h178.7724
		C900.8457,736.9512,736.9316,900.8457,532.4316,914.4492z"/>
	<g>
		<path fill="#58595B" d="M458.8892,225.9512v-44.5078c-143.8394,20.3427-257.5547,134.0586-277.939,277.8979h44.5493
			C245.1846,340.0366,339.5845,245.6572,458.8892,225.9512z"/>
		<path fill="#58595B" d="M225.4995,551.9326h-44.5493c20.3843,143.8194,134.0996,257.5557,277.939,277.8975v-44.5078
			C339.5845,765.5957,245.1846,671.2373,225.4995,551.9326z"/>
		<path fill="#58595B" d="M551.46,785.3223v44.5078c143.8603-20.3418,257.5751-134.0781,277.9394-277.8975h-44.5498
			C765.1641,671.2373,670.7852,765.5957,551.46,785.3223z"/>
		<path fill="#58595B" d="M551.46,181.4434v44.5078c119.3252,19.706,213.704,114.0854,233.3896,233.3901h44.5498
			C809.0352,315.502,695.3203,201.7861,551.46,181.4434z"/>
	</g>
	<path fill="#B4BB4A" d="M538.6582,538.5352c3.3086,4.2128,5.0137,9.5136,5.0137,15.9863c0,14.7949-9.4102,24.4736-28.1919,28.8506
		v-60.7823l5.0752,2.795C529.2886,529.9043,535.2891,534.3223,538.6582,538.5352z M457.8003,448.4917
		c0,6.3286,1.9106,11.5483,5.7329,15.7402c3.8423,4.1504,10.603,8.2398,20.3428,12.3702c1.603,0.6162,2.9795,1.2739,4.1098,1.8286
		v-57.8028c-8.8974,1.2124-16.1303,4.3975-21.7607,9.5757S457.8003,441.4844,457.8003,448.4917z M673.334,505
		c0,92.9824-75.3516,168.334-168.334,168.334c-92.9819,0-168.3335-75.3516-168.3335-168.334
		c0-92.9614,75.3516-168.3335,168.3335-168.3335C597.9824,336.6665,673.334,412.0386,673.334,505z M576.2832,551.8916
		c0-14.7539-5.1787-27.7822-15.4736-39.083c-10.3565-11.3428-25.4385-19.8906-45.3296-25.7266v-66.4541
		c19.7876,4.6026,36.4731,13.8496,50.1382,27.8638v-37.686c-11.6924-9.8633-28.3975-16.398-50.1382-19.6856v-29.7749h-27.4942
		v29.7749c-18.9253,2.6304-34.1308,9.3701-45.5766,20.2403c-11.4453,10.8701-17.2403,23.9799-17.2403,39.371
		c0,7.8907,2.1578,15.6783,6.4112,23.3638c4.2539,7.6851,10.1098,14.3013,17.6103,19.7681
		c7.4795,5.4863,20.4253,11.3828,38.7954,17.7539v72.043c-12.0415-2.3848-22.9731-6.3301-32.7338-11.9395
		c-9.7808-5.5684-19.9112-13.1094-30.3912-22.623v41.3017c23.5074,13.8916,44.5083,21.6582,63.125,23.4053v36.3906H515.48v-36.3906
		c11.9179-1.9317,21.2055-4.7061,27.9253-8.3633c6.6982-3.5352,12.5752-8.2607,17.6299-14.0557
		C571.1865,579.7969,576.2832,566.6045,576.2832,551.8916z"/>
</g>
</svg>
