<?xml version="1.0" encoding="utf-8"?>
<!-- Generator: Adobe Illustrator 17.1.0, SVG Export Plug-In . SVG Version: 6.00 Build 0)  -->
<!DOCTYPE svg PUBLIC "-//W3C//DTD SVG 1.1//EN" "http://www.w3.org/Graphics/SVG/1.1/DTD/svg11.dtd">
<svg version="1.1" id="time-management" xmlns="http://www.w3.org/2000/svg" xmlns:xlink="http://www.w3.org/1999/xlink" x="0px"
	 y="0px" viewBox="0 0 1010 1009.959" enable-background="new 0 0 1010 1009.959" xml:space="preserve">
<g id="time-management-time-management">
	<g>
		<path fill="#58595B" d="M703.0059,640.0859c3.7393,2.0957,8.5059,0.7198,10.6025-3.0615l9.4111-16.7676
			c2.0957-3.7812,0.7403-8.5488-3-10.6445l-167.6757-93.5371c0.8632-3.5752,1.3564-7.3145,1.3564-11.1367
			c0-26.96-21.8643-48.8233-48.8232-48.8233c-4.2334,0-8.3428,0.6573-12.2881,1.6231l-118.1538-151.812
			c-2.5894-3.4317-7.48-4.0484-10.8912-1.418l-15.185,11.8359c-3.3906,2.6304-4.0484,7.5-1.377,10.9732l117.25,150.7026
			c-5.1782,7.7056-8.0962,16.9517-8.0962,26.9185c0,26.959,21.8223,48.8027,48.7413,48.8027
			c10.3354,0,19.8906-3.3291,27.7812-8.7334L703.0059,640.0859z"/>
		<g>
			<path fill="#B4BB4A" d="M496.123,700.8887c-4.5205,0-8.2602,3.7197-8.2602,8.2812v66.8643c0,4.5625,3.7397,8.2617,8.2602,8.2617
				h20.4869c4.562,0,8.3222-3.6992,8.3222-8.2617v-66.8643c0-4.5615-3.7602-8.2812-8.3222-8.2812H496.123z"/>
			<path fill="#B4BB4A" d="M228.1704,486.4033c-4.5615,0-8.3013,3.6992-8.3013,8.2608v20.5068c0,4.5625,3.7398,8.3027,8.3013,8.3027
				h66.9063c4.5615,0,8.2192-3.7402,8.2192-8.3027v-20.5068c0-4.5616-3.6577-8.2608-8.2192-8.2608H228.1704z"/>
			<path fill="#B4BB4A" d="M516.6099,305.3716c4.562,0,8.3222-3.6987,8.3222-8.3018v-66.8852c0-4.5415-3.7602-8.2813-8.3222-8.2813
				H496.123c-4.5205,0-8.2602,3.7398-8.2602,8.2813v66.8852c0,4.6031,3.7397,8.3018,8.2602,8.3018H516.6099z"/>
			<path fill="#B4BB4A" d="M780.9668,515.1709v-20.5068c0-4.5616-3.6582-8.2608-8.2607-8.2608h-66.9063
				c-4.5615,0-8.2607,3.6992-8.2607,8.2608v20.5068c0,4.5625,3.6992,8.3027,8.2607,8.3027h66.9063
				C777.3086,523.4736,780.9668,519.7334,780.9668,515.1709z"/>
		</g>
	</g>
	<path fill="#58595B" d="M996.2734,436.2857l-106.2773-12.5552c-10.1914-48.3506-29.2598-93.3926-55.4805-133.4829l66.3301-84.0845
		c4.7266-5.918,4.2334-15.3086-1.1914-20.6099l-75.166-75.228c-5.4668-5.4248-14.7129-5.98-20.7539-1.2329l-84.085,66.3306
		c-40.0283-26.1587-85.0293-45.2891-133.4834-55.358L573.6738,13.7266C572.7695,6.1851,565.8242,0,558.1387,0H451.7793
		c-7.644,0-14.5483,6.1851-15.5347,13.7266L423.71,120.0649c-48.3711,10.0689-93.4131,29.1993-133.3804,55.358l-84.1665-66.3306
		c-5.9795-4.7471-15.2061-4.1919-20.6099,1.2329l-75.2285,75.228c-5.4038,5.3013-6.0615,14.6919-1.2739,20.6509l66.269,84.0435
		c-26.0761,40.0903-45.1655,85.1323-55.2754,133.4829L13.7676,436.2857C6.1646,437.1694,0,444.1968,0,451.7588v106.4414
		c0,7.582,6.1646,14.5488,13.7676,15.4316l106.2768,12.5352c10.1099,48.3906,29.1993,93.4951,55.2754,133.5234l-66.269,84.1465
		c-4.7876,5.9796-4.1299,15.2266,1.2739,20.5684l75.2285,75.3105c5.3423,5.3428,14.6304,5.836,20.7129,1.1309l84.0635-66.3106
		c39.9673,26.1582,85.0093,45.2276,133.3804,55.3985l12.5346,106.2568c0.9864,7.5829,7.8907,13.7266,15.5347,13.7676l106.3594-0.041
		c7.6855,0.041,14.6308-6.1436,15.5351-13.7266l12.4922-106.2568c48.4541-10.1709,93.4551-29.2403,133.4834-55.3985l84.085,66.3106
		c6.041,4.7051,15.2871,4.1709,20.7539-1.1309l75.166-75.3105c5.4248-5.3418,5.918-14.5889,1.1914-20.5684l-66.3301-84.1465
		c26.2207-40.0283,45.2891-85.1328,55.4805-133.5234l106.2773-12.5967c7.5215-0.8214,13.7266-7.7881,13.7266-15.3701V451.7588
		C1010,444.1968,1003.7949,437.1694,996.2734,436.2857z M504.877,819.166c-173.4707,0-314.1456-140.6953-314.1456-314.207
		c0-173.5527,140.6749-314.207,314.1456-314.207c173.5937,0,314.3094,140.6543,314.3094,314.207
		C819.1865,678.4707,678.4707,819.166,504.877,819.166z"/>
</g>
</svg>
