<?xml version="1.0" encoding="utf-8"?>
<!-- Generator: Adobe Illustrator 17.1.0, SVG Export Plug-In . SVG Version: 6.00 Build 0)  -->
<!DOCTYPE svg PUBLIC "-//W3C//DTD SVG 1.1//EN" "http://www.w3.org/Graphics/SVG/1.1/DTD/svg11.dtd">
<svg version="1.1" id="visa-card" xmlns="http://www.w3.org/2000/svg" xmlns:xlink="http://www.w3.org/1999/xlink" x="0px" y="0px"
	 viewBox="0 0 1010 740.7324" enable-background="new 0 0 1010 740.7324" xml:space="preserve">
<g id="visa-card-visa-card">
	<path fill="#58595B" d="M945.9092,0H64.1523C28.8091,0,0,28.7681,0,64.0908v612.4893c0,35.3427,28.8091,64.1523,64.1523,64.1523
		h881.7569c35.3642,0,64.0908-28.8096,64.0908-64.1523V64.0908C1010,28.7681,981.2734,0,945.9092,0z M981.9922,676.5801
		c0,19.8906-16.1914,36.042-36.083,36.042H64.1523c-19.8906,0-36.083-16.1514-36.083-36.042V64.0908
		c0-19.8291,16.1924-36.0625,36.083-36.0625h881.7569c19.8916,0,36.083,16.2334,36.083,36.0625V676.5801z"/>
	<polygon fill="#58595B" points="449.375,271.1992 408.689,271.1992 367.0991,469.5332 407.9907,469.5332 	"/>
	<path fill="#58595B" d="M530.3159,438.8545c-16.0483,0-27.042-3.5352-33.0215-10.5821
		c-3.6987-4.3359-5.8154-12.6796-6.3291-25.0292l-38.8984,2.0351c-0.3081,13.2539,2.0757,24.9668,7.2334,35.1787
		c5.0752,10.2129,13.9111,18.1651,26.4048,23.8975c12.5552,5.6513,27.2265,8.6103,44.3437,8.6103
		c24.6787,0,43.9943-6.206,57.8233-18.6582c13.8086-12.3496,20.7539-27.3291,20.7539-44.8154
		c0-14.1582-4.6436-25.8096-13.9522-34.748c-6.1855-6.1856-20.7334-14.1583-43.5625-24.001
		c-15.1035-6.5752-24.9052-11.7534-29.3027-15.5552c-4.459-3.7397-6.6782-8.3838-6.6782-14.1167
		c0-5.9795,2.4248-11.0142,7.2539-14.9595c4.8286-4.0068,12.9048-6,24.186-6c11.4453,0,20.0957,2.5684,25.9317,7.6031
		c5.8769,5.0752,9.3291,12.288,10.2734,21.7607l39.1455-1.7261c-1.2529-18.103-8.2803-32.7134-21.042-43.563
		c-12.8008-10.9521-30.7607-16.4179-54.042-16.4179c-22.9321,0-40.4189,5.5683-52.5015,16.521
		c-12.1855,11.0141-18.124,24.8637-18.124,41.5488c0,9.5757,2.0137,17.9595,6.1031,25.0698
		c4.0478,7.1094,9.6167,12.9453,16.6445,17.3838c7.0889,4.417,18.3086,10.0479,33.6992,16.665
		c15.4121,6.7393,24.7617,11.5069,28.2344,14.4864c4.8691,4.0068,7.2939,9.041,7.2939,14.9179
		c0,6.8018-2.959,12.5137-8.8974,17.2608C553.3096,436.3887,543.6719,438.8545,530.3159,438.8545z"/>
	<polygon fill="#58595B" points="270.0278,421.2031 244.7944,271.1992 204.1084,271.1992 239.6572,469.5332 283.2817,469.5332 
		392.5791,271.1992 352.0986,271.1992 	"/>
	<path fill="#58595B" d="M681.9844,425.7451h78.6191l6.5956,43.7881h38.7334l-32.2402-198.334h-45.3096l-112.1543,198.334h41.961
		L681.9844,425.7451z M744.041,312.8511l11.5069,79.81h-59.3448L744.041,312.8511z"/>
	<rect x="81.7832" y="81.7627" fill="#B4BB4A" width="846.4541" height="153.9287"/>
	<rect x="81.7832" y="504.9795" fill="#B4BB4A" width="846.4541" height="153.9082"/>
</g>
</svg>
