<?xml version="1.0" encoding="utf-8"?>
<!-- Generator: Adobe Illustrator 17.1.0, SVG Export Plug-In . SVG Version: 6.00 Build 0)  -->
<!DOCTYPE svg PUBLIC "-//W3C//DTD SVG 1.1//EN" "http://www.w3.org/Graphics/SVG/1.1/DTD/svg11.dtd">
<svg version="1.1" id="vision" xmlns="http://www.w3.org/2000/svg" xmlns:xlink="http://www.w3.org/1999/xlink" x="0px" y="0px"
	 viewBox="0 0 1010 1010" enable-background="new 0 0 1010 1010" xml:space="preserve">
<g id="vision-vision">
	<path fill="#58595B" d="M1010,505c0,278.9043-226.1152,505-505,505C226.1157,1010,0,783.9043,0,505C0,226.0747,226.1157,0,505,0
		C783.8848,0,1010,226.0747,1010,505z M502.2466,273.2539c-229.0542,0-397.0381,228.9727-397.0381,228.9727
		s177.5391,234.5195,397.0381,234.5195c219.3345,0,402.5444-234.5195,402.5444-234.5195S731.1152,273.2539,502.2466,273.2539z"/>
	<g>
		<path fill="#B4BB4A" d="M687.7578,509.6035c0,104.5918-84.7832,189.375-189.3745,189.375
			c-104.5918,0-189.375-84.7832-189.375-189.375c0-104.6133,84.7832-189.3755,189.375-189.3755
			C602.9746,320.228,687.7578,404.9902,687.7578,509.6035z"/>
		<g>
			<path fill="#58595B" d="M593.5947,592.4551c1.8291-2.1172,3.5967-4.3163,5.2813-6.5352
				c0.6982-0.9043,1.3867-1.8281,2.0654-2.7539c1.7363-2.4238,3.3799-4.9726,5.0029-7.5205
				c0.4932-0.8213,0.9864-1.6435,1.4795-2.4658c1.5723-2.6709,3.0518-5.4658,4.418-8.2598c0.3701-0.8222,0.791-1.6035,1.1719-2.4668
				c1.2939-2.7939,2.4648-5.6914,3.5644-8.5478c0.3594-0.9865,0.7296-1.9727,1.0791-2.959
				c0.9453-2.6924,1.7666-5.4248,2.5166-8.2608c0.3604-1.3144,0.7305-2.6298,1.0176-3.9648c0.6065-2.4863,1.0996-4.9727,1.541-7.501
				c0.3087-1.747,0.5656-3.4931,0.8223-5.3017c0.2676-2.1778,0.4932-4.3555,0.668-6.5752c0.1543-2.1378,0.2773-4.2744,0.3281-6.4522
				c0.0625-2.0136,0.0625-4.0683,0.0215-6.082c-0.0312-2.2197-0.1651-4.3565-0.3291-6.5352
				c-0.1651-2.1777-0.3495-4.3554-0.6161-6.5341c-0.2365-1.9317-0.5656-3.8213-0.8839-5.6709
				c-0.4014-2.3838-0.8526-4.7676-1.418-7.1514c-0.3799-1.7261-0.8633-3.4522-1.3359-5.1782
				c-0.6779-2.4248-1.3868-4.8081-2.1885-7.1099c-0.586-1.6846-1.1914-3.3696-1.8281-4.9727
				c-0.8633-2.2192-1.7881-4.3559-2.7745-6.4931c-0.791-1.7261-1.6132-3.4522-2.4453-5.1372
				c-0.9863-1.8906-2.0135-3.7808-3.1133-5.6304c-1.0166-1.7671-2.0439-3.4932-3.123-5.1782
				c-1.1103-1.7261-2.3018-3.4111-3.4834-5.0547c-1.1709-1.644-2.3936-3.2881-3.6367-4.8496
				c-1.2949-1.6851-2.6719-3.2876-4.0586-4.8496c-1.2432-1.397-2.4961-2.8355-3.8115-4.1919
				c-1.6133-1.6846-3.2569-3.2466-4.9317-4.8491c-1.1924-1.1099-2.3935-2.2193-3.6161-3.2881
				c-1.9941-1.7261-4.0381-3.3286-6.0625-4.9317c-1.0781-0.7807-2.1367-1.5615-3.1846-2.3422
				c-2.3525-1.6851-4.7978-3.2876-7.2646-4.8086c-0.9141-0.5342-1.7773-1.0684-2.6914-1.6436
				c-2.6406-1.5205-5.4043-2.959-8.1777-4.3154c-0.8223-0.4107-1.6447-0.7808-2.4668-1.1919
				c-2.8457-1.315-5.7227-2.4658-8.6407-3.5342c-0.9345-0.3696-1.8486-0.7397-2.7529-1.0684
				c-2.8154-0.9863-5.6709-1.8086-8.5478-2.5893c-1.1719-0.2876-2.3428-0.6162-3.545-0.9038
				c-2.6714-0.6577-5.3735-1.1919-8.1167-1.6441c-1.4384-0.2465-2.9179-0.4521-4.3974-0.6577
				c-2.5581-0.3696-5.1372-0.6162-7.7261-0.7807c-1.6133-0.1231-3.2363-0.2056-4.8599-0.2466c-2.6816-0.0821-5.4043-0.1231-8.0962,0
				c-1.3149,0.041-2.6298,0.082-3.9453,0.1645c-3.226,0.2466-6.4419,0.4932-9.6782,0.9864c-0.5957,0.082-1.2021,0.164-1.7876,0.2465
				c-3.9248,0.6573-7.8393,1.397-11.7231,2.3833c-16.9214,4.3565-32.1172,11.9185-45.1861,21.7818
				c-0.1338,0.082-0.2773,0.2055-0.4214,0.3286c8.3121,5.3017,14.7539,13.562,17.3331,23.8364
				c5.5273,21.3701-7.4903,43.2749-28.9327,48.5357c-11.8974,3-23.8979,0.164-33.1855-6.6167
				c-1.3154,4.685-2.3223,9.4926-3.1235,14.3012c-0.1543,0.9864-0.2979,1.9727-0.4419,2.959
				c-0.5855,4.0684-0.8936,8.1787-1.0787,12.3301c-0.041,1.1504-0.144,2.2598-0.1645,3.4512
				c-0.0513,5.0546,0.1645,10.1103,0.7295,15.248c0.0513,0.6152,0.2056,1.1914,0.2568,1.7871
				c0.6065,4.7461,1.4795,9.5137,2.6304,14.2403c0.2363,0.9453,0.4932,1.9101,0.75,2.8554
				c0.8013,3.0625,1.7363,6.0625,2.7432,9.0215c0.4111,1.1504,0.8525,2.3008,1.2739,3.4522
				c1.0273,2.6298,2.0962,5.2197,3.2671,7.7255c0.6372,1.4395,1.3154,2.8164,2.0346,4.1924
				c1.0684,2.1787,2.2603,4.2744,3.4624,6.3701c0.9141,1.6026,1.8697,3.1641,2.856,4.7266c1.1611,1.8076,2.394,3.5752,3.627,5.2813
				c1.1508,1.623,2.3422,3.2666,3.5649,4.7871c1.2949,1.6025,2.6304,3.205,3.9868,4.7461c1.315,1.5,2.5889,2.9394,3.9453,4.3359
				c1.5308,1.623,3.0821,3.123,4.6748,4.6035c1.2945,1.2324,2.6094,2.4238,3.9658,3.5957c1.8389,1.5615,3.6988,3.1035,5.6402,4.5625
				c1.1816,0.9443,2.3735,1.8281,3.6167,2.6914c2.1885,1.582,4.4692,3.041,6.7607,4.5c1.0581,0.6572,2.0957,1.2949,3.1743,1.9102
				c2.5176,1.459,5.0962,2.8359,7.7266,4.1104c0.9453,0.4932,1.9214,0.9658,2.9077,1.3975
				c2.7227,1.2734,5.4966,2.4248,8.3423,3.4726c0.9863,0.3692,1.9522,0.7188,2.959,1.0479
				c2.7744,0.9863,5.6099,1.8701,8.4355,2.6103c1.1914,0.3282,2.3628,0.6563,3.5445,0.9034
				c2.7021,0.6572,5.4453,1.1709,8.1987,1.6844c1.4077,0.2676,2.8564,0.4727,4.2744,0.6172c2.6196,0.3692,5.25,0.6573,7.8594,0.8418
				c1.603,0.124,3.2158,0.1856,4.8188,0.2266c2.6714,0.1025,5.3531,0.1025,8.0757,0.0205c1.3662-0.0205,2.7534-0.1025,4.1299-0.2061
				c3.0825-0.1836,6.1543-0.4726,9.2368-0.8828c0.8628-0.1445,1.7158-0.2871,2.5786-0.3906
				c3.545-0.5957,7.0689-1.2734,10.6133-2.1582c0.5142-0.1016,1.0073-0.2256,1.5005-0.4102
				c3.5962-0.9043,7.0991-1.9726,10.5308-3.205c0.6982-0.2676,1.377-0.5137,2.0341-0.7403
				c3.1446-1.1718,6.1543-2.4863,9.1348-3.8633c0.9649-0.4316,1.9307-0.8837,2.8867-1.3974
				c2.6299-1.3154,5.1465-2.6924,7.6328-4.1709c1.1817-0.6777,2.3536-1.418,3.5245-2.1367
				c2.2089-1.3985,4.3466-2.8985,6.4423-4.4395c1.2637-0.9043,2.5069-1.7666,3.709-2.7324c1.9932-1.541,3.9247-3.1856,5.7949-4.8496
				c1.1504-0.9863,2.2803-2.0137,3.3799-3.0615c1.8799-1.8086,3.709-3.6573,5.4756-5.5889
				C591.7559,594.5098,592.6807,593.4824,593.5947,592.4551z"/>
			<path fill="#FFFFFF" d="M410.1069,481.7393c21.4424-5.2608,34.46-27.1656,28.9327-48.5357
				c-2.5792-10.2744-9.021-18.5347-17.3331-23.8364c-25.0791,19.1924-42.6689,47.5083-47.9086,80.0566
				c0.8012-4.8086,1.8081-9.6162,3.1235-14.3012C386.209,481.9033,398.2095,484.7393,410.1069,481.7393z"/>
		</g>
	</g>
</g>
</svg>
