<?xml version="1.0" encoding="utf-8"?>
<!-- Generator: Adobe Illustrator 17.1.0, SVG Export Plug-In . SVG Version: 6.00 Build 0)  -->
<!DOCTYPE svg PUBLIC "-//W3C//DTD SVG 1.1//EN" "http://www.w3.org/Graphics/SVG/1.1/DTD/svg11.dtd">
<svg version="1.1" id="worldwide-business" xmlns="http://www.w3.org/2000/svg" xmlns:xlink="http://www.w3.org/1999/xlink" x="0px"
	 y="0px" viewBox="0 0 1010.0013 716.4336" enable-background="new 0 0 1010.0013 716.4336" xml:space="preserve">
<g id="worldwide-business-worldwide-business">
	<path fill="#58595B" d="M754.9096,99.2647c94.1758-21.6006,160.9707-19.1153,176.8301,12.7236
		c30.6562,61.4883-139.9405,208.7871-381,329.0019C309.6391,561.2041,89.3324,608.8047,58.6772,547.3164
		C42.4613,514.8066,82.5658,458.29,159.5981,394.4746C45.7358,480.2266-17.1529,558.5996,4.0932,601.1699
		c35.1328,70.5624,287.9502,15.9199,564.5976-122.0293c276.6465-137.9277,472.4042-306.9663,437.2217-377.4887
		C985.0815,59.8511,888.0258,61.9814,754.9096,99.2647z"/>
	<path fill="#B4BB4A" d="M216.1742,551.9531c9.7852-2.0918,19.9239-4.5371,30.3399-7.2402
		c-1.3418-1.9727-2.7422-3.8867-4.0635-5.918h26.1182c30.6943-8.6015,63.5195-19.3711,97.8837-32.1152
		c-10.9687-40.7949-17.7539-86.166-18.8593-133.9043h155.2099v76.2832c9.6661-4.5772,19.3321-9.2129,29.1162-14.0459v-62.2373
		h116.1514c23.6719-13.7891,46.2002-27.7754,67.544-41.6631c-1.8545-44.1484-7.9297-86.1465-17.833-124.3765H809.356
		c7.0224,13.4732,13.0595,27.5581,18.1884,42.0767c8.3243-7.0425,16.1758-14.0059,23.5528-20.8311
		c-21.3438-54.643-55.7471-102.6972-99.3828-140.4736c-2.3282,0.5322-4.6153,1.0059-7.0625,1.5386
		c2.3281-0.6314,4.498-1.2036,6.7469-1.7954C692.0609,35.9224,615.7582,3.709,531.9193,0.355V0h-29.1162v0.355
		C316.5435,7.8315,166.9565,157.3994,159.4995,343.6777h-0.3945v29.0977h0.3945
		C162.1234,438.6816,182.6195,499.9141,216.1742,551.9531z M792.2729,177.5996H689.2592
		c-18.3848-56.5371-45.0947-103.23-77.1699-134.5361C686.7748,65.5718,750.2553,113.8623,792.2729,177.5996z M531.9193,30.478
		c52.1192,9.0347,98.3184,65.8672,126.5665,147.1216H531.9193V30.478z M531.9193,206.7358h135.6016
		c11.4414,41.5245,18.4248,88.0201,19.6084,136.9419h-155.21V206.7358z M502.8031,343.6777H347.5932
		c1.1445-48.9218,8.1279-95.4174,19.6084-136.9419h135.6015V343.6777z M502.8031,30.478v147.1216H376.2368
		C404.4457,96.3452,450.685,39.5127,502.8031,30.478z M422.6342,43.0635c-32.1152,31.3061-58.8252,77.999-77.1904,134.5361H242.4506
		C284.4682,113.8623,347.9486,65.5718,422.6342,43.0635z M225.3275,206.7358h111.5743
		c-10.8496,41.8599-17.3594,88.1187-18.4639,136.9419H188.6166C190.8061,294.4404,203.8061,248.0435,225.3275,206.7358z
		 M318.438,372.7754c1.1045,48.7637,7.6143,95.0625,18.4639,136.9219H225.3275c-21.5214-41.3262-34.5214-87.7442-36.7109-136.9219
		H318.438z"/>
	<path fill="#B4BB4A" d="M875.558,343.6777h-0.3545c-0.4345-11.3818-1.4599-22.5669-2.959-33.6137
		c-8.7587,6.8452-17.7939,13.7495-27.2226,20.7329c0.3546,4.2812,0.8681,8.5215,1.0654,12.8808H827.307
		c-13.5322,9.6465-27.6171,19.3721-42.2939,29.0977h61.0742c-2.1699,49.1777-15.1894,95.5957-36.7314,136.9219H697.7817
		c7.457-28.7207,12.7041-59.6133,15.663-91.8868c-10.2968,6.1358-20.832,12.2901-31.4843,18.4053
		c-3.3536,25.7237-8.0879,50.3819-14.4395,73.4815H541.9409c-21.3447,10.2187-42.4521,19.9443-63.3427,29.0976h24.205v147.1807
		c-43.9511-7.6143-83.6806-49.3174-111.9882-110.9424c-9.1729,3.5107-18.2872,6.9434-27.2823,10.1777
		c16.294,35.8243,36.3369,65.9473,59.1016,88.1397c-45.1748-13.6123-86.1465-36.79-120.8457-67.0117
		c-11.0869,3.5312-21.9365,6.8057-32.5889,9.8838c61.0742,58.8242,142.9395,96.2061,233.6035,99.8359v0.375h29.1162v-0.375
		c186.2207-7.457,335.8282-157.0439,343.2842-343.2832h0.3545v-14.3613c0-0.0791,0-0.1387,0-0.1973s0-0.1387,0-0.1973V343.6777z
		 M531.9193,685.9756V538.7949h126.5665C630.2377,620.0488,584.0385,676.9209,531.9193,685.9756z M612.0894,673.3506
		c32.0752-31.2666,58.7851-77.9795,77.1699-134.5557h103.0137C750.2553,602.5312,686.7748,650.8613,612.0894,673.3506z"/>
</g>
</svg>
