<?xml version="1.0" encoding="utf-8"?>
<!-- Generator: Adobe Illustrator 17.1.0, SVG Export Plug-In . SVG Version: 6.00 Build 0)  -->
<!DOCTYPE svg PUBLIC "-//W3C//DTD SVG 1.1//EN" "http://www.w3.org/Graphics/SVG/1.1/DTD/svg11.dtd">
<svg version="1.1" id="worldwide-business-locations"
	 xmlns="http://www.w3.org/2000/svg" xmlns:xlink="http://www.w3.org/1999/xlink" x="0px" y="0px"
	 viewBox="0 0 1010.0003 1010.0058" enable-background="new 0 0 1010.0003 1010.0058" xml:space="preserve">
<g id="worldwide-business-locations-worldwide-business-locations">
	<path fill="#B4BB4A" d="M938.3868,243.6188C855.256,103.7306,699.5647,9.8571,542.5236,1.4093
		C334.3205-14.3509,134.2658,103.3019,46.2248,292.8498C-17.115,420.237-14.6707,599.7291,49.3127,725.3365
		c81.3511,173.8945,272.2715,292.1484,464.1777,284.3008c194.8868-0.3008,379.3321-129.7891,454.8291-304.8633
		C1034.7042,563.9634,1019.6525,374.1579,938.3868,243.6188z M495.9294,967.3306
		c-79.5713-53.582-145.6343-131.0527-186.5459-215.2558c57.3145-26.6739,119.1963-40.0762,187.2105-41.834L495.9294,967.3306z
		 M561.3918,977.4517C621.1075,932.938,674.1779,875.153,713.2014,812.563c8.6201-13.6796,15.8027-26.6308,23.5009-40.9765
		c35.8721,18.4199,68.7432,43.6562,99.792,73.2461C760.2678,918.5084,665.258,964.6724,561.3918,977.4517z M525.4553,966.3033
		l1.1147-255.9336c62.2681,3.6875,125.4361,18.5898,180.6704,45.3281l3.4317,2.0371
		C670.1467,839.0865,601.7678,914.3698,525.4553,966.3033z M973.9807,523.2662c2.08,1.1367,4.8457,0.4726,7.375,0.7285
		c-4.416,111.6289-47.5362,213.2422-124.2774,299.0098c-33.2998-31.6485-69.8799-56.9063-107.125-78.7774
		c30.2764-67.9082,49.7891-147.9726,50.8184-220.5527l75.0898-0.1934l-0.2578-0.2148c0,0-14.3867-14.5801-28.582-28.7325
		l-46.1211,0.086c-2.6172-82.6807-21.0352-156.9346-51.6113-228.1865c-8.4493,8.4482-14.8594,14.8808-14.8594,14.8808
		l-8.3633,8.4478c27.7031,62.997,43.2705,131.0971,45.0938,204.729l-203.9355,0.4726
		c10.6348,7.6758,19.4902,17.5391,26.2227,28.9453l170.915-0.4277l6.669,0.4707c-0.836,73.5469-19.7911,142.2266-47.1084,206.0156
		c-57.4865-26.5234-120.6339-43.4414-188.2188-47.9433c-4.7173,4.7168-7.9761,7.9336-7.9761,7.9336l-15.9531,16.0371
		l-15.9102-16.0801c0,0-3.5166-3.5605-8.5766-8.6211c-66.4917,2.5956-131.6543,17.9258-190.4483,43.3574
		c-3.1953-7.6992-5.7895-15.7597-8.6626-23.7148c0.9004,5.1875,1.5865,10.4414,1.5865,15.8887
		c0,19.9394-5.4033,36.9863-16.8965,53.3261c3.0879-1.7597,6.1753-3.6894,9.2632-5.3828
		c39.4961,79.1641,103.2651,158.6719,179.5986,214.4844c-111.5845-9.3691-211.0327-57.7852-289.9824-133.4766
		c2.873-3.1308,6.1538-5.7461,9.1557-8.705l-2.101-2.0586c0,0-8.5987-8.7266-19.0196-19.1895
		c-3.0444,2.7012-6.1538,5.252-9.1772,7.9336C74.6569,739.6177,33.3596,638.5181,28.5568,524.0806l179.4488-0.3418l16.5957,0.5137
		c0.622,37.2441,5.039,73.2246,12.5869,108.0254c17.7109,8.9199,32.0771,23.1152,41.3188,40.6113
		c-13.7876-44.9863-22.729-92.287-24.6372-137.4863l0.4932-11.4512l176.0395-0.2773c6.69-11.2578,15.5025-21.1211,26.0948-28.7969
		l-202.9278,0.0859c0.7935-29.6767,4.2026-58.1088,9.1343-85.9834l-5.2744,5.253l-15.8887-16.1031c0,0-2.3374-2.3369-5.9394-5.9604
		c-6.9043,34.9077-10.9571,69.9438-11.5357,102.6435l-194.6299,0.2793l-0.7075-0.6875l1.2652-36.0654
		c2.1225-1.5649-0.4078-4.5454,1.2221-6.6255c12.8653-99.4697,50.646-190.8559,120.6758-266.3965
		c11.4502,10.9571,23.4365,21.1636,35.6367,30.9839c6.7329-7.4189,14.5591-13.5512,23.2862-18.5259
		c-13.4654-10.5493-26.4595-21.6137-37.8453-33.5781C254.985,85.8053,356.1916,38.9543,469.2771,30.5705
		C407.2448,75.8775,350.488,137.1374,310.4558,201.1847c8.4052,5.6607,15.5454,12.8438,21.7846,20.8633
		c41.062-68.1645,99.9204-130.3247,166.2408-176.1035l-1.1153,253.2949c-54.4629-1.1577-100.1772-10.249-145.5058-25.7305
		c0.1504,2.2085,0.6435,4.2886,0.6435,6.5186c0,8.4482-1.2866,16.21-3.2593,23.7578
		c47.4942,15.2666,97.9473,24.7012,148.6578,25.0869l-0.6646,149.4087c4.7598-0.772,9.606-1.501,14.5806-1.501
		c5.4033,0,10.5708,0.729,15.7168,1.608l-0.3643-148.2291l0.043-2.2944c62.8257-2.2085,124.0639-17.3462,179.8989-41.9189
		l-4.5244-4.6314c-0.0215,0-7.9551-8.0195-17.8613-17.9043c-48.7383,20.5845-100.3067,33.085-157.4062,34.8003l0.4077-247.0981
		c35.3794,23.2002,69.5152,53.0903,99.813,86.1968c2.916-10.378,7.3535-20.1124,13.4863-28.732
		c-27.7675-29.2041-58.1074-55.8354-89.2421-77.6636c51.6113,5.4463,101.207,18.462,147.951,39.1748
		c6.0899-1.2436,12.3506-1.8867,18.7832-1.8867c43.7207,0,80.2364,29.8257,91.2578,70.0728
		c9.584,7.9336,19.0186,16.1885,28.1309,24.98c-8.8769,9.0483-18.5039,17.5825-28.3457,25.8374
		c-4.6104,15.9746-13.3584,30.5981-27.875,45.0498c-8.3623,8.2124-19.8984,19.7265-29.4824,29.3545
		c38.0381-20.606,73.7383-46.8941,106.1592-78.2207c39.7968,43.3769,69.8798,91.8364,90.4423,144.5195
		c22.793,17.3677,37.7598,44.5351,37.7598,75.3257c0,14.5376-3.0664,27.4887-9.0488,39.8393
		c2.0371,16.1675,3.4961,32.6348,3.9668,49.3594l-45.2207,0.0859c-14.4737,14.4532-28.7969,28.8614-28.7969,28.8614l-0.1289,0.1504
		L973.9807,523.2662z"/>
	<path fill="#58595B" d="M765.8635,218.1886c16.918-16.8105,25.1728-32.978,25.1728-55.0205
		c0-40.0967-32.4629-72.5171-72.5166-72.5171c-26.2451,0-48.9951,13.959-61.7109,34.7788
		c-6.0889,9.8853-9.7773,21.3565-10.4629,33.6641c-0.0644,1.3726-0.4297,2.6807-0.4297,4.0742
		c0,22.0425,9.6494,39.7534,25.2598,55.0205c9.4336,9.2627,24.7871,24.6153,35.4219,35.3365
		c6.9472,6.9902,11.9218,11.9433,11.9218,11.9433s21.8282-21.8926,38.8535-38.832
		C760.3742,223.592,763.2912,220.7184,765.8635,218.1886z M719.1193,193.6588c-4.288,0-8.3613-0.9008-12.0712-2.3803
		c-11.8145-4.6958-20.2198-15.9312-20.6495-29.354c0-0.3218-0.0849-0.6861-0.0849-1.0723c0-18.0757,14.666-32.7632,32.8056-32.7632
		c18.0547,0,32.7637,14.6875,32.7637,32.7632C751.883,178.9494,737.174,193.6588,719.1193,193.6588z M194.7326,644.2427
		c-40.0752,0-72.56,32.4844-72.56,72.5821c0,21.9765,9.6489,39.6875,25.2588,55.0195c7.7407,7.6113,19.5336,19.4043,29.3969,29.2891
		c9.9278,9.9921,17.9043,18.0546,17.9043,18.0546s30.4478-30.5332,47.3443-47.3437c9.6489-9.541,16.1884-19.041,20.2412-29.3965
		c2.0156-4.9316,3.3022-10.1426,4.0312-15.6758c0.3858-3.2363,1.0293-6.4101,1.0293-9.9472
		c0-20.3926-8.5341-38.8106-22.1069-51.9981C232.2136,652.1334,214.4382,644.2427,194.7326,644.2427z M195.3762,747.2936
		c-18.0972,0-32.8281-14.709-32.8281-32.8066c0-18.0977,14.7309-32.8067,32.8281-32.8067c18.1396,0,32.7846,14.709,32.7846,32.8067
		C228.1608,732.5845,213.5158,747.2936,195.3762,747.2936z M511.8181,499.2292c-21.4849,0-40.6973,9.5859-53.9483,24.4882
		c-11.4287,12.8008-18.5903,29.5254-18.5903,48.0508c0,22.043,9.6489,39.711,25.1943,55.0197
		c8.7271,8.5351,22.2998,22.1718,32.7637,32.6777c8.2764,8.3203,14.5806,14.7109,14.5806,14.7109s6.518-6.5625,15.0307-15.0957
		c10.0987-10.1211,23.1573-23.1582,32.3135-32.2928c16.9609-16.8106,25.2578-32.9766,25.2578-55.0197
		c0-18.3965-7.0752-35.037-18.3535-47.8163C552.7082,508.9009,533.4748,499.2292,511.8181,499.2292z M527.0847,598.6569
		c-4.417,2.2305-9.3487,3.623-14.6236,3.623c-5.4892,0-10.5922-1.4785-15.0952-3.8378
		c-10.4848-5.5098-17.6679-16.3594-17.6679-28.9903c0-12.6289,7.2255-23.5,17.7324-28.9669
		c4.5244-2.3379,9.5844-3.7949,15.0307-3.7949c5.4034,0,10.4209,1.4355,14.9239,3.7305
		c10.5488,5.4453,17.8398,16.338,17.8398,29.0312C545.2248,582.274,537.8058,593.274,527.0847,598.6569z M319.9973,243.7472
		c-5.3179-9.2197-12.4366-17.2177-21.1846-23.2861c-11.7505-8.1694-25.9453-12.9937-41.3403-12.9937
		c-9.4346,0-18.3975,1.9082-26.6743,5.2105c-9.7774,3.8809-18.5474,9.7988-25.6875,17.3037
		c-12.4151,13.0366-20.1983,30.5762-20.1983,50.0459c0,21.9565,9.6704,39.689,25.2588,54.9985
		c8.2764,8.1055,21.0132,20.8633,31.2197,31.1128c9.0269,9.0913,16.0816,16.2315,16.0816,16.2315s5.918-5.9395,13.8515-13.8946
		c10.2491-10.2705,23.9507-23.9936,33.5352-33.4497c12.415-12.3076,20.0268-24.3364,23.3076-38.4453
		c1.1792-5.2319,1.9082-10.6352,1.9082-16.5532c0-5.1675-0.5576-10.1851-1.6294-15.0522
		C326.8586,257.3415,323.7927,250.2873,319.9973,243.7472z M258.0939,310.4753c-0.1069,0-0.1929,0-0.2788,0
		c-17.9897-0.1719-32.5273-14.7525-32.5273-32.7852c0-10.3564,4.8672-19.4907,12.3721-25.4731
		c5.6391-4.503,12.6933-7.3116,20.4341-7.3116c18.1187,0,32.7852,14.666,32.7852,32.7847
		C290.8791,295.7873,276.2126,310.4753,258.0939,310.4753z M938.9006,460.1407c16.9394-16.8535,25.1738-33.0635,25.1738-55.0205
		c0-40.0537-32.4638-72.5601-72.5176-72.5601c-40.0752,0-72.581,32.5064-72.581,72.5601c0,21.957,9.6279,39.7109,25.2373,55.0205
		c9.1777,8.9844,23.8652,23.6723,34.4785,34.3501c7.376,7.4414,12.8652,12.9512,12.8652,12.9512s5.4893-5.4883,12.9942-12.9942
		C914.8,484.1353,929.0373,469.8542,938.9006,460.1407z M892.1573,435.5894c-18.1181,0-32.8066-14.688-32.8066-32.8276
		c0-18.1187,14.6885-32.7422,32.8066-32.7422c18.0537,0,32.7842,14.6235,32.7842,32.7422
		C924.9416,420.9015,910.2111,435.5894,892.1573,435.5894z"/>
</g>
</svg>
